<?xml version="1.0" encoding="utf-8"?>
<!-- Generator: Adobe Illustrator 20.1.0, SVG Export Plug-In . SVG Version: 6.00 Build 0)  -->
<svg version="1.1" id="Layer_1" xmlns="http://www.w3.org/2000/svg" xmlns:xlink="http://www.w3.org/1999/xlink" x="0px" y="0px"
	 width="300px" height="160px" viewBox="0 0 300 160" style="enable-background:new 0 0 300 160;" xml:space="preserve">
<style type="text/css">
	.st0{fill:#0468AF;}
	.st1{fill-rule:evenodd;clip-rule:evenodd;fill:#FFFFFF;}
	.st2{fill:#FFFFFF;}
</style>
<path class="st0" d="M300,79.6680603c0-29.6250648-70.4021759-79.641922-149.924118-79.667572V0
	c-0.0099182,0-0.020401,0.0004858-0.0303192,0.0004858C150.035553,0.0004858,150.0251617,0,150.015152,0v0.0004858
	C70.6370163,0.026135,0.3505395,49.8608398,0.0967711,79.5058136H0c0,29.6250534,70.4021835,79.6420288,149.924118,79.667572
	v0.0004883c0.0099182,0,0.020401,0,0.0303192,0c0.0100098,0,0.020401,0,0.0304108,0v-0.0004883
	c79.3781586-0.0255432,149.6646271-49.8603516,149.9183807-79.5053253H300z"/>
<path class="st1" d="M292.7033691,79.1618805c0-22.4379272-49.0325775-58.9488297-105.8898315-71.1142426
	c4.6125946,4.3312225,9.9618225,12.1810398,12.6146698,16.2703438
	c42.0119781,12.4315319,79.1779938,38.2096863,80.2198029,54.3581161c0,16.0985718-36.9876404,42.5556641-82.0414734,55.448761
	l6.6329346,10.6924438C254.6378784,130.1608124,292.5287781,99.5666199,292.7033691,79.1618805z"/>
<path class="st1" d="M6.7553658,79.6362915C6.4285326,57.2961044,55.2120094,20.8568077,112.6001205,8.4119759
	c-4.612587,4.3312225-9.9618073,12.1810398-12.6146622,16.2703438
	c-42.011982,12.4315338-79.0015717,38.2500076-80.0432816,54.3984375c0,16.0985794,36.987648,42.5561523,82.0413971,55.4487686
	c0,0-0.0758743,8.3190002-0.0758743,12.4481354C55.2120094,135.4403534,7.1096945,103.8736496,6.7553658,79.6362915z"/>
<g>
	<path class="st2" d="M39.871048,87.6569214h-4.7363625V76.485321h-3.7216663v-3.855835
		c2.511488-0.0541153,4.3364697-1.0868835,4.8601398-4.4014664h3.5978889V87.6569214z"/>
	<path class="st2" d="M48.6559105,77.4598007c-1.1893883,0-2.0123978-1.0342255-2.0123978-2.55793
		c0-1.6329041,0.7087555-2.6671295,2.1039162-2.6671295c1.1432381,0,2.1494827,1.0887299,2.1494827,2.4764099
		C50.8969116,76.2078476,50.2792931,77.4051971,48.6559105,77.4598007z M42.29422,83.0045013
		c0.6831055,3.8810043,3.5523224,5.0485306,6.5675621,5.0485306c4.4796791,0,7.0390625-3.9645691,7.0390625-9.8584366
		c0-6.961731-2.8791275-9.9675446-7.5651627-9.9675446c-3.6277084,0-6.4285316,2.0849686-6.4285316,6.7563324
		c0,2.7486496,1.6849785,6.2051773,5.422287,6.2051773c1.5408974,0,2.4996376-0.3264465,3.778595-1.3881683
		c0.0227356,2.4996338-0.7077827,4.3967056-2.4659195,4.3967056c-0.9360008,0-1.6670036-0.4606171-1.9179611-1.5175858
		L42.29422,83.0045013z"/>
	<path class="st2" d="M63.6913185,68.1070633l-4.9279594,22.0077133h-2.8748512l4.928051-22.0077133H63.6913185z"/>
	<path class="st2" d="M71.7912292,78.7899628c1.188797,0,2.012291,1.0342331,2.012291,2.55793
		c0,1.6329041-0.7091446,2.667038-2.1039124,2.667038c-1.1432343,0-2.1494827-1.0887375-2.1494827-2.4763184
		C69.5501251,80.0419083,70.1673584,78.8445663,71.7912292,78.7899628z M78.1528168,73.2755737
		c-0.6831055-3.881012-3.5522232-5.0485229-6.5675583-5.0485229c-4.4801712,0-7.0390701,3.9645538-7.0390701,9.856102
		c0,6.9617233,2.8786392,9.9698792,7.5647736,9.9698792c3.6281052,0,6.4289246-2.0869141,6.4289246-6.7591553
		c0-2.7486496-1.6849823-6.2022552-5.4227753-6.2022552c-1.5403137,0-2.4996338,0.3263474-3.7781067,1.3870926
		c-0.0227356-2.4981766,0.7077789-4.3957291,2.4659195-4.3957291c0.935997,0,1.6665192,0.4606171,1.9179611,1.5180664
		L78.1528168,73.2755737z"/>
</g>
<g>
	<path class="st2" d="M229.4470367,87.7214355h-4.7363739V76.5498352h-3.7216644v-3.8553543
		c2.5114899-0.0545959,4.3364716-1.0868835,4.8601532-4.401947h3.5978851V87.7214355z"/>
	<path class="st2" d="M238.2318878,77.5243149c-1.1893768,0-2.0123901-1.0337448-2.0123901-2.55793
		c0-1.6324158,0.7087555-2.6671295,2.1039124-2.6671295c1.1432343,0,2.1494904,1.0887299,2.1494904,2.4768982
		C240.4729004,76.2728424,239.8552704,77.4701843,238.2318878,77.5243149z M231.8702087,83.0695038
		c0.6831055,3.8805084,3.5523224,5.048027,6.5675659,5.048027c4.4796753,0,7.0390625-3.9640579,7.0390625-9.8579407
		c0-6.9617386-2.8791351-9.9680328-7.5651703-9.9680328c-3.6277008,0-6.4285278,2.0854568-6.4285278,6.75634
		c0,2.7486496,1.6849823,6.2051697,5.422287,6.2051697c1.5408936,0,2.4996338-0.3264465,3.778595-1.3880692
		c0.0227356,2.4995346-0.7077789,4.3966064-2.4659271,4.3966064c-0.9360046,0-1.6670074-0.4606171-1.9179535-1.5175781
		L231.8702087,83.0695038z"/>
	<path class="st2" d="M255.3836517,87.7214355h-4.7363586V76.5498352h-3.7216644v-3.8553543
		c2.5114746-0.0545959,4.3364563-1.0868835,4.8601379-4.401947h3.5978851V87.7214355z"/>
	<path class="st2" d="M265.5205383,87.7214355h-4.7363586V76.5498352H257.0625v-3.8553543
		c2.5115051-0.0545959,4.3364868-1.0868835,4.8601379-4.401947h3.5979004V87.7214355z"/>
</g>
<path class="st2" d="M192.7335663,79.1646957l-16.0677948,31.6033478l23.3948212,35.6341629l-14.0672455,3.6257782
	c0,0-12.828598-22.4767914-16.0896454-26.2453918l-5.0014954,9.7488556l-0.0858765,18.8709259h-14.4923096V78.9683304H164.81633
	l0.0455475,29.9301376l12.3266907-29.7337723H192.7335663z"/>
<polygon class="st2" points="143.7911377,78.9825287 143.7911377,93.3130646 121.8702774,93.3130646 121.8702774,107.2792664 
	141.3015137,107.2792664 141.3015137,119.4237823 121.8702774,119.4237823 121.8095551,150.4098969 107.7219086,148.1427612 
	107.6611862,78.9825287 "/>
<path class="st2" d="M176.8972931,7.58848c-8.5775146-1.1779213-13.3746185-1.4815345-13.3746185-1.4815345l-13.4771118,22.9412937
	L136.7473145,5.9129248c0,0-4.7970886,0.3036132-13.3750992,1.4815345c0,0-30.9775696,22.7571831-35.9164963,71.5738678h15.7878799
	c0,0,7.0874405-42.2311516,26.3991776-54.3325348L150.0455627,54.81493l20.581665-29.9855042
	c19.3116302,12.1017723,26.3720856,54.1389046,26.3720856,54.1389046h15.6664276
	C207.6418762,29.3133774,176.8972931,7.58848,176.8972931,7.58848z"/>
</svg>
