<svg xmlns="http://www.w3.org/2000/svg" enable-background="new 0 0 416.095 600" height="153.8260040283203" width="100" style=""><rect id="backgroundrect" width="100%" height="100%" x="0" y="0" fill="none" stroke="none"/><g class="currentLayer" style=""><title>Layer 1</title><path d="m97.581078 39.7447h-95.162399l.08772 36.1629c.534012 14.9672 4.800105 28.7276 12.797798 41.28 7.906368 12.4077 19.471996 23.6554 34.695445 33.7423 15.223685-10.0874 26.789317-21.3346 34.695676-33.7423 7.99818-12.5524 12.26427-26.3125 12.79828-41.28z" fill="#fff" id="svg_3" class=""/><path d="m5.253368 43.7272-.0029-1.149h1.151901l87.194989-.0005h1.15142l-.002 1.149c-.0529 22.5843-.36025 33.2225-.36073 33.258-.47874 13.8887-4.45884 26.772-11.77111 38.5374-7.347359 11.8208-18.0615 22.5083-31.97034 31.9437l-.643845.4371-.644565-.4371c-13.909474-9.4354-24.623373-20.1226-31.970734-31.9437-7.312033-11.7651-11.291653-24.6485-11.77087-38.5371-.000481-.036-.308343-10.6735-.361216-33.2578z" fill="#fff" id="svg_4" class=""/><path d="m49.337293 153.3913c-15.831722-10.3827-27.854698-22.0187-36.067246-34.9076-8.234658-12.924-12.627164-27.0876-13.176077-42.4908v-.043l-.09157-37.4163-.0024-1.2117 1.20934.0005h97.581558l1.2091-.0005-.003 1.2117-.0911 37.4165v.043c-.54891 15.4034-4.9419 29.5668-13.17608 42.491-8.212549 12.8886-20.23576 24.5247-36.06748 34.9076l-.662715.4343zm-34.033095-36.2037c7.906368 12.4077 19.471996 23.6554 34.695445 33.7423 15.223685-10.0874 26.789316-21.3346 34.695675-33.7423 7.99818-12.5524 12.26427-26.3125 12.7978-41.28h.00048l.0875-36.1629h-95.162399l.08772 36.1629c.534012 14.9672 4.800105 28.7276 12.797798 41.28z" fill="#cba052" id="svg_5" class="" fill-opacity="1"/><path d="m62.459296311779994,8.945248446555802 l-7.7217945462,5.587666455 l2.9627850347199995,9.059469879039998 l-7.700164869599999,-5.6177076725 l-7.6999245398600005,5.6177076725 l2.96254470498,-9.059469879039998 l-7.7220348759399995,-5.587666455 l9.531477488399998,0.01850538998000088 l2.9279372224199998,-9.07100570656 l2.92769689268,9.07100570656 z" fill="#cba052" id="svg_6" class="" fill-opacity="1"/><path d="m22.645844580129552,19.75636879672943 l2.92769689268,-9.07100570656 l2.9284178818999997,9.07100570656 l9.53099682892,-0.018505389980000096 l-7.72131388672,5.587666455 l2.96230437524,9.059469879039998 l-7.700405199339999,-5.6177076725 l-7.6999245398600005,5.6177076725 l2.96302536446,-9.059469879039998 l-7.7220348759399995,-5.587666455 z" fill="#cba052" id="svg_7" class="" fill-opacity="1"/><path d="m71.49828514857046,19.75636879672943 l2.9279372224199998,-9.07100570656 l2.92769689268,9.07100570656 l9.531477488399998,-0.018505389980000096 l-7.7217945462,5.587666455 l2.9627850347199995,9.059469879039998 l-7.700164869599999,-5.6177076725 l-7.6999245398600005,5.6177076725 l2.96254470498,-9.059469879039998 l-7.7220348759399995,-5.587666455 z" fill="#cba052" id="svg_8" class="" fill-opacity="1"/><path d="m21.766184 64.6046v1.4468h-2.40498v-1.4468c-1.943546-.071-3.311263-.5647-4.110599-1.4665-.798856-.906-1.198284-2.0389-1.198284-3.4038 0-1.4345.415049-2.584 1.252117-3.446.833704-.8669 2.190125-1.3372 4.056766-1.4117v-1.2274h2.405221v1.2274c1.932491.07 3.299487.5563 4.102669 1.4547.80222.8976 1.205734 2.0346 1.205734 3.4107 0 1.3682-.398947 2.5021-1.202129 3.4038-.802702.8979-2.170659 1.3879-4.106515 1.4588zm0-2.0942c.641441 0 1.194439-.1096 1.655632-.329s.791165-.5179.983189-.8861c.192264-.3725.292001-.9178.292001-1.6352 0-1.796-.975499-2.6936-2.930822-2.6936zm-2.40498 0v-5.5437c-1.033177 0-1.782766.2351-2.239392.7095-.457107.4708-.687824 1.1843-.687824 2.1367-.00024 1.8003.975739 2.6975 2.927216 2.6975zm10.046264 3.541v-12.4135h2.454488v5.5124l4.959444-5.5124h3.299728l-5.338926 5.6254 5.588631 6.7881h-3.176681l-4.10291-5.0351-1.233131 1.2828v3.7523h-2.454969.0043z" fill="#da291c" stroke-width=".24033" id="svg_9" class="" fill-opacity="1"/><path d="m62.104809762100004,87.80850640044 l7.56990615052,23.8671464794 l-19.67435383536,-14.79926505946 l-19.67507482458,14.79926505946 l7.570146480259999,-23.8671464794 l-19.729870005299997,-14.72115789396 l24.353093213679998,0.04782561826000001 l7.4817051359399995,-23.89694736716 l7.48098414672,23.89694736716 l24.353093213679998,-0.04782561826000001 z" fill="#da291c" id="svg_10" class="" fill-opacity="1"/><path d="m50.644208 147.4658c13.90884-9.4354 24.622981-20.1226 31.97034-31.9437 7.31227-11.7651 11.29213-24.6487 11.77111-38.5374.00048-.036.30786-10.6737.36073-33.258l.003-1.149h-1.15142l-87.195228.0005h-1.152401l.0029 1.149c.05287 22.5843.360735 33.222.361216 33.2575.479217 13.8887 4.458837 26.772 11.77111 38.5374 7.347601 11.8208 18.061501 22.5083 31.970103 31.9437l.644565.4371.643845-.4371zm23.348511-30.0631-24.131746-17.6883-23.515786 17.6883 9.369735-29.5421-21.662842 16.3927c-3.741453-8.5928-5.807808-17.7188-6.139223-27.3359-.0099-.3451-.29921-10.6458-.358812-32.041l84.891193-.0004v.031l-34.27775 25.9491h30.43415l-23.323755 17.4107z" fill="#da291c" stroke-width=".24033" id="svg_11" class="" fill-opacity="1"/></g></svg>