<?xml version="1.0" encoding="UTF-8"?>
<!-- Generator: Adobe Illustrator 13.0.2, SVG Export Plug-In . SVG Version: 6.00 Build 14948)  -->
<!DOCTYPE svg PUBLIC "-//W3C//DTD SVG 1.0//EN" "http://www.w3.org/TR/2001/REC-SVG-20010904/DTD/svg10.dtd">
<svg version="1.0" id="Ebene_1" xmlns="http://www.w3.org/2000/svg" xmlns:xlink="http://www.w3.org/1999/xlink" x="0px" y="0px" width="570.124px" height="382.784px" viewBox="0 0 570.124 382.784" enable-background="new 0 0 570.124 382.784" xml:space="preserve">
<path fill="#175791" d="M179.947,127.627v117.664c0,121.196,103.03,137.298,104.069,137.447l0.33,0.046l0.33-0.046  c1.04-0.149,104.071-16.251,104.071-137.447V127.627H179.947z"/>
<path fill="#009EE0" d="M284.347,380.432c0,0-102.069-14.563-102.069-135.141V129.958h204.14v115.333  C386.417,365.869,284.347,380.432,284.347,380.432z"/>
<path fill="#175791" d="M189.267,136.948v108.343c0,107.59,84.972,126.212,94.661,127.982l0.418,0.077l0.418-0.077  c9.688-1.771,94.662-20.393,94.662-127.982V136.948H189.267z"/>
<path fill="#FFFFFF" d="M377.097,139.277c0,15.75,0,106.014,0,106.014c0,104.919-80.99,123.54-92.75,125.688  c-11.762-2.148-92.75-20.77-92.75-125.688c0,0,0-90.264,0-106.014C207.762,139.277,360.933,139.277,377.097,139.277z"/>
<path fill="#175791" d="M210.237,198.692v41.939c0,82.328,56.304,102.342,73.561,106.515l0.548,0.137l0.548-0.137  c17.256-4.173,73.563-24.191,73.563-106.515v-41.939H210.237z"/>
<path fill="#009EE0" d="M309.787,201.022v133.364c0.087-0.05,0.178-0.104,0.264-0.155V201.022  C309.959,201.022,309.877,201.022,309.787,201.022z"/>
<path fill="#009EE0" d="M260.159,201.022v134.115c0.088,0.05,0.174,0.096,0.262,0.146V201.022  C260.334,201.022,260.246,201.022,260.159,201.022z"/>
<path fill="#009EE0" d="M212.567,201.022c0,18.953,0,39.609,0,39.609c0,55.46,25.845,81.991,47.592,94.506V201.022  C242.042,201.022,225.199,201.022,212.567,201.022z"/>
<path fill="#FFFFFF" d="M260.421,201.022v134.261c9.711,5.547,18.583,8.31,23.926,9.602c5.621-1.36,15.141-4.354,25.44-10.498  V201.022C293.708,201.022,276.567,201.022,260.421,201.022z"/>
<path fill="#009EE0" d="M356.127,240.632c0,0,0-20.656,0-39.609c-12.278,0-28.538,0-46.077,0v133.209  C331.462,321.367,356.127,294.809,356.127,240.632z"/>
<path fill="#175791" d="M227.714,162.252l-1.914,7.864h-0.544c-0.125-1.226-0.339-2.205-0.645-2.944  c-0.454-1.067-1.06-1.888-1.818-2.469c-0.759-0.578-1.573-0.867-2.446-0.867c-0.85,0-1.594,0.339-2.233,1.012  c-0.641,0.674-0.96,1.436-0.96,2.285c0,0.84,0.223,1.666,0.671,2.476c0.446,0.81,1.501,2.03,3.165,3.661  c1.33,1.304,2.224,2.426,2.684,3.365c0.458,0.942,0.688,1.961,0.688,3.058c0,1.238-0.316,2.375-0.949,3.418  c-0.633,1.042-1.554,1.848-2.768,2.421c-1.214,0.571-2.583,0.858-4.109,0.858c-0.945,0-2.131-0.146-3.554-0.437  c-1.423-0.289-2.37-0.437-2.836-0.437c-0.375,0-0.712,0.062-1.008,0.18c-0.297,0.121-0.655,0.351-1.076,0.694h-0.655l1.942-8.847  h0.625c0.137,1.563,0.437,2.894,0.9,3.991c0.463,1.099,1.123,1.955,1.981,2.569c0.858,0.615,1.835,0.922,2.933,0.922  c1.085,0,1.995-0.371,2.728-1.12c0.731-0.747,1.098-1.623,1.098-2.624c0-0.855-0.207-1.675-0.619-2.462  c-0.413-0.788-1.355-1.93-2.827-3.422c-1.473-1.497-2.49-2.837-3.051-4.018c-0.401-0.878-0.602-1.809-0.602-2.799  c0-1.716,0.648-3.199,1.945-4.451s2.998-1.877,5.103-1.877c0.943,0,2.19,0.219,3.737,0.653c0.91,0.257,1.553,0.384,1.929,0.384  c0.318,0,0.603-0.068,0.853-0.207c0.25-0.141,0.541-0.418,0.87-0.831H227.714z"/>
<path fill="#175791" d="M229.135,180.765c0.758,0,1.401,0.275,1.929,0.824c0.527,0.548,0.792,1.213,0.792,1.989  c0,0.778-0.267,1.44-0.802,1.991c-0.534,0.546-1.173,0.822-1.918,0.822c-0.747,0-1.381-0.275-1.903-0.822  c-0.522-0.55-0.783-1.212-0.783-1.991c0-0.776,0.261-1.44,0.783-1.989C227.754,181.04,228.388,180.765,229.135,180.765z"/>
<path fill="#175791" d="M254.763,162.252l-1.914,7.864h-0.544c-0.125-1.226-0.34-2.205-0.645-2.944  c-0.454-1.067-1.061-1.888-1.819-2.469c-0.757-0.578-1.573-0.867-2.445-0.867c-0.85,0-1.594,0.339-2.234,1.012  c-0.639,0.674-0.96,1.436-0.96,2.285c0,0.84,0.224,1.666,0.671,2.476c0.447,0.81,1.503,2.03,3.165,3.661  c1.331,1.304,2.226,2.426,2.684,3.365c0.459,0.942,0.689,1.961,0.689,3.058c0,1.238-0.317,2.375-0.949,3.418  c-0.633,1.042-1.556,1.848-2.768,2.421c-1.214,0.571-2.584,0.858-4.109,0.858c-0.947,0-2.131-0.146-3.554-0.437  c-1.424-0.289-2.37-0.437-2.836-0.437c-0.376,0-0.712,0.062-1.009,0.18c-0.295,0.121-0.654,0.351-1.075,0.694h-0.657l1.943-8.847  h0.625c0.137,1.563,0.437,2.894,0.9,3.991c0.462,1.099,1.123,1.955,1.979,2.569c0.858,0.615,1.836,0.922,2.934,0.922  c1.085,0,1.995-0.371,2.726-1.12c0.732-0.747,1.098-1.623,1.098-2.624c0-0.855-0.206-1.675-0.618-2.462  c-0.413-0.788-1.355-1.93-2.828-3.422c-1.472-1.497-2.489-2.837-3.051-4.018c-0.4-0.878-0.601-1.809-0.601-2.799  c0-1.716,0.648-3.199,1.944-4.451c1.298-1.251,2.998-1.877,5.104-1.877c0.943,0,2.189,0.219,3.737,0.653  c0.909,0.257,1.553,0.384,1.928,0.384c0.317,0,0.602-0.068,0.854-0.207c0.249-0.141,0.539-0.418,0.869-0.831H254.763z"/>
<path fill="#175791" d="M256.183,180.765c0.758,0,1.4,0.275,1.928,0.824s0.792,1.213,0.792,1.989c0,0.778-0.268,1.44-0.801,1.991  c-0.535,0.546-1.173,0.822-1.919,0.822c-0.747,0-1.38-0.275-1.902-0.822c-0.522-0.55-0.784-1.212-0.784-1.991  c0-0.776,0.262-1.44,0.784-1.989C254.803,181.04,255.437,180.765,256.183,180.765z"/>
<path fill="#175791" d="M278.98,185.898h-17.75l0.17-0.601c1.045,0,1.815-0.216,2.304-0.644c0.489-0.432,0.939-1.397,1.348-2.903  l4.102-14.899c0.228-0.819,0.341-1.465,0.341-1.934c0-0.455-0.162-0.819-0.486-1.092c-0.324-0.273-0.97-0.432-1.938-0.48  l0.188-0.601h10.677l-0.188,0.601c-1.024,0.025-1.79,0.266-2.294,0.726c-0.508,0.462-0.96,1.401-1.357,2.817l-3.752,13.604  c-0.478,1.731-0.717,2.783-0.717,3.156c0,0.23,0.122,0.441,0.366,0.642c0.245,0.201,0.641,0.298,1.187,0.298  c1.822,0,3.575-0.435,5.26-1.302c1.685-0.867,3.114-2.164,4.287-3.886h0.711L278.98,185.898z"/>
<path fill="#175791" d="M290.763,176.997l6.045-7.522l-0.438,7.522H290.763z M296.208,181.365c-0.06,1.272-0.214,2.164-0.461,2.678  c-0.251,0.514-0.528,0.851-0.833,1.01c-0.15,0.073-0.691,0.15-1.634,0.244l-0.187,0.601h9.64l0.15-0.601  c-0.688-0.057-1.179-0.262-1.479-0.617c-0.3-0.353-0.445-0.919-0.445-1.697c0-0.205,0.018-0.801,0.05-1.793l0.769-18.938h-0.764  l-15.701,19.566c-1.138,1.429-2.007,2.371-2.61,2.828c-0.455,0.33-0.979,0.548-1.57,0.651l-0.17,0.601h6.605v-0.601  c-0.648-0.034-1.112-0.166-1.39-0.403c-0.28-0.232-0.419-0.487-0.419-0.765c0-0.262,0.057-0.523,0.171-0.787  c0.136-0.341,0.356-0.726,0.667-1.149l1.554-1.937l1.434-1.786h6.788L296.208,181.365z"/>
<path fill="#175791" d="M327.913,163.392l-17.034,21.195h1.334c2.648,0,4.778-0.412,6.389-1.242c1.611-0.826,3.1-2.198,4.465-4.109  h0.683l-2.321,6.662h-17.27v-0.655l16.987-21.134h-2.084c-2.662,0-4.637,0.344-5.921,1.031c-1.287,0.687-2.389,1.856-3.313,3.502  h-0.646l1.894-5.898h16.838V163.392z"/>
<path fill="#175791" d="M330.288,163.344l0.187-0.601h10.863l-0.205,0.601c-0.987,0-1.743,0.23-2.257,0.689  c-0.519,0.459-0.974,1.42-1.361,2.876l-4.086,14.822c-0.296,1.056-0.446,1.763-0.446,2.118c0,0.414,0.154,0.735,0.46,0.967  c0.387,0.295,1.128,0.459,2.221,0.48l-0.173,0.601h-11l0.188-0.601c1.092,0,1.897-0.221,2.407-0.662  c0.514-0.441,0.979-1.411,1.401-2.903l4.087-14.822c0.25-0.917,0.377-1.613,0.377-2.084c0-0.423-0.154-0.758-0.464-0.999  C332.181,163.588,331.449,163.424,330.288,163.344z"/>
<path fill="#175791" d="M356.673,164.667c0.56,0.696,0.837,1.82,0.837,3.376c0,2.485-0.522,5.318-1.574,8.501  c-1.051,3.181-2.402,5.593-4.063,7.238c-0.833,0.831-1.844,1.243-3.031,1.243c-0.901,0-1.643-0.353-2.216-1.063  c-0.573-0.709-0.865-1.756-0.865-3.14c0-1.623,0.296-3.647,0.893-6.076c0.591-2.425,1.224-4.346,1.893-5.761  c0.674-1.411,1.334-2.498,1.984-3.258c0.646-0.758,1.274-1.301,1.875-1.625c0.605-0.323,1.338-0.485,2.193-0.485  C355.422,163.617,356.114,163.965,356.673,164.667z M354.225,184.945c2.193-1.292,4.164-3.379,5.921-6.262  c1.752-2.885,2.63-5.761,2.63-8.628c0-1.279-0.332-2.549-1.006-3.807c-0.669-1.258-1.606-2.236-2.816-2.942  c-1.211-0.701-2.485-1.054-3.823-1.054c-2.284,0-4.601,0.767-6.953,2.305c-2.349,1.534-4.219,3.582-5.603,6.134  c-1.388,2.558-2.079,5.092-2.079,7.609c0,1.247,0.277,2.526,0.828,3.841c0.551,1.315,1.374,2.351,2.476,3.111  c1.102,0.757,2.544,1.138,4.328,1.138C350.535,186.39,352.569,185.907,354.225,184.945z"/>
<path fill="#D9B300" d="M0,0.008c0,0,16.165,24.683,43.688,24.683c0,0,6.772,15.728,31.674,15.728c0,0,3.932,13.98,24.247,13.98  c0,0,3.495,10.485,22.717,10.485c0,0,1.748,6.99,17.475,6.99c0,0,9.174,10.485,24.683,10.485c0,0,3.495,6.99,15.728,6.99  c0,0,5.68,6.99,13.762,6.99c0,0,4.878,6.99,12.232,6.99c0,0,5.898,10.704,29.926,10.704c0,0-5.461,6.553-15.291,6.553  c0,0,0.655,3.932,4.587,5.024c0,0-3.058,3.932-8.737,3.932c0,0,3.713,8.738,14.198,8.738s7.864-3.058,15.728,0  c0,0,5.242,4.369-1.529,8.519c0,0,5.024,1.383,10.485-6.771c0,0,2.839,3.276-0.437,6.771c0,0,6.043,0.801,10.485-8.519  c0,0,6.99,3.276,0,8.519c0,0,7.5,0.801,10.704-8.519c0,0,6.121-2.423,10.484,0c3.933,2.184-3.713,8.3-3.713,8.3  s8.301,2.84,10.703-8.3c0,0,8.084-0.219,3.278,8.519c0,0,7.208,0.218,7.208-8.519c0,0,11.358-0.292,4.806,7.864  c0,0,9.611,0.218,8.956-13.98c0,0-0.874-5.461-6.771-5.461c0,0,11.141-2.403,15.728-12.888c0,0,8.301,4.15,17.257,0  c0,0,10.922,1.092,15.945-8.737c0,0,8.956,1.092,13.98-8.737c0,0,10.048,0.874,17.475-8.738c0,0,9.32,0.655,14.563-6.99  c0,0,16.893,1.092,22.135-8.738c0,0,15.291,2.185,21.188-8.737c0,0,14.198,1.748,20.971-10.485c0,0,16.383,1.529,25.993-12.233  c0,0,19.878,1.966,29.708-13.98c0,0,28.615,3.058,43.906-26.431H370.471c0,0-23.591-0.874-40.192,15.728  c0,0-25.775,29.708-46.091,29.708c0,0-10.267,2.839-34.076-20.97c0,0-21.407-24.465-50.459-24.465H0z"/>
<path fill="#FFFFFF" d="M245.014,132.891c0,0,4.515,1.456,4.515,4.806c0,0,2.621-3.787-1.311-6.408L245.014,132.891z"/>
<path fill="#FFFFFF" d="M255.099,132.745c0,0,5.971,2.039,5.971,5.388c0,0,1.165-4.369-2.767-6.99L255.099,132.745z"/>
<path fill="#FFFFFF" d="M286.955,132.891c0,0,3.932,1.165,3.932,4.514c0,0,3.204-3.495-0.729-6.116L286.955,132.891z"/>
<path fill="#FFFFFF" d="M265.839,133.036c0,0,6.553,2.33,4.077,4.951c0,0,7.136-3.641-0.728-6.844L265.839,133.036z"/>
<path fill="#FFFFFF" d="M297.294,132.891c0,0,3.786,1.311,3.786,4.514c0,0,3.787-3.641-0.291-7.864  C300.79,129.541,297.149,130.852,297.294,132.891z"/>
<path fill="#FFFFFF" d="M306.033,132.891c0,0,5.388,1.311,4.951,3.058c0,0,3.058-2.622,0.146-6.408  C311.129,129.541,307.051,128.958,306.033,132.891z"/>
<path fill="#FFFFFF" d="M271.081,129.396l5.243-5.097c0,0,2.476,1.747,12.087,1.747  C288.411,126.046,289.138,129.396,271.081,129.396z"/>
<path fill="#FFFFFF" d="M227.394,129.396l4.515-4.078c0,0-0.729,0.874,12.815,0.874  C244.723,126.192,243.704,129.396,227.394,129.396z"/>
<path fill="#FFFFFF" d="M234.384,122.26l13.98-8.446c0,0,12.669-6.99,19.222-6.99c0,0,9.611-0.292,9.611,6.99  c0,0-0.291,8.592-20.824,8.592C256.373,122.405,234.966,123.425,234.384,122.26z"/>
<path fill="#FFFFFF" d="M282.003,122.26l24.466-17.329c0,0,2.912-1.893,8.009-1.893c0,0,5.098,0,5.098,3.641  c0,0,1.456,14.125-25.485,16.601C294.09,123.279,286.808,124.007,282.003,122.26z"/>
<path fill="#FFFFFF" d="M285.061,105.222c0,0,11.942,0.728,13.981-7.136c0,0-0.729,2.185-9.467,2.33L285.061,105.222z"/>
<path fill="#FFFFFF" d="M265.839,103.038l1.893-3.204c0,0,7.281,0.583,8.592-3.495l6.844,3.495  C283.168,99.833,283.168,108.862,265.839,103.038z"/>
<path fill="#FFFFFF" d="M244.869,103.183l3.495-5.097h6.844c0,0,0.583,1.602,5.243,1.602  C260.451,99.688,260.742,104.931,244.869,103.183z"/>
<path fill="#FFFFFF" d="M304.139,99.688c0,0,5.242-3.349,5.242-10.339c0,0,0,0-5.097,1.748  C304.285,91.096,300.644,99.105,304.139,99.688z"/>
<path fill="#FFFFFF" d="M283.168,92.844c0,0,1.165,7.864,15.583,1.602l-1.457-3.349L283.168,92.844z"/>
<path fill="#FFFFFF" d="M256.81,85.854c0,0,0.291,1.602,3.495,1.748c0,0-1.165,5.679-10.048,5.097  C250.257,92.698,250.985,88.184,256.81,85.854z"/>
<path fill="#FFFFFF" d="M258.849,94.591c0,0,3.932,3.932,15.582-0.146l-3.495-4.951C270.936,89.494,261.324,90.077,258.849,94.591z"/>
<path fill="#FFFFFF" d="M269.625,80.902c0,0,2.039,1.602,6.262,1.602c0,0-7.864,8.446-13.543,1.602L269.625,80.902z"/>
<path fill="#FFFFFF" d="M278.071,89.203c0,0,11.795,1.456,15.582-5.097l-5.242-3.495C288.411,80.611,278.071,84.543,278.071,89.203z  "/>
<path fill="#FFFFFF" d="M309.527,99.688c0,0,7.281,0.292,13.835-6.99c0,0-0.146-2.622-3.35-3.35c0,0-2.767-0.146-5.097,1.748  C314.916,91.096,309.964,97.795,309.527,99.688z"/>
<path fill="#FFFFFF" d="M311.275,79.009c0,0,1.747,1.748,1.747,8.446h6.845c0,0-4.66-3.058-5.242-8.592L311.275,79.009z"/>
<path fill="#FFFFFF" d="M307.634,78.864c0,0,0.146,3.786,1.747,5.097c0,0-2.476,4.66-11.941,3.495l3.35-5.097L307.634,78.864z"/>
<path fill="#FFFFFF" d="M295.692,78.718l3.351-5.097c0,0,4.951,0.874,10.339-1.748C309.381,71.874,308.362,78.718,295.692,78.718z"/>
<path fill="#FFFFFF" d="M297.44,66.631l3.35-3.495c0,0,0.729,1.748,8.592,1.748C309.381,64.884,301.373,75.223,297.44,66.631z"/>
<path fill="#FFFFFF" d="M290.303,70.126l3.35,3.35c0,0-1.747,5.242-17.329,5.242l1.748-5.097  C278.071,73.621,288.702,74.786,290.303,70.126z"/>
<path fill="#FFFFFF" d="M213.414,63.136c0,0,1.02,3.932,5.097,5.097h54.172c0,0,5.097,4.223,17.475,0c0,0,3.495-0.728,5.243-6.844  c0,0-2.039,0.583-3.495-3.641c0,0-7.718-0.146-13.98,5.388H213.414z"/>
<path fill="#FFFFFF" d="M204.53,63.136c2.476,3.932,5.388,5.097,5.388,5.097h-68.298c0,0-5.825-0.146-10.339-5.097H204.53z"/>
<path fill="#FFFFFF" d="M218.511,71.874c0.728,4.078,3.495,5.097,3.495,5.097h-62.764c0,0-3.932,0.291-6.99-5.097H218.511z"/>
<path fill="#FFFFFF" d="M227.539,71.874c0,0,1.02,3.932,4.952,5.097h28.251l-1.893,3.495c0,0,11.067,1.165,13.834-8.592H227.539z"/>
<path fill="#FFFFFF" d="M173.221,80.611c0,0,3.495,4.223,6.99,5.097h55.774c0,0-3.204-0.874-4.951-5.097H173.221z"/>
<path fill="#FFFFFF" d="M238.024,80.611c0,0,0.437,3.058,4.951,5.097h6.99c3.641-1.311,3.495-5.097,3.495-5.097H238.024z"/>
<path fill="#FFFFFF" d="M188.949,89.349c0,0,0.728,1.893,3.349,3.35h54.173c0,0,1.747-0.874,1.747-3.35H188.949z"/>
<path fill="#FFFFFF" d="M201.036,96.484c0,0-0.292,1.456,1.893,3.204h38.299c2.039,0,1.893-3.349,1.893-3.349L201.036,96.484z"/>
<path fill="#FFFFFF" d="M213.559,103.329c0,0,1.602,2.913,5.243,3.35h15.436c2.185-1.02,1.748-3.35,1.748-3.35H213.559z"/>
<path fill="#FFFFFF" d="M302.538,47.263h87.229c0,0,6.116-1.602,8.883-6.845h-75.143l9.028-8.883h81.842  c0,0,6.698-0.874,10.339-6.845h-82.132c0,0,8.883-8.883,14.999-8.883l89.851,0.059c0,0,6.845-0.933,10.485-8.651h-94.365  c0,0-16.602,1.165-33.057,17.475C330.498,24.691,316.226,41.292,302.538,47.263z"/>
<path fill="#FFFFFF" d="M466.657,7.216c0,0-1.02,5.388-8.592,8.737l81.986,0.03c0,0,9.175-2.214,12.232-8.767H466.657z"/>
<path fill="#FFFFFF" d="M433.6,24.691c0,0,0.146,3.35-6.99,6.845h78.492c0,0,7.863-0.874,10.484-6.845H433.6z"/>
<path fill="#FFFFFF" d="M407.387,40.418c0,0,0.291,3.641-6.845,6.845h71.502c0,0,7.864,0.874,13.835-6.845H407.387z"/>
<path fill="#FFFFFF" d="M374.185,50.904c0,0,1.747,2.767,1.747,6.99h69.755c0,0,10.193,1.165,15.873-6.99H374.185z"/>
<path fill="#FFFFFF" d="M110.311,52.651c0,0,1.02,4.077,6.99,5.097h69.9c0,0-2.913-1.02-5.388-5.097H110.311z"/>
<path fill="#FFFFFF" d="M85.846,40.564c0,0,3.058,6.699,10.485,6.699h73.25c0,0-5.243-2.622-6.844-6.845L85.846,40.564z"/>
<path fill="#FFFFFF" d="M54.391,24.545c0,0,4.078,6.99,10.485,6.99h78.492c0,0-4.951-1.748-6.99-6.845L54.391,24.545z"/>
<path fill="#FFFFFF" d="M19.441,7.216c0,0,3.932,8.592,12.233,8.592h80.239c0,0-5.971-3.35-6.99-8.592H19.441z"/>
<path fill="#FFFFFF" d="M290.158,50.904V56c0,0-10.339-0.146-12.086,3.495h-2.185c0,0-2.621,0.583-3.204-1.748h-73.25  c0,0-5.097-0.146-6.99-5.097h69.9l-5.388-5.388h-74.851c0,0-6.699-1.02-8.883-6.845h75.288l-9.029-8.883h-81.987  c0,0-6.699-0.583-8.883-6.845h80.531c0,0-7.864-8.883-15.291-8.883h-89.56c0,0-8.737-0.583-10.485-8.592h92.618  c0,0,16.892-0.292,38.299,20.97c0,0,21.407,22.718,33.494,22.718H290.158z"/>
<path fill="#FFFFFF" d="M398.795,63.282c0,0,1.602,1.02,1.602,4.951h31.31c0,0,4.515-0.146,6.99-5.097L398.795,63.282z"/>
<path fill="#FFFFFF" d="M398.65,76.971c0,0,3.203-1.602,3.641-5.097h17.184c0,0,0.146,4.078-5.242,5.097H398.65z"/>
<path fill="#FFFFFF" d="M337.487,85.708c0,0,4.078-1.02,6.99-5.097h52.425c0,0-2.767,5.097-9.028,5.097H337.487z"/>
<path fill="#FFFFFF" d="M328.895,92.698c0,0,2.33-0.437,3.35-3.35h48.93c0,0-0.873,3.35-3.494,3.35H328.895z"/>
<path fill="#FFFFFF" d="M321.759,99.688c0,0,2.039-0.146,3.495-3.349h43.542c0,0-0.873,3.204-3.495,3.349H321.759z"/>
<path fill="#FFFFFF" d="M332.245,103.329c0,0,1.456,1.02,1.748,3.495h19.076c0,0,0.292-1.893,1.748-3.495H332.245z"/>
<path fill="#FFFFFF" d="M370.544,61.243c0,0,1.165-10.339-10.194-10.339h-64.658c0,0,1.021,10.339,14.127,10.339h11.94  c0,0-7.135,2.476-8.592,6.99h3.495c0,0-3.495,2.767-3.495,6.99h6.845c0,0-3.786,3.786,0,6.99c0,0,5.534,6.262,19.223-3.641  c0,0,5.825-3.786,8.883-3.349c0,0,2.621-0.292,3.495,1.748h41.648c0,0-2.476-5.097-10.048-6.408h-26.649v-2.708l31.601-0.06  c0,0,5.68,0.292,6.99,3.932c0,0-0.819-10.339-9.466-10.339h-15.086c0,0-5.302,5.243-10.398,5.243c0,0-5.388,0.146-5.388-3.641  h-13.835c0,0,0.729-1.748,3.933-1.748H370.544z"/>
</svg>