<svg width="360" height="360" viewBox="0 0 360 360" fill="none" xmlns="http://www.w3.org/2000/svg">
<rect width="360" height="360" rx="40" fill="#020617"/>
<path d="M180 140L218.043 167.639M180 140L141.958 167.639M180 140V110M218.043 167.639L203.512 212.361M218.043 167.639L245 155M141.958 167.639L156.489 212.361M141.958 167.639L115 155M180 110L146.243 85.8409M180 110L213.757 85.8409M203.512 212.361H156.489M203.512 212.361L220 235M245 155L279.506 190M245 155L255 113.854M156.489 212.361L140 235M220 235L266.622 230M220 235L195 278.883M140 235L93.3782 230M140 235L165 278.883M115 155L80.4938 190M115 155L105 113.854M280 180C280 235.228 235.228 280 180 280C124.771 280 80 235.228 80 180C80 124.771 124.771 80 180 80C235.228 80 280 124.771 280 180Z" stroke="#6D28D9" stroke-width="15" stroke-linecap="round" stroke-linejoin="round"/>
</svg>
