<?xml version="1.0" encoding="utf-8"?>
<!-- Generator: Adobe Illustrator 13.0.2, SVG Export Plug-In . SVG Version: 6.00 Build 14948)  -->
<!DOCTYPE svg PUBLIC "-//W3C//DTD SVG 1.1 Tiny//EN" "http://www.w3.org/Graphics/SVG/1.1/DTD/svg11-tiny.dtd">
<svg version="1.1" baseProfile="tiny" id="Ebene_1" xmlns="http://www.w3.org/2000/svg" xmlns:xlink="http://www.w3.org/1999/xlink"
	 x="0px" y="0px" width="565.844px" height="210.305px" viewBox="0 0 565.844 210.305" xml:space="preserve">
<path fill="#FCEA10" d="M533.106,63.25H293.404c-15.343-14.71-36.15-23.768-59.085-23.768s-43.742,9.057-59.085,23.768h-53.162
	l-7.876-29.66h305.553L410.827,0H0l8.919,33.591h24.626l40.612,152.948h80.651l-23.818-89.696h22.654
	c-3.056,8.789-4.738,18.222-4.738,28.052c0,47.171,38.24,85.411,85.411,85.411c22.934,0,43.741-9.057,59.084-23.767h272.441
	L533.106,63.25z M61.412,6.984h10.787l34.335,129.305c-0.071-0.001-0.141-0.011-0.212-0.011c-3.603,0.001-6.965,0.994-9.861,2.695
	L61.412,6.984z M107.236,179.554l-1.127-4.246c0.072,0,0.141,0.011,0.213,0.011c3.602-0.001,6.964-0.994,9.86-2.695l1.84,6.931
	H107.236z"/>
<path fill="#FFFFFF" d="M556.762,179.554H299.94c12.352-14.813,19.79-33.865,19.79-54.66c0-20.794-7.438-39.847-19.79-54.66h227.794
	L556.762,179.554z"/>
<path fill="#D4011D" d="M38.917,26.607H14.291L9.08,6.984h45.107l36.442,137.242c-2.394,3.24-3.826,7.233-3.827,11.571
	c0.001,7.975,4.788,14.82,11.639,17.85l1.568,5.906H79.531L38.917,26.607z"/>
<path fill="#D4011D" d="M121.91,89.858l23.818,89.696h-20.479l-3.235-12.184c2.393-3.241,3.826-7.234,3.827-11.573
	c-0.002-7.974-4.788-14.818-11.639-17.848L79.426,6.984h326.031l5.21,19.622l-305.552,0.001l11.584,43.627h51.998
	c-4.933,5.915-9.065,12.514-12.268,19.624H121.91z"/>
<path fill="#D4011D" d="M93.785,155.798c0.013,6.923,5.614,12.523,12.536,12.537l0,0c6.921-0.014,12.523-5.614,12.535-12.537l0,0
	c-0.012-6.921-5.614-12.521-12.535-12.535l0,0C99.4,143.276,93.799,148.876,93.785,155.798L93.785,155.798z"/>
<polygon fill="#D4011D" points="394.957,78.489 408.438,129.26 381.366,78.489 374.294,78.489 362.157,78.489 386.8,171.299 
	398.937,171.299 385.4,120.317 412.584,171.299 419.6,171.299 430.163,171.299 405.52,78.489 "/>
<polygon fill="#D4011D" points="514.299,78.489 527.779,129.26 500.708,78.489 493.635,78.489 481.499,78.489 506.141,171.299 
	518.278,171.299 504.741,120.317 531.926,171.299 538.941,171.299 549.504,171.299 524.861,78.489 "/>
<path fill="#D4011D" d="M344.321,78.489l21.982,82.789h-9.088l-21.982-82.789H316.18l21.982,82.789
	c1.471,5.539,7.144,10.021,12.683,10.021h19.553c5.539,0,8.832-4.482,7.36-10.021l-21.982-82.789H344.321z"/>
<path fill="#D4011D" d="M465.096,78.49h-22.924c-5.539,0-8.832,4.482-7.361,10.021l9.661,36.383l9.66,36.383
	c1.471,5.539,7.144,10.021,12.683,10.021h22.924c5.539,0,8.831-4.482,7.36-10.021l-9.66-36.383l-9.661-36.383
	C476.308,82.972,470.635,78.49,465.096,78.49z M472.613,124.895l9.66,36.383h-5.897h-3.19l-0.847-3.19l-8.813-33.193l-8.813-33.193
	l-0.847-3.19h3.19h5.897L472.613,124.895z"/>
<polygon fill="#D4011D" points="450.413,171.299 436.543,171.299 411.9,78.489 425.77,78.489 "/>
<path d="M250.038,79.609c0.367,0.489,0.985,0.726,1.467,1.093c-0.805,3.624,1.561,7.126,1.474,11.016
	c-0.072,3.049-2.092,5.695-1.841,8.794c0.122,1.481,1.28,2.869,1.474,4.4c0.532,4.372-2.222,8.262-2.208,12.469
	c0.043,8.586,5.343,17.409,8.435,23.492c0.28,1.237-1.337,0.604-1.459,1.459c1.079,6.026,1.373,12.799,3.667,17.61
	c-3.308,5.256-6.198,10.93-13.576,12.109c-0.158-0.942-0.51-1.697-1.1-2.208v-0.374c-0.546-1.517-1.035-3.106-2.2-4.034
	c1.107-1.941,3.747-2.373,5.141-4.034c-2.682-4.401-7.787-6.393-8.809-12.461c-6.076,4.185-9.556,10.987-11.368,19.443
	c-5.709-0.093-13.411-1.237-16.876-4.774c0.87-1.941,0.683-4.947,1.459-6.968c3.315-0.015,4.832,1.769,7.716,2.2
	c-1.69-11.138,3.286-20.22,11.368-23.844c-1.129-2.545-2.955-4.386-2.941-8.068c-9.075,4.681-20.558,1.798-24.93-5.142h-0.014
	c1.718-1.812,3.027-4.437,4.415-6.601c2.632,1.021,4.386,2.934,5.494,5.494c3.149-1.733,6.126-3.653,9.542-5.12
	c-7.572-5.522-18.264-7.91-19.069-20.177c2.179-1.107,3.796-2.797,6.594-3.301c0.942,1.97,1.963,3.905,2.193,6.601
	c4.005,2.1,9.578,2.646,13.95,4.401c2.667-1.992,5.213-4.077,8.068-5.875c-2.754,0.424-10.031-2.826-3.667-3.667h0.367
	c1.668-0.208,2.287,0.647,4.042,0.367c0.51-0.619,0.676-2.574,0.367-2.934h-1.107c-3.315-2.308-9.981-1.265-9.909-6.96
	c1.56-1.884,3.919-0.913,5.875-1.474c4.343-1.222,7.881-5.17,14.302-2.934H250.038z M247.838,81.068
	c-1.223,0.137-1.589,1.107-2.193,1.841c0.546,0.575,1.488,0.266,1.826-0.367c0.87-0.115,1.374-0.575,2.567-0.367
	C250.095,80.968,248.55,80.421,247.838,81.068 M236.102,82.176c-0.748,0.719-0.575,2.352-1.1,3.293
	c0.273,0.093,0.719,0.014,0.733,0.374c1.251,0.28,0.604-1.359,1.474-1.46c-0.058,0.899-0.079,1.769,0.719,1.827
	c0.101-0.755,1.632-0.086,1.474-1.107C238.195,84.247,238.267,82.089,236.102,82.176"/>
<path fill="#D4011D" d="M205.657,113.721c0.295,0.043,1.1,1.208,0.367,1.107c-0.058-0.683-1.251-0.237-1.474-0.741
	c-0.309,1.165,0.575,1.136,0.741,1.827c-1.445,0.18-1.906-0.762-2.567,0.374c0.647,0.338,1.136,0.82,1.46,1.467h-1.46
	c0.338,1.726,0.755,0.978,0,2.567c0.841,0.381,1.683,0.762,2.193,1.467l0,0c1.718-1.805,3.035-4.429,4.408-6.594
	C209.058,113.973,206.779,112.866,205.657,113.721"/>
<path fill="#FFFFFF" d="M247.84,81.074c0.002-0.002,0.003-0.003,0.005-0.006c-1.222,0.129-1.596,1.107-2.215,1.841
	c0.559,0.573,1.494,0.268,1.835-0.359c0.002,0,0.003-0.001,0.005,0c0.87-0.122,1.374-0.59,2.567-0.374
	C250.095,80.969,248.552,80.416,247.84,81.074z"/>
<path fill="#FFFFFF" d="M239.403,85.11c0.166,1.014-1.366,0.338-1.474,1.107c-0.791-0.057-0.776-0.927-0.733-1.841
	c-0.855,0.115-0.208,1.733-1.459,1.467c-0.015-0.353-0.453-0.288-0.733-0.367c0.525-0.942,0.352-2.589,1.1-3.293
	C238.267,82.089,238.195,84.24,239.403,85.11"/>
<path fill="#D4011D" d="M237.202,90.977h-1.107c-4.048-0.101-9.362,1.05-9.161-3.293c-4.257,2.984,1.502,6.464,5.494,5.86l0,0
	c0.489-0.46,4.494-0.957,4.408,0.367C237.361,93.292,237.526,91.351,237.202,90.977"/>
<path fill="#D4011D" d="M206.39,88.777c0.381,0.619,1.431,2.445,0.733,2.934c-0.719-0.403-1.646-2.474-2.574-1.46
	c1.086,0.841,0.561,1.366-0.719,0.719c-0.079,1.294,1.237,1.208,1.453,2.208c-1.266,0.295-1.546-0.69-2.193,0
	c-0.057,1.417,2.265,0.798,2.193,2.2l0,0c2.193-1.107,3.818-2.79,6.615-3.3C210.539,90.042,208.375,87.094,206.39,88.777"/>
<path fill="#D4011D" d="M210.057,155.909c-0.323,1.179,0.957,0.762,1.101,1.467c-1.086,0-2.236-0.043-2.208,1.093h0.74h0.367
	c0.043,0.662-0.367,0.87-1.107,0.734c-0.381,1.373,1.388,0.589,1.107,1.84c-0.784-0.014-2.517,0.856-1.474,1.46
	c-0.18-0.482,1.697-0.014,1.841,0.367c-0.439-0.101-1.266,1.064-0.367,1.107c0.043-0.813,1.561-0.166,2.193-0.367
	c0.884-1.949,0.69-4.947,1.474-6.968C212.164,156.729,211.747,155.686,210.057,155.909"/>
<path fill="#D4011D" d="M246.37,169.845v-0.367c-0.546-1.532-1.042-3.121-2.193-4.034c-1.194,0.647-2.359,1.309-2.948,2.56
	c-0.173,0.928,1.697-0.885,1.841,0.367c-1.646,1.87,0.647,1.15-0.733,2.948c0.942,0.396,1.754-1.122,2.208,0
	c-0.439,0.546-1.057,0.899-1.107,1.826c1.668-0.381,1.92,0.503,4.041-1.108v0C247.312,171.11,246.96,170.362,246.37,169.845"/>
<path fill="#D4011D" d="M238.429,180.567c-31.078,0-56.271-25.193-56.271-56.271s25.193-56.271,56.271-56.271
	c4.413,0,8.7,0.524,12.82,1.485l-5.6-20.99c-3.699-0.544-7.481-0.835-11.332-0.835c-42.641,0-77.208,34.567-77.208,77.208
	s34.567,77.208,77.208,77.208c18.084,0,34.703-6.234,47.862-16.648l-5.348-20.047C266.776,174.805,253.279,180.567,238.429,180.567z
	"/>
<path d="M269.18,63.733c2.55-1.903,4.921-3.326,6.638-4.262c0.858-0.468,1.552-0.814,2.023-1.041
	c0.47-0.225,0.681-0.312,0.681-0.314l-2.358-5.517c-0.236,0.181-19.209,8.014-26.338,25.958l5.592,2.177v-0.001
	C258.311,73.264,264.065,67.54,269.18,63.733z"/>
<path d="M278.826,91.323c13.838,10.598,29.318,36.453,29.2,61.992h6.001c-0.116-27.313-15.303-53.51-30.559-65.944
	c5.035-3.835,10.701-6.78,16.84-8.84l-1.893-5.693c-20.501,6.758-36.801,23.104-42.041,48.566l5.875,1.222v-0.001
	c0.349-1.662,0.758-3.266,1.2-4.836c9.553,7.603,19.598,21.859,23.731,42.987l5.888-1.154v-0.001
	c-4.645-23.622-16.235-39.565-27.606-47.847C268.646,103.531,273.2,96.729,278.826,91.323z"/>
<path d="M191.666,117.314l-4.944,3.4c5.124,7.438,13.895,13.1,24.767,15.421l1.25-5.868l-0.001-0.001
	C203.171,128.235,195.749,123.272,191.666,117.314z"/>
</svg>
