<?xml version="1.0" encoding="UTF-8" standalone="no"?>
<!-- Created with Inkscape (http://www.inkscape.org/) -->

<svg
   xmlns:dc="http://purl.org/dc/elements/1.1/"
   xmlns:cc="http://creativecommons.org/ns#"
   xmlns:rdf="http://www.w3.org/1999/02/22-rdf-syntax-ns#"
   xmlns:svg="http://www.w3.org/2000/svg"
   xmlns="http://www.w3.org/2000/svg"
   xmlns:sodipodi="http://sodipodi.sourceforge.net/DTD/sodipodi-0.dtd"
   xmlns:inkscape="http://www.inkscape.org/namespaces/inkscape"
   width="115.46749"
   height="155.86865"
   viewBox="0 0 30.550773 41.240249"
   version="1.1"
   id="svg8"
   inkscape:version="0.92.3 (2405546, 2018-03-11)"
   sodipodi:docname="aek athens.svg">
  <defs
     id="defs2">
    <clipPath
       clipPathUnits="userSpaceOnUse"
       id="clipPath14">
      <path
         d="M 0.5,-0.5 H 595.9458 V 841.38965 H 0.5 Z"
         id="path12"
         inkscape:connector-curvature="0" />
    </clipPath>
  </defs>
  <sodipodi:namedview
     id="base"
     pagecolor="#00ffff"
     bordercolor="#666666"
     borderopacity="1.0"
     inkscape:pageopacity="0"
     inkscape:pageshadow="2"
     inkscape:zoom="0.24748737"
     inkscape:cx="127.31215"
     inkscape:cy="-129.10959"
     inkscape:document-units="mm"
     inkscape:current-layer="layer1"
     showgrid="false"
     fit-margin-left="0.1"
     fit-margin-top="0.1"
     fit-margin-right="0.1"
     fit-margin-bottom="0.1"
     units="px"
     inkscape:window-width="1920"
     inkscape:window-height="1017"
     inkscape:window-x="-8"
     inkscape:window-y="-8"
     inkscape:window-maximized="1" />
  <metadata
     id="metadata5">
    <rdf:RDF>
      <cc:Work
         rdf:about="">
        <dc:format>image/svg+xml</dc:format>
        <dc:type
           rdf:resource="http://purl.org/dc/dcmitype/StillImage" />
        <dc:title></dc:title>
      </cc:Work>
    </rdf:RDF>
  </metadata>
  <g
     inkscape:label="Layer 1"
     inkscape:groupmode="layer"
     id="layer1"
     transform="translate(-17.044558,-22.924743)">
    <g
       id="g10"
       transform="matrix(0.06219454,0,0,-0.06219454,14.303481,71.340224)"
       clip-path="url(#clipPath14)">
      <path
         d="m 462.13379,249.9375 c 52.77637,76.38525 72.32764,147.51367 72.72656,238.27783 v 229.30005 c 0,0 -62.74805,-2.14575 -132.32422,15.24756 -80.59277,20.1477 -112.85693,45.26392 -112.85693,45.26392 0,0 -32.26416,-25.11622 -112.85693,-45.26392 C 107.24609,715.36963 44.49805,717.51538 44.49805,717.51538 V 488.21533 C 44.89673,397.45117 64.44849,326.32275 117.22461,249.9375 186.19971,150.10596 289.6792,115.79297 289.6792,115.79297 c 0,0 103.47949,34.31299 172.45459,134.14453 z"
         style="fill:#231f20;fill-opacity:1;fill-rule:nonzero;stroke:none"
         id="path16"
         inkscape:connector-curvature="0" />
      <path
         d="M 58.06104,593.90381 H 521.7915 v -0.37207 c 0,-53.28125 0,-105.31641 0,-105.31641 -0.40527,-92.15478 -20.80468,-159.05127 -70.41064,-230.84863 v 0 C 393.44092,173.50586 309.08936,137.21973 289.6792,129.72168 270.26904,137.21973 185.91748,173.50586 127.97705,257.3667 78.37158,329.16406 57.97192,396.06055 57.56689,488.27295 c 0,0 0,74.63379 0,105.6206 l 0.49415,0.0103 z"
         style="fill:#fcd20f;fill-opacity:1;fill-rule:nonzero;stroke:none"
         id="path18"
         inkscape:connector-curvature="0" />
      <path
         d="m 57.56689,606.95703 c 0,44.68994 0,87.24951 0,97.44092 22.51172,0.30542 70.30225,2.65601 122.42481,15.68603 60.93506,15.23316 95.32861,33.38501 109.6875,42.24659 14.35889,-8.86158 48.75195,-27.01343 109.6875,-42.24659 52.12256,-13.03002 99.9126,-15.38061 122.4248,-15.68603 0,-10.14575 0,-52.38184 0,-96.86524 v -0.56005 H 58.01147 l -0.44458,-0.0156 z"
         style="fill:#ffffff;fill-opacity:1;fill-rule:nonzero;stroke:none"
         id="path20"
         inkscape:connector-curvature="0" />
      <path
         d="m 406.68506,344.44971 c 0.27099,-1.58594 0.41162,-3.21729 0.41162,-4.88233 0,-15.39355 -12.06738,-27.87402 -26.95508,-27.87402 -7.60351,0 -14.47119,3.25586 -19.37207,8.49219 l -0.8457,0.001 c -9.29102,0.67334 -20.03125,2.78565 -24.46631,3.71826 -1.31787,0.27735 -2.16992,-0.36914 -2.06934,-1.98828 0.24707,-3.98047 1.65479,-12.79492 8.43018,-26.15136 9.53027,-18.78663 16.33691,-25.59375 21.2373,-31.85596 4.90039,-6.26172 6.80713,-8.44092 4.6294,-10.89112 -2.1792,-2.45068 -5.99072,-0.27148 -11.70801,5.17383 -3.76807,3.58985 -6.94678,4.93067 -8.67383,5.42871 -0.89404,0.25733 -1.52539,-0.37451 -1.40234,-1.52343 0.19287,-1.79493 0.99023,-4.77491 3.81445,-8.26221 4.62793,-5.71777 7.89551,-9.52979 5.17188,-11.16309 -2.72217,-1.6333 -8.98487,2.17969 -12.52344,5.17432 -2.20459,1.86426 -4.51514,3.09619 -5.94434,3.75977 -0.86474,0.40185 -1.45166,0.0161 -1.37988,-0.94288 0.10889,-1.41211 0.47022,-3.65136 1.60693,-6.08447 1.9043,-4.08398 2.99415,-6.26318 1.36036,-7.08008 -1.63379,-0.81689 -5.24707,0.18164 -9.25733,3.54004 -1.54346,1.29248 -2.95361,2.30078 -3.94238,2.96582 -0.88721,0.59522 -1.38281,0.40332 -1.38281,-0.69433 0,-1.09766 -0.0513,-2.78223 -0.25537,-5.13037 -0.4087,-4.69678 -0.20411,-6.73877 -4.08399,-3.26709 -2.91016,2.60351 -4.78613,4.74755 -6.74853,5.65673 -0.65381,0.30323 -2.03321,-0.019 -2.03321,-0.79101 0,-1.28613 0,-3.36035 0,-5.2749 0,-3.0625 0.20459,-6.33008 -4.28759,-2.65381 -4.49268,3.67529 -6.33008,5.71679 -8.57667,3.67529 -2.24658,-2.04199 -7.75976,-10.39404 -7.75976,-10.39404 -2.24609,3.49219 -5.51318,8.35205 -7.75977,10.39404 -2.24658,2.0415 -4.08398,0 -8.57666,-3.67529 -4.49218,-3.67627 -4.28759,-0.40869 -4.28759,2.65381 0,1.91455 0,3.98877 0,5.2749 0,0.77197 -1.3794,1.09424 -2.03321,0.79101 -1.9624,-0.90918 -3.83838,-3.05322 -6.74853,-5.65673 -3.87989,-3.47168 -3.6753,-1.42969 -4.08399,3.26709 -0.2041,2.34814 -0.25537,4.03271 -0.25537,5.13037 0,1.09765 -0.4956,1.28955 -1.38281,0.69433 -0.98877,-0.66504 -2.40039,-1.67334 -3.94287,-2.96582 -4.00977,-3.3584 -7.62451,-4.35693 -9.2583,-3.54004 -1.63281,0.8169 -0.54395,2.9961 1.36181,7.08008 1.13575,2.43311 1.49805,4.67236 1.60596,6.08447 0.0728,0.95899 -0.51416,1.34473 -1.37988,0.94288 -1.42822,-0.66358 -3.73877,-1.89551 -5.94336,-3.75977 -3.53955,-2.99463 -9.80127,-6.80762 -12.5249,-5.17432 -2.72217,1.6333 0.54443,5.44532 5.17334,11.16309 2.82275,3.4873 3.6206,6.46728 3.81347,8.26221 0.12305,1.14892 -0.50732,1.78076 -1.40136,1.52343 -1.72803,-0.49804 -4.90577,-1.83886 -8.67432,-5.42871 -5.71777,-5.44531 -9.5293,-7.62451 -11.70752,-5.17383 -2.17871,2.4502 -0.27197,4.6294 4.62842,10.89112 4.90137,6.26221 11.70801,13.06933 21.23779,31.85596 6.77539,13.35644 8.18359,22.17089 8.43066,26.15136 0.10059,1.61914 -0.75146,2.26563 -2.06982,1.98828 -5.84521,-1.229 -22.63867,-4.50634 -32.63574,-3.83935 0,0 0,-5.92188 -0.2041,-11.23096 -0.2041,-5.31006 -4.08399,-9.18945 -10.20996,-7.96435 -6.12647,1.22607 -7.14698,5.10498 -10.00635,7.75976 -2.85889,2.65527 -10.21045,2.45068 -15.72315,8.16797 -5.51416,5.71875 -6.12597,8.98535 -5.10546,15.31543 1.02148,6.33057 1.6333,10.82373 1.6333,16.33643 0,0 -0.61182,-0.10206 -2.042,-0.10206 -1.42871,0 -2.85888,0.2378 -2.85888,0.2378 -12.79639,-19.87696 -16.06397,-19.05762 -16.06397,-19.05762 0,6.2627 -1.36084,9.25586 -1.36084,9.25586 -6.2622,-15.79248 -16.33642,-23.41455 -16.33642,-23.41455 4.35693,16.33642 2.72216,28.31592 2.72216,28.31592 -14.43017,-27.77198 -24.50439,-32.8086 -24.50439,-32.8086 0,0 2.14502,21.97901 21.84717,79.06641 0,0 -19.39649,29.16162 -34.3711,53.93701 -14.97461,24.77588 -15.51953,32.1294 -15.51953,32.1294 0,0 11.9795,-8.16846 25.04834,-25.32178 13.06934,-17.15332 31.44043,-42.15039 31.44043,-42.15039 0.58106,1.59375 1.17237,3.20947 1.77783,4.84961 24.9712,67.74463 28.72413,76.10058 39.75147,84.54052 11.02685,8.44043 20.28369,3.94776 26.27344,-1.90576 5.98974,-5.85351 11.43506,-14.70361 18.51513,-20.55664 7.07911,-5.85351 15.51953,-2.85888 19.33106,0.95264 3.8125,3.81103 4.35644,12.93262 1.36084,17.56201 -2.99463,4.62891 -9.52832,5.71777 -21.78125,7.89551 -12.25196,2.17773 -16.20069,11.16357 -16.20069,11.16357 0,0 -3.81152,0.68018 -9.12011,-0.27246 -5.30957,-0.95264 -9.80225,-2.85889 -9.80225,-2.85889 0,0 0.95264,7.07813 5.17285,12.25293 4.22119,5.17334 9.52979,7.35059 9.52979,7.35059 0,0 -2.72266,14.02148 1.49756,21.23731 5.63476,9.63476 16.29394,9.7998 16.29394,9.7998 l -0.1748,9.62305 4.8999,0.0889 0.17676,-9.70996 c 0,0 8.75488,0.68018 15.01611,-5.58203 6.00244,-6.00342 6.53174,-16.41553 6.54736,-19.60254 0,0 5.70508,-2.04297 9.78907,-6.80761 5.33447,-6.22364 5.98974,-5.58155 8.16797,-5.98926 2.17871,-0.40821 5.0371,-0.13672 5.0371,-0.13672 0,3.67529 -0.2041,10.21045 -0.2041,10.21045 l -10.00586,11.16308 0.20459,22.93897 16.94825,-14.29443 0.40869,-20.21631 c 2.65478,-3.47119 10.61865,-19.09961 10.61865,-19.09961 0,0 7.96387,15.62842 10.61865,19.09961 l 0.40869,20.21631 16.94825,14.29443 0.20459,-22.93897 -10.00586,-11.16308 c 0,0 -0.20411,-6.53516 -0.20411,-10.21045 0,0 2.8584,-0.27149 5.03663,0.13672 2.17871,0.40771 2.83349,-0.23438 8.16796,5.98926 4.08399,4.76464 9.78907,6.80761 9.78907,6.80761 0.0161,3.18701 0.54541,13.59912 6.54736,19.60254 6.26123,6.26221 15.0166,5.58203 15.0166,5.58203 l 0.17529,9.70996 4.90137,-0.0889 -0.17578,-9.62305 c 0,0 10.66016,-0.16504 16.29492,-9.7998 4.21973,-7.21583 1.4961,-21.23731 1.4961,-21.23731 0,0 5.30957,-2.17725 9.53125,-7.35059 4.21923,-5.1748 5.17187,-12.25293 5.17187,-12.25293 0,0 -4.49267,1.90625 -9.80176,2.85889 -5.30908,0.95264 -9.12109,0.27246 -9.12109,0.27246 0,0 -3.94824,-8.98584 -16.20068,-11.16357 -12.25196,-2.17774 -18.78516,-3.2666 -21.78077,-7.89551 -2.99462,-4.62939 -2.45068,-13.75098 1.36036,-17.56201 3.81298,-3.81152 12.25244,-6.80615 19.33252,-0.95264 7.07861,5.85303 12.52539,14.70313 18.51416,20.55664 5.99072,5.85352 15.24609,10.34619 26.27343,1.90576 11.02783,-8.43994 14.78125,-16.79589 39.75244,-84.54052 0.60547,-1.64014 8.37598,-23.44385 8.37598,-23.44385 19.70166,-57.0874 21.84717,-79.06641 21.84717,-79.06641 0,0 -10.07471,5.03662 -24.5044,32.8086 0,0 -1.63574,-11.9795 2.72071,-28.31592 0,0 -10.07422,7.62207 -16.33643,23.41455 0,0 -1.35986,-2.99316 -1.35986,-9.25586 0,0 -3.26758,-0.81934 -16.06348,19.05762 0,0 -2.45068,-0.4419 -3.98242,-0.33985 0,0 -0.51025,-0.51074 -1.12256,-1.63379 -0.61279,-1.12255 -0.82031,-2.16259 -0.82031,-2.16259 M 215.89404,552.38184 c 0,0 -3.81152,-1.22461 -5.71826,-5.7168 -1.90625,-4.49316 -0.8164,-8.30566 -0.8164,-8.30566 0,0 4.22021,2.31494 6.53466,2.72363 0,0 -0.27246,5.30957 0,11.29883 m 17.83301,-11.57129 c 3.4043,-0.68067 6.80664,-1.76953 6.80664,-1.76953 0,0 0.59522,3.97021 -1.22558,8.03222 -1.76856,3.94727 -6.39795,5.44483 -6.39795,5.44483 0.68115,-5.30909 0.81689,-11.70752 0.81689,-11.70752 m -6.33008,-185.41748 c 8.78125,6.33007 11.02735,5.10498 11.02735,5.10498 -0.20459,2.45068 0.8164,4.69677 5.10547,8.57666 4.28759,3.87988 5.5122,6.33056 4.08349,18.37842 -1.42969,12.04785 -8.98486,15.72412 -16.13232,18.58251 -7.14698,2.85889 -10.41407,-2.04199 -13.06934,-5.71728 -2.65381,-3.67627 -4.2876,-6.73877 -7.35107,-6.73877 -3.06299,0 -6.73877,1.02051 -9.18897,0.40869 -2.45068,-0.61328 -4.49219,-5.92236 -8.37207,-10.21045 -3.88037,-4.28808 -6.53515,-3.67627 -9.59765,-2.24609 -3.06348,1.4292 -4.49268,1.63281 -6.53467,-1.63379 -2.04199,-3.26709 -1.02149,-8.98535 -1.02149,-8.98535 4.49268,-1.6333 6.33008,-3.67578 6.33008,-3.67578 7.35156,1.42968 13.47803,2.45068 20.2168,-4.90039 5.05371,-5.51368 5.97314,-12.86524 6.11621,-16.19629 0.0478,-1.10987 1.63867,-1.28223 2.5459,-0.88868 3.79541,1.65284 8.75488,5.03223 15.84228,10.14161 m 136.0669,185.68994 c 2.31494,-0.40869 6.53467,-2.72363 6.53467,-2.72363 0,0 1.08935,3.8125 -0.8169,8.30566 -1.90674,4.49219 -5.71777,5.7168 -5.71777,5.7168 0.27295,-5.98926 0,-11.29883 0,-11.29883 m -17.01612,11.43506 c 0,0 -4.62939,-1.49756 -6.39892,-5.44483 -1.81983,-4.06201 -1.22559,-8.03222 -1.22559,-8.03222 0,0 3.40332,1.08886 6.80811,1.76953 0,0 0.13525,6.39843 0.8164,11.70752 m 22.36231,-186.78272 -1.88965,5.12647 -0.36133,-0.13868 -5.89306,-2.17285 c -0.47901,-0.17724 -1.01319,0.0703 -1.19043,0.54834 l -0.48829,1.32764 c -0.17724,0.47852 0.0698,1.01269 0.54834,1.18945 l 6.07618,2.24121 0.16308,0.11036 -2.29052,6.21142 c -0.17627,0.479 0.0708,1.01318 0.54931,1.18994 l 1.32715,0.48828 c 0.47852,0.17676 1.0127,-0.0703 1.18994,-0.54882 l 2.28467,-6.19385 0.49268,0.11328 5.78515,2.13184 c 0.47852,0.17724 1.0127,-0.0703 1.18994,-0.54883 l 0.4878,-1.32715 c 0.17724,-0.47852 -0.0703,-1.01319 -0.54883,-1.18994 l -5.84033,-2.15528 -0.39112,-0.21338 1.96143,-5.31982 0.20459,-0.40088 c 2.51758,0.80371 5.19189,1.23731 7.96484,1.23731 4.29151,0 8.34863,-1.03711 11.95117,-2.88282 0,0 3.26221,-1.20117 5.81446,-0.38427 2.55322,0.8164 5.71777,4.59423 5.92236,8.37256 0.20361,3.77685 -0.61328,5.61523 -1.83838,7.35107 -2.22168,3.14697 -3.47119,3.06299 -6.53467,1.63379 -3.06299,-1.43018 -5.71728,-2.04199 -9.59765,2.24609 -3.87989,4.28809 -5.92139,9.59717 -8.37207,10.21045 -2.4502,0.61182 -6.12598,-0.40869 -9.18897,-0.40869 -3.06347,0 -4.69726,3.0625 -7.35107,6.73877 -2.65528,3.67529 -5.92237,8.57617 -13.06934,5.71728 -7.14746,-2.85839 -14.70264,-6.53466 -16.13232,-18.58251 -1.42871,-12.04786 -0.2041,-14.49854 4.08349,-18.37842 4.28858,-3.87989 5.31006,-6.12598 5.10547,-8.57666 0,0 2.2461,1.22509 11.02735,-5.10498 1.47998,-1.06739 2.86816,-2.05957 4.17382,-2.97705 l 0.30469,0.4375 c 2.80762,5.3457 7.25684,9.63476 12.64942,12.14404 z"
         style="fill:#231f20;fill-opacity:1;fill-rule:nonzero;stroke:none"
         id="path22"
         inkscape:connector-curvature="0" />
      <path
         d="m 367.021,631.47754 c 0,-3.91065 -3.71875,-7.08008 -8.30518,-7.08008 -4.58643,0 -8.30371,3.16943 -8.30371,7.08008 0,3.91016 3.71728,7.0791 8.30371,7.0791 4.58643,0 8.30518,-3.16894 8.30518,-7.0791 z"
         style="fill:#231f20;fill-opacity:1;fill-rule:nonzero;stroke:none"
         id="path24"
         inkscape:connector-curvature="0" />
      <path
         d="m 247.54688,631.47754 c 0,-3.91065 -3.71778,-7.08008 -8.30469,-7.08008 -4.58692,0 -8.3042,3.16943 -8.3042,7.08008 0,3.91016 3.71728,7.0791 8.3042,7.0791 4.58691,0 8.30469,-3.16894 8.30469,-7.0791 z"
         style="fill:#231f20;fill-opacity:1;fill-rule:nonzero;stroke:none"
         id="path26"
         inkscape:connector-curvature="0" />
      <path
         d="m 331.62451,660.84912 c -1.9834,-2.24316 -5.03711,-3.40723 -7.35107,0.81079 h -58.40479 c 0.71826,-11.67285 7.23975,-22.54321 13.82031,-27.70532 10.41456,-8.16992 26.40674,-7.91162 35.32764,-1.6333 5.51319,3.87939 8.3125,9.71484 11.84375,14.9082 3.47119,5.10498 7.35108,2.65405 8.98486,0.4065 1.63379,-2.24463 3.06299,-8.37183 -3.26708,-14.26783 -9.23292,-8.59912 -20.42042,-10.85058 -35.93995,-10.85058 -15.52002,0 -24.70898,3.06933 -33.69384,10.44092 -12.90967,10.58935 -15.11084,20.47363 -15.11084,31.52832 0,13.71704 6.73828,25.38598 22.8706,35.41601 12.4419,7.73657 38.18604,8.39551 52.07227,0.61597 7.01562,-3.9314 11.43506,-6.72608 12.45605,-14.94702 0.32227,-2.59229 -1.4292,-6.89234 -6.33008,-8.93384 -2.56396,-1.06812 -6.33056,-0.40918 -8.57666,3.47168 -2.24609,3.87964 -0.6123,9.80298 -6.53466,15.11255 -5.80518,5.20483 -23.27881,9.59765 -35.53125,-0.20435 -10.97168,-8.77929 -12.28174,-20.50561 -12.43555,-28.58056 h 65.25635 c 2.04199,-0.0142 2.58593,-3.27784 0.54394,-5.58814 z"
         style="fill:#231f20;fill-opacity:1;fill-rule:nonzero;stroke:none"
         id="path28"
         inkscape:connector-curvature="0" />
      <path
         d="m 154.23877,639.271 c -12.93506,-6.81202 -29.13232,-15.27051 -34.30566,-15.27051 -4.9004,0 -6.26221,0.68115 -5.71778,3.27197 0.54395,2.58984 4.08447,8.04443 16.60938,24.67871 12.52392,16.63428 14.6709,22.47559 14.6709,22.47559 -5.79834,10.52246 -10.56495,24.63843 -10.45118,27.15283 0.13526,2.99927 3.81153,4.5 7.89551,4.5 5.0376,0 7.92676,-0.95435 13.34131,-13.36182 8.03271,-18.40673 19.29541,-34.60009 41.24951,-50.1748 19.60401,-13.90625 23.82373,-16.49609 25.86572,-17.58789 2.042,-1.09082 1.63379,-2.4541 -2.85888,-2.4541 -4.49219,0 -13.74951,2.72558 -33.48877,12.81591 -5.58838,2.85547 -10.94824,6.46485 -15.87403,10.38721 0,0 -3.73046,0.52051 -16.93603,-6.4331 m 5.88379,16.4729 c -4.59766,4.65747 -8.42774,9.25781 -11.19238,13.17016 0,0 -3.81153,-6.53467 -10.89063,-16.33618 -7.07959,-9.802 -10.61865,-15.79126 -10.61865,-15.79126 0,0 8.43994,4.76416 19.19531,11.29859 8.64404,5.25292 13.50635,7.65869 13.50635,7.65869 z"
         style="fill:#231f20;fill-opacity:1;fill-rule:nonzero;stroke:none"
         id="path30"
         inkscape:connector-curvature="0" />
      <path
         d="m 442.09912,624.84033 c 3.47119,-2.49365 7.35156,-2.34814 16.81348,-2.34814 4.08301,0 5.03613,0.81689 6.39844,2.17822 1.36132,1.36182 -0.68116,3.81152 -7.21534,9.25732 -6.53466,5.44532 -46.69531,34.7146 -46.69531,34.7146 0,0 36.07666,27.77149 36.75684,27.90821 4.1372,0.82934 4.35644,-2.17847 8.16845,-2.17847 3.81202,0 6.39844,1.90552 6.26221,5.9895 -0.13525,4.08399 -4.25439,5.68408 -6.97754,5.68408 -2.72168,0 -4.32226,-0.37475 -10.17529,-4.59448 -5.85352,-4.21972 -48.60059,-36.75732 -48.60059,-36.75732 v 31.99365 c 0,7.625 -4.79883,9.35815 -10.24414,9.35815 -5.44629,0 -8.27051,-3.91406 -7.99804,-9.90454 v -62.62304 c -0.13575,-8.44043 2.17773,-11.02588 4.62792,-11.02588 2.45118,0 5.99024,1.36133 8.7129,3.26758 2.72363,1.90527 5.03662,3.94726 4.90136,7.89502 v 24.77636 c 0,0 30.28955,-22.83545 45.26465,-33.59082 z"
         style="fill:#231f20;fill-opacity:1;fill-rule:nonzero;stroke:none"
         id="path32"
         inkscape:connector-curvature="0" />
      <path
         d="m 261.09033,178.96094 v 28.07812 h 19.2461 v -4.74756 h -13.58057 v -6.63671 h 11.74219 v -4.74756 h -11.74219 v -11.94629 z"
         style="fill:#231f20;fill-opacity:1;fill-rule:nonzero;stroke:none"
         id="path34"
         inkscape:connector-curvature="0" />
      <path
         d="m 280.64209,178.96094 v 5.35986 h 5.36035 v -5.35986 z"
         style="fill:#231f20;fill-opacity:1;fill-rule:nonzero;stroke:none"
         id="path36"
         inkscape:connector-curvature="0" />
      <path
         d="m 309.60742,189.32422 5.51367,-1.68457 c -0.84619,-3.0918 -2.2539,-5.38721 -4.22168,-6.88819 -1.96777,-1.5 -4.46484,-2.25 -7.48925,-2.25 -3.74366,0 -6.81934,1.27442 -9.2295,3.82276 -2.41064,2.54687 -3.61572,6.03174 -3.61572,10.45215 0,4.6748 1.21045,8.30517 3.63037,10.89209 2.42041,2.5874 5.60254,3.88086 9.54737,3.88086 3.44482,0 6.24267,-1.01563 8.39502,-3.0459 1.27978,-1.20215 2.24072,-2.92529 2.88134,-5.17285 l -5.61572,-1.32764 c -0.33496,1.45117 -1.03223,2.59619 -2.09326,3.43652 -1.06104,0.83985 -2.34912,1.25977 -3.8667,1.25977 -2.0957,0 -3.79541,-0.74658 -5.10107,-2.24121 -1.30518,-1.49463 -1.95704,-3.91455 -1.95704,-7.25977 0,-3.55078 0.64258,-6.07959 1.93018,-7.58594 1.28662,-1.50781 2.95996,-2.26074 5.01807,-2.26074 1.51904,0 2.82519,0.48047 3.91894,1.43994 1.09424,0.96094 1.87842,2.47168 2.35498,4.53272 z"
         style="fill:#231f20;fill-opacity:1;fill-rule:nonzero;stroke:none"
         id="path38"
         inkscape:connector-curvature="0" />
      <path
         d="m 319.84961,178.96094 v 5.35986 h 5.36035 v -5.35986 z"
         style="fill:#231f20;fill-opacity:1;fill-rule:nonzero;stroke:none"
         id="path40"
         inkscape:connector-curvature="0" />
    </g>
  </g>
</svg>
