<?xml version="1.0" encoding="utf-8"?>
<!-- Generator: Adobe Illustrator 17.0.0, SVG Export Plug-In . SVG Version: 6.00 Build 0)  -->
<!DOCTYPE svg PUBLIC "-//W3C//DTD SVG 1.1//EN" "http://www.w3.org/Graphics/SVG/1.1/DTD/svg11.dtd">
<svg version="1.1" id="Layer_1" xmlns="http://www.w3.org/2000/svg" xmlns:xlink="http://www.w3.org/1999/xlink" x="0px" y="0px"
	 width="307.951px" height="338.328px" viewBox="0 0 307.951 338.328" enable-background="new 0 0 307.951 338.328"
	 xml:space="preserve">
<path fill="#478B54" d="M257.864,0l47.297,53.167c0,0-32.235,26.606-32.235,59.484c0,18.051,8.72,32.658,35.025,32.658
	c0,94.507-59.142,140.738-59.142,140.738l-8.323-26.154c0,0-23.713,43.338-86.511,78.436c-62.797-35.098-86.51-78.436-86.51-78.436
	l-8.322,26.154c0,0-59.143-46.23-59.143-140.738c26.306,0,35.026-14.607,35.026-32.658c0-32.878-32.235-59.484-32.235-59.484
	L50.087,0c0,0,6.077,12.37,22.195,12.37c22.988,0,33.292-8.422,55.223-8.422c17.127,0,26.471,9.739,26.471,9.739
	s9.344-9.739,26.471-9.739c21.932,0,32.235,8.422,55.224,8.422C251.788,12.37,257.864,0,257.864,0"/>
<path fill="#FFFFFF" d="M303.746,149.35c0,0-66.987,30.919-149.77,30.919c-82.775,0-149.757-30.913-149.77-30.919
	c0.363,19.691,3.391,38.702,9.012,56.568c0.641,2.037,1.318,4.06,2.026,6.067c22.294,8.596,75.968,26.365,138.732,26.365
	c62.763,0,116.436-17.769,138.731-26.365c0.735-2.086,1.439-4.189,2.103-6.307C300.382,187.882,303.383,168.954,303.746,149.35z"/>
<path fill="#FFFFFF" d="M285.706,68.08c5.202-6.946,10.376-12.218,13.583-15.243L258.221,6.671
	c-3.772,4.289-10.915,9.867-22.551,9.867c-12.157,0-20.89-2.245-29.335-4.417c-8.012-2.06-15.58-4.006-25.889-4.006
	c-14.99,0-23.139,8.127-23.479,8.473l-3.043,3.1l-2.957-3.117c-0.323-0.329-8.473-8.456-23.463-8.456
	c-10.309,0-17.877,1.946-25.888,4.006c-8.446,2.171-17.179,4.417-29.335,4.417c-11.636,0-18.779-5.578-22.55-9.867L8.663,52.837
	c3.206,3.024,8.38,8.297,13.582,15.243c2.359,3.151,4.479,6.329,6.36,9.518h250.742C281.227,74.409,283.347,71.231,285.706,68.08z"
	/>
<path fill="#478B54" d="M99.512,69.671H86.998l-4.975-9.586H59.25l-4.703,9.586H42.345l22.191-42.202H76.7L99.512,69.671z
	 M78.332,52.974l-7.851-15.66l-7.695,15.66H78.332z M107.604,69.671V27.469h21.492c6.996,0,11.555,0.211,13.68,0.633
	c3.265,0.633,5.998,2.01,8.201,4.13c2.201,2.121,3.303,4.861,3.303,8.22c0,2.59-0.636,4.768-1.904,6.534
	c-1.27,1.766-2.882,3.152-4.838,4.16c-1.957,1.007-3.945,1.674-5.966,2c-2.747,0.403-6.724,0.604-11.931,0.604h-10.533v15.92
	H107.604z M119.106,34.608v11.975h9.329c4.533,0,7.564-0.22,9.093-0.663c1.528-0.44,2.727-1.131,3.595-2.072
	c0.868-0.94,1.302-2.034,1.302-3.281c0-1.535-0.609-2.802-1.826-3.8c-1.219-0.998-2.76-1.622-4.625-1.872
	c-1.374-0.191-4.133-0.288-8.278-0.288H119.106z M163.813,69.671V27.469h12.037v16.609h23.586V27.469h12.037v42.202h-12.037V51.217
	h-23.586v18.454H163.813z M244.118,62.532l17.916-12.954l-18.818-14.97h20.657v-7.139h-40.648v1.658l25.707,20.452l-25.707,18.586
	v1.507h42.382v-7.139H244.118z"/>
<path fill="#478B54" d="M60.371,215.116l-8.955-2.718l-10.608-29.801l-9.614,23.665l-8.824-2.679l13.503-30.837l9.649,2.929
	L60.371,215.116z M74.741,211.609v-8.402l15.6,3.227v-6.402l-15.6-3.227v-7.326l16.358,3.382v-6.401l-24.881-5.145v34.935
	l25.224,5.217v-6.402L74.741,211.609z M107.283,188.88l-7.517-0.762v34.935l8.657,0.878v-21.807l9.388,11.904l1.3,0.131l9.39-10.002
	v21.807l8.659,0.877v-34.935l-7.527-0.762l-11.17,11.822L107.283,188.88z M155.513,220.386v-8.402l15.928-0.241v-6.401
	l-15.928,0.241v-7.327l16.703-0.254V191.6l-25.405,0.386v34.936l25.754-0.391v-6.402L155.513,220.386z M220.927,190.537
	c-3.609,4.363-5.414,8.938-5.414,13.722c0,4.868,1.817,8.677,5.451,11.429c3.635,2.751,8.344,3.502,14.13,2.254
	c5.72-1.232,10.405-4.018,14.056-8.355c3.65-4.338,5.476-8.924,5.476-13.76c0-4.768-1.801-8.56-5.401-11.377
	c-3.603-2.816-8.313-3.596-14.13-2.342C229.259,183.365,224.536,186.175,220.927,190.537z M227.259,209.441
	c-1.98-1.533-2.971-3.89-2.971-7.074c0-3.201,0.99-5.99,2.971-8.367c1.98-2.379,4.591-3.916,7.835-4.616
	c3.226-0.695,5.825-0.28,7.798,1.245c1.972,1.525,2.958,3.889,2.958,7.09c0,3.184-0.986,5.969-2.958,8.352
	c-1.973,2.385-4.572,3.924-7.798,4.62C231.85,211.389,229.239,210.972,227.259,209.441z M194.032,218.058l11.601-10.609v-3.993
	l-11.601-7.529l12.371-1.38v-6.402l-25.25,2.817v6.402l14.154,9.186l-14.154,12.945v6.401l25.598-2.856v-6.402L194.032,218.058z
	 M272.917,201.021l11.566-13.265v-3.995l-11.6-4.861l13.239-4.33v-6.401l-24.15,7.897v6.402l14.154,5.898l-14.154,16.232v6.402
	l24.481-8.006v-6.402L272.917,201.021z"/>
<polygon fill="#FFFFFF" points="192.235,120.051 163.397,118.849 153.976,89.847 144.554,118.849 115.717,120.051 138.732,136.77 
	129.309,165.77 153.976,147.848 178.644,165.77 169.22,136.77 "/>
</svg>
