<?xml version="1.0" encoding="UTF-8" standalone="no"?>
<!-- Created with Inkscape (http://www.inkscape.org/) -->

<svg
   xmlns:dc="http://purl.org/dc/elements/1.1/"
   xmlns:cc="http://creativecommons.org/ns#"
   xmlns:rdf="http://www.w3.org/1999/02/22-rdf-syntax-ns#"
   xmlns:svg="http://www.w3.org/2000/svg"
   xmlns="http://www.w3.org/2000/svg"
   xmlns:sodipodi="http://sodipodi.sourceforge.net/DTD/sodipodi-0.dtd"
   xmlns:inkscape="http://www.inkscape.org/namespaces/inkscape"
   width="522"
   height="700"
   viewBox="0 0 314.51108 421.75813"
   version="1.1"
   id="svg16355"
   inkscape:version="0.91 r13725"
   sodipodi:docname="Atletico_Madrid_2017_logo.svg">
  <defs
     id="defs16349" />
  <sodipodi:namedview
     id="base"
     pagecolor="#ffffff"
     bordercolor="#666666"
     borderopacity="1.0"
     inkscape:pageopacity="0.0"
     inkscape:pageshadow="2"
     inkscape:zoom="0.60615072"
     inkscape:cx="278.63436"
     inkscape:cy="246.63731"
     inkscape:document-units="mm"
     inkscape:current-layer="layer1"
     showgrid="false"
     fit-margin-top="0"
     fit-margin-left="0"
     fit-margin-right="0"
     fit-margin-bottom="0"
     inkscape:window-width="1440"
     inkscape:window-height="788"
     inkscape:window-x="0"
     inkscape:window-y="1"
     inkscape:window-maximized="1" />
  <metadata
     id="metadata16352">
    <rdf:RDF>
      <cc:Work
         rdf:about="">
        <dc:format>image/svg+xml</dc:format>
        <dc:type
           rdf:resource="http://purl.org/dc/dcmitype/StillImage" />
        <dc:title></dc:title>
      </cc:Work>
    </rdf:RDF>
  </metadata>
  <g
     inkscape:label="Logo"
     inkscape:groupmode="layer"
     id="layer1"
     transform="translate(267.66758,252.8224)">
    <g
       id="g4269">
      <path
         sodipodi:nodetypes="scsccccccccsscs"
         inkscape:connector-curvature="0"
         id="path4172"
         d="m -110.41127,-252.8224 c -59.18501,0 -107.03044,10.18837 -130.27697,16.25556 -15.88007,4.14551 -26.97778,9.12485 -26.97778,25.58604 l 0,230.215705 0,0.08389 0,0.08489 c 0.19327,19.144289 9.27397,37.321789 24.29666,48.64642 l 123.49088,93.702945 9.46721,7.17877 9.47934,-7.17877 L 22.595304,68.025846 C 37.762888,56.580373 46.843493,38.32988 46.843493,19.24602 l 0,-230.22682 c 0,-16.4491 -11.097728,-21.44053 -26.989898,-25.58604 -23.2465025,-6.06719 -71.079821,-16.25556 -130.264865,-16.25556 z"
         style="fill:#262f61;fill-opacity:1;fill-rule:nonzero;stroke:none;stroke-width:23.35641098" />
      <g
         id="g4246">
        <g
           id="g4242">
          <path
             id="path4164"
             d="m -42.820892,-204.75611 c 1.147226,0.15713 2.2821,0.3139 3.405169,0.4831 3.357158,0.47136 6.606136,0.97908 9.745932,1.48669 3.163947,0.5197 6.230742,1.05197 9.153155,1.59584 l -82.600574,62.7624 0,-42.98971 c 13.005975,7.72297 21.785669,6.93683 27.449372,3.33519 3.236389,-2.05462 5.457933,-5.0399 6.846688,-7.86804 14.092825,4.14552 29.73177,-4.60437 26.000258,-18.80547 z"
             style="fill:#ffffff;fill-opacity:1;fill-rule:nonzero;stroke:none;stroke-width:23.35641098" />
          <path
             id="path4162"
             d="m -194.1469,-202.29109 c 0.10866,1.2086 0.35058,2.35766 0.68871,3.45749 0.0117,0.0483 0.0234,0.0962 0.0354,0.14453 0.0117,0.0483 0.0364,0.0851 0.0485,0.1334 3.61074,10.98621 18.29571,16.67832 31.82095,12.68993 2.5239,5.12448 8.57354,9.62057 17.01473,10.79291 5.67579,0.78559 12.4389,0.048 19.9261,-3.02189 l 0,56.0071 -51.69757,39.291685 c 0.16903,-1.244862 0.2777,-2.574106 0.2777,-4.012348 l 0,-0.447723 0,-0.797418 0,-0.362829 c 5.65163,-3.492864 10.63823,-10.297239 13.13798,-18.902497 1.11101,-3.81919 1.57017,-7.60143 1.53394,-11.15473 -1.03855,0.45927 -2.13738,0.77287 -3.17594,0.97833 -2.74128,0.53178 -5.09567,0.37496 -5.10775,0.37496 4.52854,-0.3505 7.81245,-2.07842 9.94992,-3.67378 0.62795,-0.53179 1.31632,-1.17291 2.04088,-1.91016 4.46815,-4.56852 7.41527,-9.87434 9.16629,-16.02614 l 8.50181,-29.75605 c -4.44402,-0.41092 -8.73127,1.70495 -11.12234,5.47579 l -4.10599,6.47737 -4.02118,6.36922 c -0.9057,1.52284 -2.52388,2.90102 -4.35946,3.89208 -2.82582,-2.21175 -5.02391,-3.95241 -6.76287,-5.31813 -0.26568,-0.20546 -0.51888,-0.411 -0.76041,-0.60438 l -2.68111,-11.26388 3.901,-6.96147 c 1.12307,-2.01837 1.48517,-4.32727 1.11082,-6.53901 -0.24152,-1.35364 -0.76117,-2.68242 -1.55818,-3.87894 -0.64005,-0.94271 -1.96851,-1.16013 -2.93459,-0.54374 l -9.7934,6.26007 c -0.27774,-0.27798 -0.54322,-0.49582 -0.82099,-0.66502 -0.61587,-0.38675 -1.24446,-0.48272 -1.9207,-0.37395 -0.99026,0.16921 -2.0888,0.80954 -3.38093,1.67973 l -2.50037,1.82526 -3.71922,2.7187 -2.84976,-0.10815 -1.98029,-0.0849 c -1.93219,0 -2.70521,3.48054 -0.91795,6.04278 1.48536,2.12714 2.65663,4.88295 3.45365,8.20661 0.0117,0.0483 0.0364,0.0972 0.0485,0.14554 0.0483,0.24172 0.0961,0.48292 0.15652,0.72464 0.0362,0.19338 0.085,0.37462 0.12118,0.568 0.62796,3.09403 0.95429,6.63557 0.95429,10.57562 0,8.79863 -4.73408,27.6166 -10.83251,39.88393 -0.28982,0.53179 -0.59176,1.06309 -0.8816,1.60696 l -4.58868,7.650744 c -0.73665,1.111916 -0.56755,2.791616 0.30194,4.000219 0.62796,0.870199 1.63036,1.498822 2.93457,1.498822 0,0 3.68288,4.64066 4.84217,13.572239 0.53136,4.060912 0.54353,9.0171 -0.55541,14.818395 l -8.69469,6.61077 -9.22688,7.009987 0.0131,-149.202696 c 4.43194,-1.05149 9.46736,-2.17477 15.03445,-3.28669 4.32325,-0.87019 8.98455,-1.74128 13.93574,-2.5873 z"
             style="fill:#ffffff;fill-opacity:1;fill-rule:nonzero;stroke:none;stroke-width:23.35641098" />
        </g>
        <g
           id="g4233">
          <path
             id="path4170"
             d="m -113.85279,-240.94202 3.73136,11.54283 12.124089,0 -9.805519,7.13025 3.74347,11.5307 -9.7934,-7.13127 -9.81762,7.13127 3.74346,-11.5307 -9.80551,-7.13025 12.12409,0 3.75558,-11.54283 z"
             style="fill:#ffffff;fill-opacity:1;fill-rule:nonzero;stroke:none;stroke-width:23.35641098" />
          <path
             id="path4168"
             d="m -244.81847,-224.11846 3.74347,11.54282 12.1251,0 -9.80652,7.13026 3.74346,11.53069 -9.80551,-7.13126 -9.80551,7.13126 3.74346,-11.53069 -9.80551,-7.13026 12.12409,0 3.74347,-11.54282 z"
             style="fill:#ffffff;fill-opacity:1;fill-rule:nonzero;stroke:none;stroke-width:23.35641098" />
          <path
             id="path4166"
             d="m 14.310605,-224.11846 3.743461,11.54282 12.12511,0 -9.806523,7.13026 3.743462,11.53069 -9.80551,-7.13126 -9.8055097,7.13126 3.7434616,-11.53069 -9.80551,-7.13026 12.1240921,0 3.743466,-11.54282 z"
             style="fill:#ffffff;fill-opacity:1;fill-rule:nonzero;stroke:none;stroke-width:23.35641098" />
          <path
             id="path4156"
             d="m -69.123089,-148.80965 3.743461,11.52969 12.125105,0 -9.806518,7.13126 3.743461,11.54182 -9.805509,-7.13026 -9.805511,7.13026 3.743462,-11.54182 -9.80551,-7.13126 12.124091,0 3.743468,-11.52969 z"
             style="fill:#ffffff;fill-opacity:1;fill-rule:nonzero;stroke:none;stroke-width:23.35641098" />
          <path
             id="path4154"
             d="m -244.81847,-125.8948 3.74347,11.52969 12.1251,0 -9.80652,7.13126 3.74346,11.541806 -9.80551,-7.130246 -9.80551,7.118122 3.74346,-11.529682 -9.80551,-7.13126 12.12409,0 3.74347,-11.52969 z"
             style="fill:#ffffff;fill-opacity:1;fill-rule:nonzero;stroke:none;stroke-width:23.35641098" />
          <path
             id="path4150"
             d="m -153.8009,-87.642084 3.75558,11.541814 12.11298,0 -9.80652,7.131264 3.74447,11.529685 -9.80651,-7.119134 -9.80552,7.119134 3.75559,-11.529685 -9.81763,-7.131264 12.12409,0 3.74347,-11.541814 z"
             style="fill:#ffffff;fill-opacity:1;fill-rule:nonzero;stroke:none;stroke-width:23.35641098" />
          <path
             id="path4148"
             d="m -244.81847,-22.123595 3.74347,11.541814 12.1251,0 -9.80652,7.1302505 3.74346,11.5306993 -9.80551,-7.11913968 -9.80551,7.11913968 3.74346,-11.5306993 -9.80551,-7.1302505 12.12409,0 3.74347,-11.541814 z"
             style="fill:#ffffff;fill-opacity:1;fill-rule:nonzero;stroke:none;stroke-width:23.35641098" />
        </g>
        <g
           id="g4222">
          <g
             id="g4217">
            <path
               style="fill:#ffffff;fill-opacity:1;fill-rule:nonzero;stroke:none;stroke-width:23.35641098"
               d="m -2.7263443,-154.56438 0,225.29376 -43.0937607,32.69204 0,-224.9744 0.004,-0.003 43.0877021,-33.00635 0.00202,-0.002 z"
               id="path4158" />
            <path
               style="fill:#ffffff;fill-opacity:1;fill-rule:nonzero;stroke:none;stroke-width:23.35641098"
               d="m -88.919322,-88.546214 -43.093708,33.001634 0,191.5787 21.60216,16.38902 21.491548,-16.30547 0,-224.663884 z"
               id="path4209" />
            <path
               style="fill:#ffffff;fill-opacity:1;fill-rule:nonzero;stroke:none;stroke-width:23.35641098"
               d="m -175.11262,-22.537064 -0.002,0.0024 -43.09723,33.016933 0,60.149959 c -69.62378,-52.796817 115.82028,87.870417 43.09958,32.700377 l 0,-125.863738 0,-0.0059 z"
               id="path4152" />
          </g>
          <g
             id="g4211">
            <path
               inkscape:connector-curvature="0"
               style="fill:#ce3524;fill-opacity:1;fill-rule:nonzero;stroke:none;stroke-width:6.17971706"
               d="m 33.502165,-4.7841592 0,-177.5318308 -9.793725,7.50543 -26.434606,20.24412 0,225.295854 18.17454,-13.790176 0,0 c 3.127718,-2.380942 5.905215,-5.136568 8.28422,-8.182252 6.231265,-7.952606 9.769571,-17.88733 9.769571,-28.172549 z"
               id="path4180" />
            <path
               inkscape:connector-curvature="0"
               style="fill:#ce3524;fill-opacity:1;fill-rule:nonzero;stroke:none;stroke-width:6.17971706"
               d="m -45.819769,-121.55705 0,0 -43.09964,33.006969 0,224.667401 43.09964,-32.69275 z"
               id="path4178" />
            <path
               inkscape:connector-curvature="0"
               style="fill:#ce3524;fill-opacity:1;fill-rule:nonzero;stroke:none;stroke-width:6.17971706"
               d="m -175.11265,-22.531299 0,0 0,125.864029 43.09964,32.70481 0,-191.575812 z"
               id="path4176" />
            <path
               inkscape:connector-curvature="0"
               style="fill:#ce3524;fill-opacity:1;fill-rule:nonzero;stroke:none;stroke-width:6.17971706"
               d="m -218.21229,10.480509 -16.1216,12.351932 -17.05148,13.052922 c 2.89827,8.339366 8.07892,15.723942 15.13136,21.065961 l 0,0 18.04172,13.681397 z"
               id="path276" />
          </g>
        </g>
      </g>
    </g>
  </g>
</svg>
