<?xml version="1.0" encoding="UTF-8" standalone="no"?>
<!-- Generator: Adobe Illustrator 19.0.0, SVG Export Plug-In . SVG Version: 6.00 Build 0)  -->

<svg
   xmlns:dc="http://purl.org/dc/elements/1.1/"
   xmlns:cc="http://creativecommons.org/ns#"
   xmlns:rdf="http://www.w3.org/1999/02/22-rdf-syntax-ns#"
   xmlns:svg="http://www.w3.org/2000/svg"
   xmlns="http://www.w3.org/2000/svg"
   xmlns:sodipodi="http://sodipodi.sourceforge.net/DTD/sodipodi-0.dtd"
   xmlns:inkscape="http://www.inkscape.org/namespaces/inkscape"
   version="1.1"
   id="svg2"
   x="0px"
   y="0px"
   viewBox="158 -25.4 111.24 142.81332"
   xml:space="preserve"
   sodipodi:docname="BK_Hacken_logo.svg"
   width="111.24"
   height="142.81332"
   inkscape:version="0.92.4 (5da689c313, 2019-01-14)"><metadata
   id="metadata4798"><rdf:RDF><cc:Work
       rdf:about=""><dc:format>image/svg+xml</dc:format><dc:type
         rdf:resource="http://purl.org/dc/dcmitype/StillImage" /><dc:title></dc:title></cc:Work></rdf:RDF></metadata><defs
   id="defs4796" /><sodipodi:namedview
   pagecolor="#ffffff"
   bordercolor="#666666"
   borderopacity="1"
   objecttolerance="10"
   gridtolerance="10"
   guidetolerance="10"
   inkscape:pageopacity="0"
   inkscape:pageshadow="2"
   inkscape:window-width="1366"
   inkscape:window-height="705"
   id="namedview4794"
   showgrid="false"
   inkscape:zoom="4.4500586"
   inkscape:cx="33.327574"
   inkscape:cy="87.140673"
   inkscape:window-x="-8"
   inkscape:window-y="-8"
   inkscape:window-maximized="1"
   inkscape:current-layer="g10"
   inkscape:pagecheckerboard="true" />
<style
   type="text/css"
   id="style4768">
	.st0{fill:#FFFFFF;stroke:#000000;stroke-miterlimit:10;}
	.st1{fill:#F7EE09;}
	.st2{fill:#1B1819;}
	.st3{fill:#A79448;}
</style>

<g
   id="g10"
   transform="matrix(1.3333333,0,0,-1.3333333,-19.426662,705.25332)">
	<g
   id="g12"
   transform="scale(0.1)">
		<path
   style="fill:#ffffff"
   inkscape:connector-curvature="0"
   d="m 1371.3,4810.7 c 1.9,15.9 6.6,38.9 12,65.5 1.9,9.5 3.9,19.4 6,29.8 l 609.2,533.6 128.2,-160.2 -709.4,-619.9 c -49.6,41.2 -54.6,78.2 -46,151.2 z"
   class="st3"
   id="path7890"
   sodipodi:nodetypes="ccccccc" /><path
   id="path14"
   class="st1"
   d="m 1946.2,4578.6 c -86,-45.9 -169.7,-106.4 -198.3,-127.6 -28.6,21.2 -112.3,81.7 -198.3,127.6 -47.7,25.5 -83.7,45.9 -110.6,64.6 l 664,580.3 c -11.5,-27.1 -21.6,-62.4 -21.7,-104 -0.2,-88.9 17.9,-178.1 31.1,-243.2 5.4,-26.6 10.1,-49.6 12,-65.5 13.6,-114.3 -6.4,-140.4 -178.2,-232.2"
   inkscape:connector-curvature="0"
   style="fill:#f7ee09" />
		<path
   id="path16"
   class="st2"
   d="m 1950.4,4580.4 c -2,-0.6 -2.6,-1.2 -3.7,-1.8 -36.7,-19.6 -72.9,-41.9 -105.1,-62.6 v 478.6 l 106.8,94.4 2,-508.6"
   inkscape:connector-curvature="0"
   style="fill:#1b1819" />
		<path
   id="path18"
   class="st2"
   d="M 1746.9,4912.9 V 4451 c -18.1,13.5 -58.4,43 -106.8,74.5 v 293 l 106.8,94.4"
   inkscape:connector-curvature="0"
   style="fill:#1b1819" />
		<path
   id="path20"
   class="st2"
   d="m 1545.4,4736.7 v -156.2 c -44.3,24.6 -80.9,44.5 -107,62.7 l 107,93.5"
   inkscape:connector-curvature="0"
   style="fill:#1b1819" />
		<path
   id="path22"
   class="st2"
   d="m 2042.3,4633.6 -0.2,536.6 60.9,53.2 c -11.5,-27.1 -21.6,-62.4 -21.7,-104 -0.2,-88.9 17.9,-178.1 31.1,-243.2 5.4,-26.6 10.1,-49.6 12,-65.5 10.5,-87.9 1.1,-123.5 -82.1,-177.1"
   inkscape:connector-curvature="0"
   style="fill:#1b1819" />
		<path
   id="path24"
   class="st2"
   d="m 1397.4,4948.5 c 9.3,52.3 17.2,111.6 17.1,170.9 -0.2,77.6 -35,133.3 -49.8,154.5 L 1500,5443 c 22.5,-10.5 78.6,-31.9 125.9,-39.9 61.5,-10.4 121,-10.8 123,-10.8 v 0 c 4,0 61.3,0.5 121.8,10.8 21.4,3.6 44.2,10 65.2,16.8 l -538.5,-471.4"
   inkscape:connector-curvature="0"
   style="fill:#1b1819" />
		<path
   id="path26"
   class="st3"
   d="m 1578.5,4850.1 -77.3,88.3 c -0.5,0.6 -1.3,0.9 -2.3,0.9 -0.7,0 -1.4,-0.2 -1.9,-0.7 l -15.9,-13.9 c -1.2,-1.1 -1.3,-3 -0.3,-4.2 l 29.7,-33.9 -38.8,-33.9 -29.7,33.9 c -0.5,0.6 -1.4,1 -2.2,1 -0.7,0 -1.4,-0.3 -1.9,-0.7 L 1422,4873 c -1.2,-1 -1.3,-3 -0.3,-4.2 l 77.3,-88.3 c 1,-1.1 3.1,-1.2 4.2,-0.3 l 15.9,13.9 c 1.2,1.1 1.3,3 0.3,4.2 l -31,35.4 38.8,33.9 31,-35.4 c 1,-1.2 3,-1.4 4.2,-0.3 l 15.9,13.9 c 1.1,1.2 1.2,3.1 0.2,4.3"
   inkscape:connector-curvature="0"
   style="fill:#a79448" />
		<path
   id="path28"
   class="st3"
   d="m 1602.3,4922.5 -9.5,31.6 0.5,0.5 30.2,-13.5 z m 81.6,17.6 c -0.1,0.9 -0.8,1.7 -1.8,2.2 l -120.4,53.2 c -0.3,0.1 -0.7,0.2 -1.2,0.2 -0.7,0 -1.5,-0.2 -2,-0.7 l -1.3,-1.2 c -0.8,-0.7 -1.1,-2 -0.9,-3 l 36.8,-126.3 c 0.4,-1.3 1.4,-2.1 2.6,-2.1 0.7,0 1.4,0.3 2.1,0.8 l 14.7,12.9 c 2.8,2.5 2.4,5.4 1.9,7 l -4.6,15.1 36.7,32.1 14.3,-6.4 c 1.5,-0.7 2.6,-1 3.6,-1 1.2,0 2.3,0.5 3.6,1.7 l 14.8,12.9 c 0.9,0.7 1.3,1.7 1.1,2.6"
   inkscape:connector-curvature="0"
   style="fill:#a79448" />
		<path
   id="path30"
   class="st3"
   d="m 1759.3,5030.3 -20.1,2 c -0.1,0 -0.2,0 -0.3,0 -1.3,0 -2.7,-1.2 -2.9,-2.6 -1.1,-8.2 -5.8,-16.5 -12.4,-22.3 -6.5,-5.7 -14.4,-8.8 -22.9,-8.8 -10.4,0 -20.5,4.6 -27.6,12.7 -13.6,15.6 -12.7,37.7 2.1,50.7 0.1,0.1 0.2,0.1 0.3,0.2 0.4,0.3 0.8,0.7 1.2,1 0,0 0,0 0,0 0.3,0.3 0.7,0.5 1,0.8 6.2,4.6 13.9,7.2 21.7,7.2 1,-0.1 1.9,0.3 2.5,1 0.3,0.4 0.4,1 0.5,1.5 l 0.9,20.4 c 0.1,0.9 -0.2,1.7 -0.8,2.3 -0.5,0.6 -1.3,0.9 -2.2,0.9 -0.6,0 -1.1,0 -1.7,0 -16,0 -28.8,-4.9 -41.2,-15.8 -26.4,-23.1 -29.1,-63.3 -6,-89.7 12,-13.7 29.3,-21.6 47.5,-21.6 15.4,0 30.3,5.6 42.1,15.9 12.4,10.8 19.6,25 20.9,41 0.1,1.5 -1.2,3.1 -2.6,3.2"
   inkscape:connector-curvature="0"
   style="fill:#a79448" />
		<path
   id="path32"
   class="st3"
   d="m 1699.4,5070.5 h 0.2 c 0.1,0 0.1,0 0.1,0 0,0 -0.1,0 -0.3,0"
   inkscape:connector-curvature="0"
   style="fill:#a79448" />
		<path
   id="path34"
   class="st3"
   d="m 1867.2,5101.8 c -0.3,1.4 -1.5,2.4 -2.9,2.7 l -73.1,14.6 v 0.3 l -3,66.4 c -0.2,2.1 -2.1,3.4 -3.8,3.4 -0.9,0 -1.6,-0.3 -2.3,-0.9 l -16.8,-14.7 c -0.7,-0.6 -1.3,-2.2 -1.2,-3.2 l 2.8,-64 -31.4,35.9 c -0.7,0.8 -1.8,1.3 -2.9,1.3 -0.9,0 -1.8,-0.3 -2.5,-0.9 l -15.6,-13.7 c -1.6,-1.4 -1.8,-3.8 -0.4,-5.4 l 76.1,-87 c 0.7,-0.8 1.8,-1.3 2.9,-1.3 0.9,0 1.8,0.3 2.5,1 l 15.6,13.7 c 0.7,0.7 1.2,1.6 1.3,2.7 0.1,1 -0.3,2 -0.9,2.8 l -35.6,40.7 68.7,-15.2 c 0,0 0.1,0 0.2,0 0.7,0 2,0.5 2.7,1.1 l 18.4,16.1 c 1.1,0.8 1.6,2.2 1.2,3.6"
   inkscape:connector-curvature="0"
   style="fill:#a79448" />
		<path
   id="path36"
   class="st3"
   d="m 1944.1,5170 -12.7,14.5 c -1,1.2 -3,1.3 -4.2,0.3 l -37.3,-32.6 -16.3,18.6 30.7,26.9 c 1.2,1.1 1.3,3 0.3,4.2 l -12.7,14.5 c -0.5,0.6 -1.4,1 -2.3,1 -0.7,0 -1.4,-0.2 -1.9,-0.7 l -30.7,-26.9 -15,17.1 37.3,32.6 c 0.6,0.5 0.9,1.2 1,2 0,0.8 -0.2,1.6 -0.7,2.2 l -12.7,14.5 c -0.6,0.6 -1.4,1 -2.3,1 -0.7,0 -1.4,-0.3 -1.9,-0.7 l -55.2,-48.3 c -1.2,-1.1 -1.3,-3 -0.3,-4.2 l 77.3,-88.3 c 1,-1.2 3,-1.3 4.2,-0.3 l 55.2,48.3 c 0.6,0.5 1,1.3 1,2.1 -0.1,0.9 -0.3,1.7 -0.8,2.2"
   inkscape:connector-curvature="0"
   style="fill:#a79448" />
		<path
   id="path38"
   class="st3"
   d="m 2049.9,5260 -78.6,89.8 c -1,1.1 -3.1,1.2 -4.2,0.3 l -16,-14 c -1.2,-1.1 -1.4,-2.9 -0.3,-4.1 l 41.7,-47.7 -0.6,-0.4 h -0.2 l -97.9,4.6 -3.2,-2.9 c -1.2,-1 -1.4,-2.9 -0.4,-4 l 78.7,-89.6 c 0.5,-0.6 1.3,-1 2.3,-1 0.7,0 1.4,0.2 1.9,0.7 l 15.9,13.9 c 1.2,1.1 1.3,3 0.3,4.2 l -43.8,50.1 0.6,0.5 h 0.2 l 99.1,-6.8 c 0.4,0 1.7,0.5 2,0.8 l 2.1,1.9 c 0.6,0.5 1,1.3 1,2.1 0.1,0.4 -0.1,1.1 -0.6,1.6"
   inkscape:connector-curvature="0"
   style="fill:#a79448" />
		<path
   id="path40"
   class="st3"
   d="m 1531.1,4994.9 c -3.3,0 -6.4,-1.2 -8.9,-3.4 -5.6,-4.9 -6.1,-13.1 -1.2,-18.6 2.6,-2.9 6.3,-4.6 10.1,-4.6 3.2,0 6.2,1.2 8.6,3.2 2.7,2.3 4.3,5.6 4.5,9.2 0.2,3.6 -0.9,7 -3.3,9.7 -2.4,2.9 -6,4.5 -9.8,4.5"
   inkscape:connector-curvature="0"
   style="fill:#a79448" />
		<path
   id="path42"
   class="st3"
   d="m 1584.9,5028.9 c -2.5,2.8 -6.1,4.5 -9.9,4.5 -3.3,0 -6.4,-1.2 -8.9,-3.4 -5.6,-4.9 -6.1,-13.1 -1.2,-18.7 2.6,-2.9 6.3,-4.6 10.1,-4.6 3.2,0 6.2,1.2 8.6,3.2 2.7,2.3 4.3,5.6 4.5,9.2 0.3,3.7 -0.8,7.1 -3.2,9.8"
   inkscape:connector-curvature="0"
   style="fill:#a79448" />
		<path
   id="path44"
   class="st3"
   d="m 1520.8,5256 c 6.4,0 11.5,5 11.5,11.6 0,6.4 -6.4,11.1 -13,11.1 h -13.9 V 5256 Z m -1.7,36.7 c 6.5,0 11,5.1 11,11.5 0,6.4 -4.5,10.8 -11,10.8 h -13.6 v -22.3 z m -30.1,35 c 0,1.3 1,2.4 2.4,2.4 h 29.2 c 15.2,0 26.9,-10.2 26.9,-23.6 0,-9.8 -8,-17.5 -14,-20.3 6.8,-2.2 16.6,-9 16.6,-20.8 0,-14.3 -12.2,-24.6 -27.8,-24.6 h -30.8 c -1.4,0 -2.4,1.1 -2.4,2.4 v 84.5"
   inkscape:connector-curvature="0"
   style="fill:#a79448" />
		<path
   id="path46"
   class="st3"
   d="m 1568.2,5283.1 c 0,6.7 5.5,12.2 11.9,12.2 6.7,0 12.2,-5.5 12.2,-12.2 0,-6.4 -5.5,-11.9 -12.2,-11.9 -6.4,0.1 -11.9,5.5 -11.9,11.9"
   inkscape:connector-curvature="0"
   style="fill:#a79448" />
		<path
   id="path48"
   class="st3"
   d="m 1614.4,5327.7 c 0,1.7 0.7,2.5 2.5,2.5 h 12.4 c 1.7,0 2.5,-0.8 2.5,-2.5 v -35 l 32.1,36.2 c 0.5,0.6 1.3,1.3 2.4,1.3 h 14.5 c 2.4,0 3.1,-1.5 1.4,-3.4 l -34.4,-38.6 36.9,-43.9 c 1.3,-1.6 0.8,-3.3 -1.7,-3.3 h -15.6 c -1.3,0 -2,0.5 -2.3,0.9 l -33.3,41 v -39.5 c 0,-1.7 -0.8,-2.5 -2.5,-2.5 h -12.4 c -1.8,0 -2.5,0.8 -2.5,2.5 v 84.3"
   inkscape:connector-curvature="0"
   style="fill:#a79448" />
		<path
   id="path50"
   class="st3"
   d="m 2112.5,4876.3 c 5.4,-26.6 10.1,-49.7 12,-65.5 13.5,-114.3 -6.5,-140.3 -178.3,-232.1 -86,-45.9 -169.7,-106.4 -198.3,-127.6 -28.6,21.2 -112.3,81.7 -198.3,127.6 -47.7,25.5 -83.7,45.9 -110.6,64.6 l 664,580.2 c -11.6,-27.1 -21.6,-62.4 -21.7,-104 -0.1,-89 18,-178.1 31.2,-243.2 z m -741.2,-65.6 c 1.9,15.9 6.6,38.9 12,65.5 1.9,9.5 3.9,19.4 6,29.8 l 609.2,533.6 128.2,-160.2 -709.4,-619.9 c -49.6,41.2 -54.6,78.2 -46,151.2 z m -6.6,463.3 135.4,169.1 c 22.5,-10.5 77.6,-31.9 124.9,-39.9 61.5,-10.4 119.9,-10.8 122,-10.8 v 0 c 4,0 62.3,0.5 122.8,10.8 21.4,3.6 44.7,10 65.7,16.9 l -538.2,-471.5 c 9.3,52.3 17.3,111.6 17.2,170.9 -0.4,77.6 -35,133.2 -49.8,154.5 z m 800.3,2.3 -160.5,203.6 -9.7,-4.8 c -0.7,-0.4 -74.2,-36.2 -129.5,-45.6 -59.3,-10.1 -118.4,-10.4 -118.4,-10.4 v 0 c -4,0 -59.5,0.6 -117.4,10.4 -55.3,9.4 -128.1,45.3 -128.8,45.6 l -9.6,4.8 -160.4,-203.6 6.9,-8.3 c 0.5,-0.6 49.9,-61.9 50.1,-148.6 0.2,-86.2 -17.6,-173.8 -30.6,-237.8 -5.5,-27.2 -10.3,-50.8 -12.9,-67.7 -8.5,-56.8 -7.8,-105.1 21.8,-144.2 28.3,-37.3 83.2,-71.9 170.4,-118.5 103.6,-55.4 209,-139.5 211.4,-142.4 v 0 0 c 2.4,2.9 107.8,87 211.4,142.4 87.2,46.6 142.1,81.2 170.4,118.5 29.6,39.1 30.3,87.5 21.8,144.2 -2.5,16.9 -7.4,40.5 -12.9,67.7 -13,64 -30.8,151.6 -30.6,237.8 0.2,86.8 49.6,148.1 50.1,148.6 l 7,8.3"
   inkscape:connector-curvature="0"
   style="fill:#a79448" />
	</g>
</g>
</svg>