<?xml version="1.0" encoding="UTF-8" standalone="no"?>
<!-- Created with Inkscape (http://www.inkscape.org/) -->
<svg
   xmlns:dc="http://purl.org/dc/elements/1.1/"
   xmlns:cc="http://creativecommons.org/ns#"
   xmlns:rdf="http://www.w3.org/1999/02/22-rdf-syntax-ns#"
   xmlns:svg="http://www.w3.org/2000/svg"
   xmlns="http://www.w3.org/2000/svg"
   xmlns:sodipodi="http://sodipodi.sourceforge.net/DTD/sodipodi-0.dtd"
   xmlns:inkscape="http://www.inkscape.org/namespaces/inkscape"
   width="395.95978"
   height="395.94641"
   id="svg2"
   sodipodi:version="0.32"
   inkscape:version="0.46"
   version="1.0"
   sodipodi:docname="BSC Young Boys.svg"
   inkscape:output_extension="org.inkscape.output.svg.inkscape">
  <defs
     id="defs4">
    <inkscape:perspective
       id="perspective2549"
       inkscape:persp3d-origin="372.04724 : 350.78739 : 1"
       inkscape:vp_z="744.09448 : 526.18109 : 1"
       inkscape:vp_y="0 : 1000 : 0"
       inkscape:vp_x="0 : 526.18109 : 1"
       sodipodi:type="inkscape:persp3d" />
  </defs>
  <sodipodi:namedview
     id="base"
     pagecolor="#ffffff"
     bordercolor="#666666"
     borderopacity="1.0"
     inkscape:pageopacity="0.0"
     inkscape:pageshadow="2"
     inkscape:zoom="1"
     inkscape:cx="146.59546"
     inkscape:cy="242.75948"
     inkscape:document-units="px"
     inkscape:current-layer="layer1"
     showgrid="false"
     inkscape:window-width="1280"
     inkscape:window-height="726"
     inkscape:window-x="0"
     inkscape:window-y="24" />
  <metadata
     id="metadata7">
    <rdf:RDF>
      <cc:Work
         rdf:about="">
        <dc:format>image/svg+xml</dc:format>
        <dc:type
           rdf:resource="http://purl.org/dc/dcmitype/StillImage" />
      </cc:Work>
    </rdf:RDF>
  </metadata>
  <g
     inkscape:label="Calque 1"
     inkscape:groupmode="layer"
     id="layer1"
     transform="translate(1102.8474,-1341.3723)">
    <g
       id="g2555"
       transform="translate(-409,-42)">
      <path
         style="fill:#f3c62c"
         d="M -520.36676,1778.7324 C -528.22456,1777.662 -548.15092,1773.2377 -554.86676,1771.0723 C -585.49621,1761.1963 -610.25509,1746.4687 -633.16967,1724.4945 C -671.94941,1687.3062 -693.77041,1636.149 -693.84724,1582.2419 C -693.95632,1505.6985 -650.82407,1436.4682 -582.44954,1403.4408 C -461.42988,1344.9839 -319.22293,1420.0869 -299.37269,1552.9407 C -297.40805,1566.0897 -297.38905,1597.6933 -299.33802,1610.6228 C -312.43295,1697.4948 -380.82423,1765.6788 -467.17982,1777.9558 C -476.62165,1779.2981 -512.38073,1779.8202 -520.36676,1778.7324 z M -396.79826,1733.8472 C -384.99664,1730.385 -372.42144,1720.4156 -367.42939,1710.5643 C -361.56625,1698.9939 -360.33832,1682.6645 -364.44981,1670.9407 C -366.61784,1664.7586 -372.41365,1656.7549 -378.26285,1651.8656 L -382.68627,1648.168 L -376.79422,1642.7131 C -366.85967,1633.5154 -362.07865,1620.6203 -363.15955,1605.9384 C -364.6882,1585.1746 -378.59641,1568.4749 -401.8197,1559.5191 C -413.16127,1555.1453 -419.52835,1554.4566 -448.70009,1554.4483 C -465.07051,1554.4436 -474.90731,1554.0778 -474.70009,1553.4815 C -474.51676,1552.9539 -468.79553,1548.4539 -461.98624,1543.4815 L -449.60572,1534.4407 L -438.20349,1534.4407 L -426.80126,1534.4407 L -427.08401,1523.2158 L -427.36676,1511.9909 L -437.18486,1505.2158 L -447.00296,1498.4407 L -477.93486,1498.4407 L -508.86676,1498.4407 L -508.86554,1505.6907 C -508.86448,1511.9977 -508.53633,1513.3221 -506.34285,1515.8726 C -504.95605,1517.4852 -503.9441,1519.1472 -504.09407,1519.566 C -504.24405,1519.9847 -511.51902,1525.5155 -520.26067,1531.8567 L -536.15458,1543.386 L -541.01164,1539.3194 C -545.75579,1535.3474 -546.6149,1532.7511 -542.7826,1533.9674 C -541.01026,1534.5299 -540.86676,1534.0098 -540.86676,1527.0237 L -540.86676,1519.4719 L -550.51615,1508.9563 L -560.16553,1498.4407 L -582.26615,1498.4004 C -594.42148,1498.3782 -615.76139,1498.1125 -629.68815,1497.8099 C -643.61491,1497.5073 -656.10241,1497.534 -657.43815,1497.8693 C -659.75221,1498.4501 -659.86491,1498.8435 -659.82749,1506.2098 L -659.78821,1513.9407 L -650.54834,1523.6424 L -641.30848,1533.3442 L -634.18744,1533.6424 L -627.0664,1533.9407 L -605.49718,1553.4407 L -583.92797,1572.9407 L -583.89736,1591.1485 L -583.86676,1609.3563 L -590.61676,1609.3201 C -594.32926,1609.3001 -598.15426,1609.3191 -599.11676,1609.3623 C -600.62416,1609.4298 -600.86676,1610.5017 -600.86676,1617.0943 L -600.86676,1624.7478 L -589.68588,1636.0803 L -578.50501,1647.4127 L -547.43588,1647.6767 L -516.36676,1647.9407 L -516.36676,1671.4407 L -516.36676,1694.9407 L -524.11676,1695.2328 L -531.86676,1695.5248 L -531.86676,1703.8459 L -531.86676,1712.167 L -524.88255,1719.5538 C -521.04124,1723.6166 -516.20374,1728.8409 -514.13255,1731.1634 L -510.36676,1735.3862 L -456.29826,1735.4134 C -409.71178,1735.4369 -401.47815,1735.2202 -396.79826,1733.8472 z M -514.44218,1727.1907 C -529.78874,1711.2516 -529.86676,1711.1373 -529.86676,1704.5905 C -529.86676,1697.6373 -529.60329,1697.4407 -520.28497,1697.4407 L -513.86676,1697.4407 L -513.86676,1671.4407 L -513.86676,1645.4407 L -545.73337,1645.4407 L -577.59998,1645.4407 L -588.23337,1634.3939 L -598.86676,1623.3471 L -598.86676,1617.4329 L -598.86676,1611.5186 L -590.11676,1611.2296 L -581.36676,1610.9407 L -581.09573,1591.8518 L -580.8247,1572.7628 L -603.59573,1552.1226 L -626.36676,1531.4824 L -632.86676,1531.4462 C -636.44176,1531.4263 -639.81676,1531.0733 -640.36676,1530.6617 C -640.91676,1530.2501 -645.07926,1526.037 -649.61676,1521.2992 L -657.86676,1512.6851 L -657.86676,1506.5629 L -657.86676,1500.4407 L -609.61676,1500.4783 L -561.36676,1500.5159 L -552.11676,1510.6223 L -542.86676,1520.7288 L -542.86676,1526.0847 L -542.86676,1531.4407 L -547.61676,1531.4886 L -552.36676,1531.5365 L -544.86676,1538.4873 C -540.74176,1542.3102 -536.96984,1545.4386 -536.48471,1545.4394 C -535.60965,1545.4407 -521.35195,1535.4737 -508.86676,1526.1328 C -505.29176,1523.4581 -501.69176,1520.8859 -500.86676,1520.4169 C -499.64264,1519.7209 -500.06701,1518.8445 -503.17419,1515.6514 C -506.75624,1511.9704 -506.96342,1511.4192 -506.67419,1506.3397 L -506.36676,1500.9407 L -477.44007,1500.6751 L -448.51339,1500.4095 L -439.19007,1506.5572 L -429.86676,1512.705 L -429.86676,1522.5728 L -429.86676,1532.4407 L -440.31205,1532.4407 L -450.75734,1532.4407 L -467.00306,1544.1907 L -483.24878,1555.9407 L -449.30777,1556.5053 C -411.94707,1557.1268 -411.17249,1557.2399 -397.50698,1564.0681 C -387.96975,1568.8335 -382.90606,1572.4954 -377.34386,1578.6495 C -367.92042,1589.0756 -363.65633,1602.9132 -365.67525,1616.5159 C -367.51784,1628.9304 -373.33669,1638.1811 -384.23786,1646.0263 L -387.10897,1648.0926 L -381.91628,1651.9044 C -375.29433,1656.7653 -369.37312,1664.6081 -366.68358,1672.0805 C -363.74842,1680.2353 -363.73873,1694.6308 -366.66298,1702.6738 C -371.99326,1717.3345 -385.47915,1729.0906 -400.66598,1732.3154 C -404.19834,1733.0655 -423.04612,1733.4407 -457.19487,1733.4407 L -508.42454,1733.4407 L -514.44218,1727.1907 z M -435.09268,1678.9449 C -434.7908,1659.123 -434.98929,1658.4407 -441.05789,1658.4407 L -443.86676,1658.4407 L -443.86676,1677.9982 L -443.86676,1697.5557 L -439.61676,1697.2482 L -435.36676,1696.9407 L -435.09268,1678.9449 z M -441.86676,1678.4407 L -441.86676,1661.3016 L -439.61676,1661.6212 C -437.38725,1661.9378 -437.36676,1662.0909 -437.36676,1678.4407 C -437.36676,1694.7905 -437.38725,1694.9436 -439.61676,1695.2603 L -441.86676,1695.5798 L -441.86676,1678.4407 z M -435.96508,1625.0592 C -435.17555,1624.1078 -434.90387,1618.2764 -435.09264,1606.3323 L -435.36676,1588.9869 L -437.99975,1588.0619 C -443.70886,1586.0562 -443.86676,1586.5769 -443.86676,1607.4093 L -443.86676,1626.4407 L -440.4892,1626.4407 C -438.63155,1626.4407 -436.59569,1625.819 -435.96508,1625.0592 z M -441.86676,1607.5103 L -441.86676,1590.4407 L -439.34258,1590.4407 L -436.8184,1590.4407 L -437.09258,1607.1907 C -437.3629,1623.705 -437.39843,1623.9452 -439.61676,1624.2603 L -441.86676,1624.5798 L -441.86676,1607.5103 z"
         id="path2559" />
      <path
         style="fill:#0c0904"
         d="M -523.86676,1777.9032 C -587.43318,1768.2785 -641.66013,1729.7577 -671.30817,1673.1665 C -700.25931,1617.9055 -701.18044,1551.0211 -673.75774,1495.3011 C -663.65635,1474.7762 -653.73937,1460.6099 -637.97435,1444.185 C -582.8864,1386.7912 -498.0944,1368.1338 -423.86676,1397.0735 C -357.03236,1423.1306 -309.05325,1483.7139 -299.41003,1554.2251 C -297.39609,1568.951 -297.40531,1595.5449 -299.42913,1609.3124 C -306.02523,1654.1836 -326.48117,1693.8568 -359.08618,1725.0143 C -387.71728,1752.3742 -421.2978,1769.3221 -462.36676,1777.1394 C -473.84152,1779.3235 -511.40514,1779.7901 -523.86676,1777.9032 z M -476.72271,1776.3931 C -399.29804,1768.5609 -334.50649,1716.7092 -309.9667,1642.9407 C -287.58555,1575.6613 -303.87399,1500.5996 -352.06939,1448.9198 C -383.22162,1415.5153 -423.3916,1394.5215 -468.86676,1387.8784 C -485.99005,1385.377 -517.84187,1386.3223 -534.3994,1389.8233 C -604.26031,1404.5947 -659.72556,1454.16 -681.7428,1521.4934 C -688.32518,1541.6238 -691.09976,1559.6426 -691.0506,1581.9407 C -690.90418,1648.3532 -658.66776,1708.0127 -602.86676,1745.1411 C -566.16619,1769.5607 -520.65138,1780.8369 -476.72271,1776.3931 z M -514.2319,1764.3681 C -517.17947,1762.0496 -517.68503,1758.3647 -515.32438,1756.4055 C -514.25432,1755.5175 -514.1012,1754.8063 -514.82438,1754.0831 C -516.59262,1752.3148 -515.97941,1748.633 -513.64425,1746.9974 C -507.36512,1742.5993 -496.58962,1748.162 -501.30186,1753.369 C -502.74614,1754.9649 -502.75569,1755.288 -501.39199,1756.4198 C -499.09144,1758.3291 -499.48093,1763.0571 -502.08927,1764.884 C -505.24816,1767.0966 -511.07811,1766.8489 -514.2319,1764.3681 z M -505.80102,1762.4055 C -501.87519,1760.3045 -505.05791,1755.8934 -509.63591,1757.0906 C -512.40878,1757.8157 -513.14719,1760.0174 -511.25284,1761.9118 C -509.45278,1763.7118 -508.41713,1763.8056 -505.80102,1762.4055 z M -505.36676,1750.9407 C -505.36676,1749.6926 -506.11867,1748.8446 -507.36676,1748.685 C -510.20614,1748.3219 -512.27706,1749.9291 -511.51816,1751.9068 C -510.56319,1754.3954 -505.36676,1753.5793 -505.36676,1750.9407 z M -493.00598,1764.5268 C -496.14788,1761.9796 -494.67029,1760.7484 -490.34746,1762.3115 C -486.60336,1763.6654 -485.41486,1763.3334 -483.90466,1760.5115 C -483.01815,1758.8551 -483.31796,1758.7372 -487.2824,1759.1841 C -490.79238,1759.5797 -492.04203,1759.2654 -493.74988,1757.5576 C -496.74107,1754.5664 -496.51033,1750.0921 -493.2319,1747.5133 C -489.76933,1744.7896 -485.62175,1744.8872 -482.26885,1747.7713 C -480.08009,1749.654 -479.47021,1751.1774 -479.09526,1755.6989 C -478.68036,1760.702 -478.90407,1761.5689 -481.20348,1763.8683 C -484.34625,1767.0111 -489.58137,1767.3032 -493.00598,1764.5268 z M -485.02927,1755.5623 C -484.29365,1755.096 -483.84365,1753.6404 -484.02927,1752.3276 C -484.29617,1750.44 -484.97148,1749.9407 -487.25777,1749.9407 C -490.85688,1749.9407 -492.82901,1752.5763 -490.93633,1754.8569 C -489.49434,1756.5944 -487.10724,1756.8794 -485.02927,1755.5623 z M -529.02624,1763.9479 C -529.33532,1763.6388 -529.22047,1761.4858 -528.77103,1759.1633 C -527.35607,1751.8517 -527.60524,1749.5596 -529.7539,1750.1214 C -531.82416,1750.6628 -533.1302,1749.3957 -532.05078,1747.893 C -530.69854,1746.0104 -523.81789,1743.0893 -522.92421,1744.0183 C -521.45584,1745.5448 -525.07577,1763.8604 -526.91552,1764.213 C -527.76734,1764.3763 -528.71717,1764.257 -529.02624,1763.9479 z M -472.21177,1761.612 C -474.1544,1759.4654 -474.36054,1756.3345 -472.67051,1754.6445 C -471.74217,1753.7161 -471.87542,1753.1549 -473.26548,1752.1384 C -478.02595,1748.6575 -470.65641,1741.4494 -463.86261,1742.9416 C -460.20941,1743.744 -458.36568,1746.6359 -459.7994,1749.3148 C -460.57243,1750.7593 -460.35121,1751.5973 -458.83458,1752.9698 C -454.16317,1757.1974 -458.64227,1763.4407 -466.34663,1763.4407 C -469.15537,1763.4407 -471.10767,1762.832 -472.21177,1761.612 z M -462.39355,1758.8246 C -460.15554,1756.5866 -460.9671,1754.9961 -464.52895,1754.6396 C -467.87376,1754.3049 -470.43719,1756.5118 -469.51002,1758.928 C -468.74363,1760.9251 -464.43144,1760.8625 -462.39355,1758.8246 z M -464.18966,1748.8398 C -463.85178,1747.9593 -464.16259,1746.8759 -464.88036,1746.4323 C -467.13159,1745.041 -471.47749,1747.6435 -470.24176,1749.643 C -469.35356,1751.0801 -464.81839,1750.4782 -464.18966,1748.8398 z M -519.11676,1722.0254 C -524.47926,1716.4236 -528.86667,1711.413 -528.86656,1710.8906 C -528.86644,1710.3017 -506.91721,1709.9407 -471.11656,1709.9407 L -413.36676,1709.9407 L -406.64343,1706.7557 C -398.10987,1702.7132 -391.06334,1696.1329 -386.74916,1688.1777 C -383.41621,1682.0319 -383.36694,1681.758 -383.37906,1669.4407 C -383.39048,1657.8259 -383.58152,1656.5786 -386.0767,1651.8273 C -387.58201,1648.9609 -391.71976,1644.0036 -395.49277,1640.5464 L -402.22349,1634.3789 L -399.79513,1632.6839 C -391.66698,1627.0104 -384.32729,1614.1761 -383.23799,1603.7317 C -382.07105,1592.5429 -385.87919,1580.0519 -392.89253,1572.0641 C -396.93584,1567.4591 -404.60072,1562.6473 -411.62871,1560.3022 C -416.46596,1558.6881 -416.73881,1558.4841 -413.36676,1559.0024 C -400.40373,1560.9952 -382.7062,1571.5589 -374.80284,1582.0215 C -368.05554,1590.9537 -365.51688,1599.697 -366.0504,1612.1656 C -366.63787,1625.8947 -369.55466,1632.1407 -379.78573,1641.578 C -386.76949,1648.0199 -387.20919,1648.6548 -385.36676,1649.6364 C -384.26676,1650.2225 -380.3986,1653.6943 -376.77084,1657.3516 C -368.40742,1665.783 -365.7602,1672.066 -365.10233,1685.0462 C -364.11306,1704.5651 -372.86897,1719.3892 -390.5494,1728.1292 L -398.25974,1731.9407 L -453.81325,1732.0755 L -509.36676,1732.2103 L -519.11676,1722.0254 z M -528.64885,1726.8639 C -545.68559,1723.1322 -564.56207,1714.8126 -580.36676,1704.0697 C -590.43242,1697.2278 -609.03883,1679.224 -615.88297,1669.7037 C -629.97911,1650.0958 -639.57647,1626.5274 -642.97326,1603.1775 C -644.48196,1592.8065 -644.4749,1569.1457 -642.96037,1559.9407 C -641.35881,1550.2068 -637.84656,1536.1901 -636.63331,1534.6907 C -636.07702,1534.0032 -633.94685,1533.4407 -631.8996,1533.4407 C -628.46128,1533.4407 -626.48723,1534.9745 -606.02204,1553.5466 L -583.86676,1573.6526 L -583.86676,1591.0466 L -583.86676,1608.4407 L -592.36676,1608.4407 L -600.86676,1608.4407 L -600.86676,1616.533 L -600.86676,1624.6254 L -590.2161,1636.033 L -579.56544,1647.4407 L -553.4661,1647.4494 C -539.11146,1647.4542 -525.00426,1647.7419 -522.11676,1648.0887 L -516.86676,1648.7193 L -516.86676,1672.08 L -516.86676,1695.4407 L -524.36676,1695.4407 L -531.86676,1695.4407 L -531.86676,1704.2283 L -531.86676,1713.0159 L -526.78741,1717.9783 C -523.99376,1720.7076 -520.81312,1724.1782 -519.71931,1725.6907 L -517.73057,1728.4407 L -520.04867,1728.3403 C -521.32362,1728.2851 -525.1937,1727.6207 -528.64885,1726.8639 z M -528.75076,1700.7668 C -528.85935,1698.7318 -528.35589,1698.5722 -520.86441,1698.2668 C -516.46312,1698.0875 -512.86312,1698.2782 -512.86441,1698.6907 C -512.8657,1699.1032 -516.20876,1699.4407 -520.29344,1699.4407 C -526.52558,1699.4407 -527.79367,1699.7222 -528.17743,1701.1907 C -528.53325,1702.5523 -528.66051,1702.4582 -528.75076,1700.7668 z M -463.86676,1669.4407 L -463.86676,1639.4407 L -449.92346,1639.4407 C -436.64848,1639.4407 -435.90555,1639.5472 -434.42346,1641.6632 C -433.11097,1643.537 -432.86676,1647.9838 -432.86676,1670.0082 C -432.86676,1694.0453 -433.01275,1696.2629 -434.6955,1697.7857 C -436.20945,1699.1558 -438.87757,1699.4407 -450.1955,1699.4407 L -463.86676,1699.4407 L -463.86676,1669.4407 z M -435.43819,1696.8693 C -434.14188,1695.573 -433.86934,1692.5529 -433.8815,1679.6193 C -433.89917,1660.8239 -434.4599,1659.0828 -440.64015,1658.6332 L -444.86676,1658.3257 L -444.86676,1678.3832 L -444.86676,1698.4407 L -440.93819,1698.4407 C -438.70009,1698.4407 -436.33343,1697.7645 -435.43819,1696.8693 z M -441.20009,1694.774 C -441.56676,1694.4074 -441.86676,1686.7574 -441.86676,1677.774 C -441.86676,1662.4151 -441.75383,1661.4407 -439.97375,1661.4407 C -437.18978,1661.4407 -436.86676,1663.2081 -436.86676,1678.4407 C -436.86676,1686.0507 -437.1399,1692.9889 -437.47375,1693.8589 C -438.09753,1695.4845 -440.01802,1695.9561 -441.20009,1694.774 z M -375.52193,1654.1334 L -381.67711,1647.9407 L -375.93947,1642.4407 C -372.18567,1638.8424 -369.02019,1634.5283 -366.7843,1629.9634 C -363.42639,1623.1079 -363.36676,1622.7589 -363.36676,1609.9634 C -363.36676,1597.0687 -363.40213,1596.867 -366.9651,1589.4407 C -374.51413,1573.7063 -388.49297,1562.7279 -408.27993,1556.9939 C -416.45964,1554.6235 -418.11996,1554.5087 -445.85229,1554.3951 C -461.81025,1554.3297 -474.84884,1553.9757 -474.82693,1553.6085 C -474.80503,1553.2412 -469.08829,1548.8907 -462.12307,1543.9407 L -449.45904,1534.9407 L -440.4129,1534.7103 C -435.43752,1534.5836 -430.35426,1534.4711 -429.11676,1534.4603 C -426.91692,1534.4411 -426.86676,1534.188 -426.86676,1523.1059 L -426.86676,1511.771 L -437.53566,1504.6059 L -448.20456,1497.4407 L -478.53566,1497.4407 L -508.86676,1497.4407 L -508.86676,1505.7664 C -508.86676,1513.3264 -508.63969,1514.3054 -506.39758,1516.4118 C -505.03953,1517.6876 -504.13837,1519.0712 -504.395,1519.4864 C -505.15757,1520.7203 -535.60519,1542.4407 -536.57224,1542.4407 C -537.06099,1542.4407 -539.18106,1540.6791 -541.28353,1538.5259 C -545.00391,1534.7159 -545.04278,1534.6022 -542.73647,1534.2759 C -540.54227,1533.9655 -540.34471,1533.4344 -540.0691,1527.1042 C -539.73471,1519.4243 -539.04814,1520.5044 -554.6349,1504.1907 L -561.08413,1497.4407 L -589.47544,1497.4407 C -605.09067,1497.4407 -617.86676,1497.1815 -617.86676,1496.8647 C -617.86676,1495.4815 -607.73616,1483.311 -600.86631,1476.4412 C -541.4887,1417.0636 -444.41398,1418.6763 -387.04517,1479.9934 C -367.92316,1500.4315 -354.92759,1525.8627 -349.25758,1553.9407 C -346.49277,1567.632 -346.72165,1597.3598 -349.69835,1611.1899 C -352.64882,1624.8982 -358.51873,1641.2648 -364.26661,1651.8095 C -366.8543,1656.5566 -369.06043,1660.4149 -369.16913,1660.3834 C -369.27783,1660.3519 -372.13659,1657.5394 -375.52193,1654.1334 z M -501.30162,1479.3926 L -495.82187,1475.3445 L -490.05087,1479.3926 C -486.87682,1481.619 -483.98616,1483.4407 -483.62718,1483.4407 C -483.2682,1483.4407 -483.85024,1480.8953 -484.92062,1477.7842 C -485.991,1474.673 -486.86676,1471.3728 -486.86676,1470.4504 C -486.86676,1469.5279 -484.39176,1467.0685 -481.36676,1464.9851 C -478.34176,1462.9017 -475.86676,1460.8019 -475.86676,1460.3189 C -475.86676,1459.8359 -479.21581,1459.4407 -483.30909,1459.4407 L -490.75142,1459.4407 L -492.9891,1452.4929 C -494.21982,1448.6717 -495.5444,1445.7415 -495.9326,1445.9814 C -496.3208,1446.2213 -497.43158,1449.3478 -498.40101,1452.9292 L -500.1636,1459.4407 L -508.26518,1459.4723 L -516.36676,1459.5039 L -513.78316,1461.7223 C -512.36218,1462.9424 -509.52394,1465.2907 -507.47596,1466.9407 L -503.75237,1469.9407 L -505.80956,1475.8473 C -508.99872,1485.0038 -508.9496,1485.0425 -501.30162,1479.3926 z M -545.39815,1644.6915 L -577.42953,1644.4136 L -587.8726,1633.9348 L -598.31567,1623.4561 L -598.34122,1617.6984 L -598.36676,1611.9407 L -589.61676,1611.6518 L -580.86676,1611.3628 L -580.94169,1591.6518 L -581.01661,1571.9407 L -603.95161,1551.1907 L -626.88662,1530.4407 L -633.41919,1530.4407 L -639.95177,1530.4407 L -648.37109,1521.6907 C -656.74023,1512.9929 -656.7896,1512.9109 -656.65388,1507.9407 C -656.51816,1502.9704 -656.51507,1502.9659 -656.13455,1507.1907 L -655.75176,1511.4407 L -650.05926,1511.4614 C -644.37421,1511.4822 -644.35557,1511.4923 -635.81256,1519.2114 C -631.10776,1523.4625 -616.59526,1536.5471 -603.56256,1548.2883 L -579.86676,1569.6358 L -579.86676,1591.0383 L -579.86676,1612.4407 L -586.86676,1612.5657 C -590.71676,1612.6345 -594.31676,1612.8032 -594.86676,1612.9407 C -595.41676,1613.0782 -596.34263,1613.247 -596.92426,1613.3157 C -597.53715,1613.3882 -597.85247,1615.2275 -597.67426,1617.6907 L -597.36676,1621.9407 L -559.61676,1622.2027 L -521.86676,1622.4648 L -521.86676,1617.505 L -521.86676,1612.5452 L -526.9335,1612.243 L -532.00025,1611.9407 L -532.13698,1585.9244 C -532.21219,1571.6155 -531.96694,1559.4118 -531.59199,1558.8051 C -531.21703,1558.1984 -516.5429,1547.2933 -498.9828,1534.5714 L -467.05535,1511.4407 L -458.46106,1511.4407 L -449.86676,1511.4407 L -449.86676,1506.4407 L -449.86676,1501.4407 L -477.36676,1501.4407 L -504.86676,1501.4407 L -504.86676,1506.4032 L -504.86676,1511.3657 L -495.64292,1511.6532 L -486.41908,1511.9407 L -491.39292,1515.5138 C -494.12853,1517.479 -505.32035,1525.5335 -516.26362,1533.4127 C -533.94998,1546.1468 -536.37825,1547.6024 -538.12072,1546.5142 C -539.19885,1545.8409 -548.36084,1537.7864 -558.48069,1528.6153 L -576.88041,1511.9407 L -569.87359,1511.6469 L -562.86676,1511.3531 L -562.86676,1506.3776 L -562.86676,1501.4021 L -609.86702,1501.6714 C -635.71717,1501.8195 -656.86717,1501.5988 -656.86702,1501.181 C -656.86688,1500.7632 -635.41808,1500.5382 -609.20302,1500.681 L -561.53928,1500.9407 L -552.34158,1510.997 C -543.2479,1520.9395 -543.14515,1521.1091 -543.25532,1525.997 L -543.36676,1530.9407 L -548.11676,1531.2455 C -550.72926,1531.4131 -552.83755,1531.8631 -552.80185,1532.2455 C -552.72922,1533.0233 -538.21783,1545.7599 -536.83469,1546.2599 C -535.71031,1546.6663 -500.79822,1521.4257 -500.15067,1519.7382 C -499.88496,1519.0457 -501.06238,1517.3055 -502.76716,1515.8711 C -505.63977,1513.4539 -505.86676,1512.7934 -505.86676,1506.8518 L -505.86676,1500.4407 L -477.11676,1500.4973 L -448.36676,1500.5539 L -439.36676,1506.8842 L -430.36676,1513.2145 L -430.36676,1522.5776 L -430.36676,1531.9407 L -441.36676,1532.4407 L -452.36676,1532.9407 L -467.40978,1543.9407 C -475.68345,1549.9907 -482.65845,1555.3053 -482.90978,1555.751 C -483.16112,1556.1967 -470.76676,1556.5673 -455.36676,1556.5747 C -439.96676,1556.582 -425.11676,1556.9447 -422.36676,1557.3807 C -419.52268,1557.8317 -440.32728,1558.2311 -470.61676,1558.3071 L -523.86676,1558.4407 L -523.86676,1563.4407 L -523.86676,1568.4407 L -518.36676,1568.4407 L -512.86676,1568.4407 L -512.86676,1606.9407 C -512.86676,1628.1157 -512.97926,1645.3347 -513.11676,1645.2051 C -513.25426,1645.0754 -527.78088,1644.8443 -545.39815,1644.6915 z M -463.63186,1598.1907 L -463.36676,1568.9407 L -450.48829,1568.6599 C -440.17758,1568.435 -437.13698,1568.6889 -435.23829,1569.9329 L -432.86676,1571.4868 L -432.86676,1597.5295 C -432.86676,1623.9706 -433.3027,1627.4407 -436.62445,1627.4407 C -437.97835,1627.4407 -437.8726,1627.1331 -436.08927,1625.884 C -433.94192,1624.3799 -433.86676,1623.7567 -433.86676,1607.4554 C -433.86676,1588.2771 -434.27593,1587.0975 -440.74114,1587.6378 L -444.36676,1587.9407 L -444.36676,1607.6916 L -444.36676,1627.4424 L -454.13186,1627.4416 L -463.89697,1627.4407 L -463.63186,1598.1907 z M -441.64153,1607.1907 C -441.37958,1591.699 -441.27344,1590.9407 -439.36676,1590.9407 C -437.46008,1590.9407 -437.35394,1591.699 -437.09199,1607.1907 L -436.81722,1623.4407 L -439.36676,1623.4407 L -441.9163,1623.4407 L -441.64153,1607.1907 z M -641.36676,1483.3255 C -645.21676,1480.0247 -648.36676,1476.9064 -648.36676,1476.3958 C -648.36676,1474.9601 -639.67652,1464.4093 -637.56181,1463.2775 C -634.96154,1461.8859 -631.12894,1463.0393 -630.36602,1465.443 C -630.0173,1466.5417 -628.96244,1467.4407 -628.02188,1467.4407 C -624.73194,1467.4407 -621.86676,1470.3832 -621.86676,1473.7619 C -621.86676,1476.1245 -623.19613,1478.6126 -626.91216,1483.2052 C -629.68713,1486.6347 -632.49963,1489.4151 -633.16216,1489.3838 C -633.82469,1489.3524 -637.51676,1486.6262 -641.36676,1483.3255 z M -629.43007,1478.9348 C -627.95933,1477.0066 -627.03248,1474.9816 -627.3704,1474.4348 C -628.51007,1472.5908 -630.70767,1473.4226 -633.2381,1476.6559 C -635.09472,1479.0282 -635.47486,1480.208 -634.68813,1481.1559 C -633.09012,1483.0814 -632.35645,1482.7715 -629.43007,1478.9348 z M -635.8119,1473.3637 C -634.17368,1471.063 -633.90807,1469.9994 -634.75919,1469.1483 C -635.61031,1468.2972 -636.68204,1468.7944 -639.00676,1471.1192 C -642.02278,1474.1352 -642.18268,1476.4407 -639.37584,1476.4407 C -638.62075,1476.4407 -637.01698,1475.056 -635.8119,1473.3637 z M -363.47153,1486.54 C -369.23828,1483.0235 -372.57847,1474.6953 -369.9125,1470.4805 C -368.4631,1468.189 -364.71524,1471.9888 -365.4677,1474.9869 C -366.49669,1479.0867 -361.17496,1484.4156 -358.61158,1481.8522 C -358.2879,1481.5285 -359.3379,1479.1904 -360.94492,1476.6564 C -365.73674,1469.1005 -364.46153,1463.4407 -357.9673,1463.4407 C -355.29355,1463.4407 -349.43665,1468.6507 -347.87671,1472.4167 C -346.45486,1475.8493 -347.25715,1480.4407 -349.27882,1480.4407 C -350.91998,1480.4407 -352.23869,1477.7306 -351.97206,1474.9058 C -351.72233,1472.2598 -356.47752,1467.6515 -357.94414,1469.1181 C -358.67867,1469.8526 -358.07258,1471.6235 -355.9309,1475.0006 C -352.26486,1480.7814 -351.98656,1484.7108 -355.08927,1486.884 C -357.98617,1488.9131 -359.69486,1488.8429 -363.47153,1486.54 z M -619.74078,1466.0925 C -621.25875,1464.2635 -618.03164,1461.3233 -615.29237,1462.0397 C -611.74244,1462.968 -605.85425,1456.8025 -608.64409,1455.0783 C -609.07162,1454.8141 -611.86327,1456.1375 -614.84775,1458.0193 C -621.02539,1461.9144 -622.87136,1462.1981 -625.21177,1459.612 C -628.52033,1455.956 -626.19164,1448.829 -620.56821,1445.4002 C -617.09551,1443.2828 -612.37206,1442.8141 -611.33969,1444.4845 C -610.42987,1445.9566 -612.74348,1448.4407 -615.02439,1448.4407 C -617.88927,1448.4407 -621.86676,1451.4141 -621.86676,1453.5557 C -621.86676,1456.1918 -620.81721,1455.9451 -614.79663,1451.8935 C -608.7983,1447.8569 -606.41557,1447.8004 -603.56939,1451.627 C -601.81321,1453.9882 -601.72443,1454.6829 -602.83591,1457.3662 C -604.84946,1462.2274 -611.27204,1467.4407 -615.2472,1467.4407 C -617.10327,1467.4407 -619.12538,1466.834 -619.74078,1466.0925 z M -384.17296,1465.9916 C -386.35566,1463.8089 -386.36604,1463.8663 -383.01442,1459.5846 C -380.8295,1456.7933 -380.00999,1454.4387 -379.51209,1449.5217 C -379.15459,1445.9913 -378.6409,1442.8815 -378.37056,1442.6112 C -378.10021,1442.3408 -376.93029,1442.9782 -375.77073,1444.0276 C -374.05249,1445.5826 -373.75356,1446.744 -374.15494,1450.3051 L -374.64745,1454.6746 L -370.60735,1454.1327 C -366.71731,1453.611 -361.86676,1455.4604 -361.86676,1457.4654 C -361.86676,1457.9024 -365.05367,1458.7975 -368.94878,1459.4545 C -375.02517,1460.4795 -376.48863,1461.1487 -379.25498,1464.1673 C -382.28487,1467.4734 -382.58122,1467.5834 -384.17296,1465.9916 z M -401.36676,1452.5801 C -408.5005,1448.1737 -410.60766,1441.9936 -406.97851,1436.1215 C -402.88988,1429.506 -394.89769,1428.8406 -388.36967,1434.5723 C -379.71375,1442.1723 -383.4025,1454.4471 -394.33927,1454.437 C -396.55439,1454.4349 -399.71676,1453.5993 -401.36676,1452.5801 z M -391.32131,1446.9862 C -388.04968,1443.7145 -388.22737,1441.1565 -391.94349,1438.0296 C -395.77003,1434.8098 -397.30243,1434.7855 -400.41221,1437.8952 C -403.63531,1441.1183 -403.56627,1444.7453 -400.2319,1447.3681 C -396.77174,1450.0899 -394.31994,1449.9848 -391.32131,1446.9862 z M -600.13182,1448.1857 C -603.83479,1445.1792 -605.20924,1440.1764 -603.45971,1436.0726 C -600.22347,1428.4815 -590.33866,1424.0532 -585.30789,1427.9407 C -583.38834,1429.424 -583.38877,1429.4577 -585.3473,1430.9695 C -586.61074,1431.9448 -588.32984,1432.2783 -590.09523,1431.8905 C -592.30756,1431.4046 -593.47871,1431.8988 -595.93437,1434.3545 C -599.20699,1437.6271 -599.24908,1440.0971 -596.09349,1443.6907 C -592.74928,1447.4991 -584.86676,1443.983 -584.86676,1438.683 C -584.86676,1435.9791 -580.83641,1432.888 -579.68157,1434.7061 C -577.1855,1438.6358 -580.83971,1445.824 -586.93622,1448.9766 C -591.16822,1451.1651 -596.88432,1450.8225 -600.13182,1448.1857 z M -418.86676,1440.7245 C -421.84966,1439.9475 -433.86676,1434.0372 -433.86676,1433.3471 C -433.86676,1432.6314 -426.02273,1415.2633 -425.4333,1414.6739 C -424.93958,1414.1802 -413.70153,1419.4619 -410.61676,1421.6374 C -407.3721,1423.9257 -407.02929,1427.3728 -409.79726,1429.8778 C -410.90791,1430.8829 -411.69306,1432.8451 -411.64606,1434.4981 C -411.52048,1438.9149 -414.83648,1441.7743 -418.86676,1440.7245 z M -417.36676,1433.4349 C -417.36676,1432.6217 -419.11913,1431.1313 -421.26093,1430.1228 C -424.42295,1428.6339 -425.31312,1428.5385 -425.99561,1429.6149 C -427.28548,1431.6494 -427.1063,1431.9577 -423.61676,1433.7077 C -419.8068,1435.6183 -417.36676,1435.5118 -417.36676,1433.4349 z M -414.19005,1425.912 C -413.78154,1424.6848 -418.97229,1421.4407 -421.34438,1421.4407 C -423.8183,1421.4407 -422.80627,1424.6567 -419.8579,1426.1643 C -417.08585,1427.5818 -414.71069,1427.476 -414.19005,1425.912 z M -556.41779,1428.9728 C -557.21472,1427.0655 -557.86676,1425.1291 -557.86676,1424.6697 C -557.86676,1424.2103 -560.61999,1421.8928 -563.98505,1419.5197 C -568.52818,1416.3158 -569.75107,1414.9818 -568.73505,1414.3381 C -566.42752,1412.8763 -562.80975,1413.3404 -560.13963,1415.4407 C -556.66888,1418.1708 -556.19916,1418.0061 -555.18139,1413.7026 C -554.52996,1410.948 -553.58803,1409.715 -551.60157,1409.0164 C -550.11889,1408.495 -548.67265,1408.3015 -548.38771,1408.5864 C -548.10277,1408.8714 -548.94636,1412.1836 -550.26236,1415.9469 C -552.43481,1422.1593 -552.53113,1423.1405 -551.30868,1426.6053 C -550.07623,1430.0984 -550.12195,1430.5069 -551.84877,1431.4311 C -554.5989,1432.9029 -554.82696,1432.7802 -556.41779,1428.9728 z M -461.6544,1425.4739 C -465.94632,1423.5028 -469.39332,1418.3077 -468.44035,1415.2466 C -468.21675,1414.5284 -467.75914,1412.6892 -467.42345,1411.1597 C -466.19557,1405.565 -457.60233,1402.853 -450.50254,1405.8195 C -446.95724,1407.3008 -442.86676,1411.7817 -442.86676,1414.184 C -442.86676,1416.3532 -447.72587,1414.8848 -450.51837,1411.8716 C -453.13414,1409.0492 -457.91231,1408.6291 -460.29533,1411.0121 C -462.44512,1413.1619 -462.29826,1418.7402 -460.03802,1420.7857 C -458.95159,1421.7689 -456.5161,1422.4407 -454.03802,1422.4407 C -449.20897,1422.4407 -448.4812,1420.9039 -452.85529,1419.9432 C -456.30466,1419.1856 -457.05491,1418.3632 -455.9409,1416.5607 C -455.37806,1415.65 -453.84475,1415.4714 -450.67233,1415.9471 C -443.78371,1416.9802 -443.3688,1417.4642 -444.98716,1422.5798 L -446.36676,1426.9407 L -451.86676,1427.1919 C -455.65709,1427.365 -458.69957,1426.8309 -461.6544,1425.4739 z M -539.48382,1424.8574 C -543.10478,1423.0711 -544.86676,1419.7881 -544.86676,1414.8279 C -544.86676,1409.8544 -543.32415,1407.5516 -538.53608,1405.3776 C -531.90657,1402.3676 -527.2983,1402.8092 -523.26676,1406.8407 C -517.48642,1412.621 -518.92034,1420.836 -526.33628,1424.4259 C -531.28515,1426.8217 -535.23921,1426.9514 -539.48382,1424.8574 z M -528.08927,1419.884 C -523.49562,1416.6665 -526.37486,1408.4407 -532.09472,1408.4407 C -536.14291,1408.4407 -538.86676,1410.9852 -538.86676,1414.7669 C -538.86676,1420.6412 -533.08771,1423.385 -528.08927,1419.884 z M -513.85117,1420.6544 C -516.20444,1418.7488 -517.74979,1412.9013 -517.82321,1405.6243 C -517.86485,1401.4967 -517.74642,1401.3217 -515.11676,1401.6243 C -512.47341,1401.9284 -512.34737,1402.2057 -511.86676,1408.7722 C -511.48402,1414.0016 -510.91153,1415.9364 -509.42563,1417.0222 C -506.92772,1418.8476 -505.83697,1418.8086 -502.95626,1416.7908 C -500.74584,1415.2426 -500.63499,1414.6882 -501.15664,1407.7908 L -501.71253,1400.4407 L -498.93324,1400.4407 C -496.22341,1400.4407 -496.13786,1400.614 -495.50961,1407.3736 C -494.7884,1415.1335 -495.66346,1418.4845 -499.02615,1420.8398 C -502.22175,1423.0781 -510.99353,1422.9684 -513.85117,1420.6544 z M -482.00279,1415.1907 L -486.36676,1407.9407 L -487.27442,1414.6907 C -488.11977,1420.9773 -488.35331,1421.4407 -490.67639,1421.4407 L -493.17069,1421.4407 L -492.518,1410.7733 C -492.15902,1404.9062 -491.75009,1399.9907 -491.60926,1399.8499 C -491.46843,1399.709 -489.86484,1399.8982 -488.04574,1400.2703 C -485.33042,1400.8256 -483.96906,1402.1675 -480.44184,1407.7653 L -476.1454,1414.5839 L -475.50608,1411.3873 C -475.15445,1409.6292 -474.86676,1406.672 -474.86676,1404.8157 C -474.86676,1401.7989 -474.5743,1401.4407 -472.11121,1401.4407 L -469.35567,1401.4407 L -470.02414,1410.1907 C -470.3918,1415.0032 -470.73179,1419.7282 -470.77969,1420.6907 C -470.84462,1421.9957 -471.72784,1422.4407 -474.25279,1422.4407 C -477.3882,1422.4407 -477.96185,1421.9041 -482.00279,1415.1907 z"
         id="path2557" />
    </g>
  </g>
</svg>
