<?xml version="1.0" encoding="utf-8"?>
<!-- Generator: Adobe Illustrator 13.0.0, SVG Export Plug-In . SVG Version: 6.00 Build 14948)  -->
<!DOCTYPE svg PUBLIC "-//W3C//DTD SVG 1.0//EN" "http://www.w3.org/TR/2001/REC-SVG-20010904/DTD/svg10.dtd">
<svg version="1.0" id="Ebene_1" xmlns="http://www.w3.org/2000/svg" xmlns:xlink="http://www.w3.org/1999/xlink" x="0px" y="0px"
	 width="566px" height="566px" viewBox="0 0 566 566" enable-background="new 0 0 566 566" xml:space="preserve">
<path fill="#008A57" d="M282.998,0C439.293,0.006,565.994,126.7,566,283c-0.006,156.292-126.706,282.993-283.002,283
	C126.703,565.993,0.006,439.292,0,283C0.006,126.7,126.703,0.006,282.998,0z"/>
<path fill="#FFFFFF" d="M95.54,470.459c48.004,47.989,114.224,77.648,187.458,77.651c73.234-0.003,139.457-29.662,187.461-77.651
	c47.991-48.006,77.647-114.227,77.652-187.459c-0.005-73.236-29.661-139.458-77.652-187.462
	c-48.005-47.989-114.227-77.644-187.461-77.649c-73.234,0.005-139.454,29.66-187.459,77.649
	C47.549,143.542,17.894,209.763,17.889,283C17.894,356.232,47.549,422.453,95.54,470.459z"/>
<path fill="#008A57" d="M283,25.72C140.909,25.721,25.721,140.914,25.72,283C25.721,425.087,140.909,540.278,283,540.28
	C425.093,540.278,540.278,425.087,540.28,283C540.278,140.914,425.093,25.721,283,25.72z"/>
<path fill="#FFFFFF" d="M462.817,462.815C416.793,508.837,353.228,537.299,283,537.3c-70.227-0.001-133.793-28.463-179.817-74.485
	C57.163,416.791,28.701,353.225,28.7,283c0.001-70.226,28.462-133.792,74.483-179.816C149.208,57.162,212.772,28.7,283,28.7
	c70.228,0,133.792,28.462,179.816,74.484C508.838,149.209,537.298,212.775,537.3,283
	C537.298,353.225,508.838,416.791,462.817,462.815z"/>
<path fill="#008A57" d="M238.162,523.263l-5.377-1.09l7.016-34.637l-6.908,2.853l1.043-5.135c1.466-0.311,5.911-2.448,7.818-3.459
	l4.615,0.939L238.162,523.263z"/>
<path fill="#008A57" d="M267.831,504.962c6.012,1.091,7.167,5.973,6.73,11.324c-0.606,7.424-4.784,11.686-11.974,11.101
	c-7.186-0.592-10.62-5.481-10.006-12.906c0.437-5.344,2.369-9.973,8.475-10.067l0.007-0.065c-4.792-1.343-6.781-5.575-6.395-10.27
	c0.531-6.478,4.947-10.002,11.426-9.475c6.471,0.535,10.258,4.738,9.724,11.208c-0.383,4.695-3.03,8.544-7.98,9.093L267.831,504.962
	z M269.091,515.896c0.303-3.683,0.278-8.479-4.832-8.89c-5.109-0.412-5.915,4.297-6.218,7.987c-0.289,3.561,0.82,7.482,4.918,7.815
	C267.062,523.141,268.802,519.458,269.091,515.896 M270.369,495.191c0.249-3.091-1.094-6.319-4.601-6.601
	c-3.507-0.289-5.363,2.672-5.619,5.756c-0.246,3.034,0.397,7.576,4.496,7.908C268.748,502.594,270.124,498.217,270.369,495.191"/>
<path fill="#008A57" d="M298.715,504.927c6.11,0.267,7.916,4.947,8.205,10.313c0.404,7.439-3.163,12.242-10.364,12.625
	c-7.204,0.39-11.263-3.986-11.671-11.426c-0.289-5.366,1-10.211,7.042-11.136v-0.065c-4.94-0.687-7.479-4.608-7.735-9.316
	c-0.347-6.486,3.55-10.581,10.039-10.927c6.485-0.354,10.812,3.286,11.166,9.778c0.26,4.709-1.849,8.876-6.681,10.104V504.927z
	 M301.445,515.593c-0.203-3.69-0.875-8.428-6.002-8.153c-5.113,0.274-5.276,5.063-5.07,8.753c0.191,3.583,1.827,7.316,5.929,7.085
	C300.419,523.054,301.64,519.168,301.445,515.593 M299.906,494.895c-0.173-3.091-1.942-6.11-5.459-5.915
	c-3.51,0.188-4.955,3.373-4.785,6.471c0.163,3.041,1.419,7.446,5.528,7.223C299.3,502.449,300.065,497.929,299.906,494.895"/>
<path fill="#008A57" d="M329.416,500.644c6.074-0.585,8.515,3.799,9.547,9.056c1.43,7.316-1.43,12.559-8.507,13.938
	c-7.078,1.394-11.707-2.383-13.144-9.692c-1.026-5.265-0.419-10.248,5.431-11.996l-0.015-0.058
	c-4.976,0.007-8.038-3.532-8.941-8.154c-1.256-6.377,2.044-10.97,8.414-12.219c6.377-1.25,11.158,1.762,12.415,8.139
	c0.896,4.622-0.6,9.042-5.214,10.92L329.416,500.644z M333.59,510.819c-0.708-3.625-2.029-8.226-7.07-7.243
	c-5.026,0.982-4.514,5.749-3.806,9.374c0.686,3.51,2.824,6.977,6.861,6.189C333.604,518.345,334.276,514.322,333.59,510.819
	 M329.192,490.54c-0.592-3.047-2.773-5.777-6.218-5.099c-3.452,0.672-4.441,4.022-3.849,7.063c0.585,2.99,2.448,7.179,6.478,6.392
	C329.64,498.102,329.777,493.522,329.192,490.54"/>
<path fill="#008A57" d="M282.999,87.771C175.178,87.772,87.772,175.175,87.771,282.994
	c0.001,107.832,87.407,195.234,195.228,195.235c107.819-0.001,195.23-87.404,195.23-195.235
	C478.229,175.175,390.818,87.772,282.999,87.771z"/>
<path fill="#FFFFFF" d="M418.939,418.941c-34.795,34.793-82.85,56.308-135.941,56.309c-53.092-0.001-101.144-21.516-135.939-56.309
	c-34.793-34.796-56.308-82.85-56.309-135.947c0.001-53.091,21.515-101.143,56.309-135.936
	c34.795-34.792,82.847-56.306,135.939-56.307c53.091,0.001,101.146,21.515,135.941,56.307
	c34.792,34.793,56.31,82.845,56.311,135.936C475.249,336.091,453.731,384.145,418.939,418.941z"/>
<path fill="#008A57" d="M283,98.842C181.29,98.844,98.846,181.289,98.842,283C98.846,384.71,181.29,467.156,283,467.158
	C384.711,467.156,467.155,384.71,467.158,283C467.155,181.29,384.711,98.844,283,98.842z"/>
<path fill="#FFFFFF" d="M406.898,406.898C375.176,438.612,331.4,458.215,283,458.217c-48.4-0.002-92.176-19.605-123.898-51.319
	C127.387,375.176,107.784,331.4,107.783,283c0.001-48.4,19.604-92.176,51.319-123.898C190.824,127.387,234.6,107.785,283,107.783
	c48.4,0.002,92.175,19.604,123.897,51.319c31.716,31.723,51.318,75.499,51.32,123.898
	C458.216,331.4,438.614,375.176,406.898,406.898z"/>
<path fill="#008A57" d="M428.641,303.172c-21.76-17.593-55.756-8.349-79.299,0.592c-8.948,2.39-21.471,8.348-28.325-1.488
	c-2.694-4.47-2.095-9.244-0.6-14.011c3.279-7.75,10.436-8.349,17.593-9.237c31.004,4.759,69.462,8.045,90.334-16.994
	c9.541-11.331,12.819-28.029,9.541-42.942c-4.175-15.498-19.976-26.534-32.204-33.979c-18.777-6.262-21.76-29.221-38.162-39.656
	c-16.091-10.14-38.162-11.036-54.557-1.191c-24.451,16.994-14.313,49.492-14.018,75.13c-0.296,10.133,1.198,22.359-5.958,30.109
	c-2.687,1.792-5.962-0.296-6.857-2.68c-11.327-25.941,2.687-62.311-14.014-85.862c-5.367-11.924-11.928-23.559-23.26-31.604
	c-21.764-6.557-42.032,7.454-53.956,22.663c-13.12,29.805-59.63,23.847-66.787,59.921c-2.982,14.307,0,29.22,9.843,39.353
	c27.422,29.22,71.254,6.86,106.729,12.818c2.982,1.488,7.457,5.07,6.562,9.541c-0.601,5.069-3.579,8.645-7.161,11.331
	c-34.284,18.777-81.69-16.098-107.328,17.29c-7.154,9.54-11.332,21.471-8.645,33.683c2.979,24.158,31.009,31.012,44.127,47.709
	c6.554,11.331,14.007,24.75,22.66,32.795c13.711,11.924,34.583,17.593,53.064,11.924c24.744-17.297,16.401-57.834,11.328-83.184
	c-1.484-4.463-0.296-9.83,2.979-12.516c3.885-2.383,9.547-2.687,11.931,2.087c5.066,21.464,0,45.318-2.087,66.775
	c-3.875,12.53-5.959,28.325-18.186,35.193c11.924,1.48,25.938,2.08,36.97,1.784c-8.646-31.3-2.388-67.375-1.188-99.874
	c1.78-2.982,4.171-7.453,8.634-4.767c5.077,2.376,5.677,7.446,5.973,12.213c-2.391,19.976-9.541,42.04-2.087,61.72
	c7.453,17.296,25.935,24.743,44.417,23.551c17.592,0.896,28.029-11.332,36.082-25.639c12.819-20.871,41.144-21.767,53.067-45.614
	C441.46,343.124,444.739,315.998,428.641,303.172z"/>
<path fill="#FFFFFF" d="M429.833,327.915c-30.116,3.286-59.337,11.332-85.864,24.158c-2.08-1.791-6.262-4.182-8.053-7.453
	c28.924-12.227,58.441-22.663,91.83-24.158L429.833,327.915z"/>
<path fill="#FFFFFF" d="M424.474,313.903c-32.21,3.886-63.512,12.531-92.429,25.942l-6.86-7.158
	c19.376-8.645,41.447-13.714,62.319-19.673l28.326-6.557C419.101,307.945,421.788,311.816,424.474,313.903z"/>
<path fill="#FFFFFF" d="M341.289,314.503c21.464-5.373,42.337-18.185,65.592-12.227c-28.03,5.669-57.539,15.513-85.864,24.454
	c-4.182-4.478-6.861-9.54-9.245-14.914C321.913,310.329,330.558,319.27,341.289,314.503z"/>
<path fill="#FFFFFF" d="M329.958,271.575c1.791-2.687,6.254-5.373,9.237-8.06c18.192,5.077,38.168,5.669,57.849,7.46
	C378.259,285.579,352.613,270.68,329.958,271.575z"/>
<path fill="#FFFFFF" d="M405.682,267.394c-12.516-3.279-26.831-2.383-39.65-5.063l-20.576-3.582l5.07-4.478
	c20.568,3.885,42.936,3.582,64.704,5.077C413.135,263.219,409.257,264.411,405.682,267.394z"/>
<path fill="#FFFFFF" d="M421.188,254.271c-22.064-0.592-43.824-2.376-64.992-5.358c6.254-9.844,19.081-0.896,28.615-3.583
	c16.104,1.191,30.419-2.08,45.622-3.271C428.937,246.825,425.066,251,421.188,254.271z"/>
<path fill="#FFFFFF" d="M432.519,235.191c-20.872,3.878-44.126,5.669-65.888,3.582c1.191-11.923,15.5-3.871,22.953-6.854
	c14.61-1.495,26.831-3.582,40.848-6.558C431.927,228.337,431.927,231.919,432.519,235.191z"/>
<path fill="#FFFFFF" d="M428.345,219.396c-16.698,4.774-34.586,6.558-52.772,7.15l4.767-9.244c14.617,0,30.116,0.303,42.935-4.767
	C425.955,213.431,427.146,217.006,428.345,219.396z"/>
<path fill="#FFFFFF" d="M388.097,181.827l16.4,11.332c-4.78,2.687-10.436,3.878-16.4,3.279V181.827z"/>
<path fill="#FFFFFF" d="M408.96,197.037c4.774,2.08,8.054,5.958,11.332,10.725c-11.332,3.582-24.144,4.182-36.667,3.286l2.68-7.75
	C394.062,202.099,403.002,202.402,408.96,197.037z"/>
<path fill="#FFFFFF" d="M366.032,154.997c12.819,6.565,3.879,22.959,9.541,32.796c-1.792,4.47-3.583,9.843-6.854,12.522
	C362.753,186.601,366.032,170.503,366.032,154.997z"/>
<path fill="#FFFFFF" d="M350.526,147.544l9.541,3.278c0,18.192-3.279,39.057,4.773,54.859c0,3.575-3.574,6.558-5.365,8.948
	C351.725,194.95,350.23,171.391,350.526,147.544z"/>
<path fill="#FFFFFF" d="M337.411,145.457l7.149,0.592c0,26.237,1.495,51.883,10.14,74.539c-2.976,3.279-4.47,6.262-8.052,8.045
	C334.725,204.49,335.916,173.782,337.411,145.457z"/>
<path fill="#FFFFFF" d="M331.149,145.457c-1.191,29.516-2.087,62.009,11.332,87.062c-1.192,2.672-5.374,6.854-8.652,8.341
	c-9.244-15.794-11.029-35.474-12.516-55.154l-0.896-36.074C323.696,147.248,326.976,145.753,331.149,145.457z"/>
<path fill="#FFFFFF" d="M313.859,156.189c1.784,30.708,1.784,63.503,14.611,89.741l-7.157,4.175
	c-7.454-11.931-15.506-24.446-14.314-40.249C303.72,192.263,300.441,169.607,313.859,156.189z"/>
<path fill="#FFFFFF" d="M315.939,253.391l-11.027,6.254c-0.593-6.254,2.687-13.123,2.976-20.272L315.939,253.391z"/>
<path fill="#FFFFFF" d="M274.845,213.169l0.549,27.395C263.173,234.181,274.23,222.881,274.845,213.169z"/>
<path fill="#FFFFFF" d="M262.272,163.043c4.781,9.244,7.161,19.384,9.844,29.22c-3.579,10.732-3.579,22.958-6.559,34.283
	l-7.456-7.453L262.272,163.043z"/>
<path fill="#FFFFFF" d="M256.913,153.502c-2.087,18.488-1.791,38.761-4.17,58.441l-8.656-8.053
	c0.6-23.255-0.589-44.719-0.892-67.078C250.055,139.196,254.522,147.544,256.913,153.502z"/>
<path fill="#FFFFFF" d="M236.041,135.917c2.383,19.976,2.383,41.144,2.087,62.015c-2.384-1.495-6.857-4.174-8.045-7.46
	c0.296-17.29-1.495-35.179-2.991-52.468C229.779,136.509,233.062,136.213,236.041,135.917z"/>
<path fill="#FFFFFF" d="M221.134,140.091c1.492,15.498,3.283,32.195,3.283,47.109l-8.057-4.182l-3.874-38.753
	C214.573,142.178,218.151,141.283,221.134,140.091z"/>
<path fill="#FFFFFF" d="M206.528,148.736c2.083,9.245,2.683,20.279,3.874,30.412c-13.414,2.68-8.052-11.627-12.519-18.784
	L206.528,148.736z"/>
<path fill="#FFFFFF" d="M193.702,168.416c0.6,2.376,0.896,4.766,1.198,7.149h-6.558L193.702,168.416z"/>
<path fill="#FFFFFF" d="M176.411,184.218l-27.726,11.627C156.438,188.688,167.167,188.096,176.411,184.218z"/>
<path fill="#FFFFFF" d="M145.403,204.49c13.12-6.558,26.238-13.123,40.845-16.697c3.283,0,5.97,1.784,8.054,3.278
	c-18.786,8.045-37.567,15.506-55.46,25.638C137.957,212.535,139.737,205.682,145.403,204.49z"/>
<path fill="#FFFFFF" d="M137.957,224.762c19.67-13.115,41.437-21.167,63.201-29.517c3.579,1.495,5.666,2.976,8.645,5.366
	c-24.451,9.541-48.301,21.768-70.361,36.674C137.654,233.71,137.957,228.633,137.957,224.762z"/>
<path fill="#FFFFFF" d="M142.127,243.546c20.869-17,47.1-28.917,73.045-37.562c3.274,0.889,7.149,4.767,9.244,7.75
	c-28.628,4.463-54.859,17.585-76.927,35.179L142.127,243.546z"/>
<path fill="#FFFFFF" d="M151.963,253.391c22.957-18.489,48.003-30.716,77.816-34.298c3.282,0.896,4.771,3.878,7.453,6.861
	c-25.935,4.773-49.49,16.401-69.17,33.395C162.396,257.854,156.438,256.958,151.963,253.391z"/>
<path fill="#FFFFFF" d="M176.114,260.244c18.187-14.018,40.846-26.534,66.488-27.726l6.254,8.045v0.896
	c-18.477,1.495-35.771,8.045-50.385,18.185L176.114,260.244z"/>
<path fill="#FFFFFF" d="M213.98,257.558c11.332-7.157,26.23-10.732,40.246-8.948l5.37,10.14v0.896
	C245.582,255.167,229.483,256.366,213.98,257.558z"/>
<path fill="#FFFFFF" d="M233.357,297.214c-3.578,1.791-5.666,8.045-9.54,4.463l-4.475-3.271
	C223.817,297.214,229.188,298.405,233.357,297.214z"/>
<path fill="#FFFFFF" d="M202.946,296.911c2.39,6.854,12.826,3.871,17.589,9.547h0.599c-6.258,11.332-18.188-2.391-28.021-1.495
	c-13.124-2.383-26.242-4.478-40.257-4.478C166.574,291.241,186.847,293.032,202.946,296.911z"/>
<path fill="#FFFFFF" d="M144.211,306.458c22.956-0.896,45.615,2.376,66.19,9.54c0.296,1.792-1.791,2.672-2.687,3.871
	c-21.764-3.871-46.802-6.262-69.166-2.08C138.549,313.312,141.832,309.13,144.211,306.458z"/>
<path fill="#FFFFFF" d="M137.957,329.409c-2.094-8.052,8.342-6.557,13.415-7.453c16.987-1.495,34.284,0.296,50.386,2.679
	c0.593,2.094-2.391,4.773-4.178,6.564C178.498,328.218,157.331,327.618,137.957,329.409z"/>
<path fill="#FFFFFF" d="M138.841,335.959c17.301-2.376,37.57-2.672,54.271,0.6c-0.896,9.541-8.353,2.983-14.319,3.583
	c-13.111-1.488-26.531-0.296-37.266,5.358C140.041,342.828,138.549,339.846,138.841,335.959z"/>
<path fill="#FFFFFF" d="M178.794,378.302c-1.784,0.304-3.874-3.278-5.362-4.174c1.191-1.784,2.979-1.192,4.771-2.08
	C180.581,373.529,178.202,376.215,178.794,378.302z"/>
<path fill="#FFFFFF" d="M168.358,370.25c-3.571-1.488-4.171-4.47-8.045-5.965c5.665-2.672,12.223-3.568,19.383-2.975
	C183.268,369.658,170.745,364.285,168.358,370.25z"/>
<path fill="#FFFFFF" d="M154.647,360.117l-9.244-8.645c10.739-7.149,27.133-6.854,40.253-4.174c1.191,2.983-2.388,5.07-2.684,8.045
	C173.432,354.751,162.7,355.344,154.647,360.117z"/>
<path fill="#FFFFFF" d="M201.158,409.011c-4.474-3.279-6.561-6.861-8.645-11.332c1.491-6.846,2.084-16.091-0.296-22.655l4.771-9.541
	C202.35,377.703,202.053,394.104,201.158,409.011z"/>
<path fill="#FFFFFF" d="M213.085,418.551c-13.421-2.982-1.492-16.697-5.969-25.638c0-12.516-1.188-22.952-5.358-33.987l5.958-8.349
	C214.277,370.85,215.173,396.791,213.085,418.551z"/>
<path fill="#FFFFFF" d="M230.671,422.422c-3.875,1.199-8.045,0-11.624-1.185c1.791-22.958,1.791-53.067-6.561-75.737l5.369-6.847
	l2.087,2.088C225.604,367.268,231.87,393.209,230.671,422.422z"/>
<path fill="#FFFFFF" d="M236.64,420.638c-0.303-30.405-4.178-59.921-13.422-86.751l5.97-5.972
	c9.236,28.021,12.815,58.441,15.499,89.149C242.299,418.847,239.915,421.237,236.64,420.638z"/>
<path fill="#FFFFFF" d="M250.647,410.499c-4.77-28.614-7.452-59.322-16.097-86.751l8.052-6.558
	c5.666,9.244,5.666,18.77,6.854,30.108C252.743,367.268,262.871,391.418,250.647,410.499z"/>
<path fill="#FFFFFF" d="M252.143,325.235c0.6-5.07-8.35-10.732-0.6-14.019c2.387-1.784,5.369-2.672,8.053-3.575
	C260.492,314.799,256.913,321.357,252.143,325.235z"/>
<path fill="#FFFFFF" d="M313.859,409.011c-16.401-16.697-0.599-39.05-0.896-58.434l2.976,2.983
	C312.963,372.344,315.339,390.833,313.859,409.011z"/>
<path fill="#FFFFFF" d="M320.417,415.872c0.296-20.279-0.896-36.674,0.896-56.946l8.645,8.045
	c-0.896,18.489-0.6,37.273,1.791,54.858C326.976,422.126,324.296,418.255,320.417,415.872z"/>
<path fill="#FFFFFF" d="M337.411,424.516c-2.088-16.993-2.088-34.882-2.088-52.468c3.279,2.376,8.646,3.271,10.133,7.453
	c0.304,15.195,1.495,29.813,5.07,43.52C346.056,423.621,341.586,426.004,337.411,424.516z"/>
<path fill="#FFFFFF" d="M355.892,420.342c-3.871-11.923-4.167-25.941-3.871-38.753l11.917,5.359
	c-0.289,7.749-0.593,15.801,4.182,21.471C365.433,412.585,361.266,418.847,355.892,420.342z"/>
<path fill="#FFFFFF" d="M372.293,403.045c-3.278-2.39-2.383-10.436-2.68-14.906l13.413,0.303L372.293,403.045z"/>
<path fill="#FFFFFF" d="M308.486,338.653c-9.54-13.714-19.669-27.437-27.429-43.527c-44.12,10.732-79.602,47.398-96.893,87.646
	c-4.468-29.813,16.994-50.684,36.371-69.758c15.506-13.122,32.795-24.15,50.393-32.795c-9.844-42.935-47.406-82.584-87.956-99.289
	c20.87-4.167,38.759,9.541,53.668,21.471l22.957,24.743c10.436,13.122,19.081,27.126,26.534,42.335
	c38.166-7.15,66.188-35.475,86.755-66.486c3.287-7.15,8.35-13.418,9.845-21.168c3.278,11.627-1.199,24.75-6.558,34.882
	c-17.594,30.412-49.796,53.371-79.314,68.87c12.523,45.917,46.807,80.201,88.552,98.09
	C351.126,388.442,328.167,359.814,308.486,338.653z"/>
<path fill="#FFFFFF" d="M396.148,381.588c-5.373-0.903-10.738-1.798-15.217-4.182c10.739-9.237,25.949-11.627,40.256-14.01
	C414.334,370.85,404.793,376.511,396.148,381.588z"/>
<path fill="#FFFFFF" d="M425.955,356.832c-18.186,1.798-36.97,5.973-51.277,17.297c-3.879-1.488-7.75-3.575-10.739-6.558
	c19.984-10.436,42.047-16.098,65.303-19.377C429.241,351.769,427.746,354.159,425.955,356.832z"/>
<path fill="#FFFFFF" d="M430.432,342.525c-25.639,3.279-50.092,8.948-71.854,21.464c-2.982-2.08-8.348-4.767-9.237-8.053
	c25.04-11.917,52.166-18.481,81.09-21.457V342.525z"/>
<path fill="#008A57" d="M133.143,459.572c9.583,8.002,4.882,10.146,8.869,13.519c2.275,1.922,5.951-3.083,7.89-5.105
	c1.946-2.008,9.053-3.85,15.073,1.155c9.739,8.096,6.684,29.12,7.417,29.777c0.733,0.657,2.715-0.477,7.453-3.287
	c8.876-5.265,21.136-3.864,32.644-2.549c-0.397-4.463-6.167-7.829-9.338-7.799c-3.174,0.021-12.242-0.347-18.846-1.733
	c-4.539-8.58-4.85-19.254-11.389-24.504c-7.41-5.943-14.433,0.722-19.546-3.611c-6.684-5.677,0.599-12.068-3.687-15.65
	c-4.29-3.589-9.291,4.723-16.058-0.852c-5.175-4.261,0.133-12.35-7.038-18.59c-6.333-5.503-16.886-3.907-26.137-6.846
	c-2.546-6.254-4.503-15.108-5.052-18.236c-0.545-3.127-4.878-8.204-9.349-7.807c3.351,11.093,6.9,22.908,3.308,32.585
	c-1.921,5.157-2.683,7.316-1.907,7.922c0.776,0.593,20.911-6.153,30.614,1.994c5.998,5.034,5.46,12.35,3.817,14.617
	c-1.643,2.275-5.916,6.782-3.615,8.681C122.296,456.575,123.567,451.57,133.143,459.572"/>
<path fill="#008A57" d="M432.853,459.572c-9.583,8.002-4.882,10.146-8.869,13.519c-2.275,1.922-5.951-3.083-7.89-5.105
	c-1.946-2.008-9.053-3.85-15.073,1.155c-9.739,8.096-6.684,29.12-7.417,29.777c-0.733,0.657-2.715-0.477-7.453-3.287
	c-8.876-5.265-21.136-3.864-32.644-2.549c0.397-4.463,6.167-7.829,9.338-7.799c3.174,0.021,12.242-0.347,18.847-1.733
	c4.539-8.58,4.849-19.254,11.389-24.504c7.41-5.943,14.433,0.722,19.546-3.611c6.684-5.677-0.599-12.068,3.687-15.65
	c4.29-3.589,9.291,4.723,16.058-0.852c5.175-4.261-0.133-12.35,7.038-18.59c6.334-5.503,16.886-3.907,26.137-6.846
	c2.546-6.254,4.503-15.108,5.052-18.236c0.545-3.127,4.878-8.204,9.349-7.807c-3.351,11.093-6.9,22.908-3.308,32.585
	c1.921,5.157,2.683,7.316,1.907,7.922c-0.776,0.593-20.911-6.153-30.614,1.994c-5.999,5.034-5.46,12.35-3.818,14.617
	c1.643,2.275,5.916,6.782,3.616,8.681C443.7,456.575,442.429,451.57,432.853,459.572"/>
<polygon fill="#008A57" points="36.968,260.706 41.738,260.858 41.362,272.182 79.624,273.439 79.447,278.92 41.185,277.664 
	40.813,288.995 36.043,288.836 "/>
<polygon fill="#008A57" points="80.556,257.709 38.246,249.736 39.268,244.341 57.55,247.786 60.345,232.966 42.063,229.515 
	43.084,224.119 85.384,232.1 84.373,237.495 65.032,233.848 62.237,248.675 81.57,252.322 "/>
<polygon fill="#008A57" points="87.807,224.119 47.273,209.668 54.719,188.782 59.215,190.385 53.61,206.101 66.632,210.744 
	71.832,196.148 76.327,197.751 71.124,212.348 85.16,217.353 90.883,201.298 95.372,202.901 "/>
<path fill="#008A57" d="M86.771,153.885c-2.047-1.329-4.225-2.462-5.991-2.217c-1.758,0.253-3.506,2.181-4.105,3.148
	c-2.373,3.857-0.975,6.818-0.56,7.28c0.311,0.405,0.664,1.885,6.958,5.763l9.8,6.023c8.984,5.532,11.858,3.25,14.079-0.361
	c0.881-1.423,3.026-6.052-4.099-10.501l2.968-4.832c11.7,6.926,6.669,15.101,5.196,17.484c-2.81,4.572-7.432,11.39-21.644,2.643
	l-10.353-6.377c-10.363-6.376-10.494-12.761-6.059-19.969c4.474-7.258,9.948-7.734,16.773-2.903L86.771,153.885z"/>
<polygon fill="#008A57" points="120.544,159.887 87.568,132.197 101.832,115.204 105.486,118.273 94.747,131.071 105.345,139.969 
	115.315,128.088 118.967,131.157 109,143.031 120.418,152.621 131.385,139.55 135.039,142.619 "/>
<polygon fill="#008A57" points="139.296,138.56 110.227,106.833 114.271,103.129 140.12,131.345 151.765,120.671 154.982,124.188 
	"/>
<polygon fill="#008A57" points="147.479,76.443 150.32,80.278 141.231,87.016 164.039,117.746 159.637,121.018 136.823,90.288 
	127.734,97.041 124.896,93.22 "/>
<rect x="166.573" y="67.138" transform="matrix(0.8627 -0.5058 0.5058 0.8627 -21.5944 97.8123)" fill="#008A57" width="5.484" height="43.064"/>
<path fill="#008A57" d="M195.307,65.054c-0.932-2.268-2.077-4.435-3.659-5.229c-1.592-0.801-4.134-0.209-5.171,0.253
	c-4.149,1.82-4.68,5.048-4.607,5.669c0.028,0.506-0.524,1.922,2.448,8.688l4.629,10.53c4.247,9.67,7.916,9.425,11.79,7.728
	c1.531-0.68,5.929-3.258,2.604-10.978l5.182-2.282c5.687,12.357-3.105,16.214-5.666,17.34c-4.918,2.159-12.592,5.135-19.309-10.147
	L178.66,75.49c-4.886-11.137-1.369-16.466,6.384-19.868c7.811-3.431,12.585-0.708,15.448,7.149L195.307,65.054z"/>
<polygon fill="#008A57" points="231.424,85.817 222.393,43.742 243.257,39.264 244.253,43.923 228.755,47.245 231.651,60.764 
	246.341,57.616 247.345,62.281 232.659,65.43 236.786,84.662 "/>
<path fill="#008A57" d="M255.054,65.025l-0.917-14.104c-0.556-8.565,3.488-14.321,12.592-14.914
	c9.107-0.592,13.866,4.593,14.422,13.158l0.917,14.104c0.776,11.902-3.322,16.885-12.425,17.478
	C260.54,81.34,255.831,76.927,255.054,65.025 M276.493,63.87l-0.946-14.516c-0.585-8.985-6.789-8.884-8.515-8.768
	c-1.729,0.108-7.897,0.809-7.313,9.793l0.946,14.523c0.606,9.396,3.499,11.599,8.674,11.267
	C274.518,75.83,277.1,73.273,276.493,63.87"/>
<path fill="#008A57" d="M292.32,63.458l1.448-14.061c0.889-8.544,5.843-13.549,14.928-12.61c9.071,0.939,12.899,6.854,12.011,15.397
	l-1.452,14.061c-1.235,11.859-6.11,16.091-15.181,15.152C294.996,80.459,291.092,75.317,292.32,63.458 M313.65,65.906l1.502-14.473
	c0.925-8.955-5.214-9.895-6.933-10.075c-1.719-0.181-7.923-0.52-8.847,8.435l-1.495,14.472c-0.975,9.375,1.509,12.032,6.659,12.567
	C309.707,77.368,312.683,75.273,313.65,65.906"/>
<polygon fill="#008A57" points="357.062,47.266 355.892,51.889 344.915,49.13 335.562,86.25 330.247,84.915 339.592,47.786 
	328.607,45.02 329.77,40.398 "/>
<path fill="#008A57" d="M350.873,90.577l16.849-39.613l12.899,5.488c5.482,2.326,6.551,4.991,7.1,7.814
	c0.469,2.723-0.318,5.179-0.65,5.944c-2.095,4.933-5.201,7.511-10.79,6.485l-0.116,0.274c5.374,3.062,6.392,7.518,4.082,12.949
	c-4.32,10.146-12.148,7.98-16.64,6.074L350.873,90.577z M357.791,88.331l7.128,3.041c5.38,2.283,8.926-0.736,10.168-3.647
	c2.687-6.305-0.743-9.063-5.9-11.252l-5.374-2.296L357.791,88.331z M365.677,69.792l7.345,3.127c3.98,1.625,6.926,0.029,8.559-3.813
	c1.401-3.293,0.679-6.774-3.546-8.572l-7.128-3.033L365.677,69.792z"/>
<path fill="#008A57" d="M413.423,73.641l5.864,3.777l-11.556,43.751l-5.156-3.329l2.946-10.292l-13.974-9.005l-8.255,6.868
	l-4.659-3.004L413.423,73.641z M413.48,79.701l-0.101-0.065l-18.091,15.636l11.569,7.46L413.48,79.701z"/>
<polygon fill="#008A57" points="410.664,124.195 439.01,91.812 443.134,95.423 417.937,124.217 429.816,134.624 426.675,138.213 "/>
<polygon fill="#008A57" points="430.033,141.947 462.294,113.441 465.927,117.551 437.233,142.9 447.698,154.737 444.13,157.9 "/>
<path fill="#008A57" d="M490.07,172.07c2.145-1.163,4.167-2.542,4.788-4.21s-0.238-4.131-0.809-5.106
	c-2.268-3.929-5.532-4.103-6.139-3.958c-0.505,0.087-1.965-0.311-8.363,3.38l-9.974,5.756c-9.136,5.272-8.493,8.897-6.377,12.559
	c0.831,1.444,3.878,5.54,11.194,1.387l2.824,4.904c-11.649,7.005-16.444-1.307-17.852-3.741c-2.672-4.644-6.479-11.945,7.98-20.294
	l10.529-6.081c10.53-6.074,16.214-3.156,20.446,4.182c4.253,7.381,2.073,12.422-5.417,16.127L490.07,172.07z"/>
<polygon fill="#008A57" points="468.693,199.008 508.601,182.882 510.652,187.973 475.171,202.309 481.085,216.962 476.666,218.739 
	"/>
<path fill="#008A57" d="M519.608,211.979l1.278,5.33l-26.78,6.435c-9.15,2.196-10.804,5.54-9.591,10.573
	c1.213,5.048,4.203,7.272,13.361,5.077l26.78-6.435l1.278,5.33l-26.541,6.377c-11.599,2.788-17.21-0.404-19.333-9.273
	c-2.13-8.869,1.408-14.249,13.007-17.037L519.608,211.979z"/>
<path fill="#008A57" d="M485.274,256.503l42.965-2.867l0.924,13.989c0.397,5.944-1.488,8.103-3.755,9.873
	c-2.232,1.639-4.774,2.044-5.605,2.109c-5.352,0.354-9.049-1.25-10.667-6.709l-0.296,0.021c-0.304,6.175-3.821,9.107-9.713,9.497
	c-10.999,0.729-12.61-7.236-12.935-12.119L485.274,256.503z M490.395,261.652l0.52,7.742c0.39,5.821,4.687,7.634,7.843,7.425
	c6.839-0.455,7.749-4.759,7.381-10.357l-0.383-5.828L490.395,261.652z M510.508,260.316l0.535,7.973
	c0.347,4.283,3.098,6.19,7.272,5.916c3.561-0.246,6.341-2.456,6.038-7.042l-0.52-7.735L510.508,260.316z"/>
</svg>
