<?xml version="1.0" encoding="UTF-8"?><svg id="Calque_2" xmlns="http://www.w3.org/2000/svg" viewBox="0 0 1857.24 1857.24"><defs><style>.cls-1{fill:#001e96;}.cls-2{fill:#fff;}.cls-3{fill:#dc1e1e;}</style></defs><g id="Calque_2-2"><circle class="cls-2" cx="928.62" cy="928.62" r="928.62"/><path class="cls-1" d="m866.32,165.96c10.93-.66,23.18-1.32,33.45-1.66-.66-23.18,0-49.02-.99-72.2l45.37-.99,2.98,188.12-44.05.66-.66-76.18c-10.27,0-24.18.66-34.78,1.32l3.64,76.84-43.39,4.64-11.59-188.12,45.71-4.31,4.31,71.87Z"/><path class="cls-1" d="m758.02,236.18l-34.11-118.24,42.39-9.94,40.08,182.16-40.41,8.94c-24.51-38.09-48.02-75.84-70.88-113.93l1.99,7.95,38.09,114.93-38.75,13.25-54.32-179.18,48.35-15.9,67.56,109.96Z"/><path class="cls-1" d="m1304.83,322.29l60.61-106.98,36.43,23.18-102.01,155.99-34.78-22.52c10.27-44.05,20.53-87.11,31.8-130.49l-4.31,6.96-55.64,107.64-36.43-18.55,90.09-163.94,45.37,23.52-31.13,125.19Z"/><path class="cls-1" d="m1224.02,145.1l41.07,17.22-100.35,157.98-1.32,1.32-48.02-16.89v-1.66l14.57-188.45,47.36,13.58c-5.63,43.39-11.92,91.41-19.54,134.14l66.24-117.24Z"/><path class="cls-1" d="m1094.52,298.77l-45.37-8.28c-.33-12.92-.33-20.53-.66-34.78-11.59-1.32-22.52-2.98-34.11-4.64l-11.59,32.79-43.72-4.64,65.58-182.82,52.33,8.28,17.55,194.08Zm-49.02-159.97c-8.94,26.16-15.9,53.99-21.86,79.49l23.85,3.64c-1.32-27.49-.66-55.97-1.99-83.13"/><path class="cls-1" d="m502.01,209.68l91.41-48.69c5.96,9.94,10.93,19.87,16.23,29.48l-51,28.48c5.63,11.59,11.26,22.85,18.55,33.45l49.02-25.5c5.63,9.27,9.6,21.53,14.9,31.46-15.57,8.61-33.78,17.22-49.68,26.5l21.2,39.74c18.22-7.29,35.77-18.55,53.65-27.16,6.29,9.94,10.93,19.54,16.23,29.81l-89.42,45.37-91.08-162.95Z"/><path class="cls-1" d="m500.35,281.55c3.97,9.6,5.96,22.52,0,31.8,2.65.66,5.96-1.99,9.6-1.99,16.89-1.99,28.48,9.6,39.41,21.2,9.6,14.24,17.88,29.81,11.26,48.69-14.24,30.47-45.37,47.36-71.21,68.56l-10.27-11.59-108.3-133.14c19.87-17.55,40.74-33.45,61.27-49.68,9.6-5.96,22.52-8.94,34.11-5.3,14.57,4.31,26.83,18.55,34.11,31.46m-49.02,9.27c-10.27-3.97-18.88,4.64-25.83,10.93l26.5,32.79,12.25-10.93c2.65-3.31,4.64-8.28,3.31-12.92-3.31-8.28-8.61-14.9-16.23-19.87m52.66,59.28c-11.59-6.96-22.52,3.31-30.47,10.27l31.13,38.75,12.92-12.25c3.97-4.64,3.97-12.25,1.99-18.22-2.98-7.62-9.6-13.25-15.57-18.55"/><path class="cls-1" d="m396.68,555.78l-109.63-14.24-2.65-1.99-52.66-75.51c-7.29,12.92-17.55,25.17-23.52,38.09,17.22,23.52,36.43,48.69,55.64,70.88v1.99c-23.85-13.25-49.35-27.82-73.53-41.4-7.29,12.25-12.92,25.83-19.54,39.08l2.32,1.66,158.64,90.09,1.99,1.32c7.29-12.25,12.59-25.83,20.2-39.08l-36.1-20.87-13.91-20.2.66-.66,66.9,10.27,25.17-39.41Z"/><path class="cls-1" d="m402.65,554.13l18.22-7.62-4.64-13.58c18.22-9.6,34.11-27.82,42.06-46.37,10.27-25.17-4.64-47.03-22.52-63.26-29.15-24.51-54.98-57.63-90.42-69.22l-7.62-18.22-18.22,6.96c1.99,4.64,3.64,9.6,5.3,13.58-18.88,8.28-37.76,28.48-45.37,47.36-7.62,21.86.66,44.05,18.22,59.28,30.47,25.17,57.96,61.93,94.39,72.86,4.64.33,5.3,3.97,5.63,5.3l4.97,12.92Zm-83.79-137.45c-1.99-4.97,0-8.94,1.99-12.92,4.64-6.96,15.57-6.96,21.2-1.99,8.28,20.53,17.55,40.74,24.51,61.93-16.23-15.24-36.76-28.15-47.69-47.03Zm81.81,74.19c-7.62-19.54-15.9-39.08-23.18-59.28,15.24,13.91,38.75,26.5,42.06,47.69.66,7.62-5.96,19.21-18.88,11.59Z"/><path class="cls-1" d="m286.73,670.71l39.08,13.91c-4.64,12.92-10.27,27.16-14.57,40.08-13.58-3.97-27.16-8.28-40.08-13.25l15.57-40.74Z"/><path class="cls-1" d="m185.71,712.44c-1.32,12.92-4.64,27.16-7.29,40.08-10.6-.66-23.85-7.95-33.12.33-4.64,3.97-5.96,10.93-5.3,16.89,1.32,3.97,4.64,7.29,8.94,8.94l99.36,19.54c4.64,0,9.6,1.32,12.92-2.98,4.64-5.63,5.96-13.58,2.65-20.53-8.28-10.27-22.52-9.6-35.44-12.59,2.32-14.24,4.64-26.5,7.29-40.08,23.85,2.65,51,7.62,62.93,32.79,6.96,23.18,1.66,49.02-10.27,67.9-12.92,18.55-36.43,22.19-56.97,17.55l-93.4-19.54c-12.92-3.31-25.83-14.9-30.8-27.49-6.29-27.82-.99-57.63,19.87-76.84,15.57-11.92,40.74-9.27,58.62-3.97"/><path class="cls-1" d="m240.03,861.81l43.06,4.31-3.97,44.38c-14.57-1.66-28.81-2.98-42.39-4.31l3.31-44.38Z"/><path class="cls-1" d="m127.42,939.31c10.93,1.32,23.18.99,35.44.66.33-17.88,0-37.76.33-55.64h34.78l.99,54.32v.99l80.81.99v44.05h-3.97l-183.48-.33c-.66-36.1-.99-71.87-1.32-106.31l35.77.99.66,60.28Z"/><path class="cls-1" d="m1296.88,1267.53c65.91,79.82,153.68,170.57,238.46,240.12,77.5-81.47,134.47-172.55,173.22-271.25-58.62-47.03-116.91-92.4-177.52-133.14-19.87-13.58-40.08-25.83-57.96-40.08,88.43,31.13,171.89,73.53,255.69,114.93,30.47-95.05,42.72-200.38,35.44-308.68-93.73-52.33-191.1-96.38-293.11-129.17l.66-.66c98.03,13.58,193.09,34.78,284.83,62.6-18.88-123.87-63.26-236.48-131.82-339.15-36.76-10.27-75.51-15.57-114.26-21.2-94.39-9.6-199.05-10.93-290.13,8.94-47.03,11.59-89.75,32.79-129.17,63.26-24.51,22.52-39.41,53.65-47.03,79.49-19.87,5.96-70.55,29.81-99.69,45.71-19.54,10.6-54.65,29.48-64.25,49.35-3.64,7.62-7.62,22.85-10.93,23.85-39.41,10.93-76.84,25.83-114.26,40.74-85.78,36.1-171.89,70.88-248.73,127.84-10.27,7.62-14.9,19.21-16.56,30.14-6.96,44.05-2.98,61.6,10.6,66.24,11.92,4.31,25.83,3.64,46.7-8.61,8.28-4.64,17.55-13.25,26.83-26.83,3.64,14.57,3.97,32.46-1.32,43.39-12.92,26.16-48.35,30.14-65.91,51-6.29,7.29-5.63,19.54-5.3,29.81,0,37.43,4.64,76.18,26.5,105.32,11.92,15.9,31.13,22.85,49.02,26.16,19.54,3.64,39.41,3.64,59.95,2.98,29.81-1.32,54.98-13.58,85.12-15.57,17.55-1.99,32.46,11.59,38.75,26.5,8.94,20.53,7.29,54.65-6.96,68.56-4.64,4.64-11.59,5.96-18.22,4.64-39.41-7.62-69.22-22.85-103.33-43.39-16.89-9.6-35.44-25.5-54.98-17.55-6.62,2.65-10.27,9.27-12.25,14.9-6.96,20.87-3.31,56.3,7.95,98.37,6.96,25.83,29.48,67.23,48.35,87.77,9.6,8.94,24.18,13.25,36.76,8.28,33.12-13.25,83.46-51.67,117.91-60.28,12.92-3.31,16.56,3.31,15.57,9.94-7.29,42.72-16.56,153.01-17.22,202.03-.66,67.56,3.31,104.33,12.92,168.25,112.28,21.86,244.76,15.57,352.06-13.58-16.89-53.65-31.13-108.63-44.05-165.27-5.96-34.78-14.24-69.22-16.23-104.66,34.78,86.44,70.55,172.55,124.53,250.72m-194.41-936.3c-.33.99-3.97,1.66-3.97,1.66-36.76,3.31-72.53,7.62-105.32,19.87-8.61,3.31-14.9,8.94-25.17,10.6,2.32-23.85,17.22-28.15,23.18-29.81,23.85-6.29,2.32-41.73,25.5-41.73,30.14,0,60.94,12.92,83.46,34.78,1.32,1.66,2.98,2.98,2.32,4.64Zm194.08,936.96c102.67-36.1,210.64-97.7,285.49-167.92-47.36-55.31-163.94-215.28-191.76-285.49"/><path class="cls-3" d="m323.16,1312.57c75.51,122.87,206.01,234.82,337.49,283.51,13.25,5.3,26.5,10.93,40.08,14.24.99-13.58,2.32-28.48,4.31-44.71.99-7.29,1.99-15.9,3.64-25.17-44.71-16.23-87.44-37.43-128.17-63.26-78.49-48.69-151.03-125.86-201.04-200.71l-56.3,36.1Z"/><path class="cls-3" d="m222.8,1374.84c105.32,176.86,291.12,307.35,477.59,359.68-.99-26.83-1.66-49.35-1.66-70.88-164.27-49.35-325.24-169.57-419.63-323.91l-56.3,35.11Z"/><path class="cls-3" d="m289.04,1045.3l-66.24,11.59v.66c13.25,73.19,36.43,142.08,71.87,205.01l58.95-33.45c-30.8-56.97-51.67-118.9-64.58-183.82Z"/><path class="cls-3" d="m105.23,1077.09c15.57,85.12,43.72,165.27,83.46,239.79l58.62-31.13c-34.11-68.89-62.27-141.42-75.51-220.25l-66.57,11.59Z"/></g></svg>