<?xml version="1.0" encoding="UTF-8" standalone="no"?>
<!-- Created with sK1/UniConvertor (http://sk1project.org/) -->

<svg
   xmlns:dc="http://purl.org/dc/elements/1.1/"
   xmlns:cc="http://creativecommons.org/ns#"
   xmlns:rdf="http://www.w3.org/1999/02/22-rdf-syntax-ns#"
   xmlns:svg="http://www.w3.org/2000/svg"
   xmlns="http://www.w3.org/2000/svg"
   xmlns:xlink="http://www.w3.org/1999/xlink"
   xmlns:sodipodi="http://sodipodi.sourceforge.net/DTD/sodipodi-0.dtd"
   xmlns:inkscape="http://www.inkscape.org/namespaces/inkscape"
   width="643.38293pt"
   height="675.39954pt"
   viewBox="0 0 643.38293 675.39952"
   version="1.1"
   id="svg84"
   sodipodi:docname="FK Backa Topola.svg"
   inkscape:version="0.92.5 (2060ec1f9f, 2020-04-08)"
   style="fill-rule:evenodd">
  <metadata
     id="metadata90">
    <rdf:RDF>
      <cc:Work
         rdf:about="">
        <dc:format>image/svg+xml</dc:format>
        <dc:type
           rdf:resource="http://purl.org/dc/dcmitype/StillImage" />
        <dc:title></dc:title>
      </cc:Work>
    </rdf:RDF>
  </metadata>
  <defs
     id="defs88">
    <linearGradient
       inkscape:collect="always"
       id="linearGradient922">
      <stop
         style="stop-color:#00b3e3;stop-opacity:1;"
         offset="0"
         id="stop918" />
      <stop
         style="stop-color:#00b3e3;stop-opacity:0;"
         offset="1"
         id="stop920" />
    </linearGradient>
    <linearGradient
       inkscape:collect="always"
       xlink:href="#linearGradient922"
       id="linearGradient924"
       x1="294.2265"
       y1="245.53662"
       x2="294.82068"
       y2="308.6499"
       gradientUnits="userSpaceOnUse" />
  </defs>
  <sodipodi:namedview
     pagecolor="#ffffff"
     bordercolor="#666666"
     borderopacity="1"
     objecttolerance="10"
     gridtolerance="10"
     guidetolerance="10"
     inkscape:pageopacity="0"
     inkscape:pageshadow="2"
     inkscape:window-width="1920"
     inkscape:window-height="1001"
     id="namedview86"
     showgrid="false"
     inkscape:zoom="0.59465202"
     inkscape:cx="-253.85261"
     inkscape:cy="377.95205"
     inkscape:window-x="-4"
     inkscape:window-y="-4"
     inkscape:window-maximized="1"
     inkscape:current-layer="svg84"
     fit-margin-top="0"
     fit-margin-left="0"
     fit-margin-right="0"
     fit-margin-bottom="0" />
  <g
     id="g82"
     transform="matrix(1.1913222,0,0,1.1913222,-32.891236,-163.77854)">
    <g
       id="g80">
      <g
         id="g78">
        <g
           id="g16">
          <path
             style="fill:#42484c;fill-opacity:1;stroke:none"
             d="m 296.205,137.48 c 149.105,-0.78 270.666,121.116 271.458,272.206 0.702,134.01 -93.845,246.035 -219.268,270.198 -11.475,14.912 -29.496,24.525 -49.761,24.525 -20.075,0 -37.95,-9.431 -49.438,-24.103 C 123.775,657.253 28.3138,546.344 27.6129,412.513 26.8216,261.424 147.1,138.261 296.205,137.48 Z"
             id="path2"
             inkscape:connector-curvature="0" />
          <path
             style="fill:#ffffff;stroke:none"
             d="m 296.267,149.198 c 142.635,-0.747 258.921,115.929 259.678,260.549 0.652,124.605 -84.675,229.356 -199.538,256.444 3.206,-7.538 4.981,-15.83 4.981,-24.536 0,-12.383 -3.59,-23.928 -9.783,-33.654 C 432.568,583.728 491.58,506.074 491.1,414.369 490.52,303.665 403.461,214.341 296.688,214.9 c -106.774,0.559 -192.893,90.79 -192.314,201.494 0.48,91.522 60.066,168.426 141.032,192.016 -6.035,9.64 -9.527,21.035 -9.527,33.245 0,8.9 1.858,17.366 5.2,25.037 C 126.17,640.635 39.9819,536.891 39.3303,412.452 38.5733,267.833 153.631,149.945 296.267,149.198 Z"
             id="path4"
             inkscape:connector-curvature="0" />
          <g
             id="g12">
            <path
               style="fill:#ffffff;stroke:none"
               d="m 467.702,482.154 c -20.623,56.69 -66.774,100.401 -123.947,115.896 -11.411,-11.806 -27.409,-19.15 -45.121,-19.15 -17.89,0 -34.033,7.49 -45.465,19.503 -57.229,-15.036 -103.708,-58.323 -124.809,-114.8 51.352,-20.249 105.014,-31.849 160.345,-33.176 6.032,-0.145 12.066,-0.167 18.099,-0.07 55.747,0.903 109.458,11.496 160.898,31.797 z M 296.749,226.618 c 85.35,-0.447 157.279,60.39 177.168,142.759 -55.443,-23.257 -113.696,-35.688 -174.093,-36.668 -7.775,-0.127 -15.553,-0.064 -23.326,0.19 -52.947,1.733 -104.296,12.406 -153.624,31.158 21.397,-78.945 91.012,-137.005 173.875,-137.439 z"
               id="path6"
               inkscape:connector-curvature="0" />
            <path
               style="fill:#006ca8;fill-opacity:1;stroke:none"
               d="m 277.876,582.42 v -131.6 c 3.603,-0.175 7.212,-0.306 10.829,-0.393 6.032,-0.145 12.066,-0.167 18.099,-0.07 4.228,0.069 8.444,0.194 12.649,0.374 v 131.711 c -6.516,-2.291 -13.521,-3.542 -20.819,-3.542 -7.275,0 -14.26,1.243 -20.758,3.52 z M 467.702,482.154 c -5.353,14.713 -12.429,28.548 -20.967,41.246 v -48.939 c 7.03,2.388 14.019,4.951 20.967,7.693 z M 446.735,358.925 v -51.433 c 12.419,18.482 21.747,39.377 27.182,61.885 -8.988,-3.77 -18.049,-7.254 -27.182,-10.452 z m -42.297,209.262 c -12.712,9.603 -26.67,17.533 -41.577,23.481 v -137.04 c 14.001,1.929 27.861,4.5 41.577,7.716 z m 0,-305.52 v 83.629 c -13.719,-3.4 -27.581,-6.172 -41.577,-8.308 v -98.833 c 14.9,5.96 28.861,13.897 41.577,23.512 z M 150.347,525.628 c -8.943,-12.885 -16.368,-26.985 -21.987,-42.025 7.283,-2.872 14.612,-5.569 21.987,-8.089 z m 0,-220.622 v 49.514 c -9.225,2.901 -18.383,6.081 -27.473,9.537 5.821,-21.478 15.218,-41.405 27.473,-59.051 z m 84.491,287.477 C 219.969,586.77 206.013,579.09 193.261,569.749 V 463.023 c 13.727,-3.309 27.589,-5.997 41.577,-8.034 z m 0,-354.259 v 97.91 c -13.985,1.719 -27.846,4.067 -41.577,7.026 v -82.24 c 12.748,-9.327 26.702,-16.994 41.577,-22.696 z m 84.615,-10.257 v 105.467 c -6.517,-0.376 -13.06,-0.619 -19.629,-0.725 -7.315,-0.119 -14.634,-0.071 -21.948,0.147 V 227.727 c 6.202,-0.699 12.498,-1.076 18.873,-1.109 7.687,-0.041 15.263,0.424 22.704,1.349 z"
               id="path8"
               inkscape:connector-curvature="0" />
            <path
               style="fill:#ffffff;stroke:none"
               d="m 476.63,382.616 c 1.75,10.339 2.696,20.967 2.753,31.815 0.104,19.913 -2.773,39.118 -8.181,57.17 -52.505,-20.643 -107.343,-31.423 -164.218,-32.343 -6.181,-0.1 -12.365,-0.077 -18.545,0.071 -56.465,1.354 -111.252,13.148 -163.672,33.757 -5.532,-17.898 -8.571,-36.961 -8.675,-56.753 -0.07,-13.426 1.219,-26.53 3.721,-39.176 50.322,-20.007 102.815,-31.388 157.049,-33.163 7.591,-0.248 15.188,-0.309 22.782,-0.186 61.533,0.998 120.751,14.164 176.986,38.808 z"
               id="path10"
               inkscape:connector-curvature="0" />
            <path
               id="path908"
               d="m 277.876,582.42 v -131.6 c 3.603,-0.175 7.212,-0.306 10.829,-0.393 6.032,-0.145 12.066,-0.167 18.099,-0.07 4.228,0.069 8.444,0.194 12.649,0.374 v 131.711 c -6.516,-2.291 -13.521,-3.542 -20.819,-3.542 -7.275,0 -14.26,1.243 -20.758,3.52 z M 467.702,482.154 c -5.353,14.713 -12.429,28.548 -20.967,41.246 v -48.939 c 7.03,2.388 14.019,4.951 20.967,7.693 z M 446.735,358.925 v -51.433 c 12.419,18.482 21.747,39.377 27.182,61.885 -8.988,-3.77 -18.049,-7.254 -27.182,-10.452 z m -42.297,209.262 c -12.712,9.603 -26.67,17.533 -41.577,23.481 v -137.04 c 14.001,1.929 27.861,4.5 41.577,7.716 z m 0,-305.52 v 83.629 c -13.719,-3.4 -27.581,-6.172 -41.577,-8.308 v -98.833 c 14.9,5.96 28.861,13.897 41.577,23.512 z M 150.347,525.628 c -8.943,-12.885 -16.368,-26.985 -21.987,-42.025 7.283,-2.872 14.612,-5.569 21.987,-8.089 z m 0,-220.622 v 49.514 c -9.225,2.901 -18.383,6.081 -27.473,9.537 5.821,-21.478 15.218,-41.405 27.473,-59.051 z m 84.491,287.477 C 219.969,586.77 206.013,579.09 193.261,569.749 V 463.023 c 13.727,-3.309 27.589,-5.997 41.577,-8.034 z m 0,-354.259 v 97.91 c -13.985,1.719 -27.846,4.067 -41.577,7.026 v -82.24 c 12.748,-9.327 26.702,-16.994 41.577,-22.696 z m 84.615,-10.257 v 105.467 c -6.517,-0.376 -13.06,-0.619 -19.629,-0.725 -7.315,-0.119 -14.634,-0.071 -21.948,0.147 V 227.727 c 6.202,-0.699 12.498,-1.076 18.873,-1.109 7.687,-0.041 15.263,0.424 22.704,1.349 z"
               style="fill:url(#linearGradient924);fill-opacity:1;stroke:none"
               inkscape:connector-curvature="0" />
          </g>
          <path
             style="fill:#ffffff;stroke:none"
             d="m 298.633,587.534 c 29.874,0 54.121,24.248 54.121,54.121 0,29.873 -24.247,54.12 -54.121,54.12 -29.873,0 -54.12,-24.247 -54.12,-54.12 0,-29.873 24.247,-54.121 54.12,-54.121 z"
             id="path14"
             inkscape:connector-curvature="0" />
        </g>
        <g
           id="g26">
          <path
             style="fill:#42484c;fill-opacity:1;stroke:none"
             d="m 390.144,646.476 -11.275,-26.096 -0.102,0.044 -5.061,5.749 -3.873,-5.33 7.144,-7.915 6.461,-2.792 14.286,33.065 z"
             id="path18"
             inkscape:connector-curvature="0" />
          <path
             style="fill:#42484c;fill-opacity:1;stroke:none"
             d="m 166.945,625.575 15.251,-23.989 -0.094,-0.06 -7.599,-0.957 2.232,-6.197 10.562,1.461 5.939,3.776 -19.323,30.396 z"
             id="path20"
             inkscape:connector-curvature="0" />
          <path
             style="fill:#42484c;fill-opacity:1;stroke:none"
             d="m 413.503,633.603 -1.778,-6.489 c 3.551,-0.375 6.584,-1.333 9.098,-2.875 1.899,-1.164 3.151,-2.447 3.762,-3.843 0.611,-1.396 0.542,-2.705 -0.211,-3.935 -0.833,-1.357 -2.109,-2.057 -3.835,-2.087 -1.725,-0.03 -3.547,0.549 -5.463,1.723 l -3.397,2.083 -3.26,-5.318 3.248,-1.991 c 1.616,-0.99 2.794,-2.152 3.532,-3.471 0.737,-1.32 0.767,-2.525 0.091,-3.626 -0.597,-0.975 -1.501,-1.497 -2.716,-1.554 -1.215,-0.057 -2.599,0.396 -4.148,1.345 -2.415,1.481 -4.379,3.585 -5.891,6.314 l -4.908,-4.307 c 1.866,-3.385 4.848,-6.333 8.945,-8.845 3.365,-2.062 6.497,-2.971 9.396,-2.727 2.899,0.244 5.043,1.5 6.433,3.768 2.124,3.465 1.587,7.111 -1.612,10.939 l 0.059,0.096 c 2.407,-0.97 4.689,-1.172 6.843,-0.592 2.154,0.58 3.807,1.818 4.962,3.703 1.723,2.81 1.894,5.857 0.516,9.141 -1.378,3.283 -4.116,6.18 -8.214,8.692 -4.064,2.491 -7.881,3.776 -11.452,3.856 z"
             id="path22"
             inkscape:connector-curvature="0" />
          <path
             style="fill:#42484c;fill-opacity:1;stroke:none"
             d="m 192.796,641.423 2.588,-6.065 c 0.477,0.264 0.982,0.509 1.516,0.737 7.617,3.251 13.345,2.452 17.181,-2.398 l -0.085,-0.096 c -2.351,0.924 -5.119,0.707 -8.305,-0.653 -3.169,-1.352 -5.398,-3.448 -6.693,-6.28 -1.295,-2.832 -1.288,-5.781 0.024,-8.856 1.413,-3.313 3.899,-5.586 7.442,-6.815 3.544,-1.229 7.222,-1.025 11.049,0.608 4.218,1.8 6.967,4.529 8.237,8.184 1.27,3.655 0.987,7.621 -0.84,11.902 -1.334,3.126 -2.97,5.701 -4.919,7.731 -1.95,2.03 -4.082,3.5 -6.395,4.411 -2.314,0.91 -4.744,1.329 -7.281,1.261 -2.538,-0.069 -5.176,-0.543 -7.912,-1.429 -0.908,-0.287 -2.777,-1.034 -5.607,-2.242 z m 24.352,-14.912 c 0.892,-2.089 1.159,-3.974 0.79,-5.647 -0.369,-1.674 -1.406,-2.869 -3.096,-3.591 -1.442,-0.615 -2.854,-0.585 -4.245,0.086 -1.391,0.672 -2.446,1.838 -3.157,3.503 -0.652,1.529 -0.726,2.984 -0.23,4.36 0.496,1.377 1.532,2.401 3.116,3.077 1.085,0.463 2.116,0.662 3.087,0.605 0.971,-0.058 1.75,-0.258 2.333,-0.612 0.582,-0.353 1.047,-0.948 1.402,-1.781 z"
             id="path24"
             inkscape:connector-curvature="0" />
        </g>
        <g
           id="g34">
          <path
             style="fill:#42484c;fill-opacity:1;stroke:none"
             d="m 336.704,409.645 c 0,6.627 -2.465,11.94 -6.63,15.891 -4.165,3.951 -11.2,5.693 -18.319,5.693 h -28.486 c -14.931,0 -22.881,-10.406 -22.881,-21.953 v -6.437 h 26.346 v 3.176 c 0,5.281 4.855,6.437 9.096,6.437 h 6.97 c 3.615,0 7.738,-1.176 7.738,-4.601 v -1.714 c 0,-4.373 -4.715,-4.97 -7.754,-5.588 l -24.186,-4.92 c -8.655,-1.76 -18.168,-4.925 -18.168,-16.411 v -5.942 c 0,-8.682 3.376,-13.355 8.156,-17.245 5.268,-4.287 11.307,-4.281 17.75,-4.281 h 27.816 c 12.828,0 20.724,11.537 20.724,20.191 v 5.59 H 308.16 v -3.546 c 0,-4.326 -2.706,-5.523 -6.528,-5.523 h -7.159 c -3.351,0 -7.598,0.372 -7.598,4.93 v 1.377 c 0,2.892 1.952,3.758 6.751,4.683 l 22.317,4.303 c 13.667,2.634 20.761,7.147 20.761,18.613 z"
             id="path28"
             inkscape:connector-curvature="0" />
          <path
             style="fill:#42484c;fill-opacity:1;stroke:none"
             d="m 425.39,426.143 c -1.584,9.695 -9.847,19.403 -26.755,16.641 l -30.343,-4.956 c -12.042,-1.967 -22.466,-10.035 -19.951,-25.431 l 5.595,-34.256 c 2.234,-13.676 13.776,-19.19 24.698,-17.406 l 36.623,5.982 c 8.559,1.398 18.086,11.238 16.179,22.912 l -1.567,9.595 -26.862,-4.388 0.954,-5.837 c 0.691,-4.233 1.102,-7.49 -4.474,-8.414 l -10.574,-1.752 c -5.865,-0.972 -7.774,0.593 -8.671,6.089 l -4.245,25.991 c -1.264,7.733 -0.125,9.215 6.002,10.252 l 9.782,1.657 c 5.581,0.945 7.04,-1.691 7.718,-5.841 l 1.462,-8.955 26.676,4.358 z"
             id="path30"
             inkscape:connector-curvature="0" />
          <path
             style="fill:#42484c;fill-opacity:1;stroke:none"
             d="m 243.244,373.138 -25.7,5.072 11.565,58.591 -25.324,4.998 -11.565,-58.591 -26.046,5.141 -3.094,-15.678 77.069,-15.212 z"
             id="path32"
             inkscape:connector-curvature="0" />
        </g>
        <g
           id="g74"
           style="fill:#424750;fill-opacity:1">
          <path
             style="fill:#42484c;fill-opacity:1;stroke:none"
             d="m 115.098,504.188 c -0.23,-1.208 -0.604,-2.796 -1.128,-4.748 -0.519,-1.967 -1.237,-4.27 -2.149,-6.923 -1.041,-2.989 -2.105,-5.565 -3.181,-7.731 -1.076,-2.165 -2.18,-3.964 -3.314,-5.406 -1.134,-1.442 -2.297,-2.588 -3.495,-3.423 -1.039,-0.724 -2.1545,-1.29 -3.3459,-1.698 -1.1918,-0.408 -2.4454,-0.615 -3.7491,-0.626 -1.2935,-0.015 -2.6335,0.213 -3.9988,0.676 -1.4325,0.511 -2.66,1.201 -3.6707,2.066 -1.0107,0.865 -1.8207,1.862 -2.429,2.993 -0.6119,1.119 -1.027,2.326 -1.2734,3.604 -0.2323,1.286 -0.3039,2.587 -0.197,3.922 l -0.1277,0.044 c -1.1917,-1.469 -2.4393,-2.586 -3.7532,-3.345 -1.3139,-0.759 -2.6347,-1.194 -3.9651,-1.315 -1.3449,-0.128 -2.6359,0.035 -3.9018,0.476 -1.422,0.507 -2.6095,1.207 -3.5633,2.099 -0.9428,0.89 -1.6739,1.907 -2.1929,3.055 -0.5081,1.143 -0.8163,2.347 -0.9241,3.614 -0.1686,1.227 -0.1983,2.514 -0.0982,3.863 0.0997,1.349 0.3483,2.849 0.7586,4.507 0.4102,1.659 0.9914,3.568 1.7508,5.749 0.4632,1.329 0.9621,2.658 1.4787,3.97 0.516,1.311 1.0349,2.562 1.5567,3.752 0.5181,1.179 1.0099,2.249 1.4606,3.201 0.4618,0.949 0.8532,1.731 1.1962,2.339 z m -39.0655,2.296 c -0.2437,-0.393 -0.5367,-0.959 -0.8528,-1.696 -0.3123,-0.726 -0.696,-1.725 -1.1331,-2.981 -0.5521,-1.585 -0.863,-2.991 -0.912,-4.227 -0.0481,-1.235 0.1729,-2.279 0.6783,-3.122 0.4947,-0.841 1.2912,-1.464 2.3979,-1.85 1.5812,-0.562 3.0634,-0.279 4.4679,0.842 1.4009,1.111 2.6175,3.132 3.6619,6.061 l 1.2666,3.638 z m 16.7874,-5.846 -1.3334,-3.83 c -0.4707,-1.351 -0.8081,-2.629 -0.9957,-3.852 -0.202,-1.23 -0.2096,-2.349 -0.0523,-3.37 0.1573,-1.021 0.5304,-1.902 1.1193,-2.644 0.5778,-0.738 1.4076,-1.301 2.4886,-1.69 1.153,-0.389 2.1956,-0.478 3.1495,-0.274 0.9539,0.205 1.8115,0.646 2.579,1.31 0.7711,0.673 1.4451,1.512 2.0321,2.512 0.587,1.001 1.083,2.116 1.501,3.318 0.33,0.947 0.619,1.777 0.842,2.486 0.224,0.71 0.389,1.356 0.479,1.921 z"
             id="path36"
             inkscape:connector-curvature="0" />
          <path
             style="fill:#42484c;fill-opacity:1;stroke:none"
             d="m 86.837,440.109 11.5703,-5.48 -1.4909,-11.802 -43.1968,21.534 1.8044,14.283 47.111,9.446 -1.423,-11.266 -12.5283,-2.096 z m -6.2021,14.001 -10.0457,-1.865 c -1.3812,-0.234 -2.791,-0.431 -4.2557,-0.609 -1.4641,-0.179 -2.873,-0.364 -4.2047,-0.571 l -0.0172,-0.134 c 1.2346,-0.564 2.5458,-1.15 3.9098,-1.765 1.3658,-0.604 2.674,-1.212 3.9492,-1.816 l 9.2493,-4.439 z"
             id="path38"
             inkscape:connector-curvature="0" />
          <path
             style="fill:#42484c;fill-opacity:1;stroke:none"
             d="m 90.2064,383.868 c 0.2785,0.822 0.5125,1.788 0.6908,2.897 0.1899,1.11 0.3071,2.282 0.3734,3.529 0.0555,1.247 0.0425,2.5 -0.0491,3.746 -0.2019,2.595 -0.7416,4.871 -1.6084,6.829 -0.8773,1.946 -2.0238,3.567 -3.4397,4.853 -1.4265,1.273 -3.0541,2.204 -4.9033,2.78 -1.8496,0.576 -3.8533,0.79 -5.9992,0.632 -2.4256,-0.189 -4.5295,-0.762 -6.3248,-1.695 -1.783,-0.945 -3.2502,-2.193 -4.3908,-3.734 -1.1406,-1.541 -1.959,-3.318 -2.4447,-5.319 -0.4974,-1.99 -0.6553,-4.148 -0.486,-6.451 0.1678,-2.134 0.5113,-4.04 1.0185,-5.72 0.5073,-1.68 1.063,-3.096 1.6788,-4.248 l -8.1904,-2.905 c -0.4453,0.678 -0.8758,1.618 -1.3137,2.817 -0.4394,1.211 -0.8273,2.65 -1.1758,4.319 -0.3364,1.658 -0.5858,3.515 -0.748,5.57 -0.2255,3.067 -0.0784,5.992 0.4406,8.764 0.5202,2.76 1.383,5.32 2.5906,7.645 1.1949,2.335 2.7274,4.379 4.5751,6.141 1.8462,1.774 4.0013,3.186 6.4426,4.246 2.4521,1.061 5.1716,1.713 8.1704,1.944 3.2582,0.24 6.3107,-0.101 9.1559,-1.01 2.8443,-0.898 5.3812,-2.372 7.6101,-4.423 2.2282,-2.038 4.0343,-4.639 5.4185,-7.802 1.3855,-3.174 2.2458,-6.895 2.5826,-11.173 0.1436,-2.102 0.1716,-4.032 0.0752,-5.789 -0.0968,-1.758 -0.2784,-3.285 -0.5224,-4.58 -0.2436,-1.294 -0.5088,-2.296 -0.8069,-3.007 z m -39.2931,6.148 -6.4278,-7.594 -0.5492,7.482 3.2554,4.018 -0.0098,0.135 -3.7852,3.195 -0.5498,7.482 7.487,-6.461 z"
             id="path40"
             inkscape:connector-curvature="0" />
          <path
             style="fill:#42484c;fill-opacity:1;stroke:none"
             d="m 101.573,377.214 2.8,-10.305 -14.2844,-3.881 -3.7222,-5.634 22.5256,-7.117 3.331,-12.263 -30.0152,10.196 -14.2118,-21.161 -3.5619,13.11 11.7227,15.372 c 0.5668,0.749 1.1416,1.512 1.7379,2.281 0.5964,0.769 1.2178,1.533 1.8585,2.268 l -0.0351,0.13 -19.3066,-5.245 -2.8002,10.305 z"
             id="path42"
             inkscape:connector-curvature="0" />
          <path
             style="fill:#42484c;fill-opacity:1;stroke:none"
             d="m 115.732,305.815 12.614,2.191 5.585,-10.504 -47.7117,-7.303 -6.7589,12.712 33.0516,34.874 5.331,-10.026 -9.029,-8.934 z m -13.138,7.865 -7.1341,-7.315 c -0.9937,-0.987 -2.0321,-1.961 -3.1262,-2.951 -1.0938,-0.989 -2.1382,-1.953 -3.1075,-2.889 l 0.0636,-0.12 c 1.334,0.25 2.7433,0.528 4.2127,0.811 1.4641,0.294 2.8834,0.551 4.2736,0.793 l 10.1169,1.705 z"
             id="path44"
             inkscape:connector-curvature="0" />
          <path
             style="fill:#42484c;fill-opacity:1;stroke:none"
             d="m 150.433,277.901 7.233,-7.949 -27.196,-24.746 9.371,-10.298 -6.499,-5.914 -25.837,28.395 6.499,5.914 9.234,-10.148 z"
             id="path46"
             inkscape:connector-curvature="0" />
          <path
             style="fill:#42484c;fill-opacity:1;stroke:none"
             d="m 159.619,207.459 c -2.983,2.103 -5.363,4.498 -7.136,7.17 -1.783,2.679 -2.949,5.53 -3.502,8.531 -0.554,3 -0.459,6.042 0.252,9.12 0.711,3.077 2.076,6.068 4.09,8.963 1.902,2.697 4.099,4.872 6.612,6.536 2.497,1.662 5.2,2.753 8.094,3.271 2.9,0.528 5.878,0.422 8.934,-0.301 3.065,-0.729 6.095,-2.136 9.107,-4.218 3.048,-2.147 5.49,-4.572 7.322,-7.258 1.832,-2.686 3.036,-5.523 3.621,-8.517 0.591,-2.986 0.528,-6.022 -0.183,-9.1 -0.704,-3.068 -2.076,-6.068 -4.109,-8.991 -1.928,-2.734 -4.151,-4.946 -6.661,-6.626 -2.526,-1.683 -5.236,-2.783 -8.138,-3.295 -2.918,-0.515 -5.916,-0.396 -9.017,0.359 -3.096,0.765 -6.197,2.208 -9.286,4.356 z m 4.641,6.982 c 1.668,-1.154 3.386,-1.862 5.149,-2.133 1.753,-0.265 3.496,-0.152 5.202,0.359 1.715,0.504 3.331,1.339 4.855,2.514 1.526,1.159 2.89,2.597 4.092,4.313 1.253,1.79 2.177,3.619 2.75,5.459 0.571,1.856 0.803,3.66 0.671,5.416 -0.126,1.766 -0.625,3.409 -1.503,4.945 -0.868,1.529 -2.125,2.876 -3.77,4.042 -1.631,1.128 -3.315,1.826 -5.055,2.109 -1.741,0.284 -3.456,0.192 -5.166,-0.288 -1.705,-0.47 -3.333,-1.283 -4.869,-2.435 -1.529,-1.143 -2.909,-2.584 -4.13,-4.328 -1.228,-1.753 -2.138,-3.564 -2.718,-5.413 -0.589,-1.843 -0.827,-3.657 -0.722,-5.449 0.113,-1.785 0.593,-3.455 1.442,-5.012 0.865,-1.554 2.118,-2.927 3.772,-4.099 z"
             id="path48"
             inkscape:connector-curvature="0" />
          <path
             style="fill:#42484c;fill-opacity:1;stroke:none"
             d="m 210.979,229.343 9.881,-4.052 -6.13,-14.946 c 0.518,-0.103 1.111,-0.26 1.783,-0.463 0.667,-0.213 1.368,-0.464 2.097,-0.763 3.173,-1.289 5.844,-2.823 8.038,-4.599 2.193,-1.776 3.836,-3.826 4.948,-6.133 0.564,-1.12 0.93,-2.305 1.094,-3.565 0.161,-1.272 0.137,-2.577 -0.071,-3.916 -0.209,-1.339 -0.584,-2.671 -1.136,-4.015 -0.604,-1.444 -1.364,-2.703 -2.279,-3.777 -0.91,-1.088 -1.934,-1.983 -3.053,-2.693 -1.129,-0.706 -2.289,-1.216 -3.498,-1.524 -1.881,-0.519 -4.041,-0.619 -6.494,-0.307 -2.443,0.308 -5.21,1.101 -8.3,2.356 -3.32,1.374 -6.116,2.631 -8.378,3.766 -2.262,1.134 -4.121,2.152 -5.557,3.046 z M 206.6,190.522 c 0.345,-0.227 0.882,-0.52 1.603,-0.902 0.724,-0.37 1.646,-0.796 2.771,-1.257 1.72,-0.706 3.273,-1.075 4.695,-1.111 1.408,-0.041 2.618,0.267 3.642,0.894 1.014,0.631 1.805,1.609 2.343,2.922 0.588,1.464 0.722,2.858 0.396,4.173 -0.315,1.31 -1.041,2.508 -2.157,3.587 -1.12,1.068 -2.583,1.985 -4.386,2.724 -0.834,0.342 -1.561,0.616 -2.183,0.823 -0.622,0.206 -1.187,0.34 -1.697,0.404 z"
             id="path50"
             inkscape:connector-curvature="0" />
          <path
             style="fill:#42484c;fill-opacity:1;stroke:none"
             d="m 263.082,164.48 c -3.613,0.519 -6.821,1.573 -9.614,3.148 -2.804,1.578 -5.138,3.589 -6.993,6.011 -1.855,2.422 -3.152,5.175 -3.915,8.241 -0.764,3.064 -0.905,6.349 -0.426,9.842 0.471,3.267 1.441,6.202 2.924,8.826 1.471,2.615 3.384,4.814 5.727,6.59 2.344,1.786 5.046,3.044 8.097,3.787 3.062,0.742 6.401,0.864 10.029,0.377 3.691,-0.53 6.968,-1.582 9.819,-3.143 2.853,-1.561 5.213,-3.543 7.094,-5.946 1.882,-2.391 3.204,-5.125 3.968,-8.19 0.765,-3.054 0.905,-6.35 0.42,-9.877 -0.476,-3.311 -1.453,-6.291 -2.927,-8.928 -1.486,-2.646 -3.401,-4.857 -5.755,-6.631 -2.366,-1.783 -5.091,-3.038 -8.197,-3.773 -3.105,-0.724 -6.524,-0.847 -10.251,-0.334 z m 0.965,8.328 c 2.01,-0.272 3.862,-0.122 5.556,0.436 1.683,0.56 3.184,1.452 4.472,2.682 1.299,1.228 2.36,2.706 3.184,4.444 0.834,1.725 1.397,3.626 1.689,5.701 0.304,2.164 0.296,4.212 -0.028,6.113 -0.334,1.912 -0.947,3.625 -1.862,5.13 -0.913,1.516 -2.104,2.753 -3.583,3.723 -1.468,0.968 -3.199,1.598 -5.195,1.89 -1.964,0.265 -3.782,0.122 -5.461,-0.415 -1.68,-0.538 -3.166,-1.399 -4.473,-2.603 -1.305,-1.193 -2.386,-2.656 -3.232,-4.38 -0.844,-1.713 -1.419,-3.623 -1.715,-5.731 -0.298,-2.119 -0.287,-4.146 0.036,-6.057 0.312,-1.909 0.923,-3.634 1.831,-5.183 0.91,-1.539 2.097,-2.809 3.56,-3.811 1.475,-0.992 3.215,-1.646 5.221,-1.939 z"
             id="path52"
             inkscape:connector-curvature="0" />
          <path
             style="fill:#42484c;fill-opacity:1;stroke:none"
             d="m 299.116,207.487 30.948,2.164 0.627,-8.968 -20.227,-1.414 2.55,-36.477 -10.721,-0.749 z"
             id="path54"
             inkscape:connector-curvature="0" />
          <path
             style="fill:#42484c;fill-opacity:1;stroke:none"
             d="m 364.207,205.694 0.48,12.794 11.435,3.279 -2.776,-48.187 -13.839,-3.969 -27.24,39.581 10.915,3.129 6.862,-10.688 z m -10.424,-11.216 5.671,-8.498 c 0.759,-1.178 1.496,-2.396 2.237,-3.672 0.741,-1.276 1.466,-2.498 2.18,-3.64 l 0.13,0.037 c 0.033,1.357 0.054,2.793 0.082,4.289 0.018,1.493 0.061,2.936 0.114,4.345 l 0.436,10.25 z"
             id="path56"
             inkscape:connector-curvature="0" />
          <path
             style="fill:#42484c;fill-opacity:1;stroke:none"
             d="m 395.061,235.416 36.834,-35.338 -6.192,-3.604 -36.776,35.372 z"
             id="path58"
             inkscape:connector-curvature="0" />
          <path
             style="fill:#42484c;fill-opacity:1;stroke:none"
             d="m 428.081,255.239 7.962,7.219 24.698,-27.239 10.314,9.353 5.902,-6.509 -28.44,-25.788 -5.902,6.509 10.165,9.216 z"
             id="path60"
             inkscape:connector-curvature="0" />
          <path
             style="fill:#42484c;fill-opacity:1;stroke:none"
             d="m 498.214,264.388 c -2.103,-2.983 -4.498,-5.363 -7.17,-7.136 -2.678,-1.782 -5.53,-2.949 -8.53,-3.502 -3.001,-0.553 -6.042,-0.459 -9.12,0.252 -3.078,0.712 -6.068,2.077 -8.963,4.09 -2.697,1.902 -4.872,4.099 -6.537,6.612 -1.661,2.498 -2.753,5.201 -3.271,8.094 -0.528,2.9 -0.422,5.879 0.301,8.934 0.73,3.065 2.137,6.095 4.218,9.107 2.148,3.048 4.573,5.49 7.258,7.322 2.686,1.833 5.523,3.037 8.518,3.622 2.985,0.59 6.022,0.527 9.099,-0.184 3.069,-0.704 6.069,-2.076 8.991,-4.109 2.734,-1.928 4.946,-4.15 6.626,-6.661 1.683,-2.526 2.784,-5.236 3.296,-8.138 0.514,-2.918 0.396,-5.916 -0.359,-9.017 -0.765,-3.096 -2.208,-6.197 -4.357,-9.286 z m -6.982,4.642 c 1.154,1.667 1.862,3.385 2.134,5.148 0.265,1.753 0.152,3.496 -0.359,5.202 -0.505,1.715 -1.34,3.331 -2.515,4.855 -1.158,1.526 -2.596,2.89 -4.312,4.092 -1.791,1.254 -3.619,2.177 -5.46,2.75 -1.855,0.571 -3.66,0.803 -5.416,0.671 -1.765,-0.125 -3.408,-0.625 -4.944,-1.503 -1.529,-0.868 -2.877,-2.125 -4.043,-3.77 -1.127,-1.63 -1.826,-3.314 -2.109,-5.055 -0.283,-1.741 -0.191,-3.455 0.288,-5.166 0.471,-1.705 1.283,-3.333 2.436,-4.869 1.143,-1.529 2.584,-2.909 4.327,-4.13 1.754,-1.228 3.564,-2.138 5.414,-2.718 1.842,-0.589 3.656,-0.827 5.449,-0.721 1.784,0.112 3.455,0.593 5.012,1.442 1.554,0.864 2.926,2.117 4.098,3.772 z"
             id="path62"
             inkscape:connector-curvature="0" />
          <path
             style="fill:#42484c;fill-opacity:1;stroke:none"
             d="m 476.298,315.908 4.104,9.859 14.914,-6.208 c 0.105,0.517 0.266,1.11 0.472,1.78 0.217,0.667 0.471,1.366 0.774,2.094 1.306,3.166 2.853,5.828 4.641,8.012 1.788,2.185 3.846,3.817 6.158,4.917 1.123,0.558 2.31,0.917 3.572,1.076 1.272,0.153 2.577,0.123 3.915,-0.093 1.338,-0.215 2.667,-0.598 4.009,-1.156 1.441,-0.612 2.696,-1.378 3.765,-2.299 1.084,-0.915 1.973,-1.944 2.677,-3.067 0.7,-1.133 1.204,-2.295 1.505,-3.506 0.51,-1.884 0.599,-4.044 0.274,-6.496 -0.321,-2.441 -1.129,-5.203 -2.4,-8.286 -1.391,-3.314 -2.663,-6.103 -3.809,-8.359 -1.147,-2.256 -2.175,-4.11 -3.075,-5.541 z m 38.798,-4.583 c 0.229,0.344 0.525,0.88 0.909,1.598 0.375,0.723 0.806,1.642 1.273,2.765 0.715,1.716 1.092,3.267 1.135,4.689 0.049,1.408 -0.252,2.619 -0.874,3.646 -0.626,1.018 -1.6,1.813 -2.911,2.359 -1.46,0.596 -2.853,0.737 -4.17,0.418 -1.311,-0.308 -2.514,-1.028 -3.599,-2.139 -1.074,-1.114 -1.998,-2.572 -2.747,-4.371 -0.346,-0.832 -0.624,-1.558 -0.833,-2.179 -0.21,-0.62 -0.347,-1.185 -0.413,-1.695 z"
             id="path64"
             inkscape:connector-curvature="0" />
          <path
             style="fill:#42484c;fill-opacity:1;stroke:none"
             d="m 540.758,367.542 c -0.645,-3.592 -1.81,-6.761 -3.482,-9.497 -1.674,-2.748 -3.766,-5.01 -6.251,-6.78 -2.486,-1.769 -5.283,-2.969 -8.372,-3.625 -3.09,-0.656 -6.378,-0.683 -9.852,-0.082 -3.249,0.585 -6.148,1.657 -8.719,3.231 -2.561,1.561 -4.693,3.55 -6.385,5.953 -1.704,2.405 -2.867,5.149 -3.503,8.224 -0.634,3.086 -0.64,6.427 -0.026,10.037 0.658,3.67 1.824,6.907 3.484,9.703 1.659,2.796 3.722,5.086 6.189,6.882 2.456,1.797 5.235,3.023 8.324,3.679 3.079,0.658 6.378,0.683 9.885,0.076 3.293,-0.592 6.237,-1.672 8.821,-3.237 2.593,-1.578 4.735,-3.569 6.426,-5.983 1.699,-2.427 2.859,-5.194 3.485,-8.324 0.615,-3.128 0.618,-6.549 -0.024,-10.257 z m -8.289,1.256 c 0.341,1.999 0.257,3.855 -0.242,5.568 -0.501,1.701 -1.34,3.233 -2.524,4.563 -1.182,1.34 -2.622,2.452 -4.331,3.337 -1.695,0.894 -3.574,1.522 -5.638,1.886 -2.152,0.38 -4.2,0.444 -6.11,0.186 -1.923,-0.268 -3.656,-0.82 -5.192,-1.682 -1.547,-0.859 -2.825,-2.007 -3.846,-3.451 -1.019,-1.433 -1.709,-3.142 -2.07,-5.125 -0.333,-1.955 -0.254,-3.776 0.224,-5.473 0.479,-1.698 1.287,-3.213 2.444,-4.561 1.148,-1.346 2.572,-2.478 4.265,-3.383 1.683,-0.903 3.572,-1.544 5.668,-1.914 2.108,-0.372 4.134,-0.432 6.055,-0.175 1.919,0.244 3.663,0.795 5.244,1.649 1.569,0.855 2.88,1.997 3.932,3.424 1.043,1.441 1.758,3.156 2.121,5.151 z"
             id="path66"
             inkscape:connector-curvature="0" />
          <path
             style="fill:#42484c;fill-opacity:1;stroke:none"
             d="m 498.827,404.7 -1.083,31.005 8.984,0.313 0.708,-20.264 36.543,1.276 0.376,-10.74 z"
             id="path68"
             inkscape:connector-curvature="0" />
          <path
             style="fill:#42484c;fill-opacity:1;stroke:none"
             d="m 493.678,456.65 19.128,3.614 22.548,21.183 2.309,-12.221 -9.925,-7.172 c -0.938,-0.681 -1.826,-1.319 -2.65,-1.933 -0.826,-0.604 -1.634,-1.18 -2.422,-1.742 -0.777,-0.56 -1.567,-1.11 -2.382,-1.654 l 0.025,-0.133 c 1.016,-0.221 1.975,-0.44 2.889,-0.669 0.915,-0.228 1.856,-0.475 2.821,-0.728 0.976,-0.251 2.049,-0.53 3.241,-0.832 l 11.779,-3.002 2.334,-12.353 -28.971,10.621 -18.728,-3.538 z"
             id="path70"
             inkscape:connector-curvature="0" />
          <path
             style="fill:#42484c;fill-opacity:1;stroke:none"
             d="m 493.665,498.465 -12.793,-0.503 -4.147,11.15 48.259,0.929 5.018,-13.494 -37.374,-30.196 -3.958,10.642 10.131,7.662 z m 11.982,-9.533 8.039,6.307 c 1.115,0.847 2.274,1.674 3.489,2.511 1.215,0.837 2.378,1.654 3.462,2.454 l -0.047,0.126 c -1.355,-0.071 -2.789,-0.16 -4.283,-0.246 -1.49,-0.098 -2.931,-0.165 -4.341,-0.221 l -10.253,-0.352 z"
             id="path72"
             inkscape:connector-curvature="0" />
        </g>
        <path
           style="fill:#42484c;fill-opacity:1;stroke:none"
           d="m 290.246,639.034 c 0.867,0.932 1.857,1.718 2.582,1.868 2.373,0.492 5.098,0.341 7.461,0.622 1.618,0.193 3.097,0.728 4.201,1.443 1.254,0.812 2.186,2.277 2.827,3.841 0.879,2.144 1.079,4.796 3.008,5.927 0.156,-0.112 0.292,-0.329 0.321,-0.552 0.038,-0.287 0.018,-0.867 0.025,-0.977 0.03,-0.452 0.287,0.138 0.331,0.617 0.027,0.286 -0.04,0.601 -0.101,0.69 -0.162,0.263 -0.324,0.526 -0.49,0.786 -1.629,2.544 -2.884,4.135 -3.004,5.971 -0.195,3.226 0.536,5.053 0.359,5.288 -0.771,1.025 -1.589,1.67 -3.704,1.922 0.452,0.465 1.014,0.801 2.522,0.667 0.368,0.58 0.884,0.449 1.381,0.46 0.599,-0.536 1.376,-1.164 1.853,-1.584 0.213,-0.187 0.39,0.147 0.152,0.347 -0.499,0.419 -1.998,1.72 -2.241,1.903 -1.088,0.821 -2.6,2.074 -2.675,3.223 0.503,-0.129 1.385,-0.99 1.889,-1.12 -1.716,3.517 -1.228,5.962 -3.464,8.309 4.079,-0.188 3.968,-4.47 5.73,-6.607 0,1.23 -0.756,3.728 0.851,4.569 0.228,-2.043 1.218,-3.095 2.2,-4.143 0.614,-0.656 1.35,-1.433 1.624,-2.295 0.125,-0.394 0.214,-0.971 -0.137,-1.844 1.024,0.529 1.605,2.841 -0.443,5.564 1.906,-0.484 2.405,-2.256 2.846,-3.422 0.273,0.556 0.475,0.879 0.66,0.929 0.637,0.173 1.348,-2.497 1.056,-4.886 0.617,0.125 1.111,0.95 1.984,2.191 0.456,-1.557 1.085,-1.418 1.494,-3.218 1.653,0.309 3.321,-0.377 4.643,-2.504 0.932,-0.254 -0.268,1.664 -2.384,2.969 -0.737,0.84 -1.239,1.894 -1.342,2.955 -0.133,1.365 0.517,2.679 -0.002,3.648 -1.196,1.554 -3.78,2.741 -3.795,5.465 -1.826,0.518 -6.367,-0.53 -6.233,1.749 0.082,1.396 0.921,2.912 2.107,2.849 0.144,-0.566 0.464,-1.047 0.955,-1.404 0.648,-0.472 1.592,-0.254 2.041,-0.591 0.441,-0.331 0.79,-0.942 1.091,-1.41 0.211,-0.327 0.383,-0.72 0.735,-0.91 0.24,-0.13 0.399,0.182 0.159,0.312 -0.262,0.141 -0.449,0.545 -0.609,0.793 -0.331,0.515 -0.686,1.133 -1.174,1.499 -0.555,0.417 -1.456,0.166 -2.045,0.594 -0.377,0.274 -0.635,0.629 -0.774,1.045 l 0.038,-0.013 c -0.058,0.139 -0.102,0.277 -0.134,0.413 l -0.006,0.047 c 0.345,-0.462 0.86,-0.744 1.398,-0.327 0.618,0.48 0.473,1.693 0.03,2.256 -0.164,0.208 -0.305,0.353 -0.426,0.484 0.535,0.386 1.185,0.549 1.72,0.363 0.45,-0.155 1.319,-0.339 1.808,-1.934 l 0.001,10e-4 c -0.049,-0.562 0.167,-1.083 0.82,-1.618 0.733,-0.6 1.594,-1.328 2.061,-2.175 0.233,-0.421 0.26,-0.783 0.295,-1.257 0.021,-0.279 0.362,-0.252 0.341,0.027 -0.04,0.532 -0.077,0.931 -0.338,1.404 -0.491,0.891 -1.375,1.645 -2.146,2.276 -0.636,0.521 -0.777,1.011 -0.657,1.556 l 0.004,0.002 c 0.7,-0.834 2.702,-0.875 2.134,0.442 -0.118,0.272 -0.218,0.496 -0.285,0.701 0.268,0.127 0.543,0.208 0.887,0.234 0.775,0.061 2.275,-0.532 0.548,-2.063 1.932,0.402 3.04,-1.284 3.314,-3.407 -0.474,-0.796 0.004,-0.915 0.139,-0.716 0.273,0.68 1.041,1.972 2.843,0.452 l -0.014,-0.013 c -0.121,-0.087 -0.216,-0.23 -0.264,-0.402 l -0.003,-0.009 c -0.045,-0.142 -0.047,-0.282 -0.016,-0.418 0.057,-0.315 0.277,-0.643 0.746,-0.857 0.253,-0.137 0.537,-0.217 0.8,-0.211 0.041,-0.006 0.083,-0.01 0.126,-0.014 0.377,-0.661 0.177,-1.531 0.046,-1.805 -0.227,-0.478 -1.464,-0.055 -2.44,0.013 -0.586,0.041 -1.148,-0.206 -1.273,-0.528 0.005,-0.527 0.967,-1.72 1.543,-2.027 1.028,-0.546 2.206,0.088 2.799,-0.499 0.555,-0.549 0.793,-1.374 0.367,-2.536 0.413,-0.279 1.644,-0.387 2.007,-0.36 -0.837,-0.93 -1.314,-1.624 -1.655,-2.504 1.543,0.395 3.099,0.503 4.295,0.438 -0.924,-0.71 -1.399,-2.033 -1.653,-3.763 1.496,-0.144 2.948,1.409 4.88,-0.828 -0.798,0.015 -1.435,0.059 -1.854,-0.243 -1.105,-0.798 -0.684,-2.32 -1.895,-3.251 1.755,0.113 3.008,0.18 4.465,-0.983 -1.289,-0.366 -2.671,-1.008 -3.117,-1.782 1.6,-0.487 2.758,-1.458 2.847,-2.186 -4.071,0.542 -3.366,-1.35 -4.526,-1.333 1.472,-0.665 1.914,-2.376 1.318,-3.79 -1.4,2.659 -3.636,1.67 -5.608,1.95 -1.349,0.192 -2.353,1.299 -2.959,2.305 -1.915,-0.471 -2.984,-0.608 -4.598,-0.542 -0.975,0.04 -2.668,0.398 -3.299,1.156 -0.372,0.447 -1.054,0.18 -0.492,-0.351 1.593,-1.504 0.745,-4.595 -0.318,-5.208 2.511,0.167 3.663,0.263 5.408,-0.397 1.279,-0.484 2.733,-1.454 3.832,-2.32 0.971,-0.763 1.6,-1.434 2.529,-1.778 0.47,-0.174 0.953,-0.049 1.57,0.211 0,-0.519 0.042,-0.928 0.042,-1.446 0.721,-0.213 0.953,-0.274 1.898,0.179 -0.046,-0.593 -0.012,-0.871 -0.263,-1.223 0.642,-0.24 1.243,-0.059 2.069,0.168 -0.42,-0.623 -0.74,-1.756 -2.808,-2.046 0.173,-0.415 0.356,-0.805 0.753,-1.118 -0.79,-0.144 -1.567,0.213 -1.783,0.542 -0.085,0.13 -0.532,0.127 -0.461,-0.018 0.432,-0.878 0.893,-2.002 0.98,-3.192 0.154,-3.002 -1.117,-6.767 -3.294,-9.225 -0.966,-1.091 -2.072,-2.18 -3.018,-3.187 -2.557,-2.725 -4.703,-5.584 -4.655,-9.237 0.044,-3.429 2.311,-5.67 4.824,-6.029 3.959,-0.565 7.575,2.537 7.535,4.535 -0.006,0.309 -0.085,0.561 -0.251,0.201 -0.167,-0.365 -0.478,-0.911 -0.667,-1.084 -0.328,-0.298 -0.695,0.113 -0.78,0.922 -0.125,1.184 -0.028,3.04 -0.309,4.09 -0.314,1.17 -1.355,1.283 -2.82,1.327 1.709,1.323 3.021,0.645 3.238,0.506 0.108,0.44 0.004,0.858 -0.011,1.106 0.762,-0.017 1.908,-0.428 2.98,-1.726 0.467,2.228 -1.469,3.593 -1.843,4.737 -0.343,1.049 0.169,2.728 -0.043,3.772 1.71,-1.429 1.786,-1.555 2.126,-3.52 0.573,0.791 0.814,1.66 0.331,3.13 -0.482,1.469 -1.265,2.823 -1.357,4.027 -0.067,0.887 0.316,2.16 1.125,2.834 -0.244,-1.755 0.083,-3.177 0.689,-4.303 0.47,-0.875 0.846,-1.343 1.139,-1.776 0.258,-0.381 0.555,-0.77 0.718,-1.348 0.161,-0.568 0.611,-0.433 0.436,0.026 -0.748,1.972 -0.854,3.18 -0.681,4.495 0.395,3.003 2.606,4.175 4.166,4.148 0.747,-0.014 2.211,-0.146 3.079,-1.782 -0.888,0.201 -1.885,0.226 -2.418,0.063 -2.439,-0.744 -1.424,-4.235 -0.554,-6.503 0.719,-0.52 -0.429,1.448 1.186,2.031 -0.174,-2.552 1.077,-3.359 1.034,-4.936 -0.056,-2.087 -1.251,-3.806 -2.015,-4.819 l -0.039,0.377 c -0.966,-0.052 -2.051,-0.676 -2.762,-2.687 -0.05,-0.143 0.319,-0.477 0.501,-0.081 0.351,0.762 0.606,1.194 0.931,1.533 0.365,0.379 0.917,0.595 1.019,0.636 0.081,-0.212 0.046,-0.395 0.201,-0.742 0.236,0.289 0.486,0.333 0.825,0.44 1.02,0.32 2.381,0.118 3.112,-0.225 -1.574,-0.792 -1.461,-1.918 -3.782,-2.889 0.428,-0.028 1.004,-0.159 1.382,-0.418 -0.86,-0.53 -1.443,-1.436 -1.982,-2.126 -1.109,-1.418 -2.049,-2.613 -3.404,-2.786 -0.71,-0.09 -1.634,-0.35 -2.555,0.825 -2.394,-3.852 -5.774,-5.009 -7.97,-5.087 -6.257,-0.221 -9.448,5.428 -9.363,9.055 0.051,2.178 0.359,4.021 1.727,6.489 1.324,2.39 4.197,4.65 5.886,6.687 1.948,2.349 3.145,5.618 2.791,8.725 -0.347,3.035 -3.453,9.689 -11.119,8.643 -1.2,-3.887 -2.481,-6.55 -4.322,-8.819 -1.343,-1.655 -3.968,-3.551 -5.093,-5.648 -0.439,-0.82 -0.737,-1.732 -0.955,-2.704 -0.321,-0.584 -0.719,-1.189 -1.196,-1.566 -0.673,-0.534 -1.278,-0.683 -1.815,-1.272 0.511,1.294 1.365,2.514 2.144,3.593 l 0.723,0.999 -1.146,-0.402 c -0.702,-0.246 -1.299,-0.536 -1.852,-0.945 1.235,2.558 1.501,5.74 -0.546,7.947 l -0.839,0.905 0.195,-1.234 c 0.238,-1.501 -0.203,-3.103 -1.036,-4.342 -0.168,-0.249 -0.342,-0.492 -0.513,-0.737 -0.001,0.401 -0.057,0.815 -0.222,1.319 l -0.191,0.585 -0.428,-0.431 c -0.612,-0.615 -1.145,-1.288 -1.538,-2.038 0.06,0.359 0.12,0.718 0.173,1.079 0.14,0.942 0.269,2.074 -0.047,2.99 -0.537,1.552 -1.884,2.719 -3.424,3.12 l -0.952,0.249 0.547,-0.84 c 1.063,-1.63 1.766,-3.174 1.113,-4.704 -0.025,0.524 -0.172,1.037 -0.492,1.523 l -0.44,0.668 -0.231,-0.772 c -0.159,-0.532 -0.694,-1.162 -1.054,-1.684 0.015,0.166 0.019,0.341 0.004,0.534 -0.143,1.915 -2.323,1.667 -1.66,4.545 l 0.243,1.053 -0.837,-0.656 c -1.167,-0.915 -1.6,-2.651 -1.391,-4.152 -0.018,0.029 -0.033,0.055 -0.046,0.075 -0.115,0.188 -0.279,0.392 -0.324,0.613 -0.22,1.086 0.207,2.41 -0.041,3.56 l -0.279,1.291 -0.224,-0.627 c -0.051,0.141 -0.112,0.275 -0.178,0.404 z m -8.983,-34.244 c 0.064,2.168 1.479,2.791 3.303,2.816 2.068,0.029 3.601,-1.237 7.352,-1.233 0.007,-0.008 0.016,-0.018 0.024,-0.03 0.302,0.526 0.762,0.822 1.452,0.91 -0.096,-0.807 -0.258,-1.482 -0.239,-2.28 l 0.083,-0.032 c 0.341,0.205 0.761,0.41 1.259,0.615 0.347,-0.511 0.612,-1.022 0.851,-1.532 0.398,-0.141 0.759,-0.212 1.062,-0.143 0.084,0.019 0.165,0.049 0.242,0.09 0.413,0.221 0.3,1.02 0.285,1.413 -0.009,0.239 -0.014,0.48 0.009,0.719 0.065,0.678 0.216,1.508 -0.064,2.154 -0.35,0.805 -1.832,-0.834 -2.1,-1.203 l -0.394,-0.544 -0.255,0.626 c -0.229,0.563 -0.853,1.124 -1.44,1.262 -0.325,0.076 -0.823,0.01 -1.258,0.013 0.029,-0.3 0.057,-0.598 0.086,-0.884 -3.069,0.035 -4.544,1.455 -6.969,1.499 -2.425,0.043 -4.103,-1.065 -3.289,-4.236 z m 11.681,1.951 c -0.08,-0.545 -0.165,-1.074 -0.166,-1.638 -0.277,0.086 -0.552,0.147 -0.82,0.167 0.133,0.675 0.383,1.221 0.986,1.471 z m 0.742,-1.987 c 0.218,0.118 0.444,0.224 0.67,0.323 0.171,-0.275 0.325,-0.557 0.468,-0.843 -0.364,0.16 -0.748,0.348 -1.138,0.52 z m -13.157,13.252 c -1.944,-1.119 -3.53,-1.704 -4.893,-1.789 -4.224,-0.262 -6.336,3.185 -10.454,2.778 -0.855,-0.085 -1.613,-1.302 -2.466,-1.399 -0.832,-0.095 -2.139,0.407 -2.834,-0.069 -1.429,-0.978 -2.588,-2.037 -4.158,-2.286 -0.832,-0.132 -1.213,0.177 -2.014,0.4 -0.363,0.101 -0.815,0.075 -1.435,0.176 -0.32,0.053 -0.273,0.517 -0.353,0.79 -0.01,0.034 -0.015,0.07 -0.015,0.107 0.151,0.143 0.233,0.386 0.264,0.665 0.038,0.346 0.053,0.612 -0.133,0.839 -0.016,0.152 -0.014,0.329 0.038,0.555 0.279,0.048 0.564,0.056 0.848,0.034 0.598,-0.047 1.182,-0.276 1.699,-0.582 0.449,-0.266 0.756,0.022 0.915,0.418 0.622,0.048 1.243,0.096 1.864,0.144 l 0.21,0.016 -0.039,0.213 c -0.187,1.014 -0.598,1.915 -1.541,2.342 -0.003,0.054 -0.006,0.106 -0.011,0.156 0.382,-0.144 0.619,-0.206 1.113,-0.288 l 0.198,-0.033 0.019,0.205 c 0.057,0.592 0.19,1.363 -0.327,1.771 -0.033,0.222 -0.148,0.464 -0.308,0.697 0.291,-0.086 0.598,-0.132 0.856,-0.153 l 0.174,-0.015 0.027,0.177 c 0.061,0.4 -0.089,0.917 -0.389,1.197 -0.072,0.38 -0.488,0.841 -0.969,1.236 0.172,-0.059 0.35,-0.124 0.534,-0.196 1.801,-0.522 2.751,-1.58 4.337,-1.912 0.485,-0.102 1.218,-0.136 1.815,-0.066 0.322,0.037 0.357,0.298 0.101,0.575 -0.289,0.313 -0.909,0.662 -1.125,0.997 1.462,0.014 2.015,0.089 3.237,-0.076 0.149,-0.02 0.403,-0.441 0.748,-0.618 0.389,-0.2 0.785,-0.016 0.427,0.358 -0.468,0.489 -1.215,1.036 -0.86,1.781 0.518,-0.014 0.753,-0.444 1.266,-0.788 0.572,-0.383 1.607,-0.426 2.277,-0.021 0.154,0.093 0.237,0.27 0.067,0.355 -0.466,0.231 -0.86,0.535 -1.258,0.862 -0.581,0.479 -1.091,1.008 -1.402,1.388 0.96,0.059 2.203,0.067 3.576,0.01 0.528,-0.022 0.927,0.002 1.278,-0.472 0.168,-0.226 0.357,-0.471 0.495,-0.708 0.154,-0.264 0.477,-0.065 0.323,0.199 -0.712,1.225 -1.504,2.425 -2.266,3.616 0.789,0.037 1.432,-0.04 2.077,-0.171 0.701,-0.143 1.226,-0.334 1.512,-0.724 0.307,-0.42 0.541,-0.748 0.837,-1.1 0.196,-0.233 0.481,0.021 0.285,0.253 -0.309,0.367 -0.592,0.756 -0.872,1.148 l 0.024,-0.006 c -0.762,0.988 -0.678,1.258 -1.44,2.247 1.734,0.137 2.394,-0.07 3.107,-0.762 0.341,-0.423 0.669,-0.857 0.954,-1.296 0.165,-0.256 0.478,-0.041 0.313,0.215 -0.196,0.302 -0.411,0.601 -0.637,0.896 1.056,0.136 1.959,-0.743 2.899,-0.761 0.17,-0.003 0.339,-0.002 0.506,0.002 0.592,-0.894 1.229,-1.734 2.131,-2.094 l 0.198,-0.437 c -0.013,-0.249 -0.002,-0.503 0.032,-0.737 -0.737,0.88 -1.53,1.703 -2.68,1.912 -0.845,0.154 -2.138,0.009 -2.931,-0.343 l -1.35,-0.599 1.463,-0.142 c 2.411,-0.234 2.025,-1.556 3.001,-3.3 0.598,-1.068 1.718,-2.105 2.714,-2.852 l -0.033,-0.122 c -0.085,-0.312 -0.064,-0.618 0.049,-0.885 -0.549,0.232 -1.134,0.594 -1.57,0.843 -0.461,0.265 -0.934,0.531 -1.425,0.733 -0.579,0.237 -1.208,0.281 -1.808,0.101 l -0.681,-0.204 0.547,-0.466 c 0.483,-0.411 0.94,-0.844 1.361,-1.323 0.267,-0.305 0.514,-0.632 0.786,-0.932 0.189,-0.207 0.386,-0.387 0.594,-0.548 -0.203,0.005 -0.394,-0.006 -0.555,-0.032 l -1.248,-0.205 1.154,-0.531 c 0.475,-0.219 0.759,-0.886 1.23,-1.364 z m -28.732,-0.584 c -0.046,-0.421 -0.15,-0.52 -0.42,-0.415 -0.209,0.082 -0.576,0.289 -0.748,0.565 -0.251,0.404 -0.291,1.011 -0.201,1.492 0.614,-0.761 0.825,-0.755 1.176,-0.975 0.272,-0.17 0.228,-0.342 0.193,-0.667 z m 4.198,7.208 c -0.229,0.181 -0.46,0.318 -0.657,0.38 -0.749,0.24 -1.448,0.214 -2.165,0.141 -0.172,1.255 0.646,1.721 2.128,1.454 0.561,-0.322 1.389,-0.948 1.641,-1.407 -0.364,-0.051 -0.732,-0.264 -0.947,-0.568 z m 1.091,0.192 0.008,-0.005 c 0.184,-0.141 0.298,-0.439 0.314,-0.698 -0.35,0.045 -0.784,0.142 -1.074,0.329 0.179,0.219 0.484,0.367 0.752,0.374 z m -1.389,-2.661 c -0.08,0.046 -0.181,0.081 -0.307,0.104 -0.999,0.182 -2.324,0.141 -3.399,0.057 -0.496,0.662 -0.2,1.886 0.491,2.364 0.924,0.102 1.816,0.252 2.745,-0.045 0.432,-0.138 1.217,-0.848 1.394,-1.397 -0.337,0.041 -0.761,0.004 -0.854,-0.364 -0.06,-0.237 -0.08,-0.478 -0.07,-0.719 z m 1.155,0.645 c 0.244,-0.27 0.192,-0.779 0.148,-1.164 -0.365,0.067 -0.564,0.126 -0.9,0.255 -0.043,0.295 -0.042,0.595 0.031,0.885 0.036,0.141 0.499,0.074 0.608,0.05 z m -5.169,-3.725 c -0.404,0.463 -0.335,1.97 0.459,2.864 1.021,0.076 2.254,0.108 3.182,-0.061 0.287,-0.053 0.324,-0.214 0.332,-0.437 -0.356,0.045 -0.839,0.013 -0.934,-0.363 -0.201,-0.793 0.047,-1.635 0.369,-2.357 l 0.036,-0.083 c -0.066,-0.112 -0.161,-0.175 -0.317,-0.083 -0.565,0.335 -1.202,0.58 -1.857,0.632 -0.428,0.034 -0.858,0.003 -1.27,-0.112 z m 4.171,1.935 c 0.775,-0.339 1.127,-1.054 1.306,-1.859 -0.59,-0.046 -1.18,-0.091 -1.771,-0.137 l -0.013,-10e-4 c -0.256,0.606 -0.455,1.318 -0.29,1.968 0.035,0.138 0.567,0.074 0.677,0.049 z m 28.878,15.807 c 0.002,-0.173 0.016,-2.025 -0.009,-2.198 -0.043,-0.304 0.33,-0.36 0.372,-0.056 0.029,0.199 0.015,2.062 0.013,2.257 -0.002,0.306 -0.378,0.305 -0.376,-0.003 z m -1.021,0.142 c 0.002,-0.173 0.017,-1.603 -0.008,-1.776 -0.043,-0.304 0.329,-0.36 0.372,-0.056 0.029,0.199 0.015,1.64 0.013,1.835 -0.003,0.305 -0.379,0.304 -0.377,-0.003 z m -1.255,0.398 c 10e-4,-0.173 0.015,-1.462 -0.009,-1.635 -0.044,-0.304 0.329,-0.36 0.372,-0.056 0.028,0.199 0.015,1.5 0.013,1.694 -0.003,0.305 -0.379,0.305 -0.376,-0.003 z m -0.896,0.31 c 10e-4,-0.173 0.015,-0.759 -0.009,-0.932 -0.043,-0.304 0.329,-0.36 0.372,-0.056 0.028,0.199 0.015,0.797 0.013,0.991 -0.003,0.305 -0.379,0.305 -0.376,-0.003 z m -0.896,-0.192 c 0.002,-0.173 0.015,-0.477 -0.009,-0.65 -0.043,-0.304 0.329,-0.36 0.372,-0.056 0.028,0.199 0.016,0.516 0.014,0.709 -0.003,0.304 -0.379,0.305 -0.377,-0.003 z m -3.989,-1.043 c -0.027,0.171 -0.084,0.469 -0.085,0.644 -10e-4,0.308 -0.378,0.306 -0.376,-0.002 10e-4,-0.2 0.059,-0.512 0.089,-0.703 0.047,-0.3 0.419,-0.242 0.372,0.061 z m -0.821,-0.026 c -0.027,0.171 -0.084,0.47 -0.085,0.645 -0.001,0.307 -0.378,0.305 -0.376,-0.002 0.001,-0.201 0.059,-0.513 0.089,-0.703 0.047,-0.3 0.419,-0.243 0.372,0.06 z m -1.717,0.578 c -0.027,0.17 -0.015,0.257 -0.016,0.432 -10e-4,0.308 -0.378,0.306 -0.376,-0.002 10e-4,-0.2 -0.01,-0.301 0.02,-0.491 0.047,-0.3 0.419,-0.243 0.372,0.061 z m 5.594,0.452 c 0.001,-0.173 0.015,-0.617 -0.009,-0.791 -0.044,-0.304 0.329,-0.36 0.372,-0.055 0.028,0.198 0.015,0.654 0.013,0.849 -0.003,0.305 -0.379,0.304 -0.376,-0.003 z m -1.26,-0.415 c 0.012,-0.167 0.068,-0.381 0.121,-0.555 0.035,-0.305 0.409,-0.26 0.374,0.045 -0.037,0.2 -0.1,0.426 -0.132,0.613 -0.052,0.3 -0.442,0.193 -0.363,-0.103 z m 52.266,18.251 c 1.724,0.225 2.269,2.941 2.348,4.372 0.016,0.307 -0.359,0.329 -0.376,0.022 -0.066,-1.204 -0.536,-3.817 -2.019,-4.01 -0.297,-0.038 -0.249,-0.423 0.047,-0.384 z m 0.468,2.087 c 0.429,0.657 0.685,1.243 0.973,1.967 0.113,0.285 -0.236,0.432 -0.349,0.147 -0.278,-0.699 -0.522,-1.263 -0.936,-1.898 -0.167,-0.255 0.146,-0.471 0.312,-0.216 z m -4.276,10.405 c -0.095,-0.651 -0.094,-1.237 -0.08,-1.892 0.006,-0.307 0.382,-0.299 0.376,0.008 -0.013,0.632 -0.016,1.198 0.076,1.827 0.044,0.304 -0.328,0.361 -0.372,0.057 z m -0.662,1.084 c -0.209,-0.686 -0.326,-1.594 -0.311,-2.313 0.006,-0.307 0.382,-0.299 0.376,0.009 -0.014,0.676 0.098,1.542 0.294,2.189 0.089,0.293 -0.271,0.409 -0.359,0.115 z m -0.3,1.366 c -0.336,-0.524 -0.475,-1.039 -0.301,-1.661 0.082,-0.296 0.444,-0.189 0.362,0.107 -0.143,0.511 -0.022,0.912 0.253,1.34 0.165,0.257 -0.149,0.47 -0.314,0.214 z m -0.349,1.052 c -0.412,-0.297 -0.56,-0.57 -0.629,-1.094 -0.04,-0.305 0.333,-0.357 0.373,-0.052 0.055,0.419 0.148,0.596 0.472,0.829 0.245,0.176 0.029,0.493 -0.216,0.317 z m -0.976,1.507 c -0.175,-0.376 -0.254,-0.756 -0.301,-1.168 -0.034,-0.306 0.339,-0.35 0.374,-0.045 0.042,0.369 0.11,0.71 0.266,1.046 0.129,0.278 -0.211,0.444 -0.339,0.167 z m -25.417,-33.674 c 0.527,-0.104 0.987,-0.396 1.376,-0.768 0.219,-0.21 0.476,0.074 0.257,0.283 -0.442,0.423 -0.964,0.747 -1.563,0.865 -0.293,0.058 -0.364,-0.322 -0.07,-0.38 z m 1.219,0.821 c 0.549,-0.109 1.153,-0.453 1.522,-0.884 0.197,-0.23 0.48,0.025 0.282,0.256 -0.424,0.496 -1.102,0.884 -1.733,1.008 -0.294,0.058 -0.365,-0.322 -0.071,-0.38 z m 1.891,0.308 c 0.528,-0.105 0.988,-0.396 1.377,-0.769 0.219,-0.209 0.475,0.074 0.256,0.284 -0.442,0.423 -0.964,0.747 -1.562,0.865 -0.294,0.058 -0.365,-0.323 -0.071,-0.38 z m 1.438,0.573 c 0.59,-0.228 1.009,-0.487 1.382,-1.029 0.172,-0.251 0.479,-0.028 0.307,0.223 -0.417,0.608 -0.895,0.913 -1.557,1.168 -0.281,0.108 -0.412,-0.255 -0.132,-0.362 z m 1.175,0.367 c 0.543,-0.067 0.959,-0.266 1.37,-0.63 0.226,-0.201 0.471,0.092 0.245,0.293 -0.466,0.414 -0.952,0.645 -1.57,0.721 -0.296,0.037 -0.341,-0.347 -0.045,-0.384 z m 0.871,1.06 c 0.778,-0.153 1.43,-0.751 1.844,-1.422 0.16,-0.26 0.478,-0.053 0.317,0.207 -0.47,0.763 -1.208,1.421 -2.09,1.596 -0.294,0.058 -0.365,-0.323 -0.071,-0.381 z m 0.925,0.189 c 1.047,10e-4 1.467,-0.256 2.073,-1.062 0.183,-0.243 0.481,-0.006 0.298,0.237 -0.679,0.902 -1.206,1.214 -2.371,1.213 -0.299,-0.001 -0.299,-0.388 0,-0.388 z m 1.358,0.579 c 0.64,-0.06 1.106,-0.308 1.466,-0.871 0.164,-0.257 0.478,-0.045 0.315,0.212 -0.423,0.663 -0.992,0.974 -1.747,1.044 -0.298,0.028 -0.332,-0.358 -0.034,-0.385 z m 2.151,0.761 c 0.139,-0.097 0.277,-0.176 0.402,-0.296 0.218,-0.209 0.475,0.075 0.256,0.284 -0.143,0.137 -0.288,0.222 -0.447,0.332 -0.247,0.173 -0.458,-0.147 -0.211,-0.32 z m -1.117,-0.423 c 0.365,-0.095 0.789,-0.469 1.032,-0.756 0.196,-0.232 0.48,0.023 0.284,0.254 -0.298,0.352 -0.778,0.761 -1.223,0.877 -0.29,0.076 -0.382,-0.299 -0.093,-0.375 z m 9.25,13.285 c 0.104,-0.288 0.198,-0.124 0.097,0.164 -0.48,1.369 -1.047,2.54 -1.825,3.721 -0.645,0.979 -1.321,1.894 -2.181,2.69 l -0.648,-0.512 c 1.167,-0.748 1.889,-1.395 2.573,-2.338 0.774,-1.07 1.388,-2.08 1.984,-3.725 z m -4.451,4.474 c 0.687,-0.326 1.421,-0.709 2.046,-1.147 0.247,-0.174 0.46,0.146 0.212,0.32 -0.642,0.451 -1.394,0.844 -2.101,1.179 -0.271,0.128 -0.429,-0.223 -0.157,-0.352 z m -0.344,-1.355 c 0.787,-0.051 1.656,-0.338 2.309,-0.797 0.247,-0.173 0.46,0.147 0.213,0.32 -0.71,0.498 -1.644,0.808 -2.498,0.863 -0.298,0.02 -0.322,-0.366 -0.024,-0.386 z m 0.531,-1.4 c 0.533,-0.084 1.066,-0.559 1.414,-0.965 0.197,-0.231 0.48,0.025 0.282,0.256 -0.412,0.481 -1.009,0.992 -1.639,1.092 -0.296,0.046 -0.353,-0.337 -0.057,-0.383 z m -0.268,-2.835 c 0.601,-0.372 1.61,-1.179 2.083,-1.705 0.203,-0.226 0.479,0.037 0.276,0.262 -0.497,0.554 -1.533,1.384 -2.165,1.775 -0.256,0.159 -0.45,-0.173 -0.194,-0.332 z m 0.081,-1.274 c 0.771,-0.401 1.216,-0.803 1.721,-1.503 0.179,-0.247 0.481,-0.016 0.303,0.231 -0.541,0.748 -1.031,1.19 -1.855,1.618 -0.266,0.138 -0.436,-0.207 -0.169,-0.346 z m 0.257,-1.544 c 0.402,-0.345 0.9,-0.888 1.2,-1.33 0.171,-0.252 0.479,-0.031 0.309,0.221 -0.319,0.471 -0.84,1.039 -1.268,1.407 -0.23,0.197 -0.471,-0.101 -0.241,-0.298 z m 0.018,-1.567 0.723,-0.843 c 0.135,-0.158 0.423,0.093 0.268,0.274 l -0.718,0.836 c -0.172,0.2 -0.454,-0.055 -0.273,-0.267 z m -0.527,6.269 c 0.864,-0.517 1.694,-1.336 2.35,-2.105 0.197,-0.231 0.48,0.025 0.283,0.256 -0.685,0.801 -1.543,1.645 -2.445,2.184 -0.258,0.154 -0.447,-0.181 -0.188,-0.335 z m -7.2,-11.484 c -1.673,1.416 -2.232,3.335 -3.603,3.662 -1.096,0.261 -2.309,0.032 -3.573,-0.073 -1.846,-0.154 -3.308,-0.388 -5.673,-0.223 -1.25,0.088 -2.199,0.899 -3.51,1.351 -0.662,0.228 -1.241,0.338 -1.87,0.23 0.322,0.586 0.626,1.046 1.745,1.036 0.264,-0.003 0.21,0.49 -0.055,0.504 -1.915,0.101 -3.721,-0.493 -5.162,-2.077 -0.43,1.295 -0.164,2.164 0.994,2.915 -1.043,0.319 -4.603,-0.768 -7.461,-0.993 -1.497,-0.118 -2.804,0.255 -3.453,0.64 -1.002,0.593 -2.726,1.82 -2.96,4.247 -0.141,1.467 1.194,4.029 3.288,3.385 -2.815,-2.052 -1.3,-5.413 0.649,-5.538 1.794,-0.115 2.768,1.816 5.844,1.728 0.71,-0.02 1.458,-0.19 2.502,-0.491 0.201,-0.058 0.268,0.352 0.075,0.434 -1.687,0.714 -4.142,0.526 -6.246,2.007 2.07,-0.276 3.352,0.812 5.237,1.089 0.918,0.134 2.185,0.146 3.333,-0.354 0.14,-0.062 0.276,-0.49 0.444,-0.651 0.147,-0.142 0.409,-0.021 0.326,0.159 -0.652,1.409 -1.496,2.576 -2.405,3.232 -1.006,0.725 -2.028,0.537 -2.97,0.901 -1.377,0.531 -2.519,1.493 -2.49,3.32 1.537,-1.349 3.013,-1.852 5.211,-1.432 -0.323,0.375 -0.782,0.57 -1.056,1.048 0.802,0.186 1.693,0.095 2.43,-0.404 0.504,-0.342 0.901,-0.875 1.292,-1.641 0.082,-0.162 0.521,-0.244 0.428,0.204 -0.135,0.657 -0.869,1.525 -1.757,2.297 -1.039,0.903 -2.289,1.7 -3.042,2.266 -0.67,0.504 -1.13,0.748 -1.505,1.559 -0.364,0.788 -0.69,1.85 -1.026,2.493 -1.063,2.039 -2.657,3.87 -4.074,4.544 -0.168,0.079 -2.827,-0.007 -4.592,0.073 -0.876,0.04 -1.587,0.136 -1.897,0.534 -0.208,0.267 -0.339,0.709 -0.255,1.303 0.451,-0.217 0.971,-0.398 1.351,-0.524 0.285,-0.095 0.4,0.274 0.116,0.368 -0.474,0.158 -1.234,0.423 -1.708,0.724 -0.668,0.556 -1.823,1.443 -0.263,2.72 0.039,-1.58 1.556,-1.751 2.023,-2.045 l 0.042,-0.019 c -0.022,-0.203 -0.073,-0.452 -0.11,-0.595 -0.076,-0.297 0.287,-0.397 0.364,-0.099 0.036,0.138 0.078,0.339 0.105,0.531 0.722,-0.332 1.484,-0.705 2.27,-0.909 0.932,-0.242 1.848,-0.298 2.568,-0.665 0.403,-0.205 0.747,-0.443 0.997,-0.725 0.126,-0.142 0.62,0.007 0.324,0.434 -0.202,0.291 -0.576,0.614 -1.042,0.837 -0.702,0.336 -1.685,0.453 -2.541,0.673 -1.173,0.302 -2.173,0.679 -2.442,0.954 -0.561,0.571 -0.367,1.37 0.008,2.005 0.175,-0.352 0.48,-0.625 0.887,-0.818 0.271,-0.129 0.429,0.222 0.158,0.351 -0.41,0.195 -0.688,0.474 -0.791,0.861 -0.102,0.823 0.024,1.559 0.582,2.23 0.165,-0.833 0.432,-1.317 0.63,-1.632 0.281,-0.45 0.568,-0.807 0.947,-1.201 0.21,-0.219 0.478,0.053 0.268,0.272 -0.202,0.21 -0.405,0.444 -0.596,0.681 0.914,0.257 2.896,0.495 4.975,-0.744 1.451,-0.864 2.132,-2.156 3.727,-3.804 0.099,-0.102 0.381,0.191 0.299,0.307 -0.681,0.96 -0.996,2.308 1.143,2.967 0.063,0.019 0.126,0.035 0.189,0.049 0.128,-0.128 0.296,-0.232 0.442,-0.311 0.187,-0.223 0.266,-0.612 0.639,-0.652 0.338,-0.035 0.612,0.15 0.758,0.417 0.215,-0.212 0.39,-0.476 0.507,-0.782 0.394,-1.032 -0.683,-1.969 -0.552,-3.172 0.051,-0.471 0.216,-1.016 0.968,-1.488 0.644,1.177 1.104,2.676 3.857,2.665 -0.211,-0.827 -0.681,-1.404 -1.572,-2.211 0.564,0.009 1.87,0.074 3.642,0.205 -0.921,-0.649 -1.144,-1.027 -1.442,-1.47 0.632,-0.299 2.514,-0.588 4.12,-1.003 0.932,-0.241 1.383,-1.11 1.659,-1.634 0.397,-0.757 -0.627,-1.309 -0.894,-2.39 -0.433,-1.75 -0.145,-3.685 0.083,-5.077 -0.164,0.055 -0.329,0.096 -0.489,0.109 l -0.197,0.016 -0.006,-0.203 c -0.028,-0.964 0.109,-1.663 -0.119,-2.525 -0.193,0.449 -0.423,0.729 -0.737,1.233 l -0.228,0.366 -0.112,-0.419 c -0.311,-1.167 -0.459,-2.279 -0.176,-3.472 0.071,-0.298 0.436,-0.207 0.366,0.092 -0.234,0.983 -0.151,1.909 0.069,2.86 0.27,-0.406 0.47,-0.696 0.64,-1.295 l 0.148,-0.523 0.206,0.502 c 0.459,1.122 0.307,1.859 0.315,2.949 0.315,-0.073 0.612,-0.217 0.907,-0.347 0.186,0.449 0.457,1.014 0.73,1.397 0.674,0.948 1.718,1.647 3.338,1.892 -1.012,-1.405 -2.047,-3.723 -0.739,-5.559 0.695,-0.973 1.849,-1.723 3.209,-2.25 1.272,-0.493 2.57,-1.293 3.761,-2.186 0.227,-0.806 0.62,-1.558 1.051,-2.27 0.138,-0.226 0.279,-0.452 0.424,-0.676 l -0.002,-0.008 c -0.282,-1.422 -1.168,-2.577 -1.63,-3.937 -0.314,-0.924 -0.198,-2.222 -0.724,-3.039 -0.164,-0.256 0.149,-0.47 0.314,-0.214 0.603,0.938 0.427,2.128 0.765,3.125 0.436,1.283 1.212,2.326 1.563,3.638 0.366,-0.551 0.747,-1.095 1.124,-1.638 -2.076,-1.274 -2.302,-4.087 -3.141,-6.133 -0.143,-0.347 -0.305,-0.701 -0.488,-1.05 z m -23.123,38.24 c 1.071,-0.008 1.876,-0.607 2.306,-1.698 0.103,-0.261 -0.05,-0.691 -0.42,-0.651 -0.143,0.015 -0.336,0.523 -0.469,0.591 -0.171,0.089 -0.42,0.244 -0.474,0.379 -0.22,0.539 -0.236,0.978 -0.943,1.379 z m -6.25,-7.768 c -1.609,-0.855 -3.576,-1.657 -5.484,-2.089 -0.616,-0.139 -0.835,0.307 -1.265,0.783 -1.855,-0.054 -2.607,0.567 -2.977,2.325 0.642,-0.388 1.61,-1.011 3.071,-1.521 -0.105,-0.298 0.388,-0.434 0.353,-0.114 -0.057,0.51 -0.055,0.926 -0.008,1.294 0.343,-0.06 0.693,-0.076 0.981,-0.09 0.511,-0.023 1.024,-0.031 1.535,-0.035 0.65,-0.005 1.299,-10e-4 1.948,-0.002 0.259,0 0.742,0.023 1.003,-0.018 0.284,-0.138 0.566,-0.32 0.843,-0.533 z m -21.232,-37.97 c 1.289,-0.793 2.2,-0.774 2.841,-0.25 0.684,0.561 1.538,-0.188 1.009,-0.956 -0.483,-0.702 -3.093,-0.926 -3.85,1.206 z m 6.196,16.662 c -0.832,-1.294 -0.675,-2.052 -0.141,-2.691 0.786,-0.942 -0.458,-2.113 -1.189,-1.131 -0.501,0.674 -1.125,2.885 1.33,3.822 z m -8.71,-4.156 c 0.137,-1.893 1.774,-1.473 2.05,-1.973 0.891,-1.614 -0.003,-1.985 -0.542,-1.643 -1.269,0.804 -1.822,2.474 -1.508,3.616 z m 17.605,-0.359 c -0.048,-0.658 -0.284,-1.226 -0.481,-1.464 -0.279,-0.337 -0.577,-0.126 -0.722,-0.509 -0.369,-0.973 1.556,-1.499 1.836,-0.912 0.249,0.523 0.353,1.769 -0.633,2.885 z m -10.705,0.747 c -0.259,-0.498 -0.163,-1.074 0.228,-1.629 0.501,-0.713 1.515,-1.379 2.158,-2.297 0.803,-1.147 1.05,-2.143 1.131,-3.195 0.039,-0.513 -0.572,-0.665 -0.608,-0.117 -0.106,1.641 -0.715,2.641 -1.057,2.763 -0.198,0.071 -0.657,0.029 -1.036,0.187 -0.429,0.18 -0.796,0.561 -0.979,0.564 -0.328,0.004 -0.61,-0.11 -0.797,-0.448 -0.17,0.778 -0.325,1.43 -0.826,1.661 0.017,-0.316 0.048,-0.703 -0.085,-0.987 -0.068,-0.146 -0.512,-0.227 -0.396,0.263 0.27,1.139 -0.787,2.101 -1.699,2.021 -0.389,-0.034 -0.631,-0.309 -0.845,-0.664 0.116,-0.069 0.216,-0.16 0.288,-0.291 0.344,-0.622 0.785,-1.807 -0.065,-2.241 -0.319,-0.163 -0.705,-0.112 -1.002,0.076 -0.275,0.175 -0.529,0.397 -0.755,0.653 -0.033,-0.034 -0.063,-0.069 -0.089,-0.106 -0.126,-0.174 -0.178,-0.747 -0.095,-1.028 0.183,-0.619 1.077,-1.366 1.99,-1.648 0.946,-0.293 2.178,-0.029 3.32,-0.455 0.891,-0.332 2.873,-1.469 4.726,-2.521 0.243,-0.138 0.018,-0.654 -0.306,-0.458 l -1.061,0.621 c -0.297,-0.228 -0.484,-0.583 -0.901,-0.75 -1.25,-0.503 -2.846,0.35 -3.31,-1.496 -0.108,-0.433 0.032,-0.895 0.305,-1.308 0.943,0.754 2.113,-0.21 1.676,-1.242 1.457,-0.357 2.578,1.088 3.791,2.097 0.856,0.713 1.834,1.247 2.514,1.039 2.004,-0.611 3.074,-2.962 4.944,-3.753 1.87,-0.791 4.611,-0.949 6.411,-2.296 1.505,-1.127 2.385,-4.007 4.121,-4.57 l 0.03,-0.066 c 0.025,0.088 0.053,0.17 0.086,0.247 l 0.108,0.25 0.194,-0.188 c 0.248,-0.242 0.562,-0.528 0.87,-0.755 0.013,0.292 0.113,0.577 0.395,0.692 l 0.109,0.044 0.086,-0.08 c 0.717,-0.66 1.441,-1.386 2.209,-1.899 -0.366,0.733 -0.485,1.409 -0.421,2.08 l 0.034,0.351 0.269,-0.217 c 0.066,-0.053 0.134,-0.102 0.205,-0.147 0.508,-0.324 1.166,-0.482 1.733,-0.672 0.177,-0.06 0.349,-0.122 0.515,-0.191 -1.09,1.249 -1.877,2.73 -1.906,4.485 l -0.01,0.532 0.34,-0.402 c 0.957,-1.132 2.955,-1.981 3.362,-3.453 0.082,-0.296 -0.281,-0.402 -0.362,-0.106 -0.309,1.119 -1.937,2.021 -2.923,2.933 0.207,-1.917 1.384,-3.475 2.77,-4.734 0.079,-0.065 0.157,-0.134 0.233,-0.208 0.214,-0.204 -0.027,-0.484 -0.249,-0.289 -0.076,0.066 -0.151,0.133 -0.226,0.2 -0.497,0.411 -1.04,0.656 -1.661,0.865 -0.588,0.197 -1.229,0.353 -1.765,0.68 -0.085,-0.928 0.506,-1.651 0.517,-2.17 0.009,-0.392 -0.173,-0.224 -0.271,-0.185 -1.07,0.832 -1.695,1.381 -2.533,2.156 -0.154,-0.209 -0.14,-0.62 -0.108,-0.877 -0.504,0.297 -0.821,0.478 -1.256,0.881 -0.1,-0.41 -0.102,-0.942 -0.018,-1.342 0.121,-0.442 0.388,-0.953 1.114,-1.678 0.139,-0.139 -0.039,-0.386 -0.187,-0.259 -1.225,1.046 -2.323,3.249 -4.073,3.568 -0.604,0.11 -1.858,0.063 -2.716,-0.318 2.664,-0.258 2.377,-1.858 3.292,-3.492 0.613,-1.096 1.848,-2.187 2.816,-2.885 0.208,-0.119 0.421,-0.228 0.642,-0.338 0.324,-0.162 0.662,-0.328 0.924,-0.588 0.097,-0.096 0.192,-0.209 0.285,-0.329 -0.108,0.686 -0.052,1.414 0.011,2.091 l 0.047,0.518 0.293,-0.424 c 0.72,-1.04 1.433,-1.751 2.558,-2.286 0.182,-0.087 0.358,-0.176 0.529,-0.268 0.361,0.379 0.901,0.645 1.419,0.605 -0.442,1.119 0.264,1.679 -1.411,2.724 l -0.469,0.292 0.544,0.066 c 1.309,0.157 2.616,-0.443 3.575,-1.329 0.701,-0.648 1.134,-1.34 1.554,-2.145 0.035,0.425 0.009,0.851 -0.095,1.275 l -0.081,0.332 0.318,-0.099 c 1.409,-0.439 2.132,-1.024 2.873,-2.166 l 0.31,0.787 0.192,-0.265 c -0.205,0.799 -0.18,1.606 0.229,2.415 l 0.15,0.297 0.176,-0.281 c 0.858,-1.379 1.607,-2.011 2.717,-3.09 0.306,-0.299 0.316,-0.584 0.278,-0.929 0.239,0.119 0.48,0.234 0.716,0.36 l 0.12,0.064 0.097,-0.096 c 0.442,-0.433 0.905,-1.355 1.081,-1.957 0.208,-0.705 0.121,-1.2 -0.049,-1.823 0.57,0.307 0.974,0.594 1.504,1.125 0.207,0.208 0.668,-0.065 0.853,-0.195 0.356,-0.249 0.657,-0.611 0.79,-1.037 0.181,-0.579 0.135,-1.404 0.032,-2.003 -0.097,-0.561 -0.333,-1.042 -0.824,-1.333 -0.259,-0.153 -0.447,0.182 -0.188,0.335 0.392,0.233 0.565,0.62 0.641,1.065 0.092,0.533 0.141,1.304 -0.019,1.818 -0.098,0.314 -0.315,0.583 -0.569,0.78 -0.088,0.068 -0.354,0.242 -0.488,0.257 -0.612,-0.606 -1.077,-0.912 -1.801,-1.284 -0.11,-0.099 -0.488,-0.171 -0.335,0.292 0.196,0.85 0.319,1.17 0.093,1.892 -0.145,0.493 -0.523,1.27 -0.889,1.691 -0.302,-0.156 -0.685,-0.387 -0.985,-0.547 -0.146,-0.063 -0.37,0.115 -0.211,0.322 0.103,0.322 0.175,0.648 -0.106,0.922 -1.051,1.021 -1.785,1.656 -2.586,2.866 -0.34,-0.915 -0.137,-1.836 0.249,-2.691 0.363,-0.348 0.756,-0.66 1.14,-1.002 0.227,-0.201 -0.02,-0.494 -0.246,-0.293 -0.582,0.517 -1.165,0.959 -1.659,1.554 l -0.204,-0.518 c -0.057,-0.103 -0.113,-0.382 -0.331,-0.02 -0.712,1.181 -1.32,1.777 -2.555,2.216 0.089,-0.563 0.05,-1.283 -0.066,-1.847 -0.079,-0.298 -0.4,-0.252 -0.405,-0.024 -0.001,0.069 0.021,0.14 0.035,0.261 -0.443,0.878 -0.968,1.747 -1.708,2.431 -0.738,0.682 -1.707,1.191 -2.71,1.249 0.467,-0.367 0.796,-0.804 0.889,-1.478 0.076,-0.553 0.061,-0.915 0.359,-1.424 0.172,-0.269 0.018,-0.43 -0.251,-0.276 -0.447,0.207 -0.993,-0.011 -1.35,-0.34 0.61,-0.374 1.14,-0.825 1.602,-1.454 0.18,-0.246 -0.12,-0.479 -0.301,-0.234 -0.63,0.859 -1.397,1.359 -2.331,1.804 -1.031,0.49 -1.742,1.124 -2.408,2.001 -0.058,-0.806 -0.055,-1.677 0.309,-2.383 0.087,-0.17 0.187,-0.335 0.287,-0.497 0.254,-0.335 0.528,-0.652 0.84,-0.93 0.226,-0.202 -0.02,-0.494 -0.246,-0.293 -0.481,0.428 -0.873,0.94 -1.242,1.469 -0.245,0.353 -0.539,0.839 -0.838,1.135 -0.226,0.225 -0.546,0.378 -0.826,0.518 -0.199,0.099 -0.39,0.197 -0.578,0.302 -0.095,-0.351 -0.027,-0.766 0.385,-1.041 0.142,-0.095 -0.046,-0.338 -0.109,-0.328 -1.074,0.184 -2.467,1.288 -3.723,1.803 -0.635,0.261 -1.192,0.201 -1.563,0.09 2.348,-1.999 1.72,-2.459 4.041,-3.559 0.086,-0.041 0.1,-0.53 -0.194,-0.292 -0.383,0.311 -1.311,0.422 -1.842,0.334 0.73,-0.335 1.014,-1.386 1.735,-1.736 0.66,-0.32 1.845,0.055 2.725,-0.057 0.426,-0.055 0.202,-0.349 0.029,-0.365 -2.269,-0.204 -2.691,-0.429 -3.2,-1.916 1.716,0.317 1.99,-0.024 3.542,0.155 0.367,0.042 1.553,0.255 2.817,0.603 1.065,0.294 2.66,0.906 3.693,0.311 0.179,-0.104 0.141,-0.367 -0.236,-0.243 -0.855,0.28 -1.817,0.1 -2.759,-0.393 -0.266,-0.891 0.661,-1.937 -1.456,-2.397 1.562,-0.682 2.504,0.211 3.993,0.93 0.835,0.403 2.013,0.751 3.154,0.738 1.602,-0.02 3.135,-0.836 4.4,-2.268 0.303,0.206 0.459,0.386 0.83,0.387 -0.588,-1.694 0.333,-2.375 0.834,-3.093 0.183,0.563 0.461,1.047 0.512,1.644 0.606,-0.339 1.176,-0.717 1.284,-1.498 0.029,-0.214 0.003,-0.455 -0.004,-0.681 0.543,0.522 1.004,0.494 1.675,0.338 -0.145,-0.28 -0.19,-0.532 -0.17,-0.864 0.617,0.134 0.945,0.074 1.517,-0.155 -0.412,-0.365 -0.735,-0.733 -0.911,-1.286 0.456,0.046 0.898,0.031 1.353,-0.024 0.891,-0.541 1.559,-1.563 2.046,-2.474 0.143,-0.27 -0.187,-0.456 -0.33,-0.187 -0.406,0.761 -1.104,1.82 -1.84,2.286 -0.444,0.053 -0.791,0.055 -1.21,0.012 -0.344,-0.036 -0.542,-0.153 -0.424,0.323 0.104,0.415 0.346,0.855 0.654,1.192 -0.327,0.067 -0.536,-0.018 -0.974,-0.107 -0.192,-0.039 -0.17,-0.054 -0.219,0.141 -0.066,0.262 -0.05,0.584 0.033,0.861 -0.522,0.062 -0.818,-0.155 -1.21,-0.632 -0.156,-0.21 -0.273,0.009 -0.313,0.077 -0.093,0.375 0.005,0.751 -0.046,1.126 -0.058,0.422 -0.342,0.709 -0.672,0.928 -0.061,-0.305 -0.171,-0.585 -0.293,-0.88 -0.085,-0.207 -0.262,-0.547 -0.162,-0.775 0.038,-0.231 -0.227,-0.33 -0.338,-0.119 -0.071,0.136 -0.176,0.31 -0.278,0.479 -0.532,0.874 -1.383,1.651 -1.088,2.624 -0.85,-0.41 -0.976,-1.248 -0.928,-2.4 -0.896,0.513 -0.998,1.054 -1.199,1.584 -0.61,-0.183 -1.022,-0.569 -1.235,-1.16 0.013,0.796 -0.652,1.898 -3.186,1.877 0.572,-0.985 -0.187,-2.354 -0.654,-3.504 -0.248,-0.611 0.922,-0.136 1.834,-0.35 0.804,-0.188 1.47,-0.917 1.703,-1.49 0.816,1.125 2.28,2.201 2.745,1.129 0.317,-0.73 0.172,-1.551 0.095,-2.349 -0.086,-0.906 0.275,-2.026 -0.495,-2.438 -1.399,-0.748 -3.388,1.357 -5.162,1.26 -0.913,-1.152 -1.584,-2.478 -1.775,-3.969 0.129,-0.179 0.327,-0.36 0.516,-0.595 0.188,-0.232 0.493,-0.497 0.247,-0.663 -0.194,-0.132 -1.285,-0.056 -2.238,-0.064 -0.078,-0.25 -0.086,-0.472 0.095,-0.56 1.653,-0.804 2.415,-1.247 3.865,-2.156 0.301,-0.189 1.212,0.055 1.502,-0.196 0.495,-0.427 0.321,-1.361 0.361,-1.771 0.1,-1.011 4.082,-2.169 7.368,-1.883 0.797,0.07 1.276,0.454 1.977,1.008 -0.244,0.367 -0.386,0.623 -0.287,1.059 0.043,0.188 0.207,0.329 0.285,0.153 0.108,-0.243 0.185,-0.535 0.293,-0.672 0.326,-0.412 0.62,-0.554 1.665,-1.014 0.666,-0.294 1.233,0.042 1.894,-0.113 0.452,-0.107 0.825,-0.495 1.678,-1.371 1.356,3.603 0.31,5.307 -1.39,6.52 -0.187,0.133 -0.103,0.337 0.125,0.326 0.443,-0.022 0.688,-0.394 1.069,-0.629 0.761,1.683 1.961,1.801 3.824,-0.21 -0.083,0.649 -0.265,1.349 -0.498,1.793 0.522,0.101 0.719,0.331 1.016,0.663 -1.143,1.546 -2.163,1.988 -3.431,2.251 0.041,0.073 -0.011,0.348 0.231,0.382 0.243,0.035 0.726,-0.041 1.297,-0.392 1.691,1.434 3.473,3.995 3.792,5.456 -1.26,-1.354 -2.073,-2.008 -2.708,-2.226 0.094,0.56 0.214,1.185 0.001,1.663 -1.616,-0.802 -1.835,-1.347 -2.659,-1.841 -0.128,-0.077 -0.442,0.127 -0.122,0.436 0.38,0.368 0.83,0.553 1.066,0.841 1.659,2.02 -0.067,2.419 1.132,3.49 0.85,0.759 1.896,1.405 3.316,1.726 -0.273,0.298 -0.788,0.315 -1.136,0.408 1.3,0.812 1.643,1.797 1.577,3.615 -0.57,-1.323 -3.746,-3.599 -4.863,-3.613 0.688,0.907 1.408,1.813 2.367,2.719 -0.433,-0.076 -0.792,0.054 -1.1,0.157 0.611,1.134 1.343,1.466 1.667,2.759 0.125,0.496 0.099,1.471 -0.002,2.301 -0.661,-1.03 -1.472,-2.212 -2.207,-3.037 l -0.743,1.159 -2.411,-3.919 c -0.1,-0.162 -0.596,-0.106 -0.299,0.4 l 1.965,3.234 c -0.162,0.632 -0.983,0.499 -1.369,0.233 0.497,1.356 0.075,1.948 1.021,3.766 -1.318,-0.348 -2.025,-1.405 -2.635,-2.264 -0.251,2.638 2.161,3.571 2.308,5.312 -0.379,0.107 -0.759,0.077 -1.005,-0.09 0.595,1.22 0.676,2.321 0.381,3.327 -0.587,-1.186 -1.082,-1.87 -1.606,-2.285 -0.767,-0.607 -1.522,-0.724 -2.088,-1.661 -0.402,-0.666 -0.437,-1.605 -0.421,-2.784 0.006,-0.44 -0.373,-0.238 -0.388,-0.081 -0.088,0.914 -0.025,1.759 0.147,2.553 0.38,1.746 1.504,3.388 2.547,4.832 -1.115,-0.391 -1.817,-0.852 -2.475,-1.526 -0.109,-0.111 -0.381,0.129 -0.301,0.262 1.887,3.106 1.817,6.39 -0.015,8.365 0.253,-1.602 -0.211,-3.305 -1.098,-4.624 -0.456,-0.678 -0.997,-1.352 -1.36,-2.115 0.115,1.019 0.317,1.698 -0.041,2.794 -1.284,-1.291 -1.856,-2.496 -2.049,-3.66 -0.147,-0.891 0.006,-2 0.268,-2.798 0.138,-0.422 -0.205,-0.669 -0.342,-0.216 -0.277,0.911 -0.429,1.668 -0.368,2.554 0.169,2.449 0.987,4.777 0.461,6.298 -0.489,1.413 -1.724,2.501 -3.161,2.875 1.901,-2.916 1.857,-4.763 0.166,-6.49 0.244,0.719 0.507,1.849 -0.169,2.875 -0.323,-1.078 -1.655,-1.986 -1.736,-3.417 -0.031,-0.559 0.082,-1.115 0.515,-1.964 0.18,-0.354 -0.093,-0.578 -0.263,-0.314 -0.771,1.196 -0.747,2.076 -0.58,2.86 0.114,0.537 0.331,1.073 0.279,1.769 -0.123,1.641 -2.355,1.608 -1.651,4.664 -0.942,-0.739 -1.712,-2.638 -1.067,-4.567 0.048,-0.143 -0.089,-0.434 -0.218,-0.363 -0.155,0.086 -0.452,0.552 -0.698,0.954 -0.169,0.276 -0.314,0.446 -0.374,0.741 -0.202,0.994 0.174,2.563 -0.041,3.555 -0.42,-1.182 -0.877,-2.626 -0.907,-4.536 -0.004,-0.255 -0.263,0.457 -0.283,0.712 -0.113,1.487 0.34,2.65 0.799,4.116 -0.237,1.01 -1.077,1.769 -1.54,2.653 -0.363,0.696 -0.446,1.49 -0.139,2.412 -1.469,-0.927 -0.5,-2.196 -0.872,-3.055 -0.069,-0.158 -0.243,-0.059 -0.307,0.096 -0.308,0.741 -0.876,1.638 -0.733,2.558 0.256,1.641 1.128,3.174 -0.927,4.208 0.799,-1.32 0.363,-2.085 0.219,-2.714 -0.212,-0.919 -0.653,-1.547 -0.293,-3.187 0.026,-0.122 -0.217,-0.3 -0.289,-0.198 -0.704,0.996 -0.133,1.979 -1.132,2.699 0.038,-1.616 -2.038,-1.451 -0.879,-3.767 0.055,-0.11 -0.103,-0.391 -0.196,-0.319 -1.04,0.801 -1.516,2.504 -1.584,4.185 -0.079,1.966 0.29,3.847 -0.899,4.956 0.434,-1.698 -1.008,-3.755 -0.996,-4.844 0.003,-0.293 -0.359,-0.39 -0.313,-0.056 0.182,1.297 -0.481,2.355 -1.255,2.704 0.224,-1.56 -0.915,-1.664 -1.584,-2.508 -0.401,0.785 -0.43,1.418 -0.285,2.254 -1.973,-0.546 -2.238,-1.755 -2.698,-2.198 -0.453,-0.435 -1.452,-0.135 -2.386,-0.189 -0.639,-0.036 -1.181,0.061 -1.759,-0.688 -0.113,0.635 0.211,1.302 0.807,1.649 1.107,0.644 2.777,0.891 1.778,2.615 -0.567,-0.939 -3.022,-0.115 -2.491,1.286 0.18,0.472 0.463,0.443 0.661,0.529 -1.273,0.313 -1.87,-0.135 -2.116,-0.783 -0.226,-0.595 0.084,-1.276 -0.241,-2.229 -0.094,-0.278 -0.583,-0.505 -0.461,0.181 0.078,0.438 0.016,0.45 -0.036,0.683 -0.101,0.446 -0.336,0.651 -0.563,0.579 -0.377,-0.119 -0.48,-0.31 -0.521,-0.504 -0.065,-0.303 -0.33,-1.055 -0.61,-0.409 -0.196,0.453 0.526,0.885 -0.178,1.635 -0.252,-0.108 -0.492,-0.398 -0.754,-0.325 -0.238,0.067 -0.349,0.341 -0.122,0.436 0.372,0.157 0.556,0.301 0.614,0.647 0.173,1.04 -0.849,2.789 -1.191,3.243 -0.294,0.389 -1.063,0.372 -1.497,-0.04 0.7,-1.281 -0.981,-2.661 -1.955,-1.353 -0.066,0.089 -0.126,0.186 -0.181,0.289 z m 35.546,-53.398 c 0.44,-0.182 0.598,-0.279 0.882,-0.599 0.13,-0.147 0.478,-0.023 0.815,0.177 0.618,0.367 0.849,1.148 1.471,1.385 0.442,0.168 0.89,0.174 1.356,0.163 0.299,-0.007 0.307,0.381 0.008,0.387 -1.006,0.059 -1.789,-0.028 -2.661,0.009 -0.549,1.082 -2.162,0.245 -2.086,-1.166 -0.764,-0.171 -0.907,-0.859 -0.851,-1.666 0.021,-0.306 0.26,-0.279 0.239,0.028 -0.045,0.647 0.138,1.204 0.827,1.282 z m 1.175,1.579 v -1.807 c -0.055,-0.008 -0.109,-0.006 -0.158,0.012 -0.34,0.295 -0.541,0.439 -0.855,0.567 v 0.004 c -0.037,0.729 0.589,1.422 1.013,1.224 z m -0.079,-3.21 c 0.928,0.073 2.024,0.909 2.773,1.439 0.246,0.174 0.033,0.493 -0.213,0.319 -0.67,-0.474 -1.761,-1.236 -2.589,-1.301 -0.298,-0.023 -0.269,-0.48 0.029,-0.457 z m -7.369,4.851 c 0.214,1.421 0.839,2.696 1.691,3.819 -0.276,0.479 -0.732,0.72 -0.993,0.345 -1.321,-1.902 -1.116,-2.877 -1.326,-4.224 0.225,-0.009 0.439,0.011 0.628,0.06 z m 8.739,1.259 c 0.667,0.38 0.857,0.83 0.92,1.58 0.033,0.384 -0.045,0.774 0,1.152 0.046,0.398 0.458,0.718 0.555,1.182 0.117,0.558 0.046,1.11 -0.096,1.655 -0.077,0.297 -0.441,0.197 -0.364,-0.1 0.126,-0.483 0.196,-0.979 0.092,-1.473 -0.091,-0.433 -0.5,-0.698 -0.561,-1.218 -0.046,-0.392 0.032,-0.778 -10e-4,-1.165 -0.052,-0.62 -0.174,-0.96 -0.727,-1.274 -0.261,-0.149 -0.079,-0.487 0.182,-0.339 z m 3.942,-0.432 c 1.101,0.367 1.467,1.28 2.298,1.737 0.204,-0.195 0.414,-0.391 0.627,-0.534 0.25,-0.169 0.456,0.156 0.206,0.324 -0.316,0.212 -0.641,0.567 -0.93,0.827 -0.334,0.3 -0.682,0.57 -1.071,0.778 0.603,0.287 1.56,0.384 2.133,0.419 0.298,0.018 0.276,0.405 -0.022,0.387 -0.772,-0.047 -2.017,-0.186 -2.63,-0.675 l -0.26,-0.207 0.305,-0.126 c 0.488,-0.201 0.904,-0.514 1.297,-0.868 l 0.056,-0.05 c -0.753,-0.475 -1.185,-1.33 -2.125,-1.643 -0.284,-0.095 -0.168,-0.463 0.116,-0.369 z m 3.596,-4.486 0.699,0.703 c 0.143,0.144 -0.081,0.562 -0.305,0.361 l -0.83,-0.742 c -0.071,-0.084 -0.202,-0.205 -0.028,-0.344 0.362,-0.259 0.624,-0.877 0.816,-1.274 0.206,-0.428 0.414,-0.826 0.65,-1.206 -0.449,0.261 -0.922,0.475 -1.408,0.69 -0.385,0.17 -1.227,0.502 -1.396,0.93 -0.035,0.092 -0.044,0.186 -0.034,0.284 0.037,0.361 0.369,0.71 0.62,0.935 0.226,0.202 -0.021,0.494 -0.247,0.292 -0.335,-0.299 -0.698,-0.711 -0.747,-1.186 -0.017,-0.161 0,-0.319 0.06,-0.47 0.227,-0.578 1.076,-0.911 1.595,-1.141 0.812,-0.359 1.603,-0.716 2.277,-1.323 0.208,-0.188 0.447,0.057 0.266,0.272 -0.554,0.657 -0.927,1.323 -1.299,2.095 -0.198,0.411 -0.354,0.786 -0.689,1.124 z m 8.734,86.519 c -0.16,0.819 -0.006,1.589 0.247,2.448 0.133,-0.96 0.416,-0.977 0.982,-1.698 0.44,-0.561 0.371,-1.489 0.03,-1.754 -0.63,-0.489 -1.168,0.54 -1.259,1.004 z m 16.239,-5.61 c 0.794,0.919 0.403,2.555 -0.535,3.131 0.114,-1.321 -0.042,-1.383 -0.778,-1.922 -1.121,-0.822 0.882,-1.841 1.313,-1.209 z m -11.149,6.271 c -0.248,1.202 0.656,2.23 1.748,2.252 -0.735,-1.089 -0.406,-1.665 -0.039,-2.514 0.428,-0.99 -1.64,-0.507 -1.709,0.262 z m -7.751,-4.988 c -1.156,0.296 -1.748,1.152 -1.472,2.613 0.697,-0.69 1.257,-0.824 1.875,-0.846 -0.237,-0.524 -0.371,-1.101 -0.401,-1.6 -0.003,-0.058 -0.004,-0.113 -0.002,-0.167 z"
           id="path76"
           inkscape:connector-curvature="0" />
      </g>
    </g>
  </g>
</svg>
