<?xml version="1.0" encoding="utf-8"?>
<!-- Generator: Adobe Illustrator 27.5.0, SVG Export Plug-In . SVG Version: 6.00 Build 0)  -->
<svg version="1.1" id="Ebene_1" xmlns="http://www.w3.org/2000/svg" xmlns:xlink="http://www.w3.org/1999/xlink" x="0px" y="0px"
	 viewBox="0 0 259.1 327.2" style="enable-background:new 0 0 259.1 327.2;" xml:space="preserve">
<style type="text/css">
	.st0{fill:#FFFFFF;}
	.st1{fill-rule:evenodd;clip-rule:evenodd;fill:#151616;}
</style>
<g>
	<path class="st0" d="M0,0v223.2C0,243,6.9,259,21.2,272c12.1,11,27.4,18.1,40.9,24.4l0.1,0c2.1,1,23.7,10.9,64.3,29.4l3.1,1.4
		l1.7-0.8c0.5-0.2,62.1-28.4,65.7-30l0.1,0c13.5-6.2,28.8-13.3,40.9-24.4c14.3-13,21.2-29,21.2-48.8V0H0z"/>
</g>
<g>
	<path class="st1" d="M59.8,258.9V117.9H31.9v101.6C31.9,239.8,43.8,250.3,59.8,258.9z"/>
	<path class="st1" d="M199.3,258.9c16-8.7,27.9-19.2,27.9-39.5V117.9h-27.9L199.3,258.9L199.3,258.9z"/>
	<path class="st1" d="M143.5,284.7c7.8-3.1,17.8-7.4,27.9-12.3V117.9h-27.9V284.7z"/>
	<path class="st1" d="M87.7,272.4c10.1,4.9,20.2,9.2,27.9,12.3V117.9H87.7V272.4z"/>
</g>
<g>
	<path d="M156.8,97.3c11.3,0,16.6-8,16.6-16.4c0-5.7-1.2-10.5-5.9-15.4l-11.3-11.8c-2.8-3-3.6-4.9-3.6-7.6s2-4,4.4-4
		c3.7,0,4.9,3,4.9,5.9v4.9h10.8v-5.4c0-10.7-5.8-16.5-15.9-16.5c-10.7,0-15.8,7.9-15.8,15.5c0,5.3,1.6,10,5.8,14.4l12.3,12.9
		c2.2,2.3,2.6,4.9,2.6,7.4c0,3.2-2.2,4.8-4.8,4.8c-4.1,0-5.4-3.1-5.4-6.1v-5.2h-11.4v5.8C140.1,91.4,146.2,97.3,156.8,97.3z"/>
	<path d="M96.5,79.5h10.8l1.8,16.7h11.4l-7.8-64.3H91.2l-7.9,64.3h11.4L96.5,79.5z M99.3,54.6c0.4-3.9,0.9-7.2,1-8.9
		c0.1-1.9,3.3-1.8,3.4,0.1c0.1,1.6,0.6,4.9,1,8.8l1.5,14.1h-8.4L99.3,54.6z"/>
	<polygon points="59.8,83.8 44.4,83.8 44.4,31.9 31.9,31.9 31.9,96.2 59.8,96.2 	"/>
	<path d="M206.3,89.9c0-6.5-0.4-11.2-0.5-16.9c0-1.5,2.2-2,3-0.2l9.9,23.4h13.5L217,62.8l13.3-30.9h-12.8l-8.6,24.1
		c-0.5,1.5-3.1,1.7-3.1-0.2c0.1-5.9,0.4-10.6,0.4-18.1v-5.8h-11.5v64.3h11.5L206.3,89.9L206.3,89.9z"/>
	<path d="M0,0v223.2C0,243,6.9,259,21.2,272c12.1,11,27.4,18.1,40.9,24.4l0.1,0c2.1,1,23.7,10.9,64.3,29.4l3.1,1.4l1.7-0.8
		c0.5-0.2,62.1-28.4,65.7-30l0.1,0c13.5-6.2,28.8-13.3,40.9-24.4c14.3-13,21.2-29,21.2-48.8V0H0z M255.1,4v219.2
		c0,41.9-33.2,57.2-59.8,69.5l-0.1,0c-3.6,1.6-65.6,30-65.6,30s-62.1-28.4-65.6-30l-0.1,0C37.2,280.4,4,265.1,4,223.2V4H255.1z"/>
</g>
</svg>
