<?xml version="1.0" encoding="UTF-8" standalone="no"?>
<!-- Created with Inkscape (http://www.inkscape.org/) -->

<svg
   xmlns:dc="http://purl.org/dc/elements/1.1/"
   xmlns:cc="http://creativecommons.org/ns#"
   xmlns:rdf="http://www.w3.org/1999/02/22-rdf-syntax-ns#"
   xmlns:svg="http://www.w3.org/2000/svg"
   xmlns="http://www.w3.org/2000/svg"
   xmlns:sodipodi="http://sodipodi.sourceforge.net/DTD/sodipodi-0.dtd"
   xmlns:inkscape="http://www.inkscape.org/namespaces/inkscape"
   id="svg2985"
   version="1.1"
   inkscape:version="0.48.0 r9654"
   width="400"
   height="277"
   sodipodi:docname="psv.svg">
  <metadata
     id="metadata2991">
    <rdf:RDF>
      <cc:Work
         rdf:about="">
        <dc:format>image/svg+xml</dc:format>
        <dc:type
           rdf:resource="http://purl.org/dc/dcmitype/StillImage" />
        <dc:title></dc:title>
      </cc:Work>
    </rdf:RDF>
  </metadata>
  <defs
     id="defs2989" />
  <sodipodi:namedview
     pagecolor="#ffffff"
     bordercolor="#666666"
     borderopacity="1"
     objecttolerance="10"
     gridtolerance="10"
     guidetolerance="10"
     inkscape:pageopacity="0"
     inkscape:pageshadow="2"
     inkscape:window-width="1366"
     inkscape:window-height="716"
     id="namedview2987"
     showgrid="false"
     inkscape:zoom="1.4856901"
     inkscape:cx="272.90833"
     inkscape:cy="140.69516"
     inkscape:window-x="0"
     inkscape:window-y="0"
     inkscape:window-maximized="1"
     inkscape:current-layer="svg2985" />
  <g
     id="g4443"
     transform="matrix(0.98831424,0,0,1,3.6193675,0.67309029)">
    <g
       transform="translate(-1.2785271,1.1462168)"
       id="g4219">
      <path
         sodipodi:type="arc"
         style="fill:#f00000;fill-opacity:1;stroke:#000000;stroke-width:1.29999995;stroke-miterlimit:4;stroke-opacity:0;stroke-dasharray:none;stroke-dashoffset:0"
         id="path4217"
         sodipodi:cx="181.39719"
         sodipodi:cy="430.46405"
         sodipodi:rx="183.41646"
         sodipodi:ry="123.17509"
         d="M 180.05856,553.63586 C 78.763142,553.13937 -2.7536918,497.59099 -2.0143869,429.56508 -1.2750821,361.53917 81.440401,306.79576 182.73582,307.29224 c 101.29541,0.49649 182.81224,56.04487 182.07294,124.07078 -0.73721,67.83352 -83.00523,122.4991 -184.01631,122.27545"
         sodipodi:start="1.5780947"
         sodipodi:end="7.8572787"
         sodipodi:open="true"
         transform="translate(20.865725,-292.12015)" />
      <g
         id="g4206"
         transform="translate(0.693897,-0.19332851)"
         style="fill:#ffffff;stroke:#000000;stroke-opacity:0">
        <path
           inkscape:connector-curvature="0"
           id="path4172"
           d="M 93.761168,51.402062 315.55155,51.878007 345.53608,77.103093 57.589347,76.627148 z"
           style="fill:#ffffff;stroke:#000000;stroke-width:1px;stroke-linecap:butt;stroke-linejoin:miter;stroke-opacity:0" />
        <path
           sodipodi:nodetypes="ccccc"
           inkscape:connector-curvature="0"
           id="path4172-7"
           d="m 40.79794,101.87662 321.32214,0.47595 26.70484,25.22509 -370.156853,-0.9519 z"
           style="fill:#ffffff;stroke:#000000;stroke-width:1.18929815px;stroke-linecap:butt;stroke-linejoin:miter;stroke-opacity:0" />
        <path
           sodipodi:nodetypes="ccccc"
           inkscape:connector-curvature="0"
           id="path4172-9"
           d="m 23.376922,150.39862 354.496758,0.9519 7.4038,24.74913 -358.208276,-0.47594 z"
           style="fill:#ffffff;stroke:#000000;stroke-width:1.198915px;stroke-linecap:butt;stroke-linejoin:miter;stroke-opacity:0" />
        <path
           sodipodi:nodetypes="ccccc"
           inkscape:connector-curvature="0"
           id="path4172-90"
           d="m 50.337808,200.44484 294.134022,0.47595 -1.42784,25.22508 -267.957037,-0.47594 z"
           style="fill:#ffffff;stroke:#000000;stroke-width:1px;stroke-linecap:butt;stroke-linejoin:miter;stroke-opacity:0" />
      </g>
      <g
         id="g4129"
         transform="translate(0.84122143,-0.54598714)">
        <path
           style="fill:#a8862d;fill-opacity:1;stroke:none"
           d="M 180,293.78125 C 68.667977,293.22643 -22.249943,354.41946 -23.0625,430.4375 c -0.812557,76.01804 88.792977,138.07018 200.125,138.625 l 0.8125,0.0312 C 288.89451,569.34368 379.31474,508.24054 380.125,432.4375 380.93756,356.41946 291.33202,294.33607 180,293.78125 z m -0.125,30.15625 c 93.48917,0.43544 168.74483,49.15045 168.0625,108.8125 -0.6804,59.49331 -76.61701,107.44616 -169.84375,107.25 l -0.6875,0 C 83.917083,539.56456 8.6926691,490.84955 9.375,431.1875 c 0.682331,-59.66205 77.010833,-107.68544 170.5,-107.25 z"
           transform="translate(21.370679,-293.59342)"
           id="path2997"
           inkscape:connector-curvature="0" />
        <g
           id="g4051">
          <path
             sodipodi:type="arc"
             style="fill:#ffffff;fill-opacity:1;stroke:#000000;stroke-opacity:0"
             id="path2999"
             sodipodi:cx="236.59039"
             sodipodi:cy="115.12236"
             sodipodi:rx="0.33654395"
             sodipodi:ry="5.7212472"
             d="m 236.58794,120.84346 c -0.18587,-0.0231 -0.33544,-2.60318 -0.33408,-5.76286 0.001,-3.15967 0.15313,-5.7024 0.33899,-5.67933 0.18586,0.0231 0.33543,2.60317 0.33408,5.76285 -0.001,3.15073 -0.15231,5.68984 -0.33765,5.67946"
             sodipodi:start="1.5780947"
             sodipodi:end="7.8572787"
             sodipodi:open="true" />
          <g
             id="g3061"
             style="fill:#ffffff;stroke:#000000;stroke-opacity:0">
            <path
               sodipodi:nodetypes="csssasscsscscsssccsscc"
               inkscape:connector-curvature="0"
               id="path3023"
               d="m 195.889,8.4872141 c 0,0 -10.27137,0.1934429 -15.31275,0.5048159 -1.57653,0.097372 -3.22886,0.3198544 -4.54335,1.346176 -0.95643,0.746757 -1.61021,1.886494 -2.01926,3.028896 -0.38005,1.061419 -0.50482,2.231076 -0.50482,3.365439 0,1.134364 0.0791,2.321496 0.50482,3.36544 0.54247,1.330265 1.44739,2.64853 2.69235,3.365439 1.96605,1.13215 6.73088,1.009632 6.73088,1.009632 0,0 7.62085,0.03402 13.46176,0 0.965,-0.0056 0.46631,-1.391556 0.50482,-2.355808 0.0522,-1.307207 -1.68273,-2.524079 -1.68273,-2.524079 0,0 -0.91459,-0.698737 -1.68271,-0.84136 -3.30889,-0.614387 -10.60114,0 -10.60114,0 0,0 -2.65828,0.184497 -3.70198,-0.673088 -0.631,-0.51848 -0.87795,-1.565226 -0.67309,-2.355808 0.15918,-0.614303 0.77149,-1.07701 1.34617,-1.346176 1.1221,-0.525566 3.70199,-0.336543 3.70199,-0.336543 l 6.73088,-0.168273 c 0,0 2.96416,0.09449 4.37507,-0.673087 0.55744,-0.303263 1.36724,-0.627283 1.68272,-1.177904 0.66281,-1.156836 1.00963,-3.8702559 1.00963,-3.8702559 z"
               style="fill:#ffffff;stroke:#000000;stroke-width:1px;stroke-linecap:butt;stroke-linejoin:miter;stroke-opacity:0" />
            <path
               sodipodi:nodetypes="csssasscsscscsssccsscc"
               inkscape:connector-curvature="0"
               id="path3023-6"
               d="m 163.51784,10.039441 c 0,0 -10.13293,1.691841 -15.07474,2.736335 -1.5454,0.326629 -3.14749,0.788103 -4.29795,1.995439 -0.83709,0.878464 -1.31735,2.101481 -1.55513,3.291384 -0.22092,1.105551 -0.17348,2.280886 -0.008,3.403081 0.16576,1.122192 0.41738,2.285036 0.99105,3.255591 0.73098,1.236748 1.81876,2.408679 3.15509,2.936029 2.11035,0.832798 6.80617,0.01553 6.80617,0.01553 0,0 7.54406,-1.079624 13.31734,-1.966534 0.95383,-0.146508 0.25803,-1.444747 0.15526,-2.404279 -0.13929,-1.300814 -2.0334,-2.251185 -2.0334,-2.251185 0,0 -1.00685,-0.557635 -1.78757,-0.586519 -3.36315,-0.124423 -10.48741,1.548647 -10.48741,1.548647 0,0 -2.60282,0.570847 -3.7606,-0.125071 -0.69996,-0.42074 -1.09717,-1.420182 -1.01001,-2.232209 0.0677,-0.630967 0.60588,-1.178158 1.13508,-1.528387 1.03329,-0.683849 3.61311,-0.873732 3.61311,-0.873732 l 6.63409,-1.149733 c 0,0 2.94617,-0.339542 4.22982,-1.304991 0.50715,-0.381443 1.26092,-0.820283 1.4926,-1.411085 0.4867,-1.241251 0.43341,-3.9762265 0.43341,-3.9762265 z"
               style="fill:#ffffff;stroke:#000000;stroke-width:1px;stroke-linecap:butt;stroke-linejoin:miter;stroke-opacity:0" />
            <path
               sodipodi:nodetypes="csssasscsscscsssccsscc"
               inkscape:connector-curvature="0"
               id="path3023-2"
               d="m 226.70211,9.3968332 c 0,0 -10.2479,-0.7203886 -15.29701,-0.8583992 -1.57894,-0.043154 -3.24451,0.031561 -4.64503,0.9369688 -1.01902,0.6587792 -1.77153,1.7358892 -2.28052,2.8374042 -0.4729,1.023433 -0.70115,2.177369 -0.80199,3.307241 -0.10082,1.129872 -0.12757,2.319338 0.20365,3.396991 0.42207,1.373221 1.20622,2.76671 2.38253,3.591451 1.85763,1.302439 6.61448,1.603971 6.61448,1.603971 0,0 7.58766,0.711336 13.40846,1.196674 0.96169,0.0802 0.58817,-1.344594 0.71225,-2.301605 0.16821,-1.297391 -1.45169,-2.663672 -1.45169,-2.663672 0,0 -0.84886,-0.777273 -1.60126,-0.987612 -3.24117,-0.906096 -10.55918,-0.942382 -10.55918,-0.942382 0,0 -2.66414,-0.05254 -3.62748,-0.999508 -0.58241,-0.57252 -0.73534,-1.637075 -0.46102,-2.406316 0.21317,-0.59772 0.86419,-1.004164 1.46052,-1.221179 1.16437,-0.423737 3.71725,-0.0061 3.71725,-0.0061 l 6.7192,0.430729 c 0,0 2.94402,0.357612 4.41758,-0.281504 0.58218,-0.25251 1.41758,-0.50326 1.78077,-1.023656 0.76302,-1.093336 1.34966,-3.7651852 1.34966,-3.7651852 z"
               style="fill:#ffffff;stroke:#000000;stroke-width:1px;stroke-linecap:butt;stroke-linejoin:miter;stroke-opacity:0" />
          </g>
          <path
             style="fill:#ffffff;stroke:#000000;stroke-width:1px;stroke-linecap:butt;stroke-linejoin:miter;stroke-opacity:0"
             d="m 256.88527,13.670441 c 0,0 -10.16244,-1.504475 -15.18606,-2.029481 -1.57097,-0.164146 -3.23736,-0.217431 -4.70322,0.577847 -1.06656,0.578659 -1.89948,1.594861 -2.49148,2.65408 -0.55003,0.984137 -0.86613,2.117161 -1.05336,3.235966 -0.18724,1.118804 -0.30521,2.302703 -0.0575,3.402604 0.31548,1.401555 0.99042,2.851096 2.09997,3.763651 1.75223,1.441115 6.47193,2.106701 6.47193,2.106701 0,0 7.51073,1.291357 13.27715,2.221831 0.95269,0.153756 0.68958,-1.295509 0.88671,-2.240182 0.26723,-1.280663 -1.24306,-2.767192 -1.24306,-2.767192 0,0 -0.78672,-0.840104 -1.52077,-1.107548 -3.16211,-1.152085 -10.45575,-1.749693 -10.45575,-1.749693 0,0 -2.65227,-0.256791 -3.54012,-1.274861 -0.53677,-0.615514 -0.60757,-1.688662 -0.27504,-2.434591 0.25839,-0.579606 0.93867,-0.934906 1.5499,-1.105531 1.19345,-0.333159 3.70677,0.279076 3.70677,0.279076 l 6.66635,0.944948 c 0,0 2.90789,0.58242 4.42615,0.05824 0.59984,-0.207099 1.45202,-0.39302 1.85406,-0.884019 0.84465,-1.031575 1.63455,-3.650542 1.63455,-3.650542 z"
             id="path3023-1"
             inkscape:connector-curvature="0"
             sodipodi:nodetypes="csssasscsscscsssccsscc" />
          <path
             style="fill:#ffffff;stroke:#000000;stroke-width:1px;stroke-linecap:butt;stroke-linejoin:miter;stroke-opacity:0"
             d="m 286.90514,21.712979 c 0,0 -9.96278,-2.506368 -14.90941,-3.527722 -1.5469,-0.319353 -3.19976,-0.53789 -4.73736,0.107866 -1.11876,0.469868 -2.04848,1.398321 -2.74277,2.393504 -0.64504,0.924643 -1.07212,2.02067 -1.36954,3.115348 -0.29744,1.094675 -0.53241,2.261004 -0.39516,3.380068 0.17472,1.425959 0.70236,2.935368 1.71578,3.95361 1.60044,1.608022 6.2307,2.739076 6.2307,2.739076 0,0 7.34533,2.030936 12.99083,3.529529 0.9327,0.247606 0.81484,-1.220615 1.10482,-2.141038 0.3931,-1.24779 -0.96208,-2.876971 -0.96208,-2.876971 0,0 -0.6994,-0.914087 -1.40326,-1.253114 -3.03204,-1.460448 -10.23026,-2.779504 -10.23026,-2.779504 0,0 -2.61366,-0.518944 -3.396,-1.620161 -0.47298,-0.665783 -0.43685,-1.740657 -0.0319,-2.449871 0.31468,-0.551077 1.02688,-0.837055 1.65204,-0.946129 1.22063,-0.212978 3.66072,0.645852 3.66072,0.645852 l 6.53955,1.602377 c 0,0 2.83566,0.868351 4.39847,0.497555 0.61745,-0.146499 1.48387,-0.246863 1.93269,-0.695503 0.94293,-0.942585 1.98905,-3.470149 1.98905,-3.470149 z"
             id="path3023-4"
             inkscape:connector-curvature="0"
             sodipodi:nodetypes="csssasscsscscsssccsscc" />
          <path
             style="fill:#ffffff;stroke:#000000;stroke-width:1px;stroke-linecap:butt;stroke-linejoin:miter;stroke-opacity:0"
             d="m 314.68107,34.385369 c 0,0 -9.27084,-4.426138 -13.91799,-6.405079 -1.45326,-0.61881 -3.03032,-1.159734 -4.66522,-0.830634 -1.18956,0.239466 -2.28445,0.965837 -3.16175,1.804153 -0.81507,0.778905 -1.45037,1.768894 -1.95828,2.783189 -0.50796,1.014286 -0.96882,2.111161 -1.05548,3.235276 -0.11055,1.432359 0.10831,3.016284 0.90048,4.214747 1.25103,1.892636 5.56637,3.916579 5.56637,3.916579 0,0 6.79899,3.442729 12.03691,6.02763 0.86535,0.427075 1.04002,-1.035473 1.50621,-1.880422 0.63197,-1.145475 -0.37445,-3.010375 -0.37445,-3.010375 0,0 -0.50492,-1.034294 -1.12789,-1.505756 -2.68355,-2.03094 -9.47904,-4.746754 -9.47904,-4.746754 0,0 -2.45953,-1.025317 -3.00875,-2.25944 -0.33206,-0.746137 -0.0842,-1.792664 0.45301,-2.407837 0.4174,-0.478004 1.17207,-0.617569 1.80646,-0.600924 1.23864,0.03248 3.46084,1.356677 3.46084,1.356677 l 6.0938,2.863355 c 0,0 2.60809,1.411708 4.21334,1.357128 0.63423,-0.02156 1.50339,0.05127 2.03205,-0.29977 1.11064,-0.73761 2.6357,-3.008537 2.6357,-3.008537 z"
             id="path3023-8"
             inkscape:connector-curvature="0"
             sodipodi:nodetypes="csssasscsscscsssccsscc" />
          <path
             style="fill:#ffffff;stroke:#000000;stroke-width:1px;stroke-linecap:butt;stroke-linejoin:miter;stroke-opacity:0"
             d="m 340.26945,49.241874 c 0,0 -8.60402,-5.613384 -12.9486,-8.189555 -1.35866,-0.805578 -2.85033,-1.550329 -4.51439,-1.440345 -1.21079,0.08004 -2.39213,0.655221 -3.37259,1.370143 -0.91092,0.664265 -1.67157,1.561536 -2.30917,2.499746 -0.63764,0.938194 -1.23952,1.964483 -1.47409,3.067261 -0.29902,1.405155 -0.29184,3.004087 0.33514,4.296817 0.98973,2.041466 4.99947,4.618361 4.99947,4.618361 0,0 6.28394,4.311697 11.13399,7.56664 0.80126,0.53777 1.16783,-0.888828 1.74167,-1.664698 0.77792,-1.05183 0.027,-3.033454 0.027,-3.033454 0,0 -0.36368,-1.091986 -0.91882,-1.641698 -2.39137,-2.368013 -8.76799,-5.958721 -8.76799,-5.958721 0,0 -2.30232,-1.341599 -2.68351,-2.63752 -0.23046,-0.783498 0.15367,-1.788049 0.7675,-2.32677 0.47695,-0.4186 1.24345,-0.457129 1.87004,-0.356731 1.22349,0.196025 3.25103,1.802479 3.25103,1.802479 l 5.66157,3.644146 c 0,0 2.39848,1.744244 3.99685,1.902448 0.6315,0.06251 1.48339,0.249653 2.05383,-0.02839 1.19843,-0.584242 3.01046,-2.63352 3.01046,-2.63352 z"
             id="path3023-3"
             inkscape:connector-curvature="0"
             sodipodi:nodetypes="csssasscsscscsssccsscc" />
          <path
             style="fill:#ffffff;stroke:#000000;stroke-width:1px;stroke-linecap:butt;stroke-linejoin:miter;stroke-opacity:0"
             d="m 363.1154,69.640562 c 0,0 -7.55953,-6.956474 -11.41934,-10.214374 -1.20707,-1.018773 -2.55537,-1.999506 -4.21476,-2.16568 -1.2074,-0.120908 -2.46745,0.251418 -3.55246,0.794715 -1.00807,0.504809 -1.90638,1.264229 -2.69009,2.084338 -0.78374,0.820086 -1.54675,1.732964 -1.96011,2.781903 -0.52683,1.336534 -0.78365,2.914718 -0.37866,4.293198 0.63921,2.176819 4.16865,5.380174 4.16865,5.380174 0,0 5.48612,5.289713 9.73242,9.300504 0.70151,0.662648 1.29852,-0.683889 1.99255,-1.354406 0.94085,-0.909012 0.52729,-2.987396 0.52729,-2.987396 0,0 -0.17846,-1.137037 -0.63527,-1.770835 -1.96773,-2.730227 -7.66425,-7.324132 -7.66425,-7.324132 0,0 -2.04933,-1.703195 -2.21139,-3.044255 -0.098,-0.810793 0.44666,-1.738167 1.14099,-2.16819 0.5395,-0.334139 1.30184,-0.245632 1.90328,-0.04319 1.17435,0.395268 2.90895,2.31433 2.90895,2.31433 l 4.98246,4.528597 c 0,0 2.07771,2.116189 3.62804,2.536029 0.61252,0.165876 1.42184,0.491057 2.03036,0.31098 1.27842,-0.378433 3.40383,-2.100534 3.40383,-2.100534 z"
             id="path3023-5"
             inkscape:connector-curvature="0"
             sodipodi:nodetypes="csssasscsscscsssccsscc" />
          <path
             style="fill:#ffffff;stroke:#000000;stroke-width:1px;stroke-linecap:butt;stroke-linejoin:miter;stroke-opacity:0"
             d="m 381.69409,93.8097 c 0,0 -6.03539,-8.313431 -9.17513,-12.269986 -0.98187,-1.237273 -2.10973,-2.465148 -3.70354,-2.95603 -1.15966,-0.357172 -2.46846,-0.241265 -3.63944,0.07687 -1.08798,0.295595 -2.11866,0.862481 -3.04901,1.511496 -0.93038,0.649016 -1.85876,1.393062 -2.4713,2.339595 -0.78063,1.206031 -1.34432,2.702315 -1.21969,4.133678 0.19633,2.260222 3.02298,6.097989 3.02298,6.097989 0,0 4.33235,6.269729 7.70212,11.040718 0.55698,0.788 1.40806,-0.41379 2.22092,-0.93386 1.10198,-0.7051 1.10738,-2.82423 1.10738,-2.82423 0,0 0.0498,-1.149896 -0.27273,-1.861472 -1.38929,-3.0653 -6.06541,-8.694533 -6.06541,-8.694533 0,0 -1.67233,-2.074531 -1.56602,-3.421302 0.0642,-0.814163 0.7814,-1.615582 1.54702,-1.899882 0.5949,-0.220917 1.32472,0.01653 1.87427,0.333847 1.07307,0.619596 2.39411,2.843653 2.39411,2.843653 l 3.98907,5.424053 c 0,0 1.61843,2.48513 3.05518,3.203127 0.56761,0.283758 1.29695,0.762081 1.92887,0.706127 1.32797,-0.118262 3.75183,-1.386284 3.75183,-1.386284 z"
             id="path3023-57"
             inkscape:connector-curvature="0"
             sodipodi:nodetypes="csssasscsscscsssccsscc" />
          <path
             style="fill:#ffffff;stroke:#000000;stroke-width:1px;stroke-linecap:butt;stroke-linejoin:miter;stroke-opacity:0"
             d="m 392.26675,124.34702 c 0,0 -2.34223,-10.00259 -3.70358,-14.8667 -0.42596,-1.52099 -0.98999,-3.08996 -2.26862,-4.16024 -0.93058,-0.77872 -2.18206,-1.17902 -3.3849,-1.33945 -1.1175,-0.14909 -2.28732,-0.0259 -3.39649,0.21186 -1.10916,0.23776 -2.25336,0.5639 -3.18488,1.19904 -1.18695,0.80926 -2.28645,1.97022 -2.72631,3.33795 -0.69486,2.15976 0.42372,6.79301 0.42372,6.79301 0,0 1.56421,7.45867 2.8218,13.16267 0.20816,0.94231 1.45842,0.16431 2.40932,-2.2e-4 1.2891,-0.22292 2.11528,-2.17442 2.11528,-2.17442 0,0 0.49153,-1.04073 0.47,-1.82165 -0.0929,-3.36418 -2.22223,-10.36563 -2.22223,-10.36563 0,0 -0.73773,-2.56052 -0.11781,-3.76082 0.37471,-0.72563 1.34639,-1.18652 2.16231,-1.15202 0.63398,0.027 1.21481,0.52854 1.59848,1.03405 0.74944,0.98671 1.10504,3.54919 1.10504,3.54919 l 1.57547,6.54609 c 0,0 0.52896,2.91815 1.57516,4.13677 0.41339,0.4815 0.90029,1.20517 1.5045,1.39846 1.27005,0.40559 3.99593,0.17588 3.99593,0.17588 z"
             id="path3023-44"
             inkscape:connector-curvature="0"
             sodipodi:nodetypes="csssasscsscscsssccsscc" />
          <path
             style="fill:#ffffff;stroke:#000000;stroke-width:1px;stroke-linecap:butt;stroke-linejoin:miter;stroke-opacity:0"
             d="m 391.61697,159.6792 c 0,0 1.04191,-10.22019 1.33832,-15.2625 0.0925,-1.5768 0.0699,-3.24394 -0.79058,-4.67219 -0.62636,-1.03925 -1.67934,-1.82517 -2.76441,-2.36849 -1.00811,-0.5047 -2.15427,-0.76918 -3.2804,-0.90547 -1.12619,-0.13621 -2.31419,-0.20041 -3.40174,0.0968 -1.38577,0.37873 -2.80334,1.11852 -3.6645,2.26848 -1.36017,1.81591 -1.81095,6.5609 -1.81095,6.5609 0,0 -0.9493,7.56156 -1.61726,13.36422 -0.10994,0.95875 1.32546,0.63018 2.2781,0.78423 1.29144,0.20901 2.70798,-1.36729 2.70798,-1.36729 0,0 0.80358,-0.82403 1.03737,-1.56946 1.00745,-3.21114 1.27356,-10.52437 1.27356,-10.52437 0,0 0.13611,-2.66119 1.11308,-3.59427 0.59055,-0.56412 1.65933,-0.68355 2.41955,-0.3853 0.59067,0.23192 0.97657,0.89527 1.17476,1.49817 0.38734,1.17694 -0.11065,3.71559 -0.11065,3.71559 l -0.64155,6.70234 c 0,0 -0.44985,2.9314 0.14254,4.42422 0.23409,0.58986 0.45886,1.43261 0.96724,1.81208 1.0688,0.79698 3.72095,1.46724 3.72095,1.46724 z"
             id="path3023-15"
             inkscape:connector-curvature="0"
             sodipodi:nodetypes="csssasscsscscsssccsscc" />
          <path
             style="fill:#ffffff;stroke:#000000;stroke-width:1px;stroke-linecap:butt;stroke-linejoin:miter;stroke-opacity:0"
             d="m 379.11179,188.16424 c 0,0 4.61934,-9.17613 6.695,-13.78092 0.64892,-1.44006 1.22256,-3.00559 0.92779,-4.64684 -0.21438,-1.19433 -0.91765,-2.30423 -1.73756,-3.19885 -0.76166,-0.83116 -1.73814,-1.48707 -2.74158,-2.01613 -1.00347,-0.52901 -2.09041,-1.01277 -3.21249,-1.12297 -1.42967,-0.14068 -3.01789,0.0449 -4.23268,0.812 -1.91842,1.21115 -4.03229,5.48316 -4.03229,5.48316 0,0 -3.58434,6.72539 -6.27838,11.90798 -0.44472,0.85643 1.01346,1.06156 1.84842,1.5453 1.13191,0.65596 3.01756,-0.31127 3.01756,-0.31127 0,0 1.04466,-0.48311 1.52905,-1.09604 2.08669,-2.64048 4.94422,-9.37758 4.94422,-9.37758 0,0 1.07649,-2.43756 2.32202,-2.96073 0.75295,-0.3163 1.79403,-0.0466 2.39783,0.50328 0.46906,0.42746 0.59294,1.18469 0.56304,1.81863 -0.0581,1.23765 -1.42886,3.43164 -1.42886,3.43164 l -2.99033,6.03248 c 0,0 -1.46606,2.57803 -1.44492,4.18413 0.008,0.63447 -0.0824,1.50197 0.25719,2.03782 0.71418,1.12583 2.95273,2.69815 2.95273,2.69815 z"
             id="path3023-9"
             inkscape:connector-curvature="0"
             sodipodi:nodetypes="csssasscsscscsssccsscc" />
          <path
             style="fill:#ffffff;stroke:#000000;stroke-width:1px;stroke-linecap:butt;stroke-linejoin:miter;stroke-opacity:0"
             d="m 361.08856,210.53741 c 0,0 6.86359,-7.64397 10.07398,-11.54345 1.0038,-1.21954 1.96782,-2.5799 2.11368,-4.24104 0.10624,-1.20875 -0.28143,-2.46424 -0.83806,-3.54251 -0.5171,-1.00178 -1.28743,-1.89073 -2.11706,-2.66439 -0.82967,-0.77364 -1.75173,-1.52544 -2.80566,-1.92599 -1.3428,-0.51061 -2.92409,-0.74794 -4.29752,-0.32612 -2.16889,0.66579 -5.32887,4.23414 -5.32887,4.23414 0,0 -5.22227,5.5503 -9.18088,9.84525 -0.65373,0.70987 0.69966,1.2901 1.37861,1.97589 0.92031,0.92978 2.99363,0.49074 2.99363,0.49074 0,0 1.13475,-0.19244 1.7629,-0.65679 2.70602,-2.001 7.23001,-7.7532 7.23001,-7.7532 0,0 1.678,-2.06999 3.01705,-2.24832 0.80948,-0.10785 1.74345,0.4254 2.18204,1.11426 0.34053,0.53544 0.26155,1.29869 0.0665,1.9026 -0.38056,1.17917 -2.27861,2.93695 -2.27861,2.93695 l -4.4674,5.03744 c 0,0 -2.09061,2.10349 -2.49139,3.65889 -0.15851,0.61443 -0.47332,1.42784 -0.28613,2.034 0.39401,1.27368 2.142,3.3779 2.142,3.3779 z"
             id="path3023-0"
             inkscape:connector-curvature="0"
             sodipodi:nodetypes="csssasscsscscsssccsscc" />
          <path
             style="fill:#ffffff;stroke:#000000;stroke-width:1px;stroke-linecap:butt;stroke-linejoin:miter;stroke-opacity:0"
             d="m 339.05624,228.45696 c 0,0 8.2391,-6.13654 12.15691,-9.3245 1.22503,-0.99707 2.43893,-2.14004 2.91025,-3.73956 0.34307,-1.16392 0.21115,-2.47124 -0.12134,-3.6383 -0.30888,-1.08421 -0.88821,-2.10794 -1.54865,-3.03026 -0.66041,-0.92237 -1.41568,-1.8416 -2.36963,-2.44255 -1.21537,-0.76595 -2.71857,-1.31115 -4.14826,-1.16912 -2.25768,0.22396 -6.06063,3.0973 -6.06063,3.0973 0,0 -6.21632,4.40861 -10.94577,7.83636 -0.78112,0.56666 0.43085,1.40297 0.96087,2.2094 0.71839,1.09335 2.83751,1.07284 2.83751,1.07284 0,0 1.1504,0.0362 1.85798,-0.29537 3.04811,-1.42666 8.61978,-6.17119 8.61978,-6.17119 0,0 2.0541,-1.69747 3.40194,-1.60763 0.81489,0.0543 1.62499,0.76161 1.9187,1.52364 0.22799,0.59224 -3.3e-4,1.32479 -0.31124,1.87821 -0.60612,1.08061 -2.81416,2.4286 -2.81416,2.4286 l -5.37497,4.05495 c 0,0 -2.46516,1.64881 -3.16547,3.09428 -0.27683,0.57092 -0.7462,1.30611 -0.68251,1.93729 0.13447,1.32645 1.43206,3.73467 1.43206,3.73467 z"
             id="path3023-7"
             inkscape:connector-curvature="0"
             sodipodi:nodetypes="csssasscsscscsssccsscc" />
          <path
             style="fill:#ffffff;stroke:#000000;stroke-width:1px;stroke-linecap:butt;stroke-linejoin:miter;stroke-opacity:0"
             d="m 314.78595,242.30007 c 0,0 8.97831,-4.99297 13.28331,-7.63479 1.34615,-0.82631 2.70054,-1.7987 3.37927,-3.32182 0.49401,-1.10833 0.53614,-2.42161 0.36092,-3.62235 -0.16279,-1.11559 -0.60172,-2.20689 -1.13427,-3.20849 -0.53263,-1.00162 -1.15969,-2.01266 -2.02575,-2.73449 -1.10346,-0.91998 -2.52134,-1.6592 -3.95723,-1.70749 -2.26747,-0.0762 -6.417,2.26853 -6.417,2.26853 0,0 -6.74482,3.54772 -11.88606,6.31988 -0.8492,0.45837 0.24152,1.44761 0.66022,2.31706 0.56749,1.17875 2.67071,1.43869 2.67071,1.43869 0,0 1.13553,0.18803 1.88071,-0.0471 3.21005,-1.01097 9.36027,-4.97692 9.36027,-4.97692 0,0 2.26055,-1.41092 3.58467,-1.14356 0.80054,0.1618 1.50999,0.96984 1.70043,1.76397 0.14765,0.61713 -0.17551,1.31307 -0.5569,1.8205 -0.74367,0.99105 -3.11064,2.03508 -3.11064,2.03508 l -5.86404,3.30856 c 0,0 -2.66156,1.30825 -3.54688,2.64842 -0.3499,0.52933 -0.91238,1.19596 -0.93273,1.83004 -0.0422,1.33255 0.92554,3.89124 0.92554,3.89124 z"
             id="path3023-62"
             inkscape:connector-curvature="0"
             sodipodi:nodetypes="csssasscsscscsssccsscc" />
          <path
             style="fill:#ffffff;stroke:#000000;stroke-width:1px;stroke-linecap:butt;stroke-linejoin:miter;stroke-opacity:0"
             d="m 289.1609,253.2935 c 0,0 9.55974,-3.76163 14.17638,-5.81088 1.44361,-0.641 2.91468,-1.42572 3.78893,-2.84571 0.63618,-1.03326 0.85168,-2.32943 0.83682,-3.54281 -0.0138,-1.12729 -0.30448,-2.26708 -0.69994,-3.33031 -0.39549,-1.06324 -0.88331,-2.14834 -1.64632,-2.97839 -0.97206,-1.05782 -2.27973,-1.97805 -3.69664,-2.21585 -2.23751,-0.37542 -6.66071,1.3999 -6.66071,1.3999 0,0 -7.15472,2.62451 -12.61743,4.69235 -0.90237,0.34204 0.048,1.46687 0.34797,2.38405 0.40662,1.24343 2.45703,1.77921 2.45703,1.77921 0,0 1.10067,0.33653 1.87038,0.2022 3.31558,-0.57756 9.9363,-3.69527 9.9363,-3.69527 0,0 2.42725,-1.09953 3.70442,-0.65939 0.77208,0.26603 1.36842,1.16101 1.45215,1.97332 0.0647,0.63125 -0.34761,1.27834 -0.79278,1.73088 -0.86826,0.88392 -3.35246,1.6058 -3.35246,1.6058 l -6.2501,2.50391 c 0,0 -2.81121,0.94474 -3.86601,2.15608 -0.41685,0.4784 -1.06254,1.06477 -1.16657,1.69058 -0.21812,1.3153 0.4028,3.97947 0.4028,3.97947 z"
             id="path3023-70"
             inkscape:connector-curvature="0"
             sodipodi:nodetypes="csssasscsscscsssccsscc" />
          <path
             style="fill:#ffffff;stroke:#000000;stroke-width:1px;stroke-linecap:butt;stroke-linejoin:miter;stroke-opacity:0"
             d="m 262.37697,260.94315 c 0,0 10.04953,-2.13223 14.94102,-3.39143 1.52962,-0.39393 3.11005,-0.92503 4.20664,-2.18133 0.79803,-0.91407 1.22451,-2.15692 1.41008,-3.35611 0.17241,-1.11413 0.0738,-2.28626 -0.1407,-3.40017 -0.21458,-1.11392 -0.51663,-2.26466 -1.13217,-3.20924 -0.78415,-1.20377 -1.92199,-2.32722 -3.28022,-2.79561 -2.14485,-0.73957 -6.80041,0.2814 -6.80041,0.2814 0,0 -7.48978,1.40764 -13.21883,2.54552 -0.94644,0.18841 -0.19483,1.45461 -0.0503,2.40878 0.19578,1.29349 2.12958,2.16036 2.12958,2.16036 0,0 1.03004,0.51361 1.81141,0.50815 3.36538,-0.0224 10.40987,-2.00462 10.40987,-2.00462 0,0 2.57546,-0.68386 3.76246,-0.039 0.71758,0.38982 1.15806,1.37093 1.10654,2.18595 -0.04,0.63331 -0.55384,1.2034 -1.06757,1.57625 -1.00222,0.72858 -3.57154,1.03048 -3.57154,1.03048 l -6.57766,1.43803 c 0,0 -2.92854,0.46781 -4.16881,1.48843 -0.49018,0.40301 -1.22372,0.87479 -1.42962,1.47487 -0.43219,1.26123 -0.2591,3.99138 -0.2591,3.99138 z"
             id="path3023-20"
             inkscape:connector-curvature="0"
             sodipodi:nodetypes="csssasscsscscsssccsscc" />
          <path
             style="fill:#ffffff;stroke:#000000;stroke-width:1px;stroke-linecap:butt;stroke-linejoin:miter;stroke-opacity:0"
             d="m 235.09351,266.10696 c 0,0 10.11468,-1.7979 15.04522,-2.8942 1.54185,-0.34303 3.13901,-0.82152 4.2767,-2.0407 0.82787,-0.88709 1.29529,-2.11509 1.52055,-3.3075 0.20936,-1.10779 0.14956,-2.28256 -0.0279,-3.40297 -0.17752,-1.12042 -0.44124,-2.28053 -1.02514,-3.24501 -0.7438,-1.22911 -1.84377,-2.38966 -3.18571,-2.90281 -2.1192,-0.81028 -6.806,0.0558 -6.806,0.0558 0,0 -7.53231,1.15855 -13.29601,2.10582 -0.95213,0.15692 -0.24276,1.44742 -0.13013,2.40578 0.15281,1.2993 2.05683,2.22985 2.05683,2.22985 0,0 1.01285,0.54657 1.79358,0.56782 3.36427,0.0892 10.47061,-1.65842 10.47061,-1.65842 0,0 2.59673,-0.59808 3.7617,0.0858 0.70428,0.41339 1.112,1.40864 1.03339,2.22146 -0.061,0.63169 -0.59355,1.18439 -1.11928,1.54003 -1.02583,0.69486 -3.60377,0.91151 -3.60377,0.91151 l -6.62166,1.21917 c 0,0 -2.94244,0.37044 -4.21589,1.34939 -0.50316,0.38653 -1.25204,0.83373 -1.47777,1.42653 -0.47379,1.24625 -0.39127,3.98061 -0.39127,3.98061 z"
             id="path3023-32"
             inkscape:connector-curvature="0"
             sodipodi:nodetypes="csssasscsscscsssccsscc" />
          <path
             style="fill:#ffffff;stroke:#000000;stroke-width:1px;stroke-linecap:butt;stroke-linejoin:miter;stroke-opacity:0"
             d="m 205.80193,268.33796 c 0,0 10.24326,-0.78438 15.25831,-1.3856 1.5683,-0.18816 3.20507,-0.50557 4.45818,-1.60581 0.91192,-0.80049 1.49903,-1.97602 1.84157,-3.14014 0.31824,-1.08153 0.37551,-2.2564 0.31018,-3.3889 -0.0654,-1.13252 -0.21258,-2.3131 -0.69779,-3.3308 -0.61806,-1.29689 -1.59731,-2.56096 -2.88166,-3.20487 -2.02819,-1.01672 -6.77791,-0.62045 -6.77791,-0.62045 0,0 -7.61014,0.40469 -13.43935,0.77487 -0.96305,0.0616 -0.38552,1.41607 -0.36845,2.38098 0.023,1.308 1.82518,2.42303 1.82518,2.42303 0,0 0.95304,0.6453 1.72828,0.74325 3.33877,0.42289 10.58355,-0.61025 10.58355,-0.61025 0,0 2.64328,-0.33721 3.73453,0.45908 0.65984,0.48126 0.96659,1.51208 0.80771,2.31311 -0.12342,0.62244 -0.70822,1.11952 -1.26666,1.4212 -1.08977,0.58958 -3.67644,0.54907 -3.67644,0.54907 l -6.71005,0.55546 c 0,0 -2.96469,0.0764 -4.32905,0.924 -0.5391,0.33466 -1.32867,0.70525 -1.61213,1.27284 -0.5952,1.193 -0.78472,3.92205 -0.78472,3.92205 z"
             id="path3023-06"
             inkscape:connector-curvature="0"
             sodipodi:nodetypes="csssasscsscscsssccsscc" />
          <path
             style="fill:#ffffff;stroke:#000000;stroke-width:1px;stroke-linecap:butt;stroke-linejoin:miter;stroke-opacity:0"
             d="m 176.70565,267.09211 c 0,0 10.27052,0.23686 15.32048,0.13669 1.57924,-0.0315 3.23944,-0.18472 4.59562,-1.15507 0.98692,-0.70597 1.68788,-1.81737 2.14435,-2.94171 0.42409,-1.04458 0.59776,-2.20795 0.64523,-3.34134 0.0476,-1.13341 0.0182,-2.32278 -0.36352,-3.38363 -0.4862,-1.35186 -1.33506,-2.70695 -2.54911,-3.47523 -1.91717,-1.21314 -6.68277,-1.29058 -6.68277,-1.29058 0,0 -7.61271,-0.35313 -13.44986,-0.56375 -0.96442,-0.034 -0.52426,1.37078 -0.60311,2.33262 -0.10699,1.30382 1.57551,2.59233 1.57551,2.59233 0,0 0.88487,0.736 1.6459,0.91122 3.28027,0.75241 10.59184,0.44392 10.59184,0.44392 0,0 2.6637,-0.073 3.67047,0.82773 0.60878,0.54441 0.81163,1.6006 0.57397,2.38188 -0.18463,0.60711 -0.81581,1.04371 -1.40154,1.28838 -1.14294,0.47851 -3.7128,0.18121 -3.7128,0.18121 l -6.73203,-0.11373 c 0,0 -2.95769,-0.2185 -4.39943,0.48947 -0.56973,0.2794 -1.39214,0.5698 -1.73058,1.10642 -0.71073,1.128 -1.17037,3.82473 -1.17037,3.82473 z"
             id="path3023-56"
             inkscape:connector-curvature="0"
             sodipodi:nodetypes="csssasscsscscsssccsscc" />
          <path
             style="fill:#ffffff;stroke:#000000;stroke-width:1px;stroke-linecap:butt;stroke-linejoin:miter;stroke-opacity:0"
             d="m 147.16623,262.94422 c 0,0 10.19619,1.25573 15.23117,1.6577 1.57453,0.12538 3.24179,0.13776 4.68758,-0.69296 1.05215,-0.60447 1.86005,-1.64067 2.42592,-2.71416 0.52577,-0.99729 0.81414,-2.13769 0.97402,-3.26074 0.15989,-1.1231 0.24881,-2.30948 -0.0257,-3.403 -0.3495,-1.39345 -1.0596,-2.82616 -2.19125,-3.71126 -1.78719,-1.39756 -6.52154,-1.9479 -6.52154,-1.9479 0,0 -7.54001,-1.10745 -13.32739,-1.89681 -0.95628,-0.12958 -0.65776,1.31206 -0.83179,2.26115 -0.23606,1.28679 1.31024,2.73603 1.31024,2.73603 0,0 0.8067,0.82097 1.54726,1.07018 3.18934,1.07449 10.49538,1.4937 10.49538,1.4937 0,0 2.65779,0.19187 3.57017,1.18813 0.55163,0.60223 0.64862,1.67332 0.3345,2.42712 -0.24403,0.58585 -0.91558,0.95752 -1.52261,1.14287 -1.1848,0.3625 -3.71245,-0.18849 -3.71245,-0.18849 l -6.68743,-0.7818 c 0,0 -2.92136,-0.51117 -4.42631,0.0501 -0.5946,0.22154 -1.44186,0.42873 -1.83187,0.92906 -0.81925,1.05183 -1.54447,3.6896 -1.54447,3.6896 z"
             id="path3023-07"
             inkscape:connector-curvature="0"
             sodipodi:nodetypes="csssasscsscscsssccsscc" />
          <path
             style="fill:#ffffff;stroke:#000000;stroke-width:1px;stroke-linecap:butt;stroke-linejoin:miter;stroke-opacity:0"
             d="m 134.20619,15.682565 c 0,0 -9.91946,2.672564 -14.73578,4.19431 -1.50614,0.475877 -3.05557,1.091487 -4.08272,2.405327 -0.74735,0.955953 -1.10599,2.22 -1.2265,3.427425 -0.11199,1.121836 0.0499,2.286931 0.32439,3.387594 0.27441,1.100672 0.63838,2.233403 1.304,3.143345 0.84819,1.159513 2.04513,2.219703 3.42655,2.614133 2.18156,0.622888 6.77519,-0.648703 6.77519,-0.648703 0,0 7.40272,-1.810644 13.0619,-3.256695 0.93498,-0.238897 0.11581,-1.463032 -0.0801,-2.40796 -0.26518,-1.281096 -2.24339,-2.042011 -2.24339,-2.042011 0,0 -1.05646,-0.456724 -1.83627,-0.409283 -3.35923,0.204359 -10.28624,2.564644 -10.28624,2.564644 0,0 -2.53469,0.822115 -3.75485,0.242496 -0.73769,-0.350426 -1.23052,-1.306338 -1.22303,-2.122995 0.006,-0.634557 0.48804,-1.231657 0.98053,-1.631857 0.96161,-0.781413 3.51062,-1.22214 3.51062,-1.22214 l 6.49022,-1.791621 c 0,0 2.89897,-0.625397 4.08228,-1.711518 0.46752,-0.429113 1.17488,-0.939417 1.34779,-1.550002 0.36323,-1.282819 0.0433,-3.999544 0.0433,-3.999544 z"
             id="path3023-561"
             inkscape:connector-curvature="0"
             sodipodi:nodetypes="csssasscsscscsssccsscc" />
          <path
             style="fill:#ffffff;stroke:#000000;stroke-width:1px;stroke-linecap:butt;stroke-linejoin:miter;stroke-opacity:0"
             d="m 102.87115,25.952086 c 0,0 -9.450974,4.027076 -14.008628,6.204313 -1.425258,0.680861 -2.873932,1.506118 -3.708233,2.950124 -0.607031,1.05066 -0.786262,2.352319 -0.73756,3.564765 0.04524,1.126507 0.367691,2.25773 0.792696,3.30948 0.424919,1.05177 0.942992,2.122823 1.728773,2.931272 1.001308,1.030185 2.33416,1.913474 3.757025,2.111809 2.24702,0.313212 6.61897,-1.585313 6.61897,-1.585313 0,0 7.078677,-2.823283 12.481537,-5.042866 0.89263,-0.366696 -0.0889,-1.464916 -0.41444,-2.373378 -0.44089,-1.231723 -2.50575,-1.709919 -2.50575,-1.709919 0,0 -1.10974,-0.305249 -1.87536,-0.149742 -3.29809,0.669885 -9.829206,3.971254 -9.829206,3.971254 0,0 -2.395611,1.166874 -3.684559,0.76271 -0.77928,-0.244349 -1.40035,-1.122369 -1.506595,-1.93212 -0.08242,-0.629213 0.311879,-1.287594 0.743875,-1.75244 0.843508,-0.907639 3.306367,-1.698831 3.306367,-1.698831 l 6.177718,-2.677449 c 0,0 2.78372,-1.022768 3.80435,-2.263003 0.40325,-0.490004 1.0327,-1.093787 1.11895,-1.722494 0.18116,-1.320889 -0.51373,-3.966649 -0.51373,-3.966649 z"
             id="path3023-42"
             inkscape:connector-curvature="0"
             sodipodi:nodetypes="csssasscsscscsssccsscc" />
          <path
             style="fill:#ffffff;stroke:#000000;stroke-width:1px;stroke-linecap:butt;stroke-linejoin:miter;stroke-opacity:0"
             d="m 76.439705,39.096127 c 0,0 -8.798547,5.303212 -13.008824,8.093562 -1.31663,0.872588 -2.636348,1.891432 -3.261568,3.437495 -0.454914,1.124925 -0.451238,2.438857 -0.234284,3.632731 0.201582,1.10924 0.678352,2.184579 1.24553,3.166966 0.567185,0.982386 1.229252,1.970925 2.119909,2.662147 1.134926,0.88081 2.577743,1.569999 4.014361,1.56838 2.268728,-0.0026 6.33393,-2.491071 6.33393,-2.491071 0,0 6.616873,-3.780964 11.658233,-6.730884 0.83291,-0.487346 -0.29191,-1.438286 -0.74072,-2.2926 -0.60801,-1.158377 -2.71932,-1.344548 -2.71932,-1.344548 0,0 -1.14143,-0.147833 -1.87795,0.112718 -3.172783,1.122374 -9.180866,5.30057 -9.180866,5.30057 0,0 -2.209887,1.488922 -3.542553,1.268079 -0.805702,-0.133518 -1.542939,-0.916552 -1.760815,-1.703646 -0.169335,-0.611582 0.129623,-1.318463 0.492728,-1.838907 0.708984,-1.016204 3.037746,-2.14245 3.037746,-2.14245 l 5.744976,-3.511168 c 0,0 2.61429,-1.400238 3.452378,-2.770446 0.331136,-0.541357 0.87044,-1.226869 0.868332,-1.861461 -0.0044,-1.333244 -1.060771,-3.856546 -1.060771,-3.856546 z"
             id="path3023-14"
             inkscape:connector-curvature="0"
             sodipodi:nodetypes="csssasscsscscsssccsscc" />
          <path
             style="fill:#ffffff;stroke:#000000;stroke-width:1px;stroke-linecap:butt;stroke-linejoin:miter;stroke-opacity:0"
             d="m 50.823926,56.919017 c 0,0 -7.503676,7.016647 -11.041802,10.62138 -1.106412,1.127297 -2.185495,2.398214 -2.475612,4.040476 -0.211086,1.194941 0.06569,2.479395 0.526131,3.602066 0.427803,1.043108 1.117728,1.995819 1.87677,2.838826 0.759033,0.842978 1.612157,1.672255 2.627068,2.163197 1.293251,0.625605 2.847839,0.999757 4.252722,0.699471 2.218517,-0.474638 5.67762,-3.753494 5.67762,-3.753494 0,0 5.686157,-5.074062 10.004045,-9.007653 0.713117,-0.650182 -0.58461,-1.346166 -1.201185,-2.088503 -0.835932,-1.006354 -2.939443,-0.749792 -2.939443,-0.749792 0,0 -1.147241,0.09262 -1.813452,0.500811 -2.870089,1.757493 -7.878191,7.093514 -7.878191,7.093514 0,0 -1.852028,1.915865 -3.201477,1.976935 -0.81586,0.0369 -1.699776,-0.575718 -2.076549,-1.300325 -0.29278,-0.56298 -0.147329,-1.316591 0.09963,-1.901159 0.482219,-1.141397 2.52593,-2.727211 2.52593,-2.727211 l 4.889422,-4.628891 c 0,0 2.26604,-1.913167 2.800919,-3.427714 0.211348,-0.598339 0.596331,-1.381009 0.462336,-2.0013 -0.281511,-1.303205 -1.839401,-3.551721 -1.839401,-3.551721 z"
             id="path3023-96"
             inkscape:connector-curvature="0"
             sodipodi:nodetypes="csssasscsscscsssccsscc" />
          <path
             style="fill:#ffffff;stroke:#000000;stroke-width:1px;stroke-linecap:butt;stroke-linejoin:miter;stroke-opacity:0"
             d="m 29.085025,78.326301 c 0,0 -5.278914,8.813127 -7.686425,13.253467 -0.752826,1.388596 -1.439785,2.90772 -1.265992,4.566331 0.126474,1.206807 0.746566,2.365251 1.498609,3.317521 0.698809,0.8847 1.624534,1.61042 2.586575,2.21148 0.961969,0.60116 2.010658,1.16314 3.12157,1.35532 1.415583,0.24486 3.013071,0.17602 4.280763,-0.49991 2.001744,-1.06776 4.42308,-5.173029 4.42308,-5.173029 0,0 4.06727,-6.444808 7.133656,-11.416213 0.506271,-0.821552 -0.932966,-1.13287 -1.730336,-1.676498 -1.080645,-0.737332 -3.032237,0.08949 -3.032237,0.08949 0,0 -1.077238,0.405328 -1.605212,0.981174 -2.274473,2.480514 -5.61778,8.99026 -5.61778,8.99026 0,0 -1.252195,2.352146 -2.532498,2.782786 -0.77422,0.260054 -1.792655,-0.0849 -2.354557,-0.677566 -0.4365,-0.460592 -0.504579,-1.224951 -0.428327,-1.85496 0.148935,-1.230086 1.676362,-3.317799 1.676362,-3.317799 l 3.42412,-5.7973 c 0,0 1.650935,-2.463656 1.747615,-4.066982 0.03823,-0.63341 0.192583,-1.49186 -0.10722,-2.05118 -0.629449,-1.175324 -2.747121,-2.907098 -2.747121,-2.907098 z"
             id="path3023-71"
             inkscape:connector-curvature="0"
             sodipodi:nodetypes="csssasscsscscsssccsscc" />
          <path
             style="fill:#ffffff;stroke:#000000;stroke-width:1px;stroke-linecap:butt;stroke-linejoin:miter;stroke-opacity:0"
             d="m 14.658926,103.82675 c 0,0 -2.990051,9.82844 -4.251795,14.71928 -0.394571,1.52945 -0.693582,3.16966 -0.123687,4.73696 0.414667,1.14039 1.296583,2.11438 2.256673,2.85645 0.892033,0.68942 1.965885,1.16956 3.044739,1.5201 1.07883,0.35052 2.232302,0.64215 3.356708,0.55983 1.43276,-0.10516 2.966186,-0.55803 4.032706,-1.52057 1.683974,-1.52029 3.040219,-6.08942 3.040219,-6.08942 0,0 2.387322,-7.23736 4.159938,-12.80286 0.292473,-0.91966 -1.179375,-0.87351 -2.084508,-1.20813 -1.227113,-0.45357 -2.920538,0.82037 -2.920538,0.82037 0,0 -0.947185,0.6539 -1.320164,1.34038 -1.606829,2.95707 -3.275957,10.08224 -3.275957,10.08224 0,0 -0.645958,2.58524 -1.784083,3.31283 -0.688288,0.43962 -1.759926,0.35124 -2.448517,-0.0878 -0.535047,-0.34118 -0.785897,-1.06657 -0.864285,-1.69627 -0.153096,-1.22961 0.823904,-3.62481 0.823904,-3.62481 l 1.919915,-6.45345 c 0,0 1.005872,-2.78987 0.71183,-4.36893 -0.116203,-0.62386 -0.174081,-1.49417 -0.600262,-1.96435 -0.895397,-0.98786 -3.368837,-2.1562 -3.368837,-2.1562 z"
             id="path3023-154"
             inkscape:connector-curvature="0"
             sodipodi:nodetypes="csssasscsscscsssccsscc" />
          <path
             style="fill:#ffffff;stroke:#000000;stroke-width:1px;stroke-linecap:butt;stroke-linejoin:miter;stroke-opacity:0"
             d="m 7.8537152,133.09683 c 0,0 -0.165138,10.27187 -0.02992,15.32103 0.04231,1.57894 0.206962,3.23805 1.186773,4.58756 0.712944,0.98191 1.8291688,1.67509 2.9566038,2.12375 1.047503,0.41684 2.212106,0.58237 3.345784,0.62199 1.133652,0.0396 2.322842,0.002 3.380985,-0.38713 1.348268,-0.49601 2.697465,-1.35402 3.457365,-2.57325 1.19969,-1.92555 1.243954,-6.69154 1.243954,-6.69154 0,0 0.299956,-7.61503 0.469853,-13.45352 0.02763,-0.96466 -1.374467,-0.51465 -2.336792,-0.58674 -1.304563,-0.0977 -2.581239,1.59362 -2.581239,1.59362 0,0 -0.730258,0.88963 -0.899576,1.65232 -0.729499,3.28543 -0.370001,10.59465 -0.370001,10.59465 0,0 0.0916,2.66314 -0.801836,3.67627 -0.540455,0.61229 -1.594929,0.82273 -2.377784,0.59078 -0.60838,-0.1805 -1.049455,-0.80864 -1.298382,-1.39234 -0.48608,-1.13978 -0.207114,-3.71147 -0.207114,-3.71147 l 0.0667,-6.73268 c 0,0 0.197911,-2.95904 -0.519985,-4.39591 -0.283657,-0.56764 -0.579189,-1.3883 -1.118463,-1.72277 -1.133001,-0.70282 -3.8326418,-1.14413 -3.8326418,-1.14413 z"
             id="path3023-19"
             inkscape:connector-curvature="0"
             sodipodi:nodetypes="csssasscsscscsssccsscc" />
          <path
             style="fill:#ffffff;stroke:#000000;stroke-width:1px;stroke-linecap:butt;stroke-linejoin:miter;stroke-opacity:0"
             d="m 11.248038,163.50678 c 0,0 3.358002,9.70889 5.212006,14.4073 0.57979,1.46924 1.301958,2.97199 2.684235,3.90498 1.005793,0.67888 2.29178,0.94846 3.504677,0.98447 1.1269,0.0334 2.277876,-0.2093 3.356735,-0.55991 1.078834,-0.35051 2.183414,-0.7926 3.044674,-1.52015 1.097312,-0.92723 2.071683,-2.19496 2.368747,-3.60055 0.468766,-2.21974 -1.119684,-6.71343 -1.119684,-6.71343 0,0 -2.322628,-7.25837 -4.159867,-12.80288 -0.303928,-0.91596 -1.467579,-0.0135 -2.396523,0.24788 -1.259475,0.3539 -1.880525,2.38038 -1.880525,2.38038 0,0 -0.381951,1.08572 -0.280202,1.86032 0.43819,3.33679 3.275895,10.0823 3.275895,10.0823 0,0 0.997012,2.47114 0.503882,3.72879 -0.298444,0.76019 -1.217351,1.3186 -2.032322,1.36838 -0.633425,0.0383 -1.262712,-0.40092 -1.696274,-0.86428 -0.846595,-0.90478 -1.464017,-3.4168 -1.464017,-3.4168 l -2.240043,-6.34948 c 0,0 -0.826091,-2.84828 -1.992117,-3.95294 -0.460615,-0.43646 -1.019066,-1.10648 -1.640231,-1.23634 -1.305021,-0.27291 -3.992801,0.23569 -3.992801,0.23569 z"
             id="path3023-320"
             inkscape:connector-curvature="0"
             sodipodi:nodetypes="csssasscsscscsssccsscc" />
          <path
             style="fill:#ffffff;stroke:#000000;stroke-width:1px;stroke-linecap:butt;stroke-linejoin:miter;stroke-opacity:0"
             d="m 22.615535,190.00108 c 0,0 6.476162,7.97484 9.825263,11.75585 1.047362,1.1823 2.23998,2.3474 3.857974,2.75139 1.177264,0.29387 2.477922,0.10743 3.629996,-0.27358 1.070335,-0.35406 2.068906,-0.97577 2.962785,-1.67421 0.893935,-0.69827 1.780651,-1.4916 2.341209,-2.46976 0.714012,-1.24664 1.19603,-2.77112 0.994338,-4.19362 -0.318707,-2.24619 -3.348284,-5.92562 -3.348284,-5.92562 0,0 -4.665046,-6.02623 -8.287828,-10.60801 -0.598866,-0.75675 -1.383693,0.48927 -2.167244,1.05259 -1.062435,0.76332 -0.952949,2.87995 -0.952949,2.87995 0,0 0.01241,1.15094 0.372931,1.84399 1.553033,2.98573 6.526688,8.35386 6.526688,8.35386 0,0 1.782308,1.98093 1.748775,3.33156 -0.02043,0.81645 -0.692939,1.65547 -1.441742,1.98099 -0.582154,0.25255 -1.323632,0.0552 -1.889595,-0.23193 -1.104974,-0.56071 -2.544304,-2.71007 -2.544304,-2.71007 l -4.276553,-5.20038 c 0,0 -1.750474,-2.39401 -3.224029,-3.03316 -0.582092,-0.2527 -1.336061,-0.69131 -1.964206,-0.60083 -1.319715,0.18952 -3.671301,1.58719 -3.671301,1.58719 z"
             id="path3023-40"
             inkscape:connector-curvature="0"
             sodipodi:nodetypes="csssasscsscscsssccsscc" />
          <path
             style="fill:#ffffff;stroke:#000000;stroke-width:1px;stroke-linecap:butt;stroke-linejoin:miter;stroke-opacity:0"
             d="m 120.01765,256.79279 c 0,0 10.14889,1.59305 15.16777,2.162 1.56941,0.17782 3.23531,0.24561 4.70807,-0.53677 1.07154,-0.56935 1.91332,-1.57823 2.51457,-2.63228 0.55848,-0.97934 0.88459,-2.1095 1.0815,-3.22664 0.19711,-1.11713 0.32523,-2.3 0.0873,-3.40199 -0.30354,-1.40421 -0.96541,-2.85968 -2.06711,-3.78179 -1.73987,-1.45601 -6.45329,-2.16315 -6.45329,-2.16315 0,0 -7.49915,-1.35682 -13.25721,-2.33766 -0.95141,-0.16164 -0.70092,1.28949 -0.90622,2.23235 -0.27882,1.27824 1.21889,2.77795 1.21889,2.77795 0,0 0.77935,0.84699 1.51103,1.12077 3.15193,1.17965 10.44013,1.84093 10.44013,1.84093 0,0 2.64995,0.27952 3.5288,1.30566 0.53113,0.6204 0.59269,1.69396 0.25411,2.43688 -0.26364,0.57722 -0.94672,0.9267 -1.55949,1.09194 -1.19634,0.32268 -3.70416,-0.31154 -3.70416,-0.31154 l -6.65791,-1.00302 c 0,0 -2.90267,-0.60782 -4.4255,-0.0968 -0.60163,0.20163 -1.45533,0.38038 -1.86162,0.86782 -0.85395,1.02393 -1.6664,3.6361 -1.6664,3.6361 z"
             id="path3023-01"
             inkscape:connector-curvature="0"
             sodipodi:nodetypes="csssasscsscscsssccsscc" />
          <path
             style="fill:#ffffff;stroke:#000000;stroke-width:1px;stroke-linecap:butt;stroke-linejoin:miter;stroke-opacity:0"
             d="m 93.035199,245.83013 c 0,0 9.718081,3.33123 14.561951,4.76295 1.51468,0.44762 3.14349,0.80367 4.72973,0.28888 1.1541,-0.37463 2.15832,-1.22202 2.93345,-2.15564 0.72008,-0.86741 1.23753,-1.92379 1.62538,-2.98985 0.3881,-1.0659 0.71968,-2.20855 0.67668,-3.33511 -0.0551,-1.43556 -0.45408,-2.98384 -1.379,-4.08329 -1.4606,-1.73599 -5.97961,-3.25092 -5.97961,-3.25092 0,0 -7.14958,-2.63839 -12.649844,-4.60419 -0.908925,-0.32442 -0.914195,1.14817 -1.280119,2.0411 -0.49654,1.21034 0.717977,2.94737 0.717977,2.94737 0,0 0.620446,0.96944 1.29352,1.36603 2.899206,1.70907 9.961786,3.62588 9.961786,3.62588 0,0 2.56126,0.73543 3.24852,1.8986 0.41523,0.70327 0.28961,1.77113 -0.17289,2.444 -0.35987,0.52264 -1.09326,0.74822 -1.72543,0.80454 -1.23419,0.11014 -3.5938,-0.95 -3.5938,-0.95 l -6.382578,-2.14396 c 0,0 -2.75302,-1.10257 -4.341457,-0.86384 -0.627509,0.0942 -1.499256,0.12189 -1.984031,0.53146 -1.018723,0.86004 -2.272381,3.2915 -2.272381,3.2915 z"
             id="path3023-87"
             inkscape:connector-curvature="0"
             sodipodi:nodetypes="csssasscsscscsssccsscc" />
          <path
             style="fill:#ffffff;stroke:#000000;stroke-width:1px;stroke-linecap:butt;stroke-linejoin:miter;stroke-opacity:0"
             d="m 42.72165,213.03041 c 0,0 7.522994,6.99594 11.365722,10.27398 1.201709,1.0251 2.544839,2.01289 4.203346,2.18776 1.206732,0.12719 2.46877,-0.23849 3.556587,-0.77612 1.01068,-0.49958 1.913,-1.25419 2.701022,-2.07019 0.788009,-0.81596 1.555747,-1.7249 1.974632,-2.77159 0.533549,-1.33387 0.798714,-2.91066 0.401025,-4.29118 -0.628215,-2.17998 -4.140414,-5.40196 -4.140414,-5.40196 0,0 -5.458351,-5.31836 -9.683497,-9.35129 -0.698389,-0.66609 -1.302125,0.67705 -1.999616,1.34395 -0.945931,0.90373 -0.542899,2.98458 -0.542899,2.98458 0,0 0.172494,1.138 0.626,1.77414 1.953429,2.7405 7.625761,7.36417 7.625761,7.36417 0,0 2.040404,1.71393 2.195469,3.05576 0.09342,0.81135 -0.455795,1.73583 -1.152012,2.16237 -0.541297,0.33121 -1.303142,0.23889 -1.903483,0.0332 -1.172269,-0.40143 -2.896765,-2.32955 -2.896765,-2.32955 l -4.95872,-4.55464 c 0,0 -2.066564,-2.12705 -3.614738,-2.555 -0.611584,-0.16911 -1.41922,-0.49853 -2.028644,-0.32158 -1.280713,0.3714 -3.415049,2.08253 -3.415049,2.08253 z"
             id="path3023-63"
             inkscape:connector-curvature="0"
             sodipodi:nodetypes="csssasscsscscsssccsscc" />
          <path
             style="fill:#ffffff;stroke:#000000;stroke-width:1px;stroke-linecap:butt;stroke-linejoin:miter;stroke-opacity:0"
             d="m 67.102082,231.71667 c 0,0 8.991983,4.96815 13.513625,7.21923 1.413998,0.70385 2.956244,1.33732 4.607762,1.10583 1.201637,-0.16853 2.337716,-0.82867 3.26321,-1.6135 0.859765,-0.72922 1.552716,-1.67974 2.11985,-2.66216 0.567305,-0.98235 1.092247,-2.05004 1.245564,-3.16699 0.19503,-1.42333 0.07089,-3.0174 -0.648991,-4.2607 -1.136961,-1.96324 -5.324261,-4.23986 -5.324261,-4.23986 0,0 -6.582824,-3.83983 -11.658173,-6.73086 -0.83876,-0.47734 -1.099708,0.97195 -1.615104,1.78776 -0.699178,1.10577 0.195269,3.02728 0.195269,3.02728 0,0 0.442672,1.06246 1.036674,1.56995 2.558378,2.18652 9.18086,5.30064 9.18086,5.30064 0,0 2.394571,1.16899 2.869414,2.43384 0.286908,0.76463 -0.02234,1.79448 -0.594691,2.37682 -0.445089,0.45231 -1.206572,0.54701 -1.838914,0.4927 -1.234525,-0.10594 -3.374238,-1.55962 -3.374238,-1.55962 l -5.913296,-3.21971 c 0,0 -2.519745,-1.56391 -4.125507,-1.60462 -0.634316,-0.0162 -1.497637,-0.14037 -2.046162,0.17887 -1.15262,0.67009 -2.809506,2.84683 -2.809506,2.84683 z"
             id="path3023-03"
             inkscape:connector-curvature="0"
             sodipodi:nodetypes="csssasscsscscsssccsscc" />
        </g>
      </g>
    </g>
    <g
       transform="translate(567.32646,69.487973)"
       id="g4338">
      <g
         transform="translate(-567.77356,-69.130911)"
         id="g4366">
        <path
           sodipodi:nodetypes="cccsssscc"
           inkscape:connector-curvature="0"
           id="path4170"
           d="M 68.091485,204.15154 395.98625,131.36082 117.55842,32.840206 c 0,0 2.11945,17.419202 2.37972,26.176976 0.45264,15.23095 0.066,30.526447 -1.42783,45.690718 -1.04068,10.56409 -2.97277,21.22301 -5.94932,31.41237 -3.62742,12.41743 -8.13503,24.96439 -14.992261,35.93385 -5.007721,8.01081 -18.085911,21.17956 -18.085911,21.17956 z"
           style="fill:#ffffff;fill-opacity:1;stroke:#000000;stroke-width:1px;stroke-linecap:butt;stroke-linejoin:miter;stroke-opacity:1" />
        <g
           id="g4304">
          <path
             transform="translate(46.274793,19.856093)"
             inkscape:connector-curvature="0"
             id="path4266"
             d="M 6.5551039,205.91012 13.694279,208.76579 72.711457,6.489155 65.929243,4.5258819 z"
             style="fill:#ffffff;fill-opacity:1;stroke:#000000;stroke-width:1px;stroke-linecap:butt;stroke-linejoin:miter;stroke-opacity:1"
             sodipodi:nodetypes="ccccc" />
          <g
             id="g4299"
             transform="translate(-12.78867,-24.904252)">
            <path
               sodipodi:nodetypes="ccccccc"
               inkscape:connector-curvature="0"
               id="path4290"
               d="m 121.34545,48.506114 14.36313,4.356396 c 0,0 0.79798,-3.618923 0.0545,-5.814875 -1.92378,-3.849088 -5.27713,-4.961593 -9.30051,-4.181149 -1.97753,0.494578 -3.60217,1.492873 -4.5591,3.253934 -0.41191,0.705209 -0.55799,2.38569 -0.55799,2.38569 z"
               style="fill:#ffffff;stroke:#000000;stroke-width:1px;stroke-linecap:butt;stroke-linejoin:miter;stroke-opacity:1" />
            <path
               sodipodi:nodetypes="casccccc"
               inkscape:connector-curvature="0"
               id="path4292"
               d="m 130.83145,43.4385 c 0,0 0.11346,1.682765 0.0841,2.524079 -0.057,1.634315 -0.0316,3.923359 -0.50482,4.879888 -0.32645,0.659817 -0.67308,0.08414 -0.67308,0.08414 l 5.80538,1.514447 0.33654,-3.954391 -1.68272,-3.533711 z"
               style="fill:#000000;fill-opacity:1;stroke:#000000;stroke-width:1px;stroke-linecap:butt;stroke-linejoin:miter;stroke-opacity:1" />
          </g>
        </g>
        <path
           sodipodi:nodetypes="cccccccccc"
           inkscape:connector-curvature="0"
           id="path4324"
           d="m 222.49637,97.285531 3.26337,54.540539 14.86918,-0.0204 32.38638,-54.676432 -21.02204,0.118986 -7.9989,13.835626 7.06743,0 -12.80909,18.62891 -1.08779,-32.52578 z"
           style="fill:#000000;fill-opacity:1;stroke:#000000;stroke-width:1px;stroke-linecap:butt;stroke-linejoin:miter;stroke-opacity:1" />
        <path
           inkscape:connector-curvature="0"
           id="path4326"
           d="m 137.4375,97.8125 -6.0625,12.25 7.46875,0.125 -12,40.6875 c 1.90378,0.11898 14.5,0 14.5,0 l 4.875,-16.78125 12.5,0.25 c 0,0 4.87415,-0.69646 7.03125,-1.78125 2.69506,-1.35532 5.07799,-3.41983 7.03125,-5.71875 2.01312,-2.36938 3.61844,-5.15208 4.625,-8.09375 1.11497,-3.25851 1.75238,-6.82044 1.4375,-10.25 -0.18347,-1.99836 -0.68144,-4.09787 -1.90625,-5.6875 -1.59126,-2.06523 -0.48425,-0.98238 -2.75,-2.75 -1.00118,-0.781063 -4.19904,-2.140845 -5.46875,-2.125 -9.56543,0.119367 -31.28125,-0.125 -31.28125,-0.125 z m 19.09375,12.21875 c 1.73225,-0.0136 3.78145,-0.0233 5.0625,0.0312 1.24429,0.053 1.49168,0.95889 2.125,2.03125 0.69313,1.17362 0.88008,2.69865 0.59375,4.03125 -0.24731,1.15097 -1.09398,2.11663 -1.90625,2.96875 -1.04027,1.09131 -3.5625,2.40625 -3.5625,2.40625 l -9.28125,-0.125 3.8125,-11.3125 c 0,0 1.424,-0.0176 3.15625,-0.0312 z"
           style="fill:#000000;fill-opacity:1;stroke:#000000;stroke-width:1px;stroke-linecap:butt;stroke-linejoin:miter;stroke-opacity:1" />
        <path
           sodipodi:nodetypes="ccssssccssssssccccssaasssssssscccc"
           inkscape:connector-curvature="0"
           id="path4331"
           d="m 220.99038,101.35292 -7.28497,12.25499 c 0,0 -4.83996,-3.04663 -7.42934,-4.35465 -2.1175,-1.06965 -4.97609,-1.45428 -6.44712,-1.03005 -0.99376,0.28659 -2.47643,1.10017 -2.95074,2.01926 -0.56824,1.10111 -0.73589,2.52902 -0.33654,3.70199 0.66519,1.95382 2.55594,3.30457 4.2068,4.54334 5.55472,2.74066 9.52577,6.81029 10.43286,12.78867 0.27136,1.97324 -0.32083,4.0206 -1.00963,5.88952 -0.83497,2.26554 -2.08848,4.42984 -3.70199,6.22606 -2.4364,2.71229 -5.5582,4.80077 -8.75014,6.56261 -1.78751,0.98664 -3.72874,1.7419 -5.72125,2.18753 -2.19568,0.49107 -4.49623,0.76656 -6.73088,0.50482 -2.57232,-0.30129 -5.10668,-1.15994 -7.40396,-2.35581 -2.37828,-1.23804 -6.39434,-4.87988 -6.39434,-4.87988 l -3.36544,-3.70199 9.59151,-9.92804 3.87025,3.87025 c 0,0 2.43441,2.21926 3.74282,2.79093 1.33736,0.58431 2.44889,0.60141 3.66115,0.40624 1.46201,-0.23538 2.9409,-0.85697 4.03853,-1.85099 0.92072,-0.83381 1.81745,-1.97699 1.87985,-3.21759 0.0834,-1.6583 -1.05045,-3.21973 -2.06854,-4.53138 -1.58556,-2.04273 -4.45986,-2.59338 -6.39434,-4.2765 -1.39107,-1.21032 -2.83417,-2.491 -3.68157,-4.12864 -1.03174,-1.99391 -1.40675,-4.32017 -1.51444,-6.56261 -0.10312,-2.14734 -0.0141,-4.42205 0.84136,-6.39433 0.80876,-1.86462 2.26474,-3.92049 3.75126,-5.30655 1.91236,-1.78312 4.28176,-3.398126 6.63232,-4.543344 1.9464,-0.948312 4.32146,-1.777218 6.46403,-2.088965 1.7762,-0.258439 4.19731,-0.107131 5.86064,0.237972 2.3282,0.564025 4.18437,1.998213 6.06625,3.385855 l 1.90028,-2.762052 z"
           style="fill:#000000;fill-opacity:1;stroke:#000000;stroke-width:1px;stroke-linecap:butt;stroke-linejoin:miter;stroke-opacity:1" />
        <g
           transform="translate(46.274793,19.856093)"
           id="g4286">
          <g
             id="g4310">
            <path
               sodipodi:nodetypes="ccccc"
               inkscape:connector-curvature="0"
               id="path4266-0"
               d="M 9.9046291,206.76264 11.827373,208.10386 70.508005,5.9955071 68.654959,5.7455731 z"
               style="fill:#000000;stroke:#000000;stroke-width:1px;stroke-linecap:butt;stroke-linejoin:miter;stroke-opacity:1" />
          </g>
        </g>
      </g>
    </g>
  </g>
</svg>
