<?xml version="1.0" encoding="UTF-8" standalone="no"?>
<svg
   xmlns:dc="http://purl.org/dc/elements/1.1/"
   xmlns:cc="http://creativecommons.org/ns#"
   xmlns:rdf="http://www.w3.org/1999/02/22-rdf-syntax-ns#"
   xmlns:svg="http://www.w3.org/2000/svg"
   xmlns="http://www.w3.org/2000/svg"
   xmlns:sodipodi="http://sodipodi.sourceforge.net/DTD/sodipodi-0.dtd"
   xmlns:inkscape="http://www.inkscape.org/namespaces/inkscape"
   version="1.2"
   id="Layer_1"
   x="0px"
   y="0px"
   width="492.30035"
   height="600"
   viewBox="0 0 492.30035 600"
   xml:space="preserve"
   sodipodi:docname="Logo_Stade_Rennais_FC.svg"
   inkscape:version="1.0.1 (c497b03c, 2020-09-10)"><metadata
   id="metadata876"><rdf:RDF><cc:Work
       rdf:about=""><dc:format>image/svg+xml</dc:format><dc:type
         rdf:resource="http://purl.org/dc/dcmitype/StillImage" /></cc:Work></rdf:RDF></metadata><defs
   id="defs874" /><sodipodi:namedview
   pagecolor="#ffffff"
   bordercolor="#666666"
   borderopacity="1"
   objecttolerance="10"
   gridtolerance="10"
   guidetolerance="10"
   inkscape:pageopacity="0"
   inkscape:pageshadow="2"
   inkscape:window-width="1920"
   inkscape:window-height="1080"
   id="namedview872"
   showgrid="false"
   inkscape:zoom="1.2913793"
   inkscape:cx="237.308"
   inkscape:cy="282.409"
   inkscape:window-x="0"
   inkscape:window-y="0"
   inkscape:window-maximized="0"
   inkscape:current-layer="Layer_1" />


<g
   id="g936"><path
     id="path9808"
     fill="#fcbc17"
     d="m 464.42007,191.05713 c -6.64321,-27.52477 -12.3759,-51.29601 -13.89132,-64.74693 -3.91058,-34.758012 11.43779,-58.458155 11.59909,-58.683133 L 466.51067,60.981731 417.75309,0 411.01012,1.6512525 C 366.32655,12.643331 308.26634,18.682712 247.52551,18.682712 l -1.37428,-0.0053 -1.37427,0.0053 c -60.74084,0 -118.80104,-6.039381 -163.48461,-17.0314595 L 74.549381,0 25.789678,60.981731 l 4.382823,6.645336 c 0.160243,0.224978 15.508614,23.925121 11.598032,58.683133 -1.514355,13.44986 -7.248107,37.22216 -13.890259,64.74693 C 15.456615,242.53779 0,306.61297 0,351.91099 0,434.36643 33.676637,475.39517 133.45431,514.49887 l 10.27045,3.99017 c 38.48713,14.91221 80.06134,27.87603 93.7436,59.49709 4.46878,8.58099 5.61808,10.87322 8.68181,22.01387 3.06373,-11.14065 4.21303,-13.43288 8.68181,-22.01387 13.68226,-31.62212 55.25541,-44.58594 93.7436,-59.49709 l 10.27045,-3.99017 c 99.77662,-39.10476 133.45432,-80.1335 133.45432,-162.58788 0,-45.29696 -15.45874,-109.37426 -27.88028,-160.85386 z"
     style="stroke-width:1.06122" /><path
     id="path9810"
     fill="#e13327"
     d="m 472.35266,275.8568 c -5.35065,-27.77946 -12.28039,-56.51826 -18.49169,-82.25169 -6.6464,-27.62452 -12.41729,-51.23658 -14.12585,-66.07981 -0.48922,-4.3425 -0.70783,-8.5343 -0.70783,-12.55207 0.018,-23.324471 7.2566,-40.601072 11.29452,-48.502888 1.37428,-2.672143 2.31452,-4.17907 2.7199,-4.799881 0.006,-0.0096 0.0117,-0.01698 0.018,-0.02335 l 0.0244,-0.0382 c 0.002,-0.0042 0.005,-0.0085 0.008,-0.0138 L 413.59843,12.198681 C 367.71568,23.47092 308.99964,29.531526 247.52233,29.544261 h -0.0456 l -1.3297,-0.0064 V 570.88235 c 4.06764,-8.30084 9.75364,-15.39613 16.34485,-21.43763 7.33088,-6.72068 15.7771,-12.22309 24.7794,-17.04632 18.00778,-9.61992 38.36297,-16.64942 57.36829,-24.0323 l 10.23968,-3.9785 c 36.82314,-14.41556 63.91387,-28.95635 83.04123,-45.08259 19.12948,-16.18461 30.56727,-33.62358 37.13408,-55.76267 4.3425,-14.77213 6.38215,-31.74735 6.38003,-51.63029 0.018,-21.43976 -3.72168,-48.3002 -9.08189,-76.05525 z"
     style="stroke-width:1.06122" /><path
     id="path9812"
     d="m 246.14487,29.536832 -1.37003,0.0064 C 183.29752,29.530465 124.5783,23.469859 78.70723,12.199742 l -0.008,-0.0021 -39.494228,49.396433 c 0.02229,0.03396 0.03184,0.04882 0.05625,0.08596 0.03502,0.05306 0.06261,0.09657 0.09339,0.143265 0.05943,0.09126 0.12204,0.193141 0.196325,0.309875 0.146448,0.23559 0.330038,0.536975 0.54971,0.909462 0.437221,0.742852 1.013461,1.766925 1.683089,3.058425 1.340316,2.580878 3.052058,6.233585 4.750004,10.838202 3.391647,9.202867 6.733417,22.248396 6.735539,38.032926 0,4.01776 -0.21861,8.20745 -0.705708,12.551 -1.707497,14.84324 -7.480514,38.45636 -14.12585,66.08088 -6.211299,25.73449 -13.13998,54.47223 -18.491693,82.25169 -5.359143,27.75399 -9.09993,54.61549 -9.085073,76.05312 -0.0021,19.88189 2.036474,36.85923 6.380032,51.62924 4.356293,14.78274 10.943262,27.41121 20.463433,39.02941 18.954384,23.17802 50.55528,42.58554 99.68217,61.80417 l 10.2609,3.98699 c 14.25638,5.52788 29.28002,10.89126 43.48864,17.25962 14.19695,6.3864 27.65954,13.74912 38.6686,23.82431 6.59227,6.0415 12.27827,13.13679 16.34485,21.43763 V 29.536832 Z"
     style="stroke-width:1.06122" /></g>







<path
   id="path9828"
   fill="#ffffff"
   d="m 289.54118,380.93207 c 0,3.20699 -0.0605,5.48224 2.96929,7.25659 v 0.16768 h -10.11339 v -0.16768 c 3.02871,-1.77435 3.02871,-4.04854 3.02871,-7.25659 v -22.79175 c 0,-3.19426 0,-5.48118 -2.97565,-7.19716 v -0.17086 h 8.34328 v 0.052 c 0.23134,0.68873 0.46481,0.9742 0.85852,1.43689 l 0.80228,1.1408 20.90596,26.3967 v -21.6573 c 0,-3.19533 0.0573,-5.48119 -2.97246,-7.19717 v -0.17192 h 10.0582 v 0.17192 c -2.96716,1.71598 -2.96716,4.00184 -2.96716,7.19717 v 32.04979 c -4.06127,-1.37215 -5.83032,-3.25475 -8.34222,-6.5095 l -19.5943,-24.85156 v 22.10195"
   style="stroke-width:1.06122" />
<path
   id="path9830"
   fill="#ffffff"
   d="m 329.2381,380.93207 c 0,3.20699 -0.0562,5.48224 2.97353,7.25659 v 0.16768 h -10.1187 v -0.16768 c 3.03296,-1.77435 3.03296,-4.04854 3.03296,-7.25659 v -22.79175 c 0,-3.19426 0,-5.48118 -2.97247,-7.19716 v -0.17086 h 8.34328 v 0.052 c 0.22286,0.68873 0.4542,0.9742 0.84898,1.43689 l 0.81076,1.1408 20.90596,26.3967 v -21.6573 c 0,-3.19533 0.0541,-5.48119 -2.97458,-7.19717 v -0.17192 h 10.05396 v 0.17192 c -2.96928,1.71598 -2.96928,4.00184 -2.96928,7.19717 v 32.04979 c -4.05597,-1.37215 -5.82608,-3.25475 -8.33586,-6.5095 L 329.2381,358.83012 v 22.10195"
   style="stroke-width:1.06122" />


<g
   id="g911"><path
     id="path9814"
     fill="#ffffff"
     d="m 74.240567,357.57045 c -2.227493,-2.28586 -5.766649,-3.59858 -8.970461,-3.59858 -3.25475,0 -7.36378,1.25966 -7.36378,5.19571 0,7.82647 19.647354,7.71929 19.647354,18.27839 0,6.11155 -6.398069,11.82938 -15.305918,11.82938 -3.482912,0 -6.967946,-0.51681 -10.229063,-1.71599 l -1.654437,-7.1388 c 3.370423,2.91622 8.052509,4.73939 12.509618,4.73939 3.25475,0 8.164998,-1.94202 8.164998,-5.94493 0,-8.90891 -19.647358,-7.29799 -19.647358,-19.4192 0,-7.19611 7.372269,-9.94041 14.341276,-9.94041 2.850427,0 5.768772,0.4022 8.50671,1.2533 l 0.0011,6.46174"
     style="stroke-width:1.06122" /><path
     id="path9816"
     fill="#ffffff"
     d="m 93.76589,380.93207 c 0,3.26005 -0.0563,5.48224 2.97246,7.25659 v 0.16768 H 85.4226 v -0.16768 c 2.86529,-1.08562 2.51827,-5.24771 2.51827,-7.82647 V 354.88664 H 82.9107 c -2.45565,0 -5.02061,0.62824 -6.79709,2.27949 H 75.9417 l 2.00145,-6.79921 h 0.1698 c 0.68872,0.29077 1.43158,0.29077 2.17018,0.40326 h 22.73868 c 0.9742,0 1.88578,-0.0531 2.62757,-0.40326 h 0.1698 l -1.82317,6.79921 h -0.17828 c -0.74286,-1.98978 -3.02341,-2.27949 -4.9145,-2.27949 h -5.13628 l -10e-4,26.04543"
     style="stroke-width:1.06122" /><path
     id="path9818"
     fill="#ffffff"
     d="m 119.24463,355.62843 -5.65629,14.39433 h 11.25632 l -5.60003,-14.39433 m -7.13774,18.62328 -2.97459,8.05888 c -1.19599,3.19532 -1.59713,4.85824 1.14293,5.8802 v 0.16555 H 99.7607 v -0.16555 c 3.31417,-1.65762 4.28837,-4.85189 5.54061,-8.10664 l 9.54033,-23.82536 c 0.8044,-2.05452 1.89109,-4.45817 -0.84897,-5.31457 v -0.17192 h 9.02352 l 11.88244,29.31185 c 1.31272,3.25369 2.33998,6.44902 5.60004,8.10664 v 0.16555 h -11.71371 v -0.16555 c 2.79737,-1.25436 2.34317,-1.88791 0.79804,-5.8802 l -3.08496,-8.05888 z"
     style="stroke-width:1.06122" /><path
     id="path9820"
     fill="#ffffff"
     d="m 150.71818,383.85466 c 1.36897,0.28546 2.74324,0.39795 4.17164,0.39795 8.50989,0 16.11032,-4.45392 16.11032,-14.34234 0,-9.99453 -5.60216,-15.02363 -15.14249,-15.02363 -1.7075,0 -3.42349,0.22391 -5.13947,0.62824 v 28.33978 m -5.82502,-25.25165 c 0,-2.63075 0.39796,-6.80451 -2.51508,-7.66092 v -0.17191 h 13.99638 c 13.02006,0 21.13731,7.08468 21.13731,18.45773 0,11.24783 -8.62875,19.1263 -21.42278,19.1263 h -13.71197 v -0.16555 c 2.85573,-1.94839 2.51508,-4.68633 2.51508,-8.05251 l 0.001,-21.53314 z"
     style="stroke-width:1.06122" /><path
     id="path9822"
     fill="#ffffff"
     d="m 188.53144,383.55645 7.25341,0.6951 c 3.77156,0.34383 7.7108,-0.86171 10.57077,-3.37361 h 0.16874 l -2.56496,7.47733 h -23.82537 v -0.16767 c 2.91835,-1.01983 2.57133,-5.24771 2.57133,-7.82647 v -21.53314 c 0,-2.62545 0.34702,-6.80027 -2.57133,-7.88696 v -0.17191 h 18.27839 c 0.9742,0 1.94521,0.11885 2.687,-0.28547 h 0.16979 v 6.68036 h -0.16979 c -1.76905,-2.05558 -4.10903,-2.28056 -6.74297,-2.28056 -2.00145,0 -4.00184,0.0605 -5.82608,0.39796 v 10.63126 h 6.79922 c 0.91158,0 1.82953,0 2.50871,-0.3502 h 0.17829 v 6.05742 h -0.17829 c -0.91158,-1.65125 -3.30781,-1.59713 -5.08322,-1.59713 h -4.22471 l 0.001,13.53369"
     style="stroke-width:1.06122" /><path
     id="path9824"
     fill="#ffffff"
     d="m 236.37743,350.7723 c 7.65456,0 11.82726,4.00185 11.82726,9.19862 0,5.02274 -4.39768,8.97259 -9.07977,10.0529 l 8.2223,10.3405 c 2.39623,2.97458 6.00331,5.93856 9.25487,7.99202 h -5.26045 c -3.02234,0 -4.90812,-0.74179 -6.62411,-2.85043 l -6.96795,-8.62875 -5.25832,-8.05251 c 4.57278,-0.68342 9.88735,-2.80267 9.88735,-8.1703 0,-4.11009 -3.54552,-6.50844 -7.36909,-6.33653 -1.3159,0.0594 -2.57451,0.22392 -3.88723,0.45739 v 25.58804 c 0,2.62545 -0.34171,6.80665 2.57133,7.82647 v 0.16768 h -10.90825 v -0.16768 c 2.91304,-1.01982 2.5119,-5.24771 2.5119,-7.82647 v -21.53313 c 0,-2.62545 0.40114,-6.79922 -2.5119,-7.88696 v -0.17192 h 13.59206"
     style="stroke-width:1.06122" /><path
     id="path9826"
     fill="#ffffff"
     d="m 263.04049,383.55645 7.26084,0.6951 c 3.7705,0.34383 7.7108,-0.86171 10.56441,-3.37361 h 0.17404 l -2.5639,7.47733 h -23.82537 v -0.16767 c 2.91198,-1.01983 2.5639,-5.24771 2.5639,-7.82647 v -21.53314 c 0,-2.62545 0.34808,-6.80027 -2.5639,-7.88696 v -0.17191 h 18.27839 c 0.96783,0 1.93885,0.11885 2.68064,-0.28547 h 0.17191 v 6.68036 h -0.17191 c -1.77011,-2.05558 -4.11009,-2.28056 -6.73873,-2.28056 -2.00145,0 -3.99335,0.0605 -5.83138,0.39796 v 10.63126 h 6.80558 c 0.91158,0 1.82423,0 2.5119,-0.3502 h 0.16873 v 6.05742 h -0.16873 c -0.91371,-1.65125 -3.3163,-1.59713 -5.08641,-1.59713 h -4.23107 l 0.001,13.53369"
     style="stroke-width:1.06122" /><path
     id="path9832"
     fill="#ffffff"
     d="m 379.67452,355.62843 -5.64991,14.39433 h 11.25101 l -5.6011,-14.39433 m -7.13455,18.62328 -2.9661,8.05888 c -1.2066,3.19532 -1.60774,4.85824 1.13656,5.8802 v 0.16555 h -10.5071 v -0.16555 c 3.30675,-1.65762 4.28201,-4.85189 5.54061,-8.10664 l 9.54033,-23.82536 c 0.79592,-2.05452 1.87942,-4.45817 -0.85958,-5.31457 v -0.17192 h 9.02352 l 11.88244,29.31185 c 1.31591,3.25369 2.34316,6.44902 5.59367,8.10664 v 0.16555 h -11.70415 v -0.16555 c 2.80267,-1.25436 2.34316,-1.88791 0.79591,-5.8802 l -3.08177,-8.05888 z"
     style="stroke-width:1.06122" /><path
     id="path9834"
     fill="#ffffff"
     d="m 405.39098,358.82905 c 0,-2.62545 0.3884,-6.80027 -2.51827,-7.88696 v -0.17191 h 10.85306 v 0.17191 c -2.85679,1.08563 -2.51508,5.31458 -2.51508,7.88696 v 21.53314 c 0,2.57876 -0.34171,6.74085 2.51508,7.82647 v 0.16768 h -10.85306 v -0.16768 c 2.85043,-1.01983 2.51827,-5.24771 2.51827,-7.82647 v -21.53314"
     style="stroke-width:1.06122" /><path
     id="path9836"
     fill="#ffffff"
     d="m 438.6166,357.57045 c -2.22749,-2.28586 -5.77196,-3.59858 -8.9641,-3.59858 -3.25899,0 -7.36802,1.25966 -7.36802,5.19571 0,7.82647 19.65373,7.71929 19.65373,18.27839 0,6.11155 -6.40126,11.82938 -15.31866,11.82938 -3.48291,0 -6.9637,-0.51681 -10.21951,-1.71599 l -1.6555,-7.1388 c 3.36724,2.91622 8.04932,4.73939 12.50643,4.73939 3.25369,0 8.17455,-1.94202 8.17455,-5.94493 0,-8.90891 -19.65479,-7.29799 -19.65479,-19.4192 0,-7.19611 7.36378,-9.94041 14.33173,-9.94041 2.85679,0 5.77089,0.4022 8.51308,1.2533 v 6.46174"
     style="stroke-width:1.06122" /></g>











<g
   id="g925"><path
     id="path9838"
     fill="#ffffff"
     d="m 112.98982,426.18339 c 0,1.43158 -0.25469,3.7705 1.33925,4.37115 v 0.0944 H 108.295 v -0.0944 c 1.63003,-0.57094 1.43476,-2.94063 1.43476,-4.37115 v -12.03738 c 0,-1.47403 0.19633,-3.80127 -1.43476,-4.40617 v -0.10081 h 10.21633 c 0.54652,0 1.08668,0.0711 1.50268,-0.15494 h 0.0944 v 3.69409 h -0.0944 c -0.98587,-1.11109 -2.30072,-1.24162 -3.7705,-1.24162 -1.11322,0 -2.2328,0.0414 -3.25475,0.22604 v 5.94493 h 3.82993 c 0.47542,0 0.99223,0 1.37427,-0.19632 h 0.0976 v 3.37891 h -0.0976 c -0.51044,-0.94979 -1.85288,-0.88399 -2.84406,-0.88399 h -2.3612 v 5.77726"
     style="stroke-width:1.06122" /><path
     id="path9840"
     fill="#ffffff"
     d="m 127.1942,419.79274 c 0,4.47197 3.16136,9.0681 8.17985,9.0681 4.85188,0 7.94851,-3.53916 7.94851,-8.30826 0,-4.65556 -2.96928,-9.15618 -8.01749,-9.15618 -4.94845,0 -8.11087,3.57524 -8.11087,8.39634 m 19.76939,0.1316 c 0,6.51586 -5.39734,11.23509 -11.7519,11.23509 -6.31849,0 -11.6511,-4.53139 -11.6511,-11.07591 0,-6.0691 5.26364,-11.14065 11.97158,-10.98677 6.70689,-0.034 11.43142,5.07898 11.43142,10.82759 z"
     style="stroke-width:1.06122" /><path
     id="path9842"
     fill="#ffffff"
     d="m 154.33268,419.79274 c 0,4.47197 3.15606,9.0681 8.17455,9.0681 4.85188,0 7.94851,-3.53916 7.94851,-8.30826 0,-4.65556 -2.96928,-9.15618 -8.01112,-9.15618 -4.95588,0 -8.11194,3.57524 -8.11194,8.39634 m 19.76303,0.1316 c 0,6.51586 -5.39204,11.23509 -11.74554,11.23509 -6.32379,0 -11.65746,-4.53139 -11.65746,-11.07591 0,-6.0691 5.26469,-11.14065 11.97158,-10.98677 6.70795,-0.034 11.43142,5.07898 11.43142,10.82759 z"
     style="stroke-width:1.06122" /><path
     id="path9844"
     fill="#ffffff"
     d="m 185.87521,426.50388 c 0,1.8168 -0.0361,3.06373 1.66293,4.0496 v 0.0944 h -6.32379 v -0.0944 c 1.59713,-0.59959 1.40399,-2.94063 1.40399,-4.37115 v -14.24577 h -2.80904 c -1.37428,0 -2.81116,0.35657 -3.80022,1.28832 h -0.0987 l 1.11958,-3.80659 h 0.0944 c 0.3831,0.15919 0.8044,0.15919 1.21191,0.21968 h 12.70807 c 0.54971,0 1.06015,-0.0297 1.47296,-0.21968 h 0.0976 l -1.02089,3.80659 h -0.0976 c -0.41281,-1.12808 -1.69264,-1.28832 -2.74961,-1.28832 h -2.87165 v 14.56732"
     style="stroke-width:1.06122" /><path
     id="path9846"
     fill="#ffffff"
     d="m 203.23034,418.10647 c 2.07574,0 5.04184,-0.70677 5.04184,-3.32585 0,-2.20308 -2.04284,-3.3492 -3.95834,-3.15924 l -2.14047,0.22392 v 6.25905 l 1.05697,0.002 m 1.7213,10.24392 c 2.61589,0.25576 5.27318,-0.96252 5.27318,-3.98486 0,-3.10725 -3.00537,-4.44332 -5.81441,-4.28201 l -2.2381,0.12522 v 7.8859 z m -6.03302,-14.24046 c 0,-1.43689 0.21967,-3.76519 -1.40505,-4.37115 v -0.0998 h 7.56541 c 4.21303,0 6.67717,1.79239 6.67717,4.63857 0,2.13199 -1.37427,3.34814 -3.19213,4.13769 2.86846,0.61126 5.19889,2.52994 5.19889,5.65309 0,2.45778 -1.69264,4.56642 -3.83311,5.59368 -2.23068,1.08668 -4.75319,0.98693 -7.15047,0.98693 h -5.26682 v -0.0944 c 1.59395,-0.59959 1.40505,-2.94063 1.40505,-4.40087 l 0.001,-12.04374 z"
     style="stroke-width:1.06122" /><path
     id="path9848"
     fill="#ffffff"
     d="m 228.40027,412.35786 -3.15606,8.04721 h 6.28877 l -3.13271,-8.04721 m -3.98805,10.40417 -1.65974,4.50168 c -0.67069,1.78815 -0.89673,2.71989 0.63885,3.29083 v 0.0944 h -5.87596 v -0.0944 c 1.8497,-0.92644 2.39623,-2.7199 3.09663,-4.53246 l 5.33262,-13.31402 c 0.44783,-1.15141 1.0506,-2.48961 -0.4818,-2.96928 v -0.0998 h 5.04821 l 6.63897,16.38305 c 0.73648,1.8115 1.31591,3.60496 3.12634,4.53246 v 0.0944 h -6.54452 v -0.0944 c 1.56529,-0.70147 1.30954,-1.05167 0.45102,-3.29083 l -1.72766,-4.50168 z"
     style="stroke-width:1.06122" /><path
     id="path9850"
     fill="#ffffff"
     d="m 252.98547,428.35039 c 2.17018,0.13053 4.05597,-0.60595 5.65628,-1.94202 h 0.0976 l -1.66823,4.24062 h -13.11451 v -0.0944 c 1.62366,-0.57094 1.4337,-2.94063 1.4337,-4.37115 v -12.03738 c 0,-1.47403 0.18996,-3.80127 -1.4337,-4.40617 v -0.10081 h 6.09244 v 0.10187 c -1.62366,0.6049 -1.40399,2.96929 -1.40399,4.40617 v 13.91892 l 4.34038,0.2844"
     style="stroke-width:1.06122" /><path
     id="path9852"
     fill="#ffffff"
     d="m 271.82418,428.35039 c 2.16488,0.13053 4.05597,-0.60595 5.64779,-1.94202 h 0.0976 l -1.65974,4.24062 h -13.11982 v -0.0944 c 1.62048,-0.57094 1.4284,-2.94063 1.4284,-4.37115 v -12.03738 c 0,-1.47403 0.19314,-3.80127 -1.4284,-4.40617 v -0.10081 h 6.09775 v 0.10187 c -1.63533,0.6049 -1.40929,2.96929 -1.40929,4.40617 v 13.91892 l 4.34568,0.2844"
     style="stroke-width:1.06122" /><path
     id="path9854"
     fill="#ffffff"
     d="m 317.74088,413.59949 c -1.75737,-1.1164 -3.80127,-1.82317 -5.90779,-1.82317 -4.40298,0 -7.46778,3.23034 -7.46778,7.86255 0,4.68633 3.19214,8.8707 8.10557,8.8707 2.39623,0 4.78397,-0.86595 6.80877,-2.00676 h 0.0913 l -1.63003,3.70577 c -1.50799,0.6951 -3.16136,0.95085 -4.82216,0.95085 -7.53358,0 -12.19762,-4.2109 -12.19762,-11.03877 0,-6.61562 4.6651,-10.99208 11.21175,-10.99208 1.94733,0 3.91588,0.35551 5.80803,0.80122 v 3.66969"
     style="stroke-width:1.06122" /><path
     id="path9856"
     fill="#ffffff"
     d="m 334.13667,428.35039 c 2.17019,0.13053 4.04961,-0.60595 5.64674,-1.94202 h 0.0923 l -1.6555,4.24062 h -13.123 v -0.0944 c 1.63003,-0.57094 1.43689,-2.94063 1.43689,-4.37115 v -12.03738 c 0,-1.47403 0.1942,-3.80127 -1.43689,-4.40617 v -0.10081 h 6.09139 v 0.10187 c -1.61942,0.6049 -1.39763,2.96929 -1.39763,4.40617 v 13.91892 l 4.34568,0.2844"
     style="stroke-width:1.06122" /><path
     id="path9858"
     fill="#ffffff"
     d="m 358.39183,428.54035 c -1.40399,1.85288 -4.01988,2.61908 -6.25693,2.61908 -2.10439,0 -4.34143,-0.66538 -5.78363,-2.22749 -1.68945,-1.85288 -1.62366,-3.99654 -1.62366,-6.28877 v -8.53324 c 0,-1.43689 0.21967,-3.76519 -1.41035,-4.37115 v -0.0998 h 6.07546 v 0.10081 c -1.59713,0.60596 -1.40399,2.93427 -1.40399,4.37115 v 8.53324 c 0,4.24062 1.78815,6.21661 5.07686,6.21661 1.78921,0 3.60813,-0.73543 4.6598,-2.2328 0.70252,-0.95616 0.6675,-1.75207 0.6675,-2.90349 v -9.61462 c 0,-1.43689 0.20057,-3.76519 -1.40399,-4.37115 v -0.0998 h 6.0691 l 0.0297,0.10081 c -1.62472,0.60596 -1.43582,2.93427 -1.43582,4.40617 v 12.03738 c 0,1.43158 -0.18996,3.7705 1.43582,4.37115 v 0.0944 h -4.69482 v -2.10864"
     style="stroke-width:1.06122" /><path
     id="path9860"
     fill="#ffffff"
     d="m 373.46004,418.10647 c 2.08211,0 5.05458,-0.70677 5.05458,-3.32585 0,-2.20308 -2.04285,-3.3492 -3.96365,-3.15924 l -2.14047,0.22392 v 6.25905 l 1.04954,0.002 m 1.72872,10.24392 c 2.61909,0.25576 5.27,-0.96252 5.27,-3.98486 0,-3.10725 -2.99581,-4.44332 -5.80591,-4.28201 l -2.24341,0.12522 v 7.8859 z m -6.03301,-14.24046 c 0,-1.43689 0.21967,-3.76519 -1.40399,-4.37115 v -0.0998 h 7.56541 c 4.22046,0 6.67505,1.79239 6.67505,4.63857 0,2.13199 -1.37215,3.34814 -3.19214,4.13769 2.87165,0.61126 5.20527,2.52994 5.20527,5.65309 0,2.45778 -1.68946,4.56642 -3.8363,5.59368 -2.2328,1.08668 -4.75319,0.98693 -7.14941,0.98693 h -5.26682 v -0.0944 c 1.60138,-0.59959 1.40399,-2.94063 1.40399,-4.40087 l -0.001,-12.04374 z"
     style="stroke-width:1.06122" /></g>



<g
   id="g931"><path
     id="path9862"
     fill="#fcbc17"
     d="m 205.01319,461.46883 c 2.57132,-0.89779 4.85718,-2.74324 6.18476,-5.06094 h 0.0828 v 16.30134 c 0,1.65125 -0.11037,2.98096 1.45493,3.99654 v 0.0775 h -6.07547 v -0.0775 c 1.79346,-0.87868 1.7075,-2.2328 1.7075,-3.99654 v -11.15869 h -3.35557 l 0.001,-0.0817"
     style="stroke-width:1.06122" /><path
     id="path9864"
     fill="#fcbc17"
     d="m 227.8166,475.57876 c 4.62054,-0.95616 8.84312,-5.17767 8.84312,-10.03592 0,-2.95124 -1.64807,-6.18159 -4.97605,-6.18159 -2.48537,0 -4.21939,1.9293 -4.21939,4.36479 0,2.62545 1.73402,4.70331 4.40298,4.70331 1.06334,0 2.13517,-0.36825 3.05843,-0.92114 l -1.96537,2.40047 c -0.75135,0.28971 -1.5324,0.43298 -2.33999,0.43298 -3.38846,0 -6.06909,-2.51827 -6.06909,-6.00861 0,-4.21727 3.43516,-7.02525 7.50916,-7.02525 4.54307,0 7.51766,3.5572 7.51766,7.92198 0,3.32479 -1.75737,6.53179 -4.33719,8.5863 -2.63712,2.07256 -5.57669,3.11785 -8.87814,3.55083 l 1.45387,-1.78815"
     style="stroke-width:1.06122" /><path
     id="path9866"
     fill="#fcbc17"
     d="m 255.18006,467.05083 c 0,2.90985 0.95297,7.93896 4.68209,7.93896 2.8621,0 4.48788,-3.52112 4.48788,-7.6015 0,-4.12813 -1.73721,-7.76704 -4.6598,-7.83389 -3.64528,0.003 -4.51017,4.68739 -4.51017,7.49643 m -3.09026,0.28546 c 0,-5.34322 2.62863,-10.02955 7.71186,-10.02955 5.35277,0 7.63969,5.17237 7.63969,9.8587 0,4.70968 -2.31875,10.08261 -7.749,10.08261 -4.53563,-0.0541 -7.60255,-4.56747 -7.60255,-9.91176 z"
     style="stroke-width:1.06122" /><path
     id="path9868"
     fill="#fcbc17"
     d="m 279.57636,461.46883 c 2.56815,-0.89779 4.85401,-2.74324 6.1784,-5.06094 h 0.0923 v 16.30134 c 0,1.65125 -0.11461,2.98096 1.43901,3.99654 v 0.0775 h -6.06273 v -0.0775 c 1.79664,-0.87868 1.70431,-2.2328 1.70431,-3.99654 v -11.15869 h -3.35238 v -0.0817"
     style="stroke-width:1.06122" /></g>






<g
   id="g899"><polygon
     id="polygon9870"
     fill="#ffffff"
     points="142.282,239.024 206.258,304.272 308.035,304.272 308.772,303.521 372.004,239.024 372.004,135.109 309.684,71.938 204.606,71.938 142.282,135.11 "
     transform="matrix(1.0612163,0,0,1.0612163,-26.73416,-8.0556926)" /><path
     id="path9872"
     fill="#e13327"
     d="m 221.13624,152.67718 c 0,-13.32038 10.4169,-24.20209 23.54521,-24.96086 V 70.946552 h -53.17012 l -64.59199,65.470678 v 108.09761 l 66.35043,67.66845 h 51.41168 V 177.64336 c -13.12831,-0.75877 -23.54521,-11.64579 -23.54521,-24.96618 z"
     style="stroke-width:1.06122" /><path
     id="path9874"
     d="m 300.79538,70.945491 h -53.17012 v 56.770829 c 13.12937,0.76619 23.53884,11.64472 23.53884,24.9598 0,13.31508 -10.41053,24.19892 -23.53884,24.96511 v 134.541 h 51.41487 L 365.381,244.51378 V 136.41723 Z"
     style="stroke-width:1.06122" /><g
     id="g889"><path
       id="path9876"
       fill="#ffffff"
       d="m 253.11281,123.58394 0.65583,-8.69348 c 0,0 12.96701,-0.65902 24.39737,8.78899 0,0 9.21984,-27.03236 22.18897,-32.738523 0,0 0.8755,3.509443 1.74676,3.735483 0.88718,0.2133 3.95727,-3.301445 4.84445,-3.076467 0.8702,0.219671 -1.10154,12.085127 26.36061,22.411827 l -1.53664,7.25129 c 0,0 -33.61508,-2.64243 -33.61508,17.35195 0,9.00866 12.96487,24.60854 15.15204,27.46533 2.20945,2.85574 16.26208,14.28185 18.23806,44.8226 0,0 5.05988,-3.74079 5.05988,-13.40317 0,-9.66768 -5.70934,-29.00304 -5.70934,-36.03465 0,-7.03162 -1.10791,-25.92127 18.01096,-25.92127 v 9.66131 c 0,0 -6.4766,-0.18465 -7.25341,8.34965 -0.65053,7.25129 8.79218,39.11006 4.39874,51.19519 -3.60814,9.92874 -5.49392,13.8372 -12.52235,19.33006 -7.03056,5.49285 -29.44557,23.29051 -7.91349,39.10476 l -19.99119,36.25433 c 0,0 -11.64579,4.17482 -12.52129,4.17482 -0.88187,0 -3.30039,0.44571 -1.54407,-1.5377 1.76055,-1.97174 17.14182,-16.25359 17.14182,-31.85347 0,-15.60094 -22.62831,-20.44008 -22.62831,-43.94496 0,-15.59988 13.62283,-25.04895 13.62283,-25.04895 0,0 -2.41851,-5.71253 -4.83384,-7.68427 -2.42276,-1.98341 -15.82273,-9.89372 -17.79447,-14.72756 0,0 -13.18986,10.7671 -23.73304,11.43142 0,0 -2.63394,-4.61416 -2.85361,-7.9103 0,0 26.34893,-3.36724 25.83955,-30.9387 -0.43298,-23.1239 -23.20774,-27.81554 -23.20774,-27.81554"
       style="stroke-width:1.06122" /><path
       id="path9878"
       fill="#ffffff"
       d="m 239.18117,123.58394 -0.65584,-8.69348 c 0,0 -12.95745,-0.65902 -24.39205,8.78899 0,0 -9.22197,-27.03236 -22.18261,-32.738523 0,0 -0.88187,3.509443 -1.76374,3.735483 -0.87656,0.2133 -3.95197,-3.301445 -4.82853,-3.076467 -0.88187,0.219671 1.09624,12.085127 -26.36698,22.411827 l 1.53876,7.25129 c 0,0 33.61721,-2.64243 33.61721,17.35195 0,9.00866 -12.967,24.60854 -15.16159,27.46533 -2.19991,2.85574 -16.2589,14.28185 -18.23701,44.8226 0,0 -5.05351,-3.74079 -5.05351,-13.40317 0,-9.66768 5.70935,-29.00304 5.70935,-36.03465 0,-7.03162 1.10154,-25.92127 -18.01097,-25.92127 v 9.66131 c 0,0 6.47024,-0.18465 7.24811,8.34965 0.65689,7.25129 -8.78581,39.11006 -4.3945,51.19519 3.61026,9.92874 5.49074,13.8372 12.52448,19.33006 7.03056,5.49285 29.44026,23.29051 7.91349,39.10476 l 19.98907,36.25433 c 0,0 11.64472,4.17482 12.52447,4.17482 0.87551,0 3.29826,0.44571 1.54089,-1.5377 -1.75844,-1.97174 -17.14395,-16.25359 -17.14395,-31.85347 0,-15.60094 22.63468,-20.44008 22.63468,-43.94496 0,-15.59988 -13.62283,-25.04895 -13.62283,-25.04895 0,0 2.41639,-5.71253 4.83702,-7.68427 2.41427,-1.98341 15.81425,-9.89372 17.79129,-14.72756 0,0 13.18349,10.7671 23.72667,11.43142 0,0 2.63925,-4.61416 2.85892,-7.9103 0,0 -26.34894,-3.36724 -25.83849,-30.9387 0.43085,-23.1239 23.19819,-27.81554 23.19819,-27.81554"
       style="stroke-width:1.06122" /><path
       id="path9880"
       fill="#ffffff"
       d="m 200.25575,263.8502 20.21087,29.29381 12.15623,2.04921 c 0,0 2.04921,0 0.87656,-1.75207 -1.17264,-1.76374 -14.79017,-17.58329 -16.1082,-21.53844 -1.31909,-3.95516 -4.39768,-7.32239 1.02089,-14.79866 5.41857,-7.4646 15.81637,-14.49622 15.81637,-29.43708 0,-14.94086 -12.74096,-26.97824 -29.43602,-26.65775 -7.46778,0.15493 -1.44325,4.66192 -0.73648,5.57032 1.61835,2.04921 6.15187,8.34965 7.18019,17.87513 1.12595,10.48057 -4.10373,16.83513 -4.10373,17.71382 0,2.49386 3.81189,2.93426 3.81189,9.22834 0,7.32876 -10.68857,12.45337 -10.68857,12.45337"
       style="stroke-width:1.06122" /><path
       id="path9882"
       fill="#ffffff"
       d="m 291.70076,263.8502 -20.20874,29.29381 -12.1626,2.04921 c 0,0 -2.04921,0 -0.87444,-1.75207 1.16733,-1.76374 14.79441,-17.58329 16.11456,-21.53844 1.31485,-3.95516 4.39132,-7.32239 -1.02725,-14.79866 -5.41645,-7.4646 -15.82274,-14.49622 -15.82274,-29.43708 0,-14.94086 12.74627,-26.97824 29.44557,-26.65775 7.46672,0.15493 1.43901,4.66192 0.73648,5.57032 -1.61835,2.04921 -6.15611,8.34965 -7.18337,17.87513 -1.13019,10.48057 4.10372,16.83513 4.10372,17.71382 0,2.49386 -3.81295,2.93426 -3.81295,9.22834 -0.001,7.32876 10.69176,12.45337 10.69176,12.45337"
       style="stroke-width:1.06122" /></g></g>
</svg>
