<?xml version="1.0" encoding="UTF-8" standalone="no"?>
<svg xmlns:dc="http://purl.org/dc/elements/1.1/" xmlns:cc="http://creativecommons.org/ns#" xmlns:rdf="http://www.w3.org/1999/02/22-rdf-syntax-ns#" xmlns:svg="http://www.w3.org/2000/svg" xmlns="http://www.w3.org/2000/svg" version="1.1" id="svg27856" viewBox="0 0 55.264641 67.193399" width='286.78760px' height='348.69011px' >
  <g id="g27858" transform="translate(452.79 1445.54)">
    <g id="g27860" fill-rule="evenodd">
      <path id="path27862" fill="#fff" d="m-425.1-1386.55c10.732 0 19.448-8.691 19.448-19.448 0-10.762-8.716-19.512-19.448-19.512-10.762 0-19.512 8.75-19.512 19.512 0 10.757 8.75 19.448 19.512 19.448" />
      <path id="path27864" fill="#007a45" d="m-425.1-1380.34c12.656 0 23.18-9.185 25.278-21.26h-6.323c-1.982 8.633-9.741 15.05-18.955 15.05-10.762 0-19.512-8.691-19.512-19.448 0-10.762 8.75-19.512 19.512-19.512 2.1 0 4.111.351 6.01.967l3.091-5.483c-2.827-1.079-5.918-1.665-9.1-1.665-14.204 0-25.693 11.489-25.693 25.693 0 14.17 11.489 25.659 25.693 25.659" />
      <path id="path27866" fill="#19191e" d="m-438.54-1414.49c-1.548 2.451-2.451 5.366-2.451 8.486 0 3.12.903 6.01 2.451 8.486v-1.636c-.527-.991-.933-2.07-1.196-3.208l1.196-1.279v-.674l-1.313 1.431c-.234-.991-.352-2.041-.352-3.12 0-2.48.615-4.814 1.665-6.885zm0 16.973c.845 1.313 1.865 2.505 3.062 3.525v-1.309h-.264c-1.138-1.138-2.07-2.422-2.798-3.852zm3.062-14.99l-1.196.615-1.431-1.782c.703-1.196 1.606-2.305 2.627-3.296v-1.079c-1.196 1.021-2.217 2.217-3.062 3.56v1.601c.059-.112.117-.229.2-.347l1.46 1.807-.874 6.24-.786.874v.674l.991-1.108 2.07.61zm0-4.463c1.455-1.367 3.208-2.476 5.132-3.203v-.557l-.146-.234c-1.836.674-3.53 1.665-4.985 2.915zm5.132 16.768l-.527.059-1.836-3.237 2.363-3.208v-7.173l-.527-.757.527-.61v-.703l-1.021 1.167-4.111 2.158v8.369l2.217.669 2.041 3.589-.527 4.58h-3.73v1.309c1.484 1.313 3.237 2.334 5.132 2.974v-.845c-1.836-.669-3.501-1.719-4.927-3h3.701l1.226.557zm0-19.971c.088-.034.205-.063.293-.088l-.293-.469zm0 5.04l2.1-2.422-.322-.322-1.777 2.041zm0 8.54l2.422-3.291h1.484v-.439h-1.455l-2.451-3.442zm5.249 16.479c4.199 0 8.05-1.665 10.903-4.375l-.669-.469c-2.681 2.48-6.24 3.999-10.117 4.02l.029-1.196 4.604-3.232 4.287-.703-.088-.435-3.76.61-2.07-4.692.117-1.606h-.439l-.117 1.284-7.93.698v5.893l4.927 2.271v1.108c-1.719-.024-3.379-.347-4.927-.933v.845c1.631.586 3.413.908 5.249.908" />
    </g>
    <path id="path27868" fill="#fff" d="m-447.02-1401.31v.791l-.669.464.669.029v.645l-1.284-.088-.229-.791zm0-2.188c-.088.059-.234.059-.352.088-.405.029-.728-.029-.962-.2-.142-.147-.234-.293-.264-.527-.024-.234.029-.439.146-.552.088-.088.205-.176.352-.234l-.059-.674c-.293.059-.522.176-.728.41-.234.293-.352.669-.322 1.108.059.439.234.786.557 1.05.317.264.786.381 1.338.322.088 0 .205-.029.293-.059zm0-2.183v.669l-.059-.669zm0-1.548v.698c-.146.029-.322.029-.522.029-.557-.059-.991-.229-1.284-.552-.264-.293-.381-.645-.352-1.108.029-.439.205-.786.469-1.021.234-.205.493-.322.786-.322l-.029.703c-.176.024-.293.088-.381.142-.142.117-.234.293-.234.557-.029.205.034.381.176.523.205.205.498.322.908.352.171.029.347.029.464 0m0-5.512v.674l-.61.029.61.405v.757l-1.455-.991.2-.786zm0-3.325v1.401l-.522-.234zm-.586 18.838l.586-.259v1.138l-.146.024zm1.401-4.663v2.534l-.815-.024v-.645l.698.029-.229-.815-.469.293v-.791zm0-3.472v2.246c-.205.176-.464.293-.815.352v-.732c.176-.029.293-.088.405-.171.205-.176.322-.381.293-.674-.029-.176-.088-.347-.2-.464-.117-.088-.293-.176-.498-.205v-.669c.352.024.61.142.815.317m0-3.76v2.275c-.234.171-.493.288-.815.317v-.698c.146-.029.234-.059.322-.117.259-.147.376-.352.405-.61 0-.205-.029-.351-.146-.498-.083-.117-.229-.205-.435-.259l.059-.703c.234.059.435.176.61.293m0-3.677v2.48l-.815-.557v-.757l.527.322.2-.815-.728.059v-.674zm0-4.199v.703c-.088.059-.146.171-.205.317l-.317.703.522.229v.732l-.815-.351v-1.401l.146-.288c.146-.351.352-.557.581-.645.029 0 .059 0 .088 0m0 22.661h-.029l-.435-.908.464-.347zm-.815-3.149l.815-.381v.698l-.61.293.61-.147v.498l-.815.176zm.815-9.36v-2.275c.088.059.146.147.234.234.205.259.293.581.264.991-.029.435-.205.786-.498 1.05m0 3.73v-2.246c0 0 .029.029.059.059.234.205.381.527.41.933.059.469-.059.82-.322 1.108-.059.059-.117.117-.146.147m1.255 3.295v.552l-1.255-.088v-2.534l.527-.381.2.727-.581.381.352 1.196.698.029zm0-13.07v.703h-.029l-.698.029-.322 1.191.61.381-.2.698-.615-.435v-2.48zm0-3.613v.669h-.029c-.117.059-.176.147-.234.293l-.347.786.61.264v.727l-1.255-.552v-.732l.117.059.322-.728c.088-.147.088-.264.088-.352-.029-.112-.088-.2-.205-.259-.117-.029-.234-.029-.322.029v-.703c.176-.059.352-.029.527.059.176.059.288.176.376.322.029.088.059.205.059.322.088-.088.176-.147.293-.205m0-2.276v.815l-.815-.493.376-.586zm0 22.832l-1.079.786 1.079-.493v.727l-1.255.586v-1.255l1.255-.962zm-1.255-1.079v.498l1.255-.264v-.498zm0-.845l1.255-.581v.698l-1.255.581zm1.255-20.09v-.815l2.363 1.489-.381.581zm0 4.199v-.727l.176.088.347-.757c.088-.176.088-.293.063-.41-.034-.117-.122-.205-.293-.293-.117-.029-.205-.029-.293.029v-.669c.059 0 .117-.029.176-.029.146-.029.288 0 .464.088.264.117.439.293.527.523.029.147.059.293.059.41-.029.176-.088.41-.234.669l-.552 1.284zm0 1.577v-.703l.176-.029zm0 12.915v-.552l.146.581zm5.073-22.04v.669l-.146.147-1.079-.991-.874.933 1.079 1.021-.464.493-2.422-2.246.469-.523.933.874.874-.962-.933-.845.464-.498zm0-3.706v1.226l-.317-.962zm-5.073 29.365v.727l1.689-.786-.259-.586zm0-1.636l.903-.2.264.61-1.167.933v-.61l.41-.322-.41.088zm0-1.162l.352-.176.259.581-.61.293zm5.073-22.19v-.669l.322.317zm1.021-4.17v.786l-.581-.381.493 1.284.088-.059v1.606l-.205.147-.815-2.363v-1.226l.293-.234zm1.719 1.079v.757l-.059.029-.581-.381-.962.762.264.669-.381.322v-1.606l.557-.464-.557-.381v-.786zm0-3.12v1.226l-.552-.908zm0 3.877v-.757l.527.317zm1.401-1.572l-1.338-2.334-.063.029v1.226l1.113 1.953.288-.176zm0-3.091v.757l-.288-.615zm0 .757l1.108 2.363.64-.293-.61-1.255 1.343-.61-.264-.527-1.313.615-.317-.674 1.514-.698-.264-.557-1.836.879zm0 3.03v-.698l.293.522zm4.58-5.19v1.138l-.352-.527-.059 1.372.41-.117v.586l-.439.142-.029.703-.698.2.234-3.496.757-.234zm12.01 2.422l-.205.64-.669-.205.205-.64zm-1.255-1.958l-.669-.083c-.029-.176-.059-.293-.117-.381-.117-.147-.293-.264-.522-.293-.234-.029-.41.029-.557.147-.229.176-.352.464-.41.874-.024.322 0 .615.093.815.088.234.259.381.552.439.176 0 .352-.029.498-.117.142-.088.229-.205.288-.41l.703.088c-.117.381-.322.645-.586.82-.264.171-.61.264-.991.205-.439-.063-.757-.264-.991-.586-.234-.352-.322-.786-.264-1.343.088-.552.293-.962.645-1.25.259-.234.64-.322 1.079-.264.464.058.786.234 1.021.522.176.264.259.527.229.815m-3.906 1.137l-.029.674-.698-.029.029-.669zm-2.651-.669l.117 1.401-.674.059-.288-3.296 2.329-.205.059.581-1.66.147.088.732 1.426-.117.059.581zm-4.199 1.519v-.586l.405-.117-.405-.61v-1.138l1.865 2.627-.728.2-.41-.581-.728.205" />
    <g id="g27870" fill-rule="evenodd">
      <g id="g27872" fill="#19191e">
        <path id="path27874" d="m-424.02-1409.56v4.258h-2.627l2.51-4.258zm0-9.653v4.492l-2.627-4.492zm0 4.492v-4.492h2.593l-.757 4.434h-.029l-1.138 1.167zm7.988-1.865l-1.807-2.627h-2.422l-.757 4.434h2.129l1.719 2.598v2.622h-6.851v4.258h5.537v.029h2.451zm0-2.627v.615l-.41-.615zm0-4.165v3.03h-1.777zm0 19.243h-1.777l1.777 3.03zm0-1.138h1.777v-4.258h-.552v-5.278l-1.226-1.777zm3.618-12.51v11.284l-.703.674v-8.516l-2.915-4.258v-.615h2.534zm0-9.478v7.583l-.527-.674h-3.091v-3.03l2.944-5.02zm-.674 31.14l.674-1.108v-7.666l-.762.727v.029h-2.856v3.03zm.674-23.56l1.484 1.983 2.627-2.539-4.111-7.03zm0 13.179v-11.284l1.045 1.401h.703l2.944-2.832h8.193l-4.082 6.973 4.082 6.938h-7.725v-4.258h2.329v-3.091l-1.284-1.719-.024.029v-.029h-5.249v6.938zm0 9.273l3.994-6.851v-9.214h-1.924v6.328l-2.07 2.07v7.666" />
        <path id="path27876" d="m-421.34-1411.05c.586 0 1.079-.498 1.079-1.079 0-.615-.493-1.108-1.079-1.108-.61 0-1.108.493-1.108 1.108 0 .581.498 1.079 1.108 1.079" />
      </g>
      <g id="g27878" fill="#fff">
        <path id="path27880" d="m-425.91-1381.92h1.05l-.059-1.924h-.991v1.924" />
        <path id="path27882" d="m-423.9-1381.94l1.021-.059-.176-2.305c-.088-.786-.352-.962-1.079-.962h-1.777v.933h1.836l.176 2.393" />
        <path id="path27884" d="m-413.58-1384.89l.874-.464-1.138-2.01c-.376-.645-.728-.703-1.401-.381l-1.602.728 1.372 3.091.962-.435-1.05-2.246.728-.322.117.059 1.138 1.982" />
        <path id="path27886" d="m-417.81-1384.63l.874-.352-.669-1.719-.879.352.674 1.719" />
        <path id="path27888" d="m-438.13-1385.68l1.196.674c.381.229 1.108.083 1.401-.264.176-.234.376-.498.493-.786.352-.85.234-1.401-.259-1.694l-1.167-.757-.469.757.815.469c.557.352-.259 1.689-.698 1.426l-.903-.552-.41.728" />
        <path id="path27890" d="m-439.44-1386.55c.259.147.581.088.728-.147.117-.229 0-.552-.264-.698-.264-.117-.61-.088-.728.147-.146.264-.029.552.264.698" />
        <path id="path27892" d="m-434.46-1383.76c.293.117.61 0 .698-.259.117-.264-.059-.557-.347-.674-.264-.088-.586 0-.703.264-.088.264.059.557.352.669" />
        <path id="path27894" d="m-405.82-1391.63l.762-1.167c.229-.347.142-1.108-.176-1.426-.234-.205-.498-.41-.762-.557-.845-.381-1.426-.322-1.777.147l-.845 1.138.757.522.557-.786c.376-.523 1.689.351 1.372.786l-.586.879.698.464" />
        <path id="path27896" d="m-408.33-1388.74l1.748-1.953-.61-.552-.41.464-.029-.376c-.029-.234 0-.351-.205-.498l-.522-.435c-.586-.498-.903-.41-1.431.083l-.962.962.669.645.879-.874c.059-.059.171-.088.259-.029l.791.669v.439l-.82.874.645.581" />
        <path id="path27898" d="m-410.84-1388.54l.728-.61-1.221-1.401-.732.61 1.226 1.401" />
        <path id="path27900" d="m-404.83-1396.73c-.435-.351-.581-.674-.376-1.079.117-.234.493-.176.64-.088l.615.293c.259.117.405.523.112.815l.557.234c.669-.351.698-1.431.088-1.836-.381-.264-.786-.41-1.196-.527-.527-.117-1.167-.205-1.489.527-.229.493-.176.933.176 1.367-.205-.029-.435-.059-.64-.059l-.381.874c.352.029 1.167.147 1.606.352l1.455.757.322-.815-1.489-.815" />
        <path id="path27902" d="m-432.06-1384.66l-.527 1.548.815.234.645-1.606c.288-.464.581-.64.991-.523.229.083.264.464.205.64l-.205.64c-.088.264-.498.469-.82.205l-.142.581c.435.645 1.484.557 1.777-.112.176-.439.322-.879.41-1.313.088-.493.054-1.167-.732-1.401-.522-.147-.933-.029-1.338.381 0-.205 0-.439-.029-.64l-.903-.264c.024.351.024 1.196-.146 1.631" />
        <path id="path27904" d="m-419.7-1382.62c.61-.229 1.021-.845.903-1.514l-.117-.586c-.117-.757-.815-1.255-1.577-1.138l-.581.088c-.728.147-1.079.82-.962 1.548l.088.61c.029.029.029.059.029.059l1.021-.293c0-.024 0-.054-.029-.112l-.029-.264c-.146-.874.933-.933 1.079-.176l.029.264c.059.264 0 .435-.146.552-.146.147-.439.205-.645.264l-1.104.293.259.815c.586-.147 1.226-.205 1.782-.41" />
      </g>
    </g>
    <path id="path27906" fill="#fdca00" d="m-425.43-1443.54l1.221 3.872h3.984l-3.228 2.353 1.221 3.599-3.14-2.227-3.14 2.197 1.128-3.633-3.052-2.285h3.926" />
  </g>
</svg>
