<?xml version="1.0" encoding="UTF-8" standalone="no"?>
<svg xmlns:rdf="http://www.w3.org/1999/02/22-rdf-syntax-ns#" xmlns="http://www.w3.org/2000/svg" height="197.73193" width="152.83935" version="1.1" xmlns:cc="http://creativecommons.org/ns#" xmlns:dc="http://purl.org/dc/elements/1.1/" viewBox="0 0 152.83935 197.73193"><path d="M75.78064,166.74042a53.65447,53.65447,0,0,1-38.37558-16.27234l17.48906-50.22754c1.64334,6.27827,5.13643,19.30124,5.13083,19.276l.7615,3.3969a39.403,39.403,0,0,1,1.37295,8.43319c0,3.66139-1.346,6.92506-5.53134,11.32524l.67679,2.01188a21.81182,21.81182,0,0,0,8.97677,2.65277c.90371,4.34211,5.98152,10.95359,9.54165,14.01,3.56659-3.05638,8.64636-9.66786,9.549-14.01a21.83,21.83,0,0,0,8.9793-2.65277l.67848-2.01188c-4.18644-4.40018-5.533-7.66385-5.533-11.32524a39.22521,39.22521,0,0,1,1.37267-8.43319l.76179-3.3969c-.00618.02524,3.48749-12.99773,5.13054-19.276l17.6349,49.99a53.68106,53.68106,0,0,1-38.61622,16.5099M20.90779,109.74714A57.56645,57.56645,0,0,1,44.56685,62.88367C43.21353,79.531,32.94712,109.2734,24.92314,131.14946a58.73068,58.73068,0,0,1-4.01535-21.40232M90.02091,54.70431a67.70813,67.70813,0,0,1-1.84051,10.677s-.77721,3.51778-.79656,3.59379c-.00758.02328-9.93069,39.91372-11.55859,46.1359-1.624-6.22216-11.54906-46.11262-11.55495-46.1359-.01374-.076-.79263-3.59379-.79263-3.59379a67.31014,67.31014,0,0,1-1.84612-10.70424,53.028,53.028,0,0,1,28.38936.0272m40.63176,55.04283a58.76871,58.76871,0,0,1-3.80752,20.85539c-8.08681-21.78911-18.35687-51.12088-19.74721-67.64257a57.57036,57.57036,0,0,1,23.55472,46.78718m4.37577,42.73536c-.44456-1.22738-.96232-2.62894-1.541-4.17355,9.4317-10.67927,15.04271-24.04808,15.04271-38.56181,0-24.956-16.58311-46.53783-40.67888-56.85642a54.61383,54.61383,0,0,1,5.08624-13.97689,32.98239,32.98239,0,0,1,2.73159-3.87146c.04263-.0446.28048-.28974.28048-.28974l-.02048-.02468a28.3038,28.3038,0,0,1,4.16906-4.0549l-.99571-2.32322c-4.84277,2.13333-15.05113,6.99546-21.32546,12.66761-3.01573-2.80677-8.6531-5.67692-12.82412-6.99742l-.78955,1.91287a4.23883,4.23883,0,0,1,.87931,1.14913l.03225.04459.032.04208a24.28848,24.28848,0,0,1,4.5822,10.41058,83.84335,83.84335,0,0,0-27.71929-.01206,24.23662,24.23662,0,0,1,4.58276-10.39852l.02973-.04208.02917-.04459a4.39392,4.39392,0,0,1,.87959-1.14913L66.704,34.02c-4.17187,1.3205-9.81092,4.19065-12.82692,6.99742-6.27126-5.67215-16.48466-10.53428-21.32351-12.66761l-.99542,2.32322a28.48615,28.48615,0,0,1,4.1699,4.0549l-.01936.02468s.23589.24514.2802.28974a33.1623,33.1623,0,0,1,2.7288,3.87147,54.67888,54.67888,0,0,1,5.08062,13.95C19.66862,63.17089,3.05522,84.76786,3.05522,109.74714c0,14.677,5.7361,28.18629,15.36077,38.92308-.52029,1.4038-.99093,2.68138-1.40156,3.81228A50.707,50.707,0,0,1,.36233,172.97662l.957,1.99562c17.62342-2.46907,23.63467-.62464,27.55634-.00393L33.618,161.34819a79.9445,79.9445,0,0,0,42.175,11.72716,79.89262,79.89262,0,0,0,42.46273-11.90863l4.8697,13.80552c3.92083-.62071,9.95844-2.46907,27.58354,0l.97215-1.99562a50.71616,50.71616,0,0,1-16.65267-20.49412" fill="#0097d7"/><path d="M75.82324,0,72.55789,10.14749H61.88282l8.65337,6.31978L67.30338,26.63832l8.61438-6.3007,8.67076,6.21572-3.32509-10.134,8.59476-6.27182H79.18508Z" fill="#c5a459"/><path d="M5.87494,188.3867H4.49385v6.66758H6.00059c1.25571,0,2.25983-.41539,2.25983-3.62465C8.26042,188.73646,7.23134,188.3867,5.87494,188.3867Zm5.34847,7.75051a7.27052,7.27052,0,0,1-4.87081,1.39567H0v-11.59H6.17645a9.92189,9.92189,0,0,1,4.1685.7155c1.98328.91465,2.86174,2.50918,2.86174,4.87167A5.33266,5.33266,0,0,1,11.22341,196.13721Zm8.71307-7.75051v2.36248h1.28067c1.53226,0,2.05872-.48355,2.05872-1.2644,0-.83161-.67736-1.09808-2.084-1.09808Zm3.89166,9.14617L21.9952,194.2908c-.67764-1.19878-1.07957-1.34744-2.05872-1.34744v4.5895h-4.4947v-11.59h6.02668c5.14709,0,6.80389,1.38052,6.80389,3.308,0,1.997-1.58107,3.01207-3.64008,3.24375a3.20543,3.20543,0,0,1,1.75721,1.24729c.57723.78085,2.059,2.92682,2.63708,3.791ZM40.275,191.66346c0-2.894-.8535-3.59184-2.78685-3.59184-2.03376,0-2.88811,1.41306-2.88811,3.62465,0,2.9599,1.07985,3.69252,2.93831,3.69252C39.44645,195.38879,40.275,194.63879,40.275,191.66346Zm-10.69667.36575c0-4.12363,3.41513-6.28528,8.03464-6.28528,5.95151,0,7.68459,3.00814,7.68459,5.5521,0,3.32733-1.58247,6.4359-7.83437,6.4359C32.39042,197.73193,29.57832,195.50492,29.57832,192.02921Zm17.954,5.5038v-11.59h4.59455v11.59Zm19.0827-9.12906H62.547V197.533H58.00263V188.404H53.93511V185.943h13.207Zm13.00575,2.49394a6.90866,6.90866,0,0,1-.32536-1.62986,7.59842,7.59842,0,0,1-.47766,1.8464l-.70345,1.89633h2.25983Zm2.56162,6.635-.90342-2.22729H77.13519l-.95448,2.22729H71.46079l5.625-11.59h4.66859l5.29911,11.59Zm18.73025-3.57468a2.67526,2.67526,0,0,1-.42549,1.912c-.72841.96458-2.68813,1.86154-6.15233,1.86154-2.76161,0-4.67-.49869-5.72488-1.44586-.65268-.63221-.85462-.91437-.85462-2.46094V185.943H92.2753v7.56652c0,1.06358.50262,1.7788,2.08368,1.7788,1.60828,0,2.06013-.59966,2.06013-1.728V185.943h4.49357Zm14.84051-1.19642h-1.65764v2.29264h1.707c1.1309,0,1.60632-.48131,1.60632-1.19681C117.40887,193.27566,117.13372,192.76183,115.75319,192.76183Zm-1.65764-4.37521v2.01245h1.78217c1.07984,0,1.45793-.49869,1.45793-1.09809,0-.59714-.4527-.91436-1.50787-.91436Zm2.61155,9.14646h-7.10625V185.94279h7.75809c2.53638,0,4.59594.7155,4.59594,2.84378,0,1.04648-.65324,2.14428-2.58742,2.55966,1.70812.29983,3.21486,1.21421,3.21486,2.61212C122.58232,196.06924,120.69974,197.53308,116.7071,197.53308Zm21.14212-3.57483a2.67171,2.67171,0,0,1-.42717,1.912c-.729.96458-2.68728,1.86154-6.1515,1.86154-2.763,0-4.67112-.49869-5.72432-1.44586-.65463-.63221-.85462-.91437-.85462-2.46094V185.943h4.51994v7.56652c0,1.06358.50234,1.7788,2.08368,1.7788,1.60688,0,2.059-.59966,2.059-1.728V185.943h4.495Zm14.46226-5.5543h-4.06724V197.533h-4.54518V188.404h-4.06752V185.943h13.20781Z" fill="#c5a459"/></svg>