<?xml version="1.0" encoding="UTF-8" standalone="no"?>
<svg
   xmlns:dc="http://purl.org/dc/elements/1.1/"
   xmlns:cc="http://creativecommons.org/ns#"
   xmlns:rdf="http://www.w3.org/1999/02/22-rdf-syntax-ns#"
   xmlns:svg="http://www.w3.org/2000/svg"
   xmlns="http://www.w3.org/2000/svg"
   xmlns:sodipodi="http://sodipodi.sourceforge.net/DTD/sodipodi-0.dtd"
   xmlns:inkscape="http://www.inkscape.org/namespaces/inkscape"
   width="252"
   height="252"
   viewBox="0 0 252 252.00001"
   version="1.1"
   id="svg16"
   sodipodi:docname="panat.svg"
   inkscape:version="0.92.4 (5da689c313, 2019-01-14)">
  <metadata
     id="metadata22">
    <rdf:RDF>
      <cc:Work
         rdf:about="">
        <dc:format>image/svg+xml</dc:format>
        <dc:type
           rdf:resource="http://purl.org/dc/dcmitype/StillImage" />
        <dc:title></dc:title>
      </cc:Work>
    </rdf:RDF>
  </metadata>
  <defs
     id="defs20" />
  <sodipodi:namedview
     pagecolor="#ffffff"
     bordercolor="#666666"
     borderopacity="1"
     objecttolerance="10"
     gridtolerance="10"
     guidetolerance="10"
     inkscape:pageopacity="0"
     inkscape:pageshadow="2"
     inkscape:window-width="1366"
     inkscape:window-height="705"
     id="namedview18"
     showgrid="false"
     fit-margin-top="1"
     fit-margin-right="1"
     fit-margin-bottom="1"
     fit-margin-left="1"
     inkscape:zoom="1.1277136"
     inkscape:cx="60.855128"
     inkscape:cy="132.93757"
     inkscape:window-x="-8"
     inkscape:window-y="-8"
     inkscape:window-maximized="1"
     inkscape:current-layer="svg16" />
  <g
     id="g31"
     transform="matrix(1.1946175,0,0,1.1946175,1,1)">
    <circle
       id="circle2"
       r="104.636"
       cy="104.636"
       cx="104.636"
       style="clip-rule:evenodd;fill:#ffffff;fill-rule:evenodd" />
    <g
       id="g12"
       style="clip-rule:evenodd;fill:#00793f;fill-rule:evenodd">
      <path
         id="path4"
         d="m 103.89,38.674 c 36.136,0 65.593,29.858 65.593,66.57 0,36.537 -29.457,66.38 -65.593,66.38 -36.337,0 -65.797,-29.843 -65.797,-66.38 0,-36.712 29.46,-66.57 65.797,-66.57 z m 0,3.93 c -34.176,0 -61.856,28.085 -61.856,62.64 0,34.376 27.68,62.456 61.856,62.456 33.965,0 61.658,-28.08 61.658,-62.455 0,-34.556 -27.693,-62.642 -61.658,-62.642 z"
         inkscape:connector-curvature="0" />
      <path
         id="path6"
         d="m 104.08,5.292 c 54.588,0 99.178,44.978 99.178,100.157 0,55.182 -44.59,100.348 -99.18,100.348 C 49.48,205.797 5.103,160.631 5.103,105.447 5.103,50.27 49.48,5.293 104.08,5.293 Z m 0,2.953 c -52.822,0 -96.03,43.792 -96.03,97.204 0,53.612 43.208,97.21 96.03,97.21 53.02,0 96.228,-43.598 96.228,-97.21 0,-53.413 -43.207,-97.205 -96.23,-97.205 z"
         inkscape:connector-curvature="0" />
      <path
         id="path8"
         d="m 32.4,137.463 4.13,5.11 6.29,-2.162 -3.545,5.693 3.934,5.304 -6.483,-1.575 -3.733,5.5 -0.397,-6.684 -6.48,-2.153 6.283,-2.36 m 142.777,-6.673 v 6.673 l 6.085,2.36 -6.284,2.152 -0.393,6.683 -3.927,-5.498 -6.283,1.575 3.926,-5.304 -3.537,-5.692 6.286,2.163 m 24.941,-45.765 -4.13,0.198 -5.69,2.552 -9.62,-2.162 -4.326,0.19 0.2,10.218 4.52,-0.192 -0.203,-4.527 9.63,1.97 5.49,-2.36 0.204,4.318 4.317,-0.19 m -29.26,-47.325 -5.893,9.032 3.533,5.3 7.27,-11.98 11.788,-2.352 -3.155,-4.912 -10.21,2.546 8.253,-5.695 -2.953,-4.51 -19.638,13.546 2.953,4.71 m 3.142,-31.419 -15.32,19.05 3.734,3.535 15.316,-18.85 m -47.726,-10.609 1.378,11.98 4.72,0.788 4.313,-23.76 -5.1,-0.983 -1.967,11.183 -1.377,-11.97 -4.704,-0.786 -4.522,23.76 5.102,0.988 m -17.864,-15.124 -2.558,0.203 -0.782,-9.826 -5.506,0.392 1.966,24.356 5.697,-0.394 -0.983,-10.017 2.558,-0.19 0.782,10.01 5.494,-0.396 -1.96,-24.354 -5.496,0.395 M 39.47,59.5 l 11.396,4.316 3.146,-3.73 -19.25,-15.124 -3.345,4.128 9.04,7.057 -11.196,-4.314 -3.334,3.928 19.238,15.126 3.345,-4.12 m -36.336,39.663 23.572,1.184 0.19,-5.695 -19.247,-0.787 0.2,-2.56 19.246,0.987 0.19,-5.5 -23.563,-1.185 m 145.513,-62.441 -2.158,2.55 2.55,2.17 2.17,-2.56 m 6.678,6.477 -2.16,2.353 2.552,2.163 2.156,-2.357 M 30.637,80.703 22,76.188 l 0.192,-0.395 9.224,2.354 -0.78,2.556 z m -11.4,-10.21 -2.547,7.655 20.037,11.787 1.77,-5.297 -3.936,-2.166 0.985,-3.14 4.518,1.18 L 41.83,75.2 19.238,70.493 Z m 35.945,-25.141 -5.5,-8.44 0.39,-0.395 7.268,7.27 z m -5.3,-14.92 -6.095,5.107 12.573,21.011 4.328,-3.344 -2.752,-4.12 2.548,-1.963 3.333,3.33 4.33,-3.526 L 49.882,30.43 Z m 26.318,12.961 6.08,-2.36 1.973,-4.905 -6.49,-15.905 -4.91,-2.164 -5.893,2.356 -1.955,4.71 6.484,15.91 4.71,2.357 z m -5.503,-19.246 1.957,-0.783 5.9,14.134 -1.966,0.785 -5.89,-14.136 z"
         inkscape:connector-curvature="0" />
      <path
         id="path10"
         d="m 76.777,32.395 -1.763,-4.32 -2.55,0.78 1.767,4.325 m 64.017,2.546 5.313,-8.834 0.39,0.2 -3.533,9.82 z m 10.806,-11.19 -6.68,-3.533 -13.544,20.627 4.707,2.346 2.563,-4.118 2.742,1.37 -1.567,4.716 4.706,2.356 7.074,-23.763 z m 41.242,49.891 -4.518,-2.366 -15.512,5.307 -2.36,4.517 1.96,6.287 4.516,2.36 15.524,-5.114 2.348,-4.905 -1.958,-6.083 z m -3.733,3.533 0.792,2.157 -13.947,4.52 -0.592,-1.97 z m -105.457,97.206 -5.89,19.048 5.502,1.567 7.258,-23.552 -3.535,-0.994 -4.71,0.2 -0.983,2.943 m 16.698,14.927 -0.794,5.302 -2.36,-0.393 0.406,-3.533 -5.317,-0.787 -0.58,4.32 3.143,4.317 6.087,0.794 3.934,-2.946 2.35,-17.682 -3.142,-3.93 -5.896,-0.97 -4.115,2.937 -0.982,8.052 2.75,3.933 4.518,0.587 z m 1.366,-10.212 -0.782,5.693 -2.362,-0.392 0.794,-5.698 z m 10.612,-4.716 -3.534,3.93 1.374,16.895 3.726,3.535 6.88,-0.396 3.533,-3.933 -1.373,-16.887 -4.13,-3.53 -6.476,0.387 z m 2.55,4.716 2.16,-0.2 1.172,15.127 h -2.158 l -1.175,-14.927 z m 22.184,2.755 1.77,-2.755 -1.56,-6.285 -4.523,-2.154 -5.3,0.97 -2.55,4.133 1.566,6.092 3.142,1.562 -2.56,3.333 1.577,5.898 4.515,2.947 6.49,-1.376 2.55,-4.117 -1.577,-6.294 -3.54,-1.955 z m -1.964,3.14 1.375,5.3 -2.16,0.394 -1.36,-5.3 2.144,-0.393 z m -2.548,-9.625 1.376,5.107 -2.16,0.587 -1.374,-5.3 z"
         inkscape:connector-curvature="0" />
    </g>
    <path
       id="path14"
       d="m 153.94,104.285 c -1.176,-3.146 -0.592,-1.377 -0.19,-10.213 0.39,-8.84 -2.55,-12.567 -5.694,-14.73 -2.95,-2.156 -7.857,-3.145 -13.155,-1.96 -5.304,1.17 -10.6,8.244 -11.973,10.212 -1.187,1.96 -3.15,5.094 -4.723,7.45 -1.376,1.97 -3.13,3.144 -4.113,2.75 -2.155,-0.78 0.595,-4.908 2.157,-6.863 0.785,-0.985 3.333,-4.13 5.695,-7.27 1.575,-1.966 2.75,-4.122 3.733,-5.69 2.36,-4.327 1.764,-9.033 1.175,-13.166 -0.782,-4.312 -5.894,-10.596 -11.586,-11.375 -5.5,-0.986 -7.657,0.19 -11.583,1.956 -3.923,1.576 -5.098,1.182 -6.672,0.78 -1.57,-0.392 -7.066,-1.564 -9.817,-0.977 -2.94,0.584 -10.992,4.324 -12.755,12.374 -1.778,8.047 3.924,14.725 6.862,17.27 2.75,2.76 10.02,7.66 11.583,9.817 1.374,2.166 2.158,4.324 0.593,4.92 -1.565,0.78 -5.113,-1.97 -7.458,-3.73 -2.362,-1.97 -6.286,-8.246 -10.21,-11.19 -3.732,-2.755 -11.58,-4.722 -17.675,0.78 -6.083,5.5 -5.3,10.41 -4.113,13.94 1.36,3.537 1.754,6.87 1.563,10.012 -0.593,5.498 -2.558,10.606 -1.766,16.497 0.59,6.278 10.987,15.697 21.796,10.207 10.798,-5.498 12.564,-11.78 16.677,-15.703 3.082,-3.088 4.41,-4.52 5.707,-4.64 0.262,-0.015 0.51,0.01 0.76,0.073 0.08,0.022 0.166,0.045 0.253,0.08 h 0.012 c 0.083,0.036 0.176,0.08 0.27,0.12 1.543,0.784 2.735,3.27 2.803,8.192 0.114,7.67 -0.472,13.927 -1.492,17.796 -1.026,3.874 -2.944,12.61 -3.206,13.575 -0.456,0.952 -0.727,2.31 1.448,2.056 2.18,-0.258 8.646,-3.003 9.927,-4.693 1.08,-1.51 1.67,-1.472 1.428,-4.046 -0.35,-3.756 -0.686,-7.913 -0.62,-12.035 0.04,-3.93 -0.51,-7.708 0.078,-10.813 0.654,-4.292 1.04,-8.09 2.907,-9.37 l 0.022,-0.017 c 0.97,-0.568 2.056,-0.45 3.074,0.18 2.746,1.567 4.323,3.146 8.046,6.088 1.58,1.182 4.52,2.95 6.478,4.518 8.255,5.888 13.363,3.33 18.27,1.373 4.703,-1.766 9.024,-6.874 9.024,-11.976 -0.004,-5.302 -2.35,-9.43 -3.54,-12.56 z"
       inkscape:connector-curvature="0"
       style="clip-rule:evenodd;fill:#00793f;fill-rule:evenodd" />
  </g>
</svg>
