<?xml version="1.0" encoding="UTF-8" standalone="no"?>
<!-- Created with Inkscape (http://www.inkscape.org/) -->

<svg
   version="1.1"
   id="svg3725"
   width="600"
   height="600"
   viewBox="0 0 599.99998 599.99998"
   xml:space="preserve"
   xmlns:xlink="http://www.w3.org/1999/xlink"
   xmlns="http://www.w3.org/2000/svg"
   xmlns:svg="http://www.w3.org/2000/svg"
   xmlns:rdf="http://www.w3.org/1999/02/22-rdf-syntax-ns#"
   xmlns:cc="http://creativecommons.org/ns#"
   xmlns:dc="http://purl.org/dc/elements/1.1/"><metadata
     id="metadata3731"><rdf:RDF><cc:Work
         rdf:about=""><dc:format>image/svg+xml</dc:format><dc:type
           rdf:resource="http://purl.org/dc/dcmitype/StillImage" /></cc:Work></rdf:RDF></metadata><defs
     id="defs3729"><linearGradient
       id="linearGradient5407"><stop
         id="stop5409"
         offset="0"
         style="stop-color:#dd4b44;stop-opacity:1" /><stop
         style="stop-color:#de5448;stop-opacity:1"
         offset="0.20327166"
         id="stop5420" /><stop
         style="stop-color:#db3d39;stop-opacity:1"
         offset="0.34521106"
         id="stop5417" /><stop
         style="stop-color:#cc2c2e;stop-opacity:1"
         offset="0.48515955"
         id="stop5415" /><stop
         style="stop-color:#ae2826;stop-opacity:1"
         offset="0.74918306"
         id="stop5413" /><stop
         id="stop5411"
         offset="1"
         style="stop-color:#8a211b;stop-opacity:1" /></linearGradient><linearGradient
       id="linearGradient5355"><stop
         style="stop-color:#2277b6;stop-opacity:1"
         offset="0"
         id="stop5357" /><stop
         id="stop5369"
         offset="0.10446245"
         style="stop-color:#4086c2;stop-opacity:1" /><stop
         id="stop5363"
         offset="0.22375357"
         style="stop-color:#1b73b3;stop-opacity:1" /><stop
         style="stop-color:#124783;stop-opacity:1"
         offset="0.5395391"
         id="stop5365" /><stop
         id="stop5367"
         offset="0.78362703"
         style="stop-color:#003e73;stop-opacity:1" /><stop
         style="stop-color:#002448;stop-opacity:1"
         offset="1"
         id="stop5359" /></linearGradient><pattern
       patternUnits="userSpaceOnUse"
       width="178.16786"
       height="199.71036"
       patternTransform="translate(-328.3183,-112.59276)"
       id="pattern4124"><g
         transform="matrix(0.8064028,0,0,0.7700541,264.81301,86.781828)"
         id="g4119"><path
           style="fill:#fcef3c;fill-opacity:1;stroke:#000000;stroke-width:3.80701542;stroke-miterlimit:4;stroke-dasharray:none;stroke-opacity:1;display:inline"
           id="path4262"
           d="M -267.3739,-6.8529926 L -272.22258,16.977187 L -277.07128,-6.8529926 L -277.07128,-26.380603 L -277.07128,-51.593813 L -302.28445,-51.593813 L -302.28445,-37.047743 L -311.98183,-37.047743 L -311.98183,-51.593813 L -326.5279,-51.593813 L -326.5279,-61.291192 L -311.98183,-61.291192 L -311.98183,-75.837272 L -302.28445,-75.837272 L -302.28445,-61.291192 L -277.07128,-61.291192 L -277.07128,-86.504393 L -291.61734,-86.504393 L -291.61734,-96.201773 L -277.07128,-96.201773 L -277.07128,-110.74784 L -267.3739,-110.74784 L -267.3739,-96.201773 L -252.82782,-96.201773 L -252.82782,-86.504393 L -267.3739,-86.504393 L -267.3739,-61.291192 L -242.1607,-61.291192 L -242.1607,-75.837272 L -232.46332,-75.837272 L -232.46332,-61.291192 L -217.91725,-61.291192 L -217.91725,-51.593813 L -232.46332,-51.593813 L -232.46332,-37.047743 L -242.1607,-37.047743 L -242.1607,-51.593813 L -267.3739,-51.593813 L -267.3739,-26.380603 L -267.3739,-6.8529926 z" /><use
           height="658.97394"
           width="601.46545"
           x="0"
           y="0"
           xlink:href="#path4262"
           id="use2607" /><use
           height="658.97394"
           width="601.46545"
           x="0"
           y="0"
           xlink:href="#path4262"
           transform="translate(108.61065,127.72503)"
           id="use2613" /></g></pattern><radialGradient
       xlink:href="#linearGradient5355"
       id="radialGradient5361"
       cx="184.60423"
       cy="139.94768"
       fx="184.60423"
       fy="139.94768"
       r="300"
       gradientTransform="matrix(1.1354319,1.1268333,-1.0165344,1.0242913,98.861786,-199.0127)"
       gradientUnits="userSpaceOnUse" /><linearGradient
       xlink:href="#linearGradient5407"
       id="linearGradient5403"
       x1="215.40262"
       y1="341.27567"
       x2="325.31998"
       y2="143.60168"
       gradientUnits="userSpaceOnUse"
       gradientTransform="matrix(1.25,0,0,-1.25,0.02378755,599.99996)" /><clipPath
       clipPathUnits="userSpaceOnUse"
       id="clipPath1239"><path
         d="m 564.42196,183.429 -0.77895,-26.158 -21.12105,14.709 -4.64295,-2.415 15.756,-33.203 4.70498,2.16 -10.905,23.597 0.087,0.049 20.92297,-14.53399 0.80003,25.884 0.096,0.047 12.249,-22.94199 4.49902,2.58999 -17.049,32.63201 z"
         id="path1241"
         style="stroke-width:0.999998" /></clipPath><clipPath
       clipPathUnits="userSpaceOnUse"
       id="clipPath1252"><path
         d="m 644.43099,251.819 20.34998,-18.753 -0.0652,-0.068 -34.671,2.441 -3.47205,-3.952 26.85705,-24.771 3.639,3.804 -20.60303,18.992 0.0652,0.079 35.03498,-2.456 3.10102,3.957 -26.769,24.685 z"
         id="path1254"
         style="stroke-width:0.999998" /></clipPath><clipPath
       clipPathUnits="userSpaceOnUse"
       id="clipPath1272"><path
         d="m 611.96897,217.363 24.51,-27.018 3.87405,3.528 -24.58905,27.106 z"
         id="path1274"
         style="stroke-width:0.999998" /></clipPath><clipPath
       clipPathUnits="userSpaceOnUse"
       id="clipPath1285"><path
         d="m 588.54399,199.207 7.59997,-39.701 4.61903,3.023 -2.53403,13.362 13.10903,9.558 11.145,-6.991 4.51403,3.69 -33.76501,20.468 z m 5.99497,-3.723 11.88106,-7.101 -9.23806,-6.734 z"
         id="path1287"
         style="stroke-width:0.999998" /></clipPath><clipPath
       clipPathUnits="userSpaceOnUse"
       id="clipPath1370"><path
         d="m 192.607,254.07 c -1.695,-1.288 -2.71,-3.014 -3.004,-5.118 v 0 c -0.468,-3.3 0.83,-7.454 3.487,-11.095 v 0 l 3.839,-5.256 c 2.972,-4.064 5.837,-8.325 5.241,-11.679 v 0 c -0.233,-1.354 -0.981,-2.443 -2.212,-3.258 v 0 c -0.677,-0.444 -1.456,-0.669 -2.322,-0.669 v 0 c -5.208,0 -14.027,9.515 -18.363,23.149 v 0 l -0.08,0.25 -3.791,-3.647 -0.072,-0.074 0.023,-0.088 c 0.848,-3.411 3.11,-8.918 6.922,-14.146 v 0 c 4.002,-5.483 8.568,-9.275 12.849,-10.687 v 0 c 1.383,-0.455 2.736,-0.69 4.032,-0.69 v 0 c 1.875,0 3.537,0.495 4.803,1.447 v 0 c 2.088,1.56 3.321,3.549 3.66,5.901 v 0 c 0.644,4.354 -1.619,10.103 -6.705,17.066 v 0 l -3.386,4.647 c -2.707,3.707 -2.591,6.123 -2.014,7.49 v 0 c 0.504,1.2 1.586,2.03 2.814,2.183 v 0 c 0.189,0.016 0.385,0.022 0.586,0.022 v 0 c 6.178,0 14.934,-10.504 17.209,-18.652 v 0 l 0.058,-0.20801 0.175,0.11201 c 1.287,0.756 2.778,1.632 3.693,2.163 v 0 l 0.112,0.07 -0.035,0.11601 C 217.187,244.683 206.035,255.731 197.617,255.731 v 0 c -1.882,0 -3.568,-0.561 -5.01,-1.661"
         id="path1372"
         style="stroke-width:0.999998" /></clipPath><clipPath
       clipPathUnits="userSpaceOnUse"
       id="clipPath1376"><path
         d="m 365.57498,130.607 12.834,-2.892 1.15703,5.247 -12.81398,2.957 z"
         id="path1378"
         style="stroke-width:0.999998" /></clipPath><clipPath
       clipPathUnits="userSpaceOnUse"
       id="clipPath1389"><path
         d="m 204.456,199.451 4.125,-3.882 12.185,5.941 12.255,-10.676 -3.909,-13.172 4.616,-3.564 11.083,38.943 -4.384,3.818 z m 21.495,4.502 12.43,6.04 -3.799,-13.546 z"
         id="path1391"
         style="stroke-width:0.999998" /></clipPath><clipPath
       clipPathUnits="userSpaceOnUse"
       id="clipPath1402"><path
         d="m 244.786,165.985 4.331,-2.918 20.177,31.36 -4.338,2.914 z"
         id="path1404"
         style="stroke-width:0.999998" /></clipPath><clipPath
       clipPathUnits="userSpaceOnUse"
       id="clipPath1415"><path
         d="m 263.695,153.751 4.455,-2.652 12.936,25.184 0.08,-0.041 6.29,-35.42 4.553,-2.123 16.72603,32.713 -4.587,2.472 -12.72003,-24.831 -0.086,0.043 -6.24,35.02299 -4.589,2.47301 z"
         id="path1417"
         style="stroke-width:0.999998" /></clipPath><clipPath
       clipPathUnits="userSpaceOnUse"
       id="clipPath1428"><path
         d="m 407.24604,128.018 c -0.201,-12.543 9.717,-19.446 19.32,-19.615 v 0 c 9.027,-0.148 16.19497,4.166 16.305,10.793 v 0 l 0.159,9.802 -16.51403,0.269 -0.082,-5.312 11.325,-0.187 -0.075,-4.127 c -0.0383,-3.149 -4.54905,-6.03 -10.79003,-5.927 v 0 c -9.12,0.161 -14.589,6.738 -14.472,13.972 v 0 c 0.12098,7.719 5.74298,14.024 15.29798,13.862 v 0 c 6.531,-0.113 9.258,-3.548 10.99905,-5.34 v 0 l 3.666,3.719 c -2.076,2.108 -6.52005,6.806 -15.11205,6.943 v 0 c -0.129,0.002 -0.258,0.004 -0.38595,0.004 v 0 c -11.322,-0.002 -19.48305,-8.44601 -19.641,-18.85601"
         id="path1430"
         style="stroke-width:0.999998" /></clipPath><clipPath
       clipPathUnits="userSpaceOnUse"
       id="clipPath1434"><path
         d="m 316.91003,162.066 11.92298,-4.26 -10.23503,-30.111 4.893,-1.755 10.242,30.127 11.92605,-4.258 1.70895,5.017 -28.755,10.26 z"
         id="path1436"
         style="stroke-width:0.999998" /></clipPath><clipPath
       clipPathUnits="userSpaceOnUse"
       id="clipPath1454"><path
         d="m 453.44004,147.298 5.11395,-36.529 30.08205,4.422 -0.72705,5.261 -24.957,-3.678 -1.56098,11.158 12.12203,1.776 -0.73305,5.278 -12.129,-1.791 -1.344,9.597 24.05805,3.531 -0.74205,5.263 z"
         id="path1456"
         style="stroke-width:0.999998" /></clipPath><clipPath
       clipPathUnits="userSpaceOnUse"
       id="clipPath1460"><path
         d="m 515.33896,160.888 -20.31097,-6.263 10.37197,-35.333 4.97003,1.449 -4.34003,14.825 12.82005,3.959 11.19495,-12.575 5.433,2.002 -11.253,12.427 c 2.829,1.132 7.134,5.084 4.88303,12.759 v 0 c -1.581,5.366 -5.38298,7.426 -9.50198,7.426 v 0 c -1.40805,0 -2.85802,-0.241 -4.26705,-0.676 m -13.86195,-9.825 15.35198,4.738 c 2.862,0.876 6.13597,0.813 7.314,-3.194 v 0 c 0.99997,-3.443 -0.525,-6.071 -4.251,-7.218 v 0 l -15.35303,-4.742 z"
         id="path1462"
         style="stroke-width:0.999998" /></clipPath><clipPath
       clipPathUnits="userSpaceOnUse"
       id="clipPath1473"><path
         d="m -365.57423,719.7866 h 850.39397 v -850.394 h -850.39397 z"
         id="path1475"
         style="stroke-width:0.999998" /></clipPath><clipPath
       clipPathUnits="userSpaceOnUse"
       id="clipPath1479"><path
         d="m -611.96882,633.0317 h 850.39398 v -850.394 h -850.39398 z"
         id="path1481"
         style="stroke-width:0.999998" /></clipPath><clipPath
       clipPathUnits="userSpaceOnUse"
       id="clipPath1485"><path
         d="m -244.7856,684.4086 h 850.39397 v -850.394 H -244.7856 Z"
         id="path1487"
         style="stroke-width:0.999998" /></clipPath><clipPath
       clipPathUnits="userSpaceOnUse"
       id="clipPath1491"><path
         d="M -263.6958,696.642 H 586.69817 V -153.752 H -263.6958 Z"
         id="path1493"
         style="stroke-width:0.999998" /></clipPath><clipPath
       clipPathUnits="userSpaceOnUse"
       id="clipPath1497"><path
         d="m -316.91018,688.3286 h 850.39397 v -850.394 h -850.39397 z"
         id="path1499"
         style="stroke-width:0.999998" /></clipPath><clipPath
       clipPathUnits="userSpaceOnUse"
       id="clipPath1503"><path
         d="m -407.24611,722.3764 h 850.39397 v -850.394 h -850.39397 z"
         id="path1505"
         style="stroke-width:0.999998" /></clipPath><clipPath
       clipPathUnits="userSpaceOnUse"
       id="clipPath1509"><path
         d="m -453.43951,703.0961 h 850.39397 v -850.394 h -850.39397 z"
         id="path1511"
         style="stroke-width:0.999998" /></clipPath><clipPath
       clipPathUnits="userSpaceOnUse"
       id="clipPath1515"><path
         d="m -515.33889,689.5063 h 850.39397 v -850.394 h -850.39397 z"
         id="path1517"
         style="stroke-width:0.999998" /></clipPath><clipPath
       clipPathUnits="userSpaceOnUse"
       id="clipPath1521"><path
         d="M -821.92382,425.1972 H 28.470151 v -850.394 H -821.92382 Z"
         id="path1523"
         style="stroke-width:0.999998" /></clipPath><clipPath
       clipPathUnits="userSpaceOnUse"
       id="clipPath1527"><path
         d="m -644.43069,598.5747 h 850.39397 v -850.394 h -850.39397 z"
         id="path1529"
         style="stroke-width:0.999998" /></clipPath><clipPath
       clipPathUnits="userSpaceOnUse"
       id="clipPath1533"><path
         d="m -204.4556,650.9428 h 850.39397 v -850.394 H -204.4556 Z"
         id="path1535"
         style="stroke-width:0.999998" /></clipPath><clipPath
       clipPathUnits="userSpaceOnUse"
       id="clipPath1539"><path
         d="M -425.19729,812.34417 H 425.19669 V -38.049826 h -850.39398 z"
         id="path1541"
         style="stroke-width:0.999998" /></clipPath><clipPath
       clipPathUnits="userSpaceOnUse"
       id="clipPath1545"><path
         d="m -192.6074,596.3237 h 850.39397 v -850.394 H -192.6074 Z"
         id="path1547"
         style="stroke-width:0.999998" /></clipPath><clipPath
       clipPathUnits="userSpaceOnUse"
       id="clipPath1551"><path
         d="M -588.54391,651.187 H 261.85006 V -199.207 H -588.54391 Z"
         id="path1553"
         style="stroke-width:0.999998" /></clipPath><clipPath
       clipPathUnits="userSpaceOnUse"
       id="clipPath1557"><path
         d="m -425.19729,654.9907 h 850.39398 v -850.394 h -850.39398 z"
         id="path1559"
         style="stroke-width:0.999998" /></clipPath><clipPath
       clipPathUnits="userSpaceOnUse"
       id="clipPath1575"><path
         d="m -636.32417,425.1972 h 850.39398 v -850.394 h -850.39398 z"
         id="path1577"
         style="stroke-width:0.999998" /></clipPath><clipPath
       clipPathUnits="userSpaceOnUse"
       id="clipPath1581"><path
         d="m -614.94632,520.7954 h 850.39398 v -850.394 h -850.39398 z"
         id="path1583"
         style="stroke-width:0.999998" /></clipPath><clipPath
       clipPathUnits="userSpaceOnUse"
       id="clipPath1587"><path
         d="m -503.29389,428.3344 h 850.39397 v -850.394 h -850.39397 z"
         id="path1589"
         style="stroke-width:0.999998" /></clipPath><clipPath
       clipPathUnits="userSpaceOnUse"
       id="clipPath1593"><path
         d="m -425.50884,589.0004 h 850.39398 v -850.394 h -850.39398 z"
         id="path1595"
         style="stroke-width:0.999998" /></clipPath><clipPath
       clipPathUnits="userSpaceOnUse"
       id="clipPath1599"><path
         d="m -375.50881,578.2924 h 850.39397 v -850.394 h -850.39397 z"
         id="path1601"
         style="stroke-width:0.999998" /></clipPath><clipPath
       clipPathUnits="userSpaceOnUse"
       id="clipPath1605"><path
         d="m -474.88479,578.2924 h 850.39397 v -850.394 h -850.39397 z"
         id="path1607"
         style="stroke-width:0.999998" /></clipPath><clipPath
       clipPathUnits="userSpaceOnUse"
       id="clipPath1611"><path
         d="m -431.52541,603.4907 h 850.39397 v -850.394 h -850.39397 z"
         id="path1613"
         style="stroke-width:0.999998" /></clipPath><clipPath
       clipPathUnits="userSpaceOnUse"
       id="clipPath1623"><path
         d="m -564.42189,666.9653 h 850.39397 v -850.394 h -850.39397 z"
         id="path1625"
         style="stroke-width:0.999998" /></clipPath></defs><path
     id="path620"
     style="fill:url(#radialGradient5361);fill-opacity:1;fill-rule:nonzero;stroke:none"
     d="M 300,0 C 134.56898,0 0,134.58745 0,299.9881 0,465.41255 134.56898,600 300,600 465.43103,600 600,465.41255 600,299.9881 600,134.58745 465.43103,1e-6 300,1e-6" /><g
     id="g4046"><g
       id="g2166"><path
         id="path624"
         style="fill:#ffffff;fill-opacity:1;fill-rule:nonzero;stroke:none;stroke-width:1.25"
         d="m 401.43992,72.41576 c -4.35784,-1.952613 -8.73949,-3.738537 -13.21639,-5.453025 l -26.45658,63.626615 c 4.4769,1.66687 8.88237,3.50042 13.19257,5.50066 z" /><path
         id="path626"
         style="fill:#ffffff;fill-opacity:1;fill-rule:nonzero;stroke:none;stroke-width:1.25"
         d="m 298.67599,63.474222 h 25.62311 c 6.2629,0 11.35894,5.095838 11.35894,11.3823 0,6.26265 -5.09604,11.3585 -11.35894,11.3585 h -25.62311 z m 0,34.932725 h 17.45515 l 15.05,23.812363 c 5.97714,1.07155 11.83521,2.45267 17.57423,4.09572 L 330.70488,97.54971 c 10.35879,-2.762238 18.88395,-11.882375 18.88395,-22.693188 0,-13.001537 -12.31148,-23.574225 -25.28973,-23.574225 h -39.5539 v 68.555773 c 4.59597,-0.35719 9.21575,-0.5715 13.90697,-0.5715 h 0.0239 z" /><path
         id="path628"
         style="fill:#ffffff;fill-opacity:1;fill-rule:nonzero;stroke:none;stroke-width:1.25"
         d="m 132.65202,130.9894 18.76487,-20.59769 c 4.23878,-4.64341 11.4542,-4.97679 16.07399,-0.73819 4.64359,4.21479 4.97697,11.42994 0.73821,16.04954 l -18.76489,20.6215 z m 41.43515,37.74258 -15.62154,-14.21597 19.33641,-21.28825 c 8.76329,-9.59637 8.76329,-25.02679 -0.85729,-33.789738 -9.59676,-8.76295 -25.21828,-7.548512 -33.98157,2.047858 l -28.69504,31.599 50.00794,45.57687 c 3.11955,-3.4528 6.42959,-6.7389 9.81109,-9.92977" /><path
         id="path630"
         style="fill:#ffffff;fill-opacity:1;fill-rule:nonzero;stroke:none;stroke-width:1.25"
         d="m 435.27385,110.96797 c 10.31117,-2.42886 29.26655,16.40671 32.90999,29.17014 3.00048,-2.28599 9.71583,-7.21515 9.71583,-7.21515 -8.02508,-22.81224 -39.9349,-45.624475 -55.08017,-31.33706 -9.00143,8.50101 -3.90538,21.574 3.953,29.83688 l 7.62027,8.02477 c 7.76313,8.16763 14.54992,16.31147 8.31083,21.47875 -6.64391,5.50065 -25.26591,-8.2867 -36.45816,-31.95619 l -10.00159,7.57234 c 2.38133,6.21502 7.78695,15.2399 15.0262,22.88367 8.21559,8.64389 17.16939,14.28741 25.19448,15.85903 6.31052,1.23825 12.57342,0.28575 16.71694,-3.54804 10.33497,-9.59639 6.57246,-23.55043 -9.6682,-40.6477 l -6.71537,-7.07226 c -7.47737,-7.8819 -4.42926,-12.35863 -1.52405,-13.04918" /><path
         id="path632"
         style="fill:#ffffff;fill-opacity:1;fill-rule:nonzero;stroke:none;stroke-width:1.25"
         d="m 220.56359,77.89736 19.38403,22.24075 c -7.02493,2.04786 -13.88317,4.47673 -20.5747,7.21514 m 4.14352,-44.624352 c -4.90555,1.5478 -9.73965,3.262287 -14.50231,5.143462 l -5.16749,78.10454 c 4.6436,-2.83368 9.40626,-5.45303 14.28799,-7.88189 l 0.73821,-18.19264 c 9.40625,-4.16717 19.24115,-7.59615 29.3618,-10.26313 l 12.00191,13.76354 c 5.28655,-1.143 10.64454,-2.04786 16.07398,-2.71461 z" /></g><g
       id="g1655"
       transform="matrix(0.54747258,0,0,0.54747191,-344.1913,-9.7906825)"
       style="stroke-width:1.82658"><path
         d="m 0,0 4.125,-3.882 12.185,5.941 12.255,-10.676 -3.909,-13.172 4.616,-3.565 11.083,38.944 -4.383,3.817 z m 21.496,4.502 12.43,6.04 -3.8,-13.546 z"
         style="fill:#ffffff;fill-opacity:1;fill-rule:nonzero;stroke:none;stroke-width:1.82658"
         id="path468"
         transform="matrix(1.3333333,0,0,-1.3333333,882.60746,867.92377)"
         clip-path="url(#clipPath1533)" /><path
         d="m 0,0 4.332,-2.918 20.177,31.359 -4.338,2.914 z"
         style="fill:#ffffff;fill-opacity:1;fill-rule:nonzero;stroke:none;stroke-width:1.82658"
         id="path490"
         transform="matrix(1.3333333,0,0,-1.3333333,936.38079,912.54484)"
         clip-path="url(#clipPath1485)" /><path
         d="m 0,0 4.455,-2.652 12.936,25.183 0.08,-0.041 6.289,-35.42 4.553,-2.123 16.727,32.713 -4.588,2.473 -12.72,-24.831 -0.086,0.042 -6.24,35.023 -4.589,2.474 z"
         style="fill:#ffffff;fill-opacity:1;fill-rule:nonzero;stroke:none;stroke-width:1.82658"
         id="path512"
         transform="matrix(1.3333333,0,0,-1.3333333,961.59439,928.85604)"
         clip-path="url(#clipPath1491)" /><path
         d="M 0,0 11.923,-4.26 1.688,-34.371 6.58,-36.126 16.823,-5.998 28.749,-10.256 30.458,-5.239 1.702,5.021 Z"
         style="fill:#ffffff;fill-opacity:1;fill-rule:nonzero;stroke:none;stroke-width:1.82658"
         id="path534"
         transform="matrix(1.3333333,0,0,-1.3333333,1032.5469,917.77151)"
         clip-path="url(#clipPath1497)" /><path
         d="m 0,0 c -0.201,-12.542 9.716,-19.446 19.319,-19.614 9.028,-0.149 16.197,4.166 16.306,10.793 L 35.783,0.98 19.271,1.249 19.188,-4.063 30.513,-4.25 30.438,-8.377 c -0.039,-3.149 -4.549,-6.03 -10.79,-5.927 -9.121,0.161 -14.589,6.738 -14.472,13.972 0.121,7.72 5.743,14.024 15.298,13.863 6.531,-0.114 9.257,-3.549 11,-5.341 l 3.665,3.719 c -2.076,2.109 -6.521,6.807 -15.112,6.944 -0.13,10e-4 -0.258,0.003 -0.386,0.003 C 8.319,18.854 0.158,10.41 0,0"
         style="fill:#ffffff;fill-opacity:1;fill-rule:nonzero;stroke:none;stroke-width:1.82658"
         id="path556"
         transform="matrix(1.3333333,0,0,-1.3333333,1152.9948,963.16857)"
         clip-path="url(#clipPath1503)" /><path
         d="m 0,0 5.114,-36.528 30.082,4.422 -0.726,5.259 -24.957,-3.676 -1.561,11.158 12.122,1.775 -0.733,5.277 -12.129,-1.79 -1.345,9.597 24.059,3.531 -0.742,5.263 z"
         style="fill:#ffffff;fill-opacity:1;fill-rule:nonzero;stroke:none;stroke-width:1.82658"
         id="path578"
         transform="matrix(1.3333333,0,0,-1.3333333,1214.586,937.4615)"
         clip-path="url(#clipPath1509)" /><path
         d="m 0,0 -20.311,-6.263 10.373,-35.333 4.969,1.45 -4.341,14.825 12.821,3.959 11.195,-12.576 5.434,2.002 -11.254,12.427 c 2.83,1.133 7.135,5.084 4.884,12.759 C 12.188,-1.384 8.387,0.677 4.268,0.677 2.858,0.677 1.409,0.436 0,0 M -13.861,-9.824 1.49,-5.087 c 2.862,0.877 6.136,0.814 7.314,-3.194 1,-3.443 -0.525,-6.071 -4.25,-7.218 L -10.8,-20.24 Z"
         style="fill:#ffffff;fill-opacity:1;fill-rule:nonzero;stroke:none;stroke-width:1.82658"
         id="path600"
         transform="matrix(1.3333333,0,0,-1.3333333,1297.1185,919.34177)"
         clip-path="url(#clipPath1515)" /><path
         d="m 0,0 7.6,-39.701 4.619,3.023 -2.533,13.362 13.108,9.558 11.145,-6.991 4.514,3.69 L 4.688,3.409 Z m 5.995,-3.724 11.881,-7.1 -9.237,-6.735 z"
         style="fill:#ffffff;fill-opacity:1;fill-rule:nonzero;stroke:none;stroke-width:1.82658"
         id="path622-9"
         transform="matrix(1.3333333,0,0,-1.3333333,1394.7252,868.24937)"
         clip-path="url(#clipPath1551)" /><path
         d="m 0,0 24.511,-27.017 3.873,3.528 L 3.795,3.616 Z"
         style="fill:#ffffff;fill-opacity:1;fill-rule:nonzero;stroke:none;stroke-width:1.82658"
         id="path644-5"
         transform="matrix(1.3333333,0,0,-1.3333333,1425.9584,844.04231)"
         clip-path="url(#clipPath1479)" /><path
         d="m 0,0 20.351,-18.754 -0.066,-0.067 -34.671,2.441 -3.471,-3.952 26.856,-24.772 3.64,3.804 -20.603,18.992 0.065,0.079 35.034,-2.456 3.101,3.957 L 3.468,3.958 Z"
         style="fill:#ffffff;fill-opacity:1;fill-rule:nonzero;stroke:none;stroke-width:1.82658"
         id="path666-2"
         transform="matrix(1.3333333,0,0,-1.3333333,1469.2409,798.09964)"
         clip-path="url(#clipPath1527)" /><path
         d="m 0,0 -0.779,-26.157 -21.121,14.709 -4.643,-2.415 15.756,-33.204 4.705,2.16 -10.905,23.597 0.088,0.049 20.922,-14.534 0.8,25.885 0.096,0.047 12.249,-22.943 4.499,2.59 L 4.618,2.416 Z"
         style="fill:#ffffff;fill-opacity:1;fill-rule:nonzero;stroke:none;stroke-width:1.82658"
         id="path688"
         transform="matrix(1.3333333,0,0,-1.3333333,1362.5625,889.28711)"
         clip-path="url(#clipPath1623)" /><path
         d="m 0,0 c -1.696,-1.288 -2.71,-3.015 -3.004,-5.118 -0.469,-3.3 0.829,-7.454 3.487,-11.095 l 3.838,-5.256 c 2.972,-4.064 5.837,-8.325 5.242,-11.679 -0.233,-1.355 -0.981,-2.444 -2.213,-3.258 -0.677,-0.444 -1.455,-0.669 -2.321,-0.669 -5.209,0 -14.028,9.514 -18.363,23.149 l -0.081,0.249 -3.791,-3.646 -0.072,-0.074 0.024,-0.088 c 0.847,-3.411 3.109,-8.918 6.921,-14.147 4.002,-5.482 8.569,-9.274 12.85,-10.686 1.383,-0.455 2.735,-0.691 4.031,-0.691 1.876,0 3.538,0.495 4.803,1.447 2.088,1.56 3.321,3.549 3.661,5.902 0.643,4.354 -1.619,10.102 -6.705,17.065 l -3.386,4.648 c -2.708,3.707 -2.591,6.123 -2.014,7.489 0.504,1.201 1.586,2.03 2.814,2.184 0.188,0.016 0.384,0.022 0.586,0.022 6.178,0 14.934,-10.505 17.209,-18.652 l 0.057,-0.208 0.176,0.112 c 1.286,0.756 2.777,1.632 3.692,2.163 l 0.113,0.069 -0.034,0.117 C 24.58,-9.388 13.428,1.661 5.01,1.661 3.127,1.661 1.441,1.1 0,0"
         style="fill:#ffffff;fill-opacity:1;fill-rule:nonzero;stroke:none;stroke-width:1.82658"
         id="path710"
         transform="matrix(1.3333333,0,0,-1.3333333,866.80986,795.09831)"
         clip-path="url(#clipPath1545)" /><path
         d="M 0,0 12.835,-2.893 13.992,2.354 1.177,5.312 Z"
         style="fill:#ffffff;fill-opacity:1;fill-rule:nonzero;stroke:none;stroke-width:1.82658"
         id="path732"
         transform="matrix(1.3333333,0,0,-1.3333333,1097.4323,959.7155)"
         clip-path="url(#clipPath1473)" /></g></g><path
     id="path2403"
     style="fill:#ffffff;stroke:none;stroke-width:2;stroke-linecap:square"
     d="M 300,21.449221 A 278.54999,278.55002 0 0 0 21.449217,300 278.54999,278.55002 0 0 0 300,578.55078 278.54999,278.55002 0 0 0 578.55078,300 278.54999,278.55002 0 0 0 300,21.449221 Z m 0,11.02539 A 267.52499,267.52502 0 0 1 567.52539,300 267.52499,267.52502 0 0 1 300,567.52539 267.52499,267.52502 0 0 1 32.474607,300 267.52499,267.52502 0 0 1 300,32.474611 Z" /><g
     id="g4055"
     transform="matrix(0.9999969,0,0,1.0000028,0.21088935,-1.0106078)"
     style="stroke-width:0.999999"><g
       id="g2178"
       transform="translate(0.39761279)"
       style="stroke-width:0.999999"><path
         id="path642"
         style="fill:#c2a24e;fill-opacity:1;fill-rule:nonzero;stroke:none;stroke-width:1.25"
         d="m 305.2294,429.70353 -5.45325,-6.33408 -5.45323,6.33408 -0.21433,0.59532 c 1.0716,2.16692 2.92904,4.8339 5.16749,6.64365 l 0.50007,0.26192 0.50009,-0.26192 c 2.26226,-1.80975 4.09589,-4.47673 5.1913,-6.64365 l -0.23814,-0.59532" /><path
         id="path644"
         style="fill:#c2a24e;fill-opacity:1;fill-rule:nonzero;stroke:none;stroke-width:1.25"
         d="m 310.45642,395.30896 c 0,-6.26265 -8.19177,-25.78878 -10.66835,-25.78878 l -0.61915,0.26193 c -2.97666,2.42886 -10.04921,19.69282 -10.04921,25.52685 0,4.66722 9.43006,16.97821 9.43006,23.66949 v 0 l 1.2383,1.23825 1.23829,-1.23825 v -0.0476 c 0.0476,-6.69127 9.43006,-18.95464 9.43006,-23.62186" /><path
         id="path646"
         style="fill:#c2a24e;fill-opacity:1;fill-rule:nonzero;stroke:none;stroke-width:1.25"
         d="m 294.46103,418.39538 c -4.42928,-11.66806 -12.04953,-18.04978 -20.00318,-18.04978 -5.97713,0 -10.85886,4.85773 -10.85886,10.85844 0,6.00071 5.83828,9.86045 10.85886,10.85844 1.62655,0.32332 3.49444,-0.6653 4.59598,-1.90499 0.89295,-1.00494 1.80282,-2.73826 1.0954,-3.88141 -0.24659,-0.39846 -0.96691,-0.0429 -1.38116,-0.26194 -1.5183,-0.80284 -3.64625,-1.92579 -3.64344,-3.64329 0.002,-1.7119 1.93375,-3.53265 3.64344,-3.61948 5.68153,-0.28858 9.8587,3.42898 13.26401,10.73937 v 0.0476 l 0.0238,0.0476 1.21447,0.71438 1.33355,-1.3573 -0.14288,-0.54769" /><path
         id="path648"
         style="fill:#c2a24e;fill-opacity:1;fill-rule:nonzero;stroke:none;stroke-width:1.25"
         d="m 324.74679,400.34527 c -7.92984,0 -15.5739,6.38172 -20.00317,18.04978 l -0.119,0.54768 1.33353,1.38112 1.19067,-0.73819 0.0238,-0.0476 0.0239,-0.0238 c 3.38149,-7.3342 7.5778,-11.05825 13.264,-10.76319 1.70399,0.0884 3.61683,1.91321 3.61963,3.61948 0.002,1.71189 -2.10635,2.84294 -3.61963,3.64329 -0.42112,0.22273 -1.15447,-0.14329 -1.40497,0.26194 -0.71204,1.15182 0.2164,2.89596 1.11922,3.90522 1.09875,1.22829 2.95619,2.20459 4.57215,1.88118 5.01929,-1.00453 10.85886,-4.85772 10.85886,-10.85844 0,-6.00071 -4.85791,-10.85843 -10.85886,-10.85843" /></g><path
       id="path2691"
       style="fill:#ffffff;stroke:none;stroke-width:2.00001;stroke-linecap:square"
       d="M 299.79102,136.74023 A 164.27,164.27 0 0 0 135.51953,301.00977 164.27,164.27 0 0 0 299.79102,465.2793 164.27,164.27 0 0 0 464.06055,301.00977 164.27,164.27 0 0 0 299.79102,136.74023 Z m -21.72266,12.58008 C 271.04562,246.97738 230.1825,319.25046 163.11523,369.65039 A 153.24449,153.24449 0 0 1 146.54688,301.00977 153.24449,153.24449 0 0 1 278.06836,149.32031 Z m 43.44336,0 A 153.24449,153.24449 0 0 1 453.03516,301.00977 153.24449,153.24449 0 0 1 436.4668,369.65234 C 369.39822,319.25234 328.53451,246.97845 321.51172,149.32031 Z M 299.7793,349.86133 c 35.7912,0 64.82031,27.86759 64.82031,62.23242 0,9.61101 -2.28643,21.12164 -6.34375,30.25 a 153.24449,153.24449 0 0 1 -58.46484,11.91016 153.24449,153.24449 0 0 1 -58.48047,-11.91602 c -4.05795,-9.12796 -6.35157,-20.63268 -6.35157,-30.24414 0,-34.36483 29.02907,-62.23242 64.82032,-62.23242 z" /><path
       id="path636"
       style="fill:url(#linearGradient5403);fill-opacity:1;fill-rule:nonzero;stroke:none;stroke-width:0.999999"
       d="M 299.79102,147.76562 A 153.24449,153.24449 0 0 0 285.75,148.68555 c -1.15916,57.70334 -15.32006,107.57763 -39.16992,149.41992 h 53.23437 53.23438 C 329.1995,256.26413 315.03862,206.39113 313.87891,148.68945 a 153.24449,153.24449 0 0 0 -14.08789,-0.92383 z m -56.70118,156.31641 c -18.56497,30.79924 -43.30137,57.93653 -71.24804,80.67774 a 153.24449,153.24449 0 0 0 47.25586,46.24218 c -0.6827,-3.95847 -1.0586,-8.00428 -1.0586,-12.14453 0,-42.21923 36.60165,-76.4375 81.77539,-76.4375 45.17376,0 81.77539,34.21827 81.77539,76.4375 0,4.12807 -0.37391,8.16202 -1.05273,12.10938 a 153.24449,153.24449 0 0 0 47.2207,-46.23242 C 399.82389,361.99835 375.09712,334.8698 356.53906,304.08203 h -56.72461 z" /></g></svg>
