<?xml version="1.0" encoding="UTF-8" standalone="no"?>
<!-- Created with Inkscape (http://www.inkscape.org/) -->

<svg
   xmlns:dc="http://purl.org/dc/elements/1.1/"
   xmlns:cc="http://creativecommons.org/ns#"
   xmlns:rdf="http://www.w3.org/1999/02/22-rdf-syntax-ns#"
   xmlns:svg="http://www.w3.org/2000/svg"
   xmlns="http://www.w3.org/2000/svg"
   xmlns:sodipodi="http://sodipodi.sourceforge.net/DTD/sodipodi-0.dtd"
   xmlns:inkscape="http://www.inkscape.org/namespaces/inkscape"
   version="1.1"
   id="svg2"
   xml:space="preserve"
   width="197.20067"
   height="252"
   viewBox="0 0 197.20067 252.00001"
   sodipodi:docname="qarabag-fk.svg"
   inkscape:version="0.92.4 (5da689c313, 2019-01-14)"><metadata
     id="metadata8"><rdf:RDF><cc:Work
         rdf:about=""><dc:format>image/svg+xml</dc:format><dc:type
           rdf:resource="http://purl.org/dc/dcmitype/StillImage" /><dc:title></dc:title></cc:Work></rdf:RDF></metadata><defs
     id="defs6" /><sodipodi:namedview
     pagecolor="#ffffff"
     bordercolor="#666666"
     borderopacity="1"
     objecttolerance="10"
     gridtolerance="10"
     guidetolerance="10"
     inkscape:pageopacity="0"
     inkscape:pageshadow="2"
     inkscape:window-width="1366"
     inkscape:window-height="705"
     id="namedview4"
     showgrid="false"
     fit-margin-top="1"
     fit-margin-right="1"
     fit-margin-bottom="1"
     fit-margin-left="1"
     inkscape:zoom="1.1893044"
     inkscape:cx="178.01896"
     inkscape:cy="172.76211"
     inkscape:window-x="-8"
     inkscape:window-y="-8"
     inkscape:window-maximized="1"
     inkscape:current-layer="g10" /><g
     id="g10"
     inkscape:groupmode="layer"
     inkscape:label="qarabag-fk-seeklogo.com"
     transform="matrix(1.3333333,0,0,-1.3333333,-302.17914,933.36094)"><g
       id="g111"
       transform="matrix(0.29026161,0,0,0.29026161,214.1918,483.33655)"><path
         inkscape:connector-curvature="0"
         id="path12"
         style="fill:#c97b0f;fill-opacity:1;fill-rule:evenodd;stroke:none"
         d="M 548.2145,582.3473 C 399.5787,555.6385 311.8564,657.4765 297.6401,675.4895 283.4354,657.4771 195.6997,555.6379 47.0597,582.3473 c 0,0 -37.5886,-315.8662 250.5804,-484.3868 288.1754,168.5211 250.5744,484.3868 250.5744,484.3868" /><path
         inkscape:connector-curvature="0"
         id="path14"
         style="fill:#1c1b4e;fill-opacity:1;fill-rule:evenodd;stroke:none"
         d="m 58.0249,569.2465 c -0.3143,-5.8133 -0.6006,-13.5343 -0.6006,-23.0735 0,-31.9564 3.1512,-82.9882 18.6318,-140.7779 34.0194,-127.0051 108.6233,-225.756 221.584,-293.7798 112.9665,68.0247 187.5696,166.7823 221.5805,293.7798 15.4812,57.7897 18.6293,108.821 18.6293,140.7779 0,9.5397 -0.2789,17.2593 -0.5947,23.0735 C 409.174,552.0192 327.0495,624.992 297.6401,657.3977 268.2422,624.992 186.1126,552.0183 58.0249,569.2465" /><path
         inkscape:connector-curvature="0"
         id="path16"
         style="fill:#ffffff;fill-opacity:1;fill-rule:evenodd;stroke:none"
         d="m 69.9151,552.3684 c 0.1361,-32.8578 3.562,-83.0857 18.7875,-139.9124 32.7387,-122.237 103.0703,-218.4313 208.9389,-286.3219 105.8717,67.8914 176.1976,164.0843 208.942,286.3219 15.2189,56.8352 18.6457,107.054 18.7804,139.9124 C 414.915,546.8703 337.9076,599.3048 297.6415,636.6739 257.3714,599.3048 180.3821,546.8703 69.9151,552.3684" /><path
         inkscape:connector-curvature="0"
         id="path18"
         style="fill:#c97b0f;fill-opacity:1;fill-rule:evenodd;stroke:none"
         d="m 297.6381,743.9295 10.1202,-22.8991 25.0994,-2.6898 -18.6511,-16.7015 5.1984,-24.7016 -21.6473,12.5767 -21.8866,-12.5767 5.2719,24.4743 -18.7248,16.9288 24.906,2.5492 z" /><path
         inkscape:connector-curvature="0"
         id="path20"
         style="fill:#1c1b4e;fill-opacity:1;fill-rule:evenodd;stroke:none"
         d="m 297.6429,496.2886 c -61.2706,0 -110.9398,-49.9374 -110.9398,-111.5368 0,-61.5999 49.6692,-111.5333 110.9389,-111.5333 61.2735,0 110.9339,49.9334 110.9339,111.5333 6e-4,61.6003 -49.6616,111.5368 -110.9339,111.5368 z m 0,-218.0894 c -58.5357,0 -105.9885,47.7045 -105.9885,106.5526 0,58.8484 47.4528,106.5586 105.9876,106.5586 58.5304,0 105.9838,-47.711 105.9838,-106.5586 0,-58.8481 -47.4543,-106.5537 -105.9829,-106.5526" /><path
         inkscape:connector-curvature="0"
         id="path22"
         style="fill:#c97b0f;fill-opacity:1;fill-rule:evenodd;stroke:none"
         d="m 297.2991,214.5963 2.154,-4.3818 4.8212,-0.707 -3.492,-3.4086 0.8246,-4.8189 -4.3078,2.2785 -4.3081,-2.2785 0.826,4.8189 -3.4821,3.4086 4.8149,0.707 z m 81.6644,31.9773 -5.3924,4.131 0.3447,6.8008 -5.5783,-3.8636 -6.3309,2.4242 1.9367,-6.5234 -4.2579,-5.3061 6.7787,-0.1659 3.6998,-5.7115 2.2516,6.4236 z m -40.3855,-20.0684 -5.383,4.1323 0.3382,6.804 -5.5775,-3.8658 -6.3317,2.4304 1.9403,-6.5242 -4.2588,-5.3164 6.7746,-0.1684 3.6995,-5.7067 2.2475,6.4315 z m -29.1872,31.2551 -1.4998,-7.6082 -7.0861,-3.0665 6.7354,-3.7922 0.7169,-7.7253 5.6602,5.275 7.5277,-1.7087 -3.2377,7.0464 3.9359,6.6721 -7.6496,-0.9161 z m 38.4134,2.791 -7.1008,-4.8189 -7.9781,3.1564 2.3536,-8.2919 -5.4507,-6.6496 8.5771,-0.2982 4.6074,-7.2674 2.9319,8.0986 8.3029,2.1631 -6.7609,5.2985 z m 22.951,-1.6243 -2.4987,7.5682 4.7911,6.3661 -7.945,-0.0454 -4.5416,6.5498 -2.4047,-7.6133 -7.5909,-2.3139 6.4511,-4.6582 -0.155,-7.9722 6.3881,4.7228 z m 32.7654,1.1169 -6.7493,4.1933 -0.3886,7.9744 -6.0588,-5.1639 -7.6629,2.1016 3.0243,-7.3922 -4.3543,-6.6815 7.9101,0.5987 4.9756,-6.2275 1.8825,7.7585 z m -9.3212,29.5115 -8.5637,-0.2517 -5.0723,6.9599 -2.414,-8.2798 -8.1437,-2.6906 7.0869,-4.8541 0.0233,-8.621 6.7904,5.2626 8.1603,-2.6306 -2.8808,8.1111 z m 18.813,21.6192 -8.873,-3.444 -7.869,5.409 0.5171,-9.5717 -7.5572,-5.8482 9.2168,-2.4582 3.2006,-9.0195 5.1619,8.0455 9.5304,0.2693 -5.9992,7.422 z m -109.4559,-78.6415 0.0162,-5.5687 -4.5369,-3.1586 5.258,-1.6898 1.5965,-5.3132 3.219,4.5082 5.5182,-0.1205 -3.2505,4.4822 1.8023,5.231 -5.2413,-1.7441 z m -87.9114,14.0405 5.3932,4.131 -0.337,6.8008 5.5751,-3.8636 6.327,2.4242 -1.9361,-6.5234 4.2579,-5.3061 -6.7793,-0.1659 -3.7009,-5.7115 -2.2496,6.4236 z m 40.3886,-20.0684 5.3926,4.1323 -0.3472,6.804 5.5772,-3.8658 6.3314,2.4304 -1.9377,-6.5242 4.2562,-5.3164 -6.7777,-0.1684 -3.6995,-5.7067 -2.2481,6.4315 z m 29.1858,31.2551 1.4961,-7.6082 7.0869,-3.0665 -6.734,-3.7922 -0.7146,-7.7253 -5.6579,5.275 -7.5325,-1.7087 3.2343,7.0464 -3.9345,6.6721 7.6544,-0.9161 z m -38.4143,2.791 7.1,-4.8189 7.9849,3.1564 -2.3627,-8.2919 5.4524,-6.6496 -8.5722,-0.2982 -4.604,-7.2674 -2.9384,8.0986 -8.299,2.1631 6.7589,5.2985 z m -22.9524,-1.6243 2.4959,7.5682 -4.786,6.3661 7.9438,-0.0454 4.5423,6.5498 2.3972,-7.6133 7.5957,-2.3139 -6.446,-4.6582 0.1511,-7.9722 -6.387,4.7228 z m -32.7611,0.652 6.7484,4.1904 0.3909,7.9736 6.0588,-5.1602 7.6637,2.0994 -3.0163,-7.3877 4.35,-6.681 -7.9183,0.5882 -4.9745,-6.2138 -1.8805,7.7471 z m 9.3231,29.9764 8.5655,-0.2517 5.0621,6.9599 2.4097,-8.2798 8.153,-2.6906 -7.0863,-4.8541 -0.0315,-8.621 -6.7841,5.2626 -8.1655,-2.6306 2.8845,8.1111 z m -18.8169,21.6192 8.8761,-3.444 7.8642,5.409 -0.5128,-9.5717 7.5509,-5.8482 -9.2063,-2.4582 -3.1978,-9.0195 -5.1809,8.0455 -9.5233,0.2693 6.0049,7.422 z m 109.4615,-78.6415 -0.0218,-5.5687 4.5352,-3.1586 -5.2569,-1.6898 -1.5976,-5.3132 -3.2219,4.5082 -5.5091,-0.1205 3.2468,4.4822 -1.8091,5.231 5.2416,-1.7441 z" /><path
         inkscape:connector-curvature="0"
         id="path24"
         style="fill:#c97b0f;fill-opacity:1;fill-rule:evenodd;stroke:none"
         d="m 298.7158,548.4821 c 0,0 0,-0.0813 0,-0.1956 0,0.1148 0,0.195 0,0.195 z m 23.2274,-10.1219 c -5.9386,0 -6.9659,8.2975 -6.9659,8.2975 6e-4,9e-4 -0.5167,-9.5978 -8.524,-9.5978 -7.405,0 -7.7298,9.7849 -7.7375,11.2266 -0.006,-1.4408 -0.3316,-11.2266 -7.7445,-11.2266 -8.0028,0 -8.5162,9.5978 -8.5162,9.5978 0,9e-4 -1.0335,-8.2975 -6.9681,-8.2975 -5.9422,0 -8.7848,5.1842 -8.7848,5.1842 l 8.5232,-24.9162 H 322.2 l 8.5232,24.9168 c 0,0 -2.8363,-5.1848 -8.78,-5.1848" /><path
         inkscape:connector-curvature="0"
         id="path26"
         style="fill:#c97b0f;fill-opacity:1;fill-rule:evenodd;stroke:none"
         d="m 303.1699,555.8717 c 0,-2.4703 -1.9953,-4.473 -4.4541,-4.473 -2.4582,5e-4 -4.4589,2.0027 -4.4589,4.473 0,2.477 1.9999,4.4847 4.4589,4.4847 2.4596,0 4.4541,-2.0077 4.4541,-4.4847" /><path
         inkscape:connector-curvature="0"
         id="path28"
         style="fill:#c97b0f;fill-opacity:1;fill-rule:evenodd;stroke:none"
         d="m 286.6467,553.0808 c 0,-2.4702 -1.9873,-4.4723 -4.4523,-4.4723 -2.4563,0 -4.455,2.0013 -4.455,4.4714 0,2.4749 1.9987,4.4787 4.455,4.4787 2.465,9e-4 4.4523,-2.0046 4.4523,-4.4778" /><path
         inkscape:connector-curvature="0"
         id="path30"
         style="fill:#c97b0f;fill-opacity:1;fill-rule:evenodd;stroke:none"
         d="m 270.1959,549.3827 c 0,-2.4679 -1.9979,-4.4768 -4.4541,-4.4768 -2.4608,9e-4 -4.4544,2.0084 -4.4544,4.4768 0,2.4786 1.9936,4.4787 4.4544,4.4787 2.4562,0 4.4541,-2.0007 4.4541,-4.4787" /><path
         inkscape:connector-curvature="0"
         id="path32"
         style="fill:#c97b0f;fill-opacity:1;fill-rule:evenodd;stroke:none"
         d="m 310.782,553.0808 c 0,-2.4702 1.9973,-4.4723 4.4499,-4.4723 2.4568,0 4.449,2.0013 4.449,4.4714 8e-4,2.4749 -1.9922,4.4787 -4.449,4.4787 -2.4526,9e-4 -4.4504,-2.0046 -4.4499,-4.4778" /><path
         inkscape:connector-curvature="0"
         id="path34"
         style="fill:#c97b0f;fill-opacity:1;fill-rule:evenodd;stroke:none"
         d="m 327.2386,549.3827 c 0,-2.4679 1.9899,-4.4768 4.4441,-4.4768 2.4667,9e-4 4.4558,2.0084 4.4558,4.4768 0,2.4786 -1.9891,4.4787 -4.4558,4.4787 -2.4533,0 -4.4441,-2.0007 -4.4441,-4.4787" /><path
         inkscape:connector-curvature="0"
         id="path36"
         style="fill:#c97b0f;fill-opacity:1;fill-rule:evenodd;stroke:none"
         d="m 297.6429,491.3104 c -58.5357,0 -105.9885,-47.711 -105.9885,-106.5586 0,-58.8481 47.4528,-106.5537 105.9876,-106.5537 58.5304,10e-4 105.9838,47.7056 105.9838,106.5537 0,58.8484 -47.4543,106.5586 -105.9838,106.5586 z m 0,-185.2393 c -43.2249,0 -78.2651,35.2217 -78.2651,78.6807 0,43.4549 35.0396,78.6827 78.2642,78.6827 43.2219,0 78.2578,-35.2287 78.2578,-78.6827 6e-4,-43.4585 -35.0365,-78.6812 -78.2569,-78.6807" /><path
         inkscape:connector-curvature="0"
         id="path38"
         style="fill:#c97b0f;fill-opacity:1;fill-rule:evenodd;stroke:none"
         d="m 297.6423,486.231 c -55.7427,0 -100.9315,-45.4351 -100.9315,-101.4746 0,-56.0401 45.1888,-101.4701 100.931,-101.4701 55.7379,0.001 100.9272,45.43 100.9272,101.4701 0,56.0406 -45.1902,101.4746 -100.9272,101.4746 z" /><path
         inkscape:connector-curvature="0"
         id="path40"
         style="fill:#1c1b4e;fill-opacity:1;fill-rule:evenodd;stroke:none"
         d="m 297.6429,463.4345 c -43.2249,0 -78.2651,-35.2287 -78.2651,-78.6827 0,-43.4585 35.0396,-78.6812 78.2642,-78.6812 43.2219,5e-4 78.2578,35.2222 78.2578,78.6812 6e-4,43.4549 -35.0365,78.6827 -78.2578,78.6827 z m 0,-151.6419 c -40.083,0 -72.5718,32.6628 -72.5718,72.9592 0,40.2962 32.4888,72.9638 72.5709,72.9638 40.08,9e-4 72.5678,-32.6676 72.5678,-72.9638 0,-40.2964 -32.4887,-72.9592 -72.5669,-72.9592" /><path
         inkscape:connector-curvature="0"
         id="path42"
         style="fill:#9e3715;fill-opacity:1;fill-rule:evenodd;stroke:none"
         d="m 439.9415,469.4046 c 0.0202,-0.0641 0.0454,-0.1304 0.0664,-0.2021 -0.0372,0.0456 -0.061,0.0924 -0.0924,0.1338 0.006,0.0229 0.0173,0.0484 0.026,0.0683" /><path
         inkscape:connector-curvature="0"
         id="path44"
         style="fill:#f6f5e0;fill-opacity:1;fill-rule:evenodd;stroke:none"
         d="m 297.6429,311.7926 c -40.083,0 -72.5718,32.6628 -72.5718,72.9592 0,40.2962 32.4888,72.9638 72.5709,72.9638 40.08,9e-4 72.5678,-32.6676 72.5678,-72.9638 0,-40.2964 -32.4887,-72.9592 -72.5669,-72.9592" /><path
         inkscape:connector-curvature="0"
         id="path46"
         style="fill:#1c1b4e;fill-opacity:1;fill-rule:evenodd;stroke:none"
         d="m 367.6428,384.7527 c 0,-38.8667 -31.3441,-70.3809 -70.0008,-70.3809 -38.6577,0 -70.0007,31.5136 -70.0007,70.38 0,38.8684 31.343,70.3749 70.0007,70.3749 38.6567,0 70.0002,-31.507 70.0008,-70.374" /><path
         inkscape:connector-curvature="0"
         id="path48"
         style="fill:#f6f5e0;fill-opacity:1;fill-rule:evenodd;stroke:none"
         d="m 295.9265,442.9114 c -7.4503,0 -13.7919,-2.0163 -13.7919,-2.0163 l -11.6777,-19.5576 13.0184,-15.9911 c 0,0 12.0042,2.4605 28.2478,0 l 13.0026,15.9911 -11.674,19.5576 c 0,0 -6.3396,2.0163 -13.7897,2.0163 z" /><path
         inkscape:connector-curvature="0"
         id="path50"
         style="fill:#f6f5e0;fill-opacity:1;fill-rule:evenodd;stroke:none"
         d="m 245.8545,378.7444 c 0,0 11.1175,-2.4628 21.4557,-2.4628 0,0 4.3447,-13.9674 14.6835,-24.8221 0,6e-4 -4.4513,-13.4141 -6.8962,-15.872 0,5e-4 -20.2393,-3.136 -29.8006,13.4175 -9.5632,16.5399 -2.7845,19.7906 0.5576,29.7394" /><path
         inkscape:connector-curvature="0"
         id="path52"
         style="fill:#f6f5e0;fill-opacity:1;fill-rule:evenodd;stroke:none"
         d="m 236.7303,365.3453 c 0.781,4.5791 6.3023,15.3213 6.3023,15.3213 l -0.0757,0.4416 c -1.4465,9.8356 0.6664,25.3783 0.3368,26.1609 -0.3368,0.779 -6.2346,4.9153 -6.2346,4.9153 0,0 -0.5584,-0.443 -1.3801,-1.6458 -3.3699,-7.8392 -5.2481,-16.492 -5.2481,-25.5875 0,-6.2662 0.8938,-12.3307 2.5577,-18.0621 1.8227,-2.1404 3.7417,-1.5437 3.7417,-1.5437" /><path
         inkscape:connector-curvature="0"
         id="path54"
         style="fill:#f6f5e0;fill-opacity:1;fill-rule:evenodd;stroke:none"
         d="m 245.6986,410.9536 c 0,0 8.6726,9.5054 19.904,11.1787 0,9e-4 9.0102,13.7506 12.007,19.1206 0,0 -3.8313,4.4169 -5.6069,5.6897 -13.0964,-5.2325 -24.0775,-14.6674 -31.2832,-26.6582 -1.2271,-2.1608 -1.8048,-3.5164 -1.8048,-3.5164 0,0 2.8905,-4.0269 6.7839,-5.8144" /><path
         inkscape:connector-curvature="0"
         id="path56"
         style="fill:#f6f5e0;fill-opacity:1;fill-rule:evenodd;stroke:none"
         d="m 311.601,400.9059 c 0,0 11.5682,-18.4504 12.566,-22.9175 0,0 -3.2216,-12.189 -14.3422,-23.9287 0,0 -4.3033,-0.3557 -9.3407,-0.5499 v -0.1148 c -0.9465,0 -1.9219,0.007 -2.8917,0.0332 -0.9654,-0.0253 -1.936,-0.0341 -2.8882,-0.0341 v 0.1157 c -5.0454,0.1942 -9.3472,0.5499 -9.3472,0.5499 -11.1135,11.7397 -14.3436,23.9287 -14.3436,23.9287 1.0015,4.4679 12.5668,22.9175 12.5668,22.9175 0,0 8.6692,1.3207 15.5384,1.3207 6.8709,0 12.4824,-1.3207 12.4824,-1.3207" /><path
         inkscape:connector-curvature="0"
         id="path58"
         style="fill:#f6f5e0;fill-opacity:1;fill-rule:evenodd;stroke:none"
         d="m 349.3278,378.7444 c 0,0 -11.1129,-2.4628 -21.454,-2.4628 0,0 -4.339,-13.9674 -14.6812,-24.8221 6e-4,6e-4 4.4504,-13.4141 6.8973,-15.872 0,5e-4 20.2337,-3.136 29.8069,13.4175 9.5499,16.5399 2.7748,19.7906 -0.569,29.7394" /><path
         inkscape:connector-curvature="0"
         id="path60"
         style="fill:#f6f5e0;fill-opacity:1;fill-rule:evenodd;stroke:none"
         d="m 358.4551,365.3453 c -0.7781,4.5791 -6.3113,15.3609 -6.3113,15.3609 l 0.0828,0.402 c 1.4485,9.8356 -0.6673,25.3783 -0.3292,26.1609 0.3292,0.779 6.2215,4.9153 6.2215,4.9153 9e-4,0 0.5667,-0.443 1.391,-1.6458 3.3695,-7.8392 5.2418,-16.492 5.2418,-25.5875 0,-6.2662 -0.8881,-12.3307 -2.5534,-18.0621 -1.8233,-2.1404 -3.7432,-1.5437 -3.7432,-1.5437" /><path
         inkscape:connector-curvature="0"
         id="path62"
         style="fill:#f6f5e0;fill-opacity:1;fill-rule:evenodd;stroke:none"
         d="m 348.8658,411.857 c 0,0 -8.2432,9.0235 -18.9145,10.6177 6e-4,0 -8.5592,13.0644 -11.41,18.1591 0,0 3.6448,4.1978 5.3357,5.4076 12.4364,-4.9711 22.8699,-13.9379 29.7122,-25.3219 1.1664,-2.0457 1.7206,-3.3395 1.7206,-3.3395 8e-4,9e-4 -2.749,-3.8273 -6.444,-5.523" /><path
         inkscape:connector-curvature="0"
         id="path64"
         style="fill:#f6f5e0;fill-opacity:1;fill-rule:evenodd;stroke:none"
         d="m 276.5959,331.4784 c -8.4449,0.1099 -20.5724,3.5747 -20.5724,3.5747 l 0.11,-2.9588 c 10.7501,-8.8421 24.429,-14.214 39.346,-14.462 v 4.3667 c -8.4484,0.6656 -18.8841,9.4788 -18.8836,9.4794" /><path
         inkscape:connector-curvature="0"
         id="path66"
         style="fill:#f6f5e0;fill-opacity:1;fill-rule:evenodd;stroke:none"
         d="m 339.1707,335.054 c 0,0 -12.1215,-3.4657 -20.5812,-3.5762 9e-4,6e-4 -10.3856,-8.7772 -18.8308,-9.4751 l 5e-4,-4.3699 c 14.8995,0.2659 28.5543,5.6288 39.2928,14.4607 z" /><path
         inkscape:connector-curvature="0"
         id="path68"
         style="fill:#1c1b4e;fill-opacity:1;fill-rule:evenodd;stroke:none"
         d="m 442.1024,374.6781 c -0.0658,2.3992 -0.3013,5.1012 -0.83,8.1564 -2.84,16.5886 -16.4234,25.5883 -16.4234,25.5883 -0.953,2.6082 0.8258,7.2638 1.2187,10.9959 l 0.0113,-6e-4 c 0.4983,2.6638 -0.4856,4.5168 -1.8414,6.0619 -0.7948,0.9335 -1.724,1.7572 -2.5534,2.5345 -2.2371,2.1645 -2.8205,4.5604 -1.7842,5.9797 1.0381,1.4147 5.5355,-3.0413 11.2028,-4.7826 4.8867,-1.503 7.2451,1.4238 7.2451,1.4238 -4.8628,-2.0908 -15.1271,6.8326 -7.9741,9.1395 7.5098,2.4196 7.1898,-5.9729 7.1898,-5.9729 2.6801,6.6532 -2.232,7.4027 -4.2602,8.8319 -2.0475,1.4332 -0.063,6.4128 4.8228,4.2327 4.8918,-2.1816 6.8891,-1.6308 6.8891,-1.6308 3.7372,0.1749 2.9066,0.2577 5.7421,0.5256 2.3582,0.2287 2.0999,-2.5101 2.0999,-2.5101 4.8266,7.6824 -6.5123,5.5227 -6.5123,5.5227 -4.3225,-0.0751 -3.1085,3.7545 -3.1085,3.7545 0.2421,1.7875 0.7495,2.3406 0.7495,2.3406 1.0573,1.8496 3.2355,-0.703 9.6129,1.5032 3.6595,1.2662 3.9262,3.3415 3.9262,3.3415 -10.8986,-5.0851 -10.4816,3.8021 -10.3986,4.6924 0.0859,0.8895 1.0837,2.1067 3.4353,2.96 2.3423,0.8611 4.9014,3.9169 4.9014,3.9169 1.1855,1.4389 2.1623,-1.0057 0.9644,-2.9945 -1.2008,-1.986 -1.499,-7.3902 3.4154,-6.9931 4.5998,0.3719 5.2059,8.5051 5.2796,10.3776 -0.1656,-1.9811 -1.8667,-8.8061 -4.7912,-7.8525 -3.1648,1.0338 -0.2639,4.9547 -0.2639,4.9547 2.1668,3.6802 2.183,6.6192 0.5003,8.6975 -1.6863,2.0815 -5.2832,1.8987 -7.2768,-0.3725 -1.9839,-2.2597 -3.111,-2.9656 -4.4268,-1.8887 -1.3065,1.0735 0.7608,2.5487 1.7118,2.6365 0.9422,0.0836 1.7067,3.03 1.91,4.2718 0.197,1.245 0.6296,2.217 1.7444,2.9807 1.1118,0.7625 3.5391,5.5423 5.6126,2.645 2.0911,-2.8914 2.3851,-5.5216 2.3851,-5.5216 1.4448,13.1646 -10.1526,9.602 -10.1526,9.602 3.0348,5.7881 -1.5621,8.6826 -1.5621,8.6826 0.9272,8.5867 -6.418,11.2535 -6.418,11.2535 1.5109,-0.8439 7.5317,-6.2158 4.7892,-8.9019 -2.7431,-2.6833 -7.308,0.197 -7.308,0.197 0.4697,5.3785 -2.3216,7.6272 -2.3216,7.6272 -3.9954,0.9119 -10.9296,-5.6801 -10.9296,-5.6801 10e-4,0 -2.4213,1.2592 -9.3761,-0.2432 -6.9596,-1.4973 -15.1554,-3.3982 -17.3699,-3.6808 -2.2209,-0.284 -5.6942,0.8963 -6.8972,0.6667 -1.215,-0.2282 -3.5243,-1.1455 -3.9016,-3.6672 -0.3836,-2.5245 -1.2487,-7.2584 1.87,-10.0187 3.1155,-2.7562 5.0102,-1.5786 6.6396,-1.2855 8e-4,5e-4 2.8689,1.2211 3.9376,0.7341 1.0828,-0.4881 9.4082,-4.2868 10.8896,-6.254 1.4799,-1.9715 0.3163,-2.8265 -2.3004,-4.3115 -2.6141,-1.4783 -8.4223,-4.4663 -12.8865,-5.8437 -4.4745,-1.3674 -9.4819,-2.1396 -11.1402,-3.9129 -0.005,-0.002 -0.0136,-0.009 -0.0173,-0.0179 -0.659,-0.5193 -1.2577,-1.1565 -1.7688,-1.9542 -0.7234,-1.1248 -1.6005,-1.881 -2.5336,-2.3204 -2.5971,3.4421 -4.8113,6.7949 -6.1529,8.536 -1.7005,2.2047 -3.1082,3.1521 -5.9922,2.2379 -0.8274,0.1587 -1.7906,0.0556 -3.0169,-0.371 -1.5675,-0.5565 -2.7946,-3.1706 -4.9289,-3.2341 -0.4847,-0.1335 -3.5557,-3.0733 -4.7262,-6.9313 -1.1795,-3.8517 -2.9148,-7.3683 -4.2505,-10.4799 -1.3351,-3.1113 -1.3241,-9.1494 -1.3241,-9.1494 -1.254,-3.2854 2.9413,-10.5682 2.9413,-10.5682 5e-4,0 1.112,0.7067 2.0452,1.4647 0.3719,-0.7276 0.6321,-1.1781 0.6321,-1.1781 8e-4,6e-4 2.3179,1.4582 3.071,2.4358 0.7472,0.9752 1.2436,2.009 3.0476,2.8883 1.7923,0.8676 2.8085,2.7671 2.7411,3.2745 -0.063,0.4998 -2.7292,2.8755 -2.7292,2.8755 -3.6573,4.6324 -2.5572,8.5706 -2.0373,10.8491 0.5258,2.2827 2.8415,8.2153 2.8415,8.2153 0.5278,0.944 1.2322,1.7175 1.9581,2.2371 0.0321,-0.0272 0.0751,-0.0348 0.1072,-0.0802 2.2379,-2.3907 2.95,-6.2552 3.8951,-11.0738 0.1814,-3.3225 1.2724,-8.6142 3.4387,-12.0733 2.3635,-3.7645 1.1205,-9.1735 1.1205,-9.1735 -4.8691,-24.1299 14.5151,-37.855 20.1475,-45.6356 5.6279,-7.7768 -0.1298,-11.2237 -5.159,-20.0332 -4.7197,-8.2585 2.5384,-22.032 5.127,-28.857 0.6905,-2.5988 1.4085,-5.2852 1.8961,-6.8417 1.4771,-4.7189 2.0251,-5.2155 0.773,-7.6451 -1.2461,-2.4253 -15.4834,-9.2562 -19.4791,-11.1367 -4.0122,-1.8734 -5.8771,-5.0505 -5.8771,-5.0505 -5.2651,-5.2107 -5.8257,-15.4894 -5.8257,-15.4894 4.6488,3.4351 10.3328,4.4476 10.3328,4.4476 2.2694,2.1841 1.3731,7.7462 1.3731,7.7462 2.592,0.7081 7.6981,6.0735 13.1788,9.421 5.4842,3.3477 14.2748,3.52 16.5637,3.8154 2.3071,0.2889 2.6799,1.4729 1.9418,5.5383 -0.4485,2.412 -0.2217,8.6616 0.0371,12.4135 2.4644,-3.4197 3.6136,-8.1351 6.4755,-12.5339 4.68,-7.2114 4.831,-12.0314 4.6794,-15.4568 -0.167,-3.4285 -4.3296,-16.8324 -5.131,-19.3654 -0.8033,-2.541 -4.9354,-4.8345 -4.9354,-4.8345 -4.8594,-1.7666 -6.2966,-7.0756 -6.2966,-7.0756 1.3269,-1.5854 9.6755,-0.2749 9.6755,-0.2749 1.4216,-0.262 3.4699,1.2685 3.4699,1.2685 0.4045,3.5725 2.6773,6.9749 6.118,9.9782 3.4594,2.9979 0.7072,8.4968 1.4026,16.9985 0.7044,8.5065 3.3344,10.6926 4.5323,12.189 1.1931,1.5072 1.7461,3.899 -0.3039,6.0069 -2.0503,2.1203 -4.413,5.1755 -6.4003,12.7156 -1.9698,7.5445 3.7922,7.687 4.2712,10.8043 0.4856,3.1283 9.5859,3.5555 11.1597,14.3271 0,0 0.9326,1.6861 1.5897,5.1316 1.6756,0.0425 2.4562,-0.8286 2.2652,-5.2254 -0.2084,-4.896 0.8645,-6.0417 2.1866,-6.6691 1.3212,-0.6244 2.9157,-0.7735 5.4145,-2.2926 2.4996,-1.5276 0.1896,-5.5698 -1.4474,-6.9304 -1.6316,-1.3629 -4.3869,-1.0316 -6.4695,-3.0875 -2.0821,-2.0656 1.1803,-5.7048 2.609,-7.4294 1.4358,-1.7158 1.0738,-2.3881 0.3438,-3.7286 -0.7222,-1.342 -2.8519,-2.3851 -2.6909,-5.6115 0.2874,-5.9916 5.7189,-6.9954 9.9904,-7.4336 3.3761,-0.3501 3.574,-2.56 3.5164,-3.4716 0.7523,5.4533 -2.772,6.5469 -4.2111,6.9081 -1.4772,0.3855 -4.9731,0.1615 -5.3022,3.0064 -0.4541,3.8508 2.8425,5.0831 4.1901,5.5394 1.3541,0.4456 2.439,1.2164 1.3697,3.1975 -1.0709,1.978 -0.513,3.009 0.2041,3.5873 0.7053,0.5831 0.8476,0.1097 0.8476,0.1097 0,0 0.4425,0.5629 0.4745,2.1336 0.0295,1.561 1.2526,2.467 2.4273,2.4432 1.1685,-0.0173 2.1801,-0.8172 2.6343,0.3696 8e-4,0 -0.6126,4.1188 2.1566,4.5128 3.7695,0.532 1.0629,-3.5995 1.0629,-3.5995 9e-4,0 2.8443,1.1345 1.3505,3.6448 -2.0705,3.4682 -1.9021,6.0599 -0.4711,7.1003 1.4314,1.0278 3.7252,1.8053 4.6417,5.8291 0.9139,4.0334 -3.4552,4.7415 -4.7948,6.9449 -1.332,2.2045 2.4709,3.6448 2.4709,3.6448 -2.5846,3.8018 -7.9829,2.0809 -10.364,1.0669 -2.3893,-1.0017 -6.3536,-0.2783 -4.8546,1.9849 1.4828,2.2651 4.7971,1.5188 4.7971,1.5188 -3.35,3.3077 -7.759,1.4689 -10.2121,0.5026 -1.6779,-0.6605 -2.4602,-1.6354 -3.5416,-2.0523 z" /><path
         inkscape:connector-curvature="0"
         id="path70"
         style="fill:#1c1b4e;fill-opacity:1;fill-rule:evenodd;stroke:none"
         d="m 153.792,366.1673 c 0.6565,-3.4449 1.5885,-5.131 1.5885,-5.131 1.575,-10.7708 10.675,-11.1988 11.1598,-14.3271 0.4767,-3.1167 6.2435,-3.2598 4.2695,-10.8043 -1.9794,-7.5395 -4.3444,-10.5961 -6.3969,-12.7156 -2.0535,-2.1079 -1.4948,-4.4997 -0.2997,-6.0069 1.1928,-1.4958 3.8228,-3.6831 4.5284,-12.189 0.6919,-8.5017 -2.0515,-14.0006 1.4,-16.9985 3.4398,-3.0027 5.7147,-6.4066 6.1141,-9.9782 0,5e-4 2.0588,-1.5305 3.4783,-1.2685 0,8e-4 8.3452,-1.3113 9.675,0.2749 0,9e-4 -1.44,5.3085 -6.3017,7.0756 0,0 -4.1281,2.2935 -4.9295,4.8345 -0.8036,2.533 -4.9697,15.9363 -5.127,19.3654 -0.1627,3.4254 -0.005,8.2449 4.6772,15.4568 2.8581,4.3993 4.0073,9.1142 6.4686,12.5339 0.2662,-3.7519 0.4862,-10.0015 0.046,-12.4135 -0.745,-4.0648 -0.3703,-5.2503 1.9335,-5.5383 2.2938,-0.2954 11.0854,-0.4677 16.5602,-3.8154 5.4868,-3.3475 10.5988,-8.7137 13.184,-9.421 0,0 -0.8946,-5.5621 1.3728,-7.7462 0,8e-4 5.6852,-1.0134 10.3309,-4.4476 0,0 -0.5599,10.2787 -5.8218,15.4894 0,0 -1.8672,3.1762 -5.8745,5.0505 -4.0009,1.8811 -18.2362,8.7114 -19.482,11.1367 -1.2467,2.4296 -0.7064,2.9254 0.773,7.6451 0.4847,1.5565 1.2067,4.2429 1.8919,6.8417 2.5905,6.825 9.8506,20.5985 5.1295,28.857 -5.0309,8.81 -10.7821,12.2564 -5.1585,20.0332 5.6345,7.7814 25.0181,21.5048 20.1453,45.6356 0,5e-4 -1.237,5.4085 1.1214,9.1735 2.1691,3.4591 3.2604,8.7508 3.4429,12.0733 0.9451,4.8194 1.6543,8.6831 3.8965,11.0738 0.0239,0.0462 0.0718,0.0519 0.1018,0.0802 0.7285,-0.5196 1.4321,-1.2937 1.9607,-2.2371 0,6e-4 2.3151,-5.9335 2.8378,-8.2153 0.5207,-2.2785 1.6237,-6.2167 -2.0344,-10.8491 0,6e-4 -2.6649,-2.3766 -2.7326,-2.8755 -0.0644,-0.5065 0.9538,-2.4069 2.7439,-3.2745 1.8057,-0.8793 2.3009,-1.9137 3.0484,-2.8883 0.7515,-0.9776 3.0685,-2.4358 3.0685,-2.4358 0,6e-4 0.2648,0.4505 0.633,1.1781 0.9354,-0.758 2.0452,-1.4647 2.0452,-1.4647 0,0 4.1947,7.282 2.9398,10.5682 0,5e-4 0.0136,6.0372 -1.3218,9.1494 -1.3397,3.1116 -3.0736,6.6274 -4.2503,10.4799 -1.1744,3.8588 -4.2434,6.7969 -4.7268,6.9313 -2.137,0.0635 -3.361,2.677 -4.9294,3.2341 -1.2251,0.4266 -2.1886,0.5292 -3.0095,0.371 -2.892,0.9147 -4.3002,-0.0332 -5.9973,-2.2379 -1.3385,-1.7411 -3.5561,-5.0945 -6.156,-8.536 -0.9326,0.4394 -1.8091,1.1956 -2.5305,2.3204 -0.5114,0.7977 -1.1092,1.4349 -1.7711,1.9542 -0.007,0.009 -0.007,0.0156 -0.0161,0.0179 -1.6583,1.7733 -6.6654,2.5449 -11.1393,3.9129 -4.4674,1.3782 -10.2728,4.3654 -12.8931,5.8437 -2.6119,1.4859 -3.771,2.3394 -2.2885,4.3115 1.4718,1.968 9.8056,5.7659 10.8811,6.254 1.0738,0.487 3.9382,-0.7341 3.9382,-0.7341 1.6316,-0.2926 3.5283,-1.4715 6.6399,1.2855 3.1206,2.7612 2.2561,7.4942 1.87,10.0187 -0.3739,2.5223 -2.6799,3.439 -3.8977,3.6672 -1.2109,0.2296 -4.6794,-0.9516 -6.8984,-0.6667 -2.2175,0.2835 -10.4144,2.1835 -17.3766,3.6808 -6.956,1.5024 -9.3671,0.2432 -9.3671,0.2432 0,0 -6.9375,6.592 -10.9344,5.6801 0,0 -2.7932,-2.2496 -2.3215,-7.6272 0,0 -4.5627,-2.8809 -7.31,-0.197 -2.7423,2.6861 3.278,8.058 4.7951,8.9019 0,0 -7.3435,-2.6668 -6.4202,-11.2535 0,5e-4 -4.5944,-2.8951 -1.565,-8.6826 0,6e-4 -11.5949,3.5618 -10.1478,-9.602 0,0 0.292,2.6297 2.3811,5.5216 2.0798,2.8978 4.5063,-1.8834 5.6152,-2.645 1.1117,-0.7637 1.548,-1.7363 1.7433,-2.9807 0.2055,-1.2418 0.9689,-4.1882 1.9134,-4.2718 0.9453,-0.0878 3.0132,-1.563 1.7067,-2.6365 -1.3116,-1.0763 -2.4384,-0.371 -4.4271,1.8887 -1.9832,2.272 -5.5917,2.4531 -7.2729,0.3725 -1.6821,-2.0783 -1.6673,-5.0182 0.489,-8.6975 0,0 2.9143,-3.9218 -0.2506,-4.9547 -2.9296,-0.953 -4.6312,5.8714 -4.7976,7.8525 0.0807,-1.8725 0.6766,-10.0065 5.2806,-10.3776 4.9161,-0.3971 4.6154,5.0071 3.4155,6.9931 -1.196,1.9896 -0.2234,4.4334 0.966,2.9945 0,6e-4 2.5577,-3.0558 4.904,-3.9169 2.3493,-0.8527 3.3471,-2.0705 3.4327,-2.96 0.0808,-0.8895 0.5032,-9.7775 -10.3977,-4.6924 0,0 0.2681,-2.0761 3.9313,-3.3415 6.3723,-2.2062 8.5471,0.3458 9.6095,-1.5032 0,5e-4 0.5082,-0.5536 0.7466,-2.3406 0,0 1.2113,-3.8296 -3.1045,-3.7545 0,0 -11.3442,2.1592 -6.514,-5.5227 0,5e-4 -0.2625,2.7382 2.0957,2.5101 2.8423,-0.2679 2.0015,-0.3515 5.7461,-0.5256 0,6e-4 1.9922,-0.5516 6.8859,1.6308 4.8835,2.1801 6.8717,-2.8001 4.8288,-4.2327 -2.0358,-1.4284 -6.9443,-2.1787 -4.2681,-8.8319 0,8e-4 -0.3164,8.3925 7.1909,5.9729 7.1527,-2.3063 -3.1008,-11.2312 -7.9787,-9.1395 0,0 2.3675,-2.9268 7.2496,-1.4238 5.6699,1.7418 10.1682,6.1973 11.2017,4.7826 1.0409,-1.4193 0.4547,-3.8152 -1.783,-5.9797 -0.8331,-0.7773 -1.7572,-1.601 -2.5537,-2.5345 -1.3572,-1.5451 -2.3298,-3.3981 -1.8434,-6.0619 l 0.0102,6e-4 c 0.4031,-3.7321 2.1779,-8.3877 1.2184,-10.9959 0,0 -13.5755,-9.0002 -16.4197,-25.5883 -0.5259,-3.0543 -0.7597,-5.7572 -0.8283,-8.1564 l 0.0193,-1.9953 c -1.0826,0.4178 -1.8658,1.3912 -3.5416,2.0506 -2.4514,0.9663 -6.8647,2.8051 -10.2133,-0.5026 0,0 3.3166,0.7463 4.8084,-1.5188 1.4925,-2.2626 -2.4791,-2.9875 -4.8625,-1.9849 -2.3803,1.0146 -7.7723,2.7343 -10.3675,-1.0669 0,0 3.8061,-1.4409 2.4704,-3.6448 -1.3379,-2.2034 -5.7075,-2.912 -4.7945,-6.9449 0.9165,-4.0232 3.2117,-4.8013 4.6429,-5.8291 1.4298,-1.0398 1.6004,-3.6329 -0.4632,-7.1003 -1.5032,-2.5103 1.3402,-3.6448 1.3402,-3.6448 0,0 -2.7017,4.1315 1.0667,3.5995 2.7635,-0.3935 2.1577,-4.5128 2.1577,-4.5128 0.4593,-1.1868 1.4647,-0.3875 2.6385,-0.3696 1.1733,0.0238 2.3945,-0.8822 2.4245,-2.4432 0.0275,-1.5707 0.4708,-2.1336 0.4708,-2.1336 0,0 0.1452,0.4734 0.853,-0.1097 0.7169,-0.5775 1.2671,-1.6093 0.1961,-3.5873 -1.0635,-1.9811 0.0199,-2.7527 1.3714,-3.1975 1.3468,-0.4555 4.6503,-1.6891 4.1942,-5.5394 -0.3354,-2.8449 -3.8259,-2.6218 -5.3045,-3.0064 -1.4391,-0.3606 -4.9683,-1.4554 -4.2055,-6.9081 -0.0672,0.9116 0.1392,3.1215 3.5093,3.4716 4.2772,0.4388 9.7058,1.4411 9.9961,7.4336 0.1576,3.2264 -1.9715,4.2687 -2.7006,5.6115 -0.7276,1.3405 -1.0899,2.0128 0.3479,3.7286 1.4323,1.7255 4.6933,5.3632 2.6121,7.4294 -2.088,2.0568 -4.8345,1.7246 -6.4701,3.0875 -1.633,1.3614 -3.9501,5.4019 -1.4539,6.9304 2.5056,1.5191 4.0986,1.6673 5.4182,2.2926 1.326,0.6274 2.3975,1.7723 2.1858,6.6691 -0.1877,4.3988 0.5932,5.2688 2.2671,5.2248" /><path
         inkscape:connector-curvature="0"
         id="path72"
         style="fill:#ffffff;fill-opacity:1;fill-rule:nonzero;stroke:none"
         d="m 233.034,310.3189 -2.2595,-2.143 -3.6715,3.8715 -0.8025,0.8465 -0.2939,0.3101 -0.2347,0.2477 -0.1959,0.2064 -0.1568,0.1652 -0.1298,0.137 -0.1074,0.1133 -0.0859,0.0905 c -0.0952,0.1003 -0.1772,0.1992 -0.2483,0.2936 -0.0715,0.0939 -0.1259,0.1894 -0.1551,0.2843 -0.1445,0.1523 -0.2758,0.3221 -0.3948,0.5177 -0.1171,0.193 -0.2725,0.477 -0.4635,0.8495 -0.7736,1.4627 -0.7688,3.0804 0.0127,4.8555 0.2963,0.6633 0.6962,1.332 1.1906,2.0015 0.498,0.6735 1.0865,1.3337 1.7734,1.9851 2.4049,2.281 4.5861,3.4226 6.5454,3.4231 1.6696,-0.005 3.2576,-0.7985 4.7577,-2.3805 0.9935,-1.048 1.6398,-2.1609 1.9335,-3.3384 0.0924,-0.358 0.1491,-0.7211 0.1664,-1.082 0.021,-0.358 -0.003,-0.7194 -0.0658,-1.072 -0.123,-0.7002 -0.411,-1.4485 -0.8691,-2.2459 -0.7171,-1.2538 -1.5981,-2.3783 -2.6523,-3.3778 -1.6073,-1.5244 -3.3616,-2.4573 -5.262,-2.7989 z m 2.9704,13.64 c -0.8589,0.9057 -1.8332,1.2611 -2.9225,1.0664 -1.0894,-0.195 -2.3293,-0.9539 -3.7219,-2.2742 -1.1994,-1.1376 -2.0313,-2.2006 -2.5033,-3.1921 -0.6171,-1.321 -0.3929,-2.5396 0.667,-3.657 0.9932,-1.0477 2.1333,-1.3496 3.418,-0.9108 0.9893,0.345 2.1328,1.1356 3.4401,2.3749 1.1739,1.1137 1.961,2.2175 2.3542,3.3114 0.4317,1.2178 0.1862,2.3134 -0.7316,3.2814 z m -1.3184,-18.6585 14.9581,10.7963 2.8384,-2.0293 -5.3774,-17.6448 -2.8907,2.0664 1.2424,4.0984 -4.4017,3.1459 -3.4783,-2.4991 z m 13.9549,6.3661 -5.216,-3.7988 3.2987,-2.3578 z m 9.2084,-12.8537 -2.7507,-6.0514 -2.7584,1.254 7.2337,15.9146 6.3176,-2.8715 c 1.8068,-0.8212 2.9477,-1.6801 3.4151,-2.5779 0.3096,-0.5814 0.4564,-1.2569 0.4428,-2.0168 -0.0156,-0.7645 -0.193,-1.5171 -0.5329,-2.2641 -0.6877,-1.5125 -1.529,-2.5387 -2.5242,-3.0682 -0.5922,-0.3058 -1.2768,-0.4546 -2.0574,-0.4444 0.2052,-0.2186 0.377,-0.4258 0.5173,-0.6234 0.1403,-0.1981 0.2432,-0.3934 0.3166,-0.5851 0.1389,-0.3554 0.2064,-0.8265 0.2027,-1.4187 -0.0159,-0.4048 -0.0723,-0.8206 -0.165,-1.2478 -0.055,-0.2339 -0.1247,-0.4992 -0.2134,-0.7798 -0.0871,-0.2863 -0.1936,-0.5729 -0.324,-0.8589 -0.2362,-0.5199 -0.4261,-1.023 -0.5587,-1.5041 -0.0987,-0.3294 -0.1721,-0.6789 -0.2226,-1.0394 l -3.0892,1.4042 c 0.0763,0.4159 0.3065,1.1639 0.692,2.2439 0.3906,1.0823 0.593,1.9058 0.6038,2.4713 0.0343,0.5734 -0.0902,1.0996 -0.37,1.5763 -0.3438,0.5494 -0.9955,1.0418 -1.957,1.4792 z m 1.2889,2.8349 3.8597,-1.7544 c 0.6383,-0.29 1.1469,-0.3821 1.5315,-0.2741 0.5703,0.1619 1.0542,0.6851 1.4511,1.5582 0.4388,0.9652 0.4127,1.7243 -0.0777,2.287 -0.1692,0.1874 -0.5003,0.3957 -0.9989,0.6219 l -3.86,1.7547 z m 9.9006,-14.3793 9.6894,15.6974 3.3993,-0.7889 1.7821,-18.3597 -3.4614,0.8036 -0.4201,4.2616 -5.2701,1.2229 -2.2578,-3.6403 z m 10.4581,11.2204 -3.3661,-5.5049 3.9498,-0.917 z m 10.3014,-14.9032 0.4445,17.4756 8.0322,-0.2041 c 1.262,-0.0323 2.1716,-0.2299 2.7315,-0.5933 0.6511,-0.4266 1.135,-1.1154 1.4598,-2.0704 0.2248,-0.6557 0.3288,-1.3306 0.311,-2.0322 -0.023,-0.8937 -0.2364,-1.7263 -0.6438,-2.5013 -0.4039,-0.7747 -0.9121,-1.3076 -1.5241,-1.5973 1.3566,-0.807 2.0077,-2.1977 1.9576,-4.1683 -0.0287,-1.1291 -0.2699,-2.0832 -0.7274,-2.8571 -0.394,-0.6576 -0.8963,-1.1029 -1.5035,-1.3405 -0.6112,-0.237 -1.5029,-0.341 -2.6765,-0.3115 z m 3.2913,10.2302 4.121,-0.1046 c 0.4232,-0.0107 0.7333,0.007 0.9303,0.055 0.2002,0.0426 0.3952,0.1557 0.588,0.3252 0.4552,0.407 0.6905,0.9771 0.7089,1.7053 0.0176,0.6888 -0.1758,1.2132 -0.5828,1.5724 -0.2996,0.248 -0.7946,0.3781 -1.4803,0.3957 l -4.1819,0.106 z m -0.1828,-7.1943 4.121,-0.1049 c 0.4229,-0.0107 0.7367,0.007 0.9408,0.0547 0.2075,0.0428 0.3985,0.1557 0.5774,0.33 0.4553,0.4073 0.6903,0.9813 0.7092,1.7186 0.0173,0.6886 -0.1754,1.2172 -0.5825,1.5812 -0.2996,0.2475 -0.7942,0.3776 -1.4805,0.3952 l -4.182,0.1065 z m 14.2976,-3.2459 2.7091,18.2471 3.4342,0.6163 8.8826,-16.1666 -3.4974,-0.6275 -2.0678,3.7499 -5.3249,-0.9558 -0.6381,-4.2359 z m 5.1818,14.4365 -0.9207,-6.3867 3.9909,0.7163 z m 15.8173,1.0647 6.5069,2.5798 3.8293,-9.6579 -5.9082,-2.3428 c -1.0551,-0.4179 -1.912,-0.65 -2.5758,-0.6925 -0.6608,-0.042 -1.3269,0.0742 -1.9945,0.3396 -1.908,0.7588 -3.5011,2.7504 -4.7792,5.9737 -0.8345,2.1042 -1.1965,3.9832 -1.0933,5.6426 0.081,1.205 0.4529,2.2159 1.1165,3.0232 0.6614,0.8113 1.6659,1.4817 3.0184,2.0177 l 5.7727,2.2892 1.148,-2.895 -5.4589,-2.1645 c -1.1736,-0.4655 -1.9052,-1.1208 -2.1912,-1.9715 -0.3291,-0.9938 -0.1145,-2.4523 0.6508,-4.3824 0.3955,-0.9975 0.83,-1.8618 1.3023,-2.5801 0.4742,-0.7222 0.9354,-1.2293 1.387,-1.5193 0.3926,-0.2571 0.843,-0.379 1.3518,-0.37 0.5091,0.01 1.0879,0.1409 1.7428,0.4006 l 2.5463,1.0094 -1.5341,3.8684 -3.6899,-1.4632 z m 24.9114,13.445 1.6869,-2.6175 -7.1152,-4.5864 3.9129,-6.071 -2.5472,-1.6415 -4.9479,7.6765 c -0.7066,1.0964 -1.2478,2.0341 -1.6217,2.8048 -0.3764,0.775 -0.5978,1.4001 -0.6636,1.8766 -0.2154,1.2002 -0.0683,2.26 0.4363,3.1768 0.504,0.9113 1.4581,1.8218 2.857,2.7238 l 4.1318,2.6631 1.6872,-2.6178 -3.8027,-2.4508 c -0.5652,-0.3645 -1.0244,-0.7021 -1.3734,-1.0148 -0.3512,-0.3147 -0.5785,-0.5859 -0.6786,-0.811 -0.2253,-0.3793 -0.3047,-0.8144 -0.2387,-1.311 0.0672,-0.4916 0.2846,-1.0256 0.6557,-1.6013 l 0.506,-0.7849 z m 0.5531,10.0585 12.0968,-12.6201 -2.1878,-2.0968 -12.0968,12.6198 z m 6.0344,-6.1722 -2.0339,10.0069 2.876,2.7564 1.6847,-10.3416 10.2092,-2.4727 -2.8837,-2.7641 z" /><path
         inkscape:connector-curvature="0"
         id="path74"
         style="fill:#ffffff;fill-opacity:1;fill-rule:nonzero;stroke:none"
         d="m 278.4892,467.6564 -2.4511,-0.5686 -2.4565,10.5846 -2.0427,-3.4623 -1.0029,3.2522 2.2201,3.7642 2.4517,0.5694 z m 12.871,7.9498 -3.9603,-0.3022 c -0.8921,-0.0683 -1.5622,-0.0652 -2.0064,0.006 -0.4458,0.0712 -0.8271,0.2531 -1.1426,0.5411 -0.824,0.7078 -1.2898,1.7609 -1.3963,3.155 -0.1245,1.6282 0.36,2.9219 1.4561,3.8857 0.6837,0.5899 1.7705,0.9411 3.2613,1.0556 1.057,0.0808 1.9193,0.0335 2.5903,-0.1434 0.6712,-0.1737 1.2628,-0.5173 1.7753,-1.023 0.6262,-0.6353 1.1313,-1.5044 1.5095,-2.613 0.3373,-1.0125 0.547,-2.0463 0.6278,-3.1045 0.1231,-1.6103 -0.0363,-3.0858 -0.4816,-4.4354 -0.4413,-1.3484 -1.2081,-2.2495 -2.2955,-2.7107 -0.5992,-0.2529 -1.4958,-0.423 -2.6943,-0.5142 l -4.3466,-0.3325 -0.1951,2.5562 3.598,0.275 c 1.5996,0.1227 2.6068,0.3884 3.0198,0.7977 0.2585,0.2633 0.4476,0.6551 0.5706,1.1732 0.1239,0.5151 0.1593,1.0948 0.11,1.7337 z m -0.195,2.5566 c -0.0808,1.0621 -0.3152,1.883 -0.7002,2.4602 -0.2492,0.3843 -0.5766,0.6457 -0.9779,0.7784 -0.4014,0.1366 -0.9729,0.1768 -1.7156,0.1196 -0.8504,-0.0652 -1.4187,-0.2279 -1.7008,-0.4893 -0.3733,-0.3478 -0.5323,-0.8617 -0.4804,-1.544 0.0465,-0.6069 0.2738,-1.0616 0.6791,-1.3686 0.2645,-0.2012 0.7138,-0.2755 1.353,-0.227 z m 10.6052,-1.114 c -0.5972,0.5176 -1.0128,1.0578 -1.2393,1.6129 -0.2302,0.555 -0.3152,1.2262 -0.2551,2.0174 0.1312,1.7039 0.8546,2.8037 2.1719,3.2989 0.555,0.2047 1.6951,0.2413 3.424,0.1086 0.5564,-0.0422 1.0596,-0.0884 1.5035,-0.1363 0.4456,-0.053 0.8453,-0.0981 1.2004,-0.1358 0.2447,-0.0187 0.4601,-0.061 0.6565,-0.1301 0.1934,-0.0695 0.3881,-0.1605 0.584,-0.2733 0.6262,-0.3679 1.082,-0.9575 1.3657,-1.7753 0.2067,-0.6259 0.2838,-1.2892 0.2299,-1.9865 -0.1176,-1.5458 -0.8062,-2.6079 -2.0676,-3.1831 0.5051,-0.4016 0.8552,-0.7775 1.0537,-1.1344 0.358,-0.659 0.5028,-1.4366 0.4345,-2.3318 -0.0811,-1.0584 -0.4833,-1.9828 -1.2104,-2.77 -0.3523,-0.3946 -0.8492,-0.6508 -1.4893,-0.7685 -0.2971,-0.0504 -0.6868,-0.079 -1.1699,-0.0816 -0.4833,-0.007 -1.036,0.0145 -1.6571,0.0615 -0.3736,0.0289 -0.671,0.0547 -0.8975,0.0791 -0.8926,0.0981 -1.3663,0.148 -1.4187,0.1522 -0.5329,0.0408 -1.0003,0.1678 -1.3958,0.379 -0.3985,0.2126 -0.7344,0.4998 -1.0159,0.8583 -0.6341,0.8448 -0.9105,1.8029 -0.8286,2.8752 0.0666,0.8737 0.3252,1.6132 0.777,2.2179 0.2449,0.3378 0.6593,0.6834 1.2441,1.0457 z m 4.1746,4.5912 c -1.0156,0.0774 -1.6838,0.0641 -1.999,-0.0394 -0.5652,-0.1896 -0.8807,-0.7066 -0.9448,-1.548 -0.0708,-0.9243 0.1809,-1.506 0.7543,-1.7572 0.0888,-0.036 0.2954,-0.081 0.618,-0.1312 0.3186,-0.0527 0.7531,-0.1006 1.3042,-0.1434 0.3146,-0.0241 0.6276,-0.0443 0.9315,-0.0599 0.3007,-0.0158 0.5343,-0.0189 0.695,-0.01 0.1599,0.006 0.3167,0.0377 0.4717,0.0913 0.5097,0.193 0.7943,0.6987 0.8564,1.514 0.0705,0.9215 -0.2152,1.5208 -0.8553,1.7952 -0.2803,0.1193 -0.8926,0.2165 -1.832,0.2885 z m -0.4822,-5.9995 c -1.0366,0.0794 -1.7039,0.0575 -2.0041,-0.0612 -0.5485,-0.2044 -0.856,-0.7373 -0.9221,-1.6005 -0.0728,-0.953 0.1712,-1.5565 0.7294,-1.8133 0.0921,-0.0366 0.2965,-0.0774 0.6174,-0.1312 0.3192,-0.053 0.7512,-0.1009 1.2929,-0.1423 0.312,-0.0244 0.6156,-0.0434 0.9136,-0.0587 0.295,-0.0156 0.5286,-0.019 0.6987,-0.01 0.1689,0.009 0.32,0.0408 0.4578,0.1026 0.5037,0.1944 0.7869,0.7248 0.8532,1.584 0.0717,0.9391 -0.2072,1.5559 -0.8339,1.8434 -0.2781,0.1196 -0.8808,0.2165 -1.8029,0.2871 z m 23.5985,3.7151 -0.7073,-2.4761 -10.1744,-9.5116 -2.9531,0.843 10.4187,9.4538 -7.1963,2.0551 0.7044,2.4653 z" /><path
         inkscape:connector-curvature="0"
         id="path76"
         style="fill:#ffffff;fill-opacity:1;fill-rule:nonzero;stroke:none"
         d="m 322.9826,308.5951 1.5089,0.512 c 0.4533,-0.749 1.0987,-0.9805 1.9406,-0.6951 0.8156,0.2764 1.1838,0.8524 1.097,1.7263 l 1.5092,0.5125 c 0.186,-0.7157 0.2174,-1.3496 0.0984,-1.906 -0.2319,-1.0874 -0.9298,-1.8306 -2.0951,-2.2266 -0.8762,-0.2971 -1.6756,-0.2648 -2.3979,0.0929 -0.3733,0.1917 -0.7004,0.4488 -0.9884,0.775 -0.2871,0.326 -0.5099,0.7294 -0.6727,1.209" /></g></g></svg>