<?xml version="1.0" encoding="UTF-8" standalone="no"?>
<svg
   xmlns:dc="http://purl.org/dc/elements/1.1/"
   xmlns:cc="http://creativecommons.org/ns#"
   xmlns:rdf="http://www.w3.org/1999/02/22-rdf-syntax-ns#"
   xmlns:svg="http://www.w3.org/2000/svg"
   xmlns="http://www.w3.org/2000/svg"
   version="1.1"
   id="svg2"
   viewBox="0 0 350 179.04688"
   height="179.04688"
   width="350">
  <defs
     id="defs4">
    <clipPath
       clipPathUnits="userSpaceOnUse"
       id="clipPath3350">
      <path
         d="M 0,512 512,512 512,0 0,0 0,512 Z"
         id="path3352" />
    </clipPath>
  </defs>
  <metadata
     id="metadata7">
    <rdf:RDF>
      <cc:Work
         rdf:about="">
        <dc:format>image/svg+xml</dc:format>
        <dc:type
           rdf:resource="http://purl.org/dc/dcmitype/StillImage" />
        <dc:title></dc:title>
      </cc:Work>
    </rdf:RDF>
  </metadata>
  <g
     transform="translate(-149.25084,-91.694207)"
     id="layer1">
    <g
       id="g3344"
       transform="matrix(0.7526741,0,0,-0.7526741,131.56627,373.90221)">
      <g
         id="g3346">
        <g
           id="g3348"
           clip-path="url(#clipPath3350)">
          <g
             id="g3354"
             transform="translate(368.012,374.9405)">
            <path
               d="m 0,0 0,-70.935 c 2.969,-1.32 6.929,-3.3 9.898,-4.619 l 0,0.989 c 0,10.888 3.299,9.568 10.558,12.868 1.979,0.66 2.309,4.289 5.279,4.619 3.629,0.33 11.547,-0.99 14.847,-2.64 1.979,-0.989 2.309,-2.309 3.299,-4.289 0.66,-1.979 4.289,-3.299 5.279,-5.609 1.65,-4.619 0,-10.887 -4.949,-12.537 -1.65,-0.66 -9.238,-0.33 -9.238,-0.33 l 0,-5.279 0,-1.979 c 0,0 1.649,-0.66 2.309,-0.66 12.538,-3.3 81.493,-24.085 83.143,-27.715 0.33,-0.989 -0.66,-0.989 -0.66,-0.989 -1.649,-0.33 -45.2,9.898 -53.119,11.217 -9.238,1.65 -16.496,3.3 -28.374,4.949 l 0,-0.66 c 0,-3.629 -0.66,-3.629 -3.959,-4.949 l 0,-0.659 c 3.959,-0.66 16.497,-2.64 19.136,-4.62 2.969,-1.979 9.898,0.33 14.847,-6.268 1.32,-1.65 1.32,-8.908 0,-10.888 -1.98,-2.969 -4.289,-1.65 -6.929,-1.98 -1.649,-0.33 -2.639,-1.979 -3.959,-2.639 -1.32,-0.66 -3.299,-0.33 -4.949,-0.66 -3.629,0 -4.949,3.299 -7.588,4.949 -1.32,0.99 -2.64,0.33 -4.289,0.66 -1.98,0.66 -3.63,2.969 -5.279,3.959 -0.99,0.66 -3.63,0.33 -4.619,-0.33 -6.599,-3.959 -23.755,0 -30.684,4.289 l 0.33,-42.891 c 0,0 0,-7.258 -4.289,-14.517 -21.116,-36.292 -65.657,-57.738 -107.558,-57.738 l -0.66,0 c -41.901,0 -86.442,20.786 -107.558,57.078 -4.619,7.259 -4.619,15.177 -4.619,15.177 l 0.33,42.891 c -6.599,-4.289 -24.085,-8.248 -30.684,-4.289 -0.989,0.66 -3.629,0.66 -4.619,0.33 -1.979,-0.99 -3.299,-3.299 -5.279,-3.959 -1.319,-0.33 -2.969,0.33 -4.289,-0.66 -2.639,-1.65 -3.959,-5.279 -7.588,-4.949 -1.65,0 -3.629,-0.33 -4.949,0.66 -1.32,0.66 -2.31,2.309 -3.959,2.639 -2.97,0.33 -4.949,-0.989 -6.929,1.98 -1.32,1.65 -1.32,8.908 0,10.888 4.949,6.598 11.878,4.289 14.847,6.268 2.64,1.98 15.177,3.63 19.136,4.62 l 0,0.659 c -3.299,0.99 -3.959,0.99 -3.959,4.949 l 0,0.66 c -11.878,-1.649 -19.136,-3.299 -28.374,-4.949 -8.248,-1.649 -51.47,-11.547 -53.119,-11.217 0,0 -0.99,0.329 -0.66,0.989 1.65,3.96 70.605,24.415 83.143,27.715 0.66,0.33 2.309,0.66 2.309,0.66 l 0,1.979 0,5.279 c 0,0 -7.588,-0.33 -9.238,0.33 -4.619,1.98 -6.598,8.248 -4.949,12.537 0.99,2.31 4.619,3.96 5.279,5.609 0.66,1.98 1.32,3.3 3.299,4.289 3.3,1.65 11.218,2.97 14.847,2.64 2.97,-0.33 3.63,-3.629 5.279,-4.619 7.259,-3.3 10.558,-1.65 10.558,-12.868 l 0,-0.989 c 2.97,1.319 6.929,3.299 9.898,4.619 L -224.024,0 0,0 Z"
               style="fill:#ffffff;fill-opacity:1;fill-rule:nonzero;stroke:none"
               id="path3356" />
          </g>
          <g
             id="g3358"
             transform="translate(304.0051,195.1275)">
            <path
               d="m 0,0 3.959,-6.269 -2.639,-1.979 -8.908,28.044 -2.31,3.299 -9.898,-6.268 6.269,-9.898 3.629,2.309 -3.959,6.269 2.639,1.649 8.909,-28.044 L 0,-14.187 9.898,-7.918 3.629,1.98 0,0 Z m 34.973,27.384 -12.538,7.919 -2.969,-4.949 3.629,-2.31 0.99,1.32 10.228,-6.599 -1.65,-2.639 -24.745,15.177 1.65,2.639 4.949,-2.969 2.31,3.629 -3.63,2.31 c -0.99,0.659 -1.979,0.989 -2.969,0.989 -1.98,0 -3.959,-0.989 -4.949,-2.639 -1.65,-2.64 -0.99,-6.269 1.98,-8.248 L 29.034,17.156 c 0.99,-0.659 1.98,-0.989 2.969,-0.989 1.98,0 3.96,0.989 4.949,2.639 1.65,2.97 0.66,6.599 -1.979,8.578 m -60.708,-29.694 -3.629,11.548 3.299,0.99 3.63,-11.548 -3.3,-0.99 z m 3.63,13.858 c -0.66,1.649 -1.98,2.969 -3.96,2.969 -0.33,0 -0.659,0 -1.319,-0.33 l -7.259,-2.309 10.558,-34.973 0,-0.33 3.959,1.32 -4.619,15.506 3.299,0.99 c 0.99,0.33 1.98,0.99 2.31,1.98 0.66,0.99 0.66,1.979 0.33,2.969 l -3.299,12.208 z M -1.65,30.024 -4.619,27.054 21.116,0.99 24.085,3.959 -1.65,30.024 Z m -59.387,-21.776 -3.3,-28.704 c -0.33,-2.309 1.32,-4.289 3.629,-4.289 l 7.589,-0.99 0.66,4.289 -7.589,0.99 1.32,11.878 5.609,-0.66 0.66,4.289 -5.609,0.33 1.32,11.878 7.588,-0.99 0.66,4.289 -7.588,0.99 c -2.64,0.33 -4.62,-1.32 -4.949,-3.3 m -12.208,7.919 -11.877,-34.973 11.217,-3.959 3.959,11.217 -3.959,1.32 -2.309,-7.258 -2.97,0.989 10.558,30.684 -4.619,1.98 z m 29.034,-5.279 3.299,-36.623 4.29,0.33 -3.3,36.623 -4.289,-0.33 z"
               style="fill:#001f47;fill-opacity:1;fill-rule:nonzero;stroke:none"
               id="path3360" />
          </g>
          <g
             id="g3362"
             transform="translate(160.1548,196.7772)">
            <path
               d="m 0,0 0,0 c 21.776,-32.333 57.408,-48.17 96.01,-48.17 38.272,0 74.235,15.837 95.681,48.17 l 0,0.33 c 3.299,5.609 4.619,9.238 4.619,21.116 l 0,31.343 -5.939,0 0,-31.343 c 0,-11.218 -1.32,-13.528 -3.959,-18.147 -19.796,-29.364 -53.119,-45.53 -91.062,-45.53 -37.942,0 -71.265,16.166 -91.061,45.53 C 1.65,7.918 0.33,10.558 0.33,21.446 l 0,31.343 -5.939,0 0,-31.343 C -4.619,9.568 -3.299,5.609 0,0"
               style="fill:#001f47;fill-opacity:1;fill-rule:nonzero;stroke:none"
               id="path3364" />
          </g>
          <g
             id="g3366"
             transform="translate(153.886,308.6241)">
            <path
               d="m 0,0 0,56.418 204.228,0 0,-56.418 3.299,-1.65 0,61.368 -210.496,0 0,-61.368 L 0,0 Z"
               style="fill:#001f47;fill-opacity:1;fill-rule:nonzero;stroke:none"
               id="path3368" />
          </g>
          <g
             id="g3370"
             transform="translate(155.5357,363.7228)">
            <path
               d="m 0,0 0,-54.439 5.609,2.64 0,45.86 189.711,0 0,-45.86 5.939,-2.64 0,54.439 L 0,0 Z"
               style="fill:#001f47;fill-opacity:1;fill-rule:nonzero;stroke:none"
               id="path3372" />
          </g>
          <g
             id="g3374"
             transform="translate(358.114,249.2364)">
            <path
               d="M 0,0 0,-31.344 C 0,-43.551 -1.32,-47.18 -4.949,-53.119 l 0,-0.33 0,-0.33 c -21.776,-32.663 -58.068,-48.83 -97,-48.83 -38.932,0 -75.225,16.167 -97,48.83 l 0,0.33 0,0.33 c -3.299,5.939 -4.949,9.568 -4.949,21.775 l 0,31.344 -3.299,0 0,-31.344 c 0,-12.867 1.649,-17.156 5.279,-23.425 l 0.329,-0.33 0.33,-0.33 c 22.436,-33.323 59.718,-50.149 99.64,-50.149 39.922,0 77.204,16.826 99.639,50.149 l 0.33,0.33 0.33,0.33 c 3.629,6.269 5.279,10.558 5.279,23.425 L 3.959,0 0,0 Z"
               style="fill:#001f47;fill-opacity:1;fill-rule:nonzero;stroke:none"
               id="path3376" />
          </g>
          <g
             id="g3378"
             transform="translate(255.8351,337.3282)">
            <path
               d="m 0,0 c 6.929,0 13.857,-1.32 20.126,-3.959 -0.33,-0.99 -0.99,-3.959 -2.97,-7.589 -11.217,1.32 -23.755,0.33 -23.755,0.33 l -10.228,8.579 C -11.548,-0.99 -5.939,0 0,0"
               style="fill:#001f47;fill-opacity:1;fill-rule:nonzero;stroke:none"
               id="path3380" />
          </g>
          <g
             id="g3382"
             transform="translate(303.3453,258.8044)">
            <path
               d="m 0,0 c -4.289,0.99 -7.918,2.969 -12.207,4.289 -1.32,-0.66 -2.31,-1.32 -2.97,-1.65 -4.619,-5.278 -10.228,-9.568 -16.496,-12.867 -15.507,-8.248 -34.313,-8.248 -49.82,-1.32 -3.3,1.65 -6.599,3.3 -9.568,5.609 9.238,-12.537 23.755,-21.115 40.251,-22.435 l 1.65,0 0.33,0 c 10.558,0 20.456,2.969 29.034,8.248 C -11.218,-15.837 -4.619,-8.908 0,0 L 0.33,0 0,0 Z"
               style="fill:#dadada;fill-opacity:1;fill-rule:nonzero;stroke:none"
               id="path3384" />
          </g>
          <g
             id="g3386"
             transform="translate(275.631,291.7976)">
            <path
               d="m 0,0 c 2.639,-5.939 6.269,-11.878 8.578,-15.837 2.97,4.619 3.629,7.919 6.269,15.837 0.99,2.969 4.949,7.259 8.578,10.888 -5.609,3.629 -12.867,6.928 -12.867,6.928 C 4.949,9.898 0,0 0,0"
               style="fill:#001f47;fill-opacity:1;fill-rule:nonzero;stroke:none"
               id="path3388" />
          </g>
          <g
             id="g3390"
             transform="translate(219.5425,323.1412)">
            <path
               d="m 0,0 c -4.949,-4.289 -8.578,-9.898 -11.548,-15.837 0.66,-0.66 1.32,-0.99 1.98,-1.649 0.33,0.659 0.99,0.989 1.32,1.649 C -4.949,-8.248 -1.32,-1.98 0,0"
               style="fill:#001f47;fill-opacity:1;fill-rule:nonzero;stroke:none"
               id="path3392" />
          </g>
          <g
             id="g3394"
             transform="translate(252.5357,291.4677)">
            <path
               d="m 0,0 c 0,0 -6.599,10.558 -13.527,18.476 0,0 -14.847,-6.598 -20.126,-9.568 0,0 -0.33,-1.979 -0.33,-4.949 3.299,-5.609 4.949,-11.547 8.908,-20.126 0.99,-0.66 1.65,-1.649 2.64,-2.309 2.969,-0.66 6.268,-1.65 9.898,-2.64 0,0 9.238,14.847 12.537,21.116"
               style="fill:#001f47;fill-opacity:1;fill-rule:nonzero;stroke:none"
               id="path3396" />
          </g>
          <g
             id="g3398"
             transform="translate(251.216,251.5459)">
            <path
               d="m 0,0 23.095,0.66 4.619,-12.538 c -8.908,-5.278 -19.466,-7.918 -19.466,-7.918 -11.217,2.31 -17.486,7.259 -17.486,7.259 L 0,0 Z"
               style="fill:#001f47;fill-opacity:1;fill-rule:nonzero;stroke:none"
               id="path3400" />
          </g>
          <g
             id="g3402"
             transform="translate(213.2738,260.784)">
            <path
               d="m 0,0 c -1.98,-0.66 -3.959,-1.65 -4.949,-1.98 l -0.33,0 c 1.98,-3.299 3.959,-6.598 6.599,-9.238 2.309,-2.639 4.949,-4.619 7.588,-6.598 0.66,0.33 0.99,0.989 1.65,1.319 0,0 -6.599,9.568 -10.558,16.497"
               style="fill:#001f47;fill-opacity:1;fill-rule:nonzero;stroke:none"
               id="path3404" />
          </g>
          <g
             id="g3406"
             transform="translate(212.9439,267.0527)">
            <path
               d="M 0,0 C -0.66,0 -1.98,-0.33 -2.31,0 -2.639,0.66 -1.98,1.32 -1.65,1.98 -0.99,2.969 0,2.969 1.32,2.969 1.65,2.639 1.65,2.639 1.65,2.31 0.99,1.65 0.66,0.66 0,0 m -25.735,-10.558 c -0.33,0 -0.66,0.33 -0.66,0.66 0.66,1.98 1.65,4.949 0,7.259 l -2.309,4.949 c 0.33,0.659 0.99,0.659 1.65,0.989 0.329,0 0.989,-0.33 0.989,-0.989 l 2.64,-6.269 c 0.99,-2.97 -0.66,-5.279 -2.31,-6.599 m -52.459,1.65 -9.898,-2.64 c -0.33,0 -0.66,0 -0.66,0.33 0,0.33 0.33,0.99 0.99,0.99 2.64,0.66 4.949,0.99 7.259,1.32 1.649,0.33 1.979,0.33 3.299,0.33 l -0.99,-0.33 z m 70.935,38.602 c -9.568,-1.32 -29.363,-4.289 -29.363,-4.289 l 1.319,0.66 28.704,4.619 c 0.33,0 0.66,0 0.99,-0.33 0,-0.66 -1.32,-0.66 -1.65,-0.66 m -33.323,5.279 c 0.66,0.66 1.32,0.99 1.98,1.649 0.99,0 1.32,-0.329 2.309,0 1.98,0.66 10.558,2.97 12.208,2.64 0,-0.66 -0.66,-0.66 -0.99,-0.66 -4.949,-1.65 -10.228,-2.969 -15.507,-3.629 M 20.126,-0.99 c -2.31,1.65 -3.629,3.959 -5.279,5.939 -0.66,0.66 -1.65,1.32 -2.31,1.98 -0.33,0.33 -2.969,5.938 -3.299,6.928 l -0.66,0.33 c -4.619,-0.33 -9.238,-0.33 -13.857,-0.33 -1.98,0 -4.619,-0.33 -6.599,-0.33 -0.329,0 -0.329,0.33 -0.329,0.66 4.289,1.65 12.537,-0.99 15.506,3.299 0.33,0.66 0.33,1.65 0.99,1.65 0.66,-0.33 1.65,-0.66 2.64,-0.66 l 0.329,0.66 c -0.659,2.969 -1.319,5.939 -3.299,8.248 -3.299,3.96 -10.558,11.878 -14.517,13.858 -1.979,0.989 -4.289,4.289 -4.949,2.969 0,-0.33 -0.33,-0.66 -0.33,-0.99 -1.979,-0.33 -1.649,2.97 -4.289,4.619 -2.309,1.32 -5.609,2.31 -8.578,1.65 -3.629,-0.66 -6.929,-2.64 -10.228,-4.289 -6.929,-3.63 -13.857,-6.929 -20.786,-10.558 -3.299,-1.65 -6.598,-3.299 -9.898,-4.949 -0.66,-0.33 -1.979,-0.33 -2.309,-1.32 -0.33,-1.32 0.66,-2.969 1.649,-3.629 2.31,-1.32 5.609,0.33 7.589,0.99 l 0.33,-0.33 c -1.65,-1.98 -3.299,-1.98 -5.279,-2.31 -1.65,-0.33 -3.299,-1.319 -5.279,-1.649 -2.31,-0.66 -4.619,-1.32 -6.929,-1.98 -0.989,-0.33 -2.639,-0.66 -2.309,-1.98 -0.33,-0.659 -1.32,-0.659 -1.98,-0.659 -7.588,-1.32 -15.177,-3.3 -22.765,-4.949 -4.619,-0.99 -9.238,-1.98 -14.187,-3.3 -15.507,-3.959 -31.014,-7.918 -46.52,-12.537 -1.65,-0.33 -9.569,-2.64 -10.228,-3.299 0.989,-0.33 25.404,6.268 28.704,7.258 22.765,5.609 45.53,9.568 68.626,13.527 21.775,3.629 43.881,6.599 65.656,9.568 3.959,0.33 7.589,0.99 11.548,1.32 2.309,0.33 2.969,-0.66 4.619,-2.31 0,-0.989 -4.619,-0.659 -5.609,-0.989 l 0,0.66 c 0.66,0.329 1.32,0.659 1.979,1.319 l -0.329,0.66 c -7.919,-0.66 -16.167,-2.309 -23.756,-3.299 -12.207,-1.98 -24.415,-3.629 -36.292,-5.939 -8.248,-1.32 -16.167,-3.629 -24.085,-4.949 l 0,-0.33 c 14.517,1.65 29.034,4.949 43.551,7.259 l 0,-0.33 c -3.629,-0.99 -7.259,-1.65 -10.888,-2.64 -16.496,-3.959 -32.993,-7.258 -49.49,-11.217 2.97,0.329 5.939,0.659 8.909,0.989 0.989,-0.659 -0.33,-1.979 0.329,-3.299 0.99,-2.309 2.97,0 2.97,-1.32 0,-0.33 -0.66,-1.979 -0.99,-2.309 -6.599,-0.66 -13.197,-2.64 -19.796,-3.629 l 0,-0.66 4.289,0 0.33,-0.33 c 0,-0.99 -1.649,-0.66 -2.309,-0.66 -2.31,-0.33 -4.619,-0.99 -6.929,-1.32 -5.279,-0.99 -4.619,-4.949 -8.248,-5.939 -0.33,0 -0.66,-0.33 -0.99,-0.659 0,-1.32 1.98,0.659 2.639,-0.66 -0.33,-1.65 -1.319,-2.97 -0.659,-4.619 0.329,-0.66 0.659,-1.32 1.319,-1.32 2.97,-0.99 4.289,4.619 6.269,5.939 1.65,0.99 3.629,-0.99 5.609,0 1.32,0.66 2.309,1.319 3.629,1.979 1.32,0.66 2.969,3.63 4.619,3.3 1.32,-0.33 1.98,-2.31 4.289,-2.64 3.63,-0.33 7.589,-0.33 11.218,0 5.939,0.99 16.167,3.959 20.786,7.919 -0.66,1.649 -5.609,0.329 -6.929,0 0.99,2.309 -0.33,3.629 0.99,3.959 l 5.279,0.66 c 1.649,0 2.969,0.659 4.619,0.659 1.65,0 3.299,0 4.949,0.33 0.99,0 2.639,0.33 2.969,1.32 0,0.66 -0.66,1.65 0,2.31 0.66,0.989 2.31,0.989 3.3,1.319 1.319,0.66 2.309,1.65 3.959,1.98 1.649,-0.33 0.33,-2.97 1.979,-3.299 1.65,-0.33 5.939,1.649 6.929,0.329 0,-0.659 -0.66,-1.979 0.33,-2.309 0.99,-0.99 2.639,-0.99 3.629,-2.31 1.32,-1.649 3.629,-4.289 2.969,-6.598 -0.659,-2.31 -5.938,-4.949 -8.248,-3.629 -1.32,0.989 -1.32,2.639 -2.969,2.309 -2.31,-0.66 -4.619,-0.99 -6.599,-1.32 -1.979,-0.659 -4.289,-0.989 -5.939,-1.649 -0.33,0 -0.66,-0.66 -0.33,-0.99 0.99,-0.99 9.239,0 10.558,0.33 0.66,0 1.32,0 1.98,-0.66 0.99,-1.32 -1.32,-1.65 -0.66,-2.639 0.99,-1.32 3.299,-1.98 4.949,-1.65 2.969,0.66 5.939,1.979 8.578,2.969 0.99,0.33 1.65,0.99 2.64,1.32 1.979,0.66 4.289,-0.33 5.938,1.98 1.32,2.309 2.97,4.619 2.97,7.258 0,1.98 -1.32,3.629 -1.98,5.279 -1.32,0.66 -2.639,3.959 -2.639,4.619 0,0.33 1.319,3.629 1.649,3.629 l 9.239,0.99 c 0.329,0 0.659,-0.33 0.659,-0.66 0.33,-1.979 -2.309,-3.959 -3.299,-5.279 -0.33,-0.33 -1.32,-1.649 -0.99,-2.309 0.33,-0.99 1.98,0.66 1.98,-0.66 0,-0.99 -1.65,-2.31 -1.65,-3.629 0.33,-1.32 0.33,-3.3 1.65,-3.959 2.309,-0.99 2.309,0.659 3.299,0.659 0.33,0 0.99,-0.33 1.65,-0.33 1.32,0 2.639,0.33 3.959,0.66 2.639,0.66 10.558,4.289 12.867,4.289 2.64,-0.33 3.96,-4.619 11.548,-4.949 l 0.33,0.66 c -2.64,2.64 -4.619,0.99 -7.259,6.269 -0.659,1.32 -1.979,2.969 -2.969,4.289 0,0.33 0,0.66 0.33,0.66 4.619,-1.65 5.279,-8.908 12.207,-8.248 l 0.33,0.33 c -0.33,0.989 -1.649,1.319 -2.309,1.649 m -63.677,-6.268 c 0.99,0 0.99,0.989 1.65,1.319 1.649,-0.99 1.319,-2.969 2.969,-3.959 0.66,0 1.98,0.33 2.639,0.66 0.66,0.33 1.32,0.99 1.32,1.65 -0.33,1.319 -0.99,2.309 -1.32,3.629 -0.659,1.979 -2.969,0.66 -4.619,0.66 -1.649,-0.33 -2.969,0.33 -4.289,0.66 -0.33,0 -0.66,-0.33 -0.989,-0.66 -0.33,-0.66 -0.33,-1.32 0,-1.98 0.659,-1.32 1.649,-1.979 2.639,-1.979 m 169.915,41.901 c -4.949,0.99 -10.228,2.309 -15.177,3.629 -0.33,0 -1.32,0.33 -0.99,0.66 1.65,0.33 10.228,-1.98 12.208,-2.639 0.99,-0.33 1.32,0 2.309,0 0.66,-0.33 1.32,-0.66 1.65,-1.65 M 93.371,29.694 c -0.33,0 -1.65,0.33 -1.32,0.99 0.33,0 0.66,0.33 0.99,0.33 l 28.704,-4.619 1.32,-0.66 c -0.33,-0.33 -20.126,2.639 -29.694,3.959 M 111.847,1.98 c 0,0.33 0.66,0.989 0.99,0.989 0.66,-0.33 1.32,-0.33 1.649,-0.989 l -2.309,-4.949 c -1.65,-1.98 -0.33,-4.949 0,-7.259 0,-0.33 -0.33,-0.33 -0.66,-0.66 -1.65,1.65 -2.969,3.959 -2.309,6.269 l 2.639,6.599 z m 54.439,-10.558 c 2.309,-0.66 4.949,-0.66 7.258,-1.32 0.33,0 0.99,-0.66 0.99,-0.99 0,-0.33 -0.66,-0.33 -0.66,-0.33 l -9.898,2.64 -0.99,0.66 c 1.32,-0.66 1.65,-0.33 3.3,-0.66 M 88.752,0 c -0.66,-0.33 -1.65,-0.33 -2.31,0 -0.99,0.66 -0.99,1.65 -1.32,2.639 0,0.33 0,0.66 0.33,0.66 0.99,0 2.31,-0.33 2.97,-0.989 0,-0.66 0.66,-1.32 0.33,-2.31 m 164.966,-4.289 c -15.507,4.619 -31.014,8.578 -46.521,12.537 -4.619,1.32 -9.238,2.31 -14.187,3.3 -7.588,1.649 -15.177,3.629 -22.765,4.949 -0.66,0 -1.65,0 -1.98,0.659 0.33,1.32 -1.319,1.65 -2.309,1.98 -2.31,0.66 -4.619,1.32 -6.929,1.98 -1.649,0.33 -3.299,1.319 -5.279,1.649 -2.309,0.33 -3.959,0.33 -5.279,2.31 l 0.33,0.33 c 1.98,-0.66 5.279,-2.64 7.589,-0.99 0.99,0.66 1.979,2.639 1.649,3.629 -0.329,0.99 -1.649,0.99 -2.309,1.32 -3.299,1.32 -6.599,3.299 -9.898,4.949 -6.929,3.629 -13.857,6.929 -20.786,10.558 -3.299,1.649 -6.598,3.299 -10.228,4.289 -2.969,0.66 -5.938,-0.33 -8.578,-1.65 -2.309,-1.32 -2.309,-4.949 -4.289,-4.619 -0.33,0.33 -0.33,0.66 -0.33,0.99 -0.66,1.32 -2.969,-1.98 -4.949,-2.969 C 92.381,38.932 85.122,30.684 82.153,27.054 80.174,24.745 79.514,21.446 78.854,18.806 l 0.33,-0.66 c 0.99,-0.33 1.649,0 2.639,0.66 0.66,-0.33 0.66,-0.99 0.99,-1.65 2.969,-3.959 11.218,-1.649 15.507,-3.299 0,-0.33 0,-0.66 -0.33,-0.66 -1.98,-0.33 -4.619,0 -6.599,0.33 -4.619,0 -9.238,0.33 -13.857,0.33 l -0.66,-0.33 c -0.33,-0.99 -2.969,-6.598 -3.299,-6.928 -0.66,-0.66 -1.65,-1.32 -2.31,-1.98 C 69.616,2.639 68.296,0 65.986,-1.32 65.327,-1.65 64.007,-1.98 63.677,-2.969 l 0.33,-0.33 c 6.928,-0.66 7.588,6.598 12.207,8.248 0.33,0 0.33,-0.33 0.33,-0.66 C 75.554,3.299 74.235,1.65 73.575,0 70.935,-5.609 68.956,-3.959 66.316,-6.269 l 0.33,-0.66 c 7.589,0.33 8.908,4.619 11.548,4.949 1.98,0.33 10.228,-3.299 12.867,-4.289 1.32,-0.33 2.64,-0.66 3.959,-0.66 0.33,0 0.99,0.33 1.65,0.33 0.99,0 1.32,-1.979 3.299,-0.66 1.32,0.66 1.32,2.64 1.65,3.96 0.33,1.649 -1.65,2.969 -1.65,3.629 0.33,1.32 1.65,-0.33 1.98,0.66 0.33,0.66 -0.66,1.979 -0.99,2.309 -0.99,1.32 -3.959,3.63 -3.299,5.279 0,0.33 0.66,0.66 0.66,0.66 l 9.238,-0.99 c 0.33,0 1.65,-3.299 1.65,-3.629 0,-0.66 -1.32,-3.959 -1.65,-4.619 -0.66,-1.98 -1.98,-3.299 -1.98,-5.279 0,-2.639 1.65,-4.949 2.97,-7.258 1.319,-2.31 3.959,-1.32 5.938,-1.98 0.99,-0.33 1.65,-0.99 2.64,-1.32 2.639,-1.32 5.609,-2.309 8.578,-2.969 1.65,-0.33 3.959,0 4.949,1.649 0.66,0.99 -1.65,1.32 -0.66,2.64 0.66,0.66 1.32,0.66 1.98,0.66 1.65,-0.33 9.898,-1.32 10.558,-0.33 0.33,0.33 0,0.66 -0.33,0.99 -1.65,0.66 -4.289,1.319 -5.939,1.649 -2.31,0.66 -4.619,0.66 -6.599,1.32 -1.979,0.66 -1.649,-1.32 -2.969,-2.309 -1.98,-1.32 -7.589,1.319 -8.248,3.629 -0.66,2.309 1.319,4.949 2.969,6.598 0.99,1.32 2.639,1.32 3.629,2.31 0.66,0.66 0.33,1.65 0.33,2.309 0.99,1.32 5.279,-0.659 6.929,-0.329 1.979,0.659 0.33,2.969 1.979,3.299 1.32,-0.33 2.64,-1.32 3.96,-1.98 0.989,-0.33 2.639,-0.66 3.299,-1.319 0.66,-0.66 0,-1.65 0,-2.31 0.33,-0.99 1.979,-1.32 2.969,-1.32 1.65,-0.33 3.3,0 4.949,-0.33 1.65,0 3.3,-0.659 4.619,-0.659 l 5.279,-0.66 c 1.32,-0.66 -0.33,-1.65 0.99,-3.96 -1.32,0.33 -6.269,1.65 -6.929,0 4.619,-4.289 14.847,-7.258 20.786,-7.918 3.629,-0.66 7.589,-0.33 11.218,0 2.309,0.33 2.639,2.31 4.289,2.64 1.65,0.33 3.299,-2.64 4.619,-3.3 0.99,-0.66 2.31,-1.319 3.629,-1.979 1.98,-1.32 3.959,0.989 5.609,0 1.98,-0.99 3.299,-6.599 6.269,-5.939 0.66,0.33 0.99,0.66 1.32,1.32 0.659,1.649 -0.33,2.969 -0.66,4.619 0.66,1.319 2.639,-0.66 2.639,0.66 -0.33,0.329 -0.66,0.659 -0.99,0.659 -3.629,0.99 -2.969,4.949 -8.248,5.939 -2.309,0.33 -4.619,0.99 -6.929,1.32 -0.659,0 -2.309,-0.33 -2.309,0.66 l 0.33,0.33 4.289,0 0,0.66 c -6.599,0.989 -13.197,2.639 -19.796,3.629 -0.66,0.33 -0.99,1.979 -0.99,2.309 0.33,1.32 1.98,-0.989 2.97,1.32 0.66,1.32 -0.66,2.64 0.33,3.299 2.969,-0.33 5.938,-0.659 8.908,-0.989 -16.497,3.959 -32.993,7.258 -49.49,11.217 -3.629,0.99 -7.259,1.32 -10.888,2.64 l 0,0.33 c 14.517,-1.98 29.034,-5.609 43.551,-7.259 l 0,0.33 c -8.248,1.65 -16.166,3.629 -24.085,4.949 -12.207,2.31 -24.085,3.959 -36.292,5.939 -7.919,1.32 -15.837,2.639 -23.755,3.299 l -0.33,-0.66 c 0.659,-0.66 1.319,-0.99 1.979,-1.319 l 0,-0.66 c -0.99,0 -5.609,-0.33 -5.609,0.989 1.65,1.65 1.98,2.31 4.619,2.31 3.96,-0.33 7.589,-0.99 11.548,-1.32 21.776,-2.969 43.881,-5.609 65.657,-9.568 23.095,-3.959 45.86,-7.918 68.625,-13.527 3.63,-0.99 27.715,-7.588 28.704,-7.259 -1.649,0.331 -9.898,2.64 -11.217,3.3 m -36.953,-10.228 c -0.989,0 -1.979,-1.32 -2.309,-1.98 0,-1.319 0.66,-1.979 0.66,-2.969 0.66,-0.99 2.309,-0.66 3.299,-0.99 0.33,0 0.33,0.33 0.66,0.33 -0.66,1.98 0,4.949 -2.31,5.609 m -6.928,1.98 c 0.99,-1.98 3.959,-1.65 3.629,-0.66 0,0.33 -3.299,0.99 -3.629,0.66 m -333.562,0 c -0.329,0.659 -3.629,0 -3.629,-0.66 -0.33,-0.99 2.64,-1.65 3.629,0.66 m 16.827,42.231 c 2.969,0.66 6.269,0.99 9.568,1.979 0.99,1.65 3.299,0.99 4.949,1.65 1.32,-0.66 -3.629,-4.289 -3.959,-4.949 -0.66,-0.66 -1.65,-3.299 -1.98,-4.289 -0.66,-2.309 0.66,-4.949 2.64,-5.939 1.649,-0.99 3.299,-0.33 4.949,0.33 1.319,0.66 5.938,1.65 6.268,3.3 -0.33,0.989 -7.588,-0.33 -9.238,0.659 -0.66,0.33 0.33,1.65 0.66,1.98 0.99,2.309 8.908,8.248 9.568,10.228 1.32,4.619 -6.928,5.609 -9.898,6.269 -0.66,0 -4.289,0.989 -3.959,1.979 0,0 1.32,1.32 1.65,1.98 l 0,0.33 c -0.99,0 -9.568,-1.98 -10.888,-2.31 -0.33,0 -0.66,-0.33 -0.66,-0.66 0.99,-1.319 -0.33,-2.639 0,-3.959 0.33,-0.99 3.629,-0.66 1.98,-2.309 l -2.64,-0.33 c -1.32,0.66 0.33,1.649 -0.99,1.979 -0.989,-0.33 -2.969,-0.66 -3.299,-1.979 -0.66,-0.99 -0.66,-2.64 0,-3.63 0.99,-1.979 2.969,-2.639 5.279,-2.309 m 286.051,-5.279 c 0.33,-0.66 1.32,-1.65 0.66,-1.98 -1.32,-0.989 -8.908,0.33 -9.238,-0.659 0.33,-1.65 4.949,-2.64 6.269,-3.3 1.649,-0.66 3.299,-0.99 4.949,-0.33 1.979,0.99 3.299,3.63 2.969,5.609 0,0.99 -1.32,3.299 -1.98,4.289 -0.659,0.66 -5.279,4.619 -3.959,4.949 1.65,-0.66 3.959,0 4.949,-1.649 2.97,-0.99 6.269,-1.32 9.568,-1.98 1.98,-0.33 4.289,0.33 5.609,1.98 0.66,0.989 0.66,2.639 0,3.629 -0.66,1.32 -2.309,1.649 -3.299,1.979 -1.32,-0.33 0,-1.649 -0.99,-1.979 l -2.64,0.33 c -1.649,1.649 1.98,1.649 1.98,2.309 0.33,1.32 -0.99,2.64 0,3.959 0,0.33 -0.33,0.66 -0.66,0.66 -1.32,0.66 -9.568,2.64 -10.888,2.31 l -0.33,-0.33 c 0.33,-0.33 1.65,-1.65 1.65,-1.98 0.66,-0.989 -3.299,-1.649 -3.959,-1.979 -2.969,-0.66 -10.888,-1.65 -9.898,-6.269 0.33,-1.32 8.248,-6.929 9.238,-9.568 m -48.17,-27.714 c -1.32,-0.33 -2.639,-0.99 -4.289,-0.66 -1.32,0 -3.959,1.32 -4.289,-0.66 -0.33,-1.32 -0.99,-2.31 -1.32,-3.629 0,-0.66 0.66,-1.32 1.32,-1.65 0.99,-0.33 1.979,-0.66 2.969,-0.66 1.65,0.99 1.32,2.97 2.97,3.959 0.659,-0.33 0.989,-1.319 1.649,-1.319 0.66,0 1.65,0.66 2.31,1.649 0.33,0.66 0.33,1.32 0,1.98 -0.66,0.66 -0.66,0.66 -1.32,0.99 m -261.636,-11.218 c -2.64,-0.66 -1.65,-3.629 -2.31,-5.609 0,0 0.33,-0.33 0.66,-0.33 0.99,0.33 2.64,0 3.3,0.99 0.329,0.99 0.659,1.65 0.659,2.969 -0.33,0.66 -1.319,1.98 -2.309,1.98"
               style="fill:#dd0741;fill-opacity:1;fill-rule:nonzero;stroke:none"
               id="path3408" />
          </g>
          <g
             id="g3410"
             transform="translate(302.0255,305.6548)">
            <path
               d="m 0,0 c 0.66,0.66 1.32,0.99 1.65,1.32 -0.33,0.33 0.33,0 0,0 L 1.98,1.65 C 0.99,3.629 -0.33,5.939 -1.65,7.588 -0.66,5.279 -0.33,2.639 0,0"
               style="fill:#dadada;fill-opacity:1;fill-rule:nonzero;stroke:none"
               id="path3412" />
          </g>
          <g
             id="g3414"
             transform="translate(202.716,227.7908)">
            <path
               d="m 0,0 -9.898,-6.929 -1.98,2.97 L -1.98,2.969 0,0 Z m 3.299,2.31 -4.289,6.268 -30.024,-21.115 2.31,-3.3 13.197,9.238 1.98,-2.639 -10.888,-7.589 c -0.99,-0.659 -1.32,-1.649 -1.98,-2.309 l 2.64,-3.629 0.33,0.33 c 0.33,0.989 0.66,1.649 1.649,2.309 l 9.898,6.929 c 1.32,0.99 1.98,1.979 1.98,2.969 0.33,0 0.66,-0.33 1.32,-0.33 0.66,0 1.319,0.33 1.979,0.66 l 9.568,6.599 c 0.99,0.66 1.32,1.649 1.65,2.639 -0.33,0.99 -0.66,2.31 -1.32,2.97"
               style="fill:#001f47;fill-opacity:1;fill-rule:nonzero;stroke:none"
               id="path3416" />
          </g>
          <g
             id="g3418"
             transform="translate(205.3555,207.335)">
            <path
               d="M 0,0 -2.31,2.31 5.609,11.548 8.248,9.238 0,0 Z m -2.639,-3.299 -7.919,-9.238 -2.639,2.309 8.248,9.238 2.31,-2.309 z M 12.207,9.568 c 0,0.99 -0.659,1.98 -1.319,2.64 l -5.939,4.948 -24.085,-28.044 5.939,-4.949 c 0.66,-0.66 1.649,-0.99 2.639,-0.99 1.32,0 2.31,0.66 2.97,1.32 l 7.258,8.249 c 0.99,1.319 1.65,2.309 0.99,3.629 l 0.66,0 c 0.99,0 1.649,0.33 2.309,1.319 l 7.589,8.579 c 0.989,1.319 1.319,2.309 0.989,3.299"
               style="fill:#001f47;fill-opacity:1;fill-rule:nonzero;stroke:none"
               id="path3420" />
          </g>
        </g>
      </g>
    </g>
  </g>
</svg>
