<?xml version="1.0" encoding="UTF-8" standalone="no"?>
<!-- Created with Inkscape (http://www.inkscape.org/) -->

<svg
   xmlns:dc="http://purl.org/dc/elements/1.1/"
   xmlns:cc="http://creativecommons.org/ns#"
   xmlns:rdf="http://www.w3.org/1999/02/22-rdf-syntax-ns#"
   xmlns:svg="http://www.w3.org/2000/svg"
   xmlns="http://www.w3.org/2000/svg"
   xmlns:sodipodi="http://sodipodi.sourceforge.net/DTD/sodipodi-0.dtd"
   xmlns:inkscape="http://www.inkscape.org/namespaces/inkscape"
   id="svg2"
   version="1.1"
   inkscape:version="0.48.2 r9819"
   width="215.48993"
   height="300.07126"
   xml:space="preserve"
   sodipodi:docname="1676379_DOWNLOAD.pdf"><metadata
     id="metadata8"><rdf:RDF><cc:Work
         rdf:about=""><dc:format>image/svg+xml</dc:format><dc:type
           rdf:resource="http://purl.org/dc/dcmitype/StillImage" /><dc:title></dc:title></cc:Work></rdf:RDF></metadata><defs
     id="defs6"><clipPath
       clipPathUnits="userSpaceOnUse"
       id="clipPath16"><path
         d="m -3.1e-5,595.276 419.528001,0 0,-595.276 -419.528001,0 0,595.276 z"
         id="path18"
         inkscape:connector-curvature="0" /></clipPath><clipPath
       clipPathUnits="userSpaceOnUse"
       id="clipPath22"><path
         d="m 0,595.26 419.52,0 L 419.52,0 0,0 0,595.26 z"
         id="path24"
         inkscape:connector-curvature="0" /></clipPath><clipPath
       clipPathUnits="userSpaceOnUse"
       id="clipPath32"><path
         d="m -8.503,603.78 429.448,0 0,-70.865 -429.448,0 0,70.865 z"
         clip-rule="evenodd"
         id="path34"
         inkscape:connector-curvature="0" /></clipPath><clipPath
       clipPathUnits="userSpaceOnUse"
       id="clipPath38"><path
         d="m -3.1e-5,595.276 419.528001,0 0,-595.276 -419.528001,0 0,595.276 z"
         id="path40"
         inkscape:connector-curvature="0" /></clipPath><clipPath
       clipPathUnits="userSpaceOnUse"
       id="clipPath44"><path
         d="m 0,595.26 419.52,0 L 419.52,0 0,0 0,595.26 z"
         id="path46"
         inkscape:connector-curvature="0" /></clipPath><clipPath
       clipPathUnits="userSpaceOnUse"
       id="clipPath56"><path
         d="m -3.1e-5,595.276 419.528001,0 0,-595.276 -419.528001,0 0,595.276 z"
         id="path58"
         inkscape:connector-curvature="0" /></clipPath><clipPath
       clipPathUnits="userSpaceOnUse"
       id="clipPath62"><path
         d="m 0,595.26 419.52,0 L 419.52,0 0,0 0,595.26 z"
         id="path64"
         inkscape:connector-curvature="0" /></clipPath><clipPath
       clipPathUnits="userSpaceOnUse"
       id="clipPath100"><path
         d="m 59.751,587.48 0,-47.333 33.999,0 0,47.333"
         id="path102"
         inkscape:connector-curvature="0" /></clipPath><clipPath
       clipPathUnits="userSpaceOnUse"
       id="clipPath532"><path
         d="m -3.1e-5,595.276 419.528001,0 0,-595.276 -419.528001,0 0,595.276 z"
         id="path534"
         inkscape:connector-curvature="0" /></clipPath><clipPath
       clipPathUnits="userSpaceOnUse"
       id="clipPath538"><path
         d="m 0,595.26 419.52,0 L 419.52,0 0,0 0,595.26 z"
         id="path540"
         inkscape:connector-curvature="0" /></clipPath><clipPath
       clipPathUnits="userSpaceOnUse"
       id="clipPath548"><path
         d="m 342.993,524.41 34.015,0 0,-12.186 -34.015,0 0,12.186 z"
         clip-rule="evenodd"
         id="path550"
         inkscape:connector-curvature="0" /></clipPath><clipPath
       clipPathUnits="userSpaceOnUse"
       id="clipPath554"><path
         d="m -3.1e-5,595.276 419.528001,0 0,-595.276 -419.528001,0 0,595.276 z"
         id="path556"
         inkscape:connector-curvature="0" /></clipPath><clipPath
       clipPathUnits="userSpaceOnUse"
       id="clipPath560"><path
         d="m 0,595.26 419.52,0 L 419.52,0 0,0 0,595.26 z"
         id="path562"
         inkscape:connector-curvature="0" /></clipPath><linearGradient
       x1="-128"
       y1="0"
       x2="128"
       y2="0"
       gradientUnits="userSpaceOnUse"
       gradientTransform="matrix(0.1407,0,0,-0.0554,360.003,518.318)"
       id="linearGradient568"><stop
         style="stop-opacity:1;stop-color:#00336a"
         offset="0"
         id="stop570" /><stop
         style="stop-opacity:1;stop-color:#ffffff"
         offset="1"
         id="stop572" /></linearGradient><clipPath
       clipPathUnits="userSpaceOnUse"
       id="clipPath580"><path
         d="m -3.1e-5,595.276 419.528001,0 0,-595.276 -419.528001,0 0,595.276 z"
         id="path582"
         inkscape:connector-curvature="0" /></clipPath><clipPath
       clipPathUnits="userSpaceOnUse"
       id="clipPath586"><path
         d="m 0,595.26 419.52,0 L 419.52,0 0,0 0,595.26 z"
         id="path588"
         inkscape:connector-curvature="0" /></clipPath><clipPath
       clipPathUnits="userSpaceOnUse"
       id="clipPath722"><path
         d="m 342.993,238.111 34.015,0 0,-12.187 -34.015,0 0,12.187 z"
         clip-rule="evenodd"
         id="path724"
         inkscape:connector-curvature="0" /></clipPath><clipPath
       clipPathUnits="userSpaceOnUse"
       id="clipPath728"><path
         d="m -3.1e-5,595.276 419.528001,0 0,-595.276 -419.528001,0 0,595.276 z"
         id="path730"
         inkscape:connector-curvature="0" /></clipPath><clipPath
       clipPathUnits="userSpaceOnUse"
       id="clipPath734"><path
         d="m 0,595.26 419.52,0 L 419.52,0 0,0 0,595.26 z"
         id="path736"
         inkscape:connector-curvature="0" /></clipPath><linearGradient
       x1="-128"
       y1="0"
       x2="128"
       y2="0"
       gradientUnits="userSpaceOnUse"
       gradientTransform="matrix(0.1407,0,0,-0.0554,360.003,232.019)"
       id="linearGradient742"><stop
         style="stop-opacity:1;stop-color:#00336a"
         offset="0"
         id="stop744" /><stop
         style="stop-opacity:1;stop-color:#ffffff"
         offset="1"
         id="stop746" /></linearGradient><clipPath
       clipPathUnits="userSpaceOnUse"
       id="clipPath754"><path
         d="m -3.1e-5,595.276 419.528001,0 0,-595.276 -419.528001,0 0,595.276 z"
         id="path756"
         inkscape:connector-curvature="0" /></clipPath><clipPath
       clipPathUnits="userSpaceOnUse"
       id="clipPath760"><path
         d="m 0,595.26 419.52,0 L 419.52,0 0,0 0,595.26 z"
         id="path762"
         inkscape:connector-curvature="0" /></clipPath></defs><sodipodi:namedview
     pagecolor="#ffffff"
     bordercolor="#666666"
     borderopacity="1"
     objecttolerance="10"
     gridtolerance="10"
     guidetolerance="10"
     inkscape:pageopacity="0"
     inkscape:pageshadow="2"
     inkscape:window-width="1366"
     inkscape:window-height="716"
     id="namedview4"
     showgrid="false"
     fit-margin-top="0"
     fit-margin-left="0"
     fit-margin-right="0"
     fit-margin-bottom="0"
     inkscape:zoom="1"
     inkscape:cx="123.51623"
     inkscape:cy="172.93631"
     inkscape:window-x="-8"
     inkscape:window-y="-8"
     inkscape:window-maximized="1"
     inkscape:current-layer="g10" /><g
     id="g10"
     inkscape:groupmode="layer"
     inkscape:label="1676379_DOWNLOAD"
     transform="matrix(1.25,0,0,-1.25,-138.68875,739.18246)"><g
       id="g76"
       transform="matrix(5.0703511,0,0,5.0703511,244.90968,546.4886)"><path
         d="m 0,0 c 0,0 -0.38,0.614 -1.216,0.943 -0.8,0.314 -2.016,0.504 -2.127,0.52 0.002,0.009 -0.087,0.089 -0.877,0.622 -1.517,1.023 -3.749,1.093 -5.201,0.734 -1.451,0.359 -3.683,0.289 -5.2,-0.734 -0.79,-0.533 -0.879,-0.613 -0.878,-0.622 -0.11,-0.016 -1.327,-0.206 -2.126,-0.52 C -18.462,0.614 -18.841,0 -18.841,0 l -0.323,-1.366 0.224,-1.812 1.464,-0.347 4.345,1.141 3.71,0.429 3.711,-0.429 4.345,-1.141 1.464,0.347 0.223,1.812 L 0,0"
         style="fill:#e7223f;fill-opacity:1;fill-rule:nonzero;stroke:none"
         id="path78"
         inkscape:connector-curvature="0" /></g><g
       id="g80"
       transform="matrix(5.0703511,0,0,5.0703511,244.90968,546.4886)"><path
         d="m 0,0 c 0,0 -0.38,0.614 -1.216,0.943 -0.8,0.314 -2.016,0.504 -2.127,0.52 0.002,0.009 -0.087,0.089 -0.877,0.622 -1.517,1.023 -3.749,1.093 -5.201,0.734 -1.451,0.359 -3.683,0.289 -5.2,-0.734 -0.79,-0.533 -0.879,-0.613 -0.878,-0.622 -0.11,-0.016 -1.327,-0.206 -2.126,-0.52 C -18.462,0.614 -18.841,0 -18.841,0 l -0.323,-1.366 0.224,-1.812 1.464,-0.347 4.345,1.141 3.71,0.429 3.711,-0.429 4.345,-1.141 1.464,0.347 0.223,1.812 L 0,0 z"
         style="fill:none;stroke:#004798;stroke-width:0.105;stroke-linecap:butt;stroke-linejoin:round;stroke-miterlimit:4;stroke-opacity:1;stroke-dasharray:none"
         id="path82"
         inkscape:connector-curvature="0" /></g><g
       id="g84"
       transform="matrix(5.0703511,0,0,5.0703511,238.2878,525.21341)"><path
         d="m 0,0 c -2.466,1.162 -5.208,1.809 -8.115,1.809 -2.906,0 -5.648,-0.647 -8.114,-1.809 -0.09,-0.042 -0.115,-0.146 -0.073,-0.236 0.042,-0.089 0.148,-0.128 0.238,-0.086 l 0.397,-0.854 c -0.102,-0.048 -0.146,-0.17 -0.099,-0.273 0.049,-0.103 0.159,-0.155 0.262,-0.107 2.245,1.06 4.742,1.643 7.389,1.643 2.648,0 5.145,-0.583 7.39,-1.643 0.103,-0.048 0.213,0.004 0.261,0.107 0.049,0.103 0.004,0.225 -0.098,0.273 l 0.397,0.854 C -0.076,-0.364 0.031,-0.325 0.073,-0.236 0.115,-0.146 0.09,-0.042 0,0"
         style="fill:#fabd00;fill-opacity:1;fill-rule:nonzero;stroke:none"
         id="path86"
         inkscape:connector-curvature="0" /></g><g
       id="g88"
       transform="matrix(5.0703511,0,0,5.0703511,238.2878,525.21341)"><path
         d="m 0,0 c -2.466,1.162 -5.208,1.809 -8.115,1.809 -2.906,0 -5.648,-0.647 -8.114,-1.809 -0.09,-0.042 -0.115,-0.146 -0.073,-0.236 0.042,-0.089 0.148,-0.128 0.238,-0.086 l 0.397,-0.854 c -0.102,-0.048 -0.146,-0.17 -0.099,-0.273 0.049,-0.103 0.159,-0.155 0.262,-0.107 2.245,1.06 4.742,1.643 7.389,1.643 2.648,0 5.145,-0.583 7.39,-1.643 0.103,-0.048 0.213,0.004 0.261,0.107 0.049,0.103 0.004,0.225 -0.098,0.273 l 0.397,0.854 C -0.076,-0.364 0.031,-0.325 0.073,-0.236 0.115,-0.146 0.09,-0.042 0,0 z"
         style="fill:none;stroke:#004798;stroke-width:0.156;stroke-linecap:butt;stroke-linejoin:round;stroke-miterlimit:4;stroke-opacity:1;stroke-dasharray:none"
         id="path90"
         inkscape:connector-curvature="0" /></g><g
       id="g92"
       transform="matrix(5.0703511,0,0,5.0703511,244.3925,531.39924)"><path
         d="M 0,0 C -0.187,-0.069 -0.401,-0.059 -0.588,0.044 -0.845,0.186 -0.98,0.462 -0.953,0.736 -0.879,0.82 -0.822,0.922 -0.792,1.038 -0.691,1.427 -0.926,1.824 -1.316,1.924 -1.705,2.024 -2.101,1.789 -2.202,1.4 -2.214,1.35 -2.221,1.3 -2.223,1.25 -2.391,1.026 -2.682,0.914 -2.97,0.988 -3.312,1.076 -3.53,1.399 -3.5,1.739 c 0.694,-0.173 0.962,0.142 1.075,0.586 0.097,0.376 0.053,0.724 -0.384,0.933 0.011,0.167 -0.016,0.303 -0.073,0.415 0.299,0.088 0.518,0.365 0.518,0.693 0,0.349 -0.247,0.64 -0.576,0.708 0.17,0.133 0.279,0.338 0.279,0.57 0,0.03 -0.003,0.058 -0.006,0.086 L -2.664,5.723 C -0.693,4.726 -0.074,3.698 0.091,1.587 -0.145,1.515 -0.294,1.283 -0.39,1.033 -0.539,0.64 -0.521,0.26 0,0 z m -2.678,0.368 c 0.271,0.018 0.532,0.112 0.746,0.269 0.073,-0.056 0.159,-0.098 0.254,-0.123 0.032,-0.007 0.063,-0.013 0.094,-0.017 0.049,-0.259 0.174,-0.507 0.359,-0.705 -0.475,0.21 -0.959,0.402 -1.453,0.576 z m -7.373,1.116 c 0.388,0.185 0.67,0.554 0.732,0.994 0.063,-0.44 0.345,-0.809 0.732,-0.994 -0.242,0.008 -0.487,0.013 -0.732,0.013 -0.245,0 -0.488,-0.005 -0.732,-0.013 z m -5.908,-1.116 c -0.494,-0.174 -0.979,-0.366 -1.453,-0.577 0.184,0.199 0.31,0.447 0.358,0.706 0.032,0.004 0.063,0.01 0.095,0.017 0.095,0.025 0.18,0.067 0.255,0.123 0.213,-0.157 0.474,-0.251 0.745,-0.269 z M -18.637,0 c 0.52,0.26 0.539,0.64 0.39,1.033 -0.095,0.25 -0.246,0.482 -0.482,0.554 0.165,2.111 0.784,3.139 2.756,4.136 l 0.003,0.007 c -0.003,-0.028 -0.006,-0.056 -0.006,-0.086 0,-0.232 0.109,-0.437 0.279,-0.57 -0.329,-0.068 -0.576,-0.359 -0.576,-0.708 0,-0.328 0.219,-0.605 0.518,-0.693 -0.056,-0.112 -0.084,-0.248 -0.073,-0.415 -0.437,-0.209 -0.481,-0.557 -0.384,-0.933 0.113,-0.444 0.381,-0.759 1.074,-0.586 0.031,-0.34 -0.188,-0.663 -0.53,-0.751 -0.287,-0.074 -0.578,0.038 -0.746,0.262 -0.002,0.05 -0.009,0.1 -0.022,0.15 -0.1,0.389 -0.496,0.624 -0.885,0.524 -0.39,-0.1 -0.624,-0.497 -0.524,-0.886 0.03,-0.116 0.086,-0.218 0.161,-0.302 0.027,-0.274 -0.108,-0.55 -0.365,-0.692 C -18.237,-0.059 -18.45,-0.069 -18.637,0 z m 4.095,1.818 c 0.169,-0.407 0.529,-0.694 0.946,-0.78 -0.472,-0.102 -0.938,-0.222 -1.398,-0.358 0.323,0.276 0.5,0.7 0.452,1.138 z m 3.498,-0.394 c -0.527,-0.045 -1.047,-0.111 -1.561,-0.196 0.266,0.17 0.471,0.425 0.575,0.715 0.012,0 0.024,-0.001 0.037,-0.001 0.073,0 0.144,0.011 0.212,0.031 0.172,-0.256 0.436,-0.451 0.737,-0.549 z m 1.097,6.628 C -9.95,8.029 -9.952,8.004 -9.952,7.979 c 0,-0.132 0.041,-0.255 0.111,-0.356 l 0,-0.584 c -0.07,-0.101 -0.111,-0.223 -0.111,-0.356 0,-0.132 0.041,-0.255 0.111,-0.357 l 0,-0.583 c -0.07,-0.102 -0.111,-0.224 -0.111,-0.357 0,-0.258 0.156,-0.48 0.378,-0.578 C -9.888,4.756 -10.131,4.59 -10.206,4.193 -10.68,4.1 -10.81,3.773 -10.81,3.385 c 0,-0.457 0.181,-0.829 0.895,-0.834 -0.055,-0.338 -0.347,-0.596 -0.7,-0.596 -0.322,0 -0.593,0.213 -0.681,0.506 0.02,0.067 0.03,0.136 0.03,0.208 0,0.402 -0.325,0.728 -0.727,0.728 -0.402,0 -0.728,-0.326 -0.728,-0.728 0,-0.133 0.037,-0.256 0.098,-0.363 -0.007,-0.31 -0.218,-0.591 -0.533,-0.672 -0.342,-0.088 -0.69,0.089 -0.827,0.401 0.691,0.184 0.773,0.589 0.659,1.032 -0.097,0.376 -0.303,0.66 -0.787,0.633 -0.097,0.21 -0.232,0.332 -0.389,0.393 0.232,2.263 1.987,4.147 4.553,3.959 z m 3.915,-6.824 c -0.514,0.085 -1.036,0.151 -1.562,0.196 0.301,0.098 0.565,0.293 0.739,0.549 0.066,-0.02 0.137,-0.031 0.21,-0.031 0.013,0 0.026,0.001 0.038,0.001 0.103,-0.29 0.309,-0.545 0.575,-0.715 z m -2.654,4.158 c 0,0.133 -0.04,0.255 -0.11,0.357 l 0,0.583 c 0.07,0.102 0.11,0.225 0.11,0.357 0,0.133 -0.04,0.255 -0.11,0.356 l 0,0.584 c 0.07,0.101 0.11,0.224 0.11,0.356 0,0.025 -10e-4,0.05 -0.005,0.073 C -6.124,8.24 -4.369,6.356 -4.138,4.093 -4.294,4.032 -4.428,3.91 -4.527,3.7 -5.01,3.727 -5.217,3.443 -5.313,3.067 -5.428,2.624 -5.345,2.219 -4.654,2.035 -4.792,1.723 -5.139,1.546 -5.481,1.634 c -0.316,0.081 -0.527,0.362 -0.534,0.672 0.062,0.107 0.098,0.23 0.098,0.363 0,0.402 -0.325,0.728 -0.728,0.728 -0.401,0 -0.727,-0.326 -0.727,-0.728 0,-0.072 0.011,-0.141 0.031,-0.208 C -7.429,2.168 -7.7,1.955 -8.023,1.955 c -0.352,0 -0.644,0.258 -0.699,0.596 0.714,0.005 0.894,0.377 0.894,0.834 0,0.388 -0.129,0.715 -0.604,0.808 -0.074,0.397 -0.318,0.563 -0.631,0.615 0.222,0.098 0.377,0.32 0.377,0.578 z M -4.095,1.818 C -4.143,1.38 -3.966,0.956 -3.644,0.68 c -0.459,0.136 -0.925,0.256 -1.397,0.358 0.417,0.086 0.777,0.373 0.946,0.78 z m -13.383,-2.952 c 2.48,1.169 5.237,1.818 8.159,1.818 2.923,0 5.693,-0.653 8.172,-1.822 l -0.026,0.008 c 0.204,-0.096 0.447,-0.008 0.543,0.197 0.054,0.114 0.05,0.241 0,0.348 0.41,-0.126 0.852,-0.041 1.185,0.215 0.372,-0.252 0.759,-0.133 1.049,0.093 0.306,0.239 0.566,0.805 0.195,1.116 0.286,0.373 0.213,0.852 -0.135,1.072 0.063,0.106 0.098,0.23 0.098,0.363 0,0.348 -0.246,0.639 -0.574,0.708 0.17,0.132 0.279,0.338 0.279,0.569 0,0.376 -0.288,0.685 -0.655,0.72 0.076,0.115 0.121,0.253 0.121,0.401 0,0.4 -0.324,0.724 -0.724,0.724 -0.065,0 -0.129,-0.01 -0.19,-0.026 0.042,0.091 0.065,0.192 0.065,0.299 0,0.4 -0.323,0.724 -0.723,0.724 -0.119,0 -0.231,-0.029 -0.328,-0.079 0.006,0.036 0.01,0.074 0.01,0.113 0,0.399 -0.325,0.723 -0.725,0.723 -0.154,0 -0.297,-0.048 -0.413,-0.13 -0.072,0.325 -0.361,0.569 -0.708,0.569 -0.256,0 -0.479,-0.133 -0.608,-0.333 -0.133,0.146 -0.323,0.237 -0.535,0.237 -0.057,0 -0.111,-0.006 -0.164,-0.019 0.032,0.081 0.049,0.169 0.049,0.26 0,0.401 -0.323,0.725 -0.723,0.725 -0.141,0 -0.271,-0.041 -0.383,-0.111 0.006,0.038 0.01,0.077 0.01,0.116 0,0.399 -0.324,0.724 -0.723,0.724 -0.163,0 -0.312,-0.054 -0.432,-0.145 -0.072,0.324 -0.361,0.567 -0.706,0.567 -0.201,0 -0.382,-0.081 -0.513,-0.212 -0.115,0.245 -0.365,0.416 -0.655,0.416 -0.082,0 -0.161,-0.014 -0.235,-0.039 -0.127,0.145 -0.29,0.259 -0.475,0.329 -0.042,0.017 -0.086,0.031 -0.13,0.043 l 0,0.552 0.546,0 0,0.554 -0.546,0 0,0.492 -0.585,0 0,-0.492 -0.546,0 0,-0.554 0.546,0 0,-0.552 c -0.045,-0.012 -0.089,-0.026 -0.131,-0.043 -0.184,-0.07 -0.347,-0.184 -0.475,-0.329 -0.074,0.025 -0.152,0.039 -0.235,0.039 -0.289,0 -0.539,-0.171 -0.654,-0.416 -0.131,0.131 -0.312,0.212 -0.513,0.212 -0.346,0 -0.634,-0.243 -0.706,-0.567 -0.12,0.091 -0.27,0.145 -0.432,0.145 -0.4,0 -0.724,-0.325 -0.724,-0.724 0,-0.039 0.004,-0.078 0.011,-0.116 -0.112,0.07 -0.242,0.111 -0.383,0.111 -0.4,0 -0.724,-0.324 -0.724,-0.725 0,-0.091 0.018,-0.179 0.049,-0.26 -0.052,0.013 -0.107,0.019 -0.163,0.019 -0.212,0 -0.403,-0.091 -0.535,-0.237 -0.128,0.2 -0.353,0.333 -0.608,0.333 -0.347,0 -0.637,-0.244 -0.707,-0.569 -0.118,0.082 -0.26,0.13 -0.415,0.13 -0.399,0 -0.723,-0.324 -0.723,-0.723 0,-0.039 0.004,-0.077 0.009,-0.113 -0.099,0.05 -0.21,0.079 -0.328,0.079 -0.4,0 -0.724,-0.324 -0.724,-0.724 0,-0.107 0.024,-0.208 0.065,-0.299 -0.06,0.016 -0.123,0.026 -0.19,0.026 -0.399,0 -0.723,-0.324 -0.723,-0.724 0,-0.148 0.044,-0.286 0.121,-0.401 -0.367,-0.035 -0.655,-0.344 -0.655,-0.72 0,-0.231 0.109,-0.437 0.278,-0.569 -0.327,-0.069 -0.573,-0.36 -0.573,-0.708 0,-0.133 0.035,-0.257 0.097,-0.363 -0.347,-0.22 -0.421,-0.699 -0.134,-1.072 -0.371,-0.311 -0.111,-0.877 0.195,-1.116 0.29,-0.226 0.677,-0.345 1.049,-0.093 0.332,-0.256 0.775,-0.341 1.185,-0.215 -0.05,-0.107 -0.054,-0.234 0,-0.348 0.096,-0.205 0.325,-0.297 0.529,-0.201"
         style="fill:#fabd00;fill-opacity:1;fill-rule:nonzero;stroke:none"
         id="path94"
         inkscape:connector-curvature="0" /></g><g
       id="g96"
       transform="matrix(5.0703511,0,0,5.0703511,-192.00755,-2387.3839)"><g
         id="g98"
         clip-path="url(#clipPath100)"><g
           id="g104"
           transform="translate(68.592,574.522)"><path
             d="m 0,0 c 2.479,1.169 5.237,1.819 8.159,1.819 2.923,0 5.693,-0.654 8.172,-1.822 l -0.026,0.007 c 0.204,-0.095 0.447,-0.007 0.543,0.197 0.054,0.115 0.05,0.242 -10e-4,0.348 0.41,-0.126 0.853,-0.041 1.186,0.215 0.372,-0.252 0.758,-0.132 1.048,0.094 0.306,0.239 0.566,0.804 0.196,1.115 0.286,0.373 0.212,0.852 -0.135,1.072 0.062,0.107 0.098,0.23 0.098,0.363 0,0.348 -0.246,0.639 -0.574,0.708 0.169,0.133 0.278,0.338 0.278,0.57 0,0.376 -0.287,0.685 -0.654,0.72 0.076,0.114 0.12,0.252 0.12,0.401 0,0.399 -0.324,0.723 -0.723,0.723 -0.065,0 -0.13,-0.009 -0.19,-0.025 0.042,0.09 0.065,0.192 0.065,0.299 0,0.4 -0.323,0.724 -0.723,0.724 -0.119,0 -0.231,-0.03 -0.328,-0.08 0.005,0.037 0.009,0.074 0.009,0.113 0,0.4 -0.324,0.724 -0.724,0.724 -0.155,0 -0.297,-0.049 -0.414,-0.131 -0.071,0.326 -0.361,0.57 -0.707,0.57 -0.256,0 -0.48,-0.133 -0.609,-0.334 -0.132,0.146 -0.323,0.237 -0.535,0.237 -0.056,0 -0.11,-0.006 -0.163,-0.018 0.032,0.081 0.049,0.168 0.049,0.26 0,0.4 -0.323,0.724 -0.724,0.724 -0.141,0 -0.271,-0.041 -0.382,-0.11 0.006,0.037 0.01,0.076 0.01,0.115 0,0.4 -0.324,0.724 -0.724,0.724 -0.162,0 -0.311,-0.054 -0.432,-0.144 -0.072,0.324 -0.36,0.566 -0.706,0.566 -0.2,0 -0.382,-0.08 -0.512,-0.212 -0.116,0.246 -0.365,0.416 -0.655,0.416 -0.083,0 -0.161,-0.014 -0.235,-0.039 -0.128,0.146 -0.29,0.26 -0.475,0.33 -0.042,0.016 -0.086,0.03 -0.131,0.042 l 0,0.552 0.546,0 0,0.555 -0.546,0 0,0.492 -0.584,0 0,-0.492 -0.546,0 0,-0.555 0.546,0 0,-0.552 C 7.822,11.269 7.778,11.255 7.736,11.239 7.551,11.169 7.388,11.055 7.261,10.909 c -0.074,0.025 -0.153,0.039 -0.235,0.039 -0.29,0 -0.539,-0.17 -0.655,-0.416 -0.131,0.132 -0.312,0.212 -0.512,0.212 -0.346,0 -0.635,-0.242 -0.707,-0.566 -0.12,0.09 -0.27,0.144 -0.431,0.144 -0.4,0 -0.724,-0.324 -0.724,-0.724 C 3.997,9.559 4.001,9.52 4.008,9.483 3.896,9.552 3.765,9.593 3.624,9.593 3.225,9.593 2.9,9.269 2.9,8.869 2.9,8.777 2.918,8.69 2.95,8.609 2.897,8.621 2.843,8.627 2.786,8.627 2.574,8.627 2.384,8.536 2.252,8.39 2.123,8.591 1.899,8.724 1.643,8.724 1.296,8.724 1.007,8.48 0.937,8.154 0.819,8.236 0.676,8.285 0.522,8.285 c -0.399,0 -0.724,-0.324 -0.724,-0.724 0,-0.039 0.004,-0.076 0.01,-0.113 -0.099,0.05 -0.21,0.08 -0.329,0.08 -0.4,0 -0.723,-0.324 -0.723,-0.724 0,-0.107 0.023,-0.209 0.065,-0.299 -0.061,0.016 -0.124,0.025 -0.19,0.025 -0.4,0 -0.724,-0.324 -0.724,-0.723 0,-0.149 0.045,-0.287 0.122,-0.401 -0.368,-0.035 -0.655,-0.344 -0.655,-0.72 0,-0.232 0.109,-0.437 0.278,-0.57 -0.328,-0.069 -0.574,-0.36 -0.574,-0.708 0,-0.133 0.036,-0.256 0.098,-0.363 C -3.171,2.825 -3.245,2.346 -2.959,1.973 -3.33,1.662 -3.069,1.097 -2.763,0.858 -2.473,0.632 -2.086,0.512 -1.714,0.764 -1.382,0.508 -0.94,0.423 -0.529,0.549 -0.58,0.443 -0.584,0.316 -0.529,0.201 -0.434,-0.003 -0.204,-0.095 0,0 z"
             style="fill:none;stroke:#004798;stroke-width:0.156;stroke-linecap:butt;stroke-linejoin:round;stroke-miterlimit:4;stroke-opacity:1;stroke-dasharray:none"
             id="path106"
             inkscape:connector-curvature="0" /></g></g></g><g
       id="g108"
       transform="matrix(5.0703511,0,0,5.0703511,223.62941,540.61714)"><path
         d="M 0,0 C -0.047,-0.438 0.129,-0.862 0.451,-1.138 -0.008,-1.002 -0.473,-0.882 -0.946,-0.78 -0.529,-0.694 -0.169,-0.407 0,0 z"
         style="fill:none;stroke:#004798;stroke-width:0.156;stroke-linecap:butt;stroke-linejoin:round;stroke-miterlimit:4;stroke-opacity:1;stroke-dasharray:none"
         id="path110"
         inkscape:connector-curvature="0" /><g
         id="g112"
         transform="translate(-4.591,3.568)"><path
           d="m 0,0 c 0,0.132 -0.04,0.255 -0.11,0.356 l 0,0.584 C -0.04,1.041 0,1.164 0,1.297 0,1.429 -0.04,1.552 -0.11,1.653 l 0,0.584 C -0.04,2.338 0,2.461 0,2.593 0,2.618 -0.001,2.642 -0.005,2.666 2.562,2.854 4.317,0.969 4.548,-1.293 4.392,-1.354 4.257,-1.476 4.159,-1.687 3.676,-1.659 3.469,-1.943 3.373,-2.319 3.258,-2.763 3.341,-3.168 4.032,-3.351 3.894,-3.664 3.547,-3.841 3.204,-3.753 2.889,-3.671 2.678,-3.391 2.671,-3.08 c 0.062,0.106 0.098,0.23 0.098,0.363 0,0.402 -0.325,0.728 -0.728,0.728 -0.401,0 -0.727,-0.326 -0.727,-0.728 0,-0.073 0.011,-0.142 0.031,-0.208 -0.088,-0.293 -0.359,-0.507 -0.682,-0.507 -0.352,0 -0.644,0.259 -0.699,0.596 0.714,0.005 0.894,0.377 0.894,0.835 0,0.388 -0.129,0.714 -0.604,0.808 C 0.18,-0.797 -0.064,-0.63 -0.377,-0.579 -0.155,-0.48 0,-0.259 0,0 z"
           style="fill:none;stroke:#004798;stroke-width:0.156;stroke-linecap:butt;stroke-linejoin:round;stroke-miterlimit:4;stroke-opacity:1;stroke-dasharray:none"
           id="path114"
           inkscape:connector-curvature="0" /><g
           id="g116"
           transform="translate(2.654,-4.158)"><path
             d="m 0,0 c -0.514,0.085 -1.036,0.151 -1.562,0.196 0.301,0.098 0.565,0.293 0.738,0.549 0.067,-0.02 0.138,-0.031 0.211,-0.031 0.013,0 0.025,0.001 0.038,0.001 C -0.472,0.425 -0.267,0.17 0,0 z"
             style="fill:none;stroke:#004798;stroke-width:0.156;stroke-linecap:butt;stroke-linejoin:round;stroke-miterlimit:4;stroke-opacity:1;stroke-dasharray:none"
             id="path118"
             inkscape:connector-curvature="0" /><g
             id="g120"
             transform="translate(-3.916,6.824)"><path
               d="m 0,0 c -0.003,-0.024 -0.004,-0.048 -0.004,-0.073 0,-0.132 0.041,-0.255 0.11,-0.356 l 0,-0.584 c -0.069,-0.101 -0.11,-0.224 -0.11,-0.356 0,-0.133 0.041,-0.256 0.11,-0.357 l 0,-0.584 c -0.069,-0.101 -0.11,-0.224 -0.11,-0.356 0,-0.259 0.155,-0.48 0.377,-0.579 -0.314,-0.052 -0.557,-0.218 -0.631,-0.614 -0.475,-0.094 -0.605,-0.42 -0.605,-0.808 0,-0.458 0.181,-0.83 0.896,-0.835 -0.056,-0.337 -0.348,-0.596 -0.701,-0.596 -0.322,0 -0.593,0.214 -0.681,0.507 0.02,0.066 0.031,0.135 0.031,0.208 0,0.402 -0.326,0.728 -0.728,0.728 -0.402,0 -0.728,-0.326 -0.728,-0.728 0,-0.133 0.037,-0.257 0.098,-0.363 -0.006,-0.311 -0.217,-0.591 -0.533,-0.673 -0.342,-0.088 -0.69,0.089 -0.827,0.402 0.691,0.183 0.774,0.588 0.66,1.032 -0.097,0.376 -0.303,0.66 -0.787,0.632 -0.098,0.211 -0.233,0.333 -0.389,0.394 C -4.321,-1.697 -2.566,0.188 0,0 z"
               style="fill:none;stroke:#004798;stroke-width:0.156;stroke-linecap:butt;stroke-linejoin:round;stroke-miterlimit:4;stroke-opacity:1;stroke-dasharray:none"
               id="path122"
               inkscape:connector-curvature="0" /><g
               id="g124"
               transform="translate(-1.097,-6.629)"><path
                 d="m 0,0 c -0.527,-0.045 -1.048,-0.111 -1.562,-0.196 0.266,0.17 0.472,0.426 0.575,0.716 0.013,0 0.025,-0.001 0.037,-0.001 0.074,0 0.145,0.01 0.212,0.031 C -0.565,0.294 -0.301,0.098 0,0 z"
                 style="fill:none;stroke:#004798;stroke-width:0.156;stroke-linecap:butt;stroke-linejoin:round;stroke-miterlimit:4;stroke-opacity:1;stroke-dasharray:none"
                 id="path126"
                 inkscape:connector-curvature="0" /><g
                 id="g128"
                 transform="translate(-3.499,0.394)"><path
                   d="M 0,0 C 0.169,-0.407 0.529,-0.694 0.946,-0.78 0.474,-0.882 0.008,-1.002 -0.451,-1.138 -0.129,-0.862 0.048,-0.438 0,0 z"
                   style="fill:none;stroke:#004798;stroke-width:0.156;stroke-linecap:butt;stroke-linejoin:round;stroke-miterlimit:4;stroke-opacity:1;stroke-dasharray:none"
                   id="path130"
                   inkscape:connector-curvature="0" /><g
                   id="g132"
                   transform="translate(-4.095,-1.818)"><path
                     d="M 0,0 C 0.52,0.26 0.539,0.64 0.39,1.033 0.294,1.283 0.144,1.515 -0.092,1.587 0.073,3.698 0.692,4.726 2.664,5.723 L 2.667,5.73 C 2.664,5.702 2.661,5.674 2.661,5.644 2.661,5.412 2.77,5.207 2.94,5.074 2.611,5.006 2.364,4.715 2.364,4.366 2.364,4.038 2.583,3.761 2.882,3.673 2.825,3.561 2.798,3.425 2.808,3.258 2.372,3.049 2.328,2.701 2.425,2.325 2.538,1.881 2.806,1.566 3.499,1.739 3.53,1.399 3.311,1.076 2.969,0.988 2.682,0.914 2.391,1.026 2.223,1.25 2.221,1.3 2.214,1.35 2.201,1.4 2.101,1.789 1.704,2.024 1.315,1.924 0.926,1.824 0.692,1.427 0.792,1.038 0.821,0.922 0.878,0.82 0.953,0.736 0.98,0.462 0.845,0.186 0.588,0.044 0.4,-0.059 0.187,-0.069 0,0 z"
                     style="fill:none;stroke:#004798;stroke-width:0.156;stroke-linecap:butt;stroke-linejoin:round;stroke-miterlimit:4;stroke-opacity:1;stroke-dasharray:none"
                     id="path134"
                     inkscape:connector-curvature="0" /><g
                     id="g136"
                     transform="translate(2.678,0.368)"><path
                       d="m 0,0 c -0.494,-0.173 -0.979,-0.366 -1.453,-0.577 0.184,0.199 0.31,0.447 0.358,0.707 0.032,0.004 0.063,0.009 0.095,0.016 0.095,0.025 0.18,0.067 0.255,0.123 C -0.532,0.113 -0.27,0.018 0,0 z"
                       style="fill:none;stroke:#004798;stroke-width:0.156;stroke-linecap:butt;stroke-linejoin:round;stroke-miterlimit:4;stroke-opacity:1;stroke-dasharray:none"
                       id="path138"
                       inkscape:connector-curvature="0" /><g
                       id="g140"
                       transform="translate(5.909,1.116)"><path
                         d="M 0,0 C 0.387,0.185 0.669,0.555 0.732,0.995 0.795,0.555 1.077,0.185 1.464,0 1.221,0.009 0.977,0.013 0.732,0.013 0.487,0.013 0.243,0.009 0,0 z"
                         style="fill:none;stroke:#004798;stroke-width:0.156;stroke-linecap:butt;stroke-linejoin:round;stroke-miterlimit:4;stroke-opacity:1;stroke-dasharray:none"
                         id="path142"
                         inkscape:connector-curvature="0" /><g
                         id="g144"
                         transform="translate(7.372,-1.116)"><path
                           d="M 0,0 C 0.271,0.018 0.532,0.113 0.746,0.269 0.82,0.213 0.905,0.171 1,0.146 1.032,0.139 1.063,0.134 1.095,0.13 1.143,-0.13 1.269,-0.378 1.453,-0.576 0.978,-0.366 0.494,-0.173 0,0 z"
                           style="fill:none;stroke:#004798;stroke-width:0.156;stroke-linecap:butt;stroke-linejoin:round;stroke-miterlimit:4;stroke-opacity:1;stroke-dasharray:none"
                           id="path146"
                           inkscape:connector-curvature="0" /><g
                           id="g148"
                           transform="translate(2.678,-0.368)"><path
                             d="M 0,0 C -0.187,-0.069 -0.401,-0.059 -0.588,0.044 -0.845,0.186 -0.98,0.462 -0.953,0.736 -0.879,0.82 -0.822,0.922 -0.792,1.038 -0.691,1.427 -0.926,1.824 -1.316,1.924 -1.705,2.024 -2.101,1.789 -2.202,1.4 -2.214,1.35 -2.221,1.3 -2.223,1.25 -2.391,1.026 -2.682,0.914 -2.97,0.988 -3.312,1.076 -3.53,1.399 -3.5,1.739 c 0.694,-0.173 0.962,0.142 1.075,0.586 0.097,0.376 0.053,0.724 -0.384,0.933 0.011,0.167 -0.016,0.303 -0.073,0.415 0.299,0.088 0.518,0.365 0.518,0.693 0,0.349 -0.247,0.64 -0.576,0.708 0.17,0.133 0.279,0.338 0.279,0.57 0,0.03 -0.003,0.058 -0.006,0.086 L -2.664,5.723 C -0.693,4.726 -0.074,3.698 0.091,1.587 -0.145,1.515 -0.294,1.283 -0.39,1.033 -0.539,0.64 -0.521,0.26 0,0 z"
                             style="fill:none;stroke:#004798;stroke-width:0.156;stroke-linecap:butt;stroke-linejoin:round;stroke-miterlimit:4;stroke-opacity:1;stroke-dasharray:none"
                             id="path150"
                             inkscape:connector-curvature="0" /></g></g></g></g></g></g></g></g></g></g></g><g
       id="g152"
       transform="matrix(5.0703511,0,0,5.0703511,193.47096,577.48873)"><path
         d="m 0,0 c 0,-0.226 -0.183,-0.408 -0.409,-0.408 -0.226,0 -0.409,0.182 -0.409,0.408 0,0.226 0.183,0.409 0.409,0.409 C -0.183,0.409 0,0.226 0,0"
         style="fill:#ffffff;fill-opacity:1;fill-rule:nonzero;stroke:none"
         id="path154"
         inkscape:connector-curvature="0" /></g><g
       id="g156"
       transform="matrix(5.0703511,0,0,5.0703511,193.47096,577.48873)"><path
         d="m 0,0 c 0,-0.226 -0.183,-0.408 -0.409,-0.408 -0.226,0 -0.409,0.182 -0.409,0.408 0,0.226 0.183,0.409 0.409,0.409 C -0.183,0.409 0,0.226 0,0 z"
         style="fill:none;stroke:#004798;stroke-width:0.105;stroke-linecap:butt;stroke-linejoin:round;stroke-miterlimit:4;stroke-opacity:1;stroke-dasharray:none"
         id="path158"
         inkscape:connector-curvature="0" /></g><g
       id="g160"
       transform="matrix(5.0703511,0,0,5.0703511,199.22074,571.85557)"><path
         d="m 0,0 c 0,-0.226 -0.183,-0.408 -0.409,-0.408 -0.226,0 -0.409,0.182 -0.409,0.408 0,0.226 0.183,0.409 0.409,0.409 C -0.183,0.409 0,0.226 0,0"
         style="fill:#ffffff;fill-opacity:1;fill-rule:nonzero;stroke:none"
         id="path162"
         inkscape:connector-curvature="0" /></g><g
       id="g164"
       transform="matrix(5.0703511,0,0,5.0703511,199.22074,571.85557)"><path
         d="m 0,0 c 0,-0.226 -0.183,-0.408 -0.409,-0.408 -0.226,0 -0.409,0.182 -0.409,0.408 0,0.226 0.183,0.409 0.409,0.409 C -0.183,0.409 0,0.226 0,0 z"
         style="fill:none;stroke:#004798;stroke-width:0.105;stroke-linecap:butt;stroke-linejoin:round;stroke-miterlimit:4;stroke-opacity:1;stroke-dasharray:none"
         id="path166"
         inkscape:connector-curvature="0" /></g><g
       id="g168"
       transform="matrix(5.0703511,0,0,5.0703511,199.22074,565.2844)"><path
         d="m 0,0 c 0,-0.226 -0.183,-0.409 -0.409,-0.409 -0.226,0 -0.409,0.183 -0.409,0.409 0,0.226 0.183,0.409 0.409,0.409 C -0.183,0.409 0,0.226 0,0"
         style="fill:#ffffff;fill-opacity:1;fill-rule:nonzero;stroke:none"
         id="path170"
         inkscape:connector-curvature="0" /></g><g
       id="g172"
       transform="matrix(5.0703511,0,0,5.0703511,199.22074,565.2844)"><path
         d="m 0,0 c 0,-0.226 -0.183,-0.409 -0.409,-0.409 -0.226,0 -0.409,0.183 -0.409,0.409 0,0.226 0.183,0.409 0.409,0.409 C -0.183,0.409 0,0.226 0,0 z"
         style="fill:none;stroke:#004798;stroke-width:0.105;stroke-linecap:butt;stroke-linejoin:round;stroke-miterlimit:4;stroke-opacity:1;stroke-dasharray:none"
         id="path174"
         inkscape:connector-curvature="0" /></g><g
       id="g176"
       transform="matrix(5.0703511,0,0,5.0703511,199.22074,558.70815)"><path
         d="m 0,0 c 0,-0.226 -0.183,-0.409 -0.409,-0.409 -0.226,0 -0.409,0.183 -0.409,0.409 0,0.226 0.183,0.408 0.409,0.408 C -0.183,0.408 0,0.226 0,0"
         style="fill:#ffffff;fill-opacity:1;fill-rule:nonzero;stroke:none"
         id="path178"
         inkscape:connector-curvature="0" /></g><g
       id="g180"
       transform="matrix(5.0703511,0,0,5.0703511,199.22074,558.70815)"><path
         d="m 0,0 c 0,-0.226 -0.183,-0.409 -0.409,-0.409 -0.226,0 -0.409,0.183 -0.409,0.409 0,0.226 0.183,0.408 0.409,0.408 C -0.183,0.408 0,0.226 0,0 z"
         style="fill:none;stroke:#004798;stroke-width:0.105;stroke-linecap:butt;stroke-linejoin:round;stroke-miterlimit:4;stroke-opacity:1;stroke-dasharray:none"
         id="path182"
         inkscape:connector-curvature="0" /></g><g
       id="g184"
       transform="matrix(5.0703511,0,0,5.0703511,187.55386,576.45438)"><path
         d="m 0,0 c 0,-0.226 -0.183,-0.408 -0.409,-0.408 -0.225,0 -0.408,0.182 -0.408,0.408 0,0.226 0.183,0.409 0.408,0.409 C -0.183,0.409 0,0.226 0,0"
         style="fill:#ffffff;fill-opacity:1;fill-rule:nonzero;stroke:none"
         id="path186"
         inkscape:connector-curvature="0" /></g><g
       id="g188"
       transform="matrix(5.0703511,0,0,5.0703511,187.55386,576.45438)"><path
         d="m 0,0 c 0,-0.226 -0.183,-0.408 -0.409,-0.408 -0.225,0 -0.408,0.182 -0.408,0.408 0,0.226 0.183,0.409 0.408,0.409 C -0.183,0.409 0,0.226 0,0 z"
         style="fill:none;stroke:#004798;stroke-width:0.105;stroke-linecap:butt;stroke-linejoin:round;stroke-miterlimit:4;stroke-opacity:1;stroke-dasharray:none"
         id="path190"
         inkscape:connector-curvature="0" /></g><g
       id="g192"
       transform="matrix(5.0703511,0,0,5.0703511,181.78381,574.31469)"><path
         d="m 0,0 c 0,-0.226 -0.183,-0.408 -0.409,-0.408 -0.225,0 -0.408,0.182 -0.408,0.408 0,0.226 0.183,0.409 0.408,0.409 C -0.183,0.409 0,0.226 0,0"
         style="fill:#ffffff;fill-opacity:1;fill-rule:nonzero;stroke:none"
         id="path194"
         inkscape:connector-curvature="0" /></g><g
       id="g196"
       transform="matrix(5.0703511,0,0,5.0703511,181.78381,574.31469)"><path
         d="m 0,0 c 0,-0.226 -0.183,-0.408 -0.409,-0.408 -0.225,0 -0.408,0.182 -0.408,0.408 0,0.226 0.183,0.409 0.408,0.409 C -0.183,0.409 0,0.226 0,0 z"
         style="fill:none;stroke:#004798;stroke-width:0.105;stroke-linecap:butt;stroke-linejoin:round;stroke-miterlimit:4;stroke-opacity:1;stroke-dasharray:none"
         id="path198"
         inkscape:connector-curvature="0" /></g><g
       id="g200"
       transform="matrix(5.0703511,0,0,5.0703511,176.22163,570.61333)"><path
         d="m 0,0 c 0,-0.226 -0.183,-0.408 -0.408,-0.408 -0.226,0 -0.409,0.182 -0.409,0.408 0,0.226 0.183,0.409 0.409,0.409 C -0.183,0.409 0,0.226 0,0"
         style="fill:#ffffff;fill-opacity:1;fill-rule:nonzero;stroke:none"
         id="path202"
         inkscape:connector-curvature="0" /></g><g
       id="g204"
       transform="matrix(5.0703511,0,0,5.0703511,176.22163,570.61333)"><path
         d="m 0,0 c 0,-0.226 -0.183,-0.408 -0.408,-0.408 -0.226,0 -0.409,0.182 -0.409,0.408 0,0.226 0.183,0.409 0.409,0.409 C -0.183,0.409 0,0.226 0,0 z"
         style="fill:none;stroke:#004798;stroke-width:0.105;stroke-linecap:butt;stroke-linejoin:round;stroke-miterlimit:4;stroke-opacity:1;stroke-dasharray:none"
         id="path206"
         inkscape:connector-curvature="0" /></g><g
       id="g208"
       transform="matrix(5.0703511,0,0,5.0703511,171.97775,565.72045)"><path
         d="m 0,0 c 0,-0.226 -0.183,-0.408 -0.409,-0.408 -0.226,0 -0.408,0.182 -0.408,0.408 0,0.226 0.182,0.409 0.408,0.409 C -0.183,0.409 0,0.226 0,0"
         style="fill:#ffffff;fill-opacity:1;fill-rule:nonzero;stroke:none"
         id="path210"
         inkscape:connector-curvature="0" /></g><g
       id="g212"
       transform="matrix(5.0703511,0,0,5.0703511,171.97775,565.72045)"><path
         d="m 0,0 c 0,-0.226 -0.183,-0.408 -0.409,-0.408 -0.226,0 -0.408,0.182 -0.408,0.408 0,0.226 0.182,0.409 0.408,0.409 C -0.183,0.409 0,0.226 0,0 z"
         style="fill:none;stroke:#004798;stroke-width:0.105;stroke-linecap:butt;stroke-linejoin:round;stroke-miterlimit:4;stroke-opacity:1;stroke-dasharray:none"
         id="path214"
         inkscape:connector-curvature="0" /></g><g
       id="g216"
       transform="matrix(5.0703511,0,0,5.0703511,166.17726,566.2072)"><path
         d="m 0,0 c 0,-0.226 -0.183,-0.409 -0.408,-0.409 -0.227,0 -0.409,0.183 -0.409,0.409 0,0.226 0.182,0.408 0.409,0.408 C -0.183,0.408 0,0.226 0,0"
         style="fill:#ffffff;fill-opacity:1;fill-rule:nonzero;stroke:none"
         id="path218"
         inkscape:connector-curvature="0" /></g><g
       id="g220"
       transform="matrix(5.0703511,0,0,5.0703511,166.17726,566.2072)"><path
         d="m 0,0 c 0,-0.226 -0.183,-0.409 -0.408,-0.409 -0.227,0 -0.409,0.183 -0.409,0.409 0,0.226 0.182,0.408 0.409,0.408 C -0.183,0.408 0,0.226 0,0 z"
         style="fill:none;stroke:#004798;stroke-width:0.105;stroke-linecap:butt;stroke-linejoin:round;stroke-miterlimit:4;stroke-opacity:1;stroke-dasharray:none"
         id="path222"
         inkscape:connector-curvature="0" /></g><g
       id="g224"
       transform="matrix(5.0703511,0,0,5.0703511,160.4934,563.98131)"><path
         d="m 0,0 c 0,-0.226 -0.183,-0.409 -0.408,-0.409 -0.226,0 -0.409,0.183 -0.409,0.409 0,0.226 0.183,0.409 0.409,0.409 C -0.183,0.409 0,0.226 0,0"
         style="fill:#ffffff;fill-opacity:1;fill-rule:nonzero;stroke:none"
         id="path226"
         inkscape:connector-curvature="0" /></g><g
       id="g228"
       transform="matrix(5.0703511,0,0,5.0703511,160.4934,563.98131)"><path
         d="m 0,0 c 0,-0.226 -0.183,-0.409 -0.408,-0.409 -0.226,0 -0.409,0.183 -0.409,0.409 0,0.226 0.183,0.409 0.409,0.409 C -0.183,0.409 0,0.226 0,0 z"
         style="fill:none;stroke:#004798;stroke-width:0.105;stroke-linecap:butt;stroke-linejoin:round;stroke-miterlimit:4;stroke-opacity:1;stroke-dasharray:none"
         id="path230"
         inkscape:connector-curvature="0" /></g><g
       id="g232"
       transform="matrix(5.0703511,0,0,5.0703511,155.20502,560.14306)"><path
         d="m 0,0 c 0,-0.226 -0.183,-0.409 -0.408,-0.409 -0.227,0 -0.409,0.183 -0.409,0.409 0,0.226 0.182,0.408 0.409,0.408 C -0.183,0.408 0,0.226 0,0"
         style="fill:#ffffff;fill-opacity:1;fill-rule:nonzero;stroke:none"
         id="path234"
         inkscape:connector-curvature="0" /></g><g
       id="g236"
       transform="matrix(5.0703511,0,0,5.0703511,155.20502,560.14306)"><path
         d="m 0,0 c 0,-0.226 -0.183,-0.409 -0.408,-0.409 -0.227,0 -0.409,0.183 -0.409,0.409 0,0.226 0.182,0.408 0.409,0.408 C -0.183,0.408 0,0.226 0,0 z"
         style="fill:none;stroke:#004798;stroke-width:0.105;stroke-linecap:butt;stroke-linejoin:round;stroke-miterlimit:4;stroke-opacity:1;stroke-dasharray:none"
         id="path238"
         inkscape:connector-curvature="0" /></g><g
       id="g240"
       transform="matrix(5.0703511,0,0,5.0703511,150.91044,555.08792)"><path
         d="m 0,0 c 0,-0.226 -0.183,-0.409 -0.409,-0.409 -0.226,0 -0.408,0.183 -0.408,0.409 0,0.226 0.182,0.409 0.408,0.409 C -0.183,0.409 0,0.226 0,0"
         style="fill:#ffffff;fill-opacity:1;fill-rule:nonzero;stroke:none"
         id="path242"
         inkscape:connector-curvature="0" /></g><g
       id="g244"
       transform="matrix(5.0703511,0,0,5.0703511,150.91044,555.08792)"><path
         d="m 0,0 c 0,-0.226 -0.183,-0.409 -0.409,-0.409 -0.226,0 -0.408,0.183 -0.408,0.409 0,0.226 0.182,0.409 0.408,0.409 C -0.183,0.409 0,0.226 0,0 z"
         style="fill:none;stroke:#004798;stroke-width:0.105;stroke-linecap:butt;stroke-linejoin:round;stroke-miterlimit:4;stroke-opacity:1;stroke-dasharray:none"
         id="path246"
         inkscape:connector-curvature="0" /></g><g
       id="g248"
       transform="matrix(5.0703511,0,0,5.0703511,148.20287,549.40406)"><path
         d="m 0,0 c 0,-0.226 -0.183,-0.409 -0.409,-0.409 -0.226,0 -0.409,0.183 -0.409,0.409 0,0.226 0.183,0.408 0.409,0.408 C -0.183,0.408 0,0.226 0,0"
         style="fill:#ffffff;fill-opacity:1;fill-rule:nonzero;stroke:none"
         id="path250"
         inkscape:connector-curvature="0" /></g><g
       id="g252"
       transform="matrix(5.0703511,0,0,5.0703511,148.20287,549.40406)"><path
         d="m 0,0 c 0,-0.226 -0.183,-0.409 -0.409,-0.409 -0.226,0 -0.409,0.183 -0.409,0.409 0,0.226 0.183,0.408 0.409,0.408 C -0.183,0.408 0,0.226 0,0 z"
         style="fill:none;stroke:#004798;stroke-width:0.105;stroke-linecap:butt;stroke-linejoin:round;stroke-miterlimit:4;stroke-opacity:1;stroke-dasharray:none"
         id="path254"
         inkscape:connector-curvature="0" /></g><g
       id="g256"
       transform="matrix(5.0703511,0,0,5.0703511,146.70205,542.92922)"><path
         d="m 0,0 c 0,-0.226 -0.183,-0.409 -0.408,-0.409 -0.227,0 -0.409,0.183 -0.409,0.409 0,0.226 0.182,0.408 0.409,0.408 C -0.183,0.408 0,0.226 0,0"
         style="fill:#ffffff;fill-opacity:1;fill-rule:nonzero;stroke:none"
         id="path258"
         inkscape:connector-curvature="0" /></g><g
       id="g260"
       transform="matrix(5.0703511,0,0,5.0703511,146.70205,542.92922)"><path
         d="m 0,0 c 0,-0.226 -0.183,-0.409 -0.408,-0.409 -0.227,0 -0.409,0.183 -0.409,0.409 0,0.226 0.182,0.408 0.409,0.408 C -0.183,0.408 0,0.226 0,0 z"
         style="fill:none;stroke:#004798;stroke-width:0.105;stroke-linecap:butt;stroke-linejoin:round;stroke-miterlimit:4;stroke-opacity:1;stroke-dasharray:none"
         id="path262"
         inkscape:connector-curvature="0" /></g><g
       id="g264"
       transform="matrix(5.0703511,0,0,5.0703511,187.59443,529.61955)"><path
         d="m 0,0 c 0,-0.226 -0.183,-0.409 -0.409,-0.409 -0.226,0 -0.409,0.183 -0.409,0.409 0,0.226 0.183,0.408 0.409,0.408 C -0.183,0.408 0,0.226 0,0"
         style="fill:#ffffff;fill-opacity:1;fill-rule:nonzero;stroke:none"
         id="path266"
         inkscape:connector-curvature="0" /></g><g
       id="g268"
       transform="matrix(5.0703511,0,0,5.0703511,187.59443,529.61955)"><path
         d="m 0,0 c 0,-0.226 -0.183,-0.409 -0.409,-0.409 -0.226,0 -0.409,0.183 -0.409,0.409 0,0.226 0.183,0.408 0.409,0.408 C -0.183,0.408 0,0.226 0,0 z"
         style="fill:none;stroke:#004798;stroke-width:0.105;stroke-linecap:butt;stroke-linejoin:round;stroke-miterlimit:4;stroke-opacity:1;stroke-dasharray:none"
         id="path270"
         inkscape:connector-curvature="0" /></g><g
       id="g272"
       transform="matrix(5.0703511,0,0,5.0703511,165.17841,523.56555)"><path
         d="m 0,0 c 0,-0.226 -0.183,-0.409 -0.409,-0.409 -0.225,0 -0.408,0.183 -0.408,0.409 0,0.226 0.183,0.409 0.408,0.409 C -0.183,0.409 0,0.226 0,0"
         style="fill:#ffffff;fill-opacity:1;fill-rule:nonzero;stroke:none"
         id="path274"
         inkscape:connector-curvature="0" /></g><g
       id="g276"
       transform="matrix(5.0703511,0,0,5.0703511,165.17841,523.56555)"><path
         d="m 0,0 c 0,-0.226 -0.183,-0.409 -0.409,-0.409 -0.225,0 -0.408,0.183 -0.408,0.409 0,0.226 0.183,0.409 0.408,0.409 C -0.183,0.409 0,0.226 0,0 z"
         style="fill:none;stroke:#004798;stroke-width:0.105;stroke-linecap:butt;stroke-linejoin:round;stroke-miterlimit:4;stroke-opacity:1;stroke-dasharray:none"
         id="path278"
         inkscape:connector-curvature="0" /></g><g
       id="g280"
       transform="matrix(5.0703511,0,0,5.0703511,169.13328,560.0163)"><path
         d="m 0,0 c 0,-0.226 -0.183,-0.409 -0.409,-0.409 -0.225,0 -0.408,0.183 -0.408,0.409 0,0.226 0.183,0.409 0.408,0.409 C -0.183,0.409 0,0.226 0,0"
         style="fill:#ffffff;fill-opacity:1;fill-rule:nonzero;stroke:none"
         id="path282"
         inkscape:connector-curvature="0" /></g><g
       id="g284"
       transform="matrix(5.0703511,0,0,5.0703511,169.13328,560.0163)"><path
         d="m 0,0 c 0,-0.226 -0.183,-0.409 -0.409,-0.409 -0.225,0 -0.408,0.183 -0.408,0.409 0,0.226 0.183,0.409 0.408,0.409 C -0.183,0.409 0,0.226 0,0 z"
         style="fill:none;stroke:#004798;stroke-width:0.105;stroke-linecap:butt;stroke-linejoin:round;stroke-miterlimit:4;stroke-opacity:1;stroke-dasharray:none"
         id="path286"
         inkscape:connector-curvature="0" /></g><g
       id="g288"
       transform="matrix(5.0703511,0,0,5.0703511,167.62738,553.53132)"><path
         d="m 0,0 c 0,-0.226 -0.183,-0.408 -0.409,-0.408 -0.226,0 -0.408,0.182 -0.408,0.408 0,0.226 0.182,0.409 0.408,0.409 C -0.183,0.409 0,0.226 0,0"
         style="fill:#ffffff;fill-opacity:1;fill-rule:nonzero;stroke:none"
         id="path290"
         inkscape:connector-curvature="0" /></g><g
       id="g292"
       transform="matrix(5.0703511,0,0,5.0703511,167.62738,553.53132)"><path
         d="m 0,0 c 0,-0.226 -0.183,-0.408 -0.409,-0.408 -0.226,0 -0.408,0.182 -0.408,0.408 0,0.226 0.182,0.409 0.408,0.409 C -0.183,0.409 0,0.226 0,0 z"
         style="fill:none;stroke:#004798;stroke-width:0.105;stroke-linecap:butt;stroke-linejoin:round;stroke-miterlimit:4;stroke-opacity:1;stroke-dasharray:none"
         id="path294"
         inkscape:connector-curvature="0" /></g><g
       id="g296"
       transform="matrix(5.0703511,0,0,5.0703511,200.66072,549.31279)"><path
         d="m 0,0 c 0,-0.383 -0.311,-0.693 -0.694,-0.693 -0.382,0 -0.693,0.31 -0.693,0.693 0,0.383 0.311,0.694 0.693,0.694 C -0.311,0.694 0,0.383 0,0"
         style="fill:#ffffff;fill-opacity:1;fill-rule:nonzero;stroke:none"
         id="path298"
         inkscape:connector-curvature="0" /></g><g
       id="g300"
       transform="matrix(5.0703511,0,0,5.0703511,200.66072,549.31279)"><path
         d="m 0,0 c 0,-0.383 -0.311,-0.693 -0.694,-0.693 -0.382,0 -0.693,0.31 -0.693,0.693 0,0.383 0.311,0.694 0.693,0.694 C -0.311,0.694 0,0.383 0,0 z"
         style="fill:none;stroke:#004798;stroke-width:0.105;stroke-linecap:butt;stroke-linejoin:round;stroke-miterlimit:4;stroke-opacity:1;stroke-dasharray:none"
         id="path302"
         inkscape:connector-curvature="0" /></g><g
       id="g304"
       transform="matrix(5.0703511,0,0,5.0703511,172.73323,546.67114)"><path
         d="m 0,0 c 0.095,-0.371 -0.128,-0.748 -0.499,-0.844 -0.371,-0.095 -0.749,0.128 -0.845,0.499 -0.095,0.371 0.128,0.749 0.5,0.844 C -0.474,0.595 -0.096,0.372 0,0"
         style="fill:#ffffff;fill-opacity:1;fill-rule:nonzero;stroke:none"
         id="path306"
         inkscape:connector-curvature="0" /></g><g
       id="g308"
       transform="matrix(5.0703511,0,0,5.0703511,172.73323,546.67114)"><path
         d="m 0,0 c 0.095,-0.371 -0.128,-0.748 -0.499,-0.844 -0.371,-0.095 -0.749,0.128 -0.845,0.499 -0.095,0.371 0.128,0.749 0.5,0.844 C -0.474,0.595 -0.096,0.372 0,0 z"
         style="fill:none;stroke:#004798;stroke-width:0.105;stroke-linecap:butt;stroke-linejoin:round;stroke-miterlimit:4;stroke-opacity:1;stroke-dasharray:none"
         id="path310"
         inkscape:connector-curvature="0" /></g><g
       id="g312"
       transform="matrix(5.0703511,0,0,5.0703511,148.41075,536.16537)"><path
         d="M 0,0 C 0.185,-0.335 0.063,-0.757 -0.273,-0.942 -0.609,-1.127 -1.03,-1.004 -1.215,-0.669 -1.4,-0.333 -1.277,0.088 -0.942,0.273 -0.606,0.458 -0.185,0.336 0,0"
         style="fill:#ffffff;fill-opacity:1;fill-rule:nonzero;stroke:none"
         id="path314"
         inkscape:connector-curvature="0" /></g><g
       id="g316"
       transform="matrix(5.0703511,0,0,5.0703511,148.41075,536.16537)"><path
         d="M 0,0 C 0.185,-0.335 0.063,-0.757 -0.273,-0.942 -0.609,-1.127 -1.03,-1.004 -1.215,-0.669 -1.4,-0.333 -1.277,0.088 -0.942,0.273 -0.606,0.458 -0.185,0.336 0,0 z"
         style="fill:none;stroke:#004798;stroke-width:0.105;stroke-linecap:butt;stroke-linejoin:round;stroke-miterlimit:4;stroke-opacity:1;stroke-dasharray:none"
         id="path318"
         inkscape:connector-curvature="0" /></g><g
       id="g320"
       transform="matrix(5.0703511,0,0,5.0703511,200.8179,577.48873)"><path
         d="m 0,0 c 0,-0.226 0.183,-0.408 0.408,-0.408 0.227,0 0.409,0.182 0.409,0.408 0,0.226 -0.182,0.409 -0.409,0.409 C 0.183,0.409 0,0.226 0,0"
         style="fill:#ffffff;fill-opacity:1;fill-rule:nonzero;stroke:none"
         id="path322"
         inkscape:connector-curvature="0" /></g><g
       id="g324"
       transform="matrix(5.0703511,0,0,5.0703511,200.8179,577.48873)"><path
         d="m 0,0 c 0,-0.226 0.183,-0.408 0.408,-0.408 0.227,0 0.409,0.182 0.409,0.408 0,0.226 -0.182,0.409 -0.409,0.409 C 0.183,0.409 0,0.226 0,0 z"
         style="fill:none;stroke:#004798;stroke-width:0.105;stroke-linecap:butt;stroke-linejoin:round;stroke-miterlimit:4;stroke-opacity:1;stroke-dasharray:none"
         id="path326"
         inkscape:connector-curvature="0" /></g><g
       id="g328"
       transform="matrix(5.0703511,0,0,5.0703511,206.74007,576.45438)"><path
         d="m 0,0 c 0,-0.226 0.182,-0.408 0.408,-0.408 0.226,0 0.409,0.182 0.409,0.408 0,0.226 -0.183,0.409 -0.409,0.409 C 0.182,0.409 0,0.226 0,0"
         style="fill:#ffffff;fill-opacity:1;fill-rule:nonzero;stroke:none"
         id="path330"
         inkscape:connector-curvature="0" /></g><g
       id="g332"
       transform="matrix(5.0703511,0,0,5.0703511,206.74007,576.45438)"><path
         d="m 0,0 c 0,-0.226 0.182,-0.408 0.408,-0.408 0.226,0 0.409,0.182 0.409,0.408 0,0.226 -0.183,0.409 -0.409,0.409 C 0.182,0.409 0,0.226 0,0 z"
         style="fill:none;stroke:#004798;stroke-width:0.105;stroke-linecap:butt;stroke-linejoin:round;stroke-miterlimit:4;stroke-opacity:1;stroke-dasharray:none"
         id="path334"
         inkscape:connector-curvature="0" /></g><g
       id="g336"
       transform="matrix(5.0703511,0,0,5.0703511,212.50506,574.31469)"><path
         d="m 0,0 c 0,-0.226 0.182,-0.408 0.408,-0.408 0.227,0 0.409,0.182 0.409,0.408 0,0.226 -0.182,0.409 -0.409,0.409 C 0.182,0.409 0,0.226 0,0"
         style="fill:#ffffff;fill-opacity:1;fill-rule:nonzero;stroke:none"
         id="path338"
         inkscape:connector-curvature="0" /></g><g
       id="g340"
       transform="matrix(5.0703511,0,0,5.0703511,212.50506,574.31469)"><path
         d="m 0,0 c 0,-0.226 0.182,-0.408 0.408,-0.408 0.227,0 0.409,0.182 0.409,0.408 0,0.226 -0.182,0.409 -0.409,0.409 C 0.182,0.409 0,0.226 0,0 z"
         style="fill:none;stroke:#004798;stroke-width:0.105;stroke-linecap:butt;stroke-linejoin:round;stroke-miterlimit:4;stroke-opacity:1;stroke-dasharray:none"
         id="path342"
         inkscape:connector-curvature="0" /></g><g
       id="g344"
       transform="matrix(5.0703511,0,0,5.0703511,218.06724,570.61333)"><path
         d="m 0,0 c 0,-0.226 0.183,-0.408 0.408,-0.408 0.227,0 0.409,0.182 0.409,0.408 0,0.226 -0.182,0.409 -0.409,0.409 C 0.183,0.409 0,0.226 0,0"
         style="fill:#ffffff;fill-opacity:1;fill-rule:nonzero;stroke:none"
         id="path346"
         inkscape:connector-curvature="0" /></g><g
       id="g348"
       transform="matrix(5.0703511,0,0,5.0703511,218.06724,570.61333)"><path
         d="m 0,0 c 0,-0.226 0.183,-0.408 0.408,-0.408 0.227,0 0.409,0.182 0.409,0.408 0,0.226 -0.182,0.409 -0.409,0.409 C 0.183,0.409 0,0.226 0,0 z"
         style="fill:none;stroke:#004798;stroke-width:0.105;stroke-linecap:butt;stroke-linejoin:round;stroke-miterlimit:4;stroke-opacity:1;stroke-dasharray:none"
         id="path350"
         inkscape:connector-curvature="0" /></g><g
       id="g352"
       transform="matrix(5.0703511,0,0,5.0703511,222.31112,565.72045)"><path
         d="m 0,0 c 0,-0.226 0.183,-0.408 0.409,-0.408 0.226,0 0.408,0.182 0.408,0.408 0,0.226 -0.182,0.409 -0.408,0.409 C 0.183,0.409 0,0.226 0,0"
         style="fill:#ffffff;fill-opacity:1;fill-rule:nonzero;stroke:none"
         id="path354"
         inkscape:connector-curvature="0" /></g><g
       id="g356"
       transform="matrix(5.0703511,0,0,5.0703511,222.31112,565.72045)"><path
         d="m 0,0 c 0,-0.226 0.183,-0.408 0.409,-0.408 0.226,0 0.408,0.182 0.408,0.408 0,0.226 -0.182,0.409 -0.408,0.409 C 0.183,0.409 0,0.226 0,0 z"
         style="fill:none;stroke:#004798;stroke-width:0.105;stroke-linecap:butt;stroke-linejoin:round;stroke-miterlimit:4;stroke-opacity:1;stroke-dasharray:none"
         id="path358"
         inkscape:connector-curvature="0" /></g><g
       id="g360"
       transform="matrix(5.0703511,0,0,5.0703511,228.1116,566.2072)"><path
         d="m 0,0 c 0,-0.226 0.183,-0.409 0.409,-0.409 0.226,0 0.408,0.183 0.408,0.409 0,0.226 -0.182,0.408 -0.408,0.408 C 0.183,0.408 0,0.226 0,0"
         style="fill:#ffffff;fill-opacity:1;fill-rule:nonzero;stroke:none"
         id="path362"
         inkscape:connector-curvature="0" /></g><g
       id="g364"
       transform="matrix(5.0703511,0,0,5.0703511,228.1116,566.2072)"><path
         d="m 0,0 c 0,-0.226 0.183,-0.409 0.409,-0.409 0.226,0 0.408,0.183 0.408,0.409 0,0.226 -0.182,0.408 -0.408,0.408 C 0.183,0.408 0,0.226 0,0 z"
         style="fill:none;stroke:#004798;stroke-width:0.105;stroke-linecap:butt;stroke-linejoin:round;stroke-miterlimit:4;stroke-opacity:1;stroke-dasharray:none"
         id="path366"
         inkscape:connector-curvature="0" /></g><g
       id="g368"
       transform="matrix(5.0703511,0,0,5.0703511,233.79547,563.98131)"><path
         d="m 0,0 c 0,-0.226 0.182,-0.409 0.408,-0.409 0.226,0 0.409,0.183 0.409,0.409 0,0.226 -0.183,0.409 -0.409,0.409 C 0.182,0.409 0,0.226 0,0"
         style="fill:#ffffff;fill-opacity:1;fill-rule:nonzero;stroke:none"
         id="path370"
         inkscape:connector-curvature="0" /></g><g
       id="g372"
       transform="matrix(5.0703511,0,0,5.0703511,233.79547,563.98131)"><path
         d="m 0,0 c 0,-0.226 0.182,-0.409 0.408,-0.409 0.226,0 0.409,0.183 0.409,0.409 0,0.226 -0.183,0.409 -0.409,0.409 C 0.182,0.409 0,0.226 0,0 z"
         style="fill:none;stroke:#004798;stroke-width:0.105;stroke-linecap:butt;stroke-linejoin:round;stroke-miterlimit:4;stroke-opacity:1;stroke-dasharray:none"
         id="path374"
         inkscape:connector-curvature="0" /></g><g
       id="g376"
       transform="matrix(5.0703511,0,0,5.0703511,239.08384,560.14306)"><path
         d="m 0,0 c 0,-0.226 0.183,-0.409 0.409,-0.409 0.226,0 0.408,0.183 0.408,0.409 0,0.226 -0.182,0.408 -0.408,0.408 C 0.183,0.408 0,0.226 0,0"
         style="fill:#ffffff;fill-opacity:1;fill-rule:nonzero;stroke:none"
         id="path378"
         inkscape:connector-curvature="0" /></g><g
       id="g380"
       transform="matrix(5.0703511,0,0,5.0703511,239.08384,560.14306)"><path
         d="m 0,0 c 0,-0.226 0.183,-0.409 0.409,-0.409 0.226,0 0.408,0.183 0.408,0.409 0,0.226 -0.182,0.408 -0.408,0.408 C 0.183,0.408 0,0.226 0,0 z"
         style="fill:none;stroke:#004798;stroke-width:0.105;stroke-linecap:butt;stroke-linejoin:round;stroke-miterlimit:4;stroke-opacity:1;stroke-dasharray:none"
         id="path382"
         inkscape:connector-curvature="0" /></g><g
       id="g384"
       transform="matrix(5.0703511,0,0,5.0703511,243.37843,555.08792)"><path
         d="m 0,0 c 0,-0.226 0.183,-0.409 0.409,-0.409 0.226,0 0.409,0.183 0.409,0.409 0,0.226 -0.183,0.409 -0.409,0.409 C 0.183,0.409 0,0.226 0,0"
         style="fill:#ffffff;fill-opacity:1;fill-rule:nonzero;stroke:none"
         id="path386"
         inkscape:connector-curvature="0" /></g><g
       id="g388"
       transform="matrix(5.0703511,0,0,5.0703511,243.37843,555.08792)"><path
         d="m 0,0 c 0,-0.226 0.183,-0.409 0.409,-0.409 0.226,0 0.409,0.183 0.409,0.409 0,0.226 -0.183,0.409 -0.409,0.409 C 0.183,0.409 0,0.226 0,0 z"
         style="fill:none;stroke:#004798;stroke-width:0.105;stroke-linecap:butt;stroke-linejoin:round;stroke-miterlimit:4;stroke-opacity:1;stroke-dasharray:none"
         id="path390"
         inkscape:connector-curvature="0" /></g><g
       id="g392"
       transform="matrix(5.0703511,0,0,5.0703511,246.086,549.40406)"><path
         d="m 0,0 c 0,-0.226 0.183,-0.409 0.409,-0.409 0.226,0 0.409,0.183 0.409,0.409 0,0.226 -0.183,0.408 -0.409,0.408 C 0.183,0.408 0,0.226 0,0"
         style="fill:#ffffff;fill-opacity:1;fill-rule:nonzero;stroke:none"
         id="path394"
         inkscape:connector-curvature="0" /></g><g
       id="g396"
       transform="matrix(5.0703511,0,0,5.0703511,246.086,549.40406)"><path
         d="m 0,0 c 0,-0.226 0.183,-0.409 0.409,-0.409 0.226,0 0.409,0.183 0.409,0.409 0,0.226 -0.183,0.408 -0.409,0.408 C 0.183,0.408 0,0.226 0,0 z"
         style="fill:none;stroke:#004798;stroke-width:0.105;stroke-linecap:butt;stroke-linejoin:round;stroke-miterlimit:4;stroke-opacity:1;stroke-dasharray:none"
         id="path398"
         inkscape:connector-curvature="0" /></g><g
       id="g400"
       transform="matrix(5.0703511,0,0,5.0703511,247.58682,542.92922)"><path
         d="m 0,0 c 0,-0.226 0.183,-0.409 0.41,-0.409 0.225,0 0.407,0.183 0.407,0.409 0,0.226 -0.182,0.408 -0.407,0.408 C 0.183,0.408 0,0.226 0,0"
         style="fill:#ffffff;fill-opacity:1;fill-rule:nonzero;stroke:none"
         id="path402"
         inkscape:connector-curvature="0" /></g><g
       id="g404"
       transform="matrix(5.0703511,0,0,5.0703511,247.58682,542.92922)"><path
         d="m 0,0 c 0,-0.226 0.183,-0.409 0.41,-0.409 0.225,0 0.407,0.183 0.407,0.409 0,0.226 -0.182,0.408 -0.407,0.408 C 0.183,0.408 0,0.226 0,0 z"
         style="fill:none;stroke:#004798;stroke-width:0.105;stroke-linecap:butt;stroke-linejoin:round;stroke-miterlimit:4;stroke-opacity:1;stroke-dasharray:none"
         id="path406"
         inkscape:connector-curvature="0" /></g><g
       id="g408"
       transform="matrix(5.0703511,0,0,5.0703511,225.15559,560.0163)"><path
         d="m 0,0 c 0,-0.226 0.183,-0.409 0.409,-0.409 0.225,0 0.408,0.183 0.408,0.409 0,0.226 -0.183,0.409 -0.408,0.409 C 0.183,0.409 0,0.226 0,0"
         style="fill:#ffffff;fill-opacity:1;fill-rule:nonzero;stroke:none"
         id="path410"
         inkscape:connector-curvature="0" /></g><g
       id="g412"
       transform="matrix(5.0703511,0,0,5.0703511,225.15559,560.0163)"><path
         d="m 0,0 c 0,-0.226 0.183,-0.409 0.409,-0.409 0.225,0 0.408,0.183 0.408,0.409 0,0.226 -0.183,0.409 -0.408,0.409 C 0.183,0.409 0,0.226 0,0 z"
         style="fill:none;stroke:#004798;stroke-width:0.105;stroke-linecap:butt;stroke-linejoin:round;stroke-miterlimit:4;stroke-opacity:1;stroke-dasharray:none"
         id="path414"
         inkscape:connector-curvature="0" /></g><g
       id="g416"
       transform="matrix(5.0703511,0,0,5.0703511,226.66148,553.53132)"><path
         d="m 0,0 c 0,-0.226 0.183,-0.408 0.409,-0.408 0.226,0 0.409,0.182 0.409,0.408 0,0.226 -0.183,0.409 -0.409,0.409 C 0.183,0.409 0,0.226 0,0"
         style="fill:#ffffff;fill-opacity:1;fill-rule:nonzero;stroke:none"
         id="path418"
         inkscape:connector-curvature="0" /></g><g
       id="g420"
       transform="matrix(5.0703511,0,0,5.0703511,226.66148,553.53132)"><path
         d="m 0,0 c 0,-0.226 0.183,-0.408 0.409,-0.408 0.226,0 0.409,0.182 0.409,0.408 0,0.226 -0.183,0.409 -0.409,0.409 C 0.183,0.409 0,0.226 0,0 z"
         style="fill:none;stroke:#004798;stroke-width:0.105;stroke-linecap:butt;stroke-linejoin:round;stroke-miterlimit:4;stroke-opacity:1;stroke-dasharray:none"
         id="path422"
         inkscape:connector-curvature="0" /></g><g
       id="g424"
       transform="matrix(5.0703511,0,0,5.0703511,221.56071,546.67114)"><path
         d="M 0,0 C -0.096,-0.371 0.128,-0.748 0.499,-0.844 0.87,-0.939 1.247,-0.716 1.343,-0.345 1.438,0.026 1.215,0.404 0.844,0.499 0.473,0.595 0.095,0.372 0,0"
         style="fill:#ffffff;fill-opacity:1;fill-rule:nonzero;stroke:none"
         id="path426"
         inkscape:connector-curvature="0" /></g><g
       id="g428"
       transform="matrix(5.0703511,0,0,5.0703511,221.56071,546.67114)"><path
         d="M 0,0 C -0.096,-0.371 0.128,-0.748 0.499,-0.844 0.87,-0.939 1.247,-0.716 1.343,-0.345 1.438,0.026 1.215,0.404 0.844,0.499 0.473,0.595 0.095,0.372 0,0 z"
         style="fill:none;stroke:#004798;stroke-width:0.105;stroke-linecap:butt;stroke-linejoin:round;stroke-miterlimit:4;stroke-opacity:1;stroke-dasharray:none"
         id="path430"
         inkscape:connector-curvature="0" /></g><g
       id="g432"
       transform="matrix(5.0703511,0,0,5.0703511,245.88318,536.16537)"><path
         d="M 0,0 C -0.185,-0.335 -0.063,-0.757 0.272,-0.942 0.609,-1.127 1.03,-1.004 1.215,-0.669 1.4,-0.333 1.278,0.088 0.942,0.273 0.606,0.458 0.184,0.336 0,0"
         style="fill:#ffffff;fill-opacity:1;fill-rule:nonzero;stroke:none"
         id="path434"
         inkscape:connector-curvature="0" /></g><g
       id="g436"
       transform="matrix(5.0703511,0,0,5.0703511,245.88318,536.16537)"><path
         d="M 0,0 C -0.185,-0.335 -0.063,-0.757 0.272,-0.942 0.609,-1.127 1.03,-1.004 1.215,-0.669 1.4,-0.333 1.278,0.088 0.942,0.273 0.606,0.458 0.184,0.336 0,0 z"
         style="fill:none;stroke:#004798;stroke-width:0.105;stroke-linecap:butt;stroke-linejoin:round;stroke-miterlimit:4;stroke-opacity:1;stroke-dasharray:none"
         id="path438"
         inkscape:connector-curvature="0" /></g><g
       id="g440"
       transform="matrix(5.0703511,0,0,5.0703511,197.14697,527.76887)"><path
         d="M 0,0 1.291,0.481 0,0.962 -1.29,0.481 0,0"
         style="fill:#e7223f;fill-opacity:1;fill-rule:nonzero;stroke:none"
         id="path442"
         inkscape:connector-curvature="0" /></g><g
       id="g444"
       transform="matrix(5.0703511,0,0,5.0703511,197.14697,527.76887)"><path
         d="M 0,0 1.291,0.481 0,0.962 -1.29,0.481 0,0 z"
         style="fill:none;stroke:#004798;stroke-width:0.105;stroke-linecap:butt;stroke-linejoin:round;stroke-miterlimit:4;stroke-opacity:1;stroke-dasharray:none"
         id="path446"
         inkscape:connector-curvature="0" /></g><g
       id="g448"
       transform="matrix(5.0703511,0,0,5.0703511,174.78672,524.94975)"><path
         d="M 0,0 1.129,0.788 -0.24,0.932 -1.37,0.145 0,0"
         style="fill:#004798;fill-opacity:1;fill-rule:nonzero;stroke:none"
         id="path450"
         inkscape:connector-curvature="0" /></g><g
       id="g452"
       transform="matrix(5.0703511,0,0,5.0703511,174.78672,524.94975)"><path
         d="M 0,0 1.129,0.788 -0.24,0.932 -1.37,0.145 0,0 z"
         style="fill:none;stroke:#004798;stroke-width:0.105;stroke-linecap:butt;stroke-linejoin:round;stroke-miterlimit:4;stroke-opacity:1;stroke-dasharray:none"
         id="path454"
         inkscape:connector-curvature="0" /></g><g
       id="g456"
       transform="matrix(5.0703511,0,0,5.0703511,158.7492,519.17969)"><path
         d="M 0,0 0.168,0.658 -0.411,0.871 -0.549,0.306 0,0"
         style="fill:#e7223f;fill-opacity:1;fill-rule:nonzero;stroke:none"
         id="path458"
         inkscape:connector-curvature="0" /></g><g
       id="g460"
       transform="matrix(5.0703511,0,0,5.0703511,158.7492,519.17969)"><path
         d="M 0,0 0.168,0.658 -0.411,0.871 -0.549,0.306 0,0 z"
         style="fill:none;stroke:#004798;stroke-width:0.105;stroke-linecap:butt;stroke-linejoin:round;stroke-miterlimit:4;stroke-opacity:1;stroke-dasharray:none"
         id="path462"
         inkscape:connector-curvature="0" /></g><g
       id="g464"
       transform="matrix(5.0703511,0,0,5.0703511,206.69951,529.61955)"><path
         d="m 0,0 c 0,-0.226 0.183,-0.409 0.408,-0.409 0.227,0 0.41,0.183 0.41,0.409 0,0.226 -0.183,0.408 -0.41,0.408 C 0.183,0.408 0,0.226 0,0"
         style="fill:#ffffff;fill-opacity:1;fill-rule:nonzero;stroke:none"
         id="path466"
         inkscape:connector-curvature="0" /></g><g
       id="g468"
       transform="matrix(5.0703511,0,0,5.0703511,206.69951,529.61955)"><path
         d="m 0,0 c 0,-0.226 0.183,-0.409 0.408,-0.409 0.227,0 0.41,0.183 0.41,0.409 0,0.226 -0.183,0.408 -0.41,0.408 C 0.183,0.408 0,0.226 0,0 z"
         style="fill:none;stroke:#004798;stroke-width:0.105;stroke-linecap:butt;stroke-linejoin:round;stroke-miterlimit:4;stroke-opacity:1;stroke-dasharray:none"
         id="path470"
         inkscape:connector-curvature="0" /></g><g
       id="g472"
       transform="matrix(5.0703511,0,0,5.0703511,229.11553,523.56555)"><path
         d="m 0,0 c 0,-0.226 0.183,-0.409 0.408,-0.409 0.227,0 0.409,0.183 0.409,0.409 0,0.226 -0.182,0.409 -0.409,0.409 C 0.183,0.409 0,0.226 0,0"
         style="fill:#ffffff;fill-opacity:1;fill-rule:nonzero;stroke:none"
         id="path474"
         inkscape:connector-curvature="0" /></g><g
       id="g476"
       transform="matrix(5.0703511,0,0,5.0703511,229.11553,523.56555)"><path
         d="m 0,0 c 0,-0.226 0.183,-0.409 0.408,-0.409 0.227,0 0.409,0.183 0.409,0.409 0,0.226 -0.182,0.409 -0.409,0.409 C 0.183,0.409 0,0.226 0,0 z"
         style="fill:none;stroke:#004798;stroke-width:0.105;stroke-linecap:butt;stroke-linejoin:round;stroke-miterlimit:4;stroke-opacity:1;stroke-dasharray:none"
         id="path478"
         inkscape:connector-curvature="0" /></g><g
       id="g480"
       transform="matrix(5.0703511,0,0,5.0703511,219.50722,524.94975)"><path
         d="M 0,0 -1.13,0.788 0.24,0.932 1.369,0.145 0,0"
         style="fill:#004798;fill-opacity:1;fill-rule:nonzero;stroke:none"
         id="path482"
         inkscape:connector-curvature="0" /></g><g
       id="g484"
       transform="matrix(5.0703511,0,0,5.0703511,219.50722,524.94975)"><path
         d="M 0,0 -1.13,0.788 0.24,0.932 1.369,0.145 0,0 z"
         style="fill:none;stroke:#004798;stroke-width:0.105;stroke-linecap:butt;stroke-linejoin:round;stroke-miterlimit:4;stroke-opacity:1;stroke-dasharray:none"
         id="path486"
         inkscape:connector-curvature="0" /></g><g
       id="g488"
       transform="matrix(5.0703511,0,0,5.0703511,235.54474,519.17969)"><path
         d="M 0,0 -0.168,0.658 0.411,0.871 0.548,0.306 0,0"
         style="fill:#e7223f;fill-opacity:1;fill-rule:nonzero;stroke:none"
         id="path490"
         inkscape:connector-curvature="0" /></g><g
       id="g492"
       transform="matrix(5.0703511,0,0,5.0703511,235.54474,519.17969)"><path
         d="M 0,0 -0.168,0.658 0.411,0.871 0.548,0.306 0,0 z"
         style="fill:none;stroke:#004798;stroke-width:0.105;stroke-linecap:butt;stroke-linejoin:round;stroke-miterlimit:4;stroke-opacity:1;stroke-dasharray:none"
         id="path494"
         inkscape:connector-curvature="0" /></g><g
       id="g496"
       transform="matrix(5.0703511,0,0,5.0703511,197.14697,522.57176)"><path
         d="m 0,0 c 9.236,0 16.753,-7.535 16.753,-16.77 0,-9.218 -7.517,-16.753 -16.753,-16.753 -9.236,0 -16.753,7.535 -16.753,16.753 C -16.753,-7.535 -9.236,0 0,0"
         style="fill:#fabd00;fill-opacity:1;fill-rule:nonzero;stroke:none"
         id="path498"
         inkscape:connector-curvature="0" /></g><g
       id="g500"
       transform="matrix(5.0703511,0,0,5.0703511,197.14697,522.57176)"><path
         d="m 0,0 c 9.236,0 16.753,-7.535 16.753,-16.77 0,-9.218 -7.517,-16.753 -16.753,-16.753 -9.236,0 -16.753,7.535 -16.753,16.753 C -16.753,-7.535 -9.236,0 0,0 z"
         style="fill:none;stroke:#004798;stroke-width:0.49399999;stroke-linecap:butt;stroke-linejoin:miter;stroke-miterlimit:4;stroke-opacity:1;stroke-dasharray:none"
         id="path502"
         inkscape:connector-curvature="0" /></g><g
       id="g504"
       transform="matrix(5.0703511,0,0,5.0703511,197.14697,511.77698)"><path
         d="m 0,0 c 8.054,0 14.641,-6.569 14.641,-14.64 0,-8.055 -6.587,-14.641 -14.641,-14.641 -8.054,0 -14.641,6.586 -14.641,14.641 C -14.641,-6.569 -8.054,0 0,0"
         style="fill:#ffffff;fill-opacity:1;fill-rule:nonzero;stroke:none"
         id="path506"
         inkscape:connector-curvature="0" /></g><g
       id="g508"
       transform="matrix(5.0703511,0,0,5.0703511,197.14697,511.77698)"><path
         d="m 0,0 c 8.054,0 14.641,-6.569 14.641,-14.64 0,-8.055 -6.587,-14.641 -14.641,-14.641 -8.054,0 -14.641,6.586 -14.641,14.641 C -14.641,-6.569 -8.054,0 0,0 z"
         style="fill:none;stroke:#004798;stroke-width:0.49399999;stroke-linecap:butt;stroke-linejoin:miter;stroke-miterlimit:4;stroke-opacity:1;stroke-dasharray:none"
         id="path510"
         inkscape:connector-curvature="0" /></g><g
       id="g512"
       transform="matrix(5.0703511,0,0,5.0703511,132.72816,467.55338)"><path
         d="m 0,0 c 6.216,-6.339 12.155,-12.384 18.366,-18.736 2.626,1.166 4.831,3.116 6.314,5.55 L 5.8,6.288 C 3.274,4.85 1.236,2.648 0,0"
         style="fill:#004798;fill-opacity:1;fill-rule:nonzero;stroke:none"
         id="path514"
         inkscape:connector-curvature="0" /></g><g
       id="g516"
       transform="matrix(5.0703511,0,0,5.0703511,197.05063,463.76583)"><path
         d="M 0,0 -0.053,0.036 -1.665,1.7 c 0.556,0.126 1.164,0.197 1.558,0.179 0.017,0 0.036,0 0.054,0 C 0.501,1.862 1.039,1.772 1.557,1.646 L 0,0 z M 6.64,6.962 3.437,3.633 3.418,3.633 3.347,3.561 c -0.984,0.377 -2.094,0.61 -3.329,0.627 -0.018,0 -0.054,0 -0.071,0 -1.128,0 -2.363,-0.214 -3.401,-0.627 l -3.222,3.365 c -4.224,-2.362 -7.105,-6.89 -7.105,-12.045 0,-3.454 1.271,-6.461 3.418,-8.877 l 1.647,1.683 c -1.056,1.002 -2.989,3.794 -2.882,7.32 0.126,3.597 1.593,6.622 4.457,8.967 l 1.575,-1.629 c -2.184,-1.647 -3.723,-4.224 -3.759,-7.106 -0.053,-4.206 2.846,-8.072 7.017,-9.109 l 0,-2.346 2.29,0 0,2.077 c 2.9,0.018 5.548,1.449 7.124,3.382 L 5.37,-9.002 C 3.777,-10.9 1.361,-11.795 -0.018,-11.723 l 0,1.79 2.81,0 0,2.076 -2.81,0 0,1.306 2.846,0 0,1.88 -5.136,0 0,-6.64 c -3.061,1.02 -4.708,3.633 -4.654,6.353 0.054,2.47 1.288,4.457 3.007,5.656 L -0.053,-3.329 0,-3.383 3.813,0.645 C 4.761,0 5.495,-0.841 5.978,-1.789 l 1.844,1.592 C 7.267,0.734 6.479,1.629 5.477,2.38 l 1.557,1.594 c 2.148,-1.486 4.404,-5.048 4.404,-8.967 0,-3.24 -1.111,-5.227 -2.829,-7.285 l 1.825,-1.826 c 2.095,2.417 3.347,5.549 3.347,8.985 0,5.191 -2.881,9.719 -7.141,12.081"
         style="fill:#fabd00;fill-opacity:1;fill-rule:nonzero;stroke:none"
         id="path518"
         inkscape:connector-curvature="0" /></g><g
       id="g520"
       transform="matrix(5.0703511,0,0,5.0703511,230.72283,499.07068)"><path
         d="m 0,0 -3.204,-3.329 -0.018,0 -0.072,-0.072 c -0.984,0.376 -2.093,0.61 -3.328,0.627 -1.146,0 -2.399,-0.214 -3.473,-0.627 l -3.222,3.365 c -4.223,-2.362 -7.105,-6.89 -7.105,-12.045 0,-3.455 1.271,-6.461 3.419,-8.877 l 1.647,1.682 c -1.056,1.002 -2.99,3.795 -2.883,7.32 0.126,3.598 1.594,6.623 4.458,8.968 l 1.575,-1.629 c -2.184,-1.647 -3.723,-4.224 -3.759,-7.106 -0.054,-4.206 2.846,-8.072 7.016,-9.109 l 0,-2.346 2.291,0 0,2.077 c 2.9,0.018 5.548,1.449 7.123,3.382 l -1.735,1.755 c -1.594,-1.898 -4.01,-2.793 -5.388,-2.722 l 0,1.79 2.81,0 0,2.076 -2.81,0 0,1.307 2.846,0 0,1.88 -5.137,0 0,-6.641 c -3.06,1.021 -4.707,3.634 -4.654,6.354 0.054,2.47 1.289,4.457 3.007,5.656 l 3.956,-4.081 3.812,4.027 c 0.948,-0.644 1.682,-1.485 2.166,-2.434 l 1.843,1.593 c -0.555,0.93 -1.342,1.826 -2.345,2.577 l 1.558,1.594 c 2.148,-1.486 4.403,-5.048 4.403,-8.968 0,-3.239 -1.11,-5.226 -2.828,-7.284 l 1.825,-1.826 c 2.095,2.417 3.347,5.549 3.347,8.985 C 7.141,-6.891 4.26,-2.363 0,0 z"
         style="fill:none;stroke:#004798;stroke-width:0.49399999;stroke-linecap:butt;stroke-linejoin:miter;stroke-miterlimit:4;stroke-opacity:1;stroke-dasharray:none"
         id="path522"
         inkscape:connector-curvature="0" /><g
         id="g524"
         transform="translate(-6.64,-6.962)"><path
           d="m 0,0 -1.665,1.7 c 0.556,0.126 1.164,0.197 1.558,0.179 C 0.466,1.862 1.021,1.79 1.557,1.646 L 0,0 z"
           style="fill:none;stroke:#004798;stroke-width:0.49399999;stroke-linecap:butt;stroke-linejoin:miter;stroke-miterlimit:4;stroke-opacity:1;stroke-dasharray:none"
           id="path526"
           inkscape:connector-curvature="0" /></g></g></g></svg>