<?xml version="1.0" encoding="UTF-8"?>
<svg id="Layer_1" data-name="Layer 1" xmlns="http://www.w3.org/2000/svg" viewBox="0 0 514.5 559.18">
  <defs>
    <style>
      .cls-1 {
        fill: #ffd400;
      }

      .cls-1, .cls-2 {
        stroke-width: 0px;
      }

      .cls-2 {
        fill: #1555a2;
      }
    </style>
  </defs>
  <path class="cls-2" d="M252.23,433.06h6.17v-35.27c-22.8-12.31-39.44-23.72-39.44-34.66,0,0,.43-26.9.43-37.85s12.77-21.89,26.91-21.89h17.78-11.39,17.78c14.14,0,26.91,10.94,26.91,21.89v28.73h-37.39v-20.52h-5.02v24.17c22.8,12.31,39.44,23.72,39.44,34.66v55.64c0,7.3-10.49,14.14-19.15,14.14h-38.98c-8.66,0-19.15-6.84-19.15-14.14v-44.69h35.11v29.8Z"/>
  <path class="cls-2" d="M145.46,302.41h-36.14v122.96c0,6.46-1.4,6.46-2.08,6.46s-2.08,0-2.08-6.46v-122.96h-37.67v139.39c0,16.79,11.75,21.27,18.7,21.27h42.11c6.95,0,18.7-4.48,18.7-21.27v-139.39h-1.53Z"/>
  <path class="cls-1" d="M128.29,458.02h-42.11c-1.4,0-13.65-.45-13.65-16.22v-134.34h27.58v117.91c0,2.85,0,11.52,7.13,11.52s7.13-8.67,7.13-11.52v-117.91h27.58v134.34c0,15.76-12.25,16.22-13.65,16.22Z"/>
  <path class="cls-2" d="M338.06,206.3c-29.12,0-56.6,7.06-80.81,19.56-24.21-12.5-51.68-19.56-80.81-19.56C79,206.3,0,285.29,0,382.74s79,176.44,176.44,176.44c29.12,0,56.6-7.06,80.81-19.56,24.21,12.5,51.69,19.56,80.81,19.56,97.45,0,176.44-79,176.44-176.44s-79-176.44-176.44-176.44ZM176.44,530.87c-81.81,0-148.13-66.32-148.13-148.13s66.32-148.13,148.13-148.13c18.45,0,36.11,3.38,52.4,9.55-40.94,32.31-67.23,82.38-67.23,138.58s26.28,106.27,67.23,138.58c-16.29,6.16-33.95,9.55-52.4,9.55ZM324.57,382.74c0,52-26.79,97.72-67.32,124.16-40.53-26.43-67.32-72.16-67.32-124.16s26.79-97.72,67.32-124.16c40.53,26.43,67.32,72.16,67.32,124.16ZM338.06,530.87c-18.45,0-36.11-3.39-52.4-9.55,40.94-32.31,67.23-82.38,67.23-138.58s-26.28-106.27-67.23-138.58c16.29-6.17,33.95-9.55,52.4-9.55,81.81,0,148.13,66.32,148.13,148.13s-66.32,148.13-148.13,148.13Z"/>
  <path class="cls-1" d="M338.06,212.38c-93.94,0-170.36,76.43-170.36,170.36s76.43,170.36,170.36,170.36,170.36-76.42,170.36-170.36-76.43-170.36-170.36-170.36ZM338.06,536.95c-85.03,0-154.21-69.18-154.21-154.21s69.18-154.21,154.21-154.21,154.21,69.18,154.21,154.21-69.18,154.21-154.21,154.21Z"/>
  <path class="cls-2" d="M332.93,80.06c-9.66-10.22-27.86-14.67-39.16-17.42-2.7-.66-5.04-1.23-6.71-1.74-5.92-1.82-10.65-5.69-13.73-8.82.15-.87.25-1.75.25-2.65,0-6.62-4.2-12.45-10.01-14.97l.54-5.44,8.7,3.35,5.51,2.12V9.77l-5.54,2.19-6.95,2.75,2.73-9.55,1.48-5.16h-25.54l1.48,5.16,2.73,9.55-6.95-2.75-5.54-2.19v24.71l5.5-2.12,8.7-3.35.53,5.4c-5.87,2.48-10.01,8.26-10.01,15.02,0,.91.09,1.79.24,2.66-3.08,3.13-7.8,6.99-13.72,8.81-1.68.51-4.01,1.08-6.71,1.74-11.31,2.76-29.5,7.2-39.16,17.42-25.59.79-51.76,12.55-51.76,33.74,0,14.57,17.79,29.49,29.77,37.88l2.51,5.06s.9-.87,2.05-1.98c1.98,1.29,3.61,2.28,4.68,2.92-.99,3.67-3.17,12.54-2.29,16.47l.16.73c1.95,9.15,7.08,33.45,90.56,33.58,83.49-.12,88.61-24.42,90.56-33.58l.16-.73c.88-3.93-1.3-12.8-2.29-16.47,1.07-.64,2.69-1.63,4.68-2.92,1.15,1.11,2.05,1.98,2.05,1.98l2.51-5.06c11.98-8.39,29.77-23.31,29.77-37.88,0-21.19-26.17-32.96-51.76-33.74ZM147.41,124.17c-.69-1.77-1.11-3.55-1.11-5.42,0-2.72.73-5.64,2.21-9.01,4.36-9.96,18.81-11.82,27.68-11.99.19,4.67,1.12,9.05,2.76,13.07-10.9,3.83-21.49,8.32-31.54,13.35ZM244.16,82.41c-3.42,6.16-5.82,12.75-6.84,17.41-10.42,1.06-20.38,2.86-29.74,5.12.02-2.69.52-5.18,1.51-7.46,3.02-6.95,9.65-10.05,13.33-11.28,6.8-2.27,17.3-6.92,24.3-10.13-.77,2.42-1.63,4.64-2.56,6.33ZM277.18,99.82c-1.02-4.66-3.42-11.25-6.84-17.41-.94-1.69-1.79-3.91-2.56-6.33,7,3.21,17.5,7.86,24.29,10.13,3.68,1.23,10.32,4.33,13.33,11.28.99,2.28,1.49,4.77,1.51,7.46-9.35-2.26-19.32-4.06-29.74-5.12ZM367.09,124.17c-10.05-5.03-20.64-9.52-31.54-13.35,1.63-4.02,2.56-8.4,2.76-13.07,8.87.17,23.32,2.03,27.68,11.99,1.48,3.37,2.21,6.29,2.21,9.01,0,1.87-.42,3.65-1.11,5.42Z"/>
  <path class="cls-1" d="M236.01,184.03c-1.99.09-3.93.19-5.83.3v17.49c1.89.16,3.84.29,5.83.41v-18.21Z"/>
  <path class="cls-1" d="M243.89,183.77c-.91.03-1.85.04-2.75.07v18.67c.89.04,1.84.06,2.75.09v-18.83Z"/>
  <path class="cls-1" d="M250.39,183.63c-1.15.02-2.3.04-3.43.06v19.02c1.13.03,2.28.06,3.43.08v-19.16Z"/>
  <path class="cls-1" d="M270.95,183.75c-4.32-.12-8.84-.19-13.59-.2-1.09,0-2.14.01-3.2.02v19.27c1.08,0,2.14.03,3.25.03,4.72,0,9.22-.1,13.55-.26v-18.87Z"/>
  <path class="cls-1" d="M279.29,184.05c-1.93-.09-3.91-.17-5.94-.23v18.71c2.03-.09,4.01-.2,5.94-.32v-18.17Z"/>
  <path class="cls-1" d="M287.05,184.5c-.88-.05-1.73-.12-2.62-.17v17.51c.9-.07,1.75-.16,2.62-.24v-17.1Z"/>
  <path class="cls-1" d="M290.14,184.7v16.61c1.88-.2,3.71-.42,5.48-.65v-15.52c-1.77-.16-3.6-.3-5.48-.44Z"/>
  <path class="cls-1" d="M172.23,160.74c11.4-3.44,39.56-10.19,85.02-10.21,45.46.03,73.63,6.78,85.02,10.21-.21-.84-.41-1.66-.62-2.4-7.52-2.39-34.1-9.5-84.4-9.52-50.3.03-76.88,7.13-84.4,9.52-.2.74-.41,1.56-.62,2.4Z"/>
  <path class="cls-1" d="M142.7,115.46c0-1.51,1.08-4.47,2.16-6.95,4.85-11.1,19.74-13.49,29.43-13.81.2-3.93,1.32-7.38,3.17-10.41-20.2,1.4-39.92,9.76-43.76,24.27-.44,1.66-.67,3.41-.67,5.24,0,2.28.56,4.6,1.51,6.92,2.08,6.53,7.19,13.4,18.05,21.05l4.5-3.15s-14.26-4.91-14.39-23.15Z"/>
  <path class="cls-1" d="M187.45,142.78l11.43-5.57-2.41,12.08,12.14-1.79-5.8-10.87,12.55,2.04s-.47-3.17-.83-5.63c-.36-2.46-.83-5.63-.83-5.63l-11.43,5.57.55-2.74,1.87-9.34-12.14,1.79,5.8,10.87-12.55-2.03,1.66,11.25Z"/>
  <path class="cls-1" d="M171.74,146.72l9.15-1.41s-1.04-2.09-1.84-3.71c-.8-1.62-1.84-3.71-1.84-3.71l-6.66,6.42-.24-2.02-.8-6.88-8.01,3.97,6.46,6.22-9.14,1.41,3.68,7.42,6.65-6.43,1.05,8.9,8-3.97-6.46-6.22Z"/>
  <path class="cls-1" d="M189.8,121.61c-.13-.25-.21-.4-.21-.4l12.37-1.82c-1.47-5.17-2.85-11.41-2.85-14.31,0-3.89.75-7.57,2.21-10.95,4.33-9.96,13.4-14.26,18.42-15.94,6.38-2.13,21.43-9.44,29.57-13.24l-.5-1.78c-2.63-1.69-4.75-4.1-6.07-6.95-3.39,3.19-8.16,6.72-14.11,8.55-1.79.55-4.18,1.13-6.94,1.81-14.89,3.63-42.6,10.39-42.6,29.34,0,12.7,5.65,20.89,10.71,25.69Z"/>
  <path class="cls-1" d="M248.84,68.14c-8.45,3.97-22.15,10.57-28.24,12.6-4.6,1.53-12.89,5.45-16.8,14.45-1.32,3.04-1.99,6.36-1.99,9.88,0,2.72,1.41,8.91,2.85,13.91l1.86-.28c-3.53-8.68-3.96-16.37-1.16-22.83,3.65-8.4,11.45-12.07,15.77-13.51,7.66-2.55,20.54-8.41,27.03-11.43.24-.94.46-1.88.67-2.8Z"/>
  <path class="cls-1" d="M240.8,103.96c.01,2.17,4.6,12.44,9.85,18.5l-2.09-5.84c-3.23-5.02-5.83-10.71-6.04-12.5v-.08s-.01-.08-.01-.08c0-2.75,2.38-11.01,6.69-18.75,1.94-3.5,3.79-9.17,5.48-16.86l.26-1.22,1.24.17,1.07.14,1.07-.14,1.24-.17.26,1.22c1.69,7.69,3.54,13.36,5.48,16.86,4.3,7.74,6.69,16,6.69,18.75v.16c-.22,1.79-2.82,7.48-6.05,12.5l-2.09,5.84c5.25-6.06,9.84-16.33,9.85-18.5,0-3.01-2.39-11.48-6.9-19.59-2.65-4.78-4.67-12.94-5.91-19.13-1.16.29-2.4.47-3.64.5-1.24-.03-2.48-.21-3.64-.5-1.25,6.19-3.26,14.35-5.91,19.13-4.5,8.1-6.9,16.58-6.9,19.59Z"/>
  <polygon class="cls-1" points="240.25 122.76 240.25 136.48 254.85 131.84 249.85 145.82 257.25 145.82 264.65 145.82 259.65 131.84 274.25 136.48 274.25 122.76 259.65 127.39 264.65 113.41 257.25 113.41 249.85 113.41 254.85 127.39 240.25 122.76"/>
  <path class="cls-1" d="M176,185.47c.48.55.99,1.11,1.56,1.67,11.34-3.01,36.91-8.14,79.68-8.17,42.77.02,68.35,5.16,79.68,8.17.57-.56,1.08-1.11,1.56-1.67-13.45-3.48-40.99-8.95-81.24-8.97-40.25.02-67.8,5.5-81.24,8.97Z"/>
  <path class="cls-1" d="M380.8,108.56c-3.85-14.51-23.56-22.87-43.76-24.27,1.85,3.02,2.97,6.48,3.18,10.41,9.68.33,24.57,2.71,29.43,13.81,1.08,2.47,2.16,5.43,2.16,6.95-.13,18.24-14.39,23.15-14.39,23.15l4.5,3.15c10.86-7.65,15.98-14.52,18.05-21.05.95-2.32,1.52-4.64,1.52-6.92,0-1.82-.23-3.57-.67-5.24Z"/>
  <path class="cls-1" d="M321.96,122.69l-12.14-1.79,1.86,9.34.55,2.74-11.43-5.57s-.47,3.17-.83,5.63c-.36,2.46-.83,5.63-.83,5.63l12.55-2.04-5.8,10.87,12.14,1.79-2.41-12.08,11.43,5.57,1.66-11.25-12.55,2.03,5.8-10.87Z"/>
  <path class="cls-1" d="M352.99,139.38l-8.01-3.97-.8,6.88-.24,2.02-6.66-6.42s-1.04,2.09-1.84,3.71c-.81,1.62-1.84,3.71-1.84,3.71l9.15,1.41-6.46,6.22,8.01,3.97,1.04-8.9,6.65,6.43,3.68-7.42-9.14-1.41,6.46-6.22Z"/>
  <path class="cls-1" d="M313.17,94.12c1.47,3.38,2.21,7.07,2.21,10.95,0,2.9-1.38,9.14-2.85,14.31l12.37,1.82s-.08.15-.21.4c5.06-4.8,10.71-12.99,10.71-25.69,0-18.96-27.71-25.71-42.6-29.34-2.76-.68-5.15-1.26-6.94-1.81-5.94-1.83-10.72-5.36-14.11-8.55-1.32,2.85-3.44,5.26-6.07,6.95l-.5,1.78c8.14,3.8,23.19,11.11,29.57,13.24,5.03,1.67,14.1,5.97,18.42,15.94Z"/>
  <path class="cls-1" d="M309.83,118.98c1.45-5,2.85-11.19,2.85-13.91,0-3.51-.67-6.84-1.99-9.88-3.91-9-12.2-12.92-16.8-14.45-6.09-2.03-19.79-8.63-28.24-12.6.21.92.43,1.86.67,2.8,6.49,3.02,19.38,8.88,27.03,11.43,4.33,1.44,12.12,5.11,15.77,13.51,2.81,6.46,2.37,14.15-1.16,22.83l1.86.28Z"/>
  <path class="cls-1" d="M266.13,111.12c1.69-3.07,2.96-5.91,3.15-7.23-.04-2.19-2.21-9.93-6.34-17.36-1.96-3.53-3.8-9.04-5.47-16.36v.04s-.22-.03-.22-.03l-.22.03v-.04c-1.68,7.32-3.52,12.83-5.47,16.36-4.13,7.43-6.3,15.18-6.34,17.36.18,1.32,1.45,4.16,3.15,7.23h17.76Z"/>
  <path class="cls-1" d="M257.25,153.23c-47.23.03-75.57,7.35-85.73,10.55-.83,3.84-1.42,7.75-1.03,9.49l.17.77c.48,2.26,1.19,5.53,3.57,9.1,13.16-3.49,41.39-9.32,83.02-9.34,41.63.02,69.87,5.85,83.02,9.34,2.38-3.57,3.1-6.84,3.57-9.1l.17-.77c.39-1.74-.21-5.65-1.04-9.49-10.16-3.21-38.5-10.53-85.73-10.55Z"/>
  <path class="cls-1" d="M257.25,61.69c-6.79,0-12.28-5.64-12.28-12.27s5.48-12.27,12.28-12.27,12.27,5.64,12.27,12.27-5.57,12.27-12.27,12.27Z"/>
  <path class="cls-2" d="M258.97,39.33c-.51-.1-1.07-.19-1.66-.2-5.62.12-10.14,4.74-10.14,10.3s4.52,10.18,10.08,10.29c1.76-.04,5.38-.8,6.51-2.34,1.17-1.6-.35-3.07-1.96-3.64-1.57-.56-3.26-.03-4.89.03-3.37.14-7.52-.79-7.01-4.89.46-3.7,3.42-7.14,7.41-7.05.34,0,.76.08,1.15.16l.51-2.65Z"/>
  <path class="cls-2" d="M261.21,103.86c0,2.19-1.77,3.96-3.96,3.96s-3.96-1.77-3.96-3.96,1.77-3.96,3.96-3.96,3.96,1.77,3.96,3.96Z"/>
  <path class="cls-2" d="M261.21,90.86c0,2.19-1.77,3.96-3.96,3.96s-3.96-1.77-3.96-3.96,1.77-3.96,3.96-3.96,3.96,1.77,3.96,3.96Z"/>
  <path class="cls-2" d="M260.65,129.59c0,1.88-1.52,3.4-3.4,3.4s-3.4-1.52-3.4-3.4,1.52-3.4,3.4-3.4,3.4,1.53,3.4,3.4Z"/>
  <path class="cls-2" d="M200.05,132.29c-1.54.23-2.61,1.66-2.38,3.21.23,1.54,1.66,2.61,3.2,2.38,1.55-.23,2.61-1.66,2.38-3.21-.23-1.54-1.66-2.61-3.21-2.38Z"/>
  <path class="cls-2" d="M168.86,144.34c-1.01.5-1.43,1.74-.93,2.76.51,1.02,1.74,1.43,2.76.93,1.02-.5,1.43-1.74.93-2.75-.5-1.02-1.74-1.43-2.75-.93Z"/>
  <path class="cls-2" d="M189.31,112.51c0,1.81,1.47,3.28,3.28,3.28s3.28-1.47,3.28-3.28-1.47-3.28-3.28-3.28-3.28,1.47-3.28,3.28Z"/>
  <path class="cls-2" d="M188.99,95.99c1.82,0,3.29-1.47,3.29-3.28s-1.47-3.28-3.29-3.28-3.28,1.47-3.28,3.28,1.47,3.28,3.28,3.28Z"/>
  <path class="cls-2" d="M200.7,76.37c-1.81,0-3.28,1.47-3.28,3.28s1.47,3.28,3.28,3.28,3.28-1.47,3.28-3.28-1.47-3.28-3.28-3.28Z"/>
  <path class="cls-2" d="M218.25,75.73c1.81,0,3.28-1.47,3.28-3.28s-1.47-3.28-3.28-3.28-3.28,1.47-3.28,3.28,1.47,3.28,3.28,3.28Z"/>
  <path class="cls-2" d="M234.9,63.49c-1.79,0-3.24,1.45-3.24,3.24s1.45,3.24,3.24,3.24,3.24-1.45,3.24-3.24-1.45-3.24-3.24-3.24Z"/>
  <path class="cls-2" d="M174.12,173.37c3.03.4,12.12,1.61,14.37,1.92,1.86-1.3,9.39-6.55,11.89-8.29-3.03-.4-12.12-1.61-14.37-1.91-1.86,1.29-9.38,6.54-11.89,8.29Z"/>
  <polygon class="cls-2" points="219 159.02 218.44 158.84 217.93 159.12 208.72 164.22 205.98 165.73 208.96 166.69 219 169.9 219.55 170.07 220.06 169.79 223.01 168.16 229.27 164.7 232.01 163.19 229.03 162.23 219 159.02"/>
  <path class="cls-2" d="M316.83,135.5c.23-1.54-.84-2.98-2.38-3.21-1.54-.23-2.98.84-3.2,2.38-.23,1.54.84,2.98,2.38,3.21,1.54.23,2.97-.84,3.2-2.38Z"/>
  <path class="cls-2" d="M345.64,144.34c-1.02-.5-2.25-.09-2.75.93-.51,1.02-.09,2.25.93,2.75,1.02.5,2.25.09,2.76-.93.5-1.02.09-2.25-.93-2.76Z"/>
  <path class="cls-2" d="M321.9,115.79c1.81,0,3.28-1.47,3.28-3.28s-1.47-3.28-3.28-3.28-3.28,1.47-3.28,3.28,1.47,3.28,3.28,3.28Z"/>
  <path class="cls-2" d="M325.51,95.99c1.81,0,3.28-1.47,3.28-3.28s-1.46-3.28-3.28-3.28-3.28,1.47-3.28,3.28,1.47,3.28,3.28,3.28Z"/>
  <path class="cls-2" d="M313.8,82.93c1.81,0,3.28-1.47,3.28-3.28s-1.47-3.28-3.28-3.28-3.28,1.47-3.28,3.28,1.47,3.28,3.28,3.28Z"/>
  <path class="cls-2" d="M296.25,75.73c1.81,0,3.28-1.47,3.28-3.28s-1.47-3.28-3.28-3.28-3.28,1.47-3.28,3.28,1.47,3.28,3.28,3.28Z"/>
  <path class="cls-2" d="M279.59,63.49c-1.8,0-3.24,1.45-3.24,3.24s1.45,3.24,3.24,3.24,3.24-1.45,3.24-3.24-1.45-3.24-3.24-3.24Z"/>
  <path class="cls-2" d="M257.25,157.07h0c-2.63,1.02-13.3,5.17-16.85,6.55,3.55,1.38,14.22,5.53,16.85,6.55h0s0,0,0,0c2.63-1.02,13.3-5.17,16.85-6.55-3.55-1.38-14.22-5.53-16.85-6.55t0,0Z"/>
  <path class="cls-2" d="M314.12,166.99c2.5,1.75,10.03,7,11.89,8.29,2.24-.3,11.34-1.51,14.37-1.92-2.5-1.75-10.03-7-11.89-8.29-2.25.3-11.34,1.51-14.37,1.91Z"/>
  <polygon class="cls-2" points="296.57 159.12 296.06 158.84 295.5 159.02 285.47 162.23 282.49 163.19 285.23 164.7 291.48 168.16 294.43 169.79 294.95 170.07 295.5 169.9 305.53 166.69 308.51 165.73 305.78 164.22 296.57 159.12"/>
  <polygon class="cls-1" points="212.76 165.07 219.26 167.15 221.71 165.8 225.23 163.85 218.73 161.77 212.76 165.07"/>
  <polygon class="cls-1" points="301.74 165.07 295.24 167.15 292.79 165.8 289.27 163.85 295.77 161.77 301.74 165.07"/>
  <path class="cls-1" d="M263.07,24.27l11.18,4.3v-12.85l-10.78,4.27-3.83,1.51,1.13-3.96,3.87-13.5h-14.79l3.87,13.5,1.13,3.96-3.83-1.51-10.78-4.27v12.85l11.18-4.3,2.48-.96.99,9.98c.77-.11,1.55-.19,2.35-.19s1.58.08,2.35.2l.99-9.99,2.48.96Z"/>
  <path class="cls-2" d="M424.64,298.25h-22.01c-7.34,0-15.22,2.69-21.62,7.37-6.89,5.04-10.85,11.53-10.85,17.82v122.67c0,9.65,12.28,17.43,22.44,17.43h26.86c3.85,0,6.94-2.17,9.19-4.6.26.39.54.77.87,1.16,3.68,4.41,10.45,6.79,20.12,7.07l5.2.15v-87.83h-43.44v-44.56h4.28v33.75h39.16v-45.25c0-12.94-14.68-25.18-30.2-25.18ZM415.68,429.69c0,3.17-1.61,4.91-2.14,4.91s-2.14-1.74-2.14-4.91v-16.65h4.28v16.65Z"/>
  <path class="cls-1" d="M420.73,429.69c0,5.51-3.22,9.96-7.19,9.96s-7.19-4.46-7.19-9.96v-99.81h14.38v33.75h29.06v-40.2c0-10.16-12.46-20.13-25.15-20.13h-22.01c-13.15,0-27.42,10.35-27.42,20.14v122.67c0,5.9,9.1,12.38,17.39,12.38h26.86c4.29,0,7.87-5.84,8.89-8.08l3.33,1.05c-.02.12-.48,2.79,1.71,5.41,1.92,2.29,6.38,4.97,16.39,5.26v-77.58h-37.96v23.45h8.9v21.7Z"/>
</svg>