<?xml version="1.0" encoding="UTF-8" standalone="no"?>
<svg
   xmlns:dc="http://purl.org/dc/elements/1.1/"
   xmlns:cc="http://creativecommons.org/ns#"
   xmlns:rdf="http://www.w3.org/1999/02/22-rdf-syntax-ns#"
   xmlns:svg="http://www.w3.org/2000/svg"
   xmlns="http://www.w3.org/2000/svg"
   viewBox="0 0 163.5975 253.99999"
   height="254"
   width="163.5975"
   xml:space="preserve"
   id="svg2"
   version="1.1"><metadata
     id="metadata8"><rdf:RDF><cc:Work
         rdf:about=""><dc:format>image/svg+xml</dc:format><dc:type
           rdf:resource="http://purl.org/dc/dcmitype/StillImage" /><dc:title></dc:title></cc:Work></rdf:RDF></metadata><defs
     id="defs6" /><g
     transform="matrix(1.3333333,0,0,-1.3333333,-122.51987,435.02655)"
     id="g10"><g
       transform="matrix(0.29822487,0,0,0.29822487,65.00678,108.03514)"
       id="g324"><path
         d="m 154.95654,225.32031 c -61.14746,94.19873 -59.08252,170.38086 -59.70117,246.47705 -0.61865,76.09619 2.47461,151.01612 2.47461,151.01612 27.6499,0 59.70166,13.61132 76.09619,32.1709 14.66065,16.59716 26.44824,44.8977 26.44824,71.76513 h 191.167 c 0,-26.86743 11.78711,-55.16797 26.44824,-71.76513 16.39453,-18.55958 48.44629,-32.1709 76.09619,-32.1709 0,0 3.09326,-74.91993 2.47461,-151.01612 -0.61914,-76.09619 1.44629,-152.27832 -59.70117,-246.47705 C 379.53271,137.16211 295.85742,98.0293 295.85742,98.0293 c 0,0 -83.67431,39.13281 -140.90088,127.29101 z"
         style="fill:#df172b;fill-opacity:1;fill-rule:nonzero;stroke:none"
         id="path12" /><path
         d="m 369.72119,702.62158 c 4.56934,-23.62085 15.38574,-46.96997 30.08496,-63.61084 16.31055,-18.46435 43.36133,-32.55664 70.79883,-37.92822 0.74902,-23.7627 1.80859,-65.08838 1.80859,-108.80518 0,-6.72314 -0.0254,-13.50341 -0.0801,-20.28369 l -0.0674,-9.35302 c -0.48095,-71.86719 -0.93506,-139.74805 -55.74511,-224.1836 -27.30323,-42.06055 -61.28028,-71.97656 -84.97608,-89.66601 -14.69531,-10.97071 -27.38721,-18.7461 -35.6875,-23.45362 -8.29931,4.70752 -20.99121,12.48291 -35.68701,23.45362 -23.69531,17.68945 -57.67236,47.60546 -84.97559,89.66601 v 0 c -54.81005,84.43555 -55.26416,152.31641 -55.74511,224.1836 l -0.0674,9.35302 c -0.0547,6.78028 -0.0801,13.56055 -0.0801,20.28369 0,43.7168 1.05957,85.04248 1.80859,108.80518 27.4375,5.37158 54.48828,19.46387 70.79883,37.92822 14.69922,16.64087 25.51562,39.98999 30.08496,63.61084 29.75488,0 117.97168,0 147.72656,0 z"
         style="fill:#ffffff;fill-opacity:1;fill-rule:nonzero;stroke:none"
         id="path14" /><path
         d="m 295.85791,595.4375 c -9.87109,0 -19.05957,-0.9834 -26.74902,-2.67529 -3.38868,-0.74561 -6.46045,-1.70459 -9.22315,-2.62598 -2.36572,-0.78857 -4.68554,-0.32471 -3.98974,3.21338 0,0 -0.75391,0.98584 -1.50782,2.66797 -0.7539,1.68213 -0.7539,1.68213 -0.7539,1.68213 0,0 -1.39209,-0.17432 -3.53809,2.60986 -2.14599,2.78418 -6.95996,8.99023 -9.22168,12.12207 0,0 -1.97265,0.69629 -3.59619,-0.81201 -1.62451,-1.50781 -3.7124,-2.78418 -5.91602,-0.87012 -2.2041,1.91406 -0.52246,5.74219 1.68213,7.71436 l -0.39502,0.27148 c -1.46289,0.93945 -2.43212,2.58008 -2.43212,4.44776 0,0.78076 0.16943,1.52246 0.47412,2.18945 l 0.12695,0.26318 c -2.10889,0.84522 -3.59961,2.90821 -3.59961,5.31934 0,1.61572 0.66943,3.07519 1.74561,4.11621 l 0.14746,0.18408 c -1.21631,1.06006 -1.98536,2.62061 -1.98536,4.36084 0,3.02295 2.32032,5.50391 5.27686,5.76001 0,0 -0.0386,0.62305 -0.0386,0.81323 0,3.29029 2.66796,5.95752 5.95703,5.95752 0.91797,0 1.78662,-0.20727 2.5625,-0.57788 l 0.0996,0.1416 c 0.88672,2.09644 2.9624,3.5669 5.38086,3.5669 1.52978,0 2.92236,-0.58838 3.96386,-1.55103 0,0 0.86963,2.22461 4.11768,2.80445 2.60596,0.46557 4.13428,-0.54029 4.13428,-0.54029 0.99316,1.70313 2.83886,2.8479 4.95214,2.8479 1.3711,0 2.6294,-0.48169 3.61524,-1.28466 l 0.16162,0.24658 c 1.0376,1.62182 2.85547,2.69726 4.92334,2.69726 1.6123,0 3.07275,-0.65381 4.12988,-1.71093 l 0.27393,0.18505 c 1.05517,1.04053 2.50391,1.68287 4.10254,1.68287 1.58008,0 3.01416,-0.62745 4.06592,-1.64649 0,0 0.84277,1.23462 3.45117,2.15405 l -0.0181,0.18262 c -0.0376,0.30737 -0.0566,0.62036 -0.0566,0.93799 0,2.45093 1.14551,4.63354 2.93018,6.04053 l 0.0923,0.0874 c -0.18701,0.22192 -0.3584,0.45727 -0.51269,0.70483 l -0.0864,0.15503 -2.65771,-2.11352 c -2.09375,-1.71973 -4.11231,-1.73267 -4.13331,0.7727 v 8.79736 c 0.021,2.50538 2.03956,2.49244 4.13331,0.77295 l 2.66748,-2.12207 0.0786,0.16651 c 0.48633,0.77905 1.14404,1.44018 1.92041,1.93042 l 0.10742,0.0481 -2.25049,2.71607 c -1.79101,2.09375 -1.80468,4.1123 0.80518,4.13354 h 9.16406 c 2.60986,-0.0212 2.59619,-2.03979 0.80518,-4.13354 l -2.24268,-2.70655 0.21045,-0.12963 c 0.73975,-0.48951 1.36524,-1.13623 1.83057,-1.89283 l 0.0903,-0.10595 2.63476,2.09594 c 2.09375,1.71949 4.11231,1.73243 4.13331,-0.77295 v -8.79736 c -0.021,-2.50537 -2.03956,-2.49243 -4.13331,-0.7727 l -2.64453,2.10327 -0.0537,-0.0696 c -0.1665,-0.27588 -0.354,-0.5376 -0.56103,-0.78272 l 0.12402,-0.10791 c 1.76758,-1.40771 2.90088,-3.57959 2.90088,-6.01733 0,-0.33716 -0.022,-0.66919 -0.064,-0.99512 l -0.019,-0.12231 c 2.61475,-0.91992 3.45947,-2.15723 3.45947,-2.15723 1.05176,1.01904 2.48584,1.64649 4.06592,1.64649 1.59864,0 3.04737,-0.64234 4.10254,-1.68287 l 0.27393,-0.18505 c 1.05713,1.05712 2.51758,1.71093 4.12988,1.71093 2.06787,0 3.88525,-1.07544 4.92285,-2.69726 l 0.16211,-0.24658 c 0.98584,0.80297 2.24414,1.28466 3.61524,1.28466 2.11328,0 3.95898,-1.14477 4.95214,-2.8479 0,0 1.52832,1.00586 4.13428,0.54029 3.24805,-0.57984 4.11719,-2.80445 4.11719,-2.80445 1.04199,0.96265 2.43457,1.55103 3.96435,1.55103 2.41846,0 4.49414,-1.47046 5.38086,-3.5669 l 0.0996,-0.1416 c 0.77588,0.37061 1.64453,0.57788 2.5625,0.57788 3.28907,0 5.95703,-2.66723 5.95703,-5.95752 0,-0.19018 -0.0386,-0.81323 -0.0386,-0.81323 2.95654,-0.2561 5.27686,-2.73706 5.27686,-5.76001 0,-1.74023 -0.76905,-3.30078 -1.98536,-4.36084 l 0.14746,-0.18408 c 1.07618,-1.04102 1.74561,-2.50049 1.74561,-4.11621 0,-2.41113 -1.49072,-4.47412 -3.59961,-5.31934 l 0.12695,-0.26318 c 0.3042,-0.66699 0.47413,-1.40869 0.47413,-2.18945 0,-1.86768 -0.96924,-3.50831 -2.43213,-4.44776 l -0.39502,-0.27148 c 2.2041,-1.97217 3.88623,-5.8003 1.68213,-7.71436 -2.20362,-1.91406 -4.29151,-0.63769 -5.91602,0.87012 -1.62354,1.5083 -3.59619,0.81201 -3.59619,0.81201 -2.26172,-3.13184 -7.07568,-9.33789 -9.22168,-12.12207 -2.146,-2.78418 -3.53809,-2.60986 -3.53809,-2.60986 0,0 0,0 -0.7539,-1.68213 -0.75391,-1.68213 -1.50782,-2.66797 -1.50782,-2.66797 0.69581,-3.53809 -1.62402,-4.00195 -3.98974,-3.21338 -2.7627,0.92139 -5.83447,1.88037 -9.22315,2.62598 -7.68945,1.69189 -16.87793,2.67529 -26.74902,2.67529 v 0 m -18.03809,47.73438 c -1.91455,0 -4.17578,0.63769 -4.98779,-0.34815 -1.07471,-1.30518 0.0581,-3.88623 2.26221,-7.25 2.2041,-3.36426 2.49365,-7.3081 2.49365,-7.3081 2.26221,-2.31983 1.85645,-4.11817 2.37842,-5.21973 0.52148,-1.10254 1.16015,-3.19043 1.68164,-3.19043 0.52197,0 0.0581,3.13232 -0.40576,5.97412 -0.46387,2.84229 -0.29004,3.88623 0.34765,4.11816 0.63819,0.23194 1.21827,-1.27587 1.85645,-4.58203 0.63769,-3.30615 0.81201,-4.17627 1.33398,-4.23388 0.52198,-0.0581 0.28955,2.43554 0.23194,5.62597 -0.0581,3.18994 1.3916,3.24805 1.3916,3.24805 0,0 0.34814,2.72559 -0.17383,6.66992 -0.52148,3.94385 -1.74023,8.06201 -1.74023,8.06201 0,0 -2.14551,-1.56591 -6.66993,-1.56591 m -31.55175,-7.07618 c -1.65332,-1.57812 -1.4502,-2.49414 0.11621,-6.43799 1.56592,-3.94384 3.94385,-7.13427 5.56787,-9.56982 1.62402,-2.43652 2.43603,-3.59619 3.5376,-4.81445 1.10254,-1.21778 1.33447,-3.36377 1.33447,-3.36377 0.81201,1.10205 0.11572,2.08789 -0.98633,4.52392 -1.10205,2.43604 -1.97168,3.47998 -1.91357,4.81397 0.0576,1.33398 1.10205,0.52197 2.08789,-1.44971 0.98584,-1.97217 2.31982,-4.93017 2.31982,-4.93017 0.46436,2.55224 -0.92822,6.26416 -4.40771,12.58593 -3.47998,6.32178 -4.292,9.68604 -4.292,9.68604 0,0 -2.08789,0.17383 -3.36425,-1.04395 m 60.95752,8.64209 c 0,0 -1.21827,-4.11816 -1.73975,-8.06201 -0.52197,-3.94433 -0.17383,-6.66992 -0.17383,-6.66992 0,0 1.44971,-0.0581 1.3916,-3.24805 -0.0576,-3.19043 -0.29004,-5.68408 0.23194,-5.62597 0.52197,0.0576 0.69629,0.92773 1.33398,4.23388 0.63818,3.30616 1.21826,4.81397 1.85596,4.58203 0.63818,-0.23193 0.81201,-1.27587 0.34814,-4.11816 -0.46386,-2.8418 -0.92773,-5.97412 -0.40576,-5.97412 0.52149,0 1.16016,2.08789 1.68164,3.19043 0.52197,1.10156 0.11621,2.8999 2.37842,5.21973 0,0 0.28955,3.94384 2.49365,7.3081 2.2041,3.36377 3.33692,5.94482 2.26221,7.25 -0.81201,0.98584 -3.07324,0.34815 -4.98779,0.34815 -4.52442,0 -6.67041,1.56591 -6.67041,1.56591 m 34.85791,-7.59814 c 0,0 -0.81202,-3.36426 -4.292,-9.68604 -3.47949,-6.32177 -4.87207,-10.03369 -4.40771,-12.58593 0,0 1.33398,2.958 2.31982,4.93017 0.98584,1.97168 2.03028,2.78369 2.08789,1.44971 0.0581,-1.33399 -0.81152,-2.37793 -1.91357,-4.81397 -1.10254,-2.43603 -1.79834,-3.42187 -0.98633,-4.52392 0,0 0.23194,2.14599 1.33399,3.36377 1.10205,1.21826 1.91406,2.37793 3.53808,4.81445 1.62403,2.43555 4.00196,5.62598 5.56787,9.56982 1.56641,3.94385 1.76953,4.85987 0.11621,6.43799 -1.27636,1.21778 -3.36425,1.04395 -3.36425,1.04395 z"
         style="fill:#a58639;fill-opacity:1;fill-rule:nonzero;stroke:none"
         id="path16" /><path
         d="m 286.88721,232.74414 v -59.08252 h 18.25097 v 75.32276 h -14.69336 l -19.48828,-7.42383 4.33057,-12.83741 z"
         style="fill:#231f20;fill-opacity:1;fill-rule:nonzero;stroke:none"
         id="path18" /><path
         d="m 414.21729,432.37305 c 0,-65.36866 -52.99122,-118.36035 -118.35938,-118.36035 -65.36816,0 -118.35937,52.99169 -118.35937,118.36035 0,65.36914 52.99121,118.35888 118.35937,118.35888 65.36816,0 118.35938,-52.98974 118.35938,-118.35888 M 295.85791,587.7998 c -85.83984,0 -155.42773,-69.58496 -155.42773,-155.42675 0,-85.84034 69.58789,-155.42823 155.42773,-155.42823 85.84033,0 155.42725,69.58789 155.42725,155.42823 0,85.84179 -69.58692,155.42675 -155.42725,155.42675 z"
         style="fill:#df172b;fill-opacity:1;fill-rule:nonzero;stroke:none"
         id="path20" /><path
         d="m 295.85791,597.87354 c 9.60156,0 18.55762,-0.93018 26.11621,-2.53858 3.14844,-0.66943 6.04053,-1.49805 8.66309,-2.34277 2.00927,-0.64746 2.45654,-0.62842 2.45654,-0.16455 0,0.46386 -0.63818,0.87011 -2.45654,1.55664 -2.58448,0.9751 -5.51465,1.71338 -8.66309,2.39892 -7.55859,1.64551 -16.51465,2.59864 -26.11621,2.59864 v 0 c -9.60156,0 -18.55762,-0.95313 -26.11621,-2.59864 -3.14844,-0.68554 -6.07861,-1.42382 -8.66309,-2.39892 -1.81836,-0.68653 -2.45654,-1.09278 -2.45654,-1.55664 0,-0.46387 0.44727,-0.48291 2.45654,0.16455 2.62256,0.84472 5.51465,1.67334 8.66309,2.34277 7.55859,1.6084 16.51465,2.53858 26.11621,2.53858 z"
         style="fill:#ffffff;fill-opacity:1;fill-rule:nonzero;stroke:none"
         id="path22" /><path
         d="m 298.65576,645.05225 c 0,-1.54493 -1.25244,-2.79737 -2.79785,-2.79737 -1.54492,0 -2.79785,1.25244 -2.79785,2.79737 0,1.54516 1.25293,2.79785 2.79785,2.79785 1.54541,0 2.79785,-1.25269 2.79785,-2.79785 z"
         style="fill:#ffffff;fill-opacity:1;fill-rule:nonzero;stroke:none"
         id="path24" /><path
         d="m 299.02881,653.60132 c 0,-1.75122 -1.41992,-3.17041 -3.1709,-3.17041 -1.75098,0 -3.1709,1.41919 -3.1709,3.17041 0,1.75146 1.41992,3.17065 3.1709,3.17065 1.75098,0 3.1709,-1.41919 3.1709,-3.17065 z"
         style="fill:#ffffff;fill-opacity:1;fill-rule:nonzero;stroke:none"
         id="path26" /><path
         d="m 298.1582,659.14209 c 1.02784,0.72363 1.69873,1.91919 1.69873,3.27197 0,2.20899 -1.79004,3.99903 -3.99902,3.99903 -2.20898,0 -3.99902,-1.79004 -3.99902,-3.99903 0,-1.38061 0.69922,-2.5979 1.76318,-3.31616 l 0.0772,-0.0457 c -0.11865,0.35009 -0.18408,0.7351 -0.18408,1.13916 0,1.61572 1.04882,2.92529 2.34277,2.92529 1.29443,0 2.34326,-1.30957 2.34326,-2.92529 0,-0.40406 -0.0654,-0.78907 -0.18408,-1.13916 l 0.14111,0.0898 z"
         style="fill:#ffffff;fill-opacity:1;fill-rule:nonzero;stroke:none"
         id="path28" /><path
         d="m 293.2041,681.68994 h 5.30762 l -2.65332,-3.34277 z"
         style="fill:#ffffff;fill-opacity:1;fill-rule:nonzero;stroke:none"
         id="path30" /><path
         d="m 286.72852,669.78076 v 5.09546 l 3.11084,-2.54736 z"
         style="fill:#ffffff;fill-opacity:1;fill-rule:nonzero;stroke:none"
         id="path32" /><path
         d="m 297.88232,669.93433 c 0.67969,0.57495 1.11133,1.43432 1.11133,2.39428 0,1.73194 -1.40429,3.1355 -3.13574,3.1355 -1.73193,0 -3.13574,-1.40356 -3.13574,-3.1355 0,-0.96093 0.43213,-1.82031 1.1123,-2.3955 l 0.11621,-0.0886 c 0.36963,0.39966 0.87012,1.05127 1.90723,1.05103 v 0 c 1.03809,2.4e-4 1.53809,-0.65235 1.90772,-1.05176 l 0.11669,0.0906 z"
         style="fill:#ffffff;fill-opacity:1;fill-rule:nonzero;stroke:none"
         id="path34" /><path
         d="m 304.9873,669.78076 v 5.09546 l -3.11084,-2.54736 z"
         style="fill:#ffffff;fill-opacity:1;fill-rule:nonzero;stroke:none"
         id="path36" /><path
         d="m 298.22754,636.83203 c 0,-1.30859 -1.06152,-2.36914 -2.36963,-2.36914 -1.30811,0 -2.36914,1.06055 -2.36914,2.36914 0,1.3086 1.06103,2.36914 2.36914,2.36914 1.30811,0 2.36963,-1.06054 2.36963,-2.36914 z"
         style="fill:#ffffff;fill-opacity:1;fill-rule:nonzero;stroke:none"
         id="path38" /><path
         d="m 298.04102,623.6792 c 0,-1.20557 -0.97754,-2.18311 -2.18311,-2.18311 -1.20557,0 -2.18311,0.97754 -2.18311,2.18311 0,1.20557 0.97754,2.1831 2.18311,2.1831 1.20557,0 2.18311,-0.97753 2.18311,-2.1831 z"
         style="fill:#ffffff;fill-opacity:1;fill-rule:nonzero;stroke:none"
         id="path40" /><path
         d="m 295.8584,617.1875 c 0,0 3.19775,-2.49414 5.6831,-2.49414 4.00245,0 6.26416,1.85644 6.26416,1.85644 0.77002,-0.10302 1.3086,-2.63769 5.85791,-3.42187 1.68213,-0.29004 5.68409,0.6958 5.68409,0.6958 0,0 1.61132,-2.25342 5.22021,-3.39844 2.66797,-0.84668 6.55371,0.16602 6.55371,0.16602 0,0 1.56592,-3.08985 5.62598,-5.06152 2.70703,-1.31495 4.03515,-1.8462 4.29199,-1.21827 0.52246,1.27637 -2.2041,1.10205 -4.96875,2.95801 -2.9917,2.00879 -3.73144,4.46582 -4.94922,4.87207 -0.92773,0.30957 -2.51562,-1.24512 -6.55371,-0.17383 -2.84228,0.75391 -3.6543,2.89991 -5.20117,3.26709 -0.98096,0.23291 -2.13037,-1.23681 -5.49024,-0.6958 -4.5625,0.73438 -5.03027,3.44971 -5.80029,3.55713 -0.96631,0.13526 -1.95263,-1.89453 -6.4956,-1.85596 -2.48536,0.0215 -4.02149,1.54688 -4.56299,2.16553 -0.54151,0.61865 -1.15918,0.6377 -1.15918,0.6377 h -9.8e-4 c 0,0 -0.61767,-0.019 -1.15918,-0.6377 -0.5415,-0.61865 -2.07763,-2.14404 -4.56299,-2.16553 -4.54296,-0.0386 -5.52929,1.99122 -6.4956,1.85596 -0.77002,-0.10742 -1.23779,-2.82275 -5.80029,-3.55713 -3.35987,-0.54101 -4.50928,0.92871 -5.49024,0.6958 -1.54687,-0.36718 -2.35937,-2.51318 -5.20117,-3.26709 -4.03809,-1.07129 -5.62598,0.4834 -6.55371,0.17383 -1.21778,-0.40625 -1.95752,-2.86328 -4.94922,-4.87207 -2.76465,-1.85596 -5.49121,-1.68164 -4.96875,-2.95801 0.25684,-0.62793 1.58496,-0.0967 4.29199,1.21827 4.06006,1.97167 5.62598,5.06152 5.62598,5.06152 0,0 3.88574,-1.0127 6.55371,-0.16602 3.60889,1.14502 5.22021,3.39844 5.22021,3.39844 0,0 4.00196,-0.98584 5.68409,-0.6958 4.54931,0.78418 5.08789,3.31885 5.85791,3.42187 0,0 2.26172,-1.85644 6.26416,-1.85644 2.48535,0 5.6831,2.49414 5.6831,2.49414 z"
         style="fill:#ffffff;fill-opacity:1;fill-rule:nonzero;stroke:none"
         id="path42" /><path
         d="m 295.8584,629.5415 c 1.10205,-4.8e-4 1.15918,-1.27587 1.85547,-1.33398 0.6958,-0.0581 1.27588,0.58008 2.02978,1.85596 0.75391,1.27636 0.29004,2.37793 -0.6958,2.08789 -0.98584,-0.28955 -1.33398,-0.6377 -3.18945,-0.67627 h -9.8e-4 c -1.85547,0.0386 -2.20361,0.38672 -3.18945,0.67627 -0.98584,0.29004 -1.44971,-0.81153 -0.6958,-2.08789 0.7539,-1.27588 1.33398,-1.91407 2.02978,-1.85596 0.69629,0.0581 0.75342,1.3335 1.85547,1.33398 z"
         style="fill:#ffffff;fill-opacity:1;fill-rule:nonzero;stroke:none"
         id="path44" /><path
         d="m 291.16016,625.53955 c -0.1294,1.03565 -0.58008,1.85596 -1.5083,2.26221 -0.92774,0.40576 -3.07373,0.0576 -2.37745,-1.21826 0.6958,-1.27588 0.98584,-2.89991 0.52198,-4.292 -0.46436,-1.39209 -0.8125,-3.01611 1.04345,-2.78369 1.85645,0.23194 2.37842,0.87012 2.32032,2.08789 -0.0581,1.21778 -0.41944,1.23828 -0.7544,1.33399 -0.81152,0.23193 -1.10156,1.33398 -0.23144,1.50781 0.87011,0.17432 1.10205,0.17432 0.98584,1.10205 z"
         style="fill:#ffffff;fill-opacity:1;fill-rule:nonzero;stroke:none"
         id="path46" /><path
         d="m 289.71045,657.61377 c 0,0 0,-3.77026 0.46387,-9.91797 0.46386,-6.14795 1.04394,-13.45605 1.04394,-13.45605 0,0 -0.87012,0.17382 -1.5664,-0.98584 0,0 -0.25342,5.41552 -1.56592,10.9038 -1.27588,5.33594 -1.36719,8.18384 -1.15967,10.67188 0.23193,2.78418 2.78418,2.78418 2.78418,2.78418 z"
         style="fill:#ffffff;fill-opacity:1;fill-rule:nonzero;stroke:none"
         id="path48" /><path
         d="m 269.00391,625.01758 c -0.48291,-0.19336 -0.57959,-0.58008 -0.57959,-0.98584 0,-0.40625 -0.87012,-1.4502 -1.97217,-0.81201 -1.10205,0.63769 -2.31983,1.91406 -1.50781,2.43603 0.81152,0.52197 1.85595,0.29004 2.43603,0.29004 0.83106,0 1.48828,0.30908 2.43555,1.21777 0.68652,0.6587 2.32031,1.39209 2.32031,-0.17382 0,-1.56592 -0.0581,-2.37793 -0.81201,-2.55225 -0.7544,-0.17383 -1.04395,-0.29004 -1.44971,0.17432 -0.40625,0.46386 -0.70019,0.47412 -0.8706,0.40576 z"
         style="fill:#ffffff;fill-opacity:1;fill-rule:nonzero;stroke:none"
         id="path50" /><path
         d="m 274.12744,623.85742 c 0.38037,1.03272 0.9668,1.81787 1.89453,1.77881 0.92823,-0.0386 1.16016,-0.85107 1.16016,-2.04932 0,-1.19824 4.9e-4,-1.54638 0.9668,-2.47461 0.9663,-0.92773 1.15966,-2.12695 0.0771,-2.51367 -1.08252,-0.38623 -1.97168,0.23242 -2.51318,0.65772 -0.5415,0.42529 -0.65723,0.57959 -0.34814,1.54638 0.30957,0.9668 0.15429,1.39209 -0.50245,1.66309 -0.65771,0.27051 -1.00537,0.65723 -0.73486,1.3916 z"
         style="fill:#ffffff;fill-opacity:1;fill-rule:nonzero;stroke:none"
         id="path52" /><path
         d="m 264.80859,621.26709 c -1.04785,0.64014 -2.12646,-0.15479 -2.12646,-0.92822 0,-0.77344 0.85058,-1.50782 1.2373,-2.43604 0.38672,-0.92822 0.61914,-1.81738 0.77344,-2.97705 0.1543,-1.16015 0.77344,-1.35351 1.70117,-0.5415 0.92774,0.81201 1.43067,1.54638 1.1211,2.28125 -0.30909,0.73486 -0.81836,0.29834 -1.43018,0.69629 -0.77344,0.50244 -0.34814,1.3916 0.0386,1.9331 0.38671,0.54151 0.0771,1.1211 -1.31495,1.97217 z"
         style="fill:#ffffff;fill-opacity:1;fill-rule:nonzero;stroke:none"
         id="path54" /><path
         d="m 272.89014,619.73975 c 0,-1.1211 -0.92627,-2.03028 -2.06836,-2.03028 -1.14258,0 -2.06885,0.90918 -2.06885,2.03028 0,1.12109 0.92627,2.03027 2.06885,2.03027 1.14209,0 2.06836,-0.90918 2.06836,-2.03027 z"
         style="fill:#ffffff;fill-opacity:1;fill-rule:nonzero;stroke:none"
         id="path56" /><path
         d="m 247.84668,611.875 c 0.65771,-0.95312 0.66113,-2.09082 0.008,-2.54199 -0.65381,-0.45166 -1.71631,-0.0454 -2.37451,0.90722 -0.65771,0.95215 -0.66113,2.09082 -0.008,2.542 0.65381,0.45117 1.71679,0.0449 2.37451,-0.90723 z"
         style="fill:#ffffff;fill-opacity:1;fill-rule:nonzero;stroke:none"
         id="path58" /><path
         d="m 249.57422,618.32813 c -0.54004,0.0517 -1.19873,-0.58008 -1.27588,-2.28125 -0.0776,-1.70118 0.0386,-1.89454 0.77295,-1.70118 0.73486,0.19336 1.19873,-0.0771 1.39209,-0.81201 0.19336,-0.73486 -0.50293,-1.50781 0.46387,-2.16553 0.96679,-0.65722 1.70166,-0.57959 2.7456,-0.23193 1.04395,0.34815 1.12158,1.35352 -0.0386,2.2041 -1.16016,0.85059 -2.08789,1.70117 -2.55225,2.97705 -0.46387,1.27637 -0.6958,1.9336 -1.50781,2.01075 z"
         style="fill:#ffffff;fill-opacity:1;fill-rule:nonzero;stroke:none"
         id="path60" /><path
         d="m 233.68213,612.87646 c -0.55371,0.35596 0.29004,2.38135 2.39746,4.13721 1.62354,1.35352 3.3252,2.82276 6.03174,1.70117 1.45459,-0.60254 1.81738,-1.70117 2.47461,-2.43603 0.8667,-0.96826 0.81201,-1.12158 0.0776,-1.04395 -0.73486,0.0776 -0.96679,0 -0.92822,-0.5415 0.0391,-0.54102 -0.30957,-0.88916 -1.19873,0.11621 -0.88916,1.00537 -2.43457,1.73682 -3.82812,1.31494 -2.93848,-0.88965 -4.48487,-3.59619 -5.02637,-3.24805 z"
         style="fill:#ffffff;fill-opacity:1;fill-rule:nonzero;stroke:none"
         id="path62" /><path
         d="m 283.62012,648.50757 c -0.0518,0.64648 -1.27588,-0.40601 -3.01612,-0.92798 -1.73974,-0.52197 -3.5957,-0.23193 -6.26416,-0.0579 -2.66796,0.17407 -4.77002,-0.35474 -5.91552,-2.95801 -1.27637,-2.90015 -0.11621,-5.51001 1.27588,-8.17798 1.61523,-3.09619 3.07421,-5.56836 3.59619,-6.84424 0.52148,-1.27587 0.92773,-1.85595 1.27539,-1.39209 0.34814,0.46436 -0.11573,1.97217 -1.04346,4.00196 -0.92822,2.03027 -3.36426,6.32226 -3.65381,8.8164 -0.29053,2.49414 0.34766,4.75586 2.60938,5.0459 2.5166,0.32276 4.58203,-0.29004 6.78613,-0.11596 2.13965,0.1687 4.46582,1.15991 4.3501,2.60986 z"
         style="fill:#ffffff;fill-opacity:1;fill-rule:nonzero;stroke:none"
         id="path64" /><path
         d="m 266.8584,647.46362 c 1.04541,1.15576 1.50781,2.26197 0.6958,2.03003 -0.81201,-0.23193 -2.8418,-1.79785 -3.6543,-3.94409 -0.81201,-2.14575 -1.16015,-3.42163 0.69629,-7.53979 1.85596,-4.11817 2.95801,-6.5542 3.42188,-7.65625 0.46386,-1.10206 0.92822,-1.27588 1.16015,-0.6377 0.23194,0.6377 -0.17431,2.02979 -1.56592,4.98779 -1.39209,2.95801 -2.55224,5.68409 -2.55224,8.29395 0,2.2041 0.6958,3.24805 1.79834,4.46606 z"
         style="fill:#ffffff;fill-opacity:1;fill-rule:nonzero;stroke:none"
         id="path66" /><path
         d="m 251.63477,640.79834 c 0.25927,-1.95508 0.81689,-4.0415 1.70947,-6.15283 2.70068,-6.39014 5.56787,-10.72998 6.26416,-11.42578 0.6958,-0.69629 2.43603,-1.10205 0.81152,1.33398 -1.62353,2.43604 -5.27783,7.71387 -6.84375,14.73193 -1.19629,5.36231 -0.11572,7.5979 1.10205,10.03418 0.9209,1.84205 3.18994,3.01563 3.01612,3.36377 -0.25586,0.51099 -3.46631,-0.66113 -5.04639,-3.71191 -0.88574,-1.71069 -1.30469,-4.03272 -1.15625,-6.66992 0,0 -3.4834,0.29004 -6.61524,-0.81201 -3.13232,-1.10205 -5.39453,-3.13233 -5.51025,-6.66993 -0.11621,-3.53808 2.72608,-8.06201 4.52393,-10.67236 1.79785,-2.60986 2.72607,-3.76953 3.07422,-3.24805 0.34765,0.52247 -0.8125,1.97217 -2.49415,5.1045 -1.68212,3.13183 -3.85546,7.71923 -2.03027,10.9038 2.49414,4.3501 9.19483,3.89063 9.19483,3.89063 z"
         style="fill:#ffffff;fill-opacity:1;fill-rule:nonzero;stroke:none"
         id="path68" /><path
         d="m 295.85791,610.57568 c -10.46338,0 -20.11914,-1.28466 -27.88965,-3.45263 -3.96777,-1.10742 -7.37109,-2.59082 -10.28515,-3.95899 -3.43262,-1.61181 -4.57081,-2.9707 -4.68702,-2.04248 -0.11572,0.92822 1.79834,2.02979 4.15137,3.23975 3.07178,1.57959 6.67188,3.06787 10.75293,4.25097 7.92725,2.29786 17.56397,3.64551 27.95752,3.64551 v 0 c 10.39355,0 20.03027,-1.34765 27.95752,-3.64551 4.08105,-1.1831 7.68115,-2.67138 10.75293,-4.25097 2.35303,-1.20996 4.26709,-2.31153 4.15137,-3.23975 -0.11621,-0.92822 -1.2544,0.43067 -4.68702,2.04248 -2.91406,1.36817 -6.31738,2.85157 -10.28515,3.95899 -7.77051,2.16797 -17.42627,3.45263 -27.88965,3.45263 z"
         style="fill:#ffffff;fill-opacity:1;fill-rule:nonzero;stroke:none"
         id="path70" /><path
         d="m 258.87549,596.70264 c 1.29834,-0.0664 1.59814,-0.1167 2.08398,0.0972 v 0 c 0.47754,0.23145 0.63379,0.49122 1.42481,1.52393 0.96386,1.25684 1.49658,1.90869 1.39892,2.12744 -0.12353,0.27735 -1.22705,0.31299 -2.56738,0.37793 -1.24512,0.0601 -1.57373,0.0635 -2.04248,-0.16113 v 0 c -0.47559,-0.21094 -0.68555,-0.46387 -1.44727,-1.4502 0,0 0.1792,1.03174 1.22657,1.60547 0.5332,0.29199 1.08691,0.56739 1.65283,0.84131 1.65381,0.80127 3.43115,1.54639 5.31885,2.22803 l 0.0264,-0.146 c 0.14453,-1.11035 0.39063,-3.02978 0.46289,-3.78027 0.10498,-1.0835 0.83887,-1.12988 1.10938,-1.13281 0.27148,-0.002 0.70117,0.45654 0.4043,1.69726 -0.20118,0.84424 -0.73536,2.5166 -1.05518,3.49805 l -0.0562,0.17822 c 0.625,0.21582 1.26172,0.42432 1.90869,0.62598 l 0.0312,-0.17969 c 0.14648,-1.04004 0.45117,-3.22266 0.53857,-4.03418 0.11573,-1.08301 0.8501,-1.12158 1.1211,-1.12158 0.27051,0 0.6958,0.46387 0.38672,1.70117 -0.22657,0.90527 -0.84571,2.76221 -1.16211,3.69385 l -0.0737,0.19678 c 7.59521,2.26171 16.61572,3.57226 26.2915,3.57226 9.67188,0 18.68848,-1.30957 26.28174,-3.56982 l -0.0405,-0.12989 c -0.30859,-0.90625 -0.95312,-2.83496 -1.18555,-3.76318 -0.30908,-1.2373 0.11622,-1.70117 0.38672,-1.70117 0.271,0 1.00537,0.0386 1.1211,1.12158 0.0879,0.82031 0.39843,3.04248 0.54297,4.06836 l 0.0195,0.14697 c 0.65088,-0.20263 1.29052,-0.41211 1.91894,-0.62842 l -0.0596,-0.17968 c -0.32031,-0.98194 -0.85351,-2.65186 -1.05469,-3.49561 -0.29687,-1.24072 0.13282,-1.69971 0.40381,-1.69726 0.271,0.003 1.00489,0.0493 1.10987,1.13281 0.0723,0.75049 0.31836,2.67041 0.46289,3.78076 l 0.0244,0.146 c 1.77686,-0.64209 3.45654,-1.33936 5.02734,-2.08741 0.46045,-0.21972 0.92237,-0.4248 1.35401,-0.67138 1.17431,-0.66992 1.48389,-0.94092 1.75439,-1.28858 0.41992,-0.54004 0.0645,-0.62793 0.0645,-0.62793 -0.76172,0.98633 -0.97168,1.23926 -1.44727,1.4502 v 0 c -0.46875,0.22461 -0.79736,0.22119 -2.04248,0.16113 -1.34033,-0.0649 -2.44385,-0.10058 -2.56738,-0.37793 -0.0977,-0.21875 0.43506,-0.8706 1.39892,-2.12744 0.79102,-1.03271 0.94727,-1.29248 1.42481,-1.52393 v 0 c 0.48584,-0.21386 0.78564,-0.16357 2.08398,-0.0972 0,0 -0.13232,-0.84717 -2.05615,-0.17627 -0.55371,0.19287 -1.125,0.36816 -1.70752,0.5459 -8.72803,2.65771 -20.39746,4.28125 -33.21875,4.28125 -12.72607,0 -24.31787,-1.59961 -33.02441,-4.22266 -0.78077,-0.23535 -1.52979,-0.50195 -2.27051,-0.72998 -1.20606,-0.37061 -1.6875,0.30176 -1.6875,0.30176 m 36.98291,5.17285 c 0.72412,0.0142 1.0664,0.26611 2.63818,1.16064 1.91406,1.08887 2.94776,1.6333 2.95215,1.98633 0.006,0.44922 -1.34228,1.18018 -2.9668,2.09717 -1.50879,0.85205 -1.91406,1.06006 -2.62353,1.04883 h -9.8e-4 c -0.70947,0.0112 -1.11474,-0.19678 -2.62353,-1.04883 -1.62451,-0.91699 -2.97266,-1.64795 -2.9668,-2.09717 0.004,-0.35303 1.03809,-0.89746 2.95215,-1.98633 1.57178,-0.89453 1.91406,-1.14648 2.63818,-1.16064 h 9.8e-4 m -17.1709,-0.94092 c 0.63232,0.11328 0.896,0.38477 2.146,1.39795 1.52148,1.23437 2.34961,1.86182 2.3042,2.17627 -0.0586,0.3999 -1.3418,0.8623 -2.89356,1.45166 -1.44141,0.54736 -1.82471,0.67578 -2.44531,0.56787 h -4.9e-4 c -0.62256,-0.0894 -0.94775,-0.33105 -2.14844,-1.29785 -1.29297,-1.04053 -2.36963,-1.87793 -2.30078,-2.27637 0.0532,-0.31299 1.03516,-0.65283 2.86426,-1.35498 1.50244,-0.57666 1.8374,-0.75244 2.47363,-0.66504 l 4.9e-4,4.9e-4 m 34.34131,-4.9e-4 c 0.63623,-0.0874 0.97119,0.0884 2.47363,0.66504 1.8291,0.70215 2.81104,1.04199 2.86426,1.35498 0.0688,0.39844 -1.00781,1.23584 -2.30078,2.27637 -1.20069,0.9668 -1.52588,1.20849 -2.14844,1.29785 h -4.9e-4 c -0.6206,0.10791 -1.0039,-0.0205 -2.44531,-0.56787 -1.55176,-0.58936 -2.83496,-1.05176 -2.89355,-1.45166 -0.0454,-0.31445 0.78271,-0.9419 2.30419,-2.17627 1.25,-1.01318 1.51368,-1.28467 2.146,-1.39795 z"
         style="fill:#ffffff;fill-opacity:1;fill-rule:nonzero;stroke:none"
         id="path72" /><path
         d="m 300.55566,625.53955 c 0.1294,1.03565 0.58008,1.85596 1.5083,2.26221 0.92774,0.40576 3.07374,0.0576 2.37745,-1.21826 -0.6958,-1.27588 -0.98584,-2.89991 -0.52198,-4.292 0.46436,-1.39209 0.8125,-3.01611 -1.04394,-2.78369 -1.85596,0.23194 -2.37793,0.87012 -2.31983,2.08789 0.0581,1.21778 0.41944,1.23828 0.7544,1.33399 0.81152,0.23193 1.10156,1.33398 0.23144,1.50781 -0.87011,0.17432 -1.10205,0.17432 -0.98584,1.10205 z"
         style="fill:#ffffff;fill-opacity:1;fill-rule:nonzero;stroke:none"
         id="path74" /><path
         d="m 302.00537,657.61377 c 0,0 0,-3.77026 -0.46387,-9.91797 -0.46386,-6.14795 -1.04394,-13.45605 -1.04394,-13.45605 0,0 0.87012,0.17382 1.5664,-0.98584 0,0 0.25342,5.41552 1.56592,10.9038 1.27588,5.33594 1.36719,8.18384 1.15967,10.67188 -0.23193,2.78418 -2.78418,2.78418 -2.78418,2.78418 z"
         style="fill:#ffffff;fill-opacity:1;fill-rule:nonzero;stroke:none"
         id="path76" /><path
         d="m 322.71191,625.01758 c 0.48291,-0.19336 0.57959,-0.58008 0.57959,-0.98584 0,-0.40625 0.87012,-1.4502 1.97217,-0.81201 1.10205,0.63769 2.31983,1.91406 1.50781,2.43603 -0.81201,0.52197 -1.85595,0.29004 -2.43603,0.29004 -0.83106,0 -1.48828,0.30908 -2.43555,1.21777 -0.68652,0.6587 -2.32031,1.39209 -2.32031,-0.17382 0,-1.56592 0.0581,-2.37793 0.81201,-2.55225 0.7544,-0.17383 1.04395,-0.29004 1.44971,0.17432 0.40625,0.46386 0.69971,0.47412 0.8706,0.40576 z"
         style="fill:#ffffff;fill-opacity:1;fill-rule:nonzero;stroke:none"
         id="path78" /><path
         d="m 317.58838,623.85742 c -0.38037,1.03272 -0.9668,1.81787 -1.89453,1.77881 -0.92822,-0.0386 -1.16016,-0.85107 -1.16016,-2.04932 0,-1.19824 -4.9e-4,-1.54638 -0.9668,-2.47461 -0.9663,-0.92773 -1.16015,-2.12695 -0.0771,-2.51367 1.08252,-0.38623 1.97168,0.23242 2.51318,0.65772 0.5415,0.42529 0.65723,0.57959 0.34814,1.54638 -0.30957,0.9668 -0.15429,1.39209 0.50245,1.66309 0.65771,0.27051 1.00537,0.65723 0.73486,1.3916 z"
         style="fill:#ffffff;fill-opacity:1;fill-rule:nonzero;stroke:none"
         id="path80" /><path
         d="m 326.90674,621.26709 c 1.04834,0.64014 2.12695,-0.15479 2.12695,-0.92822 0,-0.77344 -0.85058,-1.50782 -1.2373,-2.43604 -0.38672,-0.92822 -0.61914,-1.81738 -0.77344,-2.97705 -0.1543,-1.16015 -0.77344,-1.35351 -1.70117,-0.5415 -0.92774,0.81201 -1.43067,1.54638 -1.1211,2.28125 0.3086,0.73486 0.81836,0.29834 1.43018,0.69629 0.77344,0.50244 0.34814,1.3916 -0.0386,1.9331 -0.38672,0.54151 -0.0772,1.1211 1.31445,1.97217 z"
         style="fill:#ffffff;fill-opacity:1;fill-rule:nonzero;stroke:none"
         id="path82" /><path
         d="m 318.82568,619.73975 c 0,-1.1211 0.92627,-2.03028 2.06836,-2.03028 1.14258,0 2.06885,0.90918 2.06885,2.03028 0,1.12109 -0.92627,2.03027 -2.06885,2.03027 -1.14209,0 -2.06836,-0.90918 -2.06836,-2.03027 z"
         style="fill:#ffffff;fill-opacity:1;fill-rule:nonzero;stroke:none"
         id="path84" /><path
         d="m 343.86914,611.875 c -0.65771,-0.95312 -0.66113,-2.09082 -0.008,-2.54199 0.65381,-0.45166 1.71631,-0.0454 2.37451,0.90722 0.65771,0.95215 0.66064,2.09082 0.008,2.542 -0.65381,0.45117 -1.71679,0.0449 -2.37451,-0.90723 z"
         style="fill:#ffffff;fill-opacity:1;fill-rule:nonzero;stroke:none"
         id="path86" /><path
         d="m 342.1416,618.32813 c 0.54004,0.0517 1.19873,-0.58008 1.27588,-2.28125 0.0776,-1.70118 -0.0386,-1.89454 -0.77344,-1.70118 -0.73437,0.19336 -1.19824,-0.0771 -1.3916,-0.81201 -0.19336,-0.73486 0.50293,-1.50781 -0.46387,-2.16553 -0.96679,-0.65722 -1.70166,-0.57959 -2.7456,-0.23193 -1.04395,0.34815 -1.12158,1.35352 0.0386,2.2041 1.16016,0.85059 2.08789,1.70117 2.55225,2.97705 0.46387,1.27637 0.6958,1.9336 1.50781,2.01075 z"
         style="fill:#ffffff;fill-opacity:1;fill-rule:nonzero;stroke:none"
         id="path88" /><path
         d="m 358.03369,612.87646 c 0.55371,0.35596 -0.29004,2.38135 -2.39746,4.13721 -1.62353,1.35352 -3.32519,2.82276 -6.03174,1.70117 -1.45459,-0.60254 -1.81738,-1.70117 -2.47461,-2.43603 -0.8667,-0.96826 -0.81201,-1.12158 -0.0776,-1.04395 0.73486,0.0776 0.96679,0 0.92822,-0.5415 -0.0391,-0.54102 0.30957,-0.88916 1.19873,0.11621 0.88916,1.00537 2.43457,1.73682 3.82812,1.31494 2.93848,-0.88965 4.48487,-3.59619 5.02637,-3.24805 z"
         style="fill:#ffffff;fill-opacity:1;fill-rule:nonzero;stroke:none"
         id="path90" /><path
         d="m 308.0957,648.50757 c 0.0518,0.64648 1.27588,-0.40601 3.01612,-0.92798 1.73974,-0.52197 3.5957,-0.23193 6.26367,-0.0579 2.66846,0.17407 4.77051,-0.35474 5.91601,-2.95801 1.27637,-2.90015 0.11621,-5.51001 -1.27587,-8.17798 -1.61573,-3.09619 -3.07422,-5.56836 -3.5962,-6.84424 -0.52148,-1.27587 -0.92773,-1.85595 -1.27539,-1.39209 -0.34814,0.46436 0.11573,1.97217 1.04346,4.00196 0.92822,2.03027 3.36426,6.32226 3.65381,8.8164 0.29053,2.49414 -0.34766,4.75586 -2.60938,5.0459 -2.5166,0.32276 -4.58203,-0.29004 -6.78613,-0.11596 -2.13965,0.1687 -4.46582,1.15991 -4.3501,2.60986 z"
         style="fill:#ffffff;fill-opacity:1;fill-rule:nonzero;stroke:none"
         id="path92" /><path
         d="m 324.85742,647.46362 c -1.04541,1.15576 -1.50781,2.26197 -0.6958,2.03003 0.81201,-0.23193 2.8418,-1.79785 3.6543,-3.94409 0.81201,-2.14575 1.15967,-3.42163 -0.69629,-7.53979 -1.85596,-4.11817 -2.95801,-6.5542 -3.42188,-7.65625 -0.46386,-1.10206 -0.92822,-1.27588 -1.16015,-0.6377 -0.23194,0.6377 0.17431,2.02979 1.56592,4.98779 1.39209,2.95801 2.55224,5.68409 2.55224,8.29395 0,2.2041 -0.69629,3.24805 -1.79834,4.46606 z"
         style="fill:#ffffff;fill-opacity:1;fill-rule:nonzero;stroke:none"
         id="path94" /><path
         d="m 340.08105,640.79834 c -0.25927,-1.95508 -0.81689,-4.0415 -1.70947,-6.15283 -2.70117,-6.39014 -5.56787,-10.72998 -6.26416,-11.42578 -0.6958,-0.69629 -2.43603,-1.10205 -0.81152,1.33398 1.62353,2.43604 5.27783,7.71387 6.84375,14.73193 1.19629,5.36231 0.11572,7.5979 -1.10205,10.03418 -0.9209,1.84205 -3.18994,3.01563 -3.01612,3.36377 0.25538,0.51099 3.46631,-0.66113 5.04639,-3.71191 0.88574,-1.71069 1.30469,-4.03272 1.15625,-6.66992 0,0 3.4834,0.29004 6.61524,-0.81201 3.13232,-1.10205 5.39453,-3.13233 5.51025,-6.66993 0.11621,-3.53808 -2.72607,-8.06201 -4.52393,-10.67236 -1.79785,-2.60986 -2.72607,-3.76953 -3.07422,-3.24805 -0.34765,0.52247 0.8125,1.97217 2.49415,5.1045 1.68212,3.13183 3.85546,7.71923 2.02978,10.9038 -2.49365,4.3501 -9.19434,3.89063 -9.19434,3.89063 z"
         style="fill:#ffffff;fill-opacity:1;fill-rule:nonzero;stroke:none"
         id="path96" /><path
         d="m 235.47705,630.95508 c 0,-1.39697 -1.13281,-2.52979 -2.52978,-2.52979 -1.39698,0 -2.52979,1.13282 -2.52979,2.52979 0,1.39697 1.13281,2.5293 2.52979,2.5293 1.39697,0 2.52978,-1.13233 2.52978,-2.5293 z"
         style="fill:#ffffff;fill-opacity:1;fill-rule:nonzero;stroke:none"
         id="path98" /><path
         d="m 297.79834,605.90771 c 0,0 1.07959,-0.61035 1.45947,-0.83544 -0.27734,-0.16065 -1.97607,-1.12745 -1.97607,-1.12745 -1.06299,-0.60986 -1.19434,-0.6665 -1.42334,-0.67431 -0.22998,0.008 -0.36182,0.0645 -1.42432,0.67431 0,0 -1.69873,0.9668 -1.97607,1.12745 0.37988,0.22509 1.45996,0.83544 1.45996,0.83544 1.42627,0.80469 1.61084,0.87403 1.91797,0.86915 0.35107,0.005 0.53564,-0.0645 1.9624,-0.86915 z"
         style="fill:#ffffff;fill-opacity:1;fill-rule:nonzero;stroke:none"
         id="path100" /><path
         d="m 279.81641,604.78809 c 0,0 1.03222,-0.39258 1.39599,-0.54004 -0.22021,-0.18067 -1.5708,-1.27637 -1.5708,-1.27637 -0.84375,-0.68994 -0.95166,-0.75879 -1.15137,-0.79736 -0.20166,-0.0249 -0.32519,0.007 -1.34179,0.40136 0,0 -1.62354,0.62354 -1.88867,0.72705 0.30029,0.25293 1.16015,0.94581 1.16015,0.94581 1.13428,0.91406 1.28662,1.00097 1.55615,1.03906 0.30664,0.0537 0.47852,0.0171 1.84034,-0.49951 z"
         style="fill:#ffffff;fill-opacity:1;fill-rule:nonzero;stroke:none"
         id="path102" /><path
         d="m 260.86719,599.84473 c 0,0 0.73828,-0.0601 1,-0.0869 -0.10987,-0.15625 -0.78906,-1.10547 -0.78906,-1.10547 -0.42286,-0.59619 -0.48096,-0.66015 -0.60303,-0.72216 -0.12598,-0.0522 -0.21192,-0.0552 -0.94043,0.009 0,0 -1.16309,0.0991 -1.35352,0.1167 0.1499,0.2168 0.58252,0.81788 0.58252,0.81788 0.57178,0.79296 0.65479,0.87695 0.82227,0.95068 0.18945,0.0913 0.30713,0.0986 1.28125,0.0205 z"
         style="fill:#ffffff;fill-opacity:1;fill-rule:nonzero;stroke:none"
         id="path104" /><path
         d="m 264.43018,630.5293 c 0,-1.24268 -1.0083,-2.25049 -2.25098,-2.25049 -1.24268,0 -2.25049,1.00781 -2.25049,2.25049 0,1.24316 1.00781,2.25097 2.25049,2.25097 1.24268,0 2.25098,-1.00781 2.25098,-2.25097 z"
         style="fill:#ffffff;fill-opacity:1;fill-rule:nonzero;stroke:none"
         id="path106" /><path
         d="m 261.30225,637.79883 c 0,-1.2666 -1.02686,-2.29395 -2.29346,-2.29395 -1.2666,0 -2.29395,1.02735 -2.29395,2.29395 0,1.2666 1.02735,2.29346 2.29395,2.29346 1.2666,0 2.29346,-1.02686 2.29346,-2.29346 z"
         style="fill:#ffffff;fill-opacity:1;fill-rule:nonzero;stroke:none"
         id="path108" /><path
         d="m 261.42529,646.46021 c 0,-1.29175 -1.04736,-2.33912 -2.33935,-2.33912 -1.29151,0 -2.33887,1.04737 -2.33887,2.33912 0,1.2915 1.04736,2.33911 2.33887,2.33911 1.29199,0 2.33935,-1.04761 2.33935,-2.33911 z"
         style="fill:#ffffff;fill-opacity:1;fill-rule:nonzero;stroke:none"
         id="path110" /><path
         d="m 266.0625,653.11084 c 0,-1.39722 -1.13281,-2.52979 -2.52979,-2.52979 -1.39648,0 -2.52929,1.13257 -2.52929,2.52979 0,1.39673 1.13281,2.5293 2.52929,2.5293 1.39698,0 2.52979,-1.13257 2.52979,-2.5293 z"
         style="fill:#ffffff;fill-opacity:1;fill-rule:nonzero;stroke:none"
         id="path112" /><path
         d="m 274.7627,654.65747 c 0,-1.39697 -1.13282,-2.52954 -2.53028,-2.52954 -1.39648,0 -2.52929,1.13257 -2.52929,2.52954 0,1.39697 1.13281,2.52954 2.52929,2.52954 1.39746,0 2.53028,-1.13257 2.53028,-2.52954 z"
         style="fill:#ffffff;fill-opacity:1;fill-rule:nonzero;stroke:none"
         id="path114" /><path
         d="m 283.26904,654.81201 c 0,-1.39673 -1.13281,-2.5293 -2.52929,-2.5293 -1.39698,0 -2.52979,1.13257 -2.52979,2.5293 0,1.39722 1.13281,2.52979 2.52979,2.52979 1.39648,0 2.52929,-1.13257 2.52929,-2.52979 z"
         style="fill:#ffffff;fill-opacity:1;fill-rule:nonzero;stroke:none"
         id="path116" /><path
         d="m 248.89453,649.4375 c 0,-1.39697 -1.13281,-2.52979 -2.52978,-2.52979 -1.39649,0 -2.5293,1.13282 -2.5293,2.52979 0,1.39697 1.13281,2.52954 2.5293,2.52954 1.39697,0 2.52978,-1.13257 2.52978,-2.52954 z"
         style="fill:#ffffff;fill-opacity:1;fill-rule:nonzero;stroke:none"
         id="path118" /><path
         d="m 240.95313,646.18945 c 0,-1.45288 -1.17823,-2.63086 -2.63135,-2.63086 -1.45264,0 -2.63086,1.17798 -2.63086,2.63086 0,1.45288 1.17822,2.63086 2.63086,2.63086 1.45312,0 2.63135,-1.17798 2.63135,-2.63086 z"
         style="fill:#ffffff;fill-opacity:1;fill-rule:nonzero;stroke:none"
         id="path120" /><path
         d="m 235.43848,639.61621 c 0,-1.39697 -1.13282,-2.5293 -2.52979,-2.5293 -1.39697,0 -2.52978,1.13233 -2.52978,2.5293 0,1.39697 1.13281,2.5293 2.52978,2.5293 1.39697,0 2.52979,-1.13233 2.52979,-2.5293 z"
         style="fill:#ffffff;fill-opacity:1;fill-rule:nonzero;stroke:none"
         id="path122" /><path
         d="m 237.90234,623.18262 c 0,-1.32715 -1.07617,-2.40332 -2.40283,-2.40332 -1.32715,0 -2.40332,1.07617 -2.40332,2.40332 0,1.32715 1.07617,2.40332 2.40332,2.40332 1.32666,0 2.40283,-1.07617 2.40283,-2.40332 z"
         style="fill:#ffffff;fill-opacity:1;fill-rule:nonzero;stroke:none"
         id="path124" /><path
         d="m 356.23877,630.95508 c 0,-1.39697 1.13281,-2.52979 2.52978,-2.52979 1.39698,0 2.52979,1.13282 2.52979,2.52979 0,1.39697 -1.13281,2.5293 -2.52979,2.5293 -1.39697,0 -2.52978,-1.13233 -2.52978,-2.5293 z"
         style="fill:#ffffff;fill-opacity:1;fill-rule:nonzero;stroke:none"
         id="path126" /><path
         d="m 313.73975,605.2876 c 0.26953,-0.0381 0.42187,-0.125 1.55615,-1.03906 0,0 0.85986,-0.69288 1.16015,-0.94581 -0.26513,-0.10351 -1.88867,-0.72705 -1.88867,-0.72705 -1.0166,-0.39453 -1.14013,-0.42627 -1.34228,-0.40136 -0.19922,0.0386 -0.30713,0.10742 -1.15088,0.79736 0,0 -1.35059,1.0957 -1.5708,1.27637 0.36377,0.14746 1.39599,0.54004 1.39599,0.54004 1.36182,0.5166 1.5337,0.55322 1.84034,0.49951 z"
         style="fill:#ffffff;fill-opacity:1;fill-rule:nonzero;stroke:none"
         id="path128" /><path
         d="m 332.12988,599.82422 c 0.16748,-0.0737 0.25049,-0.15772 0.82178,-0.95068 0,0 0.43311,-0.60108 0.58301,-0.81788 -0.19092,-0.0176 -1.35352,-0.1167 -1.35352,-0.1167 -0.72851,-0.064 -0.81445,-0.061 -0.94043,-0.009 -0.12207,0.062 -0.18017,0.12597 -0.60302,0.72216 0,0 -0.6792,0.94922 -0.78907,1.10547 0.26172,0.0269 1,0.0869 1,0.0869 0.97412,0.0781 1.0918,0.0708 1.28125,-0.0205 z"
         style="fill:#ffffff;fill-opacity:1;fill-rule:nonzero;stroke:none"
         id="path130" /><path
         d="m 327.28564,630.5293 c 0,-1.24268 1.00831,-2.25049 2.25098,-2.25049 1.24268,0 2.25049,1.00781 2.25049,2.25049 0,1.24316 -1.00781,2.25097 -2.25049,2.25097 -1.24267,0 -2.25098,-1.00781 -2.25098,-2.25097 z"
         style="fill:#ffffff;fill-opacity:1;fill-rule:nonzero;stroke:none"
         id="path132" /><path
         d="m 330.41357,637.79883 c 0,-1.2666 1.02686,-2.29395 2.29346,-2.29395 1.2666,0 2.29395,1.02735 2.29395,2.29395 0,1.2666 -1.02735,2.29346 -2.29395,2.29346 -1.2666,0 -2.29346,-1.02686 -2.29346,-2.29346 z"
         style="fill:#ffffff;fill-opacity:1;fill-rule:nonzero;stroke:none"
         id="path134" /><path
         d="m 330.29053,646.46021 c 0,-1.29175 1.04736,-2.33912 2.33935,-2.33912 1.29151,0 2.33887,1.04737 2.33887,2.33912 0,1.2915 -1.04736,2.33911 -2.33887,2.33911 -1.29199,0 -2.33935,-1.04761 -2.33935,-2.33911 z"
         style="fill:#ffffff;fill-opacity:1;fill-rule:nonzero;stroke:none"
         id="path136" /><path
         d="m 325.65332,653.11084 c 0,-1.39722 1.13281,-2.52979 2.52979,-2.52979 1.39648,0 2.52929,1.13257 2.52929,2.52979 0,1.39673 -1.13281,2.5293 -2.52929,2.5293 -1.39698,0 -2.52979,-1.13257 -2.52979,-2.5293 z"
         style="fill:#ffffff;fill-opacity:1;fill-rule:nonzero;stroke:none"
         id="path138" /><path
         d="m 316.95313,654.65747 c 0,-1.39697 1.13281,-2.52954 2.53027,-2.52954 1.39648,0 2.5293,1.13257 2.5293,2.52954 0,1.39697 -1.13282,2.52954 -2.5293,2.52954 -1.39746,0 -2.53027,-1.13257 -2.53027,-2.52954 z"
         style="fill:#ffffff;fill-opacity:1;fill-rule:nonzero;stroke:none"
         id="path140" /><path
         d="m 308.44678,654.81201 c 0,-1.39673 1.13281,-2.5293 2.52929,-2.5293 1.39698,0 2.52979,1.13257 2.52979,2.5293 0,1.39722 -1.13281,2.52979 -2.52979,2.52979 -1.39648,0 -2.52929,-1.13257 -2.52929,-2.52979 z"
         style="fill:#ffffff;fill-opacity:1;fill-rule:nonzero;stroke:none"
         id="path142" /><path
         d="m 342.82129,649.4375 c 0,-1.39697 1.13281,-2.52979 2.52978,-2.52979 1.39649,0 2.5293,1.13282 2.5293,2.52979 0,1.39697 -1.13281,2.52954 -2.5293,2.52954 -1.39697,0 -2.52978,-1.13257 -2.52978,-2.52954 z"
         style="fill:#ffffff;fill-opacity:1;fill-rule:nonzero;stroke:none"
         id="path144" /><path
         d="m 350.7627,646.18945 c 0,-1.45288 1.17822,-2.63086 2.63134,-2.63086 1.45215,0 2.63037,1.17798 2.63037,2.63086 0,1.45288 -1.17822,2.63086 -2.63037,2.63086 -1.45312,0 -2.63134,-1.17798 -2.63134,-2.63086 z"
         style="fill:#ffffff;fill-opacity:1;fill-rule:nonzero;stroke:none"
         id="path146" /><path
         d="m 356.27734,639.61621 c 0,-1.39697 1.13282,-2.5293 2.52979,-2.5293 1.39697,0 2.52978,1.13233 2.52978,2.5293 0,1.39697 -1.13281,2.5293 -2.52978,2.5293 -1.39697,0 -2.52979,-1.13233 -2.52979,-2.5293 z"
         style="fill:#ffffff;fill-opacity:1;fill-rule:nonzero;stroke:none"
         id="path148" /><path
         d="m 353.81348,623.18262 c 0,-1.32715 1.07617,-2.40332 2.40283,-2.40332 1.32715,0 2.40332,1.07617 2.40332,2.40332 0,1.32715 -1.07617,2.40332 -2.40332,2.40332 -1.32666,0 -2.40283,-1.07617 -2.40283,-2.40332 z"
         style="fill:#ffffff;fill-opacity:1;fill-rule:nonzero;stroke:none"
         id="path150" /><path
         d="m 315.99854,558.61621 c -0.0679,-0.36523 -0.0581,-0.62646 0.0308,-0.78174 0.0894,-0.15576 0.31787,-0.3125 0.68847,-0.46924 l -0.0913,-0.48779 -6.17431,1.15479 0.0908,0.4873 c 0.40381,0.0254 0.67529,0.0977 0.81592,0.2168 0.14062,0.11865 0.24267,0.34814 0.30664,0.68994 l 3.10742,16.61914 c 0.0684,0.36572 0.0547,0.62939 -0.0391,0.79248 -0.0942,0.16211 -0.32032,0.32031 -0.67627,0.47607 l 0.0908,0.48731 17.7539,-3.31982 c 0.38233,-0.0713 0.64991,-0.0596 0.80323,0.0361 0.15234,0.0957 0.30713,0.32275 0.46338,0.67969 l 0.4873,-0.0908 -1.00244,-5.36182 -0.48731,0.0913 c -0.007,0.37695 -0.0674,0.64111 -0.17871,0.7915 -0.11328,0.15088 -0.31103,0.25293 -0.5957,0.30615 l -0.14697,0.0274 -12.50147,2.3374 -0.82031,-4.38721 7.93994,-1.48437 c 0.39258,-0.0732 0.66113,-0.0659 0.80518,0.0244 0.14355,0.0898 0.30175,0.31983 0.47168,0.68946 l 0.48828,-0.0908 -0.9419,-5.0371 -0.48779,0.0908 c -0.006,0.37744 -0.0684,0.64209 -0.18555,0.79296 -0.11767,0.15235 -0.3667,0.26368 -0.74755,0.33448 l -7.93995,1.48486 -1.32714,-7.09961 z"
         style="fill:#ffffff;fill-opacity:1;fill-rule:nonzero;stroke:none"
         id="path152" /><path
         d="m 350.30273,568.53857 c 3.1626,-1.26709 5.39161,-3.21972 6.68799,-5.85742 1.2959,-2.63769 1.38721,-5.34765 0.27295,-8.12939 -1.11474,-2.78223 -3.05957,-4.6836 -5.83447,-5.70362 -2.77539,-1.02001 -5.73242,-0.90087 -8.87207,0.35645 -3.09473,1.23975 -5.29004,3.19141 -6.58838,5.85791 -1.29883,2.66553 -1.39502,5.37744 -0.28955,8.13672 1.10937,2.76953 3.04101,4.66504 5.79736,5.68701 2.75537,1.02148 5.69727,0.90576 8.82617,-0.34766 m -10.64453,-6.81591 c -0.76123,-1.90039 -0.75097,-3.67578 0.0317,-5.32666 0.78174,-1.65088 2.21387,-2.89356 4.29541,-3.72705 2.06885,-0.82911 3.96045,-0.91504 5.67432,-0.25684 1.71435,0.65771 2.94971,1.93066 3.70654,3.81885 0.76074,1.8999 0.74463,3.68066 -0.0464,5.34228 -0.79199,1.66211 -2.22753,2.90967 -4.30859,3.74317 -2.0459,0.81982 -3.92725,0.89746 -5.64404,0.23388 -1.71631,-0.66357 -2.95313,-1.93994 -3.70899,-3.82763 z"
         style="fill:#ffffff;fill-opacity:1;fill-rule:nonzero;stroke:none"
         id="path154" /><path
         d="m 376.80615,554.63184 c 2.83789,-1.88428 4.62305,-4.25049 5.35498,-7.09668 0.73242,-2.84571 0.27002,-5.51807 -1.38672,-8.01416 -1.6582,-2.49756 -3.9497,-3.96289 -6.87353,-4.39698 -2.92481,-0.43408 -5.7959,0.28467 -8.61377,2.15528 -2.77783,1.84375 -4.52979,4.20166 -5.2583,7.07617 -0.72901,2.87402 -0.271,5.54883 1.37305,8.02539 1.65039,2.48584 3.92724,3.94824 6.833,4.38769 2.90625,0.43946 5.7627,-0.27246 8.57129,-2.13671 M 364.99707,550.125 c -1.13232,-1.70508 -1.48389,-3.4458 -1.05371,-5.22168 0.4292,-1.77539 1.5791,-3.2832 3.44678,-4.52295 1.85693,-1.23291 3.6914,-1.70264 5.5039,-1.40723 1.8125,0.29541 3.28076,1.29053 4.40576,2.98536 1.13135,1.70507 1.47901,3.45117 1.04249,5.23925 -0.43702,1.78858 -1.58887,3.30225 -3.45655,4.54248 -1.83691,1.21875 -3.6626,1.67774 -5.47803,1.37696 -1.81591,-0.3003 -3.28613,-1.29785 -4.41064,-2.99219 z"
         style="fill:#ffffff;fill-opacity:1;fill-rule:nonzero;stroke:none"
         id="path156" /><path
         d="m 389.62549,540.4834 c -0.27881,0.27246 -0.5083,0.41113 -0.68653,0.41699 -0.17968,0.006 -0.43359,-0.0972 -0.76367,-0.30859 l -0.35498,0.34668 3.81494,3.89941 0.34131,-0.33398 c -0.19385,-0.32422 -0.28271,-0.58448 -0.26465,-0.78174 0.0176,-0.19776 0.15674,-0.42334 0.41797,-0.67871 l 12.08203,-11.81885 c 0.27686,-0.27148 0.50489,-0.40869 0.68409,-0.4126 0.1792,-0.004 0.4331,0.0991 0.76123,0.30908 l 0.35449,-0.34716 -3.84033,-3.92579 -0.3545,0.34717 c 0.21241,0.3252 0.3125,0.58789 0.29932,0.78858 -0.0137,0.20019 -0.1499,0.42724 -0.40869,0.68017 l -4.48779,4.39063 -10.44239,-10.6753 c -0.27002,-0.27587 -0.40722,-0.50244 -0.41211,-0.68066 -0.005,-0.17773 0.0991,-0.43164 0.31202,-0.76123 l -0.34717,-0.35449 -4.45069,4.354 0.34668,0.35401 c 0.33155,-0.18555 0.58936,-0.26758 0.77247,-0.24707 0.18261,0.0205 0.40966,0.15185 0.68066,0.39306 l 10.42871,10.66113 z"
         style="fill:#ffffff;fill-opacity:1;fill-rule:nonzero;stroke:none"
         id="path158" /><path
         d="m 393.14404,513.32129 0.40723,0.2832 c 0.30566,-0.26465 0.55078,-0.40381 0.73535,-0.41699 0.18555,-0.0127 0.42236,0.0801 0.71192,0.28125 l 13.87597,9.63232 c 0.30567,0.21192 0.48194,0.41016 0.5293,0.5918 0.0478,0.18213 -0.002,0.45361 -0.14649,0.81445 l 0.40772,0.28272 7.76367,-11.18457 c 1.2959,-1.86719 1.93408,-3.58008 1.9126,-5.13721 -0.0215,-1.55762 -0.69287,-2.79638 -2.01563,-3.71435 -0.75927,-0.52735 -1.55468,-0.79883 -2.38672,-0.81543 -0.83203,-0.0166 -1.70898,0.22216 -2.63085,0.71826 0.18701,-1.27442 0.11035,-2.36572 -0.22901,-3.27442 -0.34033,-0.9082 -0.96582,-1.67871 -1.87646,-2.31103 -1.52539,-1.05908 -3.12403,-1.29102 -4.79493,-0.69775 -1.67089,0.59423 -3.25634,1.97216 -4.75732,4.13427 l -7.50635,10.81348 m 14.10791,-4.7666 -3.77295,5.43506 -4.48095,-3.11084 3.68701,-5.31104 c 1.14648,-1.65185 2.10156,-2.66992 2.86719,-3.0542 0.76464,-0.38281 1.55468,-0.29248 2.37109,0.27393 0.78516,0.54541 1.12549,1.27295 1.02295,2.18359 -0.104,0.91016 -0.66846,2.10498 -1.69434,3.5835 m 6.85303,4.13867 -4.0625,5.85254 -3.62109,-2.51367 4.37304,-6.3003 c 0.69336,-0.99853 1.35205,-1.63525 1.97754,-1.91064 0.62451,-0.2749 1.24024,-0.20313 1.84619,0.21777 0.67774,0.47022 0.9795,1.04981 0.90479,1.73828 -0.0742,0.68799 -0.54688,1.66065 -1.41797,2.91602 z"
         style="fill:#ffffff;fill-opacity:1;fill-rule:nonzero;stroke:none"
         id="path160" /><path
         d="m 406.54248,493.70508 0.45459,0.19824 c 0.44971,-0.56543 1.19971,-0.85693 2.24854,-0.87598 0.0937,0 0.1831,-10e-4 0.2666,-0.006 l 17.31396,-0.58398 c 0.19434,-0.01 0.32715,-0.009 0.39795,10e-4 0.0703,0.01 0.13428,0.0274 0.19141,0.0523 0.20556,0.0898 0.34668,0.25 0.42285,0.48096 0.0762,0.22998 0.0908,0.52588 0.0425,0.88525 l 0.45459,0.19873 2.72607,-6.24072 -0.45459,-0.19824 c -0.26464,0.29297 -0.47998,0.47461 -0.64648,0.54394 -0.1665,0.0698 -0.33594,0.0679 -0.50732,-0.007 -0.0806,-0.0352 -0.16651,-0.0898 -0.25635,-0.16309 -0.0899,-0.0732 -0.19141,-0.16894 -0.30371,-0.28613 l -11.25733,-13.32862 c -0.47949,-0.57666 -0.78662,-1.04052 -0.92334,-1.39404 -0.1372,-0.35156 -0.17041,-0.71679 -0.0991,-1.09424 l -0.45459,-0.19873 -2.89844,6.63526 0.45459,0.19873 c 0.2417,-0.27539 0.45069,-0.45264 0.62793,-0.53174 0.17627,-0.0796 0.36133,-0.0771 0.55469,0.007 0.0791,0.0347 0.15869,0.0835 0.24072,0.14648 0.0801,0.063 0.18555,0.1626 0.31446,0.30029 l 2.22656,2.56494 -3.6919,8.45264 -3.36474,0.041 c -0.18945,0 -0.33399,-0.008 -0.43506,-0.0254 -0.10156,-0.0171 -0.19141,-0.043 -0.27002,-0.0781 -0.19336,-0.084 -0.32129,-0.21777 -0.38281,-0.40137 -0.0625,-0.18359 -0.0742,-0.458 -0.0361,-0.82324 l -0.45411,-0.19824 -2.50195,5.72754 m 18.37305,-4.6543 -7.87158,0.29785 2.67285,-6.1206 z"
         style="fill:#ffffff;fill-opacity:1;fill-rule:nonzero;stroke:none"
         id="path162" /><path
         d="m 424.40332,452.1582 c 0.0894,-0.38916 0.20166,-0.63281 0.33691,-0.73047 0.13575,-0.0972 0.39209,-0.14697 0.76954,-0.15039 l 0.12939,-0.479 -5.33496,-1.22412 -0.11084,0.48291 c 0.34131,0.15625 0.5581,0.3208 0.64941,0.4956 0.0923,0.17481 0.0972,0.43946 0.0161,0.79248 l -4.01612,17.50342 0.48291,0.11035 c 0.18604,-0.35888 0.3628,-0.5791 0.52979,-0.66015 0.16699,-0.0806 0.42334,-0.082 0.76807,-0.002 l 16.45459,3.77539 c 0.36425,0.0835 0.60205,0.20166 0.71435,0.35302 0.11133,0.15088 0.16797,0.42188 0.16895,0.81055 l 0.48339,0.11084 1.4043,-6.12207 -0.48291,-0.11084 c -0.16797,0.33838 -0.33594,0.55469 -0.50391,0.64746 -0.16796,0.0937 -0.43408,0.0981 -0.79834,0.0147 l -14.48144,-3.32275 2.8208,-12.29444 z"
         style="fill:#ffffff;fill-opacity:1;fill-rule:nonzero;stroke:none"
         id="path164" /><path
         d="m 425.83887,428.55859 c 0.0156,-0.39892 0.0806,-0.65966 0.1958,-0.78076 0.11474,-0.12012 0.35742,-0.21679 0.72803,-0.29004 l 0.0381,-0.49511 -5.46924,-0.21289 -0.0195,0.4956 c 0.36426,0.0898 0.60742,0.21143 0.73047,0.36621 0.12305,0.15479 0.17676,0.41358 0.1626,0.77588 l -0.69824,17.94434 0.49511,0.0195 c 0.11621,-0.38721 0.24903,-0.63672 0.39795,-0.74707 0.14942,-0.11084 0.40088,-0.15967 0.7544,-0.146 l 16.86914,0.65674 c 0.37402,0.0147 0.62939,0.0869 0.76709,0.21436 0.13867,0.12744 0.24414,0.3833 0.31689,0.76562 l 0.49561,0.019 0.24414,-6.27685 -0.49561,-0.0195 c -0.10205,0.36425 -0.22705,0.60742 -0.37451,0.73047 -0.14795,0.12304 -0.40869,0.17724 -0.78223,0.1621 l -14.84619,-0.57763 0.49024,-12.60401 z"
         style="fill:#ffffff;fill-opacity:1;fill-rule:nonzero;stroke:none"
         id="path166" /><path
         d="m 423.58936,393.96826 0.16601,-0.45263 -4.86963,-1.73975 -0.16699,0.5 c 0.15234,0.11865 0.2583,0.20898 0.31738,0.27197 0.0586,0.0635 0.0962,0.13184 0.11328,0.20361 0.0337,0.146 -0.0693,0.58692 -0.3081,1.32081 -1.05615,3.39697 -1.25928,6.49414 -0.61231,9.29248 0.75391,3.26025 2.35059,5.74658 4.79004,7.45703 2.43946,1.70996 5.11914,2.22802 8.03907,1.55273 2.98046,-0.68945 5.17138,-2.35303 6.57373,-4.99072 1.40087,-2.6377 1.6958,-5.71387 0.8833,-9.22949 -0.41651,-1.80078 -1.13282,-3.54785 -2.14698,-5.24219 -1.01367,-1.69385 -1.5332,-2.5957 -1.55859,-2.70654 -0.0225,-0.14844 -0.0425,-0.30616 -0.062,-0.47461 -0.0205,-0.16846 -0.043,-0.35889 -0.0664,-0.57178 l -0.34424,-0.33496 -3.78711,3.74414 0.36963,0.43945 c 0.0205,-0.0186 0.043,-0.0347 0.0654,-0.0469 0.0229,-0.0122 0.0591,-0.0234 0.10791,-0.0352 0.54639,-0.12646 1.27784,0.46289 2.19336,1.76758 0.91602,1.3042 1.5586,2.75195 1.92627,4.34375 0.50586,2.18652 0.29102,4.13037 -0.64453,5.83105 -0.93603,1.70069 -2.36133,2.77247 -4.27392,3.21485 -2.03614,0.47119 -3.84473,0.14795 -5.4253,-0.96973 -1.58105,-1.11767 -2.63476,-2.81689 -3.16211,-5.09717 -0.38672,-1.66943 -0.40234,-3.39941 -0.0464,-5.18994 0.35498,-1.79053 0.76025,-2.73877 1.21484,-2.84375 0.0854,-0.0195 0.18896,-0.0308 0.31201,-0.0342 0.12158,-0.004 0.25586,0.003 0.40235,0.02 z"
         style="fill:#ffffff;fill-opacity:1;fill-rule:nonzero;stroke:none"
         id="path168" /><path
         d="m 410.39844,370.72021 c -0.1626,-0.36474 -0.21924,-0.62646 -0.17041,-0.78662 0.0498,-0.15918 0.22461,-0.35302 0.52441,-0.58349 l -0.18506,-0.46045 -4.99804,2.23291 0.20214,0.45312 c 0.3667,-0.0815 0.63868,-0.0796 0.8169,0.004 0.1792,0.084 0.34228,0.29248 0.48975,0.62353 l 7.32519,16.39649 0.45313,-0.20215 c -0.0679,-0.39941 -0.0596,-0.68115 0.0254,-0.84619 0.0845,-0.16504 0.28857,-0.3208 0.61181,-0.46485 l 15.41406,-6.88623 c 0.34083,-0.15234 0.60206,-0.20068 0.78223,-0.14795 0.18067,0.0537 0.38819,0.23584 0.62305,0.54639 l 0.45264,-0.20264 -2.56202,-5.73486 -0.45312,0.20215 c 0.0698,0.37158 0.0659,0.64502 -0.0122,0.81982 -0.0781,0.17676 -0.2876,0.34034 -0.62939,0.49268 l -13.56543,6.06055 -5.14502,-11.51661 z"
         style="fill:#ffffff;fill-opacity:1;fill-rule:nonzero;stroke:none"
         id="path170" /><path
         d="m 408.14014,358.71826 c -1.46924,1.05713 -2.7627,1.44531 -3.87891,1.16455 -1.11621,-0.28125 -2.27246,-1.25342 -3.46826,-2.91552 -1.18067,-1.64112 -1.7168,-3.05909 -1.60791,-4.25293 0.11035,-1.19336 0.89404,-2.31543 2.35351,-3.36524 l 0.12159,-0.0874 8.37255,-6.02295 c 0.31397,-0.22559 0.56446,-0.33057 0.75196,-0.31689 0.18701,0.0151 0.42236,0.15527 0.70703,0.42187 l 0.40234,-0.28955 -3.70019,-5.14404 -0.40332,0.28906 c 0.14404,0.3501 0.19531,0.61914 0.15429,0.80664 -0.042,0.18848 -0.21484,0.3916 -0.51806,0.60986 l -8.79834,6.3291 c -2.34326,1.68506 -3.55078,3.52051 -3.625,5.50489 -0.0742,1.98437 0.96875,4.47754 3.12744,7.47802 2.10156,2.92188 4.11816,4.66016 6.05029,5.2168 1.93262,0.55664 4.04981,0.006 6.35205,-1.6499 l 8.79834,-6.32861 c 0.31397,-0.22608 0.56446,-0.33155 0.75196,-0.31739 0.18701,0.0151 0.42236,0.15528 0.70654,0.42188 l 0.40283,-0.28955 -3.70019,-5.14405 -0.40332,0.28955 c 0.15576,0.34424 0.21142,0.60987 0.16992,0.79639 -0.042,0.1875 -0.22022,0.39404 -0.53369,0.62012 z"
         style="fill:#ffffff;fill-opacity:1;fill-rule:nonzero;stroke:none"
         id="path172" /><path
         d="m 389.67285,347.46289 0.33936,-0.36133 c -0.21778,-0.34082 -0.31934,-0.604 -0.30518,-0.78906 0.0142,-0.18457 0.14111,-0.40625 0.38233,-0.66211 l 11.55517,-12.32129 c 0.2544,-0.27099 0.47608,-0.41699 0.6626,-0.43701 0.18701,-0.021 0.44824,0.0679 0.78418,0.26367 l 0.33984,-0.36181 -9.93115,-9.31397 c -1.65771,-1.55469 -3.25928,-2.43603 -4.80322,-2.64209 -1.54346,-0.20703 -2.86719,0.27637 -3.96875,1.45117 -0.63233,0.67432 -1.01709,1.42188 -1.15528,2.24268 -0.13769,0.82031 -0.0293,1.72217 0.32715,2.70703 -1.23388,-0.37109 -2.32519,-0.45508 -3.27344,-0.25147 -0.94824,0.20411 -1.80175,0.70997 -2.56005,1.51856 -1.27051,1.35498 -1.73389,2.90234 -1.39063,4.6416 0.34424,1.74024 1.47608,3.51025 3.39551,5.31006 l 9.60156,9.00537 m -2.65576,-14.65283 4.82617,4.52588 -3.73242,3.979 -4.71533,-4.42285 c -1.46729,-1.37598 -2.33496,-2.46973 -2.60303,-3.28271 -0.26709,-0.8125 -0.062,-1.58057 0.61768,-2.30567 0.6538,-0.69678 1.42334,-0.92773 2.30957,-0.69238 0.88525,0.23486 1.98486,0.96777 3.29736,2.19873 m 5.09521,-6.17481 5.19629,4.87354 -3.01562,3.21484 -5.59375,-5.2456 c -0.88672,-0.83203 -1.42041,-1.57715 -1.60205,-2.23584 -0.18018,-0.65821 -0.0195,-1.25635 0.48535,-1.79492 0.56445,-0.60157 1.18213,-0.81543 1.85205,-0.64161 0.66992,0.17432 1.56299,0.78418 2.67773,1.82959 z"
         style="fill:#ffffff;fill-opacity:1;fill-rule:nonzero;stroke:none"
         id="path174" /><path
         d="m 170.12012,447.54492 -0.48438,0.10596 c -0.0322,0.72217 -0.46777,1.39844 -1.30615,2.02978 -0.0757,0.0542 -0.14697,0.10791 -0.2124,0.16114 l -13.67237,10.63769 c -0.15136,0.12207 -0.25976,0.19971 -0.32275,0.23291 -0.0635,0.0337 -0.125,0.0566 -0.18555,0.0698 -0.21972,0.0478 -0.42822,0.001 -0.625,-0.14063 -0.19677,-0.14209 -0.38232,-0.37305 -0.5542,-0.69238 l -0.48486,0.10644 1.45752,6.65186 0.48438,-0.10596 c 0.0415,-0.39258 0.10986,-0.66552 0.2041,-0.82031 0.0937,-0.1543 0.23193,-0.25195 0.41455,-0.2915 0.0859,-0.019 0.1875,-0.0254 0.30322,-0.019 0.11621,0.006 0.25391,0.0244 0.41357,0.0532 l 16.93897,4.18017 c 0.72607,0.18555 1.24756,0.38037 1.56543,0.58594 0.31787,0.20459 0.55859,0.48096 0.72266,0.82812 l 0.48486,-0.10644 -1.54932,-7.07227 -0.48486,0.10547 c -0.0337,0.36475 -0.0991,0.63086 -0.1958,0.79932 -0.0967,0.16748 -0.24756,0.2749 -0.45361,0.31982 -0.084,0.0186 -0.17774,0.0254 -0.28077,0.0229 -0.10205,-0.003 -0.24511,-0.0229 -0.43066,-0.0581 l -3.30859,-0.76953 -1.97364,-9.00977 2.69922,-2.00879 c 0.15332,-0.11133 0.27539,-0.18896 0.3667,-0.23486 0.0928,-0.0454 0.18066,-0.0771 0.26514,-0.0957 0.20556,-0.0454 0.38769,-0.0122 0.54492,0.10059 0.15869,0.11182 0.32959,0.32715 0.51269,0.64502 l 0.48438,-0.10596 -1.3374,-6.10498 m -12.14014,14.55469 6.19727,-4.86279 1.42968,6.52441 z"
         style="fill:#ffffff;fill-opacity:1;fill-rule:nonzero;stroke:none"
         id="path176" /><path
         d="m 165.89795,484.19141 10.97851,-4.91602 c 0.35352,-0.1582 0.61426,-0.20898 0.78321,-0.15137 0.16846,0.0566 0.37109,0.24219 0.60742,0.55567 l 0.45215,-0.20313 -2.3418,-5.22998 -0.45264,0.20264 c 0.0688,0.39844 0.062,0.67969 -0.022,0.84473 -0.083,0.16455 -0.28369,0.31884 -0.60254,0.46142 l -15.41797,6.90381 c -0.3413,0.15283 -0.60302,0.20215 -0.78418,0.14941 -0.18066,-0.0532 -0.38867,-0.23535 -0.62353,-0.54492 l -0.45264,0.20264 2.94043,6.56543 0.45264,-0.20313 c -0.0425,-0.18603 -0.0425,-0.354 0,-0.50341 0.0425,-0.14942 0.12939,-0.26075 0.26025,-0.33252 0.12549,-0.0562 0.26709,-0.0752 0.42481,-0.0571 0.15918,0.0176 0.37011,0.0776 0.63428,0.1792 l 14.6123,5.43994 -10.48389,4.69385 c -0.35302,0.15771 -0.61328,0.21044 -0.78027,0.15771 -0.16699,-0.0523 -0.37598,-0.23682 -0.62744,-0.55371 l -0.45215,0.20264 2.3418,5.22998 0.45263,-0.20264 c -0.0708,-0.40137 -0.0605,-0.68506 0.0293,-0.85059 0.0894,-0.1665 0.29346,-0.31982 0.6123,-0.46289 l 15.41797,-6.90381 c 0.3418,-0.15332 0.60352,-0.2041 0.78321,-0.15234 0.18066,0.0518 0.3833,0.23731 0.60742,0.55566 l 0.45264,-0.20263 -2.70264,-6.03467 -0.45264,0.20313 c 0.0483,0.19726 0.0493,0.36865 0.004,0.51171 -0.0454,0.14307 -0.12989,0.24366 -0.25586,0.29981 -0.125,0.0557 -0.27002,0.0752 -0.43408,0.0605 -0.16358,-0.0156 -0.36963,-0.0708 -0.61719,-0.16504 l -15.34424,-5.75 z"
         style="fill:#ffffff;fill-opacity:1;fill-rule:nonzero;stroke:none"
         id="path178" /><path
         d="m 174.61035,508.39844 c -0.22656,-0.3169 -0.32861,-0.56494 -0.30713,-0.74219 0.0215,-0.17822 0.16309,-0.41357 0.42285,-0.70703 l -0.28857,-0.40381 -4.43848,3.1709 0.27784,0.38916 c 0.3496,-0.14258 0.62109,-0.18994 0.8125,-0.14209 0.19287,0.0474 0.39453,0.22021 0.60644,0.51709 l 9.82471,13.75342 c 0.2251,0.31494 0.32617,0.56152 0.30273,0.73877 -0.0234,0.17773 -0.16455,0.41308 -0.42236,0.70507 l 0.28808,0.40381 4.46875,-3.19238 -0.28808,-0.40381 c -0.35449,0.16016 -0.62891,0.21875 -0.8252,0.17481 -0.19531,-0.0439 -0.39941,-0.21387 -0.60937,-0.5083 l -3.64942,-5.1084 12.15137,-8.68018 c 0.31397,-0.22412 0.5586,-0.32519 0.73633,-0.30273 0.17578,0.0225 0.41064,0.16455 0.70361,0.42529 l 0.40381,-0.28857 -3.61914,-5.06641 -0.40381,0.28857 c 0.13282,0.35596 0.17481,0.62305 0.12598,0.80127 -0.0483,0.17725 -0.21289,0.38086 -0.49268,0.61133 l -12.13574,8.66943 z"
         style="fill:#ffffff;fill-opacity:1;fill-rule:nonzero;stroke:none"
         id="path180" /><path
         d="m 204.1665,519.8457 -0.32959,0.37061 c 0.19727,0.34082 0.30323,0.60254 0.31788,0.78271 0.0146,0.18067 -0.0723,0.37793 -0.2627,0.59229 -0.0664,0.0747 -0.14404,0.14746 -0.23242,0.21875 -0.0884,0.0708 -0.15869,0.12646 -0.20899,0.16504 l -14.88379,7.67041 c -0.62597,0.32763 -1.11279,0.5 -1.46093,0.51513 -0.34766,0.0156 -0.74463,-0.0825 -1.18946,-0.29394 l -0.32959,0.3706 5.27149,4.6875 0.32959,-0.3706 c -0.19678,-0.3418 -0.30469,-0.60498 -0.32422,-0.78955 -0.02,-0.18457 0.0327,-0.34668 0.15723,-0.48584 0.041,-0.0474 0.10888,-0.0996 0.20263,-0.1582 0.0933,-0.0586 0.23047,-0.13233 0.41065,-0.22266 l 11.16797,-6.1665 -4.84668,11.78759 c -0.0225,0.063 -0.0649,0.13819 -0.12598,0.2251 -0.0615,0.0874 -0.125,0.16943 -0.19141,0.24414 -0.18164,0.20459 -0.35693,0.31152 -0.52441,0.32129 -0.16748,0.0103 -0.44531,-0.0664 -0.83545,-0.229 l -0.32959,0.3706 5.59424,4.97461 0.32959,-0.37109 c -0.19727,-0.3418 -0.30469,-0.60547 -0.3252,-0.79004 -0.02,-0.18457 0.0327,-0.34668 0.15723,-0.48584 0.0415,-0.0474 0.10937,-0.0996 0.20312,-0.1582 0.0933,-0.0586 0.23047,-0.13233 0.41016,-0.22266 l 10.91406,-5.99219 -4.70459,11.51367 c -0.0225,0.063 -0.0645,0.13868 -0.12548,0.22559 -0.0615,0.0874 -0.125,0.16894 -0.19141,0.24365 -0.17383,0.19531 -0.34229,0.29883 -0.50488,0.31348 -0.1626,0.0147 -0.44727,-0.0591 -0.8545,-0.22022 l -0.32959,0.37012 5.00635,4.45166 0.3291,-0.3706 c -0.26416,-0.43604 -0.4038,-0.82325 -0.41943,-1.16163 -0.0161,-0.33984 0.10303,-0.83007 0.35742,-1.47216 l 5.97608,-15.59034 c 0.0308,-0.0728 0.0742,-0.15039 0.13183,-0.23291 0.0566,-0.0835 0.12305,-0.16748 0.19727,-0.25048 0.19043,-0.21436 0.37353,-0.32715 0.5498,-0.33741 0.17627,-0.0103 0.45069,0.0664 0.82178,0.23047 l 0.32959,-0.3706 -4.96436,-4.41407 -0.32959,0.37061 c 0.2251,0.36572 0.34229,0.64209 0.35352,0.82666 0.0107,0.18506 -0.0747,0.38086 -0.25732,0.58594 -0.0493,0.0552 -0.10987,0.10937 -0.18213,0.1626 -0.0728,0.0527 -0.16407,0.11376 -0.27539,0.18212 l -12.28125,6.82813 5.30566,-13.00684 c 0.0312,-0.0727 0.0752,-0.15039 0.13184,-0.23291 0.0566,-0.0835 0.12353,-0.16699 0.19726,-0.25049 0.18213,-0.20459 0.36133,-0.31298 0.5376,-0.32324 0.17627,-0.0102 0.46387,0.0703 0.86279,0.2417 l 0.32959,-0.3706 z"
         style="fill:#ffffff;fill-opacity:1;fill-rule:nonzero;stroke:none"
         id="path182" /><path
         d="m 242.22412,550.88428 c 0.34717,0.18603 0.54883,0.36279 0.60547,0.53076 0.0566,0.16699 0.0322,0.44043 -0.0723,0.81787 l 0.43653,0.23438 2.60498,-4.85547 -0.43653,-0.23438 c -0.24951,0.2832 -0.46826,0.44776 -0.65332,0.49414 -0.18554,0.0469 -0.44091,-0.0181 -0.76562,-0.19189 l -16.11475,-8.646 -0.23486,0.43701 c 0.29785,0.27393 0.46338,0.50244 0.49756,0.68506 0.0337,0.18213 -0.0327,0.43018 -0.19971,0.7417 l -7.98389,14.88184 c -0.17626,0.32763 -0.35205,0.52441 -0.52734,0.59228 -0.17529,0.0674 -0.45068,0.0498 -0.82568,-0.0532 l -0.23438,0.4375 15.91553,8.53906 c 0.34326,0.1836 0.54395,0.36084 0.60303,0.53125 0.0591,0.17041 0.0376,0.44434 -0.0649,0.82031 l 0.43701,0.23438 2.5791,-4.80713 -0.43701,-0.23437 c -0.2417,0.28955 -0.4541,0.458 -0.63526,0.50537 -0.1831,0.0464 -0.40088,0.002 -0.65576,-0.13477 l -0.13183,-0.0708 -11.20704,-6.0127 2.11036,-3.93261 7.11963,3.81982 c 0.35107,0.18848 0.55517,0.36182 0.61035,0.52295 0.0552,0.15918 0.0337,0.4375 -0.0649,0.83252 l 0.4375,0.23438 2.42236,-4.51563 -0.43701,-0.23437 c -0.24073,0.29052 -0.45459,0.458 -0.64063,0.50293 -0.18701,0.0439 -0.45117,-0.0254 -0.79101,-0.20752 l -7.11963,-3.81983 2.44873,-4.56396 11.40527,6.11914 z"
         style="fill:#ffffff;fill-opacity:1;fill-rule:nonzero;stroke:none"
         id="path184" /><path
         d="m 249.97314,550.25293 -0.14257,0.4751 c 0.34131,0.17968 0.5498,0.35937 0.62402,0.5376 0.0742,0.17871 0.0606,0.44091 -0.0435,0.7871 l -4.85498,16.1753 c -0.10107,0.33642 -0.229,0.55908 -0.38379,0.67041 -0.15478,0.11084 -0.43408,0.1582 -0.83838,0.14209 l -0.14257,0.4751 12.10742,3.63378 c 2.51709,0.75538 4.61865,0.85108 6.30322,0.2876 1.68457,-0.56396 2.79102,-1.72607 3.31934,-3.48584 0.43457,-1.44775 0.36523,-2.77051 -0.20899,-3.96679 -0.57422,-1.19678 -1.68115,-2.30225 -3.3208,-3.31543 l 5.78174,-4.44629 c 0.34229,-0.27491 0.7041,-0.49414 1.08545,-0.65918 0.37988,-0.16553 0.95898,-0.32618 1.73437,-0.4834 l 0.14209,-0.4751 -7.09033,-2.12842 -0.14258,0.47461 c 0.25342,0.11524 0.43311,0.24707 0.53907,0.396 0.10547,0.14844 0.13574,0.30029 0.0893,0.45556 -0.0112,0.0361 -0.0957,0.14063 -0.25195,0.31446 -0.15674,0.17383 -0.3125,0.32226 -0.4668,0.44482 l -5.8125,4.67188 -5.26758,-1.58106 1.90088,-6.33301 c 0.10742,-0.35791 0.23584,-0.58593 0.38672,-0.68408 0.15088,-0.0977 0.42627,-0.13183 0.82715,-0.10205 l 0.14307,-0.4751 -6.01661,-1.80566 m 6.15186,19.21973 -5.81641,-1.74561 1.58399,-5.27734 5.96094,1.78906 c 1.76904,0.53076 2.9663,1.12061 3.5913,1.77002 0.625,0.64892 0.79297,1.45703 0.50293,2.42334 -0.2788,0.93017 -0.84472,1.47851 -1.69482,1.646 -0.85059,0.16748 -2.22607,-0.0342 -4.12793,-0.60547 z"
         style="fill:#ffffff;fill-opacity:1;fill-rule:nonzero;stroke:none"
         id="path186" /><path
         d="m 274.5874,557.07031 -0.0449,0.49414 c 0.37109,0.10743 0.61133,0.24219 0.71924,0.40186 0.10889,0.16064 0.14746,0.41992 0.11474,0.77978 l -1.52001,16.83252 c -0.0312,0.34571 -0.11182,0.58741 -0.24122,0.72559 -0.12939,0.13721 -0.39306,0.23828 -0.79248,0.30225 l -0.0444,0.49414 12.32568,1.11328 c 2.61377,0.23584 4.68897,-0.0908 6.22559,-0.98096 1.53564,-0.88965 2.38672,-2.24951 2.55176,-4.07861 0.16894,-1.86719 -0.38965,-3.40479 -1.67285,-4.61133 -1.28467,-1.20801 -3.1211,-1.91943 -5.50977,-2.13526 l -7.52685,-0.67968 0.59521,-6.58545 c 0.0332,-0.37207 0.11328,-0.6211 0.2417,-0.74756 0.12793,-0.12549 0.39111,-0.21436 0.79004,-0.26563 l 0.0444,-0.49365 -6.25586,-0.56543 m 9.58252,17.68408 -5.76611,-0.5205 0.46094,-5.10352 5.91601,0.53418 c 1.76026,0.15918 3.03369,0.48486 3.8208,0.97852 0.78662,0.49316 1.13916,1.19091 1.05762,2.09179 -0.0801,0.8877 -0.5376,1.48926 -1.37158,1.80469 -0.83399,0.31543 -2.20752,0.3877 -4.11768,0.21484 z"
         style="fill:#ffffff;fill-opacity:1;fill-rule:nonzero;stroke:none"
         id="path188" /><path
         d="m 252.14795,293.07373 0.13867,0.47559 c 0.39209,-0.0108 0.66748,0.0356 0.8252,0.13867 0.15722,0.104 0.28662,0.32373 0.38476,0.65918 l 3.58106,12.22461 -1.34131,0.041 c -0.0283,-0.005 -0.0742,-0.005 -0.13916,0.001 -0.56397,0.022 -0.97705,-0.21387 -1.24072,-0.70947 l -0.48096,0.12207 1.5083,5.14892 0.4707,-0.15771 c -0.0254,-0.31348 -0.005,-0.54834 0.0625,-0.70264 0.0669,-0.15527 0.19239,-0.25928 0.37549,-0.3125 0.0366,-0.0107 0.0825,-0.0215 0.13867,-0.0312 0.0566,-0.0102 0.15186,-0.0156 0.28467,-0.0156 l 1.34033,-0.0459 0.19287,0.65771 c 0.10401,0.35547 0.11377,0.61963 0.0308,0.79199 -0.084,0.17188 -0.29004,0.35157 -0.61719,0.53858 l 0.13916,0.47558 5.9751,-1.75048 -0.13916,-0.47608 c -0.37647,0.0332 -0.64454,-10e-4 -0.80713,-0.10156 -0.16211,-0.10059 -0.29688,-0.33496 -0.4043,-0.70166 l -4.75244,-16.22119 c -0.10889,-0.37159 -0.12403,-0.63819 -0.0444,-0.79785 0.0791,-0.15918 0.29004,-0.33545 0.63282,-0.52637 l -0.13965,-0.47608 -5.97461,1.75098 z"
         style="fill:#ffffff;fill-opacity:1;fill-rule:nonzero;stroke:none"
         id="path190" /><path
         d="m 275.00342,298.73633 c -1.19727,0.55273 -2.06983,1.22265 -2.61524,2.00781 -0.54589,0.78467 -0.75879,1.68408 -0.64062,2.69922 0.19238,1.64551 1.125,2.86035 2.79736,3.64307 1.67237,0.78271 3.86475,1.01611 6.57764,0.69921 2.74805,-0.3208 4.82861,-1.06591 6.24219,-2.23486 1.41357,-1.16894 2.01904,-2.62451 1.81494,-4.36914 -0.1167,-1.00195 -0.49024,-1.79297 -1.11865,-2.37158 -0.62891,-0.57959 -1.56934,-1.00244 -2.82325,-1.26953 1.38428,-0.50244 2.40528,-1.21094 3.06397,-2.12696 0.65771,-0.91601 0.91455,-1.99658 0.76904,-3.24023 -0.22998,-1.96729 -1.25928,-3.41064 -3.08838,-4.33252 -1.8291,-0.92187 -4.25635,-1.20605 -7.28125,-0.85254 -3.01221,0.35156 -5.30517,1.18994 -6.87744,2.51563 -1.57373,1.32519 -2.2456,2.96484 -2.01709,4.91992 0.14404,1.23047 0.63135,2.19238 1.46289,2.88428 0.83154,0.6914 2.07568,1.16796 3.73389,1.42822 m -0.68555,-4.63379 c -0.11621,-0.99707 0.24609,-1.80957 1.08936,-2.43848 0.84131,-0.6289 2.10449,-1.04199 3.78857,-1.23828 1.68262,-0.19726 3.00391,-0.0859 3.96289,0.33203 0.95801,0.41846 1.4961,1.12696 1.61231,2.12354 0.10742,0.92187 -0.27149,1.70849 -1.13672,2.35888 -0.86524,0.6504 -2.10742,1.07032 -3.72852,1.25977 -1.62158,0.18945 -2.93164,0.0679 -3.92969,-0.36523 -0.99804,-0.43262 -1.55029,-1.11036 -1.6582,-2.03223 m 5.87744,5.74805 c 1.43701,-0.16797 2.56934,-0.0908 3.39795,0.23339 0.82862,0.32471 1.28906,0.8711 1.37891,1.63916 0.085,0.73047 -0.2544,1.37354 -1.01807,1.92725 -0.76416,0.55469 -1.82764,0.91162 -3.18994,1.0708 -1.36279,0.15918 -2.48584,0.0571 -3.36914,-0.30469 -0.88379,-0.36084 -1.36816,-0.90771 -1.45361,-1.63818 -0.0894,-0.76855 0.23486,-1.40625 0.97265,-1.91357 0.73828,-0.50782 1.83155,-0.84522 3.28125,-1.01416 z"
         style="fill:#ffffff;fill-opacity:1;fill-rule:nonzero;stroke:none"
         id="path192" /><path
         d="m 300.625,297.22266 c -1.27979,0.32031 -2.26123,0.81543 -2.94336,1.48437 -0.6831,0.66992 -1.06006,1.51367 -1.1333,2.5332 -0.11768,1.65235 0.57178,3.01954 2.06836,4.10059 1.49756,1.08106 3.60742,1.71973 6.33203,1.91455 2.75977,0.19678 4.94287,-0.14648 6.54932,-1.03076 1.60693,-0.88477 2.47363,-2.20215 2.59863,-3.95459 0.0723,-1.00635 -0.14697,-1.85254 -0.65674,-2.53857 -0.51025,-0.68653 -1.35498,-1.27784 -2.53662,-1.77393 1.45313,-0.23486 2.58887,-0.74072 3.40674,-1.51807 0.8164,-0.77685 1.27099,-1.79052 1.35986,-3.04004 0.1416,-1.97509 -0.60058,-3.58545 -2.22558,-4.83203 -1.625,-1.24707 -3.95655,-1.979 -6.99366,-2.19629 -3.02539,-0.2163 -5.43457,0.17969 -7.22705,1.18799 -1.79297,1.00879 -2.75927,2.49365 -2.89941,4.45703 -0.0884,1.23633 0.21142,2.27246 0.89941,3.10694 0.6875,0.83447 1.8208,1.53466 3.40137,2.09961 m 4.89307,2.06347 c 1.44238,0.10303 2.54101,0.39014 3.29541,0.86377 0.75293,0.47315 1.10302,1.09571 1.04785,1.86768 -0.0523,0.7334 -0.50586,1.30176 -1.35987,1.70312 -0.85351,0.40137 -1.96484,0.55469 -3.333,0.45655 -1.36866,-0.0977 -2.45362,-0.40772 -3.25342,-0.92725 -0.80078,-0.52002 -1.17432,-1.14746 -1.12207,-1.88086 0.0552,-0.77197 0.49267,-1.33789 1.3125,-1.69922 0.81982,-0.36035 1.95703,-0.48828 3.4126,-0.38379 m -4.70166,-6.74316 c 0.0718,-1.00147 0.57959,-1.73242 1.5249,-2.19336 0.94433,-0.46045 2.26269,-0.63037 3.95312,-0.50977 1.68995,0.1211 2.96729,0.47657 3.83155,1.06641 0.86279,0.58984 1.25927,1.38574 1.18798,2.38721 -0.0664,0.92529 -0.58544,1.62695 -1.55664,2.10498 -0.97168,0.47802 -2.2705,0.65869 -3.89892,0.54248 -1.62842,-0.1167 -2.89258,-0.48047 -3.79248,-1.09229 -0.89942,-0.61181 -1.31592,-1.37988 -1.24951,-2.30566 z"
         style="fill:#ffffff;fill-opacity:1;fill-rule:nonzero;stroke:none"
         id="path194" /><path
         d="m 322.62012,298.72461 c -0.82129,2.93164 -0.56494,5.59033 0.76904,7.97949 1.33496,2.38819 3.46924,3.99365 6.40381,4.81592 2.94629,0.82568 5.60547,0.56641 7.979,-0.77686 2.37403,-1.34277 3.97315,-3.48681 4.79785,-6.43017 0.82764,-2.95557 0.57569,-5.62012 -0.75634,-7.99512 -1.33203,-2.37549 -3.47022,-3.97461 -6.417,-4.80029 -2.93457,-0.82227 -5.5913,-0.5625 -7.9707,0.7793 -2.37939,1.3413 -3.98096,3.48339 -4.80566,6.42773 m 4.27783,1.27393 c 0.5376,-1.91993 1.50976,-3.3462 2.9165,-4.27833 1.40576,-0.93359 2.93701,-1.16748 4.59229,-0.70312 1.66699,0.4668 2.86035,1.46094 3.5791,2.98193 0.71875,1.521 0.80762,3.24854 0.2666,5.18067 -0.5415,1.93164 -1.51855,3.36328 -2.93066,4.29394 -1.41211,0.93116 -2.94678,1.16504 -4.60157,0.70117 -1.64306,-0.45996 -2.82519,-1.458 -3.54687,-2.99365 -0.72119,-1.53515 -0.81348,-3.2622 -0.27539,-5.18261 z"
         style="fill:#ffffff;fill-opacity:1;fill-rule:nonzero;stroke:none"
         id="path196" /><path
         d="m 214.97461,335.17041 -0.34668,-0.35449 c -0.32275,0.21142 -0.58057,0.30713 -0.77295,0.28564 -0.19189,-0.0215 -0.41406,-0.16015 -0.66699,-0.41943 l -11.80176,-12.08008 c -0.2456,-0.25146 -0.37891,-0.47119 -0.40088,-0.66016 -0.022,-0.18896 0.0723,-0.45654 0.28174,-0.80273 l -0.34668,-0.35449 -9.04199,8.83398 c -1.87988,1.83643 -2.98096,3.62842 -3.30371,5.37549 -0.32227,1.74707 0.15869,3.27783 1.44238,4.5918 1.05664,1.08203 2.24707,1.66113 3.57178,1.73828 1.3247,0.0771 2.82861,-0.35596 4.50927,-1.30029 l 1.09034,7.2124 c 0.0747,0.43164 0.0918,0.85449 0.0513,1.26855 -0.0391,0.4126 -0.17871,0.99707 -0.41602,1.75098 l 0.34619,0.35547 5.29541,-5.17383 -0.34668,-0.35449 c -0.22265,0.16601 -0.42578,0.25879 -0.60693,0.28027 -0.18115,0.02 -0.32861,-0.0273 -0.4419,-0.14307 -0.0264,-0.0269 -0.0762,-0.15136 -0.15283,-0.37255 -0.0767,-0.22071 -0.13086,-0.42969 -0.16357,-0.62403 l -1.27344,-7.34717 3.93457,-3.84326 4.62012,4.7295 c 0.26123,0.26709 0.39844,0.49023 0.41162,0.66943 0.0122,0.1792 -0.0913,0.43701 -0.31152,0.77295 l 0.34668,0.35498 4.49316,-4.38965 m -19.79541,-3.92383 4.34375,-4.24365 3.85059,3.94092 -4.45215,4.34912 c -1.32032,1.29101 -2.41602,2.05273 -3.28711,2.28516 -0.87012,0.23291 -1.65869,-0.0112 -2.36377,-0.73292 -0.6792,-0.69482 -0.88526,-1.45507 -0.61963,-2.28027 0.26514,-0.82471 1.10791,-1.93066 2.52832,-3.31836 z"
         style="fill:#ffffff;fill-opacity:1;fill-rule:nonzero;stroke:none"
         id="path198" /><path
         d="m 174.3501,350.30322 c -1.90772,2.82227 -2.65772,5.68946 -2.25244,8.60059 0.40625,2.91064 1.85107,5.20557 4.333,6.8833 2.4834,1.6792 5.16016,2.16211 8.0293,1.45117 2.87012,-0.7124 5.25195,-2.46973 7.14551,-5.27099 1.8667,-2.76221 2.59082,-5.60987 2.16992,-8.54493 -0.41894,-2.93506 -1.86084,-5.23486 -4.32275,-6.89892 -2.47266,-1.67139 -5.13477,-2.15723 -7.98926,-1.45752 -2.85449,0.69971 -5.22559,2.44482 -7.11328,5.2373 m 12.63574,-0.32666 c 1.69629,1.14698 2.68359,2.62305 2.96094,4.42871 0.27832,1.80469 -0.21045,3.63721 -1.46582,5.49463 -1.24854,1.84619 -2.7666,2.97852 -4.5542,3.39502 -1.78858,0.41651 -3.5249,0.0557 -5.21045,-1.08398 -1.69531,-1.146 -2.68115,-2.62891 -2.95801,-4.44873 -0.27637,-1.82032 0.21289,-3.65821 1.46826,-5.51612 1.23438,-1.82617 2.74854,-2.94531 4.54199,-3.35791 1.79297,-0.41308 3.53223,-0.0498 5.21729,1.08838 z"
         style="fill:#ffffff;fill-opacity:1;fill-rule:nonzero;stroke:none"
         id="path200" /><path
         d="m 167.69482,366.13477 c -0.3833,-0.646 -0.62597,-1.19239 -0.72851,-1.63965 -0.10205,-0.44776 -0.10742,-0.92969 -0.0156,-1.44824 l -0.45361,-0.19971 -3.29053,7.46142 0.45362,0.19971 c 0.26464,-0.29004 0.48047,-0.46973 0.64746,-0.53955 0.16699,-0.0693 0.33593,-0.0654 0.50634,0.01 0.12647,0.0557 0.24122,0.12646 0.34571,0.21337 0.10449,0.0864 0.17578,0.16651 0.21289,0.23731 l 3.90625,6.34814 -7.45264,1.69287 c -0.12158,0.0278 -0.23242,0.0405 -0.33349,0.0376 -0.1001,-0.004 -0.20215,-0.0283 -0.3042,-0.0737 -0.20606,-0.0903 -0.34375,-0.24072 -0.41553,-0.44922 -0.0718,-0.20947 -0.085,-0.48828 -0.04,-0.8374 l -0.4541,-0.19971 -2.89697,6.56983 0.45361,0.19971 c 0.33398,-0.38526 0.73096,-0.70557 1.19092,-0.95997 0.45996,-0.25488 0.99121,-0.44775 1.59326,-0.57861 l 10.82471,-2.33594 6.52148,2.87598 c 0.35449,0.15625 0.56885,0.31055 0.64404,0.46484 0.0752,0.15332 0.0791,0.41553 0.0103,0.78711 l 0.4458,0.2168 2.54248,-5.76465 -0.4541,-0.20019 c -0.2334,0.31494 -0.44043,0.49853 -0.6211,0.55175 -0.1792,0.0523 -0.43554,0.006 -0.76611,-0.13964 l -6.24902,-2.75538 -5.82325,-9.74462 z"
         style="fill:#ffffff;fill-opacity:1;fill-rule:nonzero;stroke:none"
         id="path202" /><path
         d="m 176.31006,390.5835 -0.48145,-0.11768 c -0.34668,0.63379 -1.03515,1.04883 -2.06591,1.24609 -0.0923,0.0156 -0.18018,0.0322 -0.26172,0.0513 l -16.96143,3.52588 c -0.18945,0.043 -0.3208,0.0649 -0.39209,0.0669 -0.0713,10e-4 -0.13721,-0.004 -0.19775,-0.019 -0.21778,-0.0537 -0.38428,-0.1875 -0.49903,-0.40136 -0.11328,-0.21436 -0.17822,-0.50391 -0.19238,-0.86573 l -0.48144,-0.11865 -1.62256,6.61475 0.48144,0.11767 c 0.21045,-0.33398 0.39209,-0.54882 0.54444,-0.64648 0.15234,-0.0977 0.31933,-0.12402 0.50097,-0.0791 0.085,0.0205 0.1792,0.0596 0.28076,0.1167 0.10108,0.0566 0.2168,0.13379 0.34766,0.22998 l 13.36426,11.21533 c 0.5708,0.48633 0.95263,0.8916 1.14697,1.21582 0.1958,0.32324 0.29004,0.67725 0.28467,1.06152 l 0.48193,0.11817 1.72461,-7.03174 -0.48144,-0.11865 c -0.19092,0.3125 -0.3667,0.52295 -0.52784,0.63134 -0.16064,0.10791 -0.34326,0.13721 -0.54785,0.0874 -0.084,-0.021 -0.17138,-0.0557 -0.2622,-0.10352 -0.0903,-0.0479 -0.21045,-0.12842 -0.36182,-0.2417 L 167.5,404.9903 l 2.19775,-8.958 3.30811,-0.61426 c 0.18701,-0.0322 0.33105,-0.0479 0.4331,-0.0488 0.10303,-4.9e-4 0.19629,0.01 0.27979,0.0308 0.20459,0.0503 0.35303,0.15967 0.44531,0.33057 0.0933,0.16992 0.15137,0.43896 0.17578,0.80469 l 0.48194,0.11767 1.48828,-6.06933 M 159,398.30078 l 7.70557,-1.63476 -1.59131,6.48681 z"
         style="fill:#ffffff;fill-opacity:1;fill-rule:nonzero;stroke:none"
         id="path204" /><path
         d="m 165.83691,434.39258 c -0.021,0.39941 -0.0903,0.65869 -0.20654,0.77832 -0.11719,0.11914 -0.36084,0.21191 -0.73242,0.28027 l -0.0449,0.49463 5.46631,0.2876 0.0259,-0.49512 c -0.36279,-0.0952 -0.60449,-0.22021 -0.7246,-0.37646 -0.1211,-0.15674 -0.17188,-0.41602 -0.15235,-0.77784 l 0.94287,-17.93359 -0.4956,-0.0259 c -0.1211,0.38574 -0.25684,0.6333 -0.40772,0.7417 -0.15039,0.1084 -0.40283,0.15332 -0.75635,0.13477 l -16.85888,-0.88623 c -0.37305,-0.019 -0.62744,-0.0952 -0.76416,-0.22461 -0.13623,-0.12989 -0.23828,-0.38672 -0.30615,-0.76953 l -0.49463,-0.0264 -0.33008,6.27295 0.49512,0.0259 c 0.10693,-0.36231 0.23535,-0.60401 0.38476,-0.72461 0.14942,-0.1211 0.41065,-0.17139 0.78418,-0.15137 l 14.8374,0.77979 -0.66211,12.5957 z"
         style="fill:#ffffff;fill-opacity:1;fill-rule:nonzero;stroke:none"
         id="path206" /><path
         d="m 353.84131,338.79297 c 3.88476,12.6831 12.12744,45.76953 6.51269,83.80469 -2.88867,19.56836 -7.97119,34.05908 -12.05273,43.27392 l -0.1499,0.31641 c 2.44531,4.63623 7.14502,12.64062 13.12158,18.47851 6.82373,6.66504 17.43799,12.89014 22.17578,15.50879 l 0.27051,-0.35254 c 14.36035,-18.67871 22.89892,-42.06689 22.89892,-67.4497 0,-40.03125 -21.23584,-75.10254 -53.05712,-94.5625 z"
         style="fill:#231f20;fill-opacity:1;fill-rule:nonzero;stroke:none"
         id="path208" /><path
         d="m 346.55713,338.86279 c 3.2666,10.16016 12.62939,43.98633 6.91162,82.71875 -2.5791,17.47119 -7.00049,30.7295 -10.71289,39.52637 l -0.20703,0.43018 c -6.92139,-3.36231 -15.91992,-8.31299 -24.67041,-14.82715 -12.07764,-8.99121 -19.0835,-15.31934 -22.69043,-18.86231 l 0.041,-0.24316 c 1.72266,-7.89551 3.58936,-19.58057 3.18116,-31.91992 -0.81983,-24.7583 -8.7085,-41.17383 -13.26465,-48.67188 l 0.0493,-0.80176 c 0.38477,-6.7417 0.69922,-15.78173 0.24659,-23.19873 l -0.0796,-0.91162 c 3.45507,-0.32422 6.95605,-0.49023 10.49609,-0.49023 17.39844,0 33.85986,4.01123 48.50977,11.15967 0,0 1.55908,4.13134 2.18945,6.09179 z"
         style="fill:#231f20;fill-opacity:1;fill-rule:nonzero;stroke:none"
         id="path210" /><path
         d="m 192.42432,394.03711 c 6.56347,-5.25098 17.0205,-12.93018 31.51367,-21.55127 17.34082,-10.31494 40.55713,-17.73975 54.87793,-21.7168 l 0.36816,-0.12988 c 4.05957,6.72363 11.50196,22.0835 12.27002,45.27686 0.39404,11.91211 -1.49902,23.30859 -3.16308,30.79199 l -0.23584,0.004 c -8.84717,0.50928 -20.37793,1.96338 -29.08497,5.86133 -12.8833,5.7666 -21.54882,15.23193 -26.85351,22.87109 l -0.31299,0.40479 c -4.9956,-0.0903 -11.83935,0.25781 -19.23389,2.01172 -8.45752,2.00732 -16.38476,6.49414 -21.20703,9.63086 l -0.479,0.30566 c -3.75244,-11.12305 -5.78613,-23.03613 -5.78613,-35.4248 0,-13.26367 2.33105,-25.98194 6.60595,-37.76905 l 0.72071,-0.56689 z"
         style="fill:#231f20;fill-opacity:1;fill-rule:nonzero;stroke:none"
         id="path212" /><path
         d="m 198.19287,380.08301 c 15.97608,-29.77832 45.17285,-51.4043 79.74121,-57.0293 l 0.53418,-0.0425 c 0.41211,6.2085 0.22608,13.83545 -0.082,20.12549 l -0.896,0.2998 c -14.63964,4.03223 -38.79052,11.70655 -57.11035,22.60352 -9.01904,5.36475 -16.51513,10.37402 -22.53125,14.69775 l 0.34424,-0.65478 z"
         style="fill:#231f20;fill-opacity:1;fill-rule:nonzero;stroke:none"
         id="path214" /><path
         d="m 265.35156,486.3418 c -11.03711,-10.00977 -20.77978,-19.92725 -27.03125,-26.50733 l -0.43847,-0.44824 c 4.76806,-6.84521 12.53173,-15.35693 23.93212,-20.45996 8.625,-3.86084 20.74122,-5.05713 29.23047,-5.38916 l 0.20411,0.19531 c 4.04785,3.88526 11.0874,10.08496 22.47363,18.56104 10.0625,7.4917 20.34424,12.97314 27.78515,16.47021 l 0.17383,0.0781 c 2.56446,4.94336 7.80957,14.04541 14.72901,20.80371 7.36328,7.19238 17.88623,12.99414 22.89306,15.53955 l -0.20703,0.26025 c -10.90478,12.41162 -24.5415,22.36426 -39.9707,28.91797 l -0.53418,-0.14892 c -0.16016,-0.061 -9.96436,-3.8379 -24.01611,-11.78028 l -0.65967,-0.34521 c 0.38232,-0.38379 0.73828,-0.76074 1.08252,-1.12305 2.2041,-2.32031 4.06006,-5.56836 2.78418,-6.84424 -1.27637,-1.27588 -3.13233,-0.81201 -9.16407,2.08789 -0.87402,0.42041 -1.71533,0.82813 -2.52002,1.22412 l -0.70019,-0.4414 c -2.30957,-1.43506 -4.68848,-2.96338 -7.11865,-4.58789 l -0.41016,-0.33789 c 0.73584,-0.64844 1.29981,-1.22705 1.70068,-1.65674 1.62452,-1.73975 3.94434,-5.56787 2.43604,-7.07569 -1.50781,-1.5083 -3.27686,-0.97753 -6.61182,1.04346 -1.34912,0.81787 -3.02929,1.79395 -4.75146,2.79102 l -0.24365,-0.25049 c -1.63184,-1.18359 -3.27686,-2.40772 -4.93116,-3.67285 l -0.31884,-0.28809 c 0.62548,-0.46924 1.21972,-0.96289 1.77734,-1.47949 2.34814,-2.17383 4.05957,-4.52393 3.01611,-6.26416 -1.04443,-1.73975 -3.7124,-1.04346 -7.54052,0.58008 -1.15625,0.49121 -2.5542,1.14697 -4,1.85986 l -0.33838,-0.29394 c -1.90625,-1.56983 -3.79981,-3.16895 -5.6709,-4.7837 l -0.35401,-0.3208 c 1.00147,-0.68847 1.8877,-1.41211 2.5918,-2.1455 2.2832,-2.37842 3.82813,-4.29151 2.55176,-5.91602 -1.27637,-1.62354 -3.82813,-1.04346 -6.72803,0.46435 -1.07617,0.55958 -2.7124,1.375 -4.55713,2.25635 l -0.54541,-0.57226 z"
         style="fill:#231f20;fill-opacity:1;fill-rule:nonzero;stroke:none"
         id="path216" /><path
         d="m 258.68896,489.69189 c -11.21093,-10.28955 -20.88232,-20.23876 -26.76464,-26.48242 l -0.50391,-0.55908 c -3.95996,-0.0659 -9.27783,0.26172 -15.37012,1.70703 -8.42187,1.99854 -17.35595,7.46924 -21.9414,10.55957 l -0.4209,0.29981 c 16.75,39.89648 56.18799,67.91601 102.16992,67.91601 11.57031,0 22.72607,-1.77441 33.21045,-5.06543 l 0.4585,-0.15967 c -5.02051,-2.28173 -12.58594,-5.98437 -21.56397,-11.22949 l -0.3706,-0.29687 c -1.27979,0.53662 -2.77295,1.02246 -4.542,1.42822 -4.68506,1.0752 -6.72851,0.92822 -7.77197,0.11621 -1.04443,-0.8125 -0.23193,-3.59619 1.85596,-5.33594 0.51562,-0.42968 1.15283,-0.88086 1.90088,-1.35449 l -0.42041,-0.2832 c -2.17432,-1.39551 -4.40039,-2.86817 -6.66504,-4.4209 l -0.54151,-0.39844 c -1.54638,0.65821 -3.30713,1.21826 -5.29394,1.58496 -3.22656,0.59522 -5.45215,0.34815 -6.38037,-0.81201 -0.92774,-1.16015 0.23242,-3.13232 2.78418,-4.87207 0.43701,-0.29834 0.99023,-0.65088 1.62548,-1.04199 l -0.32373,-0.27002 c -1.60156,-1.19238 -3.21484,-2.42285 -4.83447,-3.69189 l -0.69775,-0.4375 c -1.0791,0.37841 -2.1875,0.68701 -3.30957,0.91748 -3.81153,0.78173 -6.14795,0.58007 -7.1919,-0.46436 -0.81982,-0.81982 -0.58008,-3.13184 2.20362,-4.87158 0.42968,-0.26856 1.03906,-0.62403 1.76953,-1.03418 l -0.47461,-0.36426 c -1.87451,-1.57373 -3.73096,-3.16894 -5.56201,-4.77246 l -0.32276,-0.34668 c -1.21484,0.45508 -2.41504,0.81982 -3.52978,1.06543 -3.94385,0.87012 -7.07569,0.69629 -8.23584,-0.58008 -1.08399,-1.19238 -1.39209,-3.59619 2.78369,-5.104 0.78857,-0.28467 1.67676,-0.63574 2.61719,-1.02783 z"
         style="fill:#231f20;fill-opacity:1;fill-rule:nonzero;stroke:none"
         id="path218" /></g></g></svg>