<svg height="374.88737" viewBox="0 0 37.08202 51.80298" width="266.746783" xmlns="http://www.w3.org/2000/svg" xmlns:xlink="http://www.w3.org/1999/xlink"><clipPath id="a" transform="translate(2.27702 1.75258)"><path d="m2.0591 24.11083c0 12.215 6.659 22.11694 14.873 22.11694s14.873-9.902 14.873-22.11694c0-12.213-6.659-22.11505-14.873-22.11505s-14.873 9.902-14.873 22.11505"/></clipPath><path d="m.614 24.151c0-12.999 7.292-23.537 16.288-23.537s16.289 10.538 16.289 23.537-7.293 23.537-16.289 23.537-16.288-10.538-16.288-23.537" fill="#fff" transform="translate(2.27702 1.75258)"/><ellipse cx="19.17927" cy="25.90358" fill="none" rx="16.2885" ry="23.53702" stroke="#000" stroke-miterlimit="3.864" stroke-width="1.228"/><path d="m2.05919 24.11162c0-12.215 6.659-22.116 14.873-22.116s14.872 9.901 14.872 22.116-6.658 22.116-14.872 22.116-14.873-9.901-14.873-22.116" transform="translate(2.27702 1.75258)"/><g clip-path="url(#a)"><path d="m0 51.803v-51.803h28.497l-19.509 51.803z" fill="#fff"/></g><ellipse cx="19.20895" cy="25.86421" fill="none" rx="14.8725" ry="22.116" stroke="#000" stroke-miterlimit="3.864" stroke-width=".387"/><g transform="translate(2.27702 1.75258)"><path d="m18.0262 9.28032a3.51192 3.51192 0 0 1 .666 2.744 8.6586 8.6586 0 0 0 -.492 1.986c-.089.604.11 1.178-.133 1.72-.051.077-.172.2-.266.092-.146-.092-.261-.34-.461-.348a1.67994 1.67994 0 0 0 -.491 1.024 9.48772 9.48772 0 0 0 .071 1.976.86312.86312 0 0 1 -.112.389.18313.18313 0 0 1 -.267 0c-.214-.207-.222-.54-.501-.686a.45721.45721 0 0 0 -.307.318 3.61658 3.61658 0 0 0 -.195 1.474 11.80331 11.80331 0 0 1 .072 1.638c-.115.1-.256-.051-.389-.061a.248.248 0 0 0 -.256.00995 9.8574 9.8574 0 0 0 -.87 2.611 24.27984 24.27984 0 0 0 -.4 3.635.286.286 0 0 1 -.348.123 2.03731 2.03731 0 0 1 -.696-1.628c-.049-.942.09-1.907.041-2.785-.026-.179-.005-.46906-.215-.522-.005.025-.041.051-.061.03a2.67723 2.67723 0 0 0 -.625.973c-.758 1.802-1.449 3.635-2.109 5.478-.054.153-.077.366-.267.409-.33-.079-.34-.456-.378-.737-.279-1.989.532-3.87 1.034-5.672-.033-.149.036-.282-.103-.369l-.245.021a39.45834 39.45834 0 0 0 -3.952 4.423c-.088.056-.177-.011-.246-.062-.159-.187-.087-.471-.062-.696a14.90185 14.90185 0 0 1 3.103-5.119c.169-.279.537-.545.317-.881a.698.698 0 0 0 -.553-.051c-.998.384-1.945.898-2.907 1.372-.093.015-.108-.092-.144-.143a2.86748 2.86748 0 0 1 .84-1.475 19.16129 19.16129 0 0 1 3.716-2.354 31.70584 31.70584 0 0 0 3.911-2.12.81615.81615 0 0 0 .236-.84c-.292-.404-.863-.245-1.3-.307a5.39009 5.39009 0 0 1 -3.287-.635.55909.55909 0 0 1 -.174-.501l.061-.041c1.249.1 2.573-.015 3.768-.01.335-.075.75.048 1.045-.226.025-.233-.223-.253-.349-.379a13.44565 13.44565 0 0 0 -2.774-.624c-.023-.036-.051-.095-.011-.133.21-.238.561-.136.84-.205.589-.033 1.142.205 1.7.154a.47127.47127 0 0 0 .215-.226.84367.84367 0 0 0 -.092-.389 4.5508 4.5508 0 0 0 -2.202-.655c-.606.008-1.259.151-1.935.113a4.72751 4.72751 0 0 0 -1.31.041.7523.7523 0 0 0 -.441.716c-.028.136.192.267.011.369a1.27534 1.27534 0 0 1 -1.014-.317 3.2949 3.2949 0 0 1 -.102-1.813c.163-.468.737-.338 1.044-.655.202-.491.829-.123 1.085-.553a2.70234 2.70234 0 0 1 .778-.665 21.35111 21.35111 0 0 0 4.751-.185 3.43517 3.43517 0 0 1 3.737 1.22894"/><path d="m18.0262 9.28032a3.51192 3.51192 0 0 1 .666 2.744 8.6586 8.6586 0 0 0 -.492 1.986c-.089.604.11 1.178-.133 1.72-.051.077-.172.2-.266.092-.146-.092-.261-.34-.461-.348a1.67994 1.67994 0 0 0 -.491 1.024 9.48772 9.48772 0 0 0 .071 1.976.86312.86312 0 0 1 -.112.389.18313.18313 0 0 1 -.267 0c-.214-.207-.222-.54-.501-.686a.45721.45721 0 0 0 -.307.318 3.61658 3.61658 0 0 0 -.195 1.474 11.80331 11.80331 0 0 1 .072 1.638c-.115.1-.256-.051-.389-.061a.248.248 0 0 0 -.256.00995 9.8574 9.8574 0 0 0 -.87 2.611 24.27984 24.27984 0 0 0 -.4 3.635.286.286 0 0 1 -.348.123 2.03731 2.03731 0 0 1 -.696-1.628c-.049-.942.09-1.907.041-2.785-.026-.179-.005-.46906-.215-.522-.005.025-.041.051-.061.03a2.67723 2.67723 0 0 0 -.625.973c-.758 1.802-1.449 3.635-2.109 5.478-.054.153-.077.366-.267.409-.33-.079-.34-.456-.378-.737-.279-1.989.532-3.87 1.034-5.672-.033-.149.036-.282-.103-.369l-.245.021a39.45834 39.45834 0 0 0 -3.952 4.423c-.088.056-.177-.011-.246-.062-.159-.187-.087-.471-.062-.696a14.90185 14.90185 0 0 1 3.103-5.119c.169-.279.537-.545.317-.881a.698.698 0 0 0 -.553-.051c-.998.384-1.945.898-2.907 1.372-.093.015-.108-.092-.144-.143a2.86748 2.86748 0 0 1 .84-1.475 19.16129 19.16129 0 0 1 3.716-2.354 31.70584 31.70584 0 0 0 3.911-2.12.81615.81615 0 0 0 .236-.84c-.292-.404-.863-.245-1.3-.307a5.39009 5.39009 0 0 1 -3.287-.635.55909.55909 0 0 1 -.174-.501l.061-.041c1.249.1 2.573-.015 3.768-.01.335-.075.75.048 1.045-.226.025-.233-.223-.253-.349-.379a13.44565 13.44565 0 0 0 -2.774-.624c-.023-.036-.051-.095-.011-.133.21-.238.561-.136.84-.205.589-.033 1.142.205 1.7.154a.47127.47127 0 0 0 .215-.226.84367.84367 0 0 0 -.092-.389 4.5508 4.5508 0 0 0 -2.202-.655c-.606.008-1.259.151-1.935.113a4.72751 4.72751 0 0 0 -1.31.041.7523.7523 0 0 0 -.441.716c-.028.136.192.267.011.369a1.27534 1.27534 0 0 1 -1.014-.317 3.2949 3.2949 0 0 1 -.102-1.813c.163-.468.737-.338 1.044-.655.202-.491.829-.123 1.085-.553a2.70234 2.70234 0 0 1 .778-.665 21.35111 21.35111 0 0 0 4.751-.185 3.43517 3.43517 0 0 1 3.737 1.22905z" fill="none"/><path d="m14.6989 9.62828a.58332.58332 0 0 1 .072.502c-.167.376-.62.335-.953.389-.192-.09-.476-.118-.573-.358a.539.539 0 0 1 0-.41.85921.85921 0 0 1 .707-.42c.266.026.603.01.747.297" fill="#fff"/><path d="m14.6989 9.62828a.58332.58332 0 0 1 .072.502c-.167.376-.62.335-.953.389-.192-.09-.476-.118-.573-.358a.539.539 0 0 1 0-.41.85921.85921 0 0 1 .707-.42c.26598.02601.60299.01001.747.297z" fill="none"/><path d="m8.7195 9.8535c-.036.105-.189.059-.266.041-.062-.082-.277-.131-.154-.256a.46373.46373 0 0 1 .195-.092.42244.42244 0 0 1 .225.30695" fill="#fff"/><path d="m8.7195 9.8535c-.036.105-.189.059-.266.041-.062-.082-.277-.131-.154-.256a.46373.46373 0 0 1 .195-.092.42244.42244 0 0 1 .225.307z" fill="none"/><path d="m14.20729 9.7c.123.13306.274.195.297.369-.225.041-.474.212-.676.03-.097-.102-.258-.222-.215-.368.005-.059.062-.08.113-.082a1.63939 1.63939 0 0 1 .481.051"/><path d="m14.20729 9.7c.123.13306.274.195.297.369-.225.041-.474.212-.676.03-.097-.102-.258-.222-.215-.368.005-.059.062-.08.113-.082a1.63939 1.63939 0 0 1 .481.051z" fill="none"/><path d="m8.17677 10.29387a1.01053 1.01053 0 0 0 .676.143c.117.005.181-.187.307-.102l.184.225c-.589.113-1.364-.049-1.781.492-.064.174-.249.337-.236.532-.054-.008-.113.033-.133-.041a3.17126 3.17126 0 0 1 -.061-1.188c.166-.261.463-.286.716-.379.113.07.179.257.328.318" fill="#fff"/><path d="m8.17677 10.29387a1.01053 1.01053 0 0 0 .676.143c.117.005.181-.187.307-.102l.184.225c-.589.113-1.364-.049-1.781.492-.064.174-.249.337-.236.532-.054-.008-.113.033-.133-.041a3.17126 3.17126 0 0 1 -.061-1.188c.166-.261.463-.286.716-.379.11298.07001.17899.25703.328.318z" fill="none"/><path d="m17.43239 11.932c.018.571.038 1.308-.45 1.669v-.021h.01c-.12-.199-.041-.441-.031-.716-.005-.374-.072-.709-.061-1.065.158-.123.512-.097.532.133" fill="#fff" fill-rule="evenodd"/><path d="m17.43239 11.932c.018.571.038 1.308-.45 1.669v-.021h.01c-.12-.199-.041-.441-.031-.716-.005-.374-.072-.709-.061-1.065.15798-.123.51198-.097.532.133z" fill="none"/><path d="m16.24489 14.19481a3.30993 3.30993 0 0 1 .093.828 1.3597 1.3597 0 0 1 -.216.841 11.85977 11.85977 0 0 0 -.389-1.73c-.026-.126.115-.141.174-.195a.4487.4487 0 0 1 .225-.01c.103.061.044.192.113.266" fill="#fff"/><path d="m16.24489 14.19481a3.30993 3.30993 0 0 1 .093.828 1.3597 1.3597 0 0 1 -.216.841 11.85977 11.85977 0 0 0 -.389-1.73c-.026-.126.115-.141.174-.195a.4487.4487 0 0 1 .225-.01c.10299.06104.044.19203.113.266z" fill="none"/><path d="m15.00588 15.96611a2.25977 2.25977 0 0 1 .205.522 2.35608 2.35608 0 0 1 -.123 1.311c-.087-.052-.079-.203-.133-.287a13.03684 13.03684 0 0 0 -.42-1.454.39319.39319 0 0 1 .471-.092" fill="#fff"/><path d="m15.00588 15.96611a2.25977 2.25977 0 0 1 .205.522 2.35608 2.35608 0 0 1 -.123 1.311c-.087-.052-.079-.203-.133-.287a13.03684 13.03684 0 0 0 -.42-1.454.39319.39319 0 0 1 .471-.092z" fill="none"/><path d="m11.97588 18.56658a49.6496 49.6496 0 0 0 -4.669 1.93506 12.81184 12.81184 0 0 1 4.556-2.519.67673.67673 0 0 1 .113.584" fill="#fff"/><path d="m11.97588 18.56658a49.6496 49.6496 0 0 0 -4.669 1.93506 12.81184 12.81184 0 0 1 4.556-2.519.67673.67673 0 0 1 .113.58394z" fill="none"/><path d="m14.1928 19.638a43.5841 43.5841 0 0 0 -.781 5.54205 14.19738 14.19738 0 0 1 .181-5.661.833.833 0 0 1 .6.119" fill="#fff"/><path d="m14.1928 19.638a43.5841 43.5841 0 0 0 -.781 5.54205 14.19738 14.19738 0 0 1 .181-5.661.833.833 0 0 1 .6.11895z" fill="none"/><path d="m11.65718 19.8358c-1.22 1.29706-3.202 3.721-4.761 5.539a17.655 17.655 0 0 1 4.263-5.817.43411.43411 0 0 1 .498.278" fill="#fff"/><path d="m11.65718 19.8358c-1.22 1.29706-3.202 3.721-4.761 5.539a17.655 17.655 0 0 1 4.263-5.817.43411.43411 0 0 1 .498.278z" fill="none"/><path d="m12.62758 20.31493a69.61307 69.61307 0 0 0 -2.854 7.138 17.84763 17.84763 0 0 1 2.322-7.37195c.201-.078.407.096.532.23395" fill="#fff"/><path d="m12.62758 20.31493a69.61307 69.61307 0 0 0 -2.854 7.138 17.84763 17.84763 0 0 1 2.322-7.37195c.20098-.07798.407.09602.532.23395z" fill="none"/><path d="m27.76848 28.94072a6.06466 6.06466 0 1 0 .336 4.971l1.013.002a7.03959 7.03959 0 1 1 -.273-4.971z" fill="#fff"/><path d="m27.76848 28.94072a6.06466 6.06466 0 1 0 .336 4.971l1.013.002a7.03959 7.03959 0 1 1 -.273-4.971z" fill="none" stroke="#fff" stroke-miterlimit="3.864" stroke-width=".045"/><path d="m21.3503 29.18907h4.449v.837h-3.619v2.414h3.514v.884h-3.514v3.822c-.208 0-.648.004-.83.004z" fill="#fff"/><path d="m21.3503 29.18907h4.449v.837h-3.619v2.414h3.514v.884h-3.514v3.822c-.208 0-.648.004-.83.004z" fill="none" stroke="#fff" stroke-miterlimit="3.864" stroke-width=".018"/><path d="m24.74867 28.32988a2.81258 2.81258 0 0 0 -2.425-1.521 2.46342 2.46342 0 0 0 -2.589 2.405c0 1.603 1.479 2.158 2.774 2.63.945.329 1.85.699 1.85 1.87a2.1238 2.1238 0 0 1 -2.138 2.138 2.41741 2.41741 0 0 1 -2.363-1.932l-.904.288a3.26682 3.26682 0 0 0 3.267 2.507 2.93379 2.93379 0 0 0 3.062-2.96c0-3.432-4.624-2.322-4.624-4.603a1.61709 1.61709 0 0 1 1.624-1.48 1.8066 1.8066 0 0 1 1.665 1.069z" fill="#fff"/></g></svg>