<?xml version="1.0" encoding="utf-8"?>
<!-- Generator: Adobe Illustrator 14.0.0, SVG Export Plug-In . SVG Version: 6.00 Build 43363)  -->
<!DOCTYPE svg PUBLIC "-//W3C//DTD SVG 1.1//EN" "http://www.w3.org/Graphics/SVG/1.1/DTD/svg11.dtd">
<svg version="1.1"
	 id="svg7124" xmlns:rdf="http://www.w3.org/1999/02/22-rdf-syntax-ns#" inkscape:version="0.46" sodipodi:docname="Servette FC.svg" xmlns:svg="http://www.w3.org/2000/svg" xmlns:sodipodi="http://sodipodi.sourceforge.net/DTD/sodipodi-0.dtd" xmlns:inkscape="http://www.inkscape.org/namespaces/inkscape" xmlns:dc="http://purl.org/dc/elements/1.1/" sodipodi:version="0.32" xmlns:cc="http://creativecommons.org/ns#" inkscape:output_extension="org.inkscape.output.svg.inkscape"
	 xmlns="http://www.w3.org/2000/svg" xmlns:xlink="http://www.w3.org/1999/xlink" x="0px" y="0px" width="571.189px"
	 height="571.277px" viewBox="0 0 571.189 571.277" enable-background="new 0 0 571.189 571.277" xml:space="preserve">
<defs>
	
	
		<inkscape:perspective  id="perspective7132" inkscape:vp_y="0 : 1000 : 0" inkscape:vp_x="0 : 526.18109 : 1" sodipodi:type="inkscape:persp3d" inkscape:persp3d-origin="372.04724 : 350.78739 : 1" inkscape:vp_z="744.09448 : 526.18109 : 1">
		</inkscape:perspective>
</defs>
<sodipodi:namedview  id="base" inkscape:window-y="-4" inkscape:window-x="-4" inkscape:window-height="978" inkscape:window-width="1680" showgrid="false" inkscape:current-layer="layer1" inkscape:document-units="px" inkscape:cy="471.15562" inkscape:cx="372.04724" inkscape:zoom="0.72693604" inkscape:pageshadow="2" inkscape:pageopacity="0.0" borderopacity="1.0" pagecolor="#ffffff" bordercolor="#666666">
	</sodipodi:namedview>
<g id="layer1" transform="translate(-86.452491,-240.54213)" inkscape:groupmode="layer" inkscape:label="Ebene 1">
	<g id="g8014" transform="matrix(0.7757924,0,0,0.7757924,83.415822,117.9738)">
		<path id="path5722" fill="#85142B" d="M620.458,635.659c0,139.37-112.932,252.329-252.252,252.329
			c-139.345,0-252.303-112.959-252.303-252.329c0-139.359,112.958-252.304,252.303-252.304
			C507.526,383.355,620.458,496.3,620.458,635.659"/>
		<path id="path5726" fill="none" stroke="#FFFFFF" stroke-width="5.604" d="M606.118,635.659
			c0,131.418-106.567,237.957-237.907,237.957c-131.39,0-237.918-106.539-237.918-237.957
			c0-131.407,106.528-237.879,237.918-237.879C499.551,397.779,606.118,504.252,606.118,635.659z"/>
		<path id="path5730" fill="none" stroke="#FFFFFF" stroke-width="3.9323" d="M508.851,635.659
			c0,77.69-62.994,140.632-140.646,140.632c-77.68,0-140.635-62.942-140.635-140.632c0-77.694,62.955-140.596,140.635-140.596
			C445.857,495.063,508.851,557.965,508.851,635.659z"/>
		<path id="path5742" fill="#FFFFFF" d="M423.521,722.957c-16.011,16.012-40.745,25.216-67.952,25.216
			c-21.233,0-41.841-5.585-59.518-16.024l-2.083-1.185l0.351-2.33l4.634-32.429l1.731-11.756
			c6.731,29.525,35.618,47.358,63.426,47.358c9.841,0,23.587-2.432,32.921-14.136c2.565-3.292,8.332-12.212,6.184-24.982
			c-3.046-18.239-28.314-28.455-52.866-38.391c-16.833-6.82-32.741-13.29-41.176-22.376c-9.986-10.688-15.674-25.504-15.999-41.749
			c-0.418-18.616,6.21-35.372,19.007-48.491c15.192-15.506,37.79-24.358,62.031-24.358c20.985,0,40.98,6.573,57.747,19.018
			l1.863,1.354l-0.471,2.278l-6.965,30.098l-2.082,8.983l-4.478-8.07c-10.312-18.683-24.238-37.935-49.156-38.731h-1.328
			c-17.34,0-32.896,10.439-37.857,25.501c-3.958,11.979,0.131,23.563,11.313,31.856c11.105,8.229,25.099,13.227,38.676,18.005
			c30.098,10.729,61.133,21.807,61.172,68.189C442.711,694.043,436.097,710.355,423.521,722.957 M382.644,604.31
			c-13.303-4.699-27.075-9.632-37.737-17.535c-5.729-4.271-14.776-13.63-10.077-27.949c3.697-11.066,16.065-23.042,34.511-23.003
			h1.275c23.081,0.69,36.268,19.033,46.123,36.866l8.917,16.184l4.167-18.008l6.937-30.096l1.055-4.478l-3.722-2.852
			c-17.405-12.886-38.13-19.696-59.924-19.696c-25.109,0-48.649,9.309-64.517,25.49c-13.499,13.814-20.439,31.466-20.035,51.005
			c0.339,17.143,6.353,32.766,16.937,44.119c8.956,9.606,25.268,16.193,42.506,23.224c22.454,9.099,47.969,19.436,50.689,35.67
			c1.928,11.364-3.2,19.305-5.558,22.209c-8.37,10.622-20.973,12.836-30.084,12.836c-34.564,0-57.281-24.033-65.09-57.475
			l-1.771,12.263l-6.406,45.041l-0.663,4.699l4.022,2.397c18.278,10.792,39.524,16.468,61.369,16.468
			c28.091,0,53.777-9.54,70.48-26.243c13.211-13.279,20.19-30.424,20.177-49.639C446.174,626.923,412.404,614.881,382.644,604.31"/>
		<path id="path5744" fill="#85142B" d="M572.892,686.216H456.733V585.132h116.159V686.216z"/>
		<path id="path5748" fill="#FFFFFF" d="M232.485,547.365c-3.75,5.676-7.682,8.058-9.268,8.853
			c-2.149,0.284-7.069-1.877-11.249-4.664c-0.546-0.96,0.339-2.432,1.366-2.432c4.819,1.431,13.176,1.081,16.664-4.154
			c3.034-4.475,1.315-8.682-1.745-10.725c-4.96-3.295-11.025-0.639-15.322,1.82c-5.169,2.943-12.015,5.221-18.134,1.187
			c-6.912-4.596-8.136-13.11-2.174-21.975c1.328-2.044,3.307-4.374,5.69-6.365c0.78-0.626,1.263-1.082,1.848-1.757
			c1.679,0.441,5.415,2.04,9.516,4.814c0.493,0.757-0.443,2.332-1.392,2.449c-3.854-1.016-10.09-1.369-13.018,3.007
			c-2.748,4.05-1.589,8.008,1.47,10.115c2.839,1.874,7.056,1.083,10.74-0.911l4.83-2.603c4.608-2.449,11.352-4.881,18.108-0.404
			C237.925,528.738,238.695,538.108,232.485,547.365"/>
		<path id="path5752" fill="#FFFFFF" d="M237.212,494.55c1.38,1.523,1.484,1.587,2.995,0.274l3.788-3.398
			c2.826-2.566,3.073-3.476,1.353-6.653l-0.95-1.64c0-0.742,1.303-2.044,2.057-1.77c1.445,1.823,3.177,3.878,5.065,5.975
			c1.861,2.03,3.696,3.971,5.389,5.61c0.17,0.793-1.159,2.057-2.018,1.876l-1.458-1.083c-2.982-2.105-3.958-1.976-6.809,0.575
			l-3.789,3.409c-1.497,1.315-1.497,1.419,0,3.074l5.833,6.521c2.304,2.502,4.073,4.102,5.584,4.428
			c1.587,0.284,3.034-0.221,7.056-3.803c4.727-4.255,6.431-6.065,3.893-14.997c-0.118-1.014,1.458-2.044,2.226-1.586
			c2.37,3.071,5.064,8.695,5.61,10.843c-3.007,2.513-8.318,7.225-12.758,11.247l-7.107,6.419c-2.682,2.382-5.273,4.831-9.257,8.632
			c-0.768,0.064-1.926-1.249-1.782-1.928l2.265-2.669c2.188-2.549,2.122-3.241-2.408-8.293l-18.395-20.385
			c-4.504-4.998-5.155-5.116-8.005-3.293l-1.602,0.976c-0.794,0.105-1.9-1.21-1.64-2.056c2.682-2.226,5.403-4.545,8.006-6.927
			l11.651-10.466c3.488-3.177,6.534-6.001,7.173-6.743c0.821,0.847,4.766,4.426,8.306,7.835c0.379,0.796-0.768,2.046-1.782,2.046
			c-2.344-1.421-4.557-2.331-5.989-2.435c-1.99-0.117-4.218,0.676-6.86,3.11l-4.387,3.982c-1.835,1.589-1.745,1.694,0.104,3.685
			L237.212,494.55z"/>
		<path id="path5756" fill="#FFFFFF" d="M280.144,466.72c1.081,2.331,1.431,2.448,5.364,0.509c2.343-1.081,3.476-2.396,4.128-4.27
			c0.573-1.639,0.82-4.412-1.069-8.279c-2.903-6.014-8.28-8.176-13.448-5.623c-2.72,1.314-2.63,1.482-1.237,4.713L280.144,466.72z
			 M266.957,462.685c-3.163-6.637-3.672-7.329-6.64-6.366l-1.912,0.639c-0.808-0.067-1.628-1.719-1.003-2.395
			c4.79-2.773,9.882-5.506,16.194-8.58c5.61-2.72,10.896-4.139,14.125-3.865c4.96,0.416,8.566,2.786,10.597,6.989
			c2.851,5.911,0.103,10.337-2.212,13.344c-0.534,0.689-0.313,1.081,0.35,1.588c8.683,6.808,13.813,10.518,18.265,11.653
			c2.447,0.558,4.347,0.117,5.364-0.235c0.78,0,1.237,1.028,1.144,1.589c-0.846,0.964-2.915,2.108-5.011,3.071
			c-6.066,2.954-10.974,2.669-16.221-0.729c-3.814-2.499-6.938-5.012-10.155-7.785c-1.626-1.418-2.942-1.418-4.595-0.625
			c-2.317,1.134-2.408,1.301-1.757,2.669l3.919,8.122c2.942,6.079,3.567,6.405,6.795,5.456l1.979-0.509
			c0.637,0.093,1.419,1.693,1.067,2.317c-3.528,1.587-6.6,3.007-9.777,4.543c-3.332,1.6-6.247,3.058-9.607,4.882
			c-0.755-0.168-1.483-1.757-1.119-2.318l1.64-1.195c2.708-1.993,2.89-2.683-0.052-8.75L266.957,462.685z"/>
		<path id="path5760" fill="#FFFFFF" d="M345.717,455.47c-2.134,9.441-3.059,15.505-4.036,19.813c-0.482,0.522-1.3,0.86-2.433,1.081
			c-0.821,0.17-1.536,0.064-2.044-0.221c-1.171-1.81-3.059-5.403-4.543-7.721l-17.015-27.428c-4.309-6.81-4.101-6.522-7.733-6.757
			l-2.108-0.118c-0.729-0.728-0.768-2.11-0.183-2.616c3.724-0.509,6.171-0.782,9.894-1.485c3.371-0.559,6.456-1.237,10.87-2.2
			c0.651,0.341,0.794,1.759,0.482,2.435l-2.071,0.86c-1.236,0.558-1.692,1.08-1.575,1.706c0.131,0.573,1.848,3.462,4.309,7.433
			l9.36,15.218c1.458,2.499,2.525,4.038,3.228,5.169c0.405-1.315,0.899-3.448,1.354-5.794l1.458-7.263
			c1.067-4.934,2.617-13.567,3.008-16.194c0.259-1.472,0.376-2.319,0.259-2.722c-0.103-0.506-0.337-0.847-2.174-0.964l-2.188-0.115
			c-0.702-0.457-0.976-1.979-0.156-2.488c3.45-0.469,6.225-0.86,8.969-1.366c2.448-0.468,4.622-0.913,6.706-1.485
			c0.638,0.235,1.015,1.991,0.624,2.499l-1.847,0.676c-1.966,0.796-2.879,1.602-3.555,3.242c-1.159,2.669-2.344,6.94-3.828,13.293
			L345.717,455.47z"/>
		<path id="path5764" fill="#FFFFFF" d="M384.644,443.825c-0.208,2.055-0.116,2.159,1.835,2.395l5.053,0.506
			c3.827,0.391,4.673-0.065,5.806-3.462l0.599-1.823c0.545-0.572,2.408-0.324,2.706,0.341c-0.415,2.278-0.755,5.011-1.003,7.784
			c-0.311,2.72-0.481,5.39-0.611,7.718c-0.404,0.692-2.238,0.573-2.695-0.167l-0.13-1.876c-0.52-3.58-1.249-4.244-5.077-4.66
			l-5.025-0.456c-1.965-0.274-2.082-0.155-2.278,2.058l-0.859,8.695c-0.352,3.398-0.313,5.729,0.442,7.083
			c0.833,1.419,2.174,2.173,7.511,2.681c6.392,0.626,8.905,0.677,13.76-7.226c0.69-0.729,2.448-0.284,2.642,0.626
			c-0.637,3.814-2.981,9.608-4.204,11.417c-3.853-0.509-10.935-1.301-16.948-1.862l-9.518-0.96
			c-3.488-0.354-7.134-0.625-12.627-1.044c-0.559-0.506-0.364-2.265,0.247-2.538l3.477-0.182c3.358-0.106,3.841-0.561,4.518-7.33
			l2.773-27.363c0.65-6.64,0.259-7.212-3.007-8.122l-1.759-0.561c-0.612-0.519-0.415-2.226,0.404-2.552
			c3.424,0.509,7.004,0.952,10.518,1.302l15.556,1.524c4.674,0.455,8.878,0.806,9.829,0.806c-0.025,1.12-0.025,6.458-0.169,11.403
			c-0.378,0.796-2.071,0.729-2.761,0c-0.534-2.602-1.354-4.945-2.174-6.078c-1.289-1.471-3.384-2.616-7.004-2.954l-5.818-0.561
			c-2.486-0.284-2.486-0.117-2.733,2.617L384.644,443.825z"/>
		<path id="path5768" fill="#FFFFFF" d="M440.124,442.356c0.665-1.653,0.808-1.991-0.857-2.616l-4.245-1.759
			c-4.96-1.924-7.511,0.169-11.547,4.375c-0.977,0.118-2.227-0.572-2.306-1.653c3.347-4.14,5.379-8.227,6.952-10.674
			c0.339-0.117,0.718-0.117,1.054,0c0.354,0.167,0.652,0.402,0.86,0.689c-0.117,1.302-0.025,1.639,5.156,3.683l25.449,10.219
			c4.532,1.81,5.571,2.161,6.784,0.977c0.298-0.064,0.573-0.064,0.95,0.104c0.39,0.182,0.768,0.625,0.846,0.913
			c-1.615,2.042-4.321,7.394-5.754,11.364c-0.571,0.509-2.421-0.117-2.577-0.795c0.559-4.895,0.923-8.46-4.218-10.518l-4.115-1.642
			c-1.639-0.637-1.913-0.506-2.669,1.251l-12.079,30.163c-2.513,6.353-2.277,6.977,0.585,8.749l2.591,1.405
			c0.351,0.625-0.312,2.213-0.937,2.395c-4.399-1.887-7.799-3.358-10.872-4.542c-3.267-1.366-6.899-2.733-11.742-4.49
			c-0.311-0.639,0.249-2.214,0.964-2.396l3.28,0.911c3.228,0.742,3.802,0.405,6.38-5.911L440.124,442.356z"/>
		<path id="path5772" fill="#FFFFFF" d="M493.545,471.941c1.12-1.407,1.328-1.706-0.026-2.773l-3.554-2.903
			c-4.204-3.345-7.238-2.044-12.368,0.793c-0.911-0.234-1.926-1.251-1.704-2.278c4.426-3.007,7.589-6.3,9.776-8.229
			c0.365,0,0.757,0.12,1.042,0.405c0.273,0.234,0.559,0.508,0.612,0.859c-0.495,1.237-0.495,1.575,3.866,5.104l21.363,17.195
			c3.775,3.021,4.673,3.646,6.132,2.904c0.325,0.053,0.585,0.117,0.91,0.391c0.365,0.299,0.571,0.846,0.571,1.081
			c-2.185,1.536-6.324,5.858-8.877,9.203c-0.689,0.288-2.304-0.86-2.213-1.536c1.98-4.49,3.333-7.837-0.963-11.247l-3.449-2.773
			c-1.381-1.147-1.641-1.095-2.864,0.391l-20.414,25.331c-4.295,5.339-4.295,6.028-2.054,8.463l2.093,2.162
			c0.144,0.675-0.923,1.977-1.614,1.977c-3.632-3.057-6.456-5.454-9.034-7.548c-2.784-2.214-5.767-4.595-9.894-7.669
			c-0.195-0.729,0.899-2.044,1.615-2.044l2.825,1.809c2.878,1.656,3.567,1.602,7.876-3.8L493.545,471.941z"/>
		<path id="path5776" fill="#FFFFFF" d="M523.889,522.371c-1.707,1.184-1.77,1.354-0.584,2.954l2.902,4.14
			c2.241,3.126,3.124,3.516,6.484,2.148l1.706-0.714c0.793,0.052,1.848,1.521,1.508,2.199c-2.019,1.25-4.231,2.734-6.509,4.323
			c-2.265,1.589-4.412,3.241-6.235,4.713c-0.793,0.064-1.874-1.368-1.639-2.16l1.249-1.354c2.421-2.734,2.474-3.75,0.273-6.874
			l-2.942-4.154c-1.146-1.64-1.264-1.64-3.06-0.389l-7.171,5.05c-2.774,1.991-4.518,3.58-5.053,4.999
			c-0.534,1.589-0.181,3.06,2.903,7.432c3.686,5.287,5.351,7.228,14.462,5.69c1.031,0,1.864,1.704,1.302,2.437
			c-3.319,1.99-9.242,3.917-11.416,4.253c-2.185-3.291-6.183-9.085-9.632-14.018l-5.52-7.839c-2.043-2.89-4.206-5.792-7.539-10.152
			c0.053-0.808,1.434-1.837,2.135-1.536l2.409,2.552c2.278,2.369,2.954,2.496,8.515-1.421l22.417-15.843
			c5.482-3.865,5.648-4.557,4.231-7.564l-0.765-1.757c0-0.793,1.404-1.706,2.183-1.368c1.892,2.89,3.896,5.911,5.964,8.814
			l8.994,12.758c2.721,3.865,5.182,7.276,5.833,7.9c-0.857,0.794-4.894,4.271-8.72,7.382c-0.822,0.234-1.941-1.08-1.838-2.03
			c1.653-2.108,2.854-4.204,3.138-5.623c0.35-1.994-0.184-4.27-2.29-7.213l-3.399-4.831c-1.392-1.991-1.526-1.872-3.788-0.351
			L523.889,522.371z"/>
		<path id="path5780" fill="#FFFFFF" d="M497.865,628.506c0,2.552,0.117,2.85,2.67,2.85h7.278c5.05,0,5.96-0.624,7.054-5.298
			l0.457-2.315c0.663-0.797,3.058-0.743,3.632,0.102c-0.209,3.071-0.312,6.548-0.312,10.181c0,3.513,0.103,6.978,0.312,9.883
			c-0.574,0.843-2.968,0.909-3.632,0.049l-0.457-2.265c-1.094-4.546-2.004-5.339-7.054-5.339h-7.278c-2.553,0-2.67,0.326-2.67,2.89
			v12.772c0,8.8,0.561,9.54,4.845,10.166l3.515,0.458c0.677,0.573,0.677,2.784,0,3.345c-5.897-0.223-10.545-0.273-15.114-0.273
			c-4.335,0-9.061,0.05-14.774,0.273c-0.755-0.56-0.755-2.772,0-3.345l3.084-0.458c4.309-0.626,4.843-1.366,4.843-10.166v-35.265
			c0-8.853-0.534-9.477-4.843-10.337l-1.888-0.287c-0.794-0.559-0.794-2.941,0.209-3.345c4.114,0.181,8.839,0.286,13.37,0.286
			h19.944c6.066,0,11.484-0.104,12.796-0.286c0,1.653,0,8.462,0.196,14.827c-0.393,1.028-2.489,1.132-3.591,0.39
			c-1.057-3.905-1.811-6.183-2.737-7.434c-1.639-1.991-4.465-3.124-9.32-3.124h-7.382c-3.152,0-3.152,0.185-3.152,3.921V628.506z"/>
		<path id="path5784" fill="#FFFFFF" d="M586.615,604.028c0,1.718,0.274,9.32,1.107,14.826c-0.392,1.095-2.967,1.538-3.605,0.627
			c-2.538-8.8-8.644-13.512-17.848-13.512c-10.517,0-21.87,8.968-21.87,27.832c0,18.915,10.989,29.071,22.337,29.071
			c11.51,0,16.797-8.293,19.385-14.766c0.769-0.74,3.035-0.454,3.569,0.678c-0.639,7.042-2.253,12.77-3.569,14.932
			c-5.14,1.366-11.897,3.541-19.28,3.541c-9.292,0-18.772-2.226-25.514-7.226c-6.823-5.219-12.057-13.122-12.057-24.876
			c0-11.587,4.961-19.699,11.473-25.166c6.755-5.556,16.402-8.446,26.282-8.446C576.737,601.543,583.726,603.807,586.615,604.028"/>
		<path id="path5788" fill="#FFFFFF" d="M196.735,749.696c-2.356,1.253-3.399,1.994-3.059,3.178
			c-0.106,0.351-1.081,0.757-1.407,0.573c-0.702-0.911-1.653-2.265-2.993-3.513c-1.653-1.589-5-5.964-6.679-9.088
			c-2.03-3.814-3.449-7.263-3.995-12.04c-0.899-8.018,2.89-15.739,10.907-20.153c6.954-3.763,14.777-3.931,22.145,0.728
			c4.114,2.671,7.446,6.693,10.011,11.407c3.385,6.196,3.657,9.996,4.635,11.819c-1.575,1.027-5.456,3.177-8.552,5.573
			c-0.704,0.156-1.562-1.317-1.237-1.993c4.242-4.596,4.972-9.595,2.2-14.763c-4.844-8.864-14.49-9.19-23.29-4.372
			c-8.019,4.256-11.235,9.593-11.755,14.539c-0.34,3.633,0.898,6.745,2.029,8.8c1.707,3.124,2.682,3.463,6.315,1.524l3.476-1.876
			c3.032-1.628,3.202-2.147,2.135-5.038l-0.977-2.63c0-0.782,1.288-1.459,1.966-1.081c2.005,3.985,3.463,6.771,4.908,9.556
			c1.43,2.669,2.967,5.325,4.114,7.213c-0.078,0.624-1.368,1.302-1.927,1.016l-0.938-1.197c-1.249-1.459-1.952-1.526-4.933,0.117
			L196.735,749.696z"/>
		<path id="path5792" fill="#FFFFFF" d="M229.534,760.895c-1.302,1.247-1.367,1.351-0.248,2.602l3.007,3.255
			c2.266,2.421,3.073,2.589,5.78,1.067l1.392-0.86c0.651,0,1.732,1.144,1.512,1.706c-1.576,1.314-3.269,2.837-5.052,4.493
			c-1.757,1.586-3.397,3.228-4.792,4.71c-0.584,0.17-1.757-0.974-1.64-1.703l0.952-1.304c1.77-2.564,1.64-3.41-0.599-5.845
			l-2.942-3.191c-1.171-1.235-1.303-1.235-2.67,0l-5.506,5.117c-2.149,2.044-3.488,3.634-3.749,4.882
			c-0.274,1.368,0.169,2.616,3.319,5.964c3.789,4.089,5.364,5.507,12.992,3.241c0.872-0.106,1.745,1.183,1.38,1.925
			c-2.603,2.046-7.419,4.376-9.256,4.936c-2.187-2.54-6.288-7.03-9.827-10.897l-5.626-6.014c-2.082-2.212-4.218-4.44-7.524-7.849
			c-0.117-0.626,1.041-1.692,1.614-1.536l2.33,1.887c2.2,1.824,2.787,1.824,7.069-2.096l17.354-16.143
			c4.204-3.97,4.309-4.543,2.706-6.927l-0.871-1.419c-0.052-0.61,1.066-1.589,1.782-1.419c1.889,2.28,3.958,4.608,6.041,6.81
			l9.178,9.893c2.747,2.943,5.247,5.57,5.91,6.065c-0.716,0.743-3.736,4.204-6.678,7.33c-0.638,0.287-1.771-0.676-1.771-1.587
			c1.145-1.991,1.94-3.92,2.03-5.17c0.067-1.689-0.676-3.63-2.733-5.909l-3.489-3.686c-1.419-1.536-1.523-1.419-3.268,0.171
			L229.534,760.895z"/>
		<path id="path5796" fill="#FFFFFF" d="M274.716,814.955c-2.266,3.515-4.427,6.874-5.429,8.684c-0.754,0.4-2.628,0.049-3.969-0.797
			c0,0-0.014-3.853-0.6-8.566l-2.538-23.171c-0.599-5.793-1.003-9.165-1.431-10.571c-0.626,0.403-1.225,1.263-2.461,3.229
			l-6.639,10.401c-2.8,4.321-5.13,8.475-5.415,10.286c-0.3,1.417,0.78,2.549,1.991,3.695l1.314,1.186
			c0.169,0.676-0.626,1.692-1.159,1.821c-2.811-1.939-4.921-3.357-7.056-4.724c-1.978-1.237-3.997-2.435-6.079-3.634
			c-0.17-0.558,0.495-1.691,1.172-1.859l1.002,0.391c1.653,0.572,2.878,0.91,4.075,0.117c1.472-1.081,4.204-5.001,7.003-9.309
			l8.644-13.579c1.901-2.904,2.487-3.815,2.539-4.778c0.222-1.133-0.234-2.2-1.926-3.749l-1.302-1.185
			c-0.131-0.624,0.793-1.887,1.419-1.706c2.447,1.706,5.103,3.465,7.265,4.816c1.821,1.198,3.397,2.175,4.582,2.786
			c-1.016,2.735-0.157,8.983,1.015,17.772l1.147,8.188c0.611,4.321,0.911,7.095,1.339,9.139c0.587-0.39,1.146-1.304,1.784-2.267
			l4.726-7.379c2.72-4.309,5.064-8.462,5.378-10.284c0.247-1.485-0.69-2.503-1.979-3.697l-1.303-1.134
			c-0.142-0.743,0.704-1.755,1.198-1.862c2.812,1.916,4.883,3.345,7.056,4.714c2.018,1.289,3.958,2.435,6.066,3.684
			c0.143,0.52-0.454,1.771-1.171,1.873l-1.067-0.454c-1.615-0.561-2.825-0.899-4.036-0.106c-1.498,1.08-4.245,4.933-7.03,9.309
			L274.716,814.955z"/>
		<path id="path5800" fill="#FFFFFF" d="M308.177,812.685c-0.522,1.692-0.509,1.824,1.105,2.382l4.167,1.315
			c3.163,1.016,3.919,0.796,5.52-1.873l0.832-1.37c0.587-0.351,2.085,0.104,2.227,0.729c-0.794,1.941-1.511,4.038-2.305,6.381
			c-0.754,2.251-1.38,4.479-1.86,6.455c-0.495,0.458-1.966,0-2.278-0.689l0.183-1.576c0.286-3.124-0.208-3.866-3.333-4.829
			l-4.165-1.367c-1.64-0.56-1.718-0.454-2.266,1.302l-2.382,7.227c-0.911,2.772-1.264,4.776-0.911,6.013
			c0.456,1.354,1.459,2.212,5.896,3.63c5.221,1.706,7.33,2.164,12.85-3.594c0.677-0.493,2.135,0.249,2.135,1.031
			c-1.236,3.071-4.295,7.511-5.623,8.866c-3.177-1.185-8.944-3.126-13.903-4.714l-7.876-2.552c-2.85-0.91-5.832-1.821-10.4-3.124
			c-0.379-0.507,0.103-1.99,0.701-2.159l2.968,0.52c2.825,0.507,3.346,0.22,5.13-5.339l7.277-22.493
			c1.757-5.507,1.523-6.069-1.016-7.383l-1.406-0.859c-0.429-0.507,0.078-1.862,0.819-2.032c2.773,1.083,5.741,2.032,8.633,2.995
			l12.797,4.153c3.827,1.251,7.288,2.329,8.097,2.448c-0.195,0.963-1.225,5.453-2.266,9.54c-0.429,0.627-1.862,0.339-2.278-0.453
			c0.014-2.345-0.286-4.388-0.755-5.507c-0.768-1.484-2.355-2.786-5.259-3.75l-4.868-1.589c-1.993-0.637-2.044-0.509-2.761,1.692
			L308.177,812.685z"/>
		<path id="path5804" fill="#FFFFFF" d="M361.647,832.226c-3.842,7.422-5.897,12.263-7.642,15.725
			c-0.521,0.288-1.302,0.405-2.227,0.288c-0.782,0-1.327-0.288-1.718-0.626c-0.545-1.77-1.339-5.169-2.082-7.383l-8.318-26.528
			c-2.11-6.576-2.005-6.314-4.987-7.266l-1.704-0.612c-0.442-0.702-0.222-1.823,0.417-2.121c3.202,0.298,5.273,0.624,8.566,0.859
			c2.942,0.234,5.663,0.339,9.517,0.509c0.481,0.403,0.325,1.589-0.131,2.16l-1.887,0.222c-1.186,0.181-1.653,0.509-1.668,1.095
			c-0.064,0.493,0.796,3.278,2.007,7.134l4.49,14.657c0.651,2.394,1.236,3.93,1.575,5.063c0.624-1.133,1.484-2.718,2.383-4.608
			l2.786-5.726c1.94-3.868,5.117-10.793,5.963-12.836c0.548-1.198,0.767-1.877,0.833-2.265c0.064-0.405-0.143-0.757-1.614-1.2
			l-1.862-0.573c-0.418-0.507-0.313-1.862,0.481-2.096c2.928,0.339,5.312,0.561,7.758,0.782c2.136,0.117,4.062,0.182,5.87,0.182
			c0.472,0.326,0.472,1.861-0.024,2.213l-1.678,0.169c-1.811,0.234-2.748,0.677-3.647,1.926c-1.524,1.994-3.411,5.287-6.015,10.233
			L361.647,832.226z"/>
		<path id="path5808" fill="#FFFFFF" d="M396.024,820.467c0.273,1.757,0.378,1.874,2.071,1.587l4.295-0.69
			c3.255-0.495,3.893-1.067,4.114-4.178l0.053-1.667c0.325-0.561,1.874-0.796,2.291-0.287c0.222,2.043,0.52,4.323,0.937,6.64
			c0.312,2.394,0.755,4.674,1.211,6.6c-0.195,0.626-1.745,0.964-2.278,0.456l-0.613-1.471c-1.118-2.968-1.899-3.307-5.18-2.798
			l-4.321,0.74c-1.679,0.234-1.72,0.339-1.42,2.214l1.198,7.447c0.482,2.851,1.067,4.827,1.993,5.794
			c1.002,0.963,2.276,1.3,6.847,0.507c5.389-0.848,7.525-1.406,9.802-9.036c0.391-0.729,2.004-0.729,2.409-0.053
			c0.234,3.294-0.405,8.581-1.042,10.44c-3.293,0.415-9.32,1.315-14.475,2.175l-8.137,1.302c-2.995,0.521-6.028,1.08-10.754,1.99
			c-0.495-0.286-0.782-1.821-0.351-2.224l2.89-0.9c2.772-0.857,3.085-1.366,2.083-7.092l-3.724-23.354
			c-0.977-5.677-1.393-6.067-4.323-6.133h-1.626c-0.626-0.339-0.769-1.757-0.248-2.202c3.021-0.417,6.091-0.804,9.087-1.313
			l13.278-2.16c3.997-0.68,7.55-1.317,8.307-1.538c0.261,0.976,1.431,5.391,2.421,9.543c-0.13,0.729-1.562,1.08-2.304,0.624
			c-1.002-2.096-2.189-3.788-3.192-4.542c-1.365-1.031-3.33-1.419-6.429-0.964l-5.013,0.794c-2.03,0.337-2.03,0.507-1.678,2.837
			L396.024,820.467z"/>
		<path id="path5812" fill="#FFFFFF" d="M472.607,811.027c2.525,4.439,3.137,4.79,5.976,3.474l2.355-1.132
			c0.716,0.104,1.483,1.523,0.95,2.03c-2.005,0.977-5.339,2.801-8.749,4.777c-3.644,2.044-6.926,3.97-8.863,5.221
			c-0.653,0.17-1.499-1.251-1.2-1.862l2.148-1.483c2.578-1.707,2.631-2.45,0.104-6.874l-10.258-18.069
			c-2.044-3.633-2.773-4.362-5.325-3.23l-2.759,1.08c-0.651,0-1.458-1.302-1.237-1.859c2.108-1.602,4.348-3.711,6.208-5.573
			c2.019-2.108,3.544-4.323,3.934-4.544c0.234-0.117,0.728-0.234,1.093,0.171c0.638,1.354,2.032,3.917,3.567,6.703L472.607,811.027z
			"/>
		<path id="path5816" fill="#FFFFFF" d="M501.808,790.368c-3.151-3.867-7.603-3.803-13.253-2.448
			c-0.326,3.241,0.509,5.793,2.748,8.513c2.642,3.243,6.911,4.388,10.126,1.77C503.603,796.433,504.15,793.205,501.808,790.368
			 M478.361,778.664c1.901,2.331,5.221,3.021,10.688,1.419c0.729-2.161-0.103-4.882-1.991-7.277c-2.8-3.399-6.456-3.565-8.436-1.965
			C476.345,772.702,476.201,775.995,478.361,778.664 M485.144,801.836c-3.163-3.867-2.72-8.696-0.117-13.358
			c-4.348,0.861-8.474,0.185-11.234-3.228c-4.01-4.88-3.02-11.756,3.099-16.753c5.531-4.478,11.911-4.713,15.828,0.064
			c2.748,3.397,1.707,7.721,0.091,11.016c5.209-1.147,10.208-0.86,14.114,3.904c3.878,4.714,3.294,11.364-4.44,17.627
			C496.771,805.819,489.687,807.395,485.144,801.836"/>
		<path id="path5820" fill="#FFFFFF" d="M523.659,742.212c6.015,4.829,9.063,11.649,9.544,18.966
			c0.495,7.096-1.902,16.065-5.093,20.321c-0.712,0.405-1.767-0.389-1.756-1.118c5.352-11.548,1.066-23.25-7.967-30.516
			c-3.761-3.007-11.819-7.72-15.166-3.579c-1.862,2.343-0.143,5.921,2.852,8.303c4.009,3.28,9.618,5.04,12.886,2.15
			c0.613-0.507,0.86-0.848,1.212-1.236c0.337-0.185,0.949,0.102,1.247,0.493c0.222,1.536-0.754,4.101-2.407,6.08
			c-3.722,4.673-10.52,5.401-15.517,1.367c-6.353-5.118-6.926-13.579-1.98-19.71C507.584,736.183,516.812,736.692,523.659,742.212"
			/>
		<path id="path5824" fill="#FFFFFF" d="M555.864,730.516c2.135-4.337-8.463-10.337-13.473-12.85
			c-5.091-2.616-16.184-7.603-18.344-3.28c-2.199,4.309,8.409,10.322,13.449,12.889
			C542.557,729.824,553.637,734.824,555.864,730.516 M546.555,709.374c9.075,4.596,16.483,13.241,11.884,22.444
			c-4.658,9.15-16.011,8.278-25.124,3.683c-8.773-4.441-16.505-13.278-11.897-22.43C526.091,703.933,537.78,704.883,546.555,709.374
			"/>
		<path id="path5828" fill="#FFFFFF" d="M429.521,539.183l-6.976,30.099c-9.972-18.119-24.932-39.692-52.1-40.552
			c-37.141-1.132-61.028,40.839-30.135,63.71c36.333,26.871,98.338,18.981,98.48,83.433c0.065,63.831-84.004,87.117-141.375,53.27
			l4.661-32.425c10.166,34.068,72.403,54.468,97.31,23.106c4.126-5.117,9.1-14.931,6.964-27.755
			c-5.598-33.339-75.01-41.059-95.005-62.538c-8.905-9.529-14.711-23.459-15.05-39.405
			C295.044,527.767,375.926,499.428,429.521,539.183"/>
	</g>
</g>
<polygon fill="#F9D748" points="286.379,10.034 302.03,57.58 352.086,57.773 311.704,87.351 326.988,135.016 286.379,105.751 
	245.77,135.016 261.054,87.351 220.672,57.773 270.728,57.58 "/>
</svg>
