<?xml version="1.0" encoding="utf-8"?>
<!-- Generator: Adobe Illustrator 13.0.2, SVG Export Plug-In . SVG Version: 6.00 Build 14948)  -->
<!DOCTYPE svg PUBLIC "-//W3C//DTD SVG 1.0//EN" "http://www.w3.org/TR/2001/REC-SVG-20010904/DTD/svg10.dtd">
<svg version="1.0" id="Ebene_1" xmlns="http://www.w3.org/2000/svg" xmlns:xlink="http://www.w3.org/1999/xlink" x="0px" y="0px"
	 width="272.957340047" height="366.357614648" viewBox="0 0 418.17 561.259" enable-background="new 0 0 418.17 561.259"
	 xml:space="preserve">
<path fill-rule="evenodd" clip-rule="evenodd" fill="#008057" d="M209.084,561.259c-89.859-30.243-157.83-87.879-189.507-166.518
	h97.888c-6.27-8.909-11.549-18.369-15.618-28.488H10.009c-2.53-9.237-4.619-18.694-6.16-28.374h89.53
	c-1.651-9.129-2.64-18.586-2.75-28.488H0.661C0.22,303.013,0,296.413,0,289.815c0-2.971,0.111-5.941,0.111-8.799h91.617
	c0.551-6.489,1.43-12.757,2.53-18.918c0.551-3.19,1.211-6.381,1.871-9.57H1.21c2.861-43.884,11.329-80.398,26.618-117.464
	c50.813-1.21,67.531-9.57,88.099-19.907c23.317-11.659,43.444-24.196,93.158-24.196c49.717,0,69.841,12.538,93.158,24.196
	c20.569,10.337,37.286,18.697,88.099,19.907c15.287,37.066,23.76,73.581,26.616,117.464h-94.919c0.662,3.189,1.321,6.379,1.872,9.57
	c1.099,6.161,1.98,12.429,2.528,18.918h91.62c0,2.858,0.111,5.829,0.111,8.799c0,6.598-0.223,13.198-0.662,19.576h-89.968
	c-0.108,9.902-1.102,19.359-2.751,28.488h89.528c-1.541,9.68-3.627,19.137-6.158,28.374h-91.837
	c-4.069,10.119-9.352,19.579-15.618,28.488h97.887C366.916,473.38,298.944,531.016,209.084,561.259L209.084,561.259z"/>
<path fill-rule="evenodd" clip-rule="evenodd" fill="#FFFFFF" d="M408.16,366.253c-2.751,9.788-5.941,19.251-9.568,28.488h-97.887
	c6.267-8.909,11.549-18.369,15.618-28.488H408.16L408.16,366.253z"/>
<path fill-rule="evenodd" clip-rule="evenodd" fill="#FFFFFF" d="M327.541,309.391c-0.108,9.902-1.102,19.359-2.751,28.488h89.528
	c1.538-9.24,2.531-18.809,3.19-28.488H327.541L327.541,309.391z"/>
<path fill-rule="evenodd" clip-rule="evenodd" fill="#FFFFFF" d="M322.039,252.527c0.662,3.189,1.321,6.379,1.872,9.57
	c1.099,6.161,1.98,12.429,2.528,18.918h91.62c-0.111-9.899-0.442-19.358-1.102-28.488H322.039L322.039,252.527z"/>
<path fill-rule="evenodd" clip-rule="evenodd" fill="#FFFFFF" d="M91.729,281.016c0.551-6.489,1.43-12.757,2.53-18.918
	c0.551-3.19,1.211-6.381,1.871-9.57H1.21c-0.659,9.13-0.99,18.589-1.099,28.488H91.729L91.729,281.016z"/>
<path fill-rule="evenodd" clip-rule="evenodd" fill="#FFFFFF" d="M93.379,337.879c-1.651-9.129-2.64-18.586-2.75-28.488H0.661
	c0.659,9.68,1.649,19.248,3.189,28.488H93.379L93.379,337.879z"/>
<path fill-rule="evenodd" clip-rule="evenodd" fill="#FFFFFF" d="M117.466,394.742c-6.27-8.909-11.549-18.369-15.618-28.488H10.009
	c2.75,9.788,5.938,19.251,9.568,28.488H117.466L117.466,394.742z"/>
<path fill-rule="evenodd" clip-rule="evenodd" fill="#FFFFFF" d="M209.965,452.155h-1.759
	c-34.317-11.657-62.694-30.688-82.27-55.986c-18.697-24.302-29.256-54.439-29.256-89.086c0-16.277,1.099-30.577,3.519-43.885
	s6.05-25.737,11.218-38.275l0.771-1.761c10.118-0.328,20.458-0.769,30.246-3.41c6.929-1.869,13.198-5.058,19.578-8.249
	c11.329-5.829,22.547-11.549,47.074-11.549s35.745,5.72,47.074,11.549c6.378,3.19,12.647,6.379,19.576,8.249
	c9.791,2.641,20.13,3.082,30.246,3.41l0.771,1.761c5.171,12.538,8.798,24.967,11.218,38.275c2.423,13.308,3.521,27.608,3.521,43.885
	c0,34.646-10.559,64.784-29.259,89.086C272.659,421.466,244.282,440.498,209.965,452.155L209.965,452.155z"/>
<path fill-rule="evenodd" clip-rule="evenodd" fill="#008057" d="M209.084,446.105c32.666-11.218,59.722-29.479,78.308-53.675
	c17.93-23.206,28.052-52.025,28.052-85.348c0-15.949-0.99-29.917-3.413-42.895c-2.197-12.208-5.496-23.537-10.119-35.086
	c-12.425-0.439-21.009-1.651-27.715-3.52c-7.368-1.98-13.969-5.279-20.789-8.688c-10.667-5.5-21.226-10.89-44.323-10.89
	s-33.656,5.389-44.325,10.89c-6.819,3.409-13.418,6.708-20.788,8.688c-6.709,1.869-15.287,3.081-27.716,3.52
	c-4.619,11.549-7.919,22.878-10.119,35.086c-2.418,12.979-3.409,26.946-3.409,42.895c0,33.322,10.119,62.142,28.046,85.348
	C149.361,416.626,176.418,434.887,209.084,446.105L209.084,446.105z"/>
<path fill-rule="evenodd" clip-rule="evenodd" fill="#FFFFFF" d="M81.17,197.865c3.081,2.31,4.509,5.719,4.071,10.339
	c-0.441,4.619-2.64,9.678-6.71,15.289c-2.309,3.189-4.509,5.829-6.708,7.809c-2.2,2.09-3.081,2.859-5.281,4.399l-8.029-4.95
	c3.081-1.761,5.06-2.969,8.029-5.278c2.641-1.98,4.73-4.181,6.489-6.601c0.441-0.551,0.99-1.43,1.54-2.42
	c0.661-1.099,1.1-1.979,1.32-2.75c0.331-0.88,0.441-1.759,0.441-2.53c0-0.769-0.331-1.428-1.1-1.98
	c-0.769-0.549-1.54-0.549-2.641-0.218c-0.989,0.33-2.089,1.099-3.407,2.309c-1.321,1.211-2.75,2.64-4.181,4.071
	c-1.43,1.43-2.75,2.64-4.179,3.85c-3.3,2.64-6.16,4.069-8.58,4.509c-2.53,0.33-4.95-0.33-7.039-1.869
	c-2.969-2.2-4.181-5.499-3.74-10.009c0.549-4.62,2.64-9.458,6.27-14.518c1.869-2.53,3.959-4.95,6.16-7.15
	c1.869-1.869,3.628-3.409,5.389-4.729l5.94,5.719c-4.291,2.42-8.689,6.379-11.44,10.118c-0.659,0.771-1.208,1.651-1.649,2.531
	c-0.549,0.879-0.99,1.759-1.21,2.748c-0.33,0.88-0.439,1.651-0.33,2.421s0.439,1.43,0.99,1.869c0.769,0.549,1.759,0.659,2.75,0.22
	c0.99-0.549,2.418-1.649,4.4-3.63c1.21-1.208,2.528-2.418,3.628-3.52c1.21-1.21,2.53-2.309,3.959-3.519
	c2.969-2.42,5.609-3.85,8.029-4.291C76.771,195.665,78.971,196.326,81.17,197.865L81.17,197.865z"/>
<path fill-rule="evenodd" clip-rule="evenodd" fill="#FFFFFF" d="M102.618,156.511c-1.871-0.551-3.74-0.661-5.938-0.221
	c-1.761,0.33-3.631,1.1-5.5,2.09s-3.959,2.53-6.27,4.509l-15.508,12.979l24.967,29.807l9.019-7.589l-8.139-9.678l6.27-5.279
	c2.75-2.31,4.73-4.399,5.94-6.599c1.318-2.09,2.199-4.289,2.64-6.71c0.438-1.759,0.33-3.519-0.22-5.279
	c-0.441-1.759-1.321-3.299-2.42-4.619C106.027,158.161,104.377,157.061,102.618,156.511L102.618,156.511z M99.538,170.588
	c0.221,0.771,0.221,1.651,0,2.64c-0.33,1.1-0.879,2.09-1.869,3.189c-0.88,0.992-2.09,2.202-3.74,3.52l-3.41,2.861l-7.479-8.909
	l2.312-1.98c1.54-1.32,2.859-2.31,3.74-3.079c0.99-0.771,2.089-1.32,3.409-1.871c0.88-0.328,1.869-0.439,2.971-0.328
	c1.099,0.108,1.979,0.659,2.638,1.428C98.878,168.939,99.319,169.818,99.538,170.588L99.538,170.588z"/>
<path fill-rule="evenodd" clip-rule="evenodd" fill="#FFFFFF" d="M148.702,135.063c-5.499-1.649-11.878-0.88-19.028,2.09
	c-7.258,3.079-12.208,7.148-14.848,12.208c-2.64,5.169-2.75,10.559-0.33,16.279c2.42,5.719,6.379,9.349,11.878,10.998
	s11.878,0.88,19.137-2.2c7.26-3.079,12.209-7.148,14.849-12.208s2.75-10.449,0.33-16.167
	C158.271,140.232,154.311,136.603,148.702,135.063L148.702,135.063z M146.941,165.089c-1.208,0.99-2.75,1.98-4.288,2.64
	c-1.541,0.661-3.3,1.1-4.84,1.21c-1.541,0.11-3.079,0-4.509-0.549c-1.431-0.551-2.751-1.431-3.961-2.64
	c-1.32-1.211-2.418-2.861-3.299-5.061c-0.88-2.089-1.32-3.958-1.32-5.827c0-1.871,0.22-3.52,0.88-4.84
	c0.769-1.43,1.649-2.64,2.748-3.63c1.21-0.88,2.751-1.871,4.181-2.42c1.538-0.661,3.189-1.1,4.729-1.32
	c1.54-0.11,3.081,0.11,4.51,0.549c1.43,0.551,2.75,1.431,4.069,2.64c1.32,1.21,2.309,2.971,3.299,5.06
	c0.771,1.98,1.321,3.85,1.321,5.61c0.11,1.649-0.221,3.299-0.88,4.948C149.033,162.889,148.042,164.099,146.941,165.089
	L146.941,165.089z"/>
<path fill-rule="evenodd" clip-rule="evenodd" fill="#FFFFFF" d="M201.057,146.612c2.968-1.43,5.168-3.189,6.598-5.169
	c1.43-1.869,1.979-4.289,1.759-7.148c-0.22-2.09-0.769-3.74-1.869-5.061c-1.21-1.32-2.751-2.309-4.619-2.968
	c-1.869-0.772-3.741-1.102-5.83-1.21c-2.089-0.111-4.509,0-7.258,0.218l-20.348,1.761l3.409,38.826l11.439-1.1l-1.21-14.188
	l6.05-0.549c5.609,4.289,9.899,8.689,12.319,13.307l13.418-0.769C211.393,156.511,207.875,150.901,201.057,146.612L201.057,146.612z
	 M196.547,139.242c-0.33,0.661-0.88,1.32-1.651,1.98c-0.88,0.659-1.979,1.1-3.299,1.32c-1.21,0.33-2.859,0.549-4.84,0.659
	l-4.179,0.441l-0.99-10.45l4.95-0.439c1.43-0.11,2.75-0.22,3.85-0.22c1.1-0.11,2.089,0,2.969,0.22c1.21,0.33,2.089,0.771,2.64,1.43
	c0.551,0.661,0.88,1.431,0.99,2.42C197.096,137.703,196.876,138.583,196.547,139.242L196.547,139.242z"/>
<polygon fill-rule="evenodd" clip-rule="evenodd" fill="#FFFFFF" points="256.267,127.583 214.364,123.185 213.484,131.213 
	228.883,132.863 225.582,163.44 236.911,164.65 240.101,133.963 255.388,135.614 256.267,127.583 "/>
<polygon fill-rule="evenodd" clip-rule="evenodd" fill="#FFFFFF" points="277.496,134.294 266.498,131.104 255.716,168.5 
	266.829,171.579 277.496,134.294 "/>
<polygon fill-rule="evenodd" clip-rule="evenodd" fill="#FFFFFF" points="335.459,163.109 325.78,157.39 312.801,177.409 
	302.682,145.071 292.343,140.342 276.397,175.759 286.296,180.048 295.976,158.93 305.764,190.605 314.231,196.436 335.459,163.109 
	"/>
<path fill-rule="evenodd" clip-rule="evenodd" fill="#FFFFFF" d="M361.964,221.512l-10.228-15.948l-5.719,4.181l3.738,5.937
	l-5.61,3.961c-3.41-3.85-8.687-11.769-8.467-17.048c0.108-3.63,1.978-6.709,5.388-9.24c1.649-1.318,3.41-2.089,5.171-2.418
	c1.758-0.331,3.407-0.331,5.057,0.11c3.633,0.99,7.043,4.069,9.24,6.929c1.102,1.54,1.98,3.081,2.751,4.62
	c1.541,3.52,2.64,9.019,3.299,13.638l7.368-5.499c-1.096-3.628-2.309-8.139-3.627-10.67c-1.43-2.528-2.974-5.168-4.951-7.588
	c-4.948-6.709-10.336-10.78-16.058-12.208c-5.719-1.43-11.001-0.441-15.838,3.189c-5.06,3.85-7.699,8.689-7.811,14.518
	c0,5.83,2.312,11.988,7.26,18.478c2.089,2.859,4.509,5.391,7.148,7.811c2.64,2.418,6.489,6.158,8.361,7.478L361.964,221.512
	L361.964,221.512z"/>
<path fill-rule="evenodd" clip-rule="evenodd" fill="#FFFFFF" d="M100.638,450.614c-0.99,1.102-2.089,1.869-3.409,2.42
	c-1.43,0.551-2.75,0.768-4.181,0.659c-1.979-0.108-3.848-0.548-5.609-1.43c-1.871-0.771-3.74-2.197-5.829-4.069l-4.95-4.617
	l-6.929,7.368l-6.71-6.267L84.25,422.02l11.988,10.664c1.759,1.652,3.081,3.19,4.069,4.623c1.761,2.309,3.079,6.27,2.53,9.126
	C102.618,447.974,101.848,449.295,100.638,450.614L100.638,450.614z M93.27,444.125c0.659-0.659,0.989-1.43,0.989-2.309
	c0-0.771-0.22-1.649-0.659-2.312c-0.441-0.987-1.1-1.758-1.759-2.417c-0.661-0.771-1.649-1.652-2.861-2.751L87,432.467l-6.379,6.817
	l2.859,2.643c1.21,1.099,2.31,1.978,3.189,2.64c0.88,0.659,1.761,0.987,2.641,1.099c0.771,0.108,1.54,0.108,2.2-0.22
	C92.06,445.226,92.72,444.784,93.27,444.125L93.27,444.125z"/>
<path fill-rule="evenodd" clip-rule="evenodd" fill="#FFFFFF" d="M134.735,474.482c-2.531,4.286-5.941,6.817-10.45,7.588
	s-9.458-0.328-14.738-3.407c-5.279-3.082-8.799-6.82-10.339-11.112c-1.54-4.178-1.1-8.467,1.43-12.756
	c2.42-4.4,5.94-6.929,10.449-7.699c4.4-0.773,9.349,0.439,14.628,3.407c5.279,3.082,8.799,6.82,10.339,11.001
	C137.703,465.79,137.263,470.082,134.735,474.482L134.735,474.482z M119.665,474.81c1.211-0.328,2.421-0.99,3.52-1.869
	c0.99-0.879,1.98-1.98,2.861-3.519c0.88-1.649,1.43-3.19,1.649-4.512c0.22-1.43,0.11-2.748-0.22-3.85
	c-0.331-1.099-0.88-2.197-1.649-3.076c-0.88-0.882-1.98-1.761-2.971-2.312c-1.099-0.659-2.31-1.102-3.409-1.318
	c-1.21-0.331-2.31-0.331-3.52,0c-1.21,0.217-2.31,0.771-3.52,1.758c-1.1,0.879-2.089,2.092-3.081,3.741
	c-0.879,1.538-1.43,3.079-1.648,4.397c-0.22,1.433-0.111,2.751,0.218,3.853c0.331,1.099,0.88,2.197,1.651,3.079
	c0.88,0.879,1.869,1.758,2.969,2.309c1.1,0.659,2.42,1.207,3.63,1.43C117.246,475.141,118.456,475.141,119.665,474.81
	L119.665,474.81z"/>
<path fill-rule="evenodd" clip-rule="evenodd" fill="#FFFFFF" d="M169.6,499.668l-10.998-3.519
	c-0.441-4.731-2.861-9.352-5.94-13.969l-4.73-1.541l-3.519,10.89l-8.909-2.859l9.568-29.587l15.728,5.057
	c2.2,0.662,3.959,1.433,5.391,2.092c1.54,0.771,2.858,1.649,3.959,2.748c1.21,1.102,1.979,2.312,2.42,3.633
	c0.438,1.318,0.438,2.751,0,4.289c-0.771,2.2-1.98,3.85-3.631,4.729c-1.759,0.99-3.848,1.541-6.488,1.761
	C165.53,487.68,167.95,493.071,169.6,499.668L169.6,499.668z M162.781,474.81c0.22-0.771,0.22-1.43,0.11-2.089
	c-0.22-0.659-0.771-1.321-1.54-1.869c-0.551-0.439-1.32-0.771-2.09-1.099c-0.879-0.331-1.869-0.662-2.969-1.102l-3.959-1.21
	l-2.64,7.922l3.519,1.096c1.43,0.554,2.751,0.882,3.851,1.102c0.989,0.22,1.979,0.22,2.75,0c0.769-0.22,1.43-0.548,1.869-0.882
	C162.12,476.24,162.561,475.692,162.781,474.81L162.781,474.81z"/>
<polygon fill-rule="evenodd" clip-rule="evenodd" fill="#FFFFFF" points="209.084,470.741 175.54,467.881 174.989,474.262 
	187.417,475.364 185.329,499.888 193.906,500.659 195.996,476.131 208.535,477.23 209.084,470.741 "/>
<path fill-rule="evenodd" clip-rule="evenodd" fill="#FFFFFF" d="M247.689,467.002l-9.568,0.99l1.649,19.468
	c0.22,2.309-0.22,3.958-1.318,5.057c-0.99,1.102-3.079,1.761-5.499,1.98c-2.531,0.223-4.731-0.108-5.941-0.99
	c-1.21-0.99-1.869-2.528-2.089-4.729l-1.649-19.248l-9.46,0.659l1.649,19.907c0.331,3.853,2.092,6.601,5.06,8.361
	c3.079,1.872,7.371,2.531,12.979,1.98c5.499-0.442,9.68-1.869,12.319-4.181c2.748-2.309,3.85-5.279,3.519-9.129L247.689,467.002
	L247.689,467.002z"/>
<path fill-rule="evenodd" clip-rule="evenodd" fill="#FFFFFF" d="M292.124,468.209l-13.638,4.181l1.649,5.61l5.279-1.649l1.761,5.83
	c-4.069,1.649-10.23,3.299-14.411,1.649c-2.748-1.102-4.506-3.302-5.607-6.601c-0.439-1.649-0.551-3.079-0.328-4.509
	c0.437-2.968,2.197-5.171,4.617-6.82c1.213-0.771,2.968-1.538,4.62-2.089c1.43-0.439,2.859-0.659,4.289-0.771
	c2.971-0.108,6.929,0.331,10.011,0.882l-2.203-7.043c-2.968-0.217-5.607-0.105-7.919,0.223c-2.197,0.331-4.617,0.771-6.926,1.538
	c-6.381,1.983-10.89,4.84-13.638,8.801c-2.64,3.85-3.302,8.139-1.872,12.759c1.43,4.84,4.397,8.142,8.798,9.788
	c4.292,1.649,9.568,1.541,15.838-0.328c2.64-0.771,5.282-1.872,7.811-3.19c2.531-1.321,4.84-2.64,6.381-3.63L292.124,468.209
	L292.124,468.209z"/>
<path fill-rule="evenodd" clip-rule="evenodd" fill="#FFFFFF" d="M338.099,460.513l-8.801,5.171l-5.499-4.181l-12.208,7.148
	l0.768,6.712l-8.575,4.945l-3.302-33.987l9.791-5.607L338.099,460.513L338.099,460.513z M318.848,457.762l-9.565-7.26l1.427,11.988
	L318.848,457.762L318.848,457.762z"/>
<polygon fill-rule="evenodd" clip-rule="evenodd" fill="#FFFFFF" points="358.997,431.917 346.018,444.013 329.079,425.867 
	322.37,432.136 343.487,454.906 363.286,436.537 358.997,431.917 "/>
<path fill-rule="evenodd" clip-rule="evenodd" fill="#008057" d="M74.462,86.889c3.738,0,18.807,0.441,31.235-2.969
	c9.019-2.53,17.708-7.919,15.618-12.979c-1.979-4.509-10.559-4.62-20.678-2.31c-12.757,2.969-25.626,1.98-30.025,0
	c-4.951-2.199-9.019-6.16-11-11.439c-1.98-5.499,0.439-13.307,5.829-19.248c5.391-5.937,13.419-10.777,23.978-14.626
	c10.118-3.74,20.347-5.609,30.907-6.709l6.817,14.628c-5.829-0.11-12.757,0.11-20.127,1.54c-7.479,1.318-15.507,3.85-20.127,8.139
	c-4.289,4.071-2.2,9.68,3.85,9.019c3.409-0.33,7.809-0.769,11.769-1.21c9.898-0.88,20.347-2.42,30.026,0.441
	c19.356,5.719,14.628,24.416,2.859,35.084c-4.509,4.069-9.899,7.26-14.628,9.458c-11.878,5.499-25.737,7.589-38.385,8.58
	L74.462,86.889L74.462,86.889z"/>
<path fill-rule="evenodd" clip-rule="evenodd" fill="#008057" d="M251.65,6.819c-5.391-2.2-11.109-3.959-17.156-5.06
	C228.552,0.549,222.171,0,215.682,0c-8.247,0-16.166,0.989-23.646,2.859c-12.318,3.189-25.627,9.568-32.776,20.678
	c-2.969,4.73-4.399,9.68-4.399,15.067c0,6.16,1.979,11.99,5.938,17.158c8.139,10.67,22.217,16.828,34.976,19.578
	c6.27,1.321,12.869,1.761,19.686,1.761c6.489,0,12.65-0.551,18.589-1.651c5.938-1.099,13.418-3.958,18.369-6.048l-0.111-17.928
	c-10.998,5.719-22.986,9.129-35.417,9.129c-13.526,0-34.644-4.729-34.644-22.217c0-17.377,21.007-22.106,34.644-22.106
	c11.549,0,25.078,2.75,34.758,8.798V6.819L251.65,6.819z"/>
<path fill-rule="evenodd" clip-rule="evenodd" fill="#008057" d="M292.343,88.869l8.581-26.947l19.685,6.27
	c6.489,1.979,16.939,3.519,25.849,0.439c12.65-4.509,16.5-18.368,8.798-29.146c-3.19-4.51-8.03-8.139-12.647-10.449
	c-4.951-2.42-14.628-5.279-23.429-8.249l-27.935-9.239L269.246,81.28L292.343,88.869L292.343,88.869z M335.568,49.714
	c-1.758,5.829-12.976,4.509-17.268,3.189l-13.09-4.069l4.951-16.277l14.848,4.73C330.072,38.936,337.548,43.554,335.568,49.714
	L335.568,49.714z"/>
<path fill-rule="evenodd" clip-rule="evenodd" fill="#F3C242" d="M231.192,229.211c-2.751,2.09-4.948,3.848-7.26,4.509
	c-0.22,0-0.22,0.331-0.108,0.331c1.758,0.769,4.069,0.659,6.489,0.659c2.309-0.11,4.837-0.11,7.037,0.441
	c1.541,0.328,2.64,1.1,3.521,1.979c0.771,0.99,1.318,2.09,1.43,3.079c-2.751-1.43-5.391-2.089-7.699-1.979
	c-0.99,0-1.98,0.221-2.751,0.659c-0.879,0.439-1.538,1.102-1.98,1.871c-0.548,0.88-0.771,1.979-0.771,3.3
	c0.111,0.108,0.223,0.22,0.331,0.108c1.102-0.659,2.2-1.099,3.302-1.32c0.99-0.33,1.978-0.438,2.968-0.33
	c2.309,0.11,4.289,0.99,5.83,2.31c1.538,1.32,2.531,3.079,2.531,4.84c0.108,1.541,0.22,3.189,0.548,4.619
	c0.22,1.21,0.659,2.309,1.21,3.41c-1.538-0.659-2.528-2.089-3.519-3.52c-1.43-1.869-2.859-3.848-5.499-4.289
	c-1.102-0.22-2.309,0-3.41,0.551c-1.102,0.548-1.98,1.54-2.643,2.748c-0.108,0.22,0,0.331,0.223,0.331
	c2.089-0.111,3.958,0.328,5.499,1.208c1.761,0.882,3.188,2.312,4.289,3.959c2.309,3.63,2.531,6.82,2.64,9.571
	c0.111,2.197,0.22,4.068,1.321,5.827c-2.643-0.989-4.181-3.85-5.499-6.489c-0.771-1.54-1.43-2.859-2.312-3.848
	c-0.439-0.441-0.879-0.772-1.43-1.1c-0.879-0.442-1.758-0.661-2.748-0.551c-0.993,0.22-1.872,0.661-2.643,1.431
	c-0.548,0.438-1.096,1.099-1.43,1.868c-0.108,0.111,0,0.331,0.111,0.331c2.2,0,4.289,0.88,5.938,2.531
	c1.541,1.428,2.64,3.627,3.082,6.268c0.217,2.09,0.217,4.509,0.108,6.928c-0.108,4.839-0.22,9.787,2.64,12.866
	c-5.168-0.876-6.27-5.496-7.371-10.005c-0.328-1.324-0.659-2.531-1.099-3.741c-0.551-1.758-1.538-3.189-2.64-4.289
	c-1.318-1.21-2.751-1.871-4.069-2.09c-0.111,0-0.22,0.22-0.111,0.441c2.092,2.199,2.862,4.84,2.862,7.697
	c0,2.861-0.662,6.052-1.538,9.462c-0.665,2.525-0.882,5.057-0.442,7.257c0.331,2.089,1.102,3.85,2.528,5.279
	c0.111,0.111,0.334,0,0.334-0.111c0.217-1.866,0.548-3.41,1.207-4.617c0.659-1.102,1.43-2.092,2.42-2.968c0,0.659,0,1.318,0,2.089
	c0.111,5.496,0.22,11.329,0.771,15.507c0.331,2.64,2.089,6.929,4.181,10.998c2.528,4.951,5.496,9.677,7.148,11.438
	c2.748,2.862,5.719,4.509,8.687,5.171c2.528,0.551,5.06,0.328,7.148-0.551c2.2-0.771,3.961-2.309,5.171-4.178
	c1.21-1.761,1.869-3.961,1.761-6.381c-0.223-3.407-0.771-6.047-2.531-10.119c-1.761-3.958-4.617-9.349-9.129-18.146
	c-2.309-4.397-4.178-9.018-4.948-13.638c-0.773-4.731-0.439-9.46,1.649-14.188c1.433-3.52,3.738-6.27,6.709-8.139
	c2.751-1.651,6.05-2.531,9.788-2.09c0,0,0.111-0.108,0.22-0.108c0.551-1.323,1.43-2.202,2.531-2.862
	c1.21-0.659,2.637-0.989,4.069-1.1c1.978,0,3.961,0.331,5.722,0.992c0.768,0.22,1.538,0.659,2.197,0.989
	c1.318,0.659,2.64,1.321,4.289,1.321c1.869,0.11,3.741-0.88,5.499,0c-1.21,0.11-2.2,0.769-3.188,1.318
	c-1.213,0.661-2.42,1.32-4.292,1.43c-2.089,0.111-3.738-0.438-5.719-1.21c-0.111-0.108-0.22,0-0.331,0.111c0,0.108,0,0.22,0,0.22
	c0,2.969,5.391,3.409,7.591,2.969c1.21-0.33,2.64-0.551,3.41-0.33c-1.102,0-2.092,0.659-3.19,1.21
	c-1.321,0.659-4.069,1.32-6.378,1.32c-1.321,0-2.64-0.331-3.299-1.102c-0.111-0.11-0.442-0.11-0.442,0.111s0,0.441,0.108,0.659
	c0.111,1.211,1.213,1.98,2.312,2.31c1.21,0.331,2.528,0.11,3.519,0c1.541-0.22,2.751-0.33,4.509,0
	c-1.758,0.441-3.188,1.1-4.729,1.759c-3.41,1.54-6.817,2.641-10.559,1.871c-2.42-0.549-4.397-1.98-5.057-4.289
	c-0.442-1.43-0.442-3.081,0-4.619c0-0.111,0-0.221-0.223-0.221c-1.758-0.331-3.519-0.111-5.06,0.549
	c-1.761,0.771-3.299,1.98-4.617,3.41c-2.203,2.53-3.41,5.5-3.85,8.689c-0.442,3.52,0,7.37,1.099,11
	c0.879,3.079,2.309,6.158,4.069,9.237c1.649,3.188,3.63,6.161,5.499,9.24c1.21,1.869,2.309,3.738,3.41,5.607
	c1.099,1.761,2.092,3.521,3.079,5.279c1.21,1.98,1.761,3.85,2.092,5.719c0.328,1.761,0.328,3.521,0.328,5.171
	c-0.111,3.299-0.987,6.378-2.64,9.018c-1.649,2.531-3.961,4.731-7.151,6.601c-0.217,0.111-0.217,0.328,0,0.328
	c0.99,0.442,2.092,0.659,3.19,0.331c0.99-0.22,1.98-0.771,2.971-1.538c-1.099,2.42-3.079,4.069-5.499,5.06
	c-3.082,1.21-6.82,1.318-10.667,0.548c-0.111,0-0.223,0.111-0.223,0.328c0.334,1.649,0.99,3.19,1.983,4.4
	c0.656,0.771,1.538,1.43,2.525,1.872c0.99,0.328,2.203,0.439,3.41,0.217c1.538-0.328,3.41-1.207,5.282-2.745
	c0.879,6.047-3.961,8.687-9.132,11.438c-0.656,0.328-1.207,0.659-1.761,0.879c-1.758,1.099-3.516,2.748-4.506,4.62
	c-0.882,1.761-1.324,3.738-0.771,5.61c0,0.22,0.22,0.22,0.328,0.108c1.102-1.099,2.64-1.761,4.292-2.528
	c2.64-1.213,5.607-2.643,7.588-5.941c0.882,1.433,1.21,2.859,0.987,4.181c-0.217,1.649-1.099,3.19-2.42,4.289
	c-3.516,3.19-6.378,3.961-7.808,4.509c-0.437,0.111-0.771,0.111-0.987,0.22c-0.882,0.439-1.652,0.99-2.534,1.652
	c-0.984,0.768-1.866,1.649-2.637,2.417l-0.108,0.111c-0.442,0.882-0.771,1.761-0.882,2.643c-0.108,0.873,0.111,1.755,0.551,2.525
	c0.108,0.108,0.22,0.108,0.331,0.108c0.659-0.437,1.761-0.548,2.856-0.656c0.882-0.111,1.761-0.223,2.531-0.439
	c-0.548,1.649-1.541,2.856-2.643,3.85c-1.315,0.99-2.856,1.869-4.506,2.64c-0.879,0.437-1.98,1.538-2.751,2.856
	c-0.879,1.43-1.538,3.079-1.978,4.84c-0.551,1.98-0.111,3.85,0.328,5.61c0.331,1.21,0.662,2.42,0.771,3.63
	c0,1.541-0.987,2.748-2.42,3.627c-1.758,1.102-4.289,1.761-6.489,1.872c1.099-2.2,0.662-3.741,0.331-5.282
	c-0.223-0.768-0.439-1.538-0.439-2.417c0-0.108-0.111-0.22-0.22-0.22c-0.993,0-2.092,1.318-3.19,2.637
	c-0.548,0.665-1.102,1.213-1.649,1.761c-1.761,1.649-4.181,1.761-6.381,1.872c-0.879,0-1.758,0-2.528,0.22
	c0-0.108,0-0.22,0.108-0.442c0.551-2.309,0.99-3.958,1.761-5.165c0.328-0.662,0.987-1.213,1.652-1.761
	c0.659-0.551,1.427-1.102,1.866-1.872c0.111,0,0.111-0.108,0-0.22c-0.879-2.089-3.738-1.538-6.706-0.987
	c-1.321,0.217-2.643,0.439-3.742,0.439c-0.11-1.102-0.11-2.089,0.111-2.859c0.109-0.99,0.438-1.649,0.88-1.98
	c1.869-2.089,4.617-1.649,7.479-1.213c1.978,0.223,4.069,0.554,5.938,0c2.089-1.646,3.85-3.407,5.391-5.388
	c1.427-2.089,2.748-4.181,3.738-6.601c0.99-2.856,1.21-5.388,0.771-7.257c-0.331-1.318-0.882-2.312-1.652-2.971v0.111
	c-0.879-0.771-1.978-1.102-3.188-0.99c-1.761,0.111-3.961,0.879-6.381,2.42c0.771-6.27-1.318-8.578-4.4-12.1
	c-0.105-0.108-0.328-0.331-0.439-0.548c-0.879-0.99-2.309-2.531-3.41-4.069c-1.207-1.541-2.197-3.079-2.197-4.069
	c0-0.223,0-0.554,0-0.771c-0.111-4.512-0.111-7.479,1.538-10.559c0.659-1.321,1.43-2.531,2.2-3.741
	c0.771-1.318,1.538-2.528,2.092-3.63c0.879-1.649,1.207-3.079,0.111-3.741c0.768-1.538,0.328-2.748-1.213-3.738
	c-1.538-1.102-4.181-1.869-7.59-2.64c-3.517-0.659-5.938-1.21-8.248-1.866c-2.199-0.662-4.069-1.541-6.048-2.643
	c-1.979-1.21-4.179-2.968-5.94-4.837c-1.649-1.541-2.859-3.19-3.299-4.509c1.979-0.773,3.628-1.761,4.84-3.082
	c0.108-0.111,0-0.328-0.111-0.328c-4.619,0.217-8.909-2.42-12.647-4.623c-2.751-1.538-5.169-2.968-7.04-2.968
	c-1.43,0-2.859,0.22-3.959,0.659c-1.099,0.442-1.979,1.102-2.64,2.092c0,0.108,0.111,0.328,0.221,0.328
	c3.409-0.659,5.279,0.879,7.258,2.64c1.54,1.318,3.189,2.751,5.938,3.521c-2.969,1.538-5.278,1.978-7.368,1.761
	c-2.2-0.331-4.289-1.544-6.929-2.974c-1.98-1.096-4.071-2.197-6.16-2.528c-1.979-0.439-3.959-0.111-5.72,1.433
	c-0.22,0.105-0.11,0.328,0,0.328c1.651,0.548,3.081,1.321,4.181,2.197c0.99,0.882,1.759,1.872,2.2,3.082
	c-2.09-0.662-4.181-1.321-6.16-1.761c-2.09-0.551-4.071-0.879-5.94-0.879c-2.2,0-4.289,0.771-6.489,1.538
	c-0.88,0.334-1.869,0.551-2.75,0.882c-4.84,1.207-6.27,2.309-7.809,3.299c-0.33,0.328-0.769,0.659-1.32,0.99
	c-0.33,0.108-0.879,0.328-1.43,0.439c-0.879,0.331-1.98,0.548-2.969,1.43c-0.11-0.328-0.11-0.771-0.221-1.099
	c-0.11-1.761,0.111-3.519,0.99-4.84c0.771-1.321,2.31-2.42,4.51-2.859c0.439-0.111,0.989-0.111,1.428-0.223
	c0.221,0,0.331-0.217,0.111-0.328c-2.53-2.971-3.959-2.42-6.599-1.43c-0.551,0.22-1.32,0.551-2.09,0.771
	c-0.33,0.111-0.659,0.439-0.879,0.879c-0.221,0.439-0.441,0.879-0.551,1.321c-1.761-3.961-0.22-5.941,2.2-6.932
	c2.64-0.987,6.27-0.987,8.139-0.987c0.11,0,0.22-0.111,0.22-0.331c-0.659-1.21-1.318-1.978-1.979-2.42
	c-0.771-0.439-1.651-0.551-2.861-0.659c-0.22,0-0.439-0.111-0.659-0.111c-0.549-0.22-1.32-0.331-2.09-0.108
	c0.11-1.21,0.441-2.2,0.99-2.859c0.551-0.659,1.32-0.99,2.42-0.99c2.64,0.108,4.84,1.318,7.15,2.64
	c2.528,1.43,5.168,2.859,8.688,2.859c2.751-0.111,5.169-0.662,7.479-1.649c2.31-0.993,4.509-2.2,6.709-3.741
	c0.99-0.659,1.761-1.21,2.64-1.761c3.19-2.309,6.27-4.4,9.129-5.276c0.769,0.771,1.979,1.099,3.52,1.207
	c1.54,0,3.519-0.331,5.829-0.99c0.549-0.217,1.1-0.328,1.651-0.437c2.64-0.659,5.168-1.324,6.489-2.42
	c1.538-1.213,2.748-2.42,3.628-3.85c0.771-1.321,1.32-2.751,1.651-4.512c0-0.111-0.331-0.22-0.441-0.111
	c-2.969,3.302-5.499,3.853-7.809,4.292c-1.21,0.22-2.42,0.548-3.63,1.207c-2.42,1.652-4.619,2.862-6.378,3.521
	c-1.651,0.659-2.971,0.879-3.959,0.659c0.439-2.42,1.32-4.729,2.638-6.489c1.321-1.978,3.081-3.407,5.06-4.286
	c2.31-1.103,4.841-1.981,7.15-2.752c5.169-1.759,9.568-3.189,10.229-6.268c0-0.11-0.111-0.331-0.22-0.221
	c-4.291,1.321-6.82,1.321-9.46,1.321c-1.21,0-2.53,0-3.959,0.218c0.221-1.207,1.102-2.199,2.64-3.189
	c1.54-0.989,3.85-1.759,6.27-2.638c0.879-0.331,1.871-0.552,2.859-0.88c2.971-0.88,6.489-1.869,8.25-3.74
	c0.769-0.661,1.099-1.541,1.208-2.31c0.11-0.439,0.11-0.88,0-1.32c-0.11-0.33-0.33-0.768-0.661-0.989
	c-0.328-0.333-0.659-0.552-1.208-0.552c-0.879-0.108-2.31,0.22-3.85,0.992c-1.43,0.769-3.079,1.869-4.729,3.189
	c-2.31-1.32-4.069-2.75-5.169-4.289c-0.88-1.43-1.211-2.861-0.661-4.179c6.268,0.88,10.229,0.99,12.647,0.33
	c2.641-0.769,3.63-2.2,3.961-4.51c0.22-1.428-0.331-2.75-1.43-4.069c-0.771-0.769-1.649-1.428-2.75-1.979
	c-0.99-0.551-2.31-0.99-3.63-1.21c-3.74-0.659-8.36,0.33-12.429,3.958c-1.099-0.438-1.759-1.099-2.2-1.759
	c-0.33-0.549-0.439-1.208-0.439-1.869c0.11-0.659,0.331-1.321,0.771-1.759c0.549-0.769,1.32-1.32,2.309-1.54
	c0.221-0.11,0.221-0.441,0-0.441c-0.439-0.11-0.769-0.11-1.099-0.11c-1.32-0.218-2.2-0.33-2.751-0.661
	c-0.328-0.22-0.328-0.548,0-1.1l0.99-1.869c4.62-1.208,7.699-1.759,10.119-1.649c2.31,0.221,3.85,1.1,5.279,2.861
	c0.11,0.108,0.22,0.108,0.331,0.108c1.21-0.989,2.858-1.54,4.399-1.978c2.089-0.771,3.958-1.323,4.729-2.751
	c0.11-0.111,0-0.331-0.11-0.331c-2.53,0.331-4.73,0.441-6.709,0.551c-1.98,0-3.519-0.11-4.838-0.331
	c-1.211-0.22-2.09-0.88-2.531-1.54c-0.218-0.438-0.33-0.769-0.33-1.21c0-0.33,0.221-0.769,0.439-1.099
	c0.441-0.659,1.321-1.21,2.531-1.32c1.099-0.22,2.42-0.11,3.958,0c1.541,0.218,3.302,0.549,5.169,0.879c0.11,0,0.221,0,0.221,0
	c5.607-4.069,9.237-3.079,13.526-1.869c3.193,0.88,6.932,1.869,12.1,1.208C231.412,228.99,231.303,229.102,231.192,229.211
	L231.192,229.211z"/>
<path fill-rule="evenodd" clip-rule="evenodd" fill="#F3C242" d="M128.354,251.758c0.771,0.11,1.21,0.441,1.651,0.769
	c0.22,0.221,0.439,0.331,0.549,0.442c0.99,0.328,1.98,0.877,2.751,1.649c0.659,0.659,1.208,1.54,1.649,2.528
	c0,0.22-0.111,0.33-0.22,0.33c-1.102,0.111-1.98-0.438-2.971-1.099c-1.43-0.88-2.971-1.871-5.719-0.88
	c3.299,7.04,5.719,7.478,11.657,8.468c1.321,0.333,2.969,0.551,4.84,0.99c2.2,0.439,3.961,1.211,5.279,2.31
	c0.88,0.659,1.54,1.428,1.871,2.309c0.33,0.88,0.439,1.871,0.22,2.861c-0.22,1.099-0.771,2.09-1.649,3.3
	c1.759,0,3.85-0.552,5.719-1.1c2.64-0.659,4.95-1.21,6.379-0.551c0.11,0.11,0.11,0.33,0,0.441c-1.43,0.439-2.2,1.1-3.299,2.09
	c-1.431,1.32-3.41,3.079-8.029,5.389c1.648,0.77,3.189,0.986,4.838,0.881c1.759-0.111,3.52-0.771,5.389-1.761
	c0.22-0.11,0.551-0.331,0.99-0.551c2.09-1.32,5.83-3.74,8.47-1.758c0.11,0.108,0,0.438-0.221,0.438
	c-2.859-0.11-4.289,1.649-5.938,3.737c-1.21,1.652-2.641,3.41-5.06,4.84c4.84,0.665,8.468-0.105,11.219-1.758
	c2.858-1.758,4.948-4.398,6.819-7.257c1.649-2.641,3.189-3.961,4.397-5.061c0.551-0.439,0.99-0.88,1.321-1.21
	c-1.761-0.439-3.85-0.439-5.83-0.549c-1.98,0-3.85-0.111-5.609-0.331c-2.089-0.439-4.069-0.877-5.829-1.538
	c-1.871-0.662-3.52-1.541-5.06-2.531c-2.969-1.979-5.06-3.958-6.599-5.829c-1.651-1.871-2.64-3.74-3.299-5.389
	c-0.331-0.662-0.551-1.32-0.771-1.871c-1.541-3.85-3.081-7.589-8.689-6.929c0.88,1.43,1.54,2.751,2.09,3.959
	c0.659,1.431,0.99,2.64,1.099,3.85c0,0.221-0.33,0.328-0.439,0.11c-1.43-2.75-3.41-5.058-5.389-6.16
	c-0.989-0.549-1.979-0.879-2.861-0.989c-0.989,0-1.978,0.11-2.858,0.659C130.225,249.56,129.234,250.33,128.354,251.758
	L128.354,251.758z"/>
<path fill-rule="evenodd" clip-rule="evenodd" fill="#F3C242" d="M149.142,367.244c0.441,0,0.99-0.111,1.54-0.111
	c0.441,0,0.771-0.105,1.1-0.105c2.31-0.442,3.959-0.554,5.06-0.111c1.1,0.328,1.761,1.207,1.871,2.531
	c0,0.105-0.11,0.328-0.221,0.328c-0.879,0-1.759-0.111-2.64-0.111c-2.089-0.111-4.069-0.111-5.388,0.551
	c-1.321,0.551-2.2,1.43-2.971,2.309c-0.771,1.102-1.21,2.312-1.32,3.302c-0.11,0.439,0,0.987,0.221,1.649
	c0.11,0.659,0.328,1.318,0.548,1.869c1.431-2.089,3.081-3.407,4.84-4.289c1.98-0.879,4.069-0.99,6.27-0.442
	c0.22,0,0.22,0.223,0,0.334c-1.32,0.768-3.299,2.197-4.729,4.069c-0.99,1.318-1.871,2.748-2.09,4.178c1.759-0.331,3.409,0,4.95,0.22
	c1.869,0.331,3.52,0.659,4.619-0.328c0.33-0.331,0.88-0.99,1.431-1.761c0.879-1.102,2.089-2.531,3.189-3.633
	c0.549-0.437,1.099-0.879,1.54-1.096c0.551-0.223,1.1-0.331,1.54-0.442c4.84-0.217,8.689-0.217,11.438,0.22
	c2.531,0.439,4.4,1.102,5.392,1.983c0-0.882-0.331-1.761-0.992-2.531c-0.879-0.99-2.31-1.98-4.289-2.862
	c-0.111-0.108-0.111-0.328,0-0.439c3.74-1.98,7.699-0.768,11.659,0.551c4.62,1.538,9.129,2.968,13.418-0.771
	c-1.649-0.108-2.969-0.99-4.289-2.089c-1.869-1.43-3.959-3.082-7.479-2.64c-0.11,0-0.22-0.22-0.22-0.331
	c0.659-1.21,1.649-2.089,2.859-2.748c1.431-0.771,3.081-1.102,4.509-1.102c1.98,0,3.741,0.551,5.391,1.102
	c2.089,0.659,3.958,1.21,6.157,0.987c-2.309-3.738-2.638-7.477-1.758-11.218c0.88-3.627,2.969-7.26,5.388-10.887
	c-1.647-0.554-3.521-0.331-5.496,0.659c-1.98,0.99-4.291,2.751-6.71,5.171c-0.11,0.217-0.331,0-0.331-0.223
	c0.88-2.859,2.092-5.168,3.631-6.82c1.208-1.538,2.638-2.528,4.399-3.299c-2.202-0.111-4.62,0-7.15,0.662
	c-2.968,0.659-6.048,1.978-9.239,3.961c-0.22,0-0.33-0.111-0.33-0.223c0.22-1.869,1.21-3.299,2.64-4.4
	c1.43-0.987,3.19-1.866,4.84-2.637c1.208-0.442,2.089-1.102,2.858-1.761c0.661-0.442,1.211-0.771,1.761-1.102
	c-1.54-0.111-3.41,0.22-5.498,0.548c-1.541,0.223-3.19,0.554-5.061,0.662c-0.989,0.111-1.98,0.111-2.969,0.22
	c-1.649,0-3.41,0.108-5.06,0.331c-2.53,0.548-4.729,1.761-6.27,3.521c-1.32,1.538-1.979,3.627-1.761,6.267
	c0.221,2.531,1.431,4.397,2.531,6.27c1.43,2.197,2.861,4.4,2.64,7.919c-0.22,3.299-2.09,5.279-4.62,6.378
	c-2.42,1.102-5.499,1.321-8.139,1.321c-1.54,0-3.079-0.108-4.399-0.22c-1.32-0.22-2.53-0.551-3.41-0.879
	c-0.989-0.439-1.869-0.882-2.75-1.43c-1.43-0.771-2.859-1.652-4.838-1.872c-1.761-0.108-3.63,0.22-5.061,1.213
	C150.681,364.496,149.692,365.706,149.142,367.244L149.142,367.244z"/>
<path fill-rule="evenodd" clip-rule="evenodd" fill="#F3C242" d="M166.85,250.55c0.549,1.649,1.649,2.969,3.189,3.848
	c1.871,1.211,4.289,1.869,6.599,1.869c2.31-0.108,4.84-1.099,7.699-2.309c4.069-1.759,8.58-3.74,14.188-3.519
	c-6.489-1.54-11.769-0.11-16.167,1.099c-2.2,0.661-4.179,1.21-5.94,1.21c-2.418,0.11-4.399-0.11-5.938-0.549
	C168.939,251.758,167.839,251.21,166.85,250.55L166.85,250.55z"/>
<path fill-rule="evenodd" clip-rule="evenodd" fill="#008057" d="M225.142,346.126c0.108-0.108,0.331,0,0.331,0.22
	c-0.442,1.541-0.771,3.079-0.99,4.729c-0.223,1.541-0.223,3.19-0.223,4.84c0.111,3.19,1.102,5.282,2.092,7.371
	c1.21,2.528,2.309,4.948,1.541,9.018c0,0.111-0.331,0.22-0.442,0c-1.207-2.968-2.528-4.948-3.627-6.709
	c-1.43-2.309-2.643-4.069-3.079-7.037c-0.223-1.541,0.108-4.072,0.987-6.601C222.505,349.756,223.712,347.665,225.142,346.126
	L225.142,346.126z"/>
<path fill-rule="evenodd" clip-rule="evenodd" fill="#008057" d="M204.686,325.888c1.1,1.321,2.859,2.312,4.62,2.971
	c1.976,0.771,4.29,1.099,6.376,0.99c4.84-0.22,7.26-2.089,9.568-3.85c0.442-0.328,0.882-0.659,1.324-0.882
	c0.105-0.111,0-0.437-0.223-0.437c-3.847,0.99-7.591,1.538-11.329,1.649c-3.63,0.111-6.929-0.111-10.119-0.771
	C204.686,325.56,204.466,325.783,204.686,325.888L204.686,325.888z"/>
<path fill-rule="evenodd" clip-rule="evenodd" fill="#008057" d="M195.337,320.169c1.32,1.213,3.079,2.092,5.058,2.751
	c1.98,0.659,4.071,0.99,6.27,0.99c2.42-0.111,4.838-0.771,6.931-1.761c2.087-1.102,3.848-2.64,4.838-4.289
	c0.108-0.22-0.108-0.439-0.331-0.328c-1.649,1.096-3.849,1.978-6.05,2.528c-2.309,0.659-4.617,1.099-6.927,1.21
	c-1.649,0.111-3.3,0-4.948-0.223c-1.541-0.217-3.081-0.659-4.51-1.318C195.445,319.73,195.227,319.953,195.337,320.169
	L195.337,320.169z"/>
<path fill-rule="evenodd" clip-rule="evenodd" fill="#008057" d="M186.208,306.971c1.54,0,2.969,1.099,4.509,2.312
	c2.75,1.978,5.83,4.397,11.108,2.528c0.111-0.108,0.111-0.331,0-0.439c-1.538-0.551-2.968-1.541-4.397-2.42
	c-3.19-2.2-6.489-4.509-11.329-2.42C185.987,306.643,185.987,306.971,186.208,306.971L186.208,306.971z"/>
<path fill-rule="evenodd" clip-rule="evenodd" fill="#008057" d="M202.485,305.65c2.751-2.309,5.279-2.637,7.589-2.968
	c1.759-0.22,3.3-0.328,4.948-1.207c3.302-1.761,5.499-3.964,6.381-6.823c0.768-2.748,0.22-6.267-2.2-10.447
	c-0.111-0.22-0.442,0-0.442,0.22c0.659,2.089,0.551,4.181-0.108,6.05c-0.771,1.98-2.2,3.847-4.069,5.06
	c-1.43,0.99-2.969,1.761-4.509,2.64c-3.63,1.98-7.148,3.738-8.029,7.26C202.046,305.65,202.266,305.761,202.485,305.65
	L202.485,305.65z"/>
<path fill-rule="evenodd" clip-rule="evenodd" fill="#008057" d="M186.428,302.023c2.859-1.43,5.279-1.649,7.699-1.98
	c2.2-0.217,4.509-0.551,7.148-1.649c2.641-1.21,5.06-3.19,6.27-5.938c0.99-2.309,1.1-5.171-0.22-8.581c0-0.111-0.331-0.111-0.331,0
	c-2.528,6.05-5.937,7.591-10.447,9.46c-1.21,0.439-2.42,0.987-3.74,1.652c-2.09,0.987-4.181,2.309-5.5,3.627
	c-1.099,1.102-1.649,2.197-1.208,3.299C186.098,302.023,186.318,302.134,186.428,302.023L186.428,302.023z"/>
</svg>
