<svg height="316.227766" viewBox="0 0 599.99999 599.99999" width="316.227766" xmlns="http://www.w3.org/2000/svg"><g transform="matrix(1.3333333 0 0 -1.3333333 .000931 279.68533)"><path d="m449.99931-15.237079c0-124.263321-100.73535-224.998931-225-224.998931-124.26251 0-225.0000085 100.73561-225.0000085 224.998931 0 124.263329 100.7374985 225.001079 225.0000085 225.001079 124.26465 0 225-100.73775 225-225.001079" fill="#38284f"/><path d="m443.91869-15.236005c0-120.905835-98.01308-218.919375-218.91831-218.919375-120.90524 0-218.9204581 98.01354-218.9204581 218.919375s98.0152181 218.919375 218.9204581 218.919375c120.90523 0 218.91831-98.01354 218.91831-218.919375" fill="#fff"/><path d="m437.83656-15.236005c0-117.546175-95.2906-212.837255-212.83618-212.837255-117.54774 0-212.838329 95.29108-212.838329 212.837255 0 117.546185 95.290589 212.837255 212.838329 212.837255 117.54558 0 212.83618-95.29107 212.83618-212.837255" fill="#38284f"/><path d="m361.87431-15.234928c0-75.593023-61.28043-136.876082-136.87285-136.876082-75.59458 0-136.877159 61.283059-136.877159 136.876082s61.282579 136.873928 136.877159 136.873928c75.59242 0 136.87285-61.280905 136.87285-136.873928" fill="#fff"/><path d="m107.01407 27.982294v-86.447325l13.71992-29.459525 28.71992-29.459524v204.283275l-28.71992-29.45845z" fill="#695188"/><path d="m171.38262-130.80348 42.43984-11.57829v254.27994l-42.43984-11.57614z" fill="#695188"/><path d="m235.75117-142.4148 42.43984 11.41309v231.52025l-42.43984 11.4131z" fill="#695188"/><path d="m342.55785-59.759732v89.036726l-13.71992 28.983263-28.71992 28.983262v-204.971919l28.71992 28.984334z" fill="#695188"/><path d="m300.00195 125.67578c-96.27962 0-174.32617 78.04744-174.32617 174.32422s78.04655 174.32422 174.32617 174.32422c96.27392 0 174.32227-78.04744 174.32227-174.32422s-78.04835-174.32422-174.32227-174.32422zm0 8.10742c91.79472 0 166.21485 74.41729 166.21485 166.21485s-74.42013 166.21875-166.21485 166.21875c-91.80041 0-166.21875-74.42119-166.21875-166.21875s74.41834-166.21485 166.21875-166.21485z" fill="#38284f" transform="matrix(.75000002 0 0 -.75000002 -.0007 209.764)"/><g fill="#fff"><path d="m34.80606-5.9384067h-4.680975v4.9621233h10.543993v-29.8842966h-5.863018z"/><path d="m63.677292-11.07001c0 3.099986-2.029423 5.4126401-5.412511 5.4126401-3.385233 0-5.414657-2.3126541-5.414657-5.4126401 0-3.099987 2.087346-5.526343 5.470434-5.526343 3.608341 0 5.356734 2.312655 5.356734 5.526343m-4.511499-9.752621c-.508428-.227404-1.351519-.338961-1.862092-.338961-5.807241 0-10.483925 4.058944-10.483925 10.091582 0 6.5968563 5.187258 10.54424364 11.445005 10.54424364 6.199824 0 11.387083-3.83583074 11.387083-10.43054164 0-3.102132-1.463073-5.97686-4.11677-9.81269l-6.991428-10.091582h-6.425078z"/><path d="m374.93595-23.030594 4.95128 2.531477c1.2936-2.868292 3.54613-4.83984 6.97856-4.83984 3.54398 0 5.79651 1.971548 5.79651 5.685096 0 3.713547-2.92829 5.457692-6.3028 5.457692-2.13883 0-3.54612-.338961-4.61447-.675776l-.4505.845256 7.31536 9.0039045h-11.30985v4.95354206h20.93138v-.28318213l-7.98898-9.96071743c4.50077-.450517 8.43948-3.940951 8.43948-9.454421 0-5.908209-3.88079-10.636493-11.81613-10.636493-6.47228 0-10.46676 3.99673-11.92984 7.373462"/><path d="m416.19032-5.0227845h-14.29393v4.95354206h22.62186v-.28318213l-13.95712-29.54533643h-6.1891z"/><path d="m108.07833 128.11379-8.212082-7.85186 19.255922-20.14241-5.0092-4.786203-19.255923 20.142403-8.209941-7.85187-4.331296 4.53092 21.43123 20.48779z"/><path d="m140.36634 123.21861c2.6494 1.61971 4.30984 3.88731 4.97273 6.80066.71008 2.94123.21667 5.80094-1.45664 8.53622-1.67331 2.73743-3.99234 4.48372-6.9571 5.23673-2.92615.77875-5.69784.33681-8.34939-1.2829-2.64726-1.61972-4.3077-3.88518-4.98989-6.86932-.63929-2.95625-.14588-5.8181 1.52957-8.55553 1.67117-2.73743 3.9902-4.48157 6.88846-5.21742 2.93902-.7101 5.71285-.26816 8.36226 1.35156m11.57801 5.46627c-1.17346-4.71756-3.8765-8.39893-8.17777-11.02694-4.30126-2.62802-8.81061-3.35743-13.58812-2.27833-4.76035 1.14989-8.44163 3.85299-11.01595 8.0664-2.60436 4.25846-3.33161 8.76792-2.1796 13.52838 1.19063 4.78621 3.89366 8.46758 8.19493 11.09559 4.30126 2.63016 8.81061 3.35528 13.57096 2.20754 4.80111-1.12201 8.48239-3.82511 11.08675-8.08357 2.57432-4.2134 3.30157-8.72286 2.1088-13.50907"/><path d="m180.60277 170.82109 5.81153-17.92628c1.47594-4.55452 1.41159-8.6435-.24456-12.28625-1.65829-3.64275-4.54368-6.13132-8.75699-7.49789-4.31413-1.39875-8.20779-1.10913-11.73461.85384-3.52897 1.96082-6.03035 5.21742-7.50629 9.77193l-5.81368 17.92414 6.58812 2.13888 5.81153-17.92628c1.76126-5.42552 5.9617-7.97416 10.61264-6.466 4.40638 1.42879 6.21484 5.92538 4.45572 11.35089l-5.81153 17.92629z"/><path d="m221.35857 148.21243.66074-6.23-24.40886-2.58726-3.59976 33.93037 6.88846.72941 2.93687-27.70251z"/><path d="m243.18624 146.32584c3.08919-.33038 5.78579.4591 8.08981 2.36414 2.35336 1.90075 3.70273 4.47085 4.04383 7.66094.33895 3.19008-.43763 5.98758-2.33191 8.39248-1.84278 2.40062-4.31198 3.7393-7.40332 4.06753-3.08489.33038-5.78149-.45695-8.14343-2.40705-2.30831-1.95653-3.65983-4.52662-3.99878-7.71671-.3411-3.19224.43763-5.98973 2.28471-8.33886 1.90071-2.35341 4.37205-3.69209 7.45909-4.02247m12.51335-2.71812c-3.80356-3.0249-8.19063-4.29922-13.20412-3.76289-5.01349.53418-9.03158 2.70525-12.16582 6.47243-3.07631 3.81008-4.3506 8.19726-3.82501 13.11004.52988 4.96213 2.70089 8.98245 6.51089 12.05884 3.86363 3.06995 8.24855 4.34213 13.26205 3.80794 5.01349-.53633 9.03372-2.70524 12.11003-6.51748 3.12781-3.81437 4.40209-8.20155 3.87221-13.16582-.52559-4.91278-2.6966-8.93096-6.56023-12.00306"/><path d="m304.07496 159.53929-6.31352-17.75037c-1.60252-4.50946-4.14681-7.71243-7.67792-9.59172-3.53326-1.87716-7.33896-2.09169-11.51151-.60713-4.27123 1.51889-7.18021 4.12116-8.78272 7.82612-1.60037 3.70283-1.60037 7.80897.004 12.31843l6.31352 17.75037 6.52376-2.31909-6.31138-17.75037c-1.91143-5.37403-.13515-9.94999 4.47074-11.58902 4.36562-1.55106 8.53602.90962 10.44746 6.2815l6.31352 17.75251z"/><path d="m333.51383 140.49121c1.13485-2.80393 1.16917-5.64219.14159-8.54266l-6.63103 2.44567c1.30433 2.96697.0279 6.21928-2.91113 8.04709-2.8103 1.74843-5.68067 1.373-6.94637-.65861-.99541-1.60041-.63715-3.1429 1.06834-4.74116l5.44898-5.12731c4.15324-4.02248 5.21729-8.58342 2.44775-13.03711-1.75054-2.81037-4.15967-4.37001-7.30035-4.6961-3.14067-.32609-6.42078.57494-9.87895 2.7267-3.1986 1.98871-5.46615 4.41721-6.84341 7.31554-1.30861 2.90905-1.28502 5.83741.088 8.81941l6.96139-2.5937c-1.22709-3.61271-.0322-6.51318 3.55686-8.74646 3.28655-2.04235 6.11401-1.64332 7.43335.47626 1.07478 1.72913.72939 3.20296-1.41159 5.25389l-5.41465 4.98786c-4.38708 4.22628-5.2173 8.58128-2.44775 13.03496 1.64113 2.63875 3.95372 4.13832 6.93779 4.50088 3.00981.40761 6.20197-.43764 9.57648-2.53791 2.94116-1.82781 4.98989-4.1233 6.12474-6.92724"/><path d="m348.55795 93.354904-4.31842-4.53735-18.77754 17.866216 23.51858 24.71837 18.70459-17.79757-4.31842-4.53735-13.68681 13.02423-5.29882-5.57139 12.61847-12.00521-4.24763-4.46226-12.62061 12.00306-5.33314-5.60572z"/><path d="m83.927336-98.484474-6.111869-3.925936 7.785178-12.11462-4.582293-2.94337-7.785178 12.11032-9.690176-6.22571-3.258662 5.06724 24.96663 16.046989 11.977032-18.629949-4.584438-2.94767z"/><path d="m90.591396-138.78687c1.844931-1.97369 4.067428-2.98628 6.667493-3.03777 2.630099-.088 4.981311.83882 7.017171 2.74386 2.03586 1.90934 3.11493 4.19196 3.23292 6.85215.15017 2.62587-.71437 4.91064-2.5636 6.88219-1.84493 1.97369-4.06742 2.98413-6.727556 3.04206-2.632244.0215-4.983458-.90104-7.019317-2.81037-2.035859-1.90719-3.114929-4.18981-3.230774-6.78564-.08796-2.63017.778733-4.91279 2.623663-6.88648m6.695382-8.89878c-4.226178.16948-7.836664 1.82352-10.833604 5.02219-2.996939 3.20511-4.408526 6.91651-4.331296 11.17497.139442 4.25631 1.795589 7.86903 4.931971 10.80382 3.166416 2.96698 6.879875 4.3786 11.136087 4.2413 4.286244-.17377 7.898874-1.82781 10.895814-5.03077 2.99694-3.19867 4.41067-6.91008 4.26909-11.16854-.10941-4.29063-1.76341-7.89906-4.93198-10.86604-3.13638-2.93694-6.84984-4.3507-11.136082-4.17693"/><path d="m119.7767-164.09477c2.21391-1.54892 4.59945-2.07882 7.15017-1.59397 2.58934.45695 4.696 1.84497 6.29637 4.13403 1.59822 2.28476 2.17959 4.74115 1.74624 7.36488-.39687 2.60227-1.71407 4.65749-3.92798 6.20641-2.21177 1.54463-4.59731 2.07881-7.21025 1.58539-2.58076-.52132-4.68526-1.91363-6.28349-4.19625-1.59822-2.28476-2.18174-4.7433-1.75912-7.30695.45694-2.5894 1.77628-4.64677 3.98806-6.19354m8.38585-7.32198c-4.16611-.70581-8.04047.16519-11.63379 2.67951-3.59118 2.51002-5.73859 5.84814-6.54307 10.03151-.74226 4.1941.13086 8.0664 2.59149 11.58687 2.48636 3.55479 5.8244 5.7044 10.01625 6.44668 4.23047.71654 8.10483-.1566 11.69815-2.66663 3.58903-2.51217 5.73859-5.85457 6.48085-10.04653.77874-4.2177-.0944-8.09-2.58075-11.64694-2.46063-3.52046-5.79866-5.67007-10.02913-6.38447"/><path d="m167.92166-168.39592-8.95864 4.15119-10.18144-21.9745-5.464 2.53362 10.18359 21.97236-8.9565 4.15119 2.289 4.94282 23.37699-10.83601z"/><path d="m177.11864-170.75491-1.91144-7.00447 7.25959-1.98013c2.34907-.64145 4.23905.40117 4.84616 2.62158.52345 1.92435-.62856 3.75216-2.55072 4.27562zm-5.10574-18.70504 7.6865-2.09812c2.56145-.69723 4.3034.2939 4.8955 2.47355.59638 2.1775-.52559 3.94953-2.74595 4.55666l-7.90102 2.15604zm15.1885 6.22571c2.51211-1.05549 4.21545-4.22628 3.17929-8.02778-1.3172-4.82482-5.24304-7.10315-11.39352-5.42551l-14.13303 3.85943 7.80878 28.61212 14.09226-3.84656c5.12505-1.39875 7.59211-5.47056 6.28778-10.25033-.45479-1.66692-1.24425-2.87259-2.43273-3.69639-1.18848-.82166-2.289-1.16276-3.36164-1.0555z"/><path d="m214.91011-190.50708-3.35734 10.91967-5.24733-10.16881zm10.2694-12.72389-6.483.56422-2.01012 6.53464-13.06039 1.13916-3.15354-6.08198-6.48515.56637 15.37514 28.44693 5.60344-.49128z"/><path d="m252.70587-195.5769.44836-5.42766-21.26604-1.75916-2.44346 29.5625 6.00031.49771 1.9951-24.13484z"/><path d="m280.47701-189.36727 1.27214-5.2968-20.74474-4.98143-6.92707 28.83738 5.85444 1.40733 5.65492-23.54488z"/><path d="m314.82447-166.85408 5.7579 1.56608c1.0426-3.63846.86025-7.00446-.61355-10.083-1.4738-3.07209-3.79927-5.44053-7.07938-7.09671-3.91512-1.97799-7.87314-2.2912-11.89981-1.00187-4.02452 1.28934-7.02789 3.89376-9.00369 7.80896-1.95648 3.87016-2.26969 7.83042-.92032 11.83573 1.33007 4.04607 3.93443 7.04737 7.8474 9.02536 3.2415 1.63902 6.50445 2.14532 9.85536 1.50601 3.32945-.60069 6.09041-2.33196 8.33651-5.11444l-4.47503-4.0997c-3.16642 3.91091-7.32824 4.58454-11.16183 2.64947-2.41128-1.22069-4.00951-3.06781-4.76893-5.58642-.78302-2.47784-.55348-4.9943.7015-7.48287 1.25927-2.48857 3.14711-4.16406 5.62704-5.04579 2.51854-.86242 4.95342-.67363 7.32394.52346 3.91297 1.97798 5.76219 5.68938 4.47289 10.59573"/><path d="m346.63043-153.07706 3.27368-4.3507-17.04845-12.8333-17.83361 23.69934 4.80969 3.6213 14.56208-19.34864z"/><path d="m351.9434-113.23783 11.8998-11.26078c3.02268-2.86401 4.67883-6.01333 4.92983-9.48232.25099-3.46898-.91603-6.57325-3.56329-9.37075-2.70948-2.86186-5.80295-4.26275-9.31261-4.23486-3.50966.03-6.77476 1.47383-9.79959 4.33355l-11.89765 11.26292 4.13607 4.37431 11.90195-11.26293c3.60191-3.40677 7.8667-3.60414 10.78855-.51488 2.77169 2.92622 2.28042 7.10959-1.32363 10.52065l-11.89765 11.26078z"/><path d="m378.57905-117.86357 4.35489 6.67623c1.45235 2.2247 1.03831 4.18552-.85167 5.42122-1.89213 1.23571-3.92584.7101-5.18511-1.22068l-4.47289-6.86288zm-16.24612 10.59358 6.08398-3.96669 4.11248 6.30724c1.33007 2.03805.91388 4.15977-1.01471 5.419075-1.66687 1.089822-3.76495.551347-4.8526-1.117715zm14.97397 5.77949c1.77199 2.068093 5.31812 2.718124 8.61969.56637 4.18971-2.73314 5.15508-7.16966 1.67331-12.5115l-8.00614-12.27766-24.85508 16.20788 7.98255 12.239048c2.90469 4.451538 7.53632 5.554232 11.68956 2.846839 1.44806-.94394 2.35551-2.063797 2.77598-3.449673.42047-1.381586.40545-2.535764-.0258-3.524764z"/></g><g transform="translate(-375.00481)"><path d="m600.00534 103.33772c-42.457 0-97.00473-6.015477-97.00473-6.015477v-172.683179c-.17377-47.510244 75.16804-24.216363 97.00473-64.546224 21.83454 40.329861 97.01331 17.03598 97.00258 64.546224v172.683179s-50.10488 6.015477-97.00258 6.015477" fill="#dab072"/><path d="m690.57252 22.227489h-181.13571v69.29381c15.06622 1.510305 56.9204 5.380461 90.56893 5.380461 36.86214 0 76.19348-3.803651 90.56678-5.337554z" fill="#695188"/><path d="m690.57204-75.363082c.004-19.477353-14.52561-23.830205-40.20447-29.843538-16.42632-3.8487-34.56027-8.12432-47.14227-20.08233l.0172 29.817792c-2.11309-.418338-4.30127-.463389-6.43581-.107266l-.0172-29.719106c-12.59058 11.96444-30.74813 16.24007-47.19375 20.08877-25.69388 6.011182-40.23021 10.361889-40.15942 29.847824v91.152468h87.4304l-.0408-76.002224c2.13454.353978 4.32057.341106 6.4358-.07723l.0408 76.079455 87.26951-.000035z" fill="#de003c"/><path d="m580.67536-51.071632c0 .512731.35182.928923.78731.926778.43549 0 .78517-.411902.78517-.926778v-2.091686h-1.57248zm-.66074-2.091686h-1.57463v2.091686c0 .512731.35182.928923.78731.926778.43549 0 .78732-.411902.78732-.926778zm-1.91144 20.640116c0 1.034044.88385 2.267602 1.98223 2.265457 1.09623 0 1.94147-1.27432 1.94147-2.310509l.0408-3.769326h-3.96446zm-.32608-20.640116h-1.57033v2.091686c0 .512731.34967.928923.78516.926778.43549 0 .78517-.411902.78517-.926778zm-2.23322 0h-1.57248v2.091686c0 .512731.34967.928923.78516.926778.43549 0 .78732-.411902.78732-.926778zm-6.04966 16.825738v3.814378c0 1.034044.88385 2.267602 1.98223 2.265457 1.09838 0 1.93932-1.27432 1.93932-2.310509l.0429-3.769326zm3.81429-16.825738h-1.57248v2.091686c0 .512731.34968.928923.78517.926778.43548 0 .78731-.411902.78731-.926778zm-2.23537 0h-1.57248v2.091686c0 .512731.34968.928923.78517.926778.43549 0 .78731-.411902.78731-.926778zm-2.23537 0h-1.57248v2.091686c0 .512731.34968.928923.78517.926778.43549 0 .78731-.411902.78731-.926778zm-2.23537 0h-1.57248v2.091686c0 .512731.34968.928923.78517.926778.43549 0 .78731-.411902.78731-.926778zm-2.23537 0h-1.57248v2.091686c0 .512731.34968.928923.78517.926778.43549 0 .78731-.411902.78731-.926778zm-2.23537 0h-1.57248v2.091686c0 .512731.34968.928923.78517.926778.43549 0 .78731-.411902.78731-.926778zm-2.23537 0h-1.57248v2.091686c0 .512731.35182.928923.78731.926778.43549 0 .78517-.411902.78517-.926778zm-2.23537 0h-1.57248v2.091686c0 .512731.35183.928923.78732.926778.43548 0 .78516-.411902.78516-.926778zm1.70764 14.223466h-2.76096v9.051102h2.76096zm-3.56973 22.165438c0 1.036189.88385 2.269748 1.98223 2.267602 1.09838 0 1.93932-1.274319 1.93932-2.310508l.0429-3.769326h-3.96446zm-.37328-36.388904h-1.57248v2.091686c0 .512731.35183.928923.78732.926778.43549 0 .78516-.411902.78516-.926778zm-2.23537 0h-1.57248v2.091686c0 .512731.35183.928923.78732.926778.43549 0 .78516-.411902.78516-.926778zm-6.0282 32.576672v3.812232c0 1.036189.88385 2.269748 1.98437 2.267602 1.09624 0 1.93933-1.274319 1.93933-2.310508l.0429-3.769326zm3.79284-32.576672h-1.57249v2.091686c0 .512731.35183.928923.78732.926778.43549 0 .78517-.411902.78517-.926778zm-3.73706 23.173738h2.75881v-9.051102h-2.75881zm1.50169-23.173738h-1.57249v2.091686c0 .512731.35183.928923.78732.926778.43549 0 .78517-.411902.78517-.926778zm-2.23537 0h-1.57249v2.091686c0 .512731.35183.928923.78732.926778.43549 0 .78517-.411902.78517-.926778zm-2.23323 0h-1.57248v2.091686c0 .512731.34968.928923.78517.926778.43549 0 .78731-.411902.78731-.926778zm-2.23537 0h-1.57462v2.091686c0 .512731.35182.928923.78731.926778.43549 0 .78731-.411902.78731-.926778zm-2.23322 0h-1.57463v2.091686c0 .512731.34968.928923.78517.926778.43549 0 .78946-.411902.78946-.926778zm-5.85015 16.825738v3.814378c0 1.034044.88385 2.267602 1.98223 2.265457 1.09623 0 1.93932-1.27432 1.93932-2.310509l.0429-3.769326zm3.61478-16.825738h-1.57463v2.091686c0 .512731.34968.928923.78517.926778.43549 0 .78946-.411902.78946-.926778zm-2.23537 0h-1.57463v2.091686c0 .512731.34968.928923.78517.926778.43549 0 .78946-.411902.78946-.926778zm-2.23537 0h-1.57463v2.091686c0 .512731.34968.928923.78517.926778.43549 0 .78946-.411902.78946-.926778zm-2.23537 0h-1.57463v2.091686c0 .512731.34968.928923.78517.926778.43549 0 .78946-.411902.78946-.926778zm-2.23537 0h-1.57462v2.091686c0 .512731.34967.928923.78516.926778.43549 0 .78946-.411902.78946-.926778zm-2.23537 0h-1.57462v2.091686c0 .512731.34967.928923.78731.926778.43549 0 .78731-.411902.78731-.926778zm-1.04903 20.640116c0 1.034044.88385 2.267602 1.98222 2.265457 1.10053 0 1.94147-1.27432 1.94147-2.310509l.0429-3.769326h-3.9666zm-1.18634-20.640116h-1.57462v2.091686c0 .512731.34968.928923.78517.926778.43763 0 .78945-.411902.78945-.926778zm58.77606 2.091686c0 .512731.35182.928923.78731.926778.43549 0 .78517-.411902.78517-.926778v-2.091686h-1.57248zm-.59853-22.495817c.53417 2.190371 1.52528 4.258458 2.84462 6.096997v38.675814 10.638638h-2.70732v-6.079834h-2.70733v6.079834h-2.70519v-6.079834h-2.70518v6.079834h-2.70733v-6.079834h-2.70518v6.079834h-2.70733v-10.638638-15.231766h-2.70733v34.9021983.1330098 10.5485345h-2.25467v-7.6287551h-2.25468v7.6287551h-2.25468v-7.6287551h-2.25682v7.6287551h-2.25468v-7.6287551h-2.25682v7.6287551h-2.25253v-7.6287551h-2.25682v7.6287551h-2.25468v-10.5485345-.1330098-34.9021983h-2.70733v15.206023.02574 10.638638h-2.70518v-6.094851h-2.70733v6.094854h-2.70733v-6.094851h-2.70303v6.094851h-2.70733v-6.094851h-2.70733v6.094851h-2.70733v-60.905612h24.15143.57922l-.0257 13.657102c0 1.81065.81306 4.013892 2.11952 5.753746 1.44806 1.920061 3.22005 2.979849 4.9899 2.979849h.002c3.98377 0 6.9807-5.296793 6.9807-8.733595v-13.657102h.57923 20.90992c-.12657 1.834248.0193 3.692095.46982 5.494163" fill="#fff"/><g fill="#fff" transform="translate(374.99977)"><path d="m254.30946-39.496348h-14.40977v.594254h14.40977z"/><path d="m303.35844-38.901665v-.594254h-14.40977v.594254"/><path d="m303.35844-38.307626h-14.40977l7.20381 19.127666z"/><path d="m297.0904-18.243529c0-.517022-.41833-.937504-.93749-.937504-.51701 0-.93533.420482-.93533.937504s.41832.937505.93533.937505c.51916 0 .93749-.420483.93749-.937505"/><path d="m272.56633 5.3350312c0-.517022-.42047-.9375045-.93748-.9375045-.51915 0-.93748.4204825-.93748.9375045 0 .5170219.41833.9375045.93748.9375045.51701 0 .93748-.4204826.93748-.9375045"/><path d="m281.4973-9.0587735-19.63993.042906 9.76955 13.414681z"/><path d="m280.17753-44.570886h-2.78027v6.781354c0 .982556.58137 1.77847 1.29575 1.77847h.18878c.71652 0 1.29574-.795914 1.29574-1.77847zm-4.05885 0h-3.81857v6.781354c0 .982556.79589 1.77847 1.77842 1.77847h.26173c.98253 0 1.77842-.795914 1.77842-1.77847zm-5.09715 0h-3.81858v6.781354c0 .982556.79589 1.77847 1.77843 1.77847h.26172c.98253 0 1.77843-.795914 1.77843-1.77847zm-5.09931 0h-2.81673v6.781354c0 .982556.5878 1.77847 1.3129 1.77847h.19308c.7251 0 1.31075-.795914 1.31075-1.77847zm-4.09746 9.814835v-11.069847l19.64637.0021v11.02694z"/><path d="m269.61659 9.2172008h1.61753l-.009-3.8830278h.80877l.009 3.8830278h1.61753l.004.9718292h-1.61968l.006 1.939369h-.80877l-.006-1.939369h-1.61753z" fill-rule="evenodd"/><path d="m294.59738-14.314376h1.24425l-.006-2.98843h.62213l.006 2.98843h1.2464v.746571h-1.24425l.004 1.493142h-.62213l-.004-1.493142h-1.24426z" fill-rule="evenodd"/><path d="m254.3086-38.307626h-14.40976l7.20166 19.127666z"/><path d="m248.04034-18.243529c0-.517022-.41832-.937504-.93748-.937504-.51701 0-.93534.420482-.93534.937504s.41833.937505.93534.937505c.51916 0 .93748-.420483.93748-.937505"/><path d="m245.54733-14.314376h1.24425l-.009-2.98843h.62427l.006 2.98843h1.24426l.002.746571h-1.24425l.004 1.493142h-.62428l-.002-1.493142h-1.2464z" fill-rule="evenodd"/><path d="m280.20478-32.804025h-2.78027v4.279912l1.39228 4.279912 1.38799-4.279912zm-4.061 0h-3.81643v4.279912l1.90929 4.279912 1.90714-4.279912zm-5.09715 0h-3.81644v4.279912l1.90929 4.279912 1.90715-4.279912zm-5.09716 0h-2.81674v4.279912l1.40944 4.279912 1.4073-4.279912zm-4.09746 9.960717v-11.320849l19.64636-.04076v11.320849z"/><path d="m280.20478-20.845586h-2.78027v4.279912l1.39228 4.279911 1.38799-4.279911zm-4.061 0h-3.81643v4.279912l1.90929 4.279911 1.90714-4.279911zm-5.09715 0h-3.81644v4.279912l1.90929 4.279911 1.90715-4.279911zm-5.09716 0h-2.81674v4.279912l1.40944 4.279911 1.4073-4.279911zm-4.09746 9.960717v-11.32085l19.64636-.04076v11.32085z"/><path d="m261.85265-9.6538851h19.64422v-.6350149h-19.64422"/><path d="m302.01765-60.706904h-2.79743v1.398748c0 .77446.62642 1.400893 1.39871 1.400893.7723 0 1.39872-.626433 1.39872-1.400893zm-4.14037 0h-2.79743v1.398748c0 .77446.62642 1.400893 1.39872 1.400893.77229 0 1.39871-.626433 1.39871-1.400893zm-4.14037 0h-2.79957v1.398748c0 .77446.62642 1.400893 1.39871 1.400893.77444 0 1.40086-.626433 1.40086-1.400893zm-4.14251 0h-2.79743v1.398748c0 .77446.62642 1.400893 1.39872 1.400893.77229 0 1.39871-.626433 1.39871-1.400893zm-4.14251 0h-2.79529v1.398748c0 .77446.62642 1.400893 1.39872 1.400893.77015 0 1.39657-.626433 1.39657-1.400893zm-4.13822 0h-2.79958v1.398748c0 .77446.62642 1.400893 1.39872 1.400893.77444 0 1.40086-.626433 1.40086-1.400893zm-3.88938 6.092706v5.015757c0 .982556.58137 1.778469 1.29575 1.778469h.19092c.71438 0 1.2936-.795913 1.2936-1.778469v-5.015757zm-.25314-6.092706h-2.79957v1.398748c0 .77446.62642 1.400893 1.40086 1.400893.77229 0 1.39871-.626433 1.39871-1.400893zm-4.14251 0h-2.79528v1.398748c0 .77446.62641 1.400893 1.39657 1.400893.77229 0 1.39871-.626433 1.39871-1.400893zm-4.14037 0h-2.79743v1.398748c0 .77446.62642 1.400893 1.39872 1.400893.77444 0 1.39871-.626433 1.39871-1.400893zm-2.93687 6.092706h-2.81888v5.015757c0 .982556.5878 1.778469 1.3129 1.778469h.19308c.7251 0 1.3129-.795913 1.3129-1.778469zm-1.20349-6.092706h-2.79958v1.398748c0 .77446.62642 1.400893 1.40086 1.400893.7723 0 1.39872-.626433 1.39872-1.400893zm2.48207 11.108463c0 .982556.79589 1.778469 1.77843 1.778469h.26172c.98253 0 1.77843-.795913 1.77843-1.778469v-5.015757h-.002-3.81643zm5.09716 0c0 .982556.79589 1.778469 1.77842 1.778469h.26173c.98038 0 1.77628-.795913 1.77628-1.778469v-5.015757h-3.81643zm-11.72175-11.108463h-2.79528v1.398748c0 .77446.62427 1.400893 1.39657 1.400893.77229 0 1.39871-.626433 1.39871-1.400893zm-4.14036 0h-2.79743v1.398748c0 .77446.62641 1.400893 1.39871 1.400893s1.39872-.626433 1.39872-1.400893zm-4.14037 0h-2.79958v1.398748c0 .77446.62642 1.400893 1.40086 1.400893.7723 0 1.39872-.626433 1.39872-1.400893zm-4.14251 0h-2.79743v1.398748c0 .77446.62641 1.400893 1.39871 1.400893s1.39872-.626433 1.39872-1.400893zm-4.14037 0h-2.79743v1.398748c0 .77446.62642 1.400893 1.39657 1.400893.77444 0 1.40086-.626433 1.40086-1.400893zm44.90689 20.614372-.015-14.521666h-7.4355v8.192974h-19.64637l.004-8.192974h-7.5449-.002v14.521666h-14.40977v-28.208802c.23169-.36685.46767-.733699.66933-1.117712 1.51885-2.797496 2.20319-5.979004 2.09164-9.104734h13.75974v9.420096c0 2.664487 1.79774 5.133749 4.4214 5.605719 3.4453.622143 6.44653-2.005873 6.44653-5.339699v-9.686116h8.9565.002v9.686116c0 2.999156 2.43274 5.431948 5.43397 5.431948 2.99908 0 5.43181-2.432792 5.43181-5.431948v-9.686116h16.24612v38.431248z"/></g><path d="m615.56939-69.417973c-.2038.384012-.43763.750862-.66932 1.117711-2.29115 3.608427-5.91236 6.427377-10.10636 7.643773-.50628.150172-1.01686.266019-1.53172.368995-2.11524.418337-4.30126.431209-6.43581.07723-2.11094-.351832-4.16611-1.046916-6.02391-2.11743-2.23108-1.280756-4.15109-3.06137-5.64634-5.14233-1.31934-1.838539-2.31046-3.906626-2.84463-6.099143-.45051-1.799922-.59424-3.659914-.46981-5.492017.19736-2.915489 1.08979-5.773054 2.60221-8.227299 2.4456-4.028909 6.50445-6.935817 10.97519-8.014912.45909-.113702.92246-.19737 1.38799-.274601v.246711c-.43978.09225-.87742.186643-1.30862.315362-4.35275 1.272175-8.05119 4.354998-10.12781 8.259479-1.28501 2.377014-1.93503 5.0415-1.9715 7.69526-.0236 1.701238.20166 3.396041.68863 5.013611.27245.931069.63929 1.832103 1.06835 2.700957 1.47809 2.98843 3.82072 5.526342 6.71468 7.15893 1.53387.894598 3.21576 1.51245 4.95557 1.872864 2.1088.4355 4.30127.465534 6.43581.08152.34968-.0665.7015-.122283 1.04689-.208096 4.20258-1.012591 8.01687-3.726419 10.32517-7.512908.0965-.154463.17592-.319652.26602-.480551 1.39657-2.437083 2.16457-5.241015 2.22464-8.087854.0279-1.454526-.10726-2.913343-.45909-4.337835-1.07049-4.40434-4.0331-8.317403-7.99327-10.591441 3.97519 2.246149 7.00001 6.094852 8.28288 10.512064.42906 1.426637.65002 2.917634.7058 4.417212.10941 3.12573-.57279 6.305093-2.09164 9.104735" fill="#dab072"/><path d="m590.64528-100.88337c-.0601-.004-.13944-.0172-.24242-.0451h-.0536c.18878-.39259.71867.0708.29605.0451m.46338.006c-.0515.002-.1137-.009-.18021-.0386.35183-.0644.32608.0343.18021.0386m3.0806.10941c-.14802 0-.31964-.0215-.51272-.0708-.81735-.0236-1.63684-.0472-2.45204-.0708.50414-.95896-.17377-1.2872-.0794-1.56394.37327.0515.65859-.004.82807-.11585-.004.0172-.006.0408-.006.0515-.006.15875.0686.31965.21024.33467.15017.015.27459-.28962.27674-.32823.006-.15876-.10083-.40976-.30248-.46768-.009.0129-.0172.03-.0257.0451-.0687-.19737-.3368-.40976-.86454-.56637.55562-1.72054 1.05333-3.48614.79375-5.35042.55562-1.22284-2.28471-2.8876-1.15845-3.26303.63286 1.31722.23169-1.1928 1.70978-.4119 1.61324-.12229.57708 1.70552 1.87926 2.04019.28317 2.22041-.77444 4.47943-.0965 6.60973.74441.98256 1.24426 3.12359-.19951 3.12788m9.53357.832381c-.18878-.255291-.42262-.437641-.78302-.351831l-.1137-.0515c.16089-.0622.28532-.16733.3647-.15875.11799.0107.62641.21453.61569.49128-.004.07937-.0429.03647-.0837.07079m10.06989.819512c-.48269-.448371 1.41159-1.538192-.43549-1.152032-.5213-.59855.19307-1.93079-.19307-2.93051.19307-2.39632-.84953-5.00717-2.92186-6.63976-.55991-1.04692 1.13699.68865.58137-.57709 1.50812-.72727 2.31903 1.01044 2.90469 1.87286-.0922 2.47784 1.48667 4.69181 2.95618 6.72129-.87741.45266-.59853 2.010159-2.31474 1.4631.86669.759445.67147.982559-.57708 1.242142m-.25743.635015c-.86454-.491278-2.56574-1.111276-.62213-.744426-.0987.27031 1.5403.759443.62213.744426m-12.4683.231694c.24242.0236.59853-.456953.60497-.615706.006-.195224-.10727-.36685-.27674-.384013-.36684-.03647-.69293.332525-.70365.645742-.0107.23813.31321.349687.37542.353977m17.94946.107266c.0794.0086.23812-.01502.31964-.08796.0451-.07509.0858-.188788.12872-.263874.004-.07723.16089-.107266.24456-.216677.0386-.03647.0923-.145882.0965-.225259.006-.197369-.2746-.304635-.35397-.313217-.0772-.0064-.24027.01931-.28103.09654-.16733.220968-.42048.632869-.42262.712246-.004.07723.0708.281037.26816.298199m.80876.675776c.0794.0064.27889-.214532.40331-.321798 0 0 .0494-.07509.0494-.154463.004-.07723-.0751-.203805-.15232-.212387-.19951-.01716-.56849.377576-.57064.418338-.004.117992.18878.261728.2703.27031m-17.20505.467679c.23598.02145.35826-.195224.3647-.353977.006-.156609-.03-.205951-.14588-.216678-.0815-.0086-.16733.06436-.2467.05578-.0772-.0064-.61784-.375431-.69722-.381867-.19736-.01931-.23812.05363-.24241.171625-.006.117993.133.643596.37113.667195.0794.0064.24027-.05149.31964-.04505.0794.0086.19737.09439.27674.102975m.98683.09439c.27674.02789.60496-.37114.61569-.60927.009-.235985-.30248-.384012-.3411-.388303-.0772-.0086-.20165.05792-.28103.04934-.0794-.0064-.34968-.190933-.42905-.199514-.23598-.02145-.19951.180206-.19951.180206-.009.19737.0622.246712.33251.429064.15446.135155.0279.278892.10298.405466.0365.08152.12013.126573.19951.133009m2.673 1.724837c.19737.01931.21024-.293909.21238-.332524.0193-.551347-.46337-.323944-.51915-.924633-.0386-.04076-.12014-.08796-.19951-.09654-.27674-.0236-.32608.289618-.32823.330379-.002.07723.0279.235985.0665.317507.11155.130864.2703.225259.38185.353978.0772.08581.15017.214532.22526.30249 0 .03647.0815.04076.16089.04934m-4.58444.02574c.12872-.0043.21453-.04934.21882-.16519.004-.07938-.0665-.248857-.0622-.328234.002-.07938.28961-.364704.29175-.441935.004-.07938-.03-.205951-.0686-.251003-.0772-.08581-.58137-.446226-.66075-.454807-.15875-.01502-.15875.102975-.16089.141591-.002.07938.15017.212386.22525.341105-.12013.02789-.24885.326089-.25529.523458-.009.19737.0558.60069.33252.628579.0472.0064.0987.0086.13944.0064m6.6868.967539c.19737.01931.32179-.126574.32608-.242421.009-.19737-.29819-.463389-.41618-.474116-.11799-.01287-.2038.171626-.2038.212387-.004.07294.0815.437645.25529.497714.0129.0043.0257.0064.0386.0064m1.58965.07723c.0794.0086.24027-.180207.31964-.210241.0429-.03647.15875-.0236.19951-.01931.0429-.03647.0794-.06865.0837-.148027.002-.07938-.30034-.388303-.40975-.596399-.0408-.0043-.0429-.04291-.12228-.05149-.0794-.0064-.19736.102975-.19951.141591-.009.197369-.0601.47197-.0644.551347-.002.07938.0365.317507.19308.332524m-5.05854.379722c.0794.0064.11369-.02574.11584-.102976.004-.07938-.1373-.332524-.13301-.409755.002-.07938.28961-.564219.29391-.641451.002-.07938-.0665-.244566-.10298-.326088-.0772-.08796-.45265-.63716-.57064-.647887-.19736-.01931-.24885.364704-.24885.364704-.004.117993.21882.461244.21667.538476-.002.07938-.0858.190933-.0901.27031-.006.156608.0837.91176.51916.954667m10.61049.825948c.0794.0086.19522-.06221.23598-.09654.0794-.03218.0837-.107266.16733-.178061.0386.0021.0708.0064.15232-.02789.0429-.03433.0493-.07294.0515-.152318.004-.07938.0129-.197369-.14588-.212387-.15875-.01502-.61569.341106-.62427.538476 0 .07938.0408.03862.0408.07723.0386.04291.0429.04505.12228.05149m-9.5636.74228c.1566.01502.21452-.255293.21667-.293909.002-.07723-.0858-.04934-.0837-.128719.002-.07723.12657-.150172.12872-.229549.006-.158754-.0665-.319652-.22525-.33467-.23598-.02145-.32608.246712-.33252.405466-.004.117992.0193.555637.29605.581381m-14.14805.135155c.30463.03003.21024-.33896.48698-.315362.0794.0086.31535.199515.39687.205951.26173.02574.41619-.476261.42262-.635015.004-.115847-.088-.321797-.17806-.332524-.20165-.01931-.39472.156608-.45694.27031l-.0815-.0064c-.28103-.343251-.18235-.454807-.46123-.482697-.26601-.0236-.41189.517022-.41833.675776-.002.07723-.0107.592108.28961.619997m-.75084 1.270029c.0751.0021.15446-.01073.25529-.0901.0172-.115847-.002-.278892.0665-.351833.0708-.111556.19522-.259583.19951-.341105.004-.156609-.11155-.16519-.19951-.173771-.0837-.0064-.10726.03432-.18664.02789-.0815-.0086-.27888-.229549-.35826-.23813-.26172-.02574-.27888.332524-.45479.474115-.14159.06651-.36256.08152-.56421.178062l-.009.117992c.0987.04934.20809.10083.28961.109411.21882.02145.29605-.130864.44192-.117992.20381.02145.0944.364704.44193.399029.0279.0021.0536.0064.0772.0064m21.81309.326089c.0365 0 .0644-.01502.0837-.03218.16519-.10083.29176-.328234.41833-.47197.0386-.03647.0858-.148027.0901-.227404.002-.07723-.0729-.16948-.0729-.248857.002-.07723.0922-.26602.0965-.384012.004-.117993-.14374-.489133-.26387-.49986-.23598-.0236-.40546.401175-.4076.480552-.004.07938.0923.594253.088.67363-.009.235985-.28746.175916-.30033.532039-.006.117993.0794.158754.16089.16519.0386.0043.0751.01502.10727.01287m-20.79194.60927c.20165.01931.14802-.343251.32608-.326088.0772.0086.2038.13301.28103.139446.15446.01502.32608-.04505.33251-.203806.002-.04076-.0558-.278891-.18878-.37114-.0879-.0086-.2038.02145-.28961-.02574-.0772-.0472-.15446-.09654-.23169-.102975-.25314-.02574-.47839.23384-.48697.429064-.006.158753.0236.437645.25743.461243m1.73552.4355c.0815.0086.56206-.141591.64143-.13301.0815.0086.16948.05792.2746.109412.0429-.03647.0815-.0708.0837-.150173.009-.197369-.38829-.276746-.42905-.281036-.0837-.0064-.22311.01502-.30677.0064-.0815-.0086-.35183-.190933-.4312-.197369-.0858-.0086-.3411.0472-.34539.167335-.009.197369.34324.463389.51272.478406m-.2038 2.123866c.0493.0043.0837-.03003.12657-.02574.0107-.04076.0429 0 .0451-.07723.006-.156608-.3647-.311071-.39044-.351832-.0343-.0043-.0794-.12872-.15446-.173771-.18449-.05792-.42262-.04505-.61354-.141591-.0644-.0064-.15446-.12872-.21882-.135155-.0987-.04934-.28103-.113702-.36041-.122284-.0815-.0086-.29604.01502-.37542.0064-.21882-.02145-.25314-.379721-.5642-.409756-.26173-.02574-.43549.156609-.44407.353978-.009.235985.39472.90747.60925.926778.28103.02789.29605-.36685.28961-.484842.088-.03218.19951-.02145.28103-.01287.0965.0086.2746.343251.56421.37114.0815.0086.30463-.0901.44192-.07723zm30.59581.613562c.35612.03432.40975-.392594.41618-.551348.002-.07723-.21667-.574945-.21238-.654322.002-.07723.0901-.225258.13515-.300345.0837-.109411.31965-.210241.40331-.321797.20595-.175917.21024-.257439.21882-.454808.009-.235985-.11155-.317507-.29604-.690793-.11585-.130864-.10512-.330379-.21882-.499859l-.1137-.01287c-.0429.03432-.16304.143736-.16733.223113l-.0193.429064c-.015.353978-.38829.755152-.39258.834529-.002.07723.15446.16948.23383.218823-.0429.03432-.0837.07509-.0837.113701-.0257.630724-.26172.527749-.27673.963249-.002.07938.0558.67363.37327.703665m-31.25655 1.493142c.006-.07723-.0343-.158754-.0772-.281037-.42477-.199515-.41189-.437645-.73798-.469825-.0794-.0064-.13729.02789-.21667.02145-.18664-.01931-.23812-.381867-.5449-.409756-.0837-.0086-.2231.09654-.30248.0901-.0815-.0086-.1566-.09654-.23598-.102976-.20594-.02145-.41618.158754-.42262.394739-.0129.358268.19951.613561.57494.647886.18234.01931.10511-.03003.39902-.120137.0922-.03003.19307.06221.28746.0708.10083-.03003.21024-.09869.28961-.0901.0815.0086.251.141591.37757.152317.0944.05149.28532.109412.3647.07723zm-4.17255.493423c-.0429-.01073-.0794-.120138-.10941-.40332-.9525-.36685.55992-1.205669-.74441-1.10913.19308-1.004009.96323-1.542484-.62212-1.325807-.81521-1.100549 1.38584.390448.64143-.879581.87098-1.010445-1.33865-3.5977.62856-3.050644.0558-.722973-.7916-2.177499.84738-1.54892.43549 1.660477-2.07018 1.967257-.55776 3.619153-.6157.523458-.13945 1.596118.25528 1.928642-.0708.276746-.0944.53633-.10297.551347-.0472.03647-.15661.02574-.21667.06007-.0708.03218-.14588.184497-.14803.261729-.015.356123.29176.699374.42906 1.147746.0172.04076-.0193.160899.0193.242421.0215.03647.0408.05792.0644.07079-.17805.05578-.29604.463389-.384.4355m8.32579 2.008019c.15445.01502.26601-.09439.2703-.212387.006-.158753-.24885-.617852-.36684-.628578-.0815-.0064-.12443.02789-.15875.102975l-.0193.506295c-.006.158754.25529.22955.2746.231695m-6.52376.474115c.0772.0086.0643.01073.10297-.02574.14802-.06436.0901-.22955.12657-.345397.15446-.143736.50199.167335.51272-.148027.0107-.274601-.82808-.555638-.85167-.557783-.2746-.02789-.4312.195224-.43549.351833-.006.158753.2703.697228.5449.725117m5.76004.871c.11584.01073.30892-.480551.30892-.480551.009-.195225-.0429-.439791-.20595-.456953-.0815-.0043-.12871.03003-.15875.0665-.0107.07723.015.120138 0 .199515-.0193.07723-.0837.186643-.14373.261729-.009 0-.0129-.0021-.0172.113702-.002.07938.1137.285327.21667.296054m-5.54981 1.486706c.13086.01287.17162-.139446.17162-.139446.004-.120137-.0601-.171625-.0558-.251002.006-.156608.32393-.124428.33251-.321798.002-.07723-.03-.115847-.0644-.158753-.19307-.05792-.52344-.173771-.71008-.22955-.20165.05792-.0837.186643-.13515.300345-.0558.07294-.11799.06865-.17806.102975-.0922-.01073-.1802.261729-.1802.261729-.004.117993.0236.356123.24241.377577.0794.0086.2038-.139446.28318-.13301.0794.0064.21024.182352.2939.190933m-1.90929 1.950095c-.0794-.0064-.22311-.143736-.25743-.186642-.0558-.08367-.0536-.244567-.10297-.328234-.0687-.124429-.20166-.296054-.26173-.461244.0729-.03003.15017-.05792.22955-.04934.0837.0064.13515.0472.15446.04934.19307.257438.36255.549202.58351.808785-.10941.02789-.26387.173771-.34539.167335m5.60773.377577c.26816.02574.32394-.394739.32608-.474116.004-.07723-.0536-.248857-.0493-.328234.002-.07723.0665-.150172.0686-.229549.004-.117993-.12871-.16948-.15231-.173771-.26173-.02574-.37113.441936-.37328.480552-.002.08152.0729.248857.0708.328234-.004.115847-.0365.227403-.03.30678.0236.04291.0558.08152.13944.0901m-4.81398 2.147464c-.4076-.03862-.78731-.703665-.84738-1.025462-.0257-.122284-.19522-.220968-.29819-.268165.0686-.07294.19307-.137301.27459-.130865.0837.0086.22311.06436.30034.109411.23813.223114.53203.722973.80662.789478.004 0 .4977.08367.48912.281037-.002.07938-.009.07938-.0451.115847-.23169.01931-.59638.135155-.68005.128719m7.89673.448372c.0794.0064.33681-.167335.49985-.229549.1609-.06436.36899-.08152.55992-.143737.12442-.06651 1.00613-.613561 1.01685-.890307.006-.156609-.12871-.16948-.15231-.173771-.0794-.0064-.30677.130864-.45051.156608-.22311.05578-.47625-.04934-.68434.04934-.2703.133009-.50199.465534-.4741.70581-.0987.06865-.45694.235985-.46338.351832-.002.07938.0644.16519.14802.173771m.6157 1.999437c.0837.0086.0858.01073.12228-.02574.10297-.02789.44407-.315361.44836-.435499.006-.156609-.1137-.212387-.18021-.216678-.17376-.01716-.27888.212387-.33895.326089-.12442.02789-.24241-.02574-.37971-.03862-.0343.03647-.0858.07509-.088.154463-.006.156608.39688.235985.41619.235985m-1.85995 3.115004c-.12228-.0021-.24885-.01287-.37542-.02574-1.19492-.259584-3.48606-.755152-3.70703-1.568228 1.01257-.05792 3.08061-2.402758 1.09624-1.214251-.51916.720827-3.75851 1.585391-1.75698.150172.64787-.785187 3.79712-1.999437 1.03402-1.463107-1.23782.364704-2.52069 2.612998-3.62336 2.083105.41189-1.917916 2.51211-3.05279 4.56942-2.896181.18235-1.089823-1.95648-.319653-2.17101-1.480271-.12657-.368995.0279-1.598262-1.11554-1.07695-.49126-.613561 1.69476-1.289337.0622-1.321517-.48697-.701519.17163-1.593972-1.08765-1.370858.72725-1.197089-1.93503.152317-.83236-1.295773 1.0426-.742281-1.54888-2.430647.13301-2.089541.82592.476261.68219 3.719983 1.05332 1.570373.89458-.956812-.83022-1.690511 0-2.718119-.12013-.33896-.22525-.508441-.31535-.570655.18235.01287.10941-.07294.28103-.13301l.0193-.431209c.009-.07938-.0987-.09439-.0944-.173771.004-.115847.29605-.08367.30463-.319652.006-.117993-.17591-.452663-.17162-.532039.006-.156609.26387-.08796.2746-.364705.004-.07938-.18235-.459098-.17806-.538475.004-.117992.0772-.184497.0751-.263874l.015-.235985c-.0343-.0021-.0493-.04505-.12872-.05149-.0901-.0086-.16947.01716-.23812.06221-.0129-.08152-.0257-.163044-.0493-.261729 1.43733-1.122001-.39902-3.166491.35826-4.747591.62427-1.250721-1.44591-.336815-.20595-1.643314 1.13485.08581 1.02115 1.398748.91174 2.102412 1.54459-.384012.50414-3.368151 2.45419-2.467117.37113-.770169-.92676-1.98442-.60926-.557783-.58566-.418337-2.45419 1.055497-1.35366-.248857.95893-.817366 1.01042-1.1456-.30034-1.334388-1.70549-.205951-2.20748-1.10484-3.69201-1.744145-1.52528-.259583-3.42814-1.13487-3.14711-2.83182-.0129-2.04878-.50842-4.10185-1.07692-6.097.0214-1.19923.26601-3.03133 1.19277-2.5894 1.28072-.19737 2.01226 2.64518 1.20564 3.80151.0665 1.95438.60282 4.20912 1.61968 5.81381 1.95005 1.353699 4.77965.19094 6.52161 1.722693 1.07907-.130864 2.63439-.909613 2.81888.879581 1.24641-.311071-.28317-1.890024 1.53816-2.083104 1.78057-.93965 2.62796.28747 1.99939 1.761306-.0386 1.47598 1.27215 1.250722.60497-.255293-.66504-1.143455 1.68189-2.782473 1.27214-2.031613-1.19062 1.115562.68434 1.115562 1.22709 1.244281-1.17775 1.132729.0622 1.381586.73583.46768.57708.298199.9761.722972 1.34508 1.122002.0129-.04505.0193-.09225.0193-.135155l.1609.01716c.23169.182352.57922.373286.77658.392594.0794.0086.16519-.02789.24242-.01931-.19951.06007-.52988.227404-.60711.218822-.03-.0021-.10297-.0236-.18664-.05363.53203.525604 1.11339.892453 2.17745.656468 1.13055-.525603-1.98652-1.373004.22525-1.031898.57708.564218 1.15845 3.595554 1.19921 1.754871.10726.16948.37756.242421.52559.441935-.002.07938-.002.19737-.006.276747-.002.07938.15231.171625.22954.180206.12014.01073.44407-.195224.45051-.353977.009-.235985-.53417-.607126-.53203-.647887.002-.07723.16948-.336815.17163-.416192.004-.07723-.0322-.04505-.03-.08152-.0386-.04505-.0365-.04505-.11584-.05363-.1373-.01287-.58137.124429-.7058.36685-.49555-.954667 1.04475-.948231.58995-1.51245.54276.549202.73583 1.102694 1.62826.7101 1.521.401175.5685 2.201098 1.69905 3.217979-.70794.09439-1.18633 1.91148-.45479 1.8793.37756.731554 1.49096-2.748154 1.43518-.566364 1.49096.568509.16733-2.003729 1.64542-1.857847.17806-.06221.30463-.156608.39259-.268165.0215.06221.0408.115848.0386.141591-.002.07723-.0493.07509-.0515.113702-.12228.107266-.35826.124429-.36684.321798.0837.156608.17162.178062.27674.186643.0365.0021.0751.0021.11585.0064.55348.05149.63929-.16948.6543-.566364.0129-.394739-.12657-.725118-.26815-1.132729l-.16305-.01931c-.0129.01931-.0279.03003-.0429.04934-.0172-.686503-.13515-1.360133 1.00613-1.160618.0107.06221.0365.117992.0644.180207-.20595.139445-.4784.03862-.48912.315362-.004.197369.26601.257438.38615.268164.19736.02145.36898-.120137.48697-.109411.0794.0086.31107.0708.42905.124429.0772.04505.18879.13301.22311.216677 0 .03862-.004.158754.0343.242421 0 0 .0794.08367.15875.0901.19951.01931.40116-.195224.40545-.313216l.0236-.589963c-.11155-.130864-.2274-.223113-.30677-.231694-.0772-.0064-.31965.05363-.39688.0472-.0794-.0086-.0772-.08796-.15446-.137301.16519-.180207.51916-.268165.53203-.581381.004-.07938-.10512-.251003-.10297-.328234.004-.07938.16947-.336815.17376-.416192.002-.07938-.10297-.368995-.13515-.570655-.0772-.0472-.15231-.09654-.23169-.102975-.1566-.01502-.21452.263874-.21667.300344-.002.07938.0408.122284.0386.199515-.11799-.01073-.31321-.0708-.39688.03862-.03.02574-.0622.05578-.0901.0901-.10512-.16948-.33037-.07509-.62856.609271-1.81919-.941795-1.20994 1.733418-2.05732 2.237568-.53417.491278-.89886 1.306499-1.53172.223113.24027-.549202.92676-2.439228.85811-.635014 1.97365-.190934.0944-3.481854 2.62152-2.992721.48483-1.111275 2.16243.26602 2.78885-1.025462 1.30432.632869 1.26356.07723 1.21207-.871005.77444 2.439233.69292-1.37515 1.10911-2.07881.3368-1.9029-.10512-3.96455-.52559-5.85672-.0408-1.04048-2.60436-2.4521-.30249-2.52719 1.89856-.088 2.7202 1.75487 2.6537 3.21154-.20595 2.37916.62427 4.79694 1.51885 7.04523-.1802 1.664772-1.43304 3.035631-.62213 4.762613-.0236 1.844975 1.53172 3.108568.52774 4.80766.74226 2.274039.44407-.845255 1.32577-1.340824-.82807-1.119857-.93533-2.482134-1.26785-3.786489-.60711-1.042625.54275-3.235141.11584-.956812-.0965.995428.77015 1.932933 1.01686 2.949814.84953-.991137-1.13485-3.69424.25743-4.449392 1.0662.626433.17591 1.598263 1.04475 2.636597-.24027 1.51245.99111 3.209398-.17806 4.683232.83022 1.570374-.9954 2.625871-.87312 4.116868-.58566 1.639024-2.57432 2.647324-3.49894 4.127594-1.71406.753007-3.47962 1.458817-5.43181.858127-1.71407.956813-3.43458-.978265-5.02851-.171625-1.70335-.0472-3.04843-1.37944-4.79682-1.04477-1.8578-1.130584-4.0138.613561-5.97457.30249-1.36225-.20166-3.88937-.120138-2.92829 1.767743-1.2464.07079-1.01257 1.321516-2.55287 1.089822-1.21208.33896-.71223 2.010164.0193.538475 1.25499-.16519 2.43703-.141591 3.70703.353977.86883-.300344 3.78425-.246711 1.4931.242422-.81091 1.186361 3.175-1.199234 1.80203.716536-1.48882.388303-.48483 1.428783.33252.216677.14373 2.035908-2.07019 3.930225-3.27583 4.964269-1.35152.755152 1.62611.13301.37328 1.493142-1.0426 1.392312-2.49709 2.291201-4.36133 2.241859" fill="#fff"/><g transform="translate(374.99977)"><path d="m225.00596-45.643546c-16.79316 0-30.40703 13.614196-30.40703 30.40561 0 16.7935583 13.61387 30.407754 30.40703 30.407754 16.79101 0 30.40488-13.6141957 30.40488-30.407754 0-16.791414-13.61387-30.40561-30.40488-30.40561m0 63.761033c-18.39139 0-33.35463-14.9614565-33.35463-33.355423 0-18.389677 14.96324-33.353278 33.35463-33.353278 18.39138 0 33.35462 14.963601 33.35462 33.353278 0 18.3939665-14.96324 33.355423-33.35462 33.355423" fill="#dab072"/><path d="m225.00596 15.169174c-16.79316 0-30.40703-13.6141953-30.40703-30.405609 0-16.793558 13.61387-30.407754 30.40703-30.407754 16.79101 0 30.40488 13.614196 30.40488 30.407754 0 16.7914137-13.61387 30.405609-30.40488 30.405609" fill="#38284f"/><path d="m248.1431-13.410339c-.71437 0-1.31719-.420483-1.61968-1.019027l-2.29543 1.149891c-1.22495.611416-2.24824 2.688085-2.55287 3.5998461l-.33681 1.014736c.7251.2424211 1.25713.90747 1.25713 1.71411 0 1.0104454-.81949 1.8299573-1.82777 1.8299573-1.01257 0-1.83206-.8195119-1.83206-1.8299573 0-.3797215.14159-.7101006.33895-1.001864l-.89672-.6028347c-2.56574-1.7269824-7.2081-3.0227544-10.2694-3.5826834.56206 3.0527895 1.8578 7.6845337 3.58475 10.2868059l.5878.88387151c.28961-.19307871.61998-.33252451.99326-.33252451 1.01042 0 1.82991.81951197 1.82991 1.82995732 0 1.01044538-.81949 1.82995728-1.82991 1.82995728-.80877 0-1.47166-.5320392-1.71407-1.2593024l-.99755.3325245c-.72081.2467117-2.9476 1.2464305-3.59976 2.5529299l-1.13914 2.278329c.58995.3046353 1.00399.9031793 1.00399 1.61328 0 1.0104453-.81735 1.8299573-1.82777 1.8299573s-1.82991-.819512-1.82991-1.8299573c0-.7143913.42047-1.3150807 1.01471-1.6175707l-1.13485-2.2740383c-.65431-1.3064994-2.87895-2.3062182-3.60834-2.5550752l-.9761-.3303792c-.24456.7208273-.90745 1.2464305-1.71192 1.2464305-1.01042 0-1.82777-.819512-1.82777-1.8299573 0-1.01044534.81735-1.8299573 1.82777-1.8299573.37328 0 .69936.1394458.98897.33037918l.57493-.86885428c1.72694-2.6044175 3.02483-7.2361617 3.58689-10.2868059-3.06559.559929-7.7101 1.855701-10.27798 3.5826834l-.89458.6006894c.19522.2917634.33681.6221425.33681 1.001864 0 1.0104454-.81949 1.8299573-1.82992 1.8299573-1.00827 0-1.82776-.8195119-1.82776-1.8299573 0-.8087853.52988-1.4716889 1.25712-1.7162553l-.33895-1.0104454c-.2467-.7229721-1.24854-2.9476681-2.55072-3.5998461l-2.29544-1.147745c-.30248.598544-.9053 1.019026-1.61968 1.019026-1.01256 0-1.82991-.819512-1.82991-1.829957s.81735-1.829957 1.82991-1.829957c.71652 0 1.31934.422628 1.61968 1.021172l2.29544-1.147746c1.30218-.652177 2.30402-2.876873 2.55287-3.606282l.33895-.993282c-.72081-.244567-1.24855-.90747-1.24855-1.711965 0-1.010446.8195-1.829957 1.82992-1.829957s1.82991.819511 1.82991 1.829957c0 .377576-.14159.707955-.33681.997573l.88385.592108c2.5636 1.724837 7.21025 3.02061 10.27584 3.580538-.56206-3.050644-1.8621-7.680243-3.58689-10.286805l-.5878-.886017c-.29176.193078-.61784.332524-.99326.332524-1.00828 0-1.82777-.819512-1.82777-1.829957s.81949-1.829957 1.82777-1.829957c.80876 0 1.4738.532039 1.71407 1.259302l.99969-.332524c.72081-.244567 2.94545-1.244286 3.59976-2.54864l1.14557-2.293346c-.59638-.30249-1.02114-.905325-1.02114-1.619716 0-1.010445.82163-1.829957 1.83206-1.829957 1.01042 0 1.82776.819512 1.82776 1.829957 0 .714391-.42047 1.319371-1.019 1.619716l1.14772 2.293346c.6114 1.227123 2.68802 2.24615 3.59976 2.54864l.99969.334669c.24027-.727263.90316-1.261447 1.71193-1.261447 1.01042 0 1.82991.821657 1.82991 1.829957 0 1.012591-.81949 1.829957-1.82991 1.829957-.37328 0-.70365-.139446-.99326-.332524l-.5878.886017c-1.72695 2.604417-3.02269 7.236161-3.58475 10.286805 3.0613-.559928 7.70366-1.855701 10.2694-3.580538l.89672-.60498c-.19736-.291763-.33895-.624288-.33895-1.001864 0-1.010445.81949-1.829957 1.83206-1.829957 1.00828 0 1.82777.819512 1.82777 1.829957 0 .808786-.53203 1.471689-1.25713 1.71411l.33681 1.014736c.2467.722973 1.2464 2.947669 2.55287 3.599846l2.29114 1.147746c.30249-.60069.90745-1.023318 1.62397-1.023318 1.01042 0 1.82991.819512 1.82991 1.829958 0 1.010445-.81949 1.829957-1.82991 1.829957" fill="#dab072"/><path d="m225.00596 3.0065017c1.21422-2.43279197 4.86546-3.64918796 4.86546-3.64918796-2.58075-3.88517304-4.25835-11.55254374-4.25835-13.98533574 2.43273 0 10.12781 1.660477 13.98714 4.256313 0 0 1.21637-3.649188 3.64911-4.865584-2.43274-1.216396-3.64911-4.863438-3.64911-4.863438-3.85933 2.59369-11.55441 4.256313-13.98714 4.256313 0-2.432792 1.6776-10.102308 4.25835-13.987481 0 0-3.65124-1.214251-4.86546-3.644898-1.21637 2.430647-4.86547 3.644898-4.86547 3.644898 2.57646 3.885173 4.25621 11.554689 4.25621 13.987481-2.43273 0-10.13425-1.662623-13.99358-4.256313 0 0-1.21423 3.647042-3.64696 4.863438 2.43273 1.216396 3.64696 4.865584 3.64696 4.865584 3.85933-2.593691 11.56085-4.256313 13.99358-4.256313 0 2.432792-1.6776 10.1001627-4.25621 13.98533574 0 0 3.6491 1.21639599 4.86547 3.64918796" fill="#de003c"/></g><g fill="#dab072" transform="translate(374.99975)"><path d="m257.69619 101.48588c-1.13055-1.842831-5.74502-5.221709-8.19492-6.182812-.635-.251002 3.0377.143737 4.68098.353978 2.15813.274601 4.962 1.611135 4.89764 1.139164-.006-2.160336 1.03831-5.764472 3.75851-7.420659l.25958-.158753.26601.158753c2.7202 1.84712 3.74779 5.092988 3.7628 7.420659-.0687.471971 2.73522-.864563 4.89336-1.139164 1.64327-.210241 5.31812-.60498 4.68097-.353978-2.44775.961103-7.06007 4.339981-8.19063 6.182812z"/><path d="m221.62887 55.638047c-.0751 3.312373-.94177 6.345854-2.46705 9.263488-3.99664 8.403216-16.19678 8.203701-13.50661-2.074523.99111-3.788634 4.35704-6.015476 8.35582-6.397342-.28961.997573-1.87711 4.526623-.59424 5.217416 2.05088-.07723 4.84187-4.309946 5.45327-5.998313 0 0 0-.01073 2.75881-.01073"/><path d="m230.96615 55.648559c.61141 1.688366 3.4024 5.921081 5.45328 5.998312 1.28287-.690792-.30678-4.217697-.59424-5.217416 3.99878.381867 7.3647 2.608708 8.35582 6.397342 2.69016 10.278224-9.50998 10.477739-13.50661 2.074524-1.52529-2.917634-2.38983-5.951116-2.46706-9.263489 2.75881 0 2.75881.01073 2.75881.01073"/><path d="m224.69596 85.098428c-3.86362-4.164064-6.45725-8.980306-5.33742-14.626786.61569-3.117149 2.11094-6.002603 3.16427-9.003905.66074-1.88359.83022-3.850848.75084-5.828832h3.27797c-.1566 1.993002.18664 3.925934.75085 5.828832 1.00613 3.02061 2.53356 5.884611 3.16641 9.003905 1.18419 5.828832-1.59608 10.226737-5.32241 14.609624l-.2274.289618z"/><path d="m232.62745 49.321369h-15.47167c-.92032 0-1.67117.753007-1.67117 1.673349v1.267884c0 .920342.75085 1.673349 1.67117 1.673349h15.47167c.92032 0 1.67116-.753007 1.67116-1.673349v-1.267884c0-.920342-.75084-1.673349-1.67116-1.673349"/><path d="m219.48768 47.619273c-1.13055-1.842829-5.74502-5.219562-8.19492-6.180665-.635-.251002 3.0377.143736 4.68097.351832 2.15814.274601 4.96201 1.611135 4.89765 1.139165-.006-2.158191 1.03617-5.762327 3.75851-7.418514l.25958-.158754.26601.158754c2.7202 1.844975 3.74778 5.090843 3.76066 7.418514-.0665.47197 2.73736-.864564 4.8955-1.139165 1.64327-.208096 5.31597-.602834 4.68097-.351832-2.44989.961103-7.06007 4.337836-8.19278 6.180665z"/><path d="m188.59711 35.893387-.22525.289618-.22526-.272455c-3.85504-4.155484-6.44438-8.960999-5.34171-14.592462h11.11892c1.16488 5.81167-1.60681 10.200993-5.3267 14.575299"/><path d="m263.32752 35.893387-.22525.289618-.22525-.272455c-3.85505-4.155484-6.44439-8.960999-5.34172-14.592462h11.11892c1.16703 5.81167-1.6068 10.200993-5.3267 14.575299"/><path d="m147.15611 55.638047c-.0751 3.312373-.94177 6.345854-2.46706 9.263488-3.99663 8.403216-16.19677 8.203701-13.50661-2.074523.99112-3.788634 4.35704-6.015476 8.35582-6.397342-.28961.997573-1.87711 4.526623-.59424 5.217416 2.05088-.07723 4.84187-4.309946 5.45327-5.998313 0 0 0-.01073 2.75882-.01073"/><path d="m156.4936 55.648559c.6114 1.688366 3.4024 5.921081 5.45327 5.998312 1.28287-.690792-.30677-4.217697-.59424-5.217416 3.99878.381867 7.36471 2.608708 8.35582 6.397342 2.69017 10.278224-9.50997 10.477739-13.5066 2.074524-1.52529-2.917634-2.39198-5.951116-2.46706-9.263489 2.75881 0 2.75881.01073 2.75881.01073"/><path d="m150.2232 85.098428c-3.86363-4.164064-6.45726-8.980306-5.33957-14.626786.61783-3.117149 2.11309-6.002603 3.16641-9.003905.66074-1.88359.83022-3.850848.75085-5.828832h3.27797c-.15661 1.993002.18663 3.925934.75084 5.828832 1.00398 3.02061 2.53356 5.884611 3.16641 9.003905 1.18419 5.828832-1.59607 10.226737-5.32241 14.609624l-.22739.289618z"/><path d="m158.1549 49.321369h-15.47168c-.92032 0-1.67116.753007-1.67116 1.673349v1.267884c0 .920342.75084 1.673349 1.67116 1.673349h15.47168c.92032 0 1.67116-.753007 1.67116-1.673349v-1.267884c0-.920342-.75084-1.673349-1.67116-1.673349"/><path d="m145.01513 47.619273c-1.13056-1.842829-5.74717-5.219562-8.19492-6.180665-.63715-.251002 3.0377.143736 4.68097.351832 2.15814.274601 4.96201 1.611135 4.89765 1.139165-.006-2.158191 1.03616-5.762327 3.75851-7.418514l.25958-.158754.26601.158754c2.7202 1.844975 3.74778 5.090843 3.76065 7.418514-.0665.47197 2.73737-.864564 4.89551-1.139165 1.64327-.208096 5.31597-.602834 4.68097-.351832-2.4499.961103-7.06222 4.337836-8.19278 6.180665z"/><path d="m296.71733 55.638047c-.0772 3.312373-.94177 6.345854-2.46705 9.263488-3.99664 8.403216-16.19678 8.203701-13.50876-2.074523.99326-3.788634 4.35919-6.015476 8.35797-6.397342-.28961.997573-1.87711 4.526623-.59424 5.217416 2.05087-.07723 4.84187-4.309946 5.45327-5.998313 0 0 0-.01073 2.75881-.01073"/><path d="m306.05483 55.648559c.6114 1.688366 3.40239 5.921081 5.45327 5.998312 1.28072-.690792-.30892-4.217697-.59424-5.217416 3.99878.381867 7.3647 2.608708 8.35582 6.397342 2.69016 10.278224-9.50997 10.477739-13.50661 2.074524-1.52528-2.917634-2.39197-5.951116-2.46706-9.263489 2.75882 0 2.75882.01073 2.75882.01073"/><path d="m299.78442 85.098428c-3.86362-4.164064-6.45725-8.980306-5.33957-14.626786.61784-3.117149 2.11309-6.002603 3.16642-9.003905.66074-1.88359.82807-3.850848.75084-5.828832h3.27797c-.1566 1.993002.18664 3.925934.75084 5.828832 1.00399 3.02061 2.53357 5.884611 3.16642 9.003905 1.18419 5.828832-1.59608 10.226737-5.32241 14.609624l-.2274.289618z"/><path d="m307.71612 49.321369h-15.47167c-.92032 0-1.67116.753007-1.67116 1.673349v1.267884c0 .920342.75084 1.673349 1.67116 1.673349h15.47167c.92032 0 1.67117-.753007 1.67117-1.673349v-1.267884c0-.920342-.75085-1.673349-1.67117-1.673349"/><path d="m294.57636 47.619273c-1.13271-1.842829-5.74718-5.219562-8.19493-6.180665-.63714-.251002 3.0377.143736 4.68098.351832 2.15814.274601 4.962 1.611135 4.89764 1.139165-.006-2.158191 1.03617-5.762327 3.75851-7.418514l.25958-.158754.26601.158754c2.7202 1.844975 3.74779 5.090843 3.76066 7.418514-.0665.47197 2.73736-.864564 4.8955-1.139165 1.64328-.208096 5.31598-.602834 4.68098-.351832-2.4499.961103-7.06223 4.337836-8.19278 6.180665z"/><path d="m182.96578 101.48588c-1.13056-1.842831-5.74503-5.221709-8.19492-6.182812-.635-.251002 3.0377.143737 4.68097.353978 2.15814.274601 4.96201 1.611135 4.89765 1.139164-.006-2.160336 1.03616-5.764472 3.75851-7.420659l.25958-.158753.26601.158753c2.7202 1.84712 3.74778 5.092988 3.76065 7.420659-.0665.471971 2.73737-.864563 4.89551-1.139164 1.64327-.210241 5.31812-.60498 4.68097-.353978-2.44775.961103-7.06008 4.339981-8.19063 6.182812z"/></g></g></g></svg>