<svg width="100" height="100" viewBox="0 0 100 100" fill="none" xmlns="http://www.w3.org/2000/svg">
<path d="M80 80C91.0457 80 100 88.9543 100 100L65 100L65 80L80 80Z" fill="white"/>
<path d="M40 3.05176e-05C51.0457 3.05176e-05 60 8.95434 60 20V100H40V3.05176e-05Z" fill="white"/>
<path d="M0 30C0 39.1992 3.7611 45.5775 8.97671 50C3.7611 54.4225 0 60.8009 0 70C0 93.3681 24.2697 98.534 35 99.6759V79.6525C29.076 78.935 20 76.7365 20 70C20 63.2635 29.076 61.0651 35 60.3476V39.6525C29.076 38.935 20 36.7365 20 30C20 23.2635 29.076 21.0651 35 20.3476V0.324097C24.2697 1.46607 0 6.6319 0 30Z" fill="white"/>
</svg>
