<?xml version="1.0" encoding="UTF-8"?>
<svg width="220.5" height="209.5" fill="none" version="1.1" viewBox="0 0 441 419" xmlns="http://www.w3.org/2000/svg">
 <path d="m293.44 123.44c-0.244 0.5-0.727 0.845-1.281 0.909-12.628 1.465-26.046-0.291-31.219-1.103-8.636-8.628-17.985-18.225-24.877-26.612-0.707-0.859-0.741-2.0876-0.091-2.9924 9.829-13.703 18.83-24.576 22.635-28.881 10.872-2.3695 21.713-4.4671 29.034-4.7662 0.553-0.0222 1.079 0.2324 1.403 0.6811 9.437 13.126 16.187 25.703 18.353 30.299-4.333 11.642-9.546 23.403-13.957 32.466zm-12.048 22.208c-6.961 11.654-12.249 18.68-13.944 20.816-2.3 3.247-8.163 11.706-17.271 20.262-0.581 0.546-1.339 0.86-2.138 0.895-11.406 0.475-22.011-0.325-26.141-1.226-3.497-1.446-11.636-5.106-21.256-10.425-0.839-0.463-1.333-1.367-1.27-2.321 0.502-7.457 2.868-18.079 4.961-29.312 5.175-9.087 10.54-19.455 16.103-27.971 0.586-0.896 1.683-1.313 2.718-1.03 16.657 4.547 31.111 8 36.979 9.32 8.035 9.317 15.821 15.868 21.059 19.929 0.326 0.253 0.41 0.709 0.2 1.063zm-100.78 16.195c-0.844 0.523-1.919 0.495-2.73-0.079-7.253-5.134-15.907-11.695-23.115-18.43-4.252-7.266-7.531-16.565-9.82-24.484-0.148-0.51-0.034-1.062 0.302-1.473 8.088-9.943 17.795-17.81 21.853-20.805 9.155 3.9492 19.663 7.4332 28.855 10.49 0.94 0.312 1.604 1.155 1.682 2.14 1.296 16.352 4.292 29.576 5.092 34.629-3.432 3.667-12.4 11.98-22.119 18.012zm-40.286-64.342c-1.2-7.7191-1.989-15.826-2.076-19.539-0.199-8.5732 1.163-16.166 2.745-23.196 0.26-1.1508 0.857-2.194 1.728-2.9912 4.595-4.2087 12.904-11.634 18.148-14.997 4.943-3.1692 18.681-7.6041 24.346-9.2493 1.098-0.3201 2.268 0.1681 2.833 1.1607 0.681 1.1965 1.393 2.3843 2.148 3.5536 4.46 6.9428 9.375 12.92 11.445 15.509-2.744 10.894-3.91 23.109-4.441 33.413-0.05 0.9666-0.666 1.8133-1.569 2.1655-14.333 5.5906-25.166 9.965-28.806 11.645-9.848 0.4154-19.228 2.0939-25.559 3.2002-0.449 0.0791-0.872-0.2263-0.942-0.6737zm72.254-74.816c0.392-0.6081 1.034-1.0135 1.752-1.1087 14.739-1.9468 28.224-2.2335 33.407-2.0902 9.432 6.2717 18.649 14.547 26.005 22.395 0.515 0.55 0.592 1.3782 0.185 2.0135-5.249 8.2085-12.883 16.09-16.236 19.522-12.436 2.943-25.62 7.2271-36.321 10.739-1.041 0.3411-2.185-0.0457-2.807-0.948-8.12-11.794-13.28-21.905-15.303-25.656 2.196-9.8327 5.267-18.589 9.318-24.865zm98.455 96.817c-0.264 0.119-0.567-0.067-0.582-0.355-0.618-12.107-1.732-23.871-2.315-28.173 0.047-10.456-1.687-21.306-3.417-29.306-0.062-0.2892 0.194-0.5476 0.485-0.4895 9.894 2.0197 13.07 5.7241 13.07 5.7241-5.238-11.741-12.785-20.589-20.988-27.276-7.013-14.68-15.085-21.47-15.085-21.47 0.653 3.247 0.203 6.9193-0.954 10.709-0.073 0.241-0.349 0.356-0.576 0.246-13.442-6.5708-27.322-9.5719-32.691-10.323-8.023-3.8985-16.786-6.4781-23.912-8.4335-0.19-0.0519-0.242-0.2979-0.089-0.42523 9.458-7.8464 18.158-9.8438 18.158-9.8438-15.402-0.61678-28.659 2.168-39.744 6.4262-16.562-1.3263-27.112 1.5525-27.112 1.5525s4.573 5.4707 6.351 8.5163c0.214 0.3684 0.102 0.8405-0.249 1.0828-10.417 7.2184-17.891 15.148-20.838 18.449-3.283 0.4437-8.969 1.2286-13.935 2.4523-0.198 0.0494-0.366-0.1496-0.286-0.3374 4.973-11.838 10.394-18.391 10.394-18.391s-31.964 22.681-38.023 63.438c0 0 2.632-7.2246 11.532-18.175 0.117-0.1434 0.344-0.115 0.42 0.0544 2.522 5.5794 5.405 10.534 6.854 12.808-4.895 7.8736-8.274 16.459-10.355 23.485-0.072 0.244-0.256 0.44-0.496 0.53-7.403 2.808-9.289 5.487-9.289 5.487 1.151 3.928 3.411 7.757 6.266 11.366 0.248 0.312 0.374 0.702 0.357 1.1-0.786 17.394 4.83 28.843 4.83 28.843 1.268-6.075 3.751-11.976 6.887-17.514 0.125-0.221 0.419-0.276 0.617-0.119 7.306 5.798 14.874 10.867 17.877 12.667 1.549 3.952 5.984 14.207 11.91 24.728 0.124 0.222 0.023 0.503-0.216 0.59-7.096 2.583-14.376 3.752-21.051 2.128 0 0 8.05 10.02 32.882 14.293 6.889 8.134 15.273 14.87 25.064 17.21 0 0-2.87-3.152-3.579-14.898-0.015-0.238 0.176-0.441 0.415-0.437 6.131 0.092 14.448 0.225 22.061-0.327 2.698 2.125 8.586 6.79 14.329 9.763 0.286 0.148 0.304 0.55 0.029 0.717-10.095 6.097-16.812 6.628-16.812 6.628 45.727 0.973 73.182-28.815 73.182-28.815-7.532 4.949-16.23 8.026-24.888 9.859-0.292 0.062-0.548-0.196-0.487-0.488 1.608-7.769 1.157-15.281 1.044-17.928 10.849-2.688 20.313-7.53 27.32-12.48 0.141-0.1 0.33-0.101 0.473-2e-3 2.917 2.027 5.413 4.301 7.904 8.087 0 0 4.744-6.704 6.376-22.237 11.746-15.316 13.492-30.993 13.492-30.993-2.947 4.603-7.397 7.92-12.61 10.297zm-90.53 151.23c-19.613 0-37.407 8.757-48.261 21.705l3.443 4.242c9.857-12.24 26.626-20.656 44.818-20.656 18.194 0 34.962 8.416 44.819 20.656l3.443-4.242c-10.855-12.948-28.648-21.705-48.262-21.705zm-45.877 2.749c-1.29 1.047-2.79 1.558-4.114 1.401-1.678-0.192-2.697-0.878-4.367-2.935l-9.618-11.799-5.186 4.206 10.475 12.86c2.226 2.723 4.764 4.181 7.755 4.455 0.354 0.033 0.704 0.051 1.05 0.054 2.9 0.025 5.593-0.995 8.203-3.102 2.907-2.37 4.503-5.121 4.877-8.411 0.34-2.981-0.571-5.758-2.791-8.488l-10.473-12.856-5.186 4.206 9.614 11.805v2e-3c1.676 2.049 2.139 3.186 1.984 4.867-0.116 1.323-0.926 2.685-2.223 3.735zm35.47-37.172-16.8 3.403c-0.767 0.155-1.374 0.538-1.751 1.11-0.381 0.571-0.498 1.276-0.343 2.041l3.348 16.461c0.545 2.677 1.748 4.605 3.576 5.731 1.209 0.744 2.659 1.116 4.33 1.115 0.851-1e-3 1.76-0.099 2.722-0.294l10.5-2.126-1.263-6.214-10.215 2.07c-2.091 0.422-2.77 0.191-3.247-2.151l-0.359-1.766 11.815-2.393-1.249-6.143-11.816 2.392-0.897-4.407 12.913-2.616-1.264-6.213zm32.668 8.982 10.067 2.602 1.591-6.126-10.352-2.676c-5.674-1.467-9.56 0.653-10.94 5.968l-4.227 16.278c-0.195 0.756-0.116 1.465 0.231 2.055 0.347 0.589 0.93 1.003 1.687 1.199l3.843 0.993 2.724-10.528 11.651 3.012 1.574-6.055-11.655-3.014 0.453-1.74c0.599-2.308 1.289-2.502 3.353-1.968zm52.237 14.867 3.554-4.379c-1.765-1.762-3.602-3.472-5.516-5.12-19.887-17.131-45.648-26.564-72.536-26.564-26.887 0-52.647 9.433-72.536 26.564-1.913 1.648-3.751 3.357-5.516 5.119l3.554 4.379c1.795-1.812 3.671-3.569 5.63-5.258 18.87-16.252 43.327-25.202 68.868-25.202s49.998 8.95 68.867 25.202c1.961 1.689 3.836 3.446 5.631 5.259zm-27.13 21.732 1.153-3.969-4.96-3.698 3.994-2.855 2.313 1.734 2.627-8.839-15.244 9.836-6.249-3.528 23.911-15.441c0.922-0.596 2.183-1.121 3.779 0.104l1.022 0.786c1.611 1.238 1.381 2.656 1.066 3.615l-7.937 27.256-5.475-5.001zm-112.53 129.08h-17.634v-13.513h10.509l4.302 3.661h0.144v-13.795h-0.144l-4.302 3.661h-10.509v-11.755h17l4.938 5.28h0.14l-0.564-11.686h-36.258v0.143l3.319 4.011v36.317l-3.319 4.01v0.141h37.81l0.917-13.442h-0.143l-6.206 6.967zm6.662-89.816 12.487 31.813h6.983l11.569-32.163 1.973 28.008-4.374 4.011v0.144h18.974v-0.144l-3.665-4.011-2.684-36.317 2.894-4.011v-0.139h-15.799l-10.723 29.768-11.569-29.768h-16.011v0.139l3.246 4.011-1.907 36.317-3.876 4.011v0.144h15.585v-0.144l-3.877-4.011 0.774-27.658zm-52.504 89.745h-15.305v-33.922l4.1635-4.011v-0.143h-18.907v0.143l3.3186 4.011v36.317l-3.3186 3.939v0.212h35.48l1.695-14.003h-0.144l-6.983 7.457zm-34.17-58.076v0.144h17.989v-0.144l-3.3186-4.011v-36.317l3.3186-4.011v-0.139h-17.989v0.139l3.2456 4.011v13.514h-16.011v-13.514l3.2456-4.011v-0.139h-17.988v0.139l3.3162 4.011v36.317l-3.3162 4.011v0.144h17.988v-0.144l-3.2456-4.011v-15.694h16.011v15.694l-3.2456 4.011zm280.94 58.147h-17.635v-13.513h10.508l4.303 3.661h0.143v-13.795h-0.143l-4.303 3.661h-10.508v-11.755h17.001l4.936 5.28h0.14l-0.562-11.686h-36.258v0.143l3.318 4.011v36.317l-3.318 4.01v0.141h37.809l0.918-13.442h-0.144l-6.205 6.967zm-161.88-11.332-5.288-17.732-6.209 17.732h11.497zm15.8 13.656 3.668 4.01v0.141h-19.113v-0.141l3.668-4.01-2.045-6.967h-15.8l-2.401 6.967 3.457 4.01v0.141h-14.953v-0.141l3.528-4.01 13.754-36.317-2.611-4.011v-0.143h15.165l13.683 40.471zm-183.24-66.24c-9.1718 0-15.026-9.292-15.026-17.317 0-9.852 5.3601-16.255 13.049-16.255 2.0452 0 4.0223 0.211 5.7863 0.7l6.9111 8.519h0.1424l-0.4942-14.077c-1.9771-0.773-6.2769-1.831-11.569-1.831-16.362 0-25.745 11.122-25.745 23.931 0 12.67 9.0281 23.787 24.546 23.787 4.1623 0 10.299-1.405 14.531-4.572l0.6343-7.39h-0.14c-3.5962 2.814-8.7494 4.505-12.626 4.505zm256.85 5.769-3.245-4.011v-36.317l3.245-4.011v-0.139h-17.988v0.139l3.316 4.011v36.317l-3.316 4.011v0.144h17.988v-0.144zm-39.458 43.719 4.442 4.015v8.375c-1.412 1.617-3.88 2.953-7.193 2.953-7.901 0-12.063-9.641-12.063-17.735 0-8.798 4.446-16.187 13.614-16.187 2.539 0 5.22 0.212 7.405 0.983l7.055 7.6h0.14l-0.424-12.244c-4.09-2.112-9.028-3.023-14.036-3.023-15.023 0-25.675 9.219-25.675 24.42 0 12.736 8.183 23.297 20.949 23.297 5.574 0 10.651-1.269 15.377-4.715l5.57 4.715h0.144v-18.439l3.525-4.015v-0.14h-18.83v0.14zm-11.675-65.253c1.412 0.422 3.032 0.632 4.726 0.632 6.209 0 8.889-3.378 8.889-8.376 0-5.913-3.457-8.726-9.878-8.726h-3.737v16.47zm-11.425 17.523v-36.317l-3.318-4.011v-0.139h21.163c12.838 0 18.692 5.837 18.692 14.711 0 9.218-6.983 14.918-16.505 14.918-3.103 0-6.278-0.212-8.607-0.773v11.611l4.655 4.011v0.144h-19.398v-0.144l3.318-4.011zm106.57-14.921c0-7.74-2.891-20.058-12.769-20.058-7.9 0-10.157 7.882-10.157 13.23 0 7.814 3.246 20.412 12.77 20.412 6.839 0 10.156-6.477 10.156-13.584zm-11.851 20.62c-13.966 0-22.994-11.472-22.994-24.488 0-13.445 10.368-23.23 23.348-23.23 14.317 0 23.488 11.193 23.488 24.002 0 14.639-11.074 23.716-23.842 23.716zm-14.917 18.455 3.669 4.011v25.41c0 7.318-3.597 9.148-9.452 9.148-5.926 0-9.522-1.691-9.522-9.148v-25.41l3.668-4.011v-0.143h-18.412v0.143l3.317 4.011v25.41c0 12.172 6.207 16.609 19.466 16.609 12.063 0 18.2-4.154 18.2-16.259v-25.76l3.242-4.011v-0.143h-14.176v0.143zm85.191 5.483c0-3.172-2.411-5.57-5.453-5.57-3.075 0-5.482 2.398-5.482 5.57 0 3.237 2.407 5.619 5.482 5.619 3.042 0 5.453-2.382 5.453-5.619zm1.353 0c0 3.894-3.143 6.734-6.806 6.734-3.695 0-6.833-2.84-6.833-6.734 0-3.847 3.138-6.691 6.833-6.691 3.663 0 6.806 2.844 6.806 6.691zm-6.816-0.464c0.992 0 1.885-0.054 1.885-1.249 0-0.963-0.872-1.137-1.699-1.137h-1.603v2.386h1.417zm1.102 0.947 2.19 3.41h-1.306l-2.039-3.355h-1.364v3.355h-1.167v-7.74h2.954c1.834 0 2.737 0.675 2.737 2.199 0 1.386-0.872 1.984-2.005 2.131zm-2.932-70.448 4.304 4.011v23.648l-18.13-27.798h-16.294v0.139l3.317 4.011v36.317l-3.317 4.011v0.144h14.883v-0.144l-4.371-4.011v-29.561l22.639 33.716h8.466v-40.472l3.314-4.011v-0.139h-14.811v0.139zm45.484 17.034c-8.112-2.252-10.58-3.238-10.58-6.967 0-4.293 5.574-5.14 9.1-5.14 2.963 0 5.714 0.35 8.183 1.126l6.771 7.321h0.14l-0.563-12.601c-4.235-1.616-8.677-2.464-13.754-2.464-10.652 0-20.88 3.661-20.88 14.221 0 6.825 4.726 10.907 14.954 13.724 7.901 2.181 11.781 3.587 11.781 7.6 0 4.644-5.926 5.628-9.878 5.628-3.314 0-6.277-0.491-8.818-1.266l-6.839-8.445h-0.143l0.494 13.371c4.658 2.112 10.3 2.885 15.588 2.885 11.427 0 21.021-4.783 21.021-14.425 0-9.08-6.277-11.683-16.577-14.568zm-309.68 9.641h11.497l-5.288-17.737-6.209 17.737zm-1.268 17.808h-14.954v-0.144l3.5294-4.011 13.754-36.317-2.611-4.011v-0.139h15.164l13.684 40.467 3.668 4.011v0.144h-19.114v-0.144l3.669-4.011-2.046-6.967h-15.8l-2.4 6.967 3.457 4.011v0.144z" fill="#FFFFFF"/>
</svg>
