<?xml version="1.0" encoding="UTF-8" standalone="no"?>
<svg
   xmlns:dc="http://purl.org/dc/elements/1.1/"
   xmlns:cc="http://creativecommons.org/ns#"
   xmlns:rdf="http://www.w3.org/1999/02/22-rdf-syntax-ns#"
   xmlns:svg="http://www.w3.org/2000/svg"
   xmlns="http://www.w3.org/2000/svg"
   xmlns:sodipodi="http://sodipodi.sourceforge.net/DTD/sodipodi-0.dtd"
   xmlns:inkscape="http://www.inkscape.org/namespaces/inkscape"
   inkscape:version="1.0 (4035a4f, 2020-05-01)"
   sodipodi:docname="Logo UEFA Europa League - 2021.svg"
   id="svg18"
   version="1.1"
   fill="none"
   viewBox="0 0 422.72495 600"
   height="600"
   width="422.72495">
  <metadata
     id="metadata24">
    <rdf:RDF>
      <cc:Work
         rdf:about="">
        <dc:format>image/svg+xml</dc:format>
        <dc:type
           rdf:resource="http://purl.org/dc/dcmitype/StillImage" />
      </cc:Work>
    </rdf:RDF>
  </metadata>
  <defs
     id="defs22" />
  <sodipodi:namedview
     inkscape:current-layer="svg18"
     inkscape:window-maximized="0"
     inkscape:window-y="0"
     inkscape:window-x="0"
     inkscape:cy="221.49158"
     inkscape:cx="162.31313"
     inkscape:zoom="1.4176611"
     showgrid="false"
     id="namedview20"
     inkscape:window-height="900"
     inkscape:window-width="1440"
     inkscape:pageshadow="2"
     inkscape:pageopacity="0"
     guidetolerance="10"
     gridtolerance="10"
     objecttolerance="10"
     borderopacity="1"
     bordercolor="#666666"
     pagecolor="#ffffff" />
  <g
     transform="scale(1.4329659)"
     id="g991">
    <path
       style="fill:#FFFFFF;fill-opacity:1"
       d="m 104.152,287.595 c -1.219,0.991 -2.636,1.475 -3.888,1.326 -1.5848,-0.181 -2.5485,-0.83 -4.1257,-2.778 l -9.0884,-11.175 -4.9011,3.983 9.898,12.178 c 2.1038,2.579 4.5016,3.959 7.3291,4.219 0.3336,0.031 0.6641,0.048 0.9921,0.051 2.739,0.024 5.283,-0.942 7.749,-2.937 2.748,-2.244 4.255,-4.85 4.608,-7.965 0.324,-2.823 -0.539,-5.452 -2.636,-8.039 l -9.896,-12.174 -4.9002,3.983 9.0852,11.18 c 1.583,1.942 2.021,3.019 1.874,4.61 -0.111,1.253 -0.876,2.543 -2.1,3.538 z"
       id="path949" />
    <path
       style="fill:#FFFFFF;fill-opacity:1"
       d="m 147.5,290.002 c 17.19,0 33.034,7.969 42.349,19.56 l 3.252,-4.017 c -10.256,-12.263 -27.069,-20.554 -45.601,-20.554 -18.532,0 -35.345,8.291 -45.601,20.554 l 3.253,4.017 c 9.313,-11.591 25.158,-19.56 42.348,-19.56 z"
       id="path947" />
    <path
       style="fill:#FFFFFF;fill-opacity:1"
       d="m 82.4282,269.998 c 17.8288,-15.39 40.9388,-23.865 65.0718,-23.865 24.132,0 47.242,8.475 65.071,23.865 1.853,1.6 3.626,3.262 5.32,4.98 l 3.359,-4.147 c -1.668,-1.668 -3.403,-3.287 -5.212,-4.848 -18.791,-16.223 -43.133,-25.156 -68.538,-25.156 -25.406,0 -49.7465,8.933 -68.5383,25.156 -1.8082,1.56 -3.5446,3.179 -5.2118,4.847 l 3.3583,4.148 c 1.6953,-1.718 3.4676,-3.381 5.32,-4.98 z"
       id="path945" />
    <path
       style="fill:#FFFFFF;fill-opacity:1"
       d="m 204.93,274.482 c 0.298,-0.908 0.516,-2.25 -1.008,-3.423 l -0.965,-0.743 c -1.508,-1.162 -2.7,-0.664 -3.57,-0.099 l -22.594,14.621 5.906,3.341 14.402,-9.314 -2.482,8.371 -2.185,-1.643 -3.774,2.704 4.686,3.502 -1.089,3.759 5.174,4.735 z"
       id="path943" />
    <path
       style="fill:#FFFFFF;fill-opacity:1"
       d="m 137.667,252.394 -15.874,3.222 c -0.725,0.147 -1.298,0.51 -1.656,1.051 -0.359,0.54 -0.471,1.209 -0.323,1.934 l 3.164,15.587 c 0.514,2.535 1.651,4.361 3.378,5.427 1.143,0.704 2.512,1.058 4.091,1.056 0.804,-10e-4 1.662,-0.094 2.573,-0.278 l 9.921,-2.014 -1.194,-5.884 -9.652,1.96 c -1.975,0.401 -2.616,0.182 -3.067,-2.036 l -0.34,-1.673 11.165,-2.267 -1.181,-5.816 -11.165,2.266 -0.847,-4.175 12.201,-2.476 z"
       id="path941" />
    <path
       style="fill:#FFFFFF;fill-opacity:1"
       d="m 168.533,260.899 9.513,2.465 1.503,-5.801 -9.781,-2.535 c -5.362,-1.389 -9.033,0.618 -10.337,5.651 l -3.994,15.416 c -0.185,0.714 -0.11,1.387 0.218,1.945 0.328,0.558 0.879,0.95 1.593,1.135 l 3.632,0.941 2.574,-9.97 11.009,2.853 1.486,-5.736 -11.01,-2.852 0.427,-1.648 c 0.566,-2.186 1.219,-2.369 3.167,-1.864 z"
       id="path10" />
  </g>
  <g
     transform="scale(1.4329659)"
     id="g1039">
    <g
       id="g1004">
      <path
         id="path971"
         d="m 68.4049,386.801 h -7.1668 v 31.352 h 22.0362 v -6.451 H 68.4049 Z"
         style="fill:#FFFFFF;fill-opacity:1" />
      <path
         id="path969"
         d="m 216.584,405.568 h 13.346 v -6.449 h -13.346 v -5.868 h 14.511 v -6.45 h -21.678 v 31.352 h 22.036 v -6.449 h -14.869 z"
         style="fill:#FFFFFF;fill-opacity:1" />
      <path
         id="path967"
         d="m 198.201,405.436 c 0,4.211 -2.152,6.809 -6.092,6.809 -3.942,0 -6.091,-2.598 -6.091,-6.809 v -18.631 h -7.167 v 19.034 c 0,8.735 6.046,12.854 13.258,12.854 7.212,0 13.259,-4.165 13.259,-12.854 v -19.034 h -7.167 z"
         style="fill:#FFFFFF;fill-opacity:1" />
      <path
         id="path965"
         d="m 159.163,406.925 h 9.682 v 2.24 c -1.568,1.749 -4.078,3.093 -7.172,3.093 -5.423,0 -9.502,-3.182 -9.502,-9.77 0,-6.588 4.438,-9.772 8.696,-9.772 3.9,0 6.41,1.883 7.44,5.379 l 6.859,-2.017 c -1.614,-5.871 -6.186,-9.816 -14.21,-9.816 -8.605,0 -15.956,6.187 -15.956,16.226 0,10.039 7.261,16.224 16.045,16.224 6.814,0 11.027,-2.688 14.479,-6.901 v -10.488 h -16.361 z"
         style="fill:#FFFFFF;fill-opacity:1" />
      <path
         d="M 124.7207,386.80078 112,418.15234 h 8.10742 l 2.2832,-5.95703 h 12.27344 l 2.28321,5.95703 h 8.10742 l -12.71875,-31.35156 z m 3.8086,9.31836 3.67187,9.62695 h -7.3457 z"
         style="fill:#FFFFFF;fill-opacity:1"
         id="path959" />
      <path
         id="path955"
         d="m 93.8134,405.569 h 13.3476 v -6.451 H 93.8134 v -5.867 h 14.5116 v -6.45 H 86.6467 v 31.352 h 22.0373 v -6.451 H 93.8134 Z"
         style="fill:#FFFFFF;fill-opacity:1" />
    </g>
    <g
       id="g1012">
      <path
         id="path983"
         d="M 12.2589,352.63 H 35.0917 V 341.595 H 12.2589 V 331.558 H 37.0846 V 320.523 H 0 v 53.638 H 37.6981 V 363.126 H 12.2589 Z"
         style="fill:#FFFFFF;fill-opacity:1" />
      <path
         d="m 170.24609,319.29688 c -15.775,0 -25.95703,10.64339 -25.95703,28.02539 0,17.382 10.18203,28.02539 25.95703,28.02539 15.772,0 25.95703,-10.64339 25.95703,-28.02539 0,-17.382 -10.18503,-28.02539 -25.95703,-28.02539 z m 0,11.02734 c 7.657,0 13.70703,5.51305 13.70703,16.99805 0,11.487 -6.05003,17 -13.70703,17 -7.658,0 -13.70507,-5.513 -13.70507,-17 0,-11.485 6.04707,-16.99805 13.70507,-16.99805 z"
         style="fill:#FFFFFF;fill-opacity:1"
         id="path981" />
      <path
         d="m 203.49023,320.52344 v 53.63672 h 12.26172 v -18.08204 h 8.73243 c 10.57699,0 19.23437,-6.12934 19.23437,-17.77734 0,-11.647 -8.65738,-17.77734 -19.23437,-17.77734 z m 12.26172,11.03515 h 8.1211 c 5.439,0 7.58789,2.83419 7.58789,6.74219 0,3.908 -2.14889,6.74219 -7.58789,6.74219 h -8.1211 z"
         style="fill:#FFFFFF;fill-opacity:1"
         id="path977" />
      <path
         id="path973"
         d="M 90.0752,320.523 H 77.8164 v 31.875 c 0,7.204 -3.6784,11.648 -10.421,11.648 -6.7427,0 -10.4215,-4.444 -10.4215,-11.648 V 320.523 H 44.7145 v 32.567 c 0,14.941 10.3434,21.99 22.6809,21.99 12.3364,0 22.6798,-7.126 22.6798,-21.99 z"
         style="fill:#FFFFFF;fill-opacity:1" />
      <path
         d="m 260.21289,320.52344 -21.76367,53.63672 h 13.87109 l 3.90821,-10.19141 h 20.99414 l 3.9082,10.19141 H 295 l -21.76367,-53.63672 z m 6.51172,15.93945 6.28516,16.47266 h -12.56836 z"
         style="fill:#FFFFFF;fill-opacity:1"
         id="path963" />
      <path
         d="m 97.826172,320.52344 v 53.63672 h 12.261718 v -19.3086 h 6.5918 l 10.72461,19.3086 h 13.79297 l -11.95508,-21.5293 c 5.441,-3.066 9.27343,-7.89436 9.27343,-14.94336 0,-10.498 -8.50771,-17.16406 -19.38671,-17.16406 z m 12.261718,11.03515 h 9.19336 c 5.059,0 6.97461,2.60491 6.97461,6.12891 0,3.525 -1.91561,6.12891 -6.97461,6.12891 h -9.19336 z"
         style="fill:#FFFFFF;fill-opacity:1"
         id="path953" />
    </g>
    <g
       id="g1020">
      <path
         id="path1016"
         d="m 238.779,388.525 h 2.876 v 7.871 h 1.623 v -7.871 h 2.876 v -1.475 h -7.375 z"
         style="fill:#FFFFFF;fill-opacity:1" />
      <path
         id="path12"
         d="m 254.728,387.044 -2.851,7.474 -2.85,-7.474 h -1.751 v 9.352 h 1.645 v -5.609 l 2.144,5.609 h 1.624 l 2.145,-5.609 v 5.609 h 1.645 v -9.352 z"
         style="fill:#FFFFFF;fill-opacity:1" />
    </g>
  </g>
  <g
     transform="scale(1.4329659)"
     id="g1049">
    <g
       id="g923">
      <path
         style="fill:#ff6900;fill-opacity:1"
         id="path919"
         d="m 67.8725,122.32 c 0,-26.3771 12.8984,-49.7886 32.7095,-64.2922 L 95.3239,40.1377 C 68.1811,57.4132 50.1724,87.763 50.1724,122.321 c 0,36.582 20.1822,68.445 50.0156,85.079 l 6.069,-16.974 C 83.2628,176.442 67.8725,151.145 67.8725,122.32 Z" />
      <path
         style="fill:#ff6900;fill-opacity:1"
         id="path14"
         d="m 199.721,40.1377 -5.257,17.8901 c 19.81,14.5036 32.709,37.9151 32.709,64.2922 0,28.825 -15.391,54.122 -38.385,68.106 l 6.069,16.974 c 29.834,-16.634 50.015,-48.497 50.015,-85.079 0,-34.558 -18.008,-64.9073 -45.151,-82.1833 z" />
    </g>
    <g
       id="g937">
      <path
         id="path931"
         d="m 117.877,192.68 h 12.298 l 14.298,-64.155 V 0 l -43.309,18.4822 35.638,121.2728 z"
         style="fill:#FFFFFF;fill-opacity:1" />
      <path
         id="path929"
         d="M 176.968,192.68 158.043,139.755 193.681,18.4822 150.373,0 v 128.525 l 14.297,64.155 z"
         style="fill:#FFFFFF;fill-opacity:1" />
      <path
         id="path927"
         d="m 114.712,201.53 -6.524,18.245 h 78.47 l -6.525,-18.245 z"
         style="fill:#FFFFFF;fill-opacity:1" />
      <path
         id="path16"
         d="M 158.927,192.68 147.422,141.055 135.918,192.68 Z"
         style="fill:#FFFFFF;fill-opacity:1" />
    </g>
  </g>
</svg>
